<svg preserveAspectRatio="none" width="100%" height="100%" overflow="visible" style="display: block;" viewBox="0 0 24 24" fill="none" xmlns="http://www.w3.org/2000/svg">
<g id="garden:face-very-happy-stroke-16">
<path id="Vector" d="M7.26172 13.055C7.20847 12.8995 7.09608 12.7712 6.9489 12.6979C6.80171 12.6246 6.63159 12.6123 6.47539 12.6636C6.31919 12.7149 6.18949 12.8257 6.1144 12.972C6.03931 13.1182 6.02487 13.2882 6.07422 13.445C7.89922 19.0038 15.5155 19.035 17.2642 13.4363C17.2918 13.3571 17.3032 13.2732 17.2978 13.1896C17.2923 13.106 17.2701 13.0243 17.2324 12.9495C17.1947 12.8746 17.1424 12.8081 17.0785 12.7539C17.0146 12.6996 16.9404 12.6588 16.8604 12.6338C16.7805 12.6088 16.6962 12.6002 16.6128 12.6084C16.5294 12.6166 16.4485 12.6415 16.375 12.6816C16.3014 12.7217 16.2366 12.7762 16.1845 12.8419C16.1324 12.9075 16.0941 12.983 16.0717 13.0637C14.6967 17.4637 8.71922 17.4962 7.26172 13.055ZM16.668 10.125C16.493 10.125 16.3055 10.05 16.193 9.9C16.193 9.9 15.8305 9.5 15.1055 9.5C14.3805 9.5 14.0305 9.8875 14.018 9.9125C13.793 10.1625 13.393 10.2 13.143 9.975C13.0187 9.87052 12.941 9.721 12.927 9.55927C12.9129 9.39755 12.9636 9.23685 13.068 9.1125C13.143 9.025 13.818 8.2625 15.1055 8.2625C16.393 8.2625 17.0805 9.025 17.143 9.1125C17.368 9.375 17.3305 9.775 17.068 9.9875C16.9557 10.0804 16.8136 10.1292 16.668 10.125ZM9.31797 9.9C9.43047 10.05 9.61797 10.125 9.79297 10.125C9.93047 10.125 10.0805 10.0875 10.193 9.9875C10.4555 9.775 10.493 9.375 10.268 9.1125C10.2055 9.025 9.51797 8.2625 8.23047 8.2625C6.94297 8.2625 6.26797 9.025 6.19297 9.1125C5.98047 9.3625 6.00547 9.75 6.26797 9.975C6.51797 10.2 6.91797 10.1625 7.14297 9.9125C7.15547 9.8875 7.50547 9.5 8.23047 9.5C8.95547 9.5 9.31797 9.9 9.31797 9.9ZM21.668 12C21.668 14.6522 20.6144 17.1957 18.739 19.0711C16.8637 20.9464 14.3201 22 11.668 22C9.0158 22 6.47226 20.9464 4.5969 19.0711C2.72154 17.1957 1.66797 14.6522 1.66797 12C1.66797 9.34784 2.72154 6.8043 4.5969 4.92893C6.47226 3.05357 9.0158 2 11.668 2C14.3201 2 16.8637 3.05357 18.739 4.92893C20.6144 6.8043 21.668 9.34784 21.668 12ZM20.418 12C20.418 9.67936 19.4961 7.45376 17.8552 5.81282C16.2142 4.17187 13.9886 3.25 11.668 3.25C9.34732 3.25 7.12173 4.17187 5.48078 5.81282C3.83984 7.45376 2.91797 9.67936 2.91797 12C2.91797 14.3206 3.83984 16.5462 5.48078 18.1872C7.12173 19.8281 9.34732 20.75 11.668 20.75C13.9886 20.75 16.2142 19.8281 17.8552 18.1872C19.4961 16.5462 20.418 14.3206 20.418 12Z" fill="var(--fill-0, #FF5C00)"/>
</g>
</svg>
