<svg preserveAspectRatio="none" width="100%" height="100%" overflow="visible" style="display: block;" viewBox="0 0 21.5 17.5" fill="none" xmlns="http://www.w3.org/2000/svg">
<g id="Group">
<path id="Vector" d="M0.750002 14.25C0.750002 13.315 0.750002 12.848 0.951002 12.5C1.08265 12.272 1.27199 12.0826 1.5 11.951C1.848 11.75 2.315 11.75 3.25 11.75C4.185 11.75 4.652 11.75 5 11.951C5.22801 12.0826 5.41735 12.272 5.549 12.5C5.75 12.848 5.75 13.315 5.75 14.25C5.75 15.185 5.75 15.652 5.549 16C5.41735 16.228 5.22801 16.4174 5 16.549C4.652 16.75 4.185 16.75 3.25 16.75C2.315 16.75 1.848 16.75 1.5 16.549C1.27199 16.4174 1.08265 16.228 0.951002 16C0.750002 15.652 0.750002 15.185 0.750002 14.25ZM8.25 14.25C8.25 13.315 8.25 12.848 8.451 12.5C8.58265 12.272 8.77199 12.0826 9 11.951C9.348 11.75 9.815 11.75 10.75 11.75C11.685 11.75 12.152 11.75 12.5 11.951C12.728 12.0826 12.9174 12.272 13.049 12.5C13.25 12.848 13.25 13.315 13.25 14.25C13.25 15.185 13.25 15.652 13.049 16C12.9174 16.228 12.728 16.4174 12.5 16.549C12.152 16.75 11.685 16.75 10.75 16.75C9.815 16.75 9.348 16.75 9 16.549C8.77199 16.4174 8.58265 16.228 8.451 16C8.25 15.652 8.25 15.185 8.25 14.25ZM15.75 14.25C15.75 13.315 15.75 12.848 15.951 12.5C16.0826 12.272 16.272 12.0826 16.5 11.951C16.848 11.75 17.315 11.75 18.25 11.75C19.185 11.75 19.652 11.75 20 11.951C20.228 12.0826 20.4174 12.272 20.549 12.5C20.75 12.848 20.75 13.315 20.75 14.25C20.75 15.185 20.75 15.652 20.549 16C20.4174 16.228 20.228 16.4174 20 16.549C19.652 16.75 19.185 16.75 18.25 16.75C17.315 16.75 16.848 16.75 16.5 16.549C16.272 16.4174 16.0826 16.228 15.951 16C15.75 15.652 15.75 15.185 15.75 14.25Z" stroke="var(--stroke-0, #FF5C00)" stroke-width="1.5"/>
<path id="Vector_2" d="M3.25 11.75V5.75C3.25 3.393 3.25 2.214 3.982 1.482C4.714 0.750001 5.893 0.750002 8.25 0.750002H13.25C15.607 0.750002 16.785 0.750001 17.518 1.482C18.251 2.214 18.25 3.393 18.25 5.75V8.75M16.25 6.75L18.25 8.75L20.25 6.75" stroke="var(--stroke-0, #FF5C00)" stroke-width="1.5" stroke-linecap="round" stroke-linejoin="round"/>
</g>
</svg>
