<svg preserveAspectRatio="none" width="100%" height="100%" overflow="visible" style="display: block;" viewBox="0 0 20 20" fill="none" xmlns="http://www.w3.org/2000/svg">
<g id="uiw:safety">
<path id="Vector" d="M2.842 3.865V11.299C2.842 15.346 6.047 18.626 10 18.626C13.953 18.626 17.158 15.346 17.158 11.299V3.869L9.957 1.446L2.842 3.865ZM9.955 0L18.5 2.874V11.299C18.5 16.104 14.694 20 10 20C5.306 20 1.5 16.104 1.5 11.299V2.874L9.955 0ZM14.374 6.485C14.3087 6.42504 14.232 6.37884 14.1485 6.34916C14.065 6.31948 13.9764 6.30692 13.8879 6.31224C13.7994 6.31756 13.7129 6.34065 13.6336 6.38012C13.5542 6.4196 13.4836 6.47465 13.426 6.542L9.11 11.511L6.322 8.426C6.26305 8.35996 6.19143 8.30646 6.11138 8.26867C6.03133 8.23088 5.9445 8.20958 5.85606 8.20603C5.76761 8.20249 5.67935 8.21677 5.59654 8.24803C5.51372 8.27929 5.43804 8.32689 5.374 8.388C5.24334 8.51358 5.16647 8.68494 5.15957 8.86603C5.15267 9.04713 5.21627 9.22384 5.337 9.359L8.627 12.999C8.68966 13.0694 8.76669 13.1257 8.8529 13.1638C8.93911 13.202 9.0325 13.2213 9.12677 13.2203C9.22105 13.2194 9.31403 13.1982 9.39946 13.1583C9.48488 13.1184 9.56077 13.0607 9.622 12.989L14.429 7.455C14.5472 7.31763 14.6074 7.1398 14.5972 6.9589C14.5869 6.77801 14.5069 6.60813 14.374 6.485Z" fill="var(--fill-0, #FF5C00)"/>
</g>
</svg>
