<svg preserveAspectRatio="none" width="100%" height="100%" overflow="visible" style="display: block;" viewBox="0 0 20.5 20.5" fill="none" xmlns="http://www.w3.org/2000/svg">
<g id="Group">
<path id="Vector" d="M0.75 10.25C0.75 5.772 0.75 3.532 2.141 2.141C3.532 0.75 5.771 0.75 10.25 0.75C14.728 0.75 16.968 0.75 18.359 2.141C19.75 3.532 19.75 5.771 19.75 10.25C19.75 14.728 19.75 16.968 18.359 18.359C16.968 19.75 14.729 19.75 10.25 19.75C5.772 19.75 3.532 19.75 2.141 18.359C0.75 16.968 0.75 14.729 0.75 10.25Z" stroke="var(--stroke-0, #FF5C00)" stroke-width="1.5" stroke-linejoin="round"/>
<path id="Vector_2" d="M11.1145 5.97225L11.9945 7.74625C12.1145 7.99325 12.4345 8.23025 12.7045 8.27625L14.2995 8.54325C15.3195 8.71425 15.5595 9.46025 14.8235 10.1963L13.5835 11.4463C13.3735 11.6583 13.2595 12.0663 13.3235 12.3593L13.6785 13.9063C13.9585 15.1313 13.3145 15.6053 12.2385 14.9653L10.7445 14.0733C10.4745 13.9113 10.0295 13.9113 9.75447 14.0733L8.25947 14.9653C7.18947 15.6053 6.53947 15.1263 6.81947 13.9063L7.17447 12.3593C7.23947 12.0663 7.12447 11.6593 6.91447 11.4463L5.67447 10.1963C4.94447 9.46025 5.17947 8.71425 6.19947 8.54325L7.79447 8.27625C7.94219 8.24133 8.08108 8.17622 8.20241 8.085C8.32374 7.99379 8.42488 7.87845 8.49947 7.74625L9.37947 5.97225C9.85947 5.00925 10.6395 5.00925 11.1145 5.97225Z" stroke="var(--stroke-0, #FF5C00)" stroke-width="1.5" stroke-linecap="round" stroke-linejoin="round"/>
</g>
</svg>
