<svg preserveAspectRatio="none" width="100%" height="100%" overflow="visible" style="display: block;" viewBox="0 0 24 24" fill="none" xmlns="http://www.w3.org/2000/svg">
<g id="stash:arrow-up-duotone">
<path id="Vector" d="M11.4708 5.46811C11.6118 5.32839 11.8023 5.25 12.0008 5.25C12.1993 5.25 12.3898 5.32839 12.5308 5.46811L17.5308 10.4681C17.6045 10.5368 17.6636 10.6196 17.7046 10.7116C17.7456 10.8036 17.7676 10.9029 17.7694 11.0036C17.7712 11.1043 17.7527 11.2043 17.7149 11.2977C17.6772 11.3911 17.6211 11.4759 17.5499 11.5471C17.4786 11.6184 17.3938 11.6745 17.3004 11.7122C17.207 11.75 17.107 11.7685 17.0063 11.7667C16.9056 11.7649 16.8063 11.7429 16.7143 11.7019C16.6223 11.6609 16.5395 11.6018 16.4708 11.5281L12.7508 7.80811V17.9981C12.7508 18.197 12.6718 18.3878 12.5312 18.5284C12.3905 18.6691 12.1997 18.7481 12.0008 18.7481C11.8019 18.7481 11.6111 18.6691 11.4705 18.5284C11.3298 18.3878 11.2508 18.197 11.2508 17.9981V7.80811L7.53082 11.5281C7.38865 11.6606 7.2006 11.7327 7.0063 11.7293C6.812 11.7259 6.62661 11.6471 6.4892 11.5097C6.35179 11.3723 6.27308 11.1869 6.26965 10.9926C6.26622 10.7983 6.33834 10.6103 6.47082 10.4681L11.4708 5.46811Z" fill="var(--fill-0, white)"/>
</g>
</svg>
