<svg preserveAspectRatio="none" width="100%" height="100%" overflow="visible" style="display: block;" viewBox="0 0 68 72" fill="none" xmlns="http://www.w3.org/2000/svg">
<g id="formkit:people">
<path id="Vector" d="M34 31.5C30.9942 31.5 28.1115 30.3147 25.9861 28.205C23.8607 26.0952 22.6667 23.2337 22.6667 20.25C22.6667 17.2663 23.8607 14.4048 25.9861 12.295C28.1115 10.1853 30.9942 9 34 9C37.0058 9 39.8885 10.1853 42.0139 12.295C44.1393 14.4048 45.3333 17.2663 45.3333 20.25C45.3333 23.2337 44.1393 26.0952 42.0139 28.205C39.8885 30.3147 37.0058 31.5 34 31.5ZM34 13.5C30.2373 13.5 27.2 16.515 27.2 20.25C27.2 23.985 30.2373 27 34 27C37.7627 27 40.8 23.985 40.8 20.25C40.8 16.515 37.7627 13.5 34 13.5Z" fill="var(--fill-0, #383852)"/>
<path id="Vector_2" d="M61.2 49.5C59.9307 49.5 58.9333 48.51 58.9333 47.25C58.9333 45.99 59.9307 45 61.2 45C62.4693 45 63.4667 44.01 63.4667 42.75C63.4667 39.7663 62.2726 36.9048 60.1472 34.795C58.0218 32.6853 55.1391 31.5 52.1333 31.5H47.6C46.3307 31.5 45.3333 30.51 45.3333 29.25C45.3333 27.99 46.3307 27 47.6 27C51.3627 27 54.4 23.985 54.4 20.25C54.4 16.515 51.3627 13.5 47.6 13.5C46.3307 13.5 45.3333 12.51 45.3333 11.25C45.3333 9.99 46.3307 9 47.6 9C50.6058 9 53.4885 10.1853 55.6139 12.295C57.7393 14.4048 58.9333 17.2663 58.9333 20.25C58.9333 23.04 57.936 25.56 56.2133 27.54C62.968 29.34 68 35.46 68 42.75C68 46.485 64.9627 49.5 61.2 49.5ZM6.8 49.5C3.03733 49.5 0 46.485 0 42.75C0 35.46 4.98667 29.34 11.7867 27.54C10.1093 25.56 9.06667 23.04 9.06667 20.25C9.06667 17.2663 10.2607 14.4048 12.3861 12.295C14.5115 10.1853 17.3942 9 20.4 9C21.6693 9 22.6667 9.99 22.6667 11.25C22.6667 12.51 21.6693 13.5 20.4 13.5C16.6373 13.5 13.6 16.515 13.6 20.25C13.6 23.985 16.6373 27 20.4 27C21.6693 27 22.6667 27.99 22.6667 29.25C22.6667 30.51 21.6693 31.5 20.4 31.5H15.8667C12.8609 31.5 9.9782 32.6853 7.85279 34.795C5.72738 36.9048 4.53333 39.7663 4.53333 42.75C4.53333 44.01 5.53067 45 6.8 45C8.06933 45 9.06667 45.99 9.06667 47.25C9.06667 48.51 8.06933 49.5 6.8 49.5ZM47.6 63H20.4C16.6373 63 13.6 59.985 13.6 56.25V51.75C13.6 43.065 20.7173 36 29.4667 36H38.5333C47.2827 36 54.4 43.065 54.4 51.75V56.25C54.4 59.985 51.3627 63 47.6 63ZM29.4667 40.5C26.4609 40.5 23.5782 41.6853 21.4528 43.795C19.3274 45.9048 18.1333 48.7663 18.1333 51.75V56.25C18.1333 57.51 19.1307 58.5 20.4 58.5H47.6C48.8693 58.5 49.8667 57.51 49.8667 56.25V51.75C49.8667 48.7663 48.6726 45.9048 46.5472 43.795C44.4218 41.6853 41.5391 40.5 38.5333 40.5H29.4667Z" fill="var(--fill-0, #383852)"/>
</g>
</svg>
