<svg preserveAspectRatio="none" width="100%" height="100%" overflow="visible" style="display: block;" viewBox="0 0 52.5011 61.5065" fill="none" xmlns="http://www.w3.org/2000/svg">
<g id="Group">
<path id="Vector" d="M20.2216 45.7543L17.2966 47.1763C11.3566 48.8203 8.38358 49.6423 6.78158 47.9113C5.17958 46.1833 6.00758 43.0513 7.66658 36.7813L8.09258 35.1613C8.56358 33.3763 8.80058 32.4883 8.68358 31.6033C8.56358 30.7213 8.10458 29.9443 7.18658 28.3933L6.35258 26.9833C3.12158 21.5203 1.50758 18.7903 2.58158 16.6153C3.66158 14.4433 6.71858 14.2663 12.8356 13.9153L14.4166 13.8253C16.1566 13.7233 17.0236 13.6753 17.7826 13.2703C18.5386 12.8653 19.0996 12.1543 20.2216 10.7263L21.2416 9.43025C25.1896 4.41125 27.1636 1.90325 29.4316 2.29025C31.6996 2.67725 32.7616 5.70125 34.8826 11.7523L35.4316 13.3183C36.0346 15.0373 36.3376 15.8983 36.9226 16.5283C37.5106 17.1643 38.3146 17.5003 39.9256 18.1693L41.3926 18.7813C47.0626 21.1393 49.8976 22.3213 50.2186 24.7303C50.4946 26.7883 48.7876 28.5793 45.2986 31.6003" stroke="var(--stroke-0, #383852)" stroke-width="4.5"/>
<path id="Vector_2" d="M36.0076 28.3221C33.0466 24.7821 31.5676 23.0121 29.8636 23.2821C28.1626 23.5551 27.3676 25.6911 25.7776 29.9631L25.3636 31.0671C24.9136 32.2821 24.6856 32.8881 24.2446 33.3351C23.8066 33.7821 23.2006 34.0191 21.9946 34.4931L20.8936 34.9221C16.6426 36.5871 14.5156 37.4211 14.2726 39.1221C14.0296 40.8231 15.8326 42.2691 19.4356 45.1551L20.3656 45.9051C21.3916 46.7241 21.9046 47.1351 22.1986 47.6961C22.4986 48.2571 22.5436 48.9081 22.6366 50.2071L22.7236 51.3891C23.0536 55.9581 23.2216 58.2441 24.7726 59.0241C26.3236 59.8041 28.2346 58.5591 32.0536 56.0751L33.0406 55.4301C34.1266 54.7251 34.6696 54.3711 35.2906 54.2691C35.9146 54.1701 36.5506 54.3351 37.8136 54.6651L38.9686 54.9651C43.4236 56.1231 45.6526 56.7051 46.8556 55.4841C48.0586 54.2631 47.4346 52.0521 46.1926 47.6241L45.8686 46.4841C45.5176 45.2241 45.3406 44.5941 45.4276 43.9731C45.5176 43.3491 45.8626 42.8031 46.5496 41.7051L47.1796 40.7091C49.6006 36.8541 50.8096 34.9281 49.9996 33.3951C49.1926 31.8621 46.9006 31.7361 42.3136 31.4901L41.1256 31.4241C39.8236 31.3551 39.1696 31.3191 38.6026 31.0341C38.0326 30.7491 37.6126 30.2451 36.7726 29.2371L36.0076 28.3221Z" stroke="var(--stroke-0, #383852)" stroke-width="4.5"/>
</g>
</svg>
