<svg preserveAspectRatio="none" width="100%" height="100%" overflow="visible" style="display: block;" viewBox="0 0 36 36" fill="none" xmlns="http://www.w3.org/2000/svg">
<g id="tap">
<path id="Vector" d="M30 13.5C29.4463 13.5 28.927 13.6509 28.481 13.9138C28.3132 12.4168 27.0403 11.25 25.5 11.25C24.7676 11.25 24.0945 11.5151 23.5715 11.9568C23.0464 11.0845 22.0905 10.5 21 10.5C20.4544 10.5 19.9417 10.6464 19.5 10.9028V3.00002C19.5 1.34543 18.1545 0 16.5 0C14.8455 0 13.5 1.34543 13.5 3.00002V23.0728C13.5 23.4507 13.2509 23.6448 13.144 23.7107C13.037 23.7767 12.7492 23.9122 12.4145 23.7437L7.59809 21.3355C7.15934 21.1158 6.66793 21 6.17722 21C4.42524 21 2.99993 22.4253 2.99993 24.1773V24.75C2.99993 24.958 3.08635 25.1565 3.23794 25.2986L11.8945 33.3779C13.7066 35.0684 16.0693 36 18.5471 36H23.2499C28.6259 36 33 31.626 33 26.25V16.5C33 14.8454 31.6545 13.5 30 13.5Z" fill="var(--fill-0, #303C42)"/>
<path id="Vector_2" d="M31.5 26.25C31.5 30.7991 27.7991 34.5 23.25 34.5H18.5472C16.4509 34.5 14.4515 33.7119 12.9185 32.2807L4.5 24.4241V24.1773C4.5 23.2522 5.2522 22.5 6.17723 22.5C6.43577 22.5 6.69579 22.5615 6.92726 22.6773L11.7437 25.0855C12.4461 25.4377 13.2649 25.3989 13.9328 24.9873C14.6008 24.5742 15 23.8587 15 23.0728V3.00003C15 2.17315 15.6731 1.50005 16.5 1.50005C17.3268 1.50005 18 2.17308 18 3.00003V14.25C18 14.6646 18.3355 15.0001 18.75 15.0001C19.1646 15.0001 19.5 14.6646 19.5 14.25V13.5C19.5 12.6731 20.1731 12 21 12C21.8269 12 22.5 12.6731 22.5 13.5V14.25C22.5 14.2515 22.5 14.253 22.5 14.2545V14.2552C22.503 14.6668 22.8376 15.0001 23.25 15.0001C23.6646 15.0001 24 14.6646 24 14.25V14.2383C24.0059 13.4172 24.6783 12.75 25.5 12.75C26.3269 12.75 27 13.4231 27 14.25V16.5C27 16.9145 27.3355 17.25 27.75 17.25C28.1646 17.25 28.5 16.9145 28.5 16.5C28.5 15.6731 29.1731 15 30 15C30.8269 15 31.5 15.6731 31.5 16.5V26.25V26.25Z" fill="var(--fill-0, #FAFAFA)"/>
<path id="Vector_3" opacity="0.1" d="M30 15V24.75C30 29.2991 26.5047 33 22.2084 33H17.7668C15.7871 33 13.8986 32.2119 12.4509 30.7807C12.4509 30.7807 4.50009 23.8235 4.50009 24.1771V24.4239L12.9185 32.2807C14.4515 33.7118 16.451 34.4999 18.5472 34.4999H23.25C27.7991 34.4999 31.5 30.799 31.5 26.25V16.5C31.5 15.6731 30.8269 15 30 15Z" fill="var(--fill-0, black)"/>
<path id="Vector_4" d="M30 13.5C29.4463 13.5 28.927 13.6509 28.481 13.9138C28.3132 12.4168 27.0403 11.25 25.5 11.25C24.7676 11.25 24.0945 11.5151 23.5715 11.9568C23.0464 11.0845 22.0905 10.5 21 10.5C20.4544 10.5 19.9417 10.6464 19.5 10.9028V3.00002C19.5 1.34543 18.1545 0 16.5 0C14.8455 0 13.5 1.34543 13.5 3.00002V23.0728C13.5 23.4507 13.2509 23.6448 13.144 23.7107C13.037 23.7767 12.7492 23.9122 12.4145 23.7437L7.59809 21.3355C7.15934 21.1158 6.66793 21 6.17722 21C4.42524 21 2.99993 22.4253 2.99993 24.1773V24.75C2.99993 24.958 3.08635 25.1565 3.23794 25.2986L11.8945 33.3779C13.7066 35.0684 16.0693 36 18.5471 36H23.2499C28.6259 36 33 31.626 33 26.25V16.5C33 14.8454 31.6545 13.5 30 13.5Z" fill="url(#paint0_linear_0_78)"/>
</g>
<defs>
<linearGradient id="paint0_linear_0_78" x1="7.55697" y1="13.7035" x2="34.0889" y2="26.077" gradientUnits="userSpaceOnUse">
<stop stop-color="white" stop-opacity="0.2"/>
<stop offset="1" stop-color="white" stop-opacity="0"/>
</linearGradient>
</defs>
</svg>
