<svg preserveAspectRatio="none" width="100%" height="100%" overflow="visible" style="display: block;" viewBox="0 0 12 12" fill="none" xmlns="http://www.w3.org/2000/svg">
<g id="Mask group">
<mask id="mask0_0_48" style="mask-type:luminance" maskUnits="userSpaceOnUse" x="0" y="0" width="12" height="12">
<g id="Group">
<g id="Group_2">
<path id="Vector" d="M6 11C6.65673 11.0008 7.30714 10.8718 7.91388 10.6205C8.52061 10.3692 9.07171 10.0005 9.5355 9.5355C10.0005 9.07171 10.3692 8.52061 10.6205 7.91388C10.8718 7.30714 11.0008 6.65673 11 6C11.0008 5.34327 10.8718 4.69286 10.6205 4.08612C10.3692 3.47939 10.0005 2.92829 9.5355 2.4645C9.07171 1.99954 8.52061 1.6308 7.91388 1.37948C7.30714 1.12815 6.65673 0.99919 6 1C5.34327 0.99919 4.69286 1.12815 4.08612 1.37948C3.47939 1.6308 2.92829 1.99954 2.4645 2.4645C1.99954 2.92829 1.6308 3.47939 1.37948 4.08612C1.12815 4.69286 0.99919 5.34327 1 6C0.99919 6.65673 1.12815 7.30714 1.37948 7.91388C1.6308 8.52061 1.99954 9.07171 2.4645 9.5355C2.92829 10.0005 3.47939 10.3692 4.08612 10.6205C4.69286 10.8718 5.34327 11.0008 6 11Z" fill="var(--fill-0, white)" stroke="var(--stroke-0, white)" stroke-width="2" stroke-linejoin="round"/>
<path id="Vector_2" d="M4 6L5.5 7.5L8.5 4.5" stroke="var(--stroke-0, black)" stroke-width="2" stroke-linecap="round" stroke-linejoin="round"/>
</g>
</g>
</mask>
<g mask="url(#mask0_0_48)">
<path id="Vector_3" d="M0 0H12V12H0V0Z" fill="var(--fill-0, #FA4609)"/>
</g>
</g>
</svg>
