<svg preserveAspectRatio="none" width="100%" height="100%" overflow="visible" style="display: block;" viewBox="0 0 17.7778 20" fill="none" xmlns="http://www.w3.org/2000/svg">
<g id="Group">
<path id="Vector" d="M9.87103 10L17.5744 1.33372C17.8456 1.0286 17.8456 0.533916 17.5744 0.228838C17.3032 -0.0762402 16.8634 -0.0762793 16.5923 0.228838L8.88888 8.89516L1.18553 0.228838C0.914313 -0.0762793 0.474591 -0.0762793 0.203411 0.228838C-0.067769 0.533955 -0.0678037 1.02864 0.203411 1.33372L7.90676 10L0.203411 18.6663C-0.0678037 18.9714 -0.0678037 19.4661 0.203411 19.7712C0.339001 19.9238 0.516744 20 0.694487 20C0.872229 20 1.04994 19.9238 1.18556 19.7712L8.88888 11.1049L16.5922 19.7712C16.7278 19.9238 16.9056 20 17.0833 20C17.2611 20 17.4388 19.9238 17.5744 19.7712C17.8456 19.4661 17.8456 18.9714 17.5744 18.6663L9.87103 10Z" fill="var(--fill-0, #666666)"/>
</g>
</svg>
