<svg preserveAspectRatio="none" width="100%" height="100%" overflow="visible" style="display: block;" viewBox="0 0 20.2682 20.9929" fill="none" xmlns="http://www.w3.org/2000/svg">
<g id="Group">
<path id="Vector" opacity="0.987" fill-rule="evenodd" clip-rule="evenodd" d="M8.93888 0.0911251C10.0264 -0.0303749 10.6699 -0.0303749 11.8384 0.0911251C13.9068 0.397268 15.8242 1.35335 17.3134 2.82113C16.3071 3.77233 15.314 4.73742 14.3344 5.71612C12.4584 4.12612 10.3644 3.75913 8.05238 4.61513C6.35638 5.39513 5.17538 6.65913 4.50938 8.40713C3.42104 7.59687 2.34688 6.76774 1.28738 5.92012C1.21375 5.88137 1.12965 5.86718 1.04738 5.87963C2.73038 2.63462 5.36038 0.704625 8.93738 0.089625" fill="var(--fill-0, #F44336)"/>
<path id="Vector_2" opacity="0.997" fill-rule="evenodd" clip-rule="evenodd" d="M1.04438 5.87963C1.12938 5.86663 1.20988 5.88013 1.28588 5.92013C2.34538 6.76775 3.41954 7.59687 4.50788 8.40713C4.33662 9.08822 4.22866 9.78367 4.18538 10.4846C4.22238 11.1626 4.32988 11.8281 4.50788 12.4811L1.12538 15.1736C-0.347622 12.0956 -0.374622 8.99763 1.04438 5.87963Z" fill="var(--fill-0, #FFC107)"/>
<path id="Vector_3" opacity="0.999" fill-rule="evenodd" clip-rule="evenodd" d="M17.1529 18.4341C16.0996 17.5053 14.997 16.634 13.8499 15.8241C14.9999 15.0121 15.6979 13.8981 15.9439 12.4821H10.3083V8.56863C13.5584 8.54163 16.8069 8.56913 20.0539 8.65113C20.6699 11.9961 19.9584 15.0121 17.9194 17.6991C17.6769 17.9569 17.4201 18.2022 17.1529 18.4341Z" fill="var(--fill-0, #448AFF)"/>
<path id="Vector_4" opacity="0.993" fill-rule="evenodd" clip-rule="evenodd" d="M4.50799 12.4844C5.73799 15.5414 7.99299 16.9684 11.273 16.7654C12.1937 16.6588 13.0765 16.3371 13.85 15.8264C14.998 16.6384 16.099 17.5084 17.153 18.4364C15.483 19.9371 13.3537 20.8275 11.1125 20.9624C10.6033 21.0031 10.0917 21.0031 9.58249 20.9624C5.76449 20.5124 2.94549 18.5834 1.12549 15.1754L4.50799 12.4844Z" fill="var(--fill-0, #43A047)"/>
</g>
</svg>
