<svg preserveAspectRatio="none" width="100%" height="100%" overflow="visible" style="display: block;" viewBox="0 0 22 14" fill="none" xmlns="http://www.w3.org/2000/svg">
<g id="Master">
<path id="Rectangle 1" fill-rule="evenodd" clip-rule="evenodd" d="M20.35 1.41605e-07C19.25 2.47302e-07 7.60386 -2.24446e-07 1.1 1.41605e-07C0.55 1.72561e-07 0 0.56 0 1.12V12.32C-6.36625e-08 13.44 0.55 14 1.65 14C7.78569 14 19.25 14 20.35 14C21.45 14 22 13.44 22 12.32V1.68C22 0.56 21.45 1.41605e-07 20.35 1.41605e-07Z" fill="var(--fill-0, #265697)"/>
<path id="path2268" fill-rule="evenodd" clip-rule="evenodd" d="M20.5625 7.06997C20.5634 10.3233 18.0014 12.9611 14.8403 12.9619C11.6791 12.9627 9.11607 10.3262 9.11523 7.07296V7.06997C9.11439 3.81674 11.6763 1.1788 14.8373 1.17794C17.9985 1.17707 20.5616 3.81369 20.5625 7.06697V7.06997C20.5625 7.0689 20.5625 7.06997 20.5625 7.06997Z" fill="var(--fill-0, #DFAC16)"/>
<path id="path1350" fill-rule="evenodd" clip-rule="evenodd" d="M7.12424 1.17943C3.98184 1.19997 1.43748 3.83107 1.43748 7.06993C1.43748 10.3214 4.00167 12.9604 7.16113 12.9604C8.64396 12.9604 9.99559 12.3788 11.0127 11.4256C11.0126 11.4256 11.0125 11.4255 11.0122 11.4253H11.0135C11.2217 11.23 11.416 11.0193 11.5945 10.7946H10.4219C10.2653 10.5999 10.123 10.3971 9.99514 10.1878H12.0176C12.1405 9.98523 12.2519 9.77489 12.3507 9.55703H9.66124C9.56957 9.3548 9.48999 9.14798 9.42203 8.93816H12.5902C12.7812 8.35101 12.8848 7.72283 12.8848 7.06986C12.8848 6.63694 12.8392 6.21486 12.7529 5.80846H9.25402C9.29736 5.59932 9.35208 5.39269 9.41732 5.18966H12.5867C12.5158 4.9736 12.4335 4.76306 12.3399 4.55896H9.66092C9.75755 4.34649 9.86705 4.1398 9.98933 3.94023H12.0103C11.8758 3.71971 11.7269 3.50904 11.566 3.30946H10.4392C10.6135 3.09845 10.8053 2.89974 11.0135 2.71446C9.99631 1.76113 8.64428 1.17943 7.16113 1.17943C7.14879 1.17943 7.13658 1.17936 7.12424 1.17943C7.13658 1.17936 7.12424 1.17943 7.12424 1.17943Z" fill="var(--fill-0, #BF3126)"/>
<path id="path4157" fill-rule="evenodd" clip-rule="evenodd" d="M9.21929 8.56973L9.29558 8.03663C9.25392 8.03663 9.19261 8.05498 9.13855 8.05498C8.92641 8.05498 8.90302 7.9389 8.91653 7.85308L9.0879 6.76532H9.41031L9.48815 6.17564H9.18415L9.24604 5.80894H8.63663C8.62319 5.82276 8.27688 7.87136 8.27688 8.12079C8.27688 8.49009 8.47836 8.65456 8.76246 8.6519C8.98493 8.64998 9.15818 8.58662 9.21929 8.56973C9.15818 8.58662 9.21929 8.56973 9.21929 8.56973Z" fill="var(--fill-0, white)"/>
<path id="path4155" fill-rule="evenodd" clip-rule="evenodd" d="M9.4124 7.5533C9.4124 8.43962 9.98086 8.65023 10.4651 8.65023C10.9122 8.65023 11.1089 8.54738 11.1089 8.54738L11.2162 7.94248C11.2162 7.94248 10.8762 8.09665 10.5691 8.09665C9.91471 8.09665 10.0293 7.59452 10.0293 7.59452H11.2678C11.2678 7.59452 11.3477 7.18812 11.3477 7.02252C11.3477 6.60928 11.1479 6.10576 10.4788 6.10576C9.866 6.10589 9.4124 6.78539 9.4124 7.5533C9.4124 6.78539 9.4124 7.5533 9.4124 7.5533ZM10.4811 6.66745C10.825 6.66745 10.7616 7.0652 10.7616 7.09738H10.085C10.085 7.05629 10.1489 6.66745 10.4811 6.66745C10.1489 6.66745 10.4811 6.66745 10.4811 6.66745Z" fill="var(--fill-0, white)"/>
<path id="path4151" fill-rule="evenodd" clip-rule="evenodd" d="M14.3401 8.56953L14.4492 7.88577C14.4492 7.88577 14.1501 8.04008 13.9449 8.04008C13.5126 8.04008 13.3393 7.70036 13.3393 7.33538C13.3393 6.59499 13.7112 6.18766 14.1253 6.18766C14.4358 6.18766 14.685 6.3671 14.685 6.3671L14.7845 5.70276C14.7845 5.70276 14.4149 5.54885 14.0981 5.54885C13.3946 5.54885 12.7102 6.17696 12.7102 7.35659C12.7102 8.1388 13.0798 8.65542 13.807 8.65542C14.0126 8.65548 14.3401 8.56953 14.3401 8.56953Z" fill="var(--fill-0, white)"/>
<path id="path4149" fill-rule="evenodd" clip-rule="evenodd" d="M5.86753 6.11554C5.44965 6.11554 5.12931 6.25376 5.12931 6.25376L5.04088 6.79404C5.04088 6.79404 5.30527 6.68349 5.70494 6.68349C5.93187 6.68349 6.09788 6.70975 6.09788 6.89955C6.09788 7.01483 6.07753 7.05737 6.07753 7.05737C6.07753 7.05737 5.89853 7.04195 5.81566 7.04195C5.28861 7.04195 4.73494 7.27343 4.73494 7.97135C4.73494 8.52127 5.09817 8.64745 5.3233 8.64745C5.75326 8.64745 5.93859 8.36032 5.94847 8.35946L5.92838 8.59912H6.46499L6.70439 6.87189C6.70439 6.13915 6.08328 6.11554 5.86753 6.11554ZM5.99808 7.52187C6.00971 7.62738 5.9338 8.12192 5.56689 8.12192C5.37762 8.12192 5.3284 7.97314 5.3284 7.88512C5.3284 7.71347 5.41903 7.50738 5.86559 7.50738C5.96946 7.50751 5.98057 7.51895 5.99808 7.52187C5.98057 7.51895 5.99808 7.52187 5.99808 7.52187Z" fill="var(--fill-0, white)"/>
<path id="path4145" fill-rule="evenodd" clip-rule="evenodd" d="M7.27474 8.63483C7.41201 8.63483 8.19673 8.67073 8.19673 7.8374C8.19673 7.05832 7.47034 7.21222 7.47034 6.89923C7.47034 6.7434 7.58874 6.69433 7.80515 6.69433C7.89106 6.69433 8.2216 6.72246 8.2216 6.72246L8.29848 6.16867C8.29848 6.16874 8.08453 6.11941 7.73622 6.11941C7.2854 6.11941 6.82779 6.30463 6.82779 6.93832C6.82779 7.65637 7.59081 7.58431 7.59081 7.88679C7.59081 8.0887 7.37764 8.10512 7.21337 8.10512C6.92908 8.10512 6.67308 8.00473 6.67217 8.00952L6.59091 8.55771C6.60564 8.56237 6.76351 8.63483 7.27474 8.63483C6.76351 8.63483 7.27474 8.63483 7.27474 8.63483Z" fill="var(--fill-0, white)"/>
<path id="path4139" fill-rule="evenodd" clip-rule="evenodd" d="M19.3881 5.61868L19.2566 6.45813C19.2566 6.45813 19.0272 6.13204 18.6681 6.13204C18.1098 6.13204 17.6443 6.8249 17.6443 7.62101C17.6443 8.1349 17.8926 8.63842 18.4001 8.63842C18.7651 8.63842 18.9675 8.37649 18.9675 8.37649L18.9407 8.6002H19.5334L19.999 5.61768L19.3881 5.61868ZM19.1051 7.25543C19.1051 7.5867 18.9457 8.0292 18.6153 8.0292C18.396 8.0292 18.2932 7.83973 18.2932 7.54236C18.2932 7.05612 18.5054 6.73529 18.7732 6.73529C18.9926 6.73522 19.1051 6.89032 19.1051 7.25543C19.1051 6.89032 19.1051 7.25543 19.1051 7.25543Z" fill="var(--fill-0, white)"/>
<path id="path4133" fill-rule="evenodd" clip-rule="evenodd" d="M2.56786 8.60269L2.93885 6.351L2.9933 8.60269H3.41318L4.19643 6.351L3.84947 8.60269H4.47335L4.95383 5.61619H3.98907L3.38825 7.44859L3.35698 5.61619H2.46767L1.98029 8.60269H2.56786Z" fill="var(--fill-0, white)"/>
<path id="path4131" fill-rule="evenodd" clip-rule="evenodd" d="M11.9572 8.6068C12.1346 7.56864 12.1675 6.72567 12.5908 6.87997C12.6649 6.47816 12.7364 6.32273 12.8173 6.15268C12.8173 6.15268 12.7794 6.1445 12.6998 6.1445C12.4268 6.1445 12.2247 6.52822 12.2247 6.52822L12.279 6.17581H11.7116L11.3314 8.6068H11.9572Z" fill="var(--fill-0, white)"/>
<path id="path4149 1" fill-rule="evenodd" clip-rule="evenodd" d="M15.7463 6.11554C15.3284 6.11554 15.0081 6.25376 15.0081 6.25376L14.9197 6.79404C14.9197 6.79404 15.1841 6.68349 15.5838 6.68349C15.8107 6.68349 15.9766 6.70975 15.9766 6.89955C15.9766 7.01483 15.9564 7.05737 15.9564 7.05737C15.9564 7.05737 15.7774 7.04195 15.6944 7.04195C15.1674 7.04195 14.6138 7.27343 14.6138 7.97135C14.6138 8.52127 14.9769 8.64745 15.2021 8.64745C15.632 8.64745 15.8174 8.36032 15.8272 8.35946L15.8072 8.59912H16.3438L16.5832 6.87189C16.5832 6.13915 15.9621 6.11554 15.7463 6.11554ZM15.877 7.52187C15.8887 7.62738 15.8127 8.12192 15.4457 8.12192C15.2564 8.12192 15.2073 7.97314 15.2073 7.88512C15.2073 7.71347 15.2979 7.50738 15.7444 7.50738C15.8483 7.50751 15.8593 7.51895 15.877 7.52187C15.8593 7.51895 15.877 7.52187 15.877 7.52187Z" fill="var(--fill-0, white)"/>
<path id="path4131 1" fill-rule="evenodd" clip-rule="evenodd" d="M17.0736 8.6068C17.2511 7.56864 17.2839 6.72567 17.7071 6.87997C17.7813 6.47816 17.8529 6.32273 17.9337 6.15268C17.9337 6.15268 17.8958 6.1445 17.8162 6.1445C17.5433 6.1445 17.3411 6.52822 17.3411 6.52822L17.3954 6.17581H16.828L16.4479 8.6068H17.0736Z" fill="var(--fill-0, white)"/>
</g>
</svg>
