<svg preserveAspectRatio="none" width="100%" height="100%" overflow="visible" style="display: block;" viewBox="0 0 22 14" fill="none" xmlns="http://www.w3.org/2000/svg">
<g id="Paypal">
<path id="Rectangle 1" fill-rule="evenodd" clip-rule="evenodd" d="M20.35 1.41605e-07C19.25 2.47302e-07 7.60386 -2.24446e-07 1.1 1.41605e-07C0.55 1.72561e-07 0 0.56 0 1.12V12.32C-6.36625e-08 13.44 0.55 14 1.65 14C7.78569 14 19.25 14 20.35 14C21.45 14 22 13.44 22 12.32V1.68C22 0.56 21.45 1.41605e-07 20.35 1.41605e-07Z" fill="var(--fill-0, #F6F6F6)"/>
<path id="pal" fill-rule="evenodd" clip-rule="evenodd" d="M20.8676 4.68399H20.2901C20.2898 4.68399 20.2894 4.6841 20.2892 4.6841L20.2889 4.68399C20.1567 4.68399 20.0225 4.78438 19.9851 4.91211C19.9836 4.91727 19.981 4.92222 19.9798 4.9276C19.9798 4.9276 19.966 4.9899 19.9421 5.09761L19.1488 8.66244C19.1304 8.74303 19.1182 8.79554 19.1145 8.8092L19.116 8.81114C19.0885 8.93574 19.1641 9.03883 19.2881 9.05034L19.2898 9.05271H19.8892C20.0206 9.05271 20.1539 8.95328 20.1925 8.82717C20.1944 8.82104 20.1973 8.81534 20.1987 8.8092L21.0641 4.92738L21.0628 4.92695C21.0922 4.79417 21.0059 4.68399 20.8676 4.68399ZM17.9052 8.18756C17.8251 8.2376 17.7405 8.28042 17.6518 8.3169C17.5326 8.36456 17.4196 8.38953 17.3151 8.38953C17.1547 8.38953 17.0314 8.36704 16.948 8.31894C16.8645 8.27332 16.8208 8.19402 16.8222 8.0805C16.8222 7.94944 16.8527 7.84776 16.9159 7.76802C16.9795 7.6913 17.074 7.62954 17.1912 7.58349C17.3078 7.54432 17.4512 7.51204 17.6167 7.48891C17.7639 7.47051 18.0549 7.43726 18.0921 7.43704C18.1294 7.43672 18.1541 7.41638 18.1375 7.51473C18.1301 7.55745 18.0461 7.8994 18.0076 8.05489C17.9964 8.10148 17.9339 8.16938 17.9052 8.18756C17.9339 8.16938 17.9052 8.18756 17.9052 8.18756ZM19.0473 5.78418C18.8022 5.6486 18.4189 5.58006 17.8943 5.58006C17.6349 5.58006 17.3741 5.60072 17.1126 5.64096C16.9205 5.67012 16.9008 5.67497 16.7815 5.70068C16.5361 5.75362 16.4982 5.99723 16.4982 5.99723L16.4194 6.31853C16.3747 6.52405 16.4928 6.51555 16.5454 6.49962C16.6526 6.46756 16.7106 6.43571 16.9292 6.38664C17.1382 6.33962 17.3589 6.30443 17.5351 6.30583C17.7934 6.30583 17.9899 6.33392 18.1205 6.38793C18.2512 6.44442 18.3158 6.54062 18.3158 6.67824C18.3163 6.71095 18.3171 6.74183 18.3052 6.76884C18.2945 6.79402 18.2738 6.81834 18.2121 6.82662C17.8434 6.84836 17.5787 6.88171 17.2601 6.92777C16.9456 6.97167 16.6705 7.04688 16.4405 7.15104C16.1953 7.25886 16.0118 7.40315 15.8854 7.58596C15.7623 7.76964 15.7004 7.99205 15.7001 8.25406C15.7001 8.50165 15.7899 8.70362 15.9635 8.86039C16.1393 9.01512 16.3678 9.09173 16.6444 9.09173C16.8172 9.09055 16.9525 9.07818 17.0494 9.05418C17.1453 9.03019 17.25 8.99608 17.3605 8.94862C17.4431 8.91441 17.5322 8.86491 17.6263 8.80282C17.7205 8.74052 17.7857 8.6963 17.8694 8.64196L17.8725 8.64713L17.8489 8.7501C17.8488 8.75107 17.8474 8.75161 17.8474 8.75257L17.8481 8.75451C17.8212 8.87858 17.8964 8.98176 18.0204 8.99392L18.0219 8.99608H18.0329L18.0333 8.99661C18.1156 8.99661 18.398 8.99651 18.53 8.99608H18.6222C18.6282 8.99608 18.6289 8.99425 18.6313 8.99285C18.7578 8.97746 18.8792 8.87524 18.9077 8.75257L19.3791 6.73559C19.39 6.68814 19.3986 6.63337 19.4037 6.57032C19.4095 6.50662 19.4165 6.45421 19.4144 6.41634C19.4155 6.13087 19.2917 5.91987 19.0473 5.78418ZM16.2087 5.32476C16.1283 5.1696 16.0068 5.04467 15.8532 4.9474C15.6957 4.85034 15.5086 4.78266 15.2919 4.74317C15.0777 4.70594 14.8229 4.68464 14.5327 4.68399L13.1822 4.68464C13.0432 4.687 12.9067 4.79525 12.8746 4.92857L11.9667 8.84547C11.9336 8.97857 12.0239 9.08951 12.1604 9.08875L12.8084 9.08757C12.9458 9.08875 13.0858 8.97857 13.1183 8.84547L13.3373 7.89492C13.368 7.76171 13.5077 7.65012 13.6474 7.65206H13.8316C14.622 7.65206 15.2349 7.49109 15.6737 7.17065C16.1114 6.8486 16.3318 6.42616 16.3318 5.90074C16.3304 5.67134 16.291 5.47809 16.2087 5.32476ZM14.8154 6.60586C14.622 6.74531 14.3506 6.81525 14.0013 6.81525H13.8406C13.7017 6.81686 13.6119 6.70549 13.6449 6.57196L13.8386 5.74063C13.8674 5.60915 14.0084 5.49724 14.1454 5.49832L14.3576 5.49724C14.6053 5.49832 14.7906 5.53942 14.9186 5.62109C15.0444 5.70373 15.1054 5.83188 15.1063 6.00264C15.1069 6.26293 15.0097 6.46318 14.8154 6.60586Z" fill="var(--fill-0, #306FC5)"/>
<path id="pay" fill-rule="evenodd" clip-rule="evenodd" d="M11.6649 5.58008C11.5419 5.58008 11.3806 5.67933 11.3043 5.79927C11.3043 5.79927 10.4817 7.20568 10.4009 7.34622C10.357 7.42179 10.3125 7.37375 10.3051 7.34564C10.2991 7.31147 10.0502 5.80851 10.0502 5.80851C10.0222 5.68751 9.89546 5.58364 9.73697 5.58412L9.22405 5.58489C9.10041 5.58489 9.02329 5.68366 9.0508 5.80302C9.0508 5.80302 9.44287 8.01939 9.51931 8.54066C9.55744 8.82897 9.51535 8.88008 9.51535 8.88008L9.00707 9.76397C8.93266 9.88382 8.97339 9.98201 9.09645 9.98201L9.69083 9.98153C9.8139 9.98153 9.97692 9.88382 10.0502 9.76378L12.3368 5.9068C12.3368 5.9068 12.5555 5.57729 12.3538 5.58008C12.2162 5.582 11.6649 5.58008 11.6649 5.58008ZM7.37193 8.18756C7.29182 8.23759 7.20727 8.2802 7.11859 8.31679C6.99941 8.36424 6.88588 8.38942 6.78168 8.38942C6.62169 8.38942 6.49806 8.36682 6.41459 8.31894C6.33123 8.27321 6.28727 8.19391 6.28868 8.08028C6.28868 7.94955 6.31951 7.84754 6.38257 7.76792C6.44628 7.69109 6.54039 7.62922 6.65761 7.58327C6.77451 7.54389 6.91833 7.51204 7.08331 7.48891C7.2305 7.47051 7.52182 7.43737 7.55894 7.43683C7.59585 7.43672 7.6207 7.41617 7.6041 7.51451C7.59693 7.55723 7.51281 7.8994 7.47428 8.05478C7.46267 8.10159 7.40015 8.16948 7.37193 8.18756C7.40015 8.16948 7.37193 8.18756 7.37193 8.18756ZM8.514 5.78407C8.26892 5.6485 7.88566 5.58006 7.36107 5.58006C7.10155 5.58006 6.84094 5.60051 6.57925 5.64086C6.38691 5.6698 6.36759 5.67475 6.24819 5.70047C6.00267 5.75362 5.9649 5.99702 5.9649 5.99702L5.8861 6.31853C5.84149 6.52394 5.95969 6.51544 6.01212 6.49951C6.11903 6.46745 6.17742 6.43571 6.39603 6.38642C6.60465 6.33962 6.82575 6.30454 7.00169 6.30572C7.26024 6.30572 7.45648 6.3337 7.58706 6.38772C7.71785 6.44421 7.78222 6.54062 7.78222 6.67813C7.78308 6.71084 7.78373 6.74183 7.77212 6.76862C7.76116 6.79402 7.74032 6.81823 7.67856 6.82641C7.31028 6.84846 7.04576 6.88171 6.72654 6.92777C6.41209 6.97167 6.13705 7.04688 5.90694 7.15093C5.66174 7.25875 5.47852 7.40326 5.35229 7.58596C5.22877 7.76953 5.16701 7.99194 5.16679 8.25406C5.16679 8.50154 5.25666 8.70362 5.43011 8.86028C5.60595 9.01501 5.83432 9.09173 6.11089 9.09173C6.2838 9.09055 6.41893 9.07796 6.51618 9.05418C6.61203 9.02997 6.71677 8.99608 6.82683 8.94862C6.90976 8.91441 6.99865 8.86469 7.09287 8.80272C7.18686 8.74052 7.25242 8.6963 7.33643 8.64196L7.33904 8.64702L7.31549 8.74988C7.31527 8.75085 7.31397 8.7515 7.31397 8.75268L7.31494 8.7543C7.28802 8.87868 7.36303 8.98176 7.48709 8.99371L7.48861 8.99608H7.49946L7.49979 8.99683C7.58228 8.99683 7.86482 8.9964 7.99648 8.99608H8.08874C8.09492 8.99608 8.09579 8.99403 8.09775 8.99274C8.22463 8.97692 8.34555 8.87492 8.37442 8.75268L8.84582 6.73548C8.85645 6.68814 8.86514 6.63337 8.86991 6.57042C8.87621 6.5064 8.88305 6.45421 8.8812 6.41645C8.88229 6.13076 8.75833 5.91976 8.514 5.78407ZM5.56538 5.32476C5.48495 5.1696 5.36349 5.04467 5.20991 4.9474C5.05241 4.85034 4.86529 4.78266 4.64864 4.74317C4.43438 4.70594 4.17963 4.68464 3.88939 4.68399L2.53891 4.68464C2.39987 4.687 2.26343 4.79525 2.2313 4.92857L1.32335 8.84547C1.29025 8.97857 1.38055 9.0895 1.5171 9.08875L2.16509 9.08757C2.30251 9.08875 2.44253 8.97857 2.47498 8.84547L2.69402 7.89492C2.72473 7.76171 2.86443 7.65012 3.00412 7.65206H3.18832C3.97872 7.65206 4.59154 7.49109 5.03038 7.17065C5.46813 6.8486 5.68847 6.42616 5.68847 5.90074C5.68706 5.67134 5.64766 5.47809 5.56538 5.32476ZM4.17214 6.60586C3.97872 6.74531 3.70725 6.81525 3.35797 6.81525H3.19733C3.05839 6.81686 2.96863 6.70549 3.00162 6.57196L3.19526 5.74063C3.22414 5.60915 3.36513 5.49724 3.50211 5.49832L3.71431 5.49724C3.962 5.49832 4.14728 5.53942 4.27525 5.62109C4.40105 5.70373 4.46205 5.83188 4.46303 6.00264C4.46357 6.26293 4.36643 6.46318 4.17214 6.60586Z" fill="var(--fill-0, #265697)"/>
</g>
</svg>
