<svg preserveAspectRatio="none" width="100%" height="100%" overflow="visible" style="display: block;" viewBox="0 0 39 36.8334" fill="none" xmlns="http://www.w3.org/2000/svg">
<g id="Star">
<path id="Union" d="M17.7745 2.94161C18.5472 1.62407 20.4529 1.62407 21.2256 2.94161L25.6836 10.5422C25.9672 11.0256 26.4405 11.3687 26.9883 11.4865L35.6241 13.343C37.1268 13.6661 37.7184 15.4932 36.6905 16.6359L30.8174 23.1623C30.4399 23.5819 30.2573 24.1418 30.3145 24.7033L31.2042 33.425C31.3591 34.9479 29.8156 36.0734 28.4131 35.4602L20.3018 31.9104C19.7907 31.6867 19.2094 31.6867 18.6983 31.9104L10.587 35.4602C9.1845 36.0734 7.64098 34.9479 7.79595 33.425L8.6856 24.7033C8.74285 24.1418 8.56017 23.5819 8.18267 23.1623L2.30963 16.6359C1.28174 15.4932 1.87335 13.6662 3.37603 13.343L12.0118 11.4865C12.5596 11.3687 13.0329 11.0256 13.3165 10.5422L17.7745 2.94161Z" fill="#FF5C00"/>
</g>
</svg>
