<svg preserveAspectRatio="none" width="100%" height="100%" overflow="visible" style="display: block;" viewBox="0 0 38 16" fill="none" xmlns="http://www.w3.org/2000/svg">
<g id="logos:stripe" clip-path="url(#clip0_0_40)">
<path id="Vector" d="M38 8.23028C38 5.50811 36.6911 3.36015 34.1895 3.36015C31.6772 3.36015 30.1572 5.50819 30.1572 8.20904C30.1572 11.4096 31.9517 13.0259 34.5272 13.0259C35.7833 13.0259 36.7333 12.7388 37.4511 12.3348V10.2081C36.7334 10.5696 35.91 10.793 34.865 10.793C33.8411 10.793 32.9333 10.4314 32.8172 9.17667H37.9789C37.9789 9.03835 38 8.48546 38 8.23028ZM32.7855 7.22011C32.7855 6.01854 33.5139 5.51873 34.1789 5.51873C34.8228 5.51873 35.5089 6.01854 35.5089 7.22011H32.7855ZM26.0828 3.36015C25.0483 3.36015 24.3833 3.84927 24.0139 4.18961L23.8766 3.53032H21.5545V15.9288L24.1933 15.3653L24.2039 12.356C24.5839 12.6325 25.1433 13.0259 26.0722 13.0259C27.9617 13.0259 29.6822 11.4947 29.6822 8.12396C29.6717 5.04022 27.93 3.36015 26.0828 3.36015M25.4494 10.6866C24.8266 10.6866 24.4571 10.4633 24.2038 10.1868L24.1932 6.24179C24.4677 5.93346 24.8477 5.72082 25.4494 5.72082C26.4099 5.72082 27.0749 6.80538 27.0749 8.19835C27.0749 9.62325 26.4205 10.6866 25.4494 10.6866ZM17.9233 2.73278L20.5728 2.15858V0L17.9233 0.563589V2.73278ZM17.9233 3.54093H20.5728V12.8452H17.9233V3.54093ZM15.0839 4.32777L14.915 3.54093H12.635V12.8452H15.2739V6.53959C15.8966 5.72082 16.9522 5.86968 17.2795 5.98662V3.54093C16.9417 3.41331 15.7067 3.17936 15.0839 4.32777ZM9.80608 1.23349L7.23054 1.78639L7.22 10.3038C7.22 11.8776 8.39169 13.0366 9.95392 13.0366C10.8195 13.0366 11.4528 12.8771 11.8011 12.6857V10.5271C11.4634 10.6653 9.79554 11.1545 9.79554 9.58071V5.80583H11.8011V3.54093H9.79554L9.80608 1.23349ZM2.67054 6.24179C2.67054 5.82714 3.00831 5.66759 3.56784 5.66759C4.37 5.66759 5.38331 5.91222 6.18554 6.34819V3.84927C5.30946 3.49839 4.44392 3.36015 3.56784 3.36015C1.425 3.36015 0 4.48733 0 6.36949C0 9.30422 4.01108 8.83641 4.01108 10.1018C4.01108 10.5909 3.58892 10.7504 2.99777 10.7504C2.12169 10.7504 1.00277 10.3889 0.116078 9.89974V12.4305C1.09777 12.8558 2.09 13.0366 2.99777 13.0366C5.19331 13.0366 6.70277 11.9414 6.70277 10.038C6.69223 6.86923 2.67054 7.43275 2.67054 6.24179Z" fill="var(--fill-0, #635BFF)"/>
</g>
<defs>
<clipPath id="clip0_0_40">
<rect width="38" height="16" fill="white"/>
</clipPath>
</defs>
</svg>
