<svg preserveAspectRatio="none" width="100%" height="100%" overflow="visible" style="display: block;" viewBox="0 0 22 14" fill="none" xmlns="http://www.w3.org/2000/svg">
<g id="Visa">
<path id="Rectangle 20" d="M22 1.25996H0V12.46H22V1.25996Z" fill="var(--fill-0, #F6F6F6)"/>
<path id="Rectangle 1" fill-rule="evenodd" clip-rule="evenodd" d="M20.35 1.41605e-07C19.25 2.47302e-07 7.60386 -2.24446e-07 1.1 1.41605e-07C0.55 1.72561e-07 0 0.56 0 1.12V2.8H22C22 2.8 22 5.40007 22 1.68C22 0.56 21.45 1.41605e-07 20.35 1.41605e-07Z" fill="var(--fill-0, #265697)"/>
<path id="Rectangle 1_2" fill-rule="evenodd" clip-rule="evenodd" d="M0 11.2C0 11.2 1.32876e-07 11.2 0 12.32C-6.36405e-08 13.44 0.55 14 1.65 14C7.78569 14 19.25 14 20.35 14C21.45 14 22 13.44 22 12.32V11.2H0Z" fill="var(--fill-0, #D97B16)"/>
<path id="Shape" fill-rule="evenodd" clip-rule="evenodd" d="M15.347 4.16946C15.0387 4.04911 14.5555 3.91996 13.9522 3.91996C12.4144 3.91996 11.3312 4.72568 11.3219 5.88036C11.3133 6.73393 12.0952 7.21007 12.6856 7.49425C13.2914 7.78541 13.495 7.97112 13.4921 8.23111C13.4883 8.6293 13.0083 8.81121 12.561 8.81121C11.9381 8.81121 11.6072 8.72118 11.0961 8.49939L10.8955 8.40499L10.6771 9.73479C11.0406 9.90059 11.7128 10.0443 12.4107 10.0517C14.0466 10.0517 15.1087 9.25525 15.1207 8.02219C15.1266 7.34641 14.7119 6.83216 13.8141 6.40821C13.2701 6.13341 12.937 5.95003 12.9405 5.67177C12.9405 5.42485 13.2225 5.16082 13.8317 5.16082C14.3407 5.1526 14.7093 5.26806 14.9966 5.38841L15.136 5.45696L15.347 4.16946Z" fill="var(--fill-0, #265697)"/>
<path id="Shape_2" fill-rule="evenodd" clip-rule="evenodd" d="M19.3378 4.02891H18.1352C17.7627 4.02891 17.4839 4.13469 17.3203 4.52153L15.009 9.96548H16.6432C16.6432 9.96548 16.9104 9.2335 16.9708 9.0728C17.1494 9.0728 18.737 9.07535 18.964 9.07535C19.0105 9.2833 19.1533 9.96548 19.1533 9.96548H20.5974L19.3378 4.02891ZM17.4187 7.85776C17.5474 7.5155 18.0388 6.19717 18.0388 6.19717C18.0296 6.21298 18.1665 5.85324 18.2451 5.63021L18.3503 6.14237C18.3503 6.14237 18.6483 7.56035 18.7106 7.8577L17.4187 7.85776Z" fill="var(--fill-0, #265697)"/>
<path id="Shape_3" fill-rule="evenodd" clip-rule="evenodd" d="M8.14686 9.96363L9.11989 4.02327H10.6762L9.70249 9.96363H8.14686Z" fill="var(--fill-0, #265697)"/>
<path id="Shape_4" fill-rule="evenodd" clip-rule="evenodd" d="M6.84159 4.02751L5.31792 8.07839L5.15558 7.25517C4.87193 6.30619 3.98818 5.27802 3.00019 4.76328L4.39339 9.95841L6.04 9.95646L8.49012 4.02751H6.84159Z" fill="var(--fill-0, #265697)"/>
<path id="Shape_5" fill-rule="evenodd" clip-rule="evenodd" d="M3.90439 4.02385H1.39486L1.375 4.14745C3.32739 4.63915 4.61927 5.82743 5.15553 7.25518L4.60985 4.52536C4.51564 4.14921 4.2424 4.03696 3.90439 4.02385Z" fill="var(--fill-0, #D97B16)"/>
</g>
</svg>
