<svg preserveAspectRatio="none" width="100%" height="100%" overflow="visible" style="display: block;" viewBox="0 0 30 30" fill="none" xmlns="http://www.w3.org/2000/svg">
<g id="&#208;&#161;&#208;&#187;&#208;&#190;&#208;&#185; 1">
<path id="Vector" fill-rule="evenodd" clip-rule="evenodd" d="M26.4 0H2.4C1.2 0 0 1.2 0 2.4V26.4C0 28.8 1.2 30 3.6 30H27.6C28.8 30 30 28.8 30 27.6V3.6C30 1.2 28.8 0 26.4 0Z" fill="var(--fill-0, #5C6BC0)"/>
<path id="Vector_2" d="M22.1984 10.0914C20.8911 9.09517 19.3105 8.52257 17.6684 8.45037L17.4254 8.69037C20.1674 9.47037 21.4934 10.6914 21.4934 10.6914C19.4533 9.6595 17.2018 9.11462 14.9157 9.09952C12.6295 9.08443 10.371 9.59953 8.31744 10.6044C8.31744 10.6044 9.64044 9.29937 12.5624 8.60337L12.3824 8.42637C12.3824 8.42637 10.1714 8.34537 7.79844 10.0824C7.79844 10.0824 5.39844 14.1744 5.39844 19.2204C5.39844 19.2204 6.72144 21.4854 10.3484 21.5724C10.3484 21.5724 10.8794 20.8764 11.4134 20.2674C9.37644 19.6674 8.58144 18.4404 8.58144 18.4404C8.73452 18.5173 8.8828 18.6035 9.02544 18.6984H9.10344C9.11884 18.6992 9.13393 18.7031 9.14783 18.7098C9.16173 18.7165 9.17417 18.7258 9.18444 18.7374V18.7374C9.19344 18.7496 9.2052 18.7595 9.21875 18.7662C9.23231 18.773 9.24728 18.7765 9.26244 18.7764C13.5944 20.5344 17.2154 20.9394 21.3464 18.3384C21.3464 18.3384 20.5514 19.5564 18.4274 20.1684C18.8654 20.7684 19.4804 21.4674 19.4804 21.4674C23.0984 21.3984 24.5204 19.1334 24.5984 19.2294C24.5984 14.1924 22.1984 10.0914 22.1984 10.0914ZM11.9414 17.6574C11.48 17.6574 11.0374 17.474 10.7111 17.1477C10.3848 16.8214 10.2014 16.3788 10.2014 15.9174C10.2014 15.4559 10.3848 15.0133 10.7111 14.687C11.0374 14.3607 11.48 14.1774 11.9414 14.1774C12.3908 14.196 12.8156 14.3877 13.1269 14.7122C13.4383 15.0368 13.6121 15.4691 13.6121 15.9189C13.6121 16.3686 13.4383 16.801 13.1269 17.1255C12.8156 17.4501 12.3908 17.6417 11.9414 17.6604V17.6574ZM17.9414 17.6574C17.48 17.6574 17.0374 17.474 16.7111 17.1477C16.3848 16.8214 16.2014 16.3788 16.2014 15.9174C16.2014 15.4559 16.3848 15.0133 16.7111 14.687C17.0374 14.3607 17.48 14.1774 17.9414 14.1774C18.3908 14.196 18.8156 14.3877 19.1269 14.7122C19.4383 15.0368 19.6121 15.4691 19.6121 15.9189C19.6121 16.3686 19.4383 16.801 19.1269 17.1255C18.8156 17.4501 18.3908 17.6417 17.9414 17.6604V17.6574Z" fill="var(--fill-0, white)"/>
</g>
</svg>
