<svg preserveAspectRatio="none" width="100%" height="100%" overflow="visible" style="display: block;" viewBox="0 0 30 30" fill="none" xmlns="http://www.w3.org/2000/svg">
<g id="&#208;&#161;&#208;&#187;&#208;&#190;&#208;&#185; 1">
<path id="Vector" fill-rule="evenodd" clip-rule="evenodd" d="M26.4 0H2.4C1.2 0 0 1.2 0 2.4V26.4C0 28.8 1.2 30 3.6 30H27.6C28.8 30 30 28.8 30 27.6V3.6C30 1.2 28.8 0 26.4 0Z" fill="var(--fill-0, #3B5998)"/>
<path id="Vector_2" d="M19.149 14.983H16.473V24.787H12.417V14.983H10.5V11.536H12.429V9.30098C12.429 7.70498 13.185 5.20898 16.521 5.20898H19.521V8.57198H17.331C16.974 8.57198 16.473 8.74898 16.473 9.51098V11.539H19.5L19.149 14.983Z" fill="var(--fill-0, white)"/>
</g>
</svg>
