<svg width="30" height="30" viewBox="0 0 30 30" fill="none" xmlns="http://www.w3.org/2000/svg">
<g clip-path="url(#clip0_2300_24746)">
<path d="M2.40039 0.25H26.4004C27.5616 0.250065 28.3863 0.540629 28.9229 1.07715C29.4594 1.61367 29.7499 2.43835 29.75 3.59961V27.5996C29.75 28.1183 29.4882 28.6583 29.0732 29.0732C28.6583 29.4882 28.1183 29.75 27.5996 29.75H3.59961C2.43835 29.7499 1.61367 29.4594 1.07715 28.9229C0.540629 28.3863 0.250065 27.5616 0.25 26.4004V2.40039C0.25 1.8817 0.511844 1.34167 0.926758 0.926758C1.34167 0.511844 1.8817 0.25 2.40039 0.25Z" fill="url(#paint0_linear_2300_24746)" stroke="url(#paint1_linear_2300_24746)" stroke-width="0.5"/>
<path d="M14.9987 8.00651C12.1346 8.00651 9.41707 7.75303 8.37858 10.4101C7.94788 11.5223 8.00254 12.9514 8.00254 14.9988C8.00254 16.7928 7.9457 18.4797 8.36984 19.5723C9.41488 22.2381 12.1565 21.9912 14.9987 21.9912C17.7403 21.9912 20.5693 22.2774 21.6188 19.5876C22.0473 18.4601 21.9948 17.0528 21.9948 14.9988C21.9948 12.2696 22.1457 10.5085 20.8208 9.18428C19.4959 7.8601 17.6572 8.00651 14.9987 8.00651ZM14.3734 9.26513C20.3463 9.26513 21.105 8.59212 20.6852 17.8111C20.5366 21.0713 18.0617 20.7151 15.0009 20.7151C9.43456 20.7151 9.27496 20.5556 9.27496 14.9879C9.27496 9.3569 9.71222 9.2695 14.3756 9.26294L14.3734 9.26513ZM18.7285 10.432C18.5624 10.432 18.4 10.4812 18.2618 10.5735C18.1237 10.6658 18.0161 10.797 17.9527 10.9505C17.8892 11.1039 17.8727 11.2727 17.9052 11.4356C17.9378 11.5984 18.018 11.7479 18.1356 11.8651C18.2533 11.9824 18.4031 12.0621 18.566 12.0943C18.729 12.1264 18.8979 12.1095 19.0513 12.0456C19.2046 11.9818 19.3356 11.8739 19.4276 11.7356C19.5196 11.5974 19.5685 11.4349 19.568 11.2689C19.5683 11.1587 19.5468 11.0496 19.5047 10.9478C19.4626 10.8459 19.4007 10.7535 19.3226 10.6757C19.2446 10.5979 19.1519 10.5363 19.0499 10.4945C18.948 10.4526 18.8387 10.4314 18.7285 10.432ZM14.9987 11.4109C14.2886 11.4105 13.5943 11.6205 13.0036 12.0145C12.413 12.4085 11.9525 12.9687 11.6805 13.6243C11.4084 14.2799 11.337 15.0013 11.4753 15.6975C11.6136 16.3936 11.9553 17.0331 12.4573 17.5351C12.9592 18.0371 13.5989 18.3791 14.2953 18.5177C14.9918 18.6563 15.7137 18.5854 16.3698 18.3139C17.0259 18.0424 17.5867 17.5825 17.9812 16.9924C18.3758 16.4023 18.5864 15.7086 18.5864 14.9988C18.5864 14.0476 18.2085 13.1354 17.5357 12.4626C16.8629 11.7898 15.9504 11.4115 14.9987 11.4109ZM14.9987 12.6695C18.0792 12.6695 18.0813 17.326 14.9987 17.326C11.916 17.326 11.916 12.6695 14.9987 12.6695Z" fill="url(#paint2_linear_2300_24746)"/>
</g>
<path d="M8 0.25H22C26.2802 0.25 29.75 3.71979 29.75 8V22C29.75 26.2802 26.2802 29.75 22 29.75H8C3.71979 29.75 0.25 26.2802 0.25 22V8C0.25 3.71979 3.71979 0.25 8 0.25Z" stroke="url(#paint3_linear_2300_24746)" stroke-width="0.5"/>
<defs>
<linearGradient id="paint0_linear_2300_24746" x1="15" y1="0" x2="15" y2="30" gradientUnits="userSpaceOnUse">
<stop stop-color="#383852"/>
<stop offset="0.5" stop-color="#232330"/>
<stop offset="1" stop-color="#17191F"/>
</linearGradient>
<linearGradient id="paint1_linear_2300_24746" x1="15" y1="0" x2="15" y2="30" gradientUnits="userSpaceOnUse">
<stop stop-color="#FF975D"/>
<stop offset="0.5" stop-color="#FF5C00"/>
<stop offset="1" stop-color="#A32D05"/>
</linearGradient>
<linearGradient id="paint2_linear_2300_24746" x1="15" y1="8" x2="15" y2="22" gradientUnits="userSpaceOnUse">
<stop stop-color="#FF975D"/>
<stop offset="0.5" stop-color="#FF5C00"/>
<stop offset="1" stop-color="#A32D05"/>
</linearGradient>
<linearGradient id="paint3_linear_2300_24746" x1="0" y1="0" x2="27.5" y2="28.5" gradientUnits="userSpaceOnUse">
<stop offset="0.00712717" stop-color="#FF5C00"/>
<stop offset="0.531431" stop-color="#FF975D"/>
<stop offset="1" stop-color="#A32D05"/>
</linearGradient>
<clipPath id="clip0_2300_24746">
<path d="M0 8C0 3.58172 3.58172 0 8 0H22C26.4183 0 30 3.58172 30 8V22C30 26.4183 26.4183 30 22 30H8C3.58172 30 0 26.4183 0 22V8Z" fill="white"/>
</clipPath>
</defs>
</svg>
