<svg preserveAspectRatio="none" width="100%" height="100%" overflow="visible" style="display: block;" viewBox="0 0 30 30" fill="none" xmlns="http://www.w3.org/2000/svg">
<g id="&#208;&#161;&#208;&#187;&#208;&#190;&#208;&#185; 1">
<path id="Vector" fill-rule="evenodd" clip-rule="evenodd" d="M26.4 0H2.4C1.2 0 0 1.2 0 2.4V26.4C0 28.8 1.2 30 3.6 30H27.6C28.8 30 30 28.8 30 27.6V3.6C30 1.2 28.8 0 26.4 0Z" fill="url(#paint0_linear_0_83)"/>
<path id="Vector_2" d="M15.0019 5.39956C11.0719 5.39956 7.34292 5.05156 5.91792 8.69956C5.32692 10.2266 5.40192 12.1886 5.40192 14.9996C5.40192 17.4626 5.32392 19.7786 5.90592 21.2786C7.33992 24.9386 11.1019 24.5996 15.0019 24.5996C18.7639 24.5996 22.6459 24.9926 24.0859 21.2996C24.6739 19.7516 24.6019 17.8196 24.6019 14.9996C24.6019 11.2526 24.8089 8.83456 22.9909 7.01656C21.1729 5.19856 18.6499 5.39956 15.0019 5.39956ZM14.1439 7.12756C22.3399 7.12756 23.3809 6.20356 22.8049 18.8606C22.6009 23.3366 19.2049 22.8476 15.0049 22.8476C7.36692 22.8476 7.14792 22.6286 7.14792 14.9846C7.14792 7.25356 7.74792 7.13356 14.1469 7.12456L14.1439 7.12756ZM20.1199 8.72956C19.892 8.72956 19.6691 8.7972 19.4796 8.92392C19.2901 9.05063 19.1424 9.23073 19.0553 9.4414C18.9682 9.65208 18.9456 9.88386 18.9903 10.1074C19.035 10.331 19.145 10.5362 19.3064 10.6972C19.4678 10.8582 19.6734 10.9677 19.897 11.0118C20.1207 11.0559 20.3524 11.0327 20.5629 10.945C20.7733 10.8574 20.953 10.7092 21.0792 10.5194C21.2055 10.3296 21.2725 10.1065 21.2719 9.87856C21.2723 9.72731 21.2428 9.57747 21.185 9.43769C21.1272 9.29791 21.0423 9.17096 20.9352 9.06414C20.8281 8.95733 20.7009 8.87277 20.561 8.81535C20.4211 8.75792 20.2712 8.72877 20.1199 8.72956V8.72956ZM15.0019 10.0736C14.0275 10.073 13.0748 10.3614 12.2644 10.9023C11.4539 11.4432 10.8221 12.2123 10.4488 13.1124C10.0755 14.0124 9.97748 15.003 10.1672 15.9587C10.3569 16.9145 10.8259 17.7925 11.5147 18.4817C12.2034 19.1709 13.0812 19.6404 14.0368 19.8307C14.9924 20.021 15.983 19.9236 16.8833 19.5509C17.7836 19.1781 18.5531 18.5467 19.0945 17.7366C19.6359 16.9265 19.9249 15.974 19.9249 14.9996C19.9249 13.6936 19.4063 12.4411 18.4832 11.5174C17.56 10.5937 16.3079 10.0744 15.0019 10.0736ZM15.0019 11.8016C19.2289 11.8016 19.2319 18.1946 15.0019 18.1946C10.7719 18.1946 10.7719 11.8016 15.0019 11.8016V11.8016Z" fill="var(--fill-0, white)"/>
</g>
<defs>
<linearGradient id="paint0_linear_0_83" x1="0" y1="15" x2="30" y2="15" gradientUnits="userSpaceOnUse">
<stop stop-color="#FFDD55"/>
<stop offset="0.5" stop-color="#FF543E"/>
<stop offset="1" stop-color="#C837AB"/>
</linearGradient>
</defs>
</svg>
