<svg preserveAspectRatio="none" width="100%" height="100%" overflow="visible" style="display: block;" viewBox="0 0 30 30" fill="none" xmlns="http://www.w3.org/2000/svg">
<g id="&#208;&#161;&#208;&#187;&#208;&#190;&#208;&#185; 1">
<path id="Vector" fill-rule="evenodd" clip-rule="evenodd" d="M26.4 0H2.4C1.2 0 0 1.2 0 2.4V26.4C0 28.8 1.2 30 3.6 30H27.6C28.8 30 30 28.8 30 27.6V3.6C30 1.2 28.8 0 26.4 0Z" fill="var(--fill-0, #15ACE5)"/>
<path id="Vector_2" d="M23.332 16.63C23.5971 15.2648 23.5231 13.8554 23.1164 12.5255C22.7097 11.1957 21.9828 9.98593 20.9994 9.00257C20.0161 8.01921 18.8063 7.29227 17.4765 6.88557C16.1466 6.47887 14.7372 6.40485 13.372 6.67C12.437 6.12326 11.3472 5.90177 10.273 6.04016C9.19882 6.17856 8.20075 6.66903 7.43489 7.43489C6.66903 8.20075 6.17856 9.19882 6.04016 10.273C5.90177 11.3472 6.12326 12.437 6.67 13.372C6.40485 14.7372 6.47887 16.1466 6.88557 17.4765C7.29227 18.8063 8.01921 20.0161 9.00257 20.9994C9.98593 21.9828 11.1957 22.7097 12.5255 23.1164C13.8554 23.5231 15.2648 23.5971 16.63 23.332C17.565 23.8787 18.6548 24.1002 19.729 23.9618C20.8032 23.8234 21.8012 23.333 22.5671 22.5671C23.333 21.8012 23.8234 20.8032 23.9618 19.729C24.1002 18.6548 23.8787 17.565 23.332 16.63V16.63ZM15.163 20.83C12.145 20.83 10.639 19.699 10.174 18.277C9.709 16.855 10.726 16.45 11.044 16.423C11.362 16.396 12.04 16.471 12.244 17.059C12.448 17.647 13.114 18.886 14.566 19.033C16.018 19.18 16.966 18.511 17.266 17.815C17.566 17.119 17.032 16.162 14.8 15.841C12.568 15.52 10.231 14.536 10.231 12.301C10.231 10.066 12.784 9.169 15.22 9.169C17.656 9.169 18.901 10.546 19.165 11.101C19.504 11.767 19.387 12.88 18.586 13.072C17.785 13.264 17.308 12.811 16.699 11.68C16.09 10.549 13.828 10.81 13.075 11.479C12.322 12.148 12.523 13.102 15.655 13.711C18.787 14.32 19.948 15.451 19.948 17.221C19.948 18.991 18.178 20.83 15.163 20.83V20.83Z" fill="var(--fill-0, white)"/>
</g>
</svg>
