<svg width="30" height="30" viewBox="0 0 30 30" fill="none" xmlns="http://www.w3.org/2000/svg">
<g clip-path="url(#clip0_2300_24729)">
<path d="M2.40039 0.25H26.4004C27.5616 0.250065 28.3863 0.540629 28.9229 1.07715C29.4594 1.61367 29.7499 2.43835 29.75 3.59961V27.5996C29.75 28.1183 29.4882 28.6583 29.0732 29.0732C28.6583 29.4882 28.1183 29.75 27.5996 29.75H3.59961C2.43835 29.7499 1.61367 29.4594 1.07715 28.9229C0.540629 28.3863 0.250065 27.5616 0.25 26.4004V2.40039C0.25 1.8817 0.511844 1.34167 0.926758 0.926758C1.34167 0.511844 1.8817 0.25 2.40039 0.25Z" fill="url(#paint0_linear_2300_24729)" stroke="url(#paint1_linear_2300_24729)" stroke-width="0.5"/>
<g clip-path="url(#clip1_2300_24729)">
<mask id="mask0_2300_24729" style="mask-type:luminance" maskUnits="userSpaceOnUse" x="8" y="8" width="14" height="14">
<path d="M8 8H22V22H8V8Z" fill="white"/>
</mask>
<g mask="url(#mask0_2300_24729)">
<path d="M19.025 8.65625H21.172L16.482 14.0303L22 21.3442H17.68L14.294 16.9093L10.424 21.3442H8.275L13.291 15.5942L8 8.65725H12.43L15.486 12.7102L19.025 8.65625ZM18.27 20.0562H19.46L11.78 9.87725H10.504L18.27 20.0562Z" fill="url(#paint2_linear_2300_24729)"/>
</g>
</g>
</g>
<path d="M8 0.25H22C26.2802 0.25 29.75 3.71979 29.75 8V22C29.75 26.2802 26.2802 29.75 22 29.75H8C3.71979 29.75 0.25 26.2802 0.25 22V8C0.25 3.71979 3.71979 0.25 8 0.25Z" stroke="url(#paint3_linear_2300_24729)" stroke-width="0.5"/>
<defs>
<linearGradient id="paint0_linear_2300_24729" x1="15" y1="0" x2="15" y2="30" gradientUnits="userSpaceOnUse">
<stop stop-color="#383852"/>
<stop offset="0.5" stop-color="#232330"/>
<stop offset="1" stop-color="#17191F"/>
</linearGradient>
<linearGradient id="paint1_linear_2300_24729" x1="15" y1="0" x2="15" y2="30" gradientUnits="userSpaceOnUse">
<stop stop-color="#FF975D"/>
<stop offset="0.5" stop-color="#FF5C00"/>
<stop offset="1" stop-color="#A32D05"/>
</linearGradient>
<linearGradient id="paint2_linear_2300_24729" x1="15" y1="8.65625" x2="15" y2="21.3442" gradientUnits="userSpaceOnUse">
<stop stop-color="#FF975D"/>
<stop offset="0.5" stop-color="#FF5C00"/>
<stop offset="1" stop-color="#A32D05"/>
</linearGradient>
<linearGradient id="paint3_linear_2300_24729" x1="0" y1="0" x2="27.5" y2="28.5" gradientUnits="userSpaceOnUse">
<stop offset="0.00712717" stop-color="#FF5C00"/>
<stop offset="0.531431" stop-color="#FF975D"/>
<stop offset="1" stop-color="#A32D05"/>
</linearGradient>
<clipPath id="clip0_2300_24729">
<path d="M0 8C0 3.58172 3.58172 0 8 0H22C26.4183 0 30 3.58172 30 8V22C30 26.4183 26.4183 30 22 30H8C3.58172 30 0 26.4183 0 22V8Z" fill="white"/>
</clipPath>
<clipPath id="clip1_2300_24729">
<rect width="14" height="14" fill="white" transform="translate(8 8)"/>
</clipPath>
</defs>
</svg>
