<svg preserveAspectRatio="none" width="100%" height="100%" overflow="visible" style="display: block;" viewBox="0 0 30 30" fill="none" xmlns="http://www.w3.org/2000/svg">
<g id="&#208;&#161;&#208;&#187;&#208;&#190;&#208;&#185; 1">
<path id="Vector" fill-rule="evenodd" clip-rule="evenodd" d="M26.4 0H2.4C1.2 0 0 1.2 0 2.4V26.4C0 28.8 1.2 30 3.6 30H27.6C28.8 30 30 28.8 30 27.6V3.6C30 1.2 28.8 0 26.4 0Z" fill="var(--fill-0, #55ACEE)"/>
<path id="Vector_2" d="M23.7397 9.57937C23.085 9.87011 22.3902 10.0603 21.6787 10.1434C22.4277 9.69547 22.9884 8.99078 23.2567 8.16037C22.5532 8.57869 21.783 8.87297 20.9797 9.03037C20.485 8.5121 19.847 8.15323 19.1472 7.99967C18.4474 7.84612 17.7176 7.90486 17.0514 8.16839C16.3852 8.43192 15.8127 8.88824 15.4073 9.47896C15.0019 10.0697 14.782 10.7679 14.7757 11.4844C14.7758 11.759 14.807 12.0327 14.8687 12.3004C13.4433 12.23 12.0486 11.8603 10.7755 11.2152C9.50242 10.5702 8.37946 9.66422 7.47972 8.55637C7.01997 9.34766 6.87885 10.2843 7.08504 11.176C7.29123 12.0676 7.82925 12.8472 8.58972 13.3564C8.01923 13.3354 7.4619 13.1791 6.96372 12.9004V12.9454C6.96754 13.7718 7.25557 14.5717 7.77945 15.2108C8.30333 15.85 9.03115 16.2894 9.84072 16.4554C9.53263 16.5388 9.21489 16.5811 8.89572 16.5814C8.66914 16.5808 8.44312 16.5587 8.22072 16.5154C8.45126 17.2272 8.89786 17.8495 9.49842 18.2957C10.099 18.742 10.8237 18.99 11.5717 19.0054C10.3011 20.0026 8.73197 20.5436 7.11672 20.5414C6.83097 20.541 6.54549 20.524 6.26172 20.4904C7.90114 21.5437 9.80907 22.103 11.7577 22.1014C18.3577 22.1014 21.9577 16.6384 21.9577 11.9014C21.9577 11.7484 21.9577 11.6014 21.9577 11.4394C22.6632 10.9321 23.2727 10.3033 23.7577 9.58237L23.7397 9.57937Z" fill="var(--fill-0, #F1F2F2)"/>
</g>
</svg>
