<svg preserveAspectRatio="none" width="100%" height="100%" overflow="visible" style="display: block;" viewBox="0 0 30 30" fill="none" xmlns="http://www.w3.org/2000/svg">
<g id="&#208;&#161;&#208;&#187;&#208;&#190;&#208;&#185; 1">
<path id="Vector" fill-rule="evenodd" clip-rule="evenodd" d="M26.4 0H2.4C1.2 0 0 1.2 0 2.4V26.4C0 28.8 1.2 30 3.6 30H27.6C28.8 30 30 28.8 30 27.6V3.6C30 1.2 28.8 0 26.4 0Z" fill="var(--fill-0, #25D366)"/>
<g id="Group">
<path id="Vector_2" d="M14.5322 5.39964C12.9426 5.47724 11.3978 5.95175 10.0388 6.77985C8.67984 7.60795 7.54991 8.76327 6.75219 10.1403C5.95448 11.5174 5.51439 13.0723 5.47211 14.6632C5.42983 16.254 5.78671 17.8302 6.51015 19.2476L5.49915 24.1526C5.48539 24.2145 5.4875 24.2788 5.50529 24.3395C5.52308 24.4003 5.55598 24.4556 5.60091 24.5002C5.64584 24.5448 5.70134 24.5774 5.76223 24.5948C5.82313 24.6121 5.88743 24.6138 5.94915 24.5996L10.7492 23.4596C12.0516 24.0993 13.4831 24.4328 14.9342 24.4346C16.3852 24.4365 17.8176 24.1067 19.1217 23.4704C20.4258 22.8341 21.5673 21.9082 22.4589 20.7634C23.3505 19.6185 23.9687 18.2851 24.2662 16.8648C24.5637 15.4446 24.5326 13.9751 24.1754 12.5687C23.8182 11.1623 23.1443 9.85608 22.2052 8.74991C21.266 7.64374 20.0865 6.76684 18.7566 6.18619C17.4268 5.60554 15.9819 5.33651 14.5322 5.39964V5.39964ZM20.2682 20.1956C19.1642 21.3001 17.7411 22.0298 16.1999 22.2817C14.6587 22.5337 13.0774 22.2951 11.6792 21.5996L11.0102 21.2666L8.06115 21.9656L8.68215 18.9656L8.35215 18.2996C7.63895 16.8965 7.38777 15.3037 7.63456 13.7492C7.88135 12.1946 8.61345 10.7579 9.72615 9.64464C11.1253 8.24669 13.0225 7.4618 15.0003 7.46264C16.9782 7.46348 18.8747 8.24999 20.2727 9.64914C21.6706 11.0483 22.4555 12.9455 22.4547 14.9233C22.4538 16.9012 21.6673 18.7977 20.2682 20.1956V20.1956Z" fill="var(--fill-0, white)"/>
<path id="Vector_3" d="M19.6165 16.9867L17.7745 16.4587C17.6553 16.4248 17.5292 16.4236 17.4093 16.4553C17.2895 16.4869 17.1804 16.5503 17.0935 16.6387L16.6435 17.1007C16.55 17.1952 16.4307 17.26 16.3005 17.2872C16.1704 17.3145 16.0351 17.3028 15.9115 17.2537C15.0385 16.9027 13.2115 15.2707 12.7345 14.4517C12.6687 14.3363 12.6386 14.204 12.6482 14.0715C12.6578 13.939 12.7067 13.8123 12.7885 13.7077L13.1965 13.2007C13.2726 13.1034 13.3207 12.9871 13.3355 12.8644C13.3503 12.7417 13.3313 12.6174 13.2805 12.5047L12.5065 10.7497C12.4644 10.649 12.3987 10.5597 12.3152 10.4894C12.2316 10.4191 12.1325 10.3698 12.026 10.3454C11.9196 10.3211 11.8088 10.3225 11.703 10.3495C11.5972 10.3765 11.4993 10.4283 11.4175 10.5007C10.9015 10.9357 10.2895 11.5957 10.2175 12.3307C10.0855 13.6207 10.6405 15.2497 12.7345 17.2057C15.1585 19.4677 17.0965 19.7647 18.3595 19.4587C19.0735 19.2877 19.6465 18.5917 20.0065 18.0217C20.0651 17.9314 20.1016 17.8286 20.1132 17.7216C20.1247 17.6146 20.1109 17.5064 20.073 17.4057C20.035 17.305 19.974 17.2146 19.8947 17.1418C19.8154 17.069 19.7201 17.0159 19.6165 16.9867V16.9867Z" fill="var(--fill-0, white)"/>
</g>
</g>
</svg>
