<svg preserveAspectRatio="none" width="100%" height="100%" overflow="visible" style="display: block;" viewBox="0 0 26.6141 27.7655" fill="none" xmlns="http://www.w3.org/2000/svg">
<g id="Group">
<g id="Vector">
</g>
<path id="Vector_2" fill-rule="evenodd" clip-rule="evenodd" d="M23.2738 0.190788C23.5693 0.0130677 23.9221 -0.0432985 24.2582 0.03352C24.5943 0.110338 24.8876 0.314369 25.0765 0.602789L26.3965 2.61612C26.5686 2.87914 26.6422 3.19449 26.6044 3.50651C26.5666 3.81853 26.4197 4.10716 26.1898 4.32146L26.1858 4.32679L26.1672 4.34412L26.0911 4.41479L25.7911 4.70146C24.1312 6.31167 22.5216 7.97291 20.9645 9.68279C18.0352 12.9041 14.5565 17.1201 12.2152 21.2108C11.5618 22.3521 9.96582 22.5975 9.01915 21.6121L0.372483 12.6281C0.24857 12.4993 0.151816 12.3469 0.0879717 12.18C0.0241275 12.0131 -0.00550338 11.835 0.000840148 11.6564C0.00718367 11.4778 0.0493721 11.3023 0.124898 11.1403C0.200424 10.9783 0.307745 10.8331 0.440483 10.7135L3.05382 8.35612C3.28347 8.14907 3.57795 8.02827 3.88685 8.01441C4.19575 8.00054 4.49987 8.09447 4.74715 8.28012L9.15915 11.5881C16.0512 4.79212 19.9592 2.18412 23.2738 0.190788Z" fill="var(--fill-0, #FF5C00)"/>
</g>
</svg>
