<svg preserveAspectRatio="none" width="100%" height="100%" overflow="visible" style="display: block;" viewBox="0 0 28 28" fill="none" xmlns="http://www.w3.org/2000/svg">
<g id="fa6-solid:flag-usa" clip-path="url(#clip0_0_9)">
<path id="Vector" d="M2 0C3.10625 0 4 0.89375 4 2V3L8.3125 1.925C10.6937 1.33125 13.2062 1.60625 15.4062 2.70625C18.3 4.15625 21.7063 4.15625 24.6 2.70625L25.2 2.40625C26.4875 1.75625 28 2.69375 28 4.13125V6.3875L25.2062 7.4C22.5312 8.375 19.5813 8.26875 16.9813 7.1125L15.975 6.6625C14.7063 6.1 13.3625 5.74375 12 5.60625V7.61875C13.0875 7.75 14.15 8.0375 15.1625 8.4875L16.1688 8.9375C19.2438 10.3062 22.7312 10.425 25.8937 9.275L28 8.51875V12.3938L25.2062 13.4062C22.5312 14.3813 19.5813 14.275 16.9813 13.1187L15.975 12.6687C13.4625 11.55 10.6625 11.2625 7.96875 11.8375L4 12.6938V14.7375L8.3875 13.7937C10.6625 13.3062 13.0313 13.55 15.1625 14.5L16.1688 14.95C19.2438 16.3187 22.7312 16.4375 25.8937 15.2875L28 14.5188V18.3937L25.2062 19.4062C22.5312 20.3813 19.5813 20.275 16.9813 19.1187L15.975 18.6688C13.4625 17.55 10.6625 17.2625 7.96875 17.8375L4 18.6938V20.7375L8.3875 19.7938C10.6625 19.3063 13.0313 19.55 15.1625 20.5L16.1688 20.95C19.2438 22.3188 22.7312 22.4375 25.8937 21.2875L28 20.5187V22.6125C28 23.4437 27.4813 24.1937 26.7 24.4875L24.5312 25.3C21.6437 26.3812 18.4313 26.2125 15.675 24.8375C13.3063 23.65 10.5938 23.3562 8.01875 24L4 25V30C4 31.1063 3.10625 32 2 32C0.89375 32 0 31.1063 0 30V2C0 0.89375 0.89375 0 2 0ZM7 6C7 5.73478 6.89464 5.48043 6.70711 5.29289C6.51957 5.10536 6.26522 5 6 5C5.73478 5 5.48043 5.10536 5.29289 5.29289C5.10536 5.48043 5 5.73478 5 6C5 6.26522 5.10536 6.51957 5.29289 6.70711C5.48043 6.89464 5.73478 7 6 7C6.26522 7 6.51957 6.89464 6.70711 6.70711C6.89464 6.51957 7 6.26522 7 6ZM9 6C9.26522 6 9.51957 5.89464 9.70711 5.70711C9.89464 5.51957 10 5.26522 10 5C10 4.73478 9.89464 4.48043 9.70711 4.29289C9.51957 4.10536 9.26522 4 9 4C8.73478 4 8.48043 4.10536 8.29289 4.29289C8.10536 4.48043 8 4.73478 8 5C8 5.26522 8.10536 5.51957 8.29289 5.70711C8.48043 5.89464 8.73478 6 9 6ZM7 9C7 8.73478 6.89464 8.48043 6.70711 8.29289C6.51957 8.10536 6.26522 8 6 8C5.73478 8 5.48043 8.10536 5.29289 8.29289C5.10536 8.48043 5 8.73478 5 9C5 9.26522 5.10536 9.51957 5.29289 9.70711C5.48043 9.89464 5.73478 10 6 10C6.26522 10 6.51957 9.89464 6.70711 9.70711C6.89464 9.51957 7 9.26522 7 9ZM9 9C9.26522 9 9.51957 8.89464 9.70711 8.70711C9.89464 8.51957 10 8.26522 10 8C10 7.73478 9.89464 7.48043 9.70711 7.29289C9.51957 7.10536 9.26522 7 9 7C8.73478 7 8.48043 7.10536 8.29289 7.29289C8.10536 7.48043 8 7.73478 8 8C8 8.26522 8.10536 8.51957 8.29289 8.70711C8.48043 8.89464 8.73478 9 9 9Z" fill="var(--fill-0, #FF5C00)"/>
</g>
<defs>
<clipPath id="clip0_0_9">
<rect width="28" height="28" fill="white"/>
</clipPath>
</defs>
</svg>
