<svg preserveAspectRatio="none" width="100%" height="100%" overflow="visible" style="display: block;" viewBox="0 0 32 32" fill="none" xmlns="http://www.w3.org/2000/svg">
<g id="tdesign:secured-filled">
<path id="Vector" d="M29.3333 5.25333L16 0.586666L2.66667 5.25333V16C2.66667 21.5027 6.04533 25.3493 9.19467 27.7373C11.0961 29.1646 13.1816 30.3284 15.3947 31.1973C15.5458 31.2542 15.6978 31.3084 15.8507 31.36L16 31.4133L16.152 31.36C16.4435 31.2587 16.7325 31.1503 17.0187 31.0347C19.0797 30.1855 21.0242 29.0775 22.8053 27.7373C25.956 25.3493 29.3333 21.5027 29.3333 16V5.25333ZM14.668 20.5533L9.01333 14.896L10.8987 13.0093L14.6693 16.7813L22.212 9.23867L24.0987 11.124L14.668 20.5533Z" fill="var(--fill-0, #FF5C00)"/>
</g>
</svg>
