<svg preserveAspectRatio="none" width="100%" height="100%" overflow="visible" style="display: block;" viewBox="0 0 32 32" fill="none" xmlns="http://www.w3.org/2000/svg">
<g id="streamline-plump:call-center-support-service-solid" clip-path="url(#clip0_0_20)">
<path id="Vector" fill-rule="evenodd" clip-rule="evenodd" d="M27.318 1.38867C27.5357 1.13977 27.8242 0.963204 28.1449 0.882545C28.4656 0.801886 28.8033 0.820971 29.1128 0.93725C29.4224 1.05353 29.6892 1.26147 29.8775 1.53332C30.0657 1.80516 30.1666 2.12798 30.1667 2.45867V6.83333H30.3333C30.6428 6.83333 30.9395 6.95625 31.1583 7.17504C31.3771 7.39383 31.5 7.69058 31.5 8C31.5 8.30942 31.3771 8.60617 31.1583 8.82496C30.9395 9.04375 30.6428 9.16667 30.3333 9.16667H30.1667V10C30.1667 10.3094 30.0438 10.6062 29.825 10.825C29.6062 11.0437 29.3094 11.1667 29 11.1667C28.6906 11.1667 28.3938 11.0437 28.175 10.825C27.9562 10.6062 27.8333 10.3094 27.8333 10V9.16667H24.1513C23.8341 9.16664 23.5236 9.07524 23.257 8.90339C22.9903 8.73155 22.7788 8.48654 22.6477 8.19767C22.5166 7.90879 22.4715 7.58827 22.5178 7.27444C22.5641 6.96061 22.6998 6.66675 22.9087 6.428L27.318 1.38867ZM27.8333 6.83333V4.34333L25.6547 6.83333H27.8333ZM7.98933 1.66667C3.756 1.66667 0.322666 5.09933 0.322666 9.33333V10.2213C0.322666 10.272 0.326444 10.3218 0.334 10.3707C0.706 22.1953 10.408 31.6667 22.3227 31.6667H22.656C26.8907 31.6667 30.3227 28.234 30.3227 24V23.6207C30.3227 23.0212 30.1431 22.4354 29.807 21.9389C29.471 21.4425 28.9939 21.0581 28.4373 20.8353L24.3267 19.1913C23.6605 18.9249 22.9308 18.8597 22.228 19.004C21.5251 19.1482 20.8801 19.4954 20.3727 20.0027L18.3213 22.054C18.2307 22.1447 18.1287 22.1553 18.0667 22.1367C16.1297 21.5449 14.3678 20.4864 12.9357 19.0543C11.5036 17.6222 10.4451 15.8603 9.85333 13.9233C9.834 13.8607 9.84533 13.7587 9.93533 13.668L11.9867 11.6173C12.4942 11.1099 12.8416 10.4648 12.9859 9.76182C13.1303 9.05885 13.0652 8.32898 12.7987 7.66267L11.1533 3.55267C10.9307 2.99606 10.5465 2.51891 10.0501 2.18275C9.5538 1.84659 8.96813 1.66683 8.36867 1.66667H7.98933ZM17.6667 0.833333C17.0116 0.833121 16.3726 1.03606 15.8377 1.4142C15.3028 1.79233 14.8983 2.32705 14.68 2.94467C14.5791 3.23588 14.5975 3.55519 14.7312 3.83287C14.8649 4.11056 15.1031 4.32405 15.3937 4.42673C15.6843 4.52941 16.0037 4.51293 16.2822 4.38089C16.5607 4.24884 16.7756 4.01197 16.88 3.722C16.9375 3.55941 17.0441 3.41867 17.185 3.31921C17.3259 3.21974 17.4942 3.16644 17.6667 3.16667H19.052C19.2315 3.16654 19.4056 3.22824 19.545 3.34139C19.6844 3.45454 19.7806 3.61224 19.8173 3.78796C19.8541 3.96369 19.8292 4.14671 19.7469 4.30626C19.6646 4.4658 19.5299 4.59213 19.3653 4.664L16.3973 5.96267C15.8334 6.20942 15.3535 6.6152 15.0166 7.13037C14.6796 7.64553 14.5001 8.24775 14.5 8.86333V10C14.5 10.644 15.0227 11.1667 15.6667 11.1667H21C21.3094 11.1667 21.6062 11.0437 21.825 10.825C22.0438 10.6062 22.1667 10.3094 22.1667 10C22.1667 9.69058 22.0438 9.39383 21.825 9.17504C21.6062 8.95625 21.3094 8.83333 21 8.83333H16.8333C16.8391 8.67648 16.889 8.52443 16.9773 8.39469C17.0656 8.26496 17.1888 8.1628 17.3327 8.1L20.3007 6.802C20.9563 6.51545 21.4933 6.01188 21.8214 5.37597C22.1494 4.74006 22.2485 4.01059 22.102 3.31021C21.9555 2.60983 21.5723 1.98125 21.0168 1.53018C20.4614 1.0791 19.7675 0.833026 19.052 0.833333H17.6667Z" fill="var(--fill-0, #FF5C00)"/>
</g>
<defs>
<clipPath id="clip0_0_20">
<rect width="32" height="32" fill="white"/>
</clipPath>
</defs>
</svg>
