<svg width="634.085" height="891.611" viewBox="0 0 634.085 891.611" fill="none" xmlns="http://www.w3.org/2000/svg">
<path id="Vector 1" d="M126.815 4.89375C126.891 4.89375 126.968 4.89375 160.987 4.27053C195.006 3.6473 262.966 2.40085 301.212 2.03473C345.931 1.60667 362.386 5.16016 383.434 11.3228C407.753 18.4433 430.376 32.4511 448.625 45.5149C462.571 55.4986 468.103 65.5645 470.768 72.7317C477.479 90.7804 465.717 120.337 453.465 140.737C448.23 149.453 437.893 153.718 381.853 174.011C330.545 192.59 232.04 225.826 174.133 246.908C116.226 267.99 101.706 275.36 90.1857 282.019C54.7375 302.509 37.6754 329.557 26.8361 353.438C21.7199 364.71 23.6931 384.933 26.082 407.963C29.5959 441.837 63.0119 458.888 80.3315 467.528C90.9508 472.826 106.506 477.334 167.902 483.364C229.299 489.393 336.377 496.132 404.209 502.224C472.041 508.317 497.382 513.56 518.487 519.679C556.328 530.651 580.85 546.059 597.058 560.09C613.407 574.244 621.775 595.994 628.382 616.943C634.657 636.838 633.498 662.984 628.971 694.159C626.584 710.598 615.513 726.489 605.109 739.272C594.705 752.056 583.131 760.789 542.929 783.014C502.727 805.239 434.249 840.691 389.508 861.29C344.767 881.889 325.838 886.559 265.872 888.496C205.906 890.432 105.474 889.494 2 888.527" stroke="#383852" stroke-width="4" stroke-linecap="round" stroke-dasharray="32 32"/>
</svg>
