<svg width="20" height="20" viewBox="0 0 20 20" fill="none" xmlns="http://www.w3.org/2000/svg">
<path fill-rule="evenodd" clip-rule="evenodd" d="M9.415 1.8287C9.79219 1.68731 10.2078 1.68731 10.585 1.8287L16.4183 4.0162C16.7361 4.13531 17.0099 4.34858 17.2032 4.62749C17.3965 4.90641 17.5 5.23768 17.5 5.57703V10.0462C17.5 11.4391 17.1122 12.8044 16.3799 13.9892C15.6477 15.1741 14.6 16.1316 13.3542 16.7545L10.5592 18.1512C10.3856 18.238 10.1941 18.2832 10 18.2832C9.80589 18.2832 9.61444 18.238 9.44083 18.1512L6.64583 16.7537C5.40003 16.1308 4.35231 15.1733 3.62006 13.9884C2.88781 12.8036 2.49997 11.4382 2.5 10.0454V5.57786C2.49979 5.23837 2.60325 4.90692 2.79656 4.62784C2.98986 4.34875 3.26378 4.13536 3.58167 4.0162L9.415 1.8287ZM10.8333 9.7762C11.151 9.59274 11.3994 9.30958 11.5397 8.97063C11.6801 8.63167 11.7048 8.25587 11.6098 7.90149C11.5148 7.54712 11.3056 7.23397 11.0146 7.01063C10.7235 6.78728 10.3669 6.66621 10 6.6662C9.63312 6.66621 9.2765 6.78728 8.98544 7.01063C8.69439 7.23397 8.48515 7.54712 8.3902 7.90149C8.29524 8.25587 8.31987 8.63167 8.46026 8.97063C8.60065 9.30958 8.84895 9.59274 9.16667 9.7762V12.4995C9.16667 12.7205 9.25446 12.9325 9.41074 13.0888C9.56702 13.2451 9.77899 13.3329 10 13.3329C10.221 13.3329 10.433 13.2451 10.5893 13.0888C10.7455 12.9325 10.8333 12.7205 10.8333 12.4995V9.7762Z" fill="#FF975D"/>
</svg>
