<svg width="20" height="20" viewBox="0 0 20 20" fill="none" xmlns="http://www.w3.org/2000/svg">
<path d="M1.66406 10.0013C1.66406 14.6038 5.3949 18.3346 9.9974 18.3346C14.5999 18.3346 18.3307 14.6038 18.3307 10.0013C18.3307 5.3988 14.5999 1.66797 9.9974 1.66797C6.58073 1.66797 3.64323 3.72464 2.3574 6.66797M1.66406 3.7513L2.08073 7.08464L5.41406 6.2513" stroke="#FF975D" stroke-width="1.25" stroke-linecap="round" stroke-linejoin="round"/>
<path d="M12.2725 8.38464C12.1892 7.74964 11.4617 6.72213 10.1517 6.72213C8.63 6.72213 7.99 7.56714 7.86 7.9888C7.6575 8.5538 7.6975 9.71463 9.48167 9.8413C11.7108 9.99963 12.6042 10.2638 12.49 11.6305C12.3767 12.9971 11.1342 13.293 10.1517 13.2613C9.16917 13.2296 7.5625 12.778 7.5 11.5613M9.99583 5.41797V6.7263M9.99583 13.2538V14.5846" stroke="#FF975D" stroke-width="1.25" stroke-linecap="round"/>
</svg>
