<svg width="20" height="20" viewBox="0 0 20 20" fill="none" xmlns="http://www.w3.org/2000/svg">
<path d="M11.0562 3.69181L10.3188 2.19806C10.1969 1.93869 9.81562 1.92931 9.68125 2.19806L8.94375 3.69181L7.30937 3.92619C7.01875 3.96994 6.89375 4.32931 7.10938 4.54494L8.29688 5.70119L8.01562 7.32931C7.97188 7.61994 8.27187 7.84494 8.54062 7.71056L10.0063 6.93556L11.4625 7.69806C11.7312 7.83244 12.0344 7.60744 11.9875 7.31681L11.7063 5.68869L12.8938 4.54494C13.1062 4.33244 12.9844 3.97306 12.6938 3.92619L11.0594 3.69181H11.0562ZM9 10.0012C8.17188 10.0012 7.5 10.6731 7.5 11.5012V16.5012C7.5 17.3293 8.17188 18.0012 9 18.0012H11C11.8281 18.0012 12.5 17.3293 12.5 16.5012V11.5012C12.5 10.6731 11.8281 10.0012 11 10.0012H9ZM2.5 12.0012C1.67188 12.0012 1 12.6731 1 13.5012V16.5012C1 17.3293 1.67188 18.0012 2.5 18.0012H4.5C5.32812 18.0012 6 17.3293 6 16.5012V13.5012C6 12.6731 5.32812 12.0012 4.5 12.0012H2.5ZM14 15.5012V16.5012C14 17.3293 14.6719 18.0012 15.5 18.0012H17.5C18.3281 18.0012 19 17.3293 19 16.5012V15.5012C19 14.6731 18.3281 14.0012 17.5 14.0012H15.5C14.6719 14.0012 14 14.6731 14 15.5012Z" fill="#FF975D"/>
</svg>
