<svg width="20" height="20" viewBox="0 0 20 20" fill="none" xmlns="http://www.w3.org/2000/svg">
<path fill-rule="evenodd" clip-rule="evenodd" d="M8.13603 2.4964C8.37052 2.23452 8.65759 2.02503 8.97852 1.88161C9.29945 1.73819 9.64702 1.66406 9.99853 1.66406C10.3501 1.66406 10.6976 1.73819 11.0185 1.88161C11.3395 2.02503 11.6265 2.23452 11.861 2.4964L12.4444 3.14807C12.5277 3.24132 12.631 3.31462 12.7466 3.36251C12.8621 3.4104 12.987 3.43167 13.1119 3.42473L13.9869 3.3764C14.3377 3.35713 14.6887 3.41205 15.017 3.53757C15.3452 3.66309 15.6432 3.85639 15.8917 4.10487C16.1402 4.35335 16.3335 4.65142 16.459 4.97964C16.5846 5.30787 16.6395 5.65886 16.6202 6.00973L16.5719 6.88473C16.5651 7.00949 16.5864 7.13418 16.6343 7.24958C16.6822 7.36497 16.7554 7.46813 16.8485 7.5514L17.501 8.13473C17.7631 8.36922 17.9727 8.65635 18.1162 8.97735C18.2597 9.29836 18.3338 9.64603 18.3338 9.99765C18.3338 10.3493 18.2597 10.6969 18.1162 11.0179C17.9727 11.339 17.7631 11.6261 17.501 11.8606L16.8485 12.4439C16.7553 12.5273 16.682 12.6306 16.6341 12.7461C16.5862 12.8617 16.5649 12.9865 16.5719 13.1114L16.6202 13.9864C16.6395 14.3373 16.5846 14.6883 16.459 15.0165C16.3335 15.3447 16.1402 15.6428 15.8917 15.8913C15.6432 16.1397 15.3452 16.333 15.017 16.4586C14.6887 16.5841 14.3377 16.639 13.9869 16.6197L13.1119 16.5714C12.9871 16.5646 12.8624 16.5859 12.747 16.6338C12.6316 16.6817 12.5285 16.7549 12.4452 16.8481L11.8619 17.5006C11.6274 17.7626 11.3403 17.9722 11.0192 18.1157C10.6982 18.2592 10.3506 18.3334 9.99895 18.3334C9.64733 18.3334 9.29966 18.2592 8.97865 18.1157C8.65765 17.9722 8.37052 17.7626 8.13603 17.5006L7.5527 16.8481C7.46934 16.7548 7.36605 16.6815 7.2505 16.6336C7.13494 16.5857 7.01009 16.5645 6.8852 16.5714L6.0102 16.6197C5.65933 16.639 5.30833 16.5841 4.98011 16.4586C4.65189 16.333 4.35382 16.1397 4.10534 15.8913C3.85686 15.6428 3.66355 15.3447 3.53803 15.0165C3.41251 14.6883 3.3576 14.3373 3.37687 13.9864L3.4252 13.1114C3.43201 12.9866 3.41068 12.862 3.36279 12.7466C3.3149 12.6312 3.24168 12.528 3.14853 12.4447L2.49687 11.8614C2.23485 11.6269 2.02524 11.3398 1.88174 11.0188C1.73824 10.6978 1.66406 10.3501 1.66406 9.99848C1.66406 9.64686 1.73824 9.29919 1.88174 8.97819C2.02524 8.65718 2.23485 8.37006 2.49687 8.13557L3.14853 7.55223C3.24179 7.46887 3.31508 7.36558 3.36298 7.25003C3.41087 7.13448 3.43214 7.00963 3.4252 6.88473L3.37687 6.00973C3.3576 5.65886 3.41251 5.30787 3.53803 4.97964C3.66355 4.65142 3.85686 4.35335 4.10534 4.10487C4.35382 3.85639 4.65189 3.66309 4.98011 3.53757C5.30833 3.41205 5.65933 3.35713 6.0102 3.3764L6.8852 3.42473C7.00995 3.43154 7.13464 3.41022 7.25004 3.36233C7.36544 3.31444 7.46859 3.24121 7.55187 3.14807L8.13603 2.4964ZM13.0877 6.9089C13.2439 7.06517 13.3317 7.2771 13.3317 7.49807C13.3317 7.71904 13.2439 7.93096 13.0877 8.08723L8.0877 13.0872C7.93053 13.239 7.72003 13.323 7.50153 13.3211C7.28304 13.3192 7.07402 13.2316 6.91952 13.0771C6.76501 12.9226 6.67737 12.7136 6.67547 12.4951C6.67357 12.2766 6.75757 12.0661 6.90937 11.9089L11.9094 6.9089C12.0656 6.75268 12.2776 6.66491 12.4985 6.66491C12.7195 6.66491 12.9314 6.75268 13.0877 6.9089ZM7.9152 6.66473C7.58368 6.66473 7.26574 6.79643 7.03132 7.03085C6.7969 7.26527 6.6652 7.58321 6.6652 7.91473V7.92307C6.6652 8.25459 6.7969 8.57253 7.03132 8.80695C7.26574 9.04137 7.58368 9.17307 7.9152 9.17307H7.92353C8.25505 9.17307 8.573 9.04137 8.80742 8.80695C9.04184 8.57253 9.17353 8.25459 9.17353 7.92307V7.91473C9.17353 7.58321 9.04184 7.26527 8.80742 7.03085C8.573 6.79643 8.25505 6.66473 7.92353 6.66473H7.9152ZM12.0819 10.8314C11.7503 10.8314 11.4324 10.9631 11.198 11.1975C10.9636 11.4319 10.8319 11.7499 10.8319 12.0814V12.0897C10.8319 12.4213 10.9636 12.7392 11.198 12.9736C11.4324 13.208 11.7503 13.3397 12.0819 13.3397H12.0902C12.4217 13.3397 12.7397 13.208 12.9741 12.9736C13.2085 12.7392 13.3402 12.4213 13.3402 12.0897V12.0814C13.3402 11.7499 13.2085 11.4319 12.9741 11.1975C12.7397 10.9631 12.4217 10.8314 12.0902 10.8314H12.0819Z" fill="#FF975D"/>
</svg>
