<svg width="20" height="20" viewBox="0 0 20 20" fill="none" xmlns="http://www.w3.org/2000/svg">
<g clip-path="url(#clip0_3611_21536)">
<path d="M4.13597 2.95681L8.01514 6.83514C8.61107 6.4612 9.30035 6.26285 10.0039 6.26285C10.7074 6.26285 11.3967 6.4612 11.9926 6.83514L15.8693 2.95847C14.2223 1.58696 12.1468 0.835938 10.0035 0.835938C7.86018 0.835938 5.78465 1.58696 4.13764 2.95847M17.0476 4.13514L13.1693 8.01431C13.5431 8.61014 13.7413 9.29927 13.7413 10.0026C13.7413 10.706 13.5431 11.3951 13.1693 11.991L17.0468 15.8685C18.4183 14.2215 19.1693 12.1459 19.1693 10.0026C19.1693 7.85935 18.4183 5.78382 17.0468 4.13681M15.8693 17.0468L11.9918 13.1685C11.3959 13.5424 10.7066 13.7408 10.0031 13.7408C9.29952 13.7408 8.61024 13.5424 8.01431 13.1685L4.13597 17.0476C5.78305 18.4194 7.85875 19.1705 10.0022 19.1705C12.1457 19.1705 14.2214 18.4194 15.8685 17.0476M2.95847 15.8685L6.83597 11.9893C6.4622 11.3935 6.26394 10.7043 6.26394 10.001C6.26394 9.2976 6.4622 8.60848 6.83597 8.01264L2.95847 4.13514C1.58696 5.78215 0.835937 7.85768 0.835938 10.001C0.835937 12.1443 1.58696 14.2198 2.95847 15.8668" fill="#FF975D"/>
</g>
<defs>
<clipPath id="clip0_3611_21536">
<rect width="20" height="20" fill="white"/>
</clipPath>
</defs>
</svg>
