<svg width="20" height="20" viewBox="0 0 20 20" fill="none" xmlns="http://www.w3.org/2000/svg">
<path fill-rule="evenodd" clip-rule="evenodd" d="M1.66406 6.66797C1.66406 6.00493 1.92745 5.36904 2.3963 4.9002C2.86514 4.43136 3.50102 4.16797 4.16406 4.16797H15.8307C16.4938 4.16797 17.1297 4.43136 17.5985 4.9002C18.0673 5.36904 18.3307 6.00493 18.3307 6.66797V13.3346C18.3307 13.9977 18.0673 14.6336 17.5985 15.1024C17.1297 15.5712 16.4938 15.8346 15.8307 15.8346H4.16406C3.50102 15.8346 2.86514 15.5712 2.3963 15.1024C1.92745 14.6336 1.66406 13.9977 1.66406 13.3346V6.66797ZM9.16406 10.0013C9.16406 9.78029 9.25186 9.56833 9.40814 9.41205C9.56442 9.25577 9.77638 9.16797 9.9974 9.16797C10.2184 9.16797 10.4304 9.25577 10.5867 9.41205C10.7429 9.56833 10.8307 9.78029 10.8307 10.0013C10.8307 10.2223 10.7429 10.4343 10.5867 10.5906C10.4304 10.7468 10.2184 10.8346 9.9974 10.8346C9.77638 10.8346 9.56442 10.7468 9.40814 10.5906C9.25186 10.4343 9.16406 10.2223 9.16406 10.0013ZM9.9974 7.5013C9.33435 7.5013 8.69847 7.76469 8.22963 8.23353C7.76079 8.70238 7.4974 9.33826 7.4974 10.0013C7.4974 10.6643 7.76079 11.3002 8.22963 11.7691C8.69847 12.2379 9.33435 12.5013 9.9974 12.5013C10.6604 12.5013 11.2963 12.2379 11.7652 11.7691C12.234 11.3002 12.4974 10.6643 12.4974 10.0013C12.4974 9.33826 12.234 8.70238 11.7652 8.23353C11.2963 7.76469 10.6604 7.5013 9.9974 7.5013Z" fill="#FF975D"/>
</svg>
