<svg preserveAspectRatio="none" width="100%" height="100%" overflow="visible" style="display: block;" viewBox="0 0 16.6641 13.3346" fill="none" xmlns="http://www.w3.org/2000/svg">
<g id="Group">
<path id="Vector" fill-rule="evenodd" clip-rule="evenodd" d="M4.16406 1.66667C4.16406 1.22464 4.33966 0.800716 4.65222 0.488155C4.96478 0.175595 5.3887 0 5.83073 0H14.9974C15.4394 0 15.8633 0.175595 16.1759 0.488155C16.4885 0.800716 16.6641 1.22464 16.6641 1.66667V7.5C16.6641 7.94203 16.4885 8.36595 16.1759 8.67851C15.8633 8.99107 15.4394 9.16667 14.9974 9.16667H13.3307V5.83333C13.3307 5.17029 13.0673 4.53441 12.5985 4.06557C12.1297 3.59672 11.4938 3.33333 10.8307 3.33333H4.16406V1.66667Z" fill="var(--fill-0, #FF975D)"/>
<path id="Vector_2" fill-rule="evenodd" clip-rule="evenodd" d="M0 5.83464C0 5.39261 0.175595 4.96868 0.488155 4.65612C0.800716 4.34356 1.22464 4.16797 1.66667 4.16797H10.8333C11.2754 4.16797 11.6993 4.34356 12.0118 4.65612C12.3244 4.96868 12.5 5.39261 12.5 5.83464V11.668C12.5 12.11 12.3244 12.5339 12.0118 12.8465C11.6993 13.159 11.2754 13.3346 10.8333 13.3346H1.66667C1.22464 13.3346 0.800716 13.159 0.488155 12.8465C0.175595 12.5339 0 12.11 0 11.668V5.83464ZM6.25 6.66797C5.69747 6.66797 5.16756 6.88746 4.77686 7.27816C4.38616 7.66886 4.16667 8.19877 4.16667 8.7513C4.16667 9.30384 4.38616 9.83374 4.77686 10.2244C5.16756 10.6151 5.69747 10.8346 6.25 10.8346C6.80253 10.8346 7.33244 10.6151 7.72314 10.2244C8.11384 9.83374 8.33333 9.30384 8.33333 8.7513C8.33333 8.19877 8.11384 7.66886 7.72314 7.27816C7.33244 6.88746 6.80253 6.66797 6.25 6.66797Z" fill="var(--fill-0, #FF975D)"/>
<path id="Vector_3" d="M7.08073 8.7513C7.08073 8.97232 6.99293 9.18428 6.83665 9.34056C6.68037 9.49684 6.46841 9.58464 6.2474 9.58464C6.02638 9.58464 5.81442 9.49684 5.65814 9.34056C5.50186 9.18428 5.41406 8.97232 5.41406 8.7513C5.41406 8.53029 5.50186 8.31833 5.65814 8.16205C5.81442 8.00577 6.02638 7.91797 6.2474 7.91797C6.46841 7.91797 6.68037 8.00577 6.83665 8.16205C6.99293 8.31833 7.08073 8.53029 7.08073 8.7513Z" fill="var(--fill-0, #FF975D)"/>
</g>
</svg>
