<svg preserveAspectRatio="none" width="100%" height="100%" overflow="visible" style="display: block;" viewBox="0 0 12 12" fill="none" xmlns="http://www.w3.org/2000/svg">
<g id="Layer_1" clip-path="url(#clip0_0_105)">
<path id="Vector" d="M6 0.5C6.71333 0.5 7.44107 0.647115 8.10059 0.921875H8.10156C8.78053 1.20325 9.37949 1.60605 9.88672 2.11328C10.394 2.62051 10.7968 3.21947 11.0781 3.89844V3.89941C11.3532 4.55972 11.5 5.26752 11.5 6C11.5 6.73506 11.3591 7.44201 11.0791 8.10547L11.0771 8.11035C10.7958 8.79512 10.3936 9.3917 9.88867 9.89062L9.88672 9.89355C9.43803 10.3422 8.9235 10.7024 8.34961 10.9746L8.10059 11.085C7.43598 11.359 6.70838 11.5 6 11.5C4.52607 11.5 3.1468 10.9263 2.11426 9.8877L2.1123 9.88574L1.92285 9.6875C1.00434 8.67934 0.5 7.37568 0.5 6C0.5 4.53328 1.07324 3.15333 2.11328 2.11328C3.15333 1.07324 4.53328 0.5 6 0.5ZM8.99219 3.62695C8.49453 3.20039 7.75946 3.28014 7.34668 3.76172L7.34277 3.7666L5.25391 6.27051L4.63477 5.64746L4.63379 5.64648L4.5459 5.56738C4.33258 5.39413 4.06785 5.30664 3.80664 5.30664H3.7998C3.53641 5.30668 3.27307 5.39587 3.06348 5.57422L2.98633 5.64648C2.75665 5.8762 2.63965 6.17832 2.63965 6.48047C2.63977 6.77678 2.75369 7.07231 2.97949 7.29199V7.29297L4.50586 8.82617L4.50684 8.82715C4.74998 9.0701 5.05918 9.16699 5.36035 9.16699H5.36816L5.37695 9.16602C5.71822 9.15425 6.01537 8.99737 6.22266 8.74609L6.22363 8.74707L9.13672 5.26074L9.1416 5.25488C9.33361 5.01769 9.42817 4.72511 9.40527 4.41602L9.40332 4.39844L9.38672 4.28809C9.33686 4.04069 9.20975 3.80243 8.99121 3.62695H8.99219Z" fill="var(--fill-0, #FA4609)" stroke="var(--stroke-0, #FA4609)"/>
<path id="Vector_2" d="M8.90729 4.45386C8.92062 4.63386 8.86729 4.80053 8.75396 4.94053L5.84063 8.4272C5.72063 8.57386 5.55396 8.66053 5.36063 8.6672C5.16729 8.6672 4.99396 8.6072 4.86063 8.47386L3.33396 6.94053C3.20729 6.82053 3.14062 6.65386 3.14062 6.48053C3.14062 6.3072 3.20729 6.13386 3.34063 6.00053C3.46063 5.87386 3.62729 5.8072 3.80062 5.8072H3.80729C3.98063 5.8072 4.15396 5.87386 4.28063 6.00053L5.28729 7.01386L7.72729 4.0872C7.96729 3.8072 8.38729 3.7672 8.66729 4.0072C8.80729 4.11386 8.88729 4.27386 8.90729 4.45386Z" fill="var(--fill-0, white)"/>
</g>
<defs>
<clipPath id="clip0_0_105">
<rect width="12" height="12" fill="white"/>
</clipPath>
</defs>
</svg>
