<svg preserveAspectRatio="none" width="100%" height="100%" overflow="visible" style="display: block;" viewBox="0 0 20 20" fill="none" xmlns="http://www.w3.org/2000/svg">
<g id="hugeicons:crown-03">
<path id="Vector" d="M4.16385 17.0837H15.8305M14.0572 14.5837H5.93718C5.08051 14.5837 4.65218 14.5837 4.32718 14.3528C4.00218 14.1228 3.86051 13.7187 3.57718 12.9095L1.70718 7.56449C1.65797 7.41993 1.65072 7.26438 1.68626 7.11587C1.72181 6.96736 1.79869 6.83195 1.90802 6.72533C2.04514 6.59112 2.224 6.50779 2.41496 6.48915C2.60593 6.47051 2.79753 6.51767 2.95802 6.62283L3.98385 7.29783C5.02051 7.97949 5.53885 8.31949 6.06301 8.19616C6.58718 8.07199 6.89801 7.53533 7.52051 6.46283L9.36551 3.27949C9.43011 3.16929 9.52237 3.07787 9.63317 3.01429C9.74396 2.9507 9.86944 2.91717 9.99718 2.91699C10.2588 2.91699 10.4997 3.05533 10.6297 3.27866L12.4747 6.46199C13.0972 7.53533 13.408 8.07199 13.9322 8.19533C14.4563 8.32033 14.9738 7.97866 16.0105 7.29783L17.038 6.62283C17.1984 6.51788 17.3898 6.47084 17.5806 6.48948C17.7714 6.50812 17.9501 6.59132 18.0872 6.72533C18.3097 6.94533 18.3872 7.26949 18.2872 7.56449L16.4163 12.9095C16.133 13.7178 15.9913 14.1228 15.6663 14.3528C15.3413 14.5837 14.9138 14.5837 14.0572 14.5837Z" stroke="var(--stroke-0, #FF5C00)" stroke-width="1.5" stroke-linecap="round" stroke-linejoin="round"/>
</g>
</svg>
