<svg preserveAspectRatio="none" width="100%" height="100%" overflow="visible" style="display: block;" viewBox="0 0 24 24" fill="none" xmlns="http://www.w3.org/2000/svg">
<g id="duo-icons:info" clip-path="url(#clip0_0_160)">
<path id="Vector" opacity="0.3" d="M11.9988 0C18.6269 0 24 5.37279 24 12.0006C24 18.6272 18.6269 24 11.9988 24C5.37066 24 2.00968e-07 18.6272 2.00968e-07 12.0006C-0.00119968 5.37279 5.37066 0 11.9988 0Z" fill="var(--fill-0, #FA4609)"/>
<path id="Vector_2" d="M12.0051 6.49559C11.8378 6.49099 11.6712 6.52 11.5153 6.58089C11.3594 6.64178 11.2173 6.73332 11.0973 6.8501C10.9774 6.96688 10.8821 7.10652 10.8171 7.26076C10.7521 7.41501 10.7186 7.58073 10.7188 7.74812C10.7189 7.91551 10.7526 8.08117 10.8179 8.23532C10.8831 8.38946 10.9786 8.52894 11.0988 8.64553C11.2189 8.76211 11.3612 8.85343 11.5172 8.91407C11.6732 8.97471 11.8398 9.00345 12.0071 8.99859C12.3329 8.989 12.6421 8.85274 12.869 8.61877C13.0959 8.3848 13.2227 8.07156 13.2223 7.74563C13.2219 7.4197 13.0944 7.10677 12.8669 6.87335C12.6395 6.63992 12.3299 6.5044 12.0041 6.49559H12.0051ZM12.0001 10.2446C11.755 10.2449 11.5186 10.3352 11.3358 10.4984C11.1529 10.6615 11.0363 10.8861 11.0081 11.1296L11.0011 11.2456L11.0051 16.7476L11.0111 16.8646C11.0393 17.1085 11.1562 17.3335 11.3396 17.4967C11.523 17.6599 11.76 17.75 12.0055 17.7498C12.251 17.7495 12.4879 17.659 12.6709 17.4954C12.8539 17.3318 12.9704 17.1065 12.9981 16.8626L13.0041 16.7456L13.0001 11.2446L12.9931 11.1276C12.9642 10.8843 12.847 10.6602 12.6638 10.4976C12.4806 10.335 12.2441 10.2453 11.9991 10.2456L12.0001 10.2446Z" fill="var(--fill-0, #FF5C00)"/>
</g>
<defs>
<clipPath id="clip0_0_160">
<rect width="24" height="24" fill="white"/>
</clipPath>
</defs>
</svg>
