<svg preserveAspectRatio="none" width="100%" height="100%" overflow="visible" style="display: block;" viewBox="0 0 16 16" fill="none" xmlns="http://www.w3.org/2000/svg">
<g id="duo-icons:info" clip-path="url(#clip0_0_134)">
<path id="Vector" opacity="0.3" d="M7.9992 0C12.418 0 16 3.58186 16 8.0004C16 12.4181 12.418 16 7.9992 16C3.58044 16 1.33979e-07 12.4181 1.33979e-07 8.0004C-0.000799786 3.58186 3.58044 0 7.9992 0Z" fill="var(--fill-0, #FA4609)"/>
<path id="Vector_2" d="M8.00211 4.33039C7.89056 4.32733 7.77952 4.34667 7.67557 4.38726C7.57162 4.42786 7.47687 4.48888 7.39692 4.56673C7.31696 4.64458 7.25343 4.73768 7.21008 4.84051C7.16673 4.94334 7.14444 5.05382 7.14453 5.16541C7.14462 5.27701 7.16709 5.38745 7.2106 5.49021C7.25412 5.59297 7.3178 5.68596 7.39787 5.76369C7.47795 5.84141 7.5728 5.90228 7.67682 5.94271C7.78083 5.98314 7.89189 6.0023 8.00344 5.99906C8.22063 5.99266 8.42677 5.90182 8.57805 5.74584C8.72932 5.58986 8.8138 5.38104 8.81354 5.16375C8.81328 4.94647 8.7283 4.73785 8.57665 4.58223C8.425 4.42661 8.21865 4.33627 8.00144 4.33039H8.00211ZM7.99878 6.82973C7.8354 6.82995 7.67779 6.89016 7.55587 6.99892C7.43396 7.10769 7.35623 7.25743 7.33744 7.41973L7.33277 7.49706L7.33544 11.1651L7.33944 11.2431C7.35824 11.4056 7.43618 11.5556 7.55844 11.6645C7.68069 11.7733 7.8387 11.8333 8.00237 11.8332C8.16604 11.833 8.32393 11.7726 8.44596 11.6636C8.568 11.5545 8.64564 11.4044 8.66411 11.2417L8.66811 11.1637L8.66544 7.49639L8.66078 7.41839C8.64151 7.25623 8.56339 7.10678 8.44124 6.9984C8.31909 6.89001 8.16141 6.83023 7.99811 6.83039L7.99878 6.82973Z" fill="var(--fill-0, #FF5C00)"/>
</g>
<defs>
<clipPath id="clip0_0_134">
<rect width="16" height="16" fill="white"/>
</clipPath>
</defs>
</svg>
