<svg preserveAspectRatio="none" width="100%" height="100%" overflow="visible" style="display: block;" viewBox="0 0 20 20" fill="none" xmlns="http://www.w3.org/2000/svg">
<g id="duo-icons:info" clip-path="url(#clip0_0_116)">
<path id="Vector" opacity="0.3" d="M9.999 0C15.5224 0 20 4.47733 20 10.0005C20 15.5227 15.5224 20 9.999 20C4.47555 20 1.67474e-07 15.5227 1.67474e-07 10.0005C-0.000999733 4.47733 4.47555 0 9.999 0Z" fill="var(--fill-0, #FA4609)"/>
<path id="Vector_2" d="M10.0017 5.41641C9.86222 5.41258 9.72343 5.43675 9.59349 5.48749C9.46355 5.53824 9.34511 5.61452 9.24517 5.71184C9.14523 5.80915 9.06581 5.92552 9.01163 6.05405C8.95744 6.18259 8.92958 6.32069 8.92969 6.46018C8.9298 6.59968 8.95788 6.73773 9.01228 6.86618C9.06667 6.99463 9.14627 7.11087 9.24636 7.20803C9.34646 7.30518 9.46503 7.38127 9.59504 7.43181C9.72506 7.48234 9.86389 7.50629 10.0033 7.50224C10.2748 7.49425 10.5325 7.3807 10.7216 7.18572C10.9107 6.99075 11.0163 6.72972 11.016 6.45811C11.0156 6.1865 10.9094 5.92573 10.7198 5.73121C10.5303 5.53668 10.2723 5.42375 10.0008 5.41641H10.0017ZM9.99749 8.54058C9.79327 8.54085 9.59626 8.61612 9.44387 8.75207C9.29147 8.88803 9.19431 9.07521 9.17083 9.27808L9.16499 9.37474L9.16833 13.9597L9.17333 14.0572C9.19682 14.2605 9.29425 14.448 9.44707 14.584C9.59988 14.72 9.7974 14.7951 10.002 14.7949C10.2066 14.7947 10.4039 14.7192 10.5565 14.5829C10.709 14.4465 10.8061 14.2589 10.8292 14.0556L10.8342 13.9581L10.8308 9.37391L10.825 9.27641C10.8009 9.07371 10.7033 8.8869 10.5506 8.75142C10.3979 8.61594 10.2008 8.54121 9.99666 8.54141L9.99749 8.54058Z" fill="var(--fill-0, #FF5C00)"/>
</g>
<defs>
<clipPath id="clip0_0_116">
<rect width="20" height="20" fill="white"/>
</clipPath>
</defs>
</svg>
