<svg width="20" height="20" viewBox="0 0 20 20" fill="none" xmlns="http://www.w3.org/2000/svg">
<path fill-rule="evenodd" clip-rule="evenodd" d="M5 6.66797C5 5.34189 5.52678 4.07012 6.46447 3.13243C7.40215 2.19475 8.67392 1.66797 10 1.66797C11.3261 1.66797 12.5979 2.19475 13.5355 3.13243C14.4732 4.07012 15 5.34189 15 6.66797H15.8333C16.2754 6.66797 16.6993 6.84356 17.0118 7.15612C17.3244 7.46869 17.5 7.89261 17.5 8.33464V16.668C17.5 17.11 17.3244 17.5339 17.0118 17.8465C16.6993 18.159 16.2754 18.3346 15.8333 18.3346H4.16667C3.72464 18.3346 3.30072 18.159 2.98816 17.8465C2.67559 17.5339 2.5 17.11 2.5 16.668V8.33464C2.5 7.89261 2.67559 7.46869 2.98816 7.15612C3.30072 6.84356 3.72464 6.66797 4.16667 6.66797H5ZM10 3.33464C10.8841 3.33464 11.7319 3.68582 12.357 4.31095C12.9821 4.93607 13.3333 5.78391 13.3333 6.66797H6.66667C6.66667 5.78391 7.01786 4.93607 7.64298 4.31095C8.2681 3.68582 9.11594 3.33464 10 3.33464ZM11.6667 11.668C11.6667 11.9605 11.5896 12.2479 11.4434 12.5013C11.2971 12.7546 11.0867 12.965 10.8333 13.1113V14.168C10.8333 14.389 10.7455 14.6009 10.5893 14.7572C10.433 14.9135 10.221 15.0013 10 15.0013C9.77899 15.0013 9.56702 14.9135 9.41074 14.7572C9.25446 14.6009 9.16667 14.389 9.16667 14.168V13.1113C8.84895 12.9278 8.60065 12.6447 8.46026 12.3057C8.31987 11.9668 8.29524 11.591 8.3902 11.2366C8.48515 10.8822 8.69439 10.5691 8.98544 10.3457C9.2765 10.1224 9.63312 10.0013 10 10.0013C10.442 10.0013 10.866 10.1769 11.1785 10.4895C11.4911 10.802 11.6667 11.2259 11.6667 11.668Z" fill="#FF975D"/>
</svg>
