<svg preserveAspectRatio="none" width="100%" height="100%" overflow="visible" style="display: block;" viewBox="0 0 15 18.1774" fill="none" xmlns="http://www.w3.org/2000/svg">
<g id="Group">
<g id="Vector">
</g>
<path id="Vector_2" fill-rule="evenodd" clip-rule="evenodd" d="M2.5 5C2.5 3.67392 3.02678 2.40215 3.96447 1.46447C4.90215 0.526784 6.17392 0 7.5 0C8.82608 0 10.0979 0.526784 11.0355 1.46447C11.9732 2.40215 12.5 3.67392 12.5 5H13.3333C13.7754 5 14.1993 5.17559 14.5118 5.48816C14.8244 5.80072 15 6.22464 15 6.66667V15C15 15.442 14.8244 15.8659 14.5118 16.1785C14.1993 16.4911 13.7754 16.6667 13.3333 16.6667H1.66667C1.22464 16.6667 0.800716 16.4911 0.488155 16.1785C0.175595 15.8659 0 15.442 0 15V6.66667C0 6.22464 0.175595 5.80072 0.488155 5.48816C0.800716 5.17559 1.22464 5 1.66667 5H2.5ZM7.5 1.66667C8.38405 1.66667 9.2319 2.01786 9.85702 2.64298C10.4821 3.2681 10.8333 4.11594 10.8333 5H4.16667C4.16667 4.11594 4.51786 3.2681 5.14298 2.64298C5.7681 2.01786 6.61594 1.66667 7.5 1.66667ZM9.16667 10C9.16666 10.2926 9.08965 10.58 8.94337 10.8333C8.79709 11.0867 8.58669 11.2971 8.33333 11.4433V12.5C8.33333 12.721 8.24554 12.933 8.08926 13.0893C7.93297 13.2455 7.72101 13.3333 7.5 13.3333C7.27899 13.3333 7.06702 13.2455 6.91074 13.0893C6.75446 12.933 6.66667 12.721 6.66667 12.5V11.4433C6.34895 11.2599 6.10065 10.9767 5.96026 10.6378C5.81987 10.2988 5.79524 9.923 5.8902 9.56863C5.98515 9.21425 6.19439 8.90111 6.48544 8.67776C6.7765 8.45442 7.13312 8.33335 7.5 8.33333C7.94203 8.33333 8.36595 8.50893 8.67851 8.82149C8.99107 9.13405 9.16667 9.55797 9.16667 10Z" fill="var(--fill-0, #FF975D)"/>
</g>
</svg>
