<svg preserveAspectRatio="none" width="100%" height="100%" overflow="visible" style="display: block;" viewBox="0 0 16 15.7143" fill="none" xmlns="http://www.w3.org/2000/svg">
<g id="si:lock-line">
<rect width="16" height="15.7143" rx="7.85714" fill="var(--fill-0, #333333)"/>
<path id="Vector" d="M6.28571 7V5.71429C6.28571 4.76714 7.05286 4 8 4C8.94714 4 9.71429 4.76714 9.71429 5.71429V7M8 9.14286C8.11366 9.14286 8.22267 9.0977 8.30305 9.01733C8.38342 8.93696 8.42857 8.82795 8.42857 8.71429C8.42857 8.60062 8.38342 8.49161 8.30305 8.41124C8.22267 8.33087 8.11366 8.28571 8 8.28571C7.88634 8.28571 7.77733 8.33087 7.69695 8.41124C7.61658 8.49161 7.57143 8.60062 7.57143 8.71429C7.57143 8.82795 7.61658 8.93696 7.69695 9.01733C7.77733 9.0977 7.88634 9.14286 8 9.14286ZM8 9.14286V10.4286M5.68571 7H10.3143C10.6914 7 11 7.30857 11 7.68571V10.6857C11 11.2514 10.5371 11.7143 9.97143 11.7143H6.02857C5.46286 11.7143 5 11.2514 5 10.6857V7.68571C5 7.30857 5.30857 7 5.68571 7Z" stroke="var(--stroke-0, white)" stroke-width="0.75" stroke-miterlimit="10" stroke-linecap="round" stroke-linejoin="round"/>
</g>
</svg>
