<svg preserveAspectRatio="none" width="100%" height="100%" overflow="visible" style="display: block;" viewBox="0 0 24 24" fill="none" xmlns="http://www.w3.org/2000/svg">
<g id="typcn:minus" clip-path="url(#clip0_0_70)">
<g id="Vector" filter="url(#filter0_d_0_70)">
<path d="M18 11H6C5.46957 11 4.96086 11.2107 4.58579 11.5858C4.21071 11.9609 4 12.4696 4 13C4 13.5304 4.21071 14.0391 4.58579 14.4142C4.96086 14.7893 5.46957 15 6 15H18C18.5304 15 19.0391 14.7893 19.4142 14.4142C19.7893 14.0391 20 13.5304 20 13C20 12.4696 19.7893 11.9609 19.4142 11.5858C19.0391 11.2107 18.5304 11 18 11Z" fill="var(--fill-0, white)"/>
</g>
</g>
<defs>
<filter id="filter0_d_0_70" x="-4" y="3" width="32" height="20" filterUnits="userSpaceOnUse" color-interpolation-filters="sRGB">
<feFlood flood-opacity="0" result="BackgroundImageFix"/>
<feColorMatrix in="SourceAlpha" type="matrix" values="0 0 0 0 0 0 0 0 0 0 0 0 0 0 0 0 0 0 127 0" result="hardAlpha"/>
<feOffset/>
<feGaussianBlur stdDeviation="4"/>
<feComposite in2="hardAlpha" operator="out"/>
<feColorMatrix type="matrix" values="0 0 0 0 1 0 0 0 0 1 0 0 0 0 1 0 0 0 0.4 0"/>
<feBlend mode="normal" in2="BackgroundImageFix" result="effect1_dropShadow_0_70"/>
<feBlend mode="normal" in="SourceGraphic" in2="effect1_dropShadow_0_70" result="shape"/>
</filter>
<clipPath id="clip0_0_70">
<rect width="24" height="24" fill="white"/>
</clipPath>
</defs>
</svg>
