<svg preserveAspectRatio="none" width="100%" height="100%" overflow="visible" style="display: block;" viewBox="0 0 14 15.3333" fill="none" xmlns="http://www.w3.org/2000/svg">
<g id="Mask group">
<mask id="mask0_0_244" style="mask-type:luminance" maskUnits="userSpaceOnUse" x="0" y="0" width="14" height="16">
<g id="Group">
<g id="Group_2">
<path id="Vector" d="M1 3.66667C1 2.95942 1.28095 2.28115 1.78105 1.78105C2.28115 1.28095 2.95942 1 3.66667 1H5.33333C5.51014 1 5.67971 1.07024 5.80474 1.19526C5.92976 1.32029 6 1.48986 6 1.66667V13C6 13.1768 5.92976 13.3464 5.80474 13.4714C5.67971 13.5964 5.51014 13.6667 5.33333 13.6667H3.66667C2.95942 13.6667 2.28115 13.3857 1.78105 12.8856C1.28095 12.3855 1 11.7072 1 11V3.66667ZM13 4.33333C13 3.62609 12.719 2.94781 12.219 2.44772C11.7189 1.94762 11.0406 1.66667 10.3333 1.66667H8.33333C8.15652 1.66667 7.98695 1.7369 7.86193 1.86193C7.7369 1.98695 7.66667 2.15652 7.66667 2.33333V13.6667C7.66667 13.8435 7.7369 14.013 7.86193 14.1381C7.98695 14.2631 8.15652 14.3333 8.33333 14.3333H10.3333C11.0406 14.3333 11.7189 14.0524 12.219 13.5523C12.719 13.0522 13 12.3739 13 11.6667V4.33333Z" fill="var(--fill-0, white)" stroke="var(--stroke-0, white)" stroke-width="2"/>
<path id="Vector_2" d="M4.33366 10.5003C4.33366 10.0401 3.96056 9.66699 3.50033 9.66699C3.04009 9.66699 2.66699 10.0401 2.66699 10.5003C2.66699 10.9606 3.04009 11.3337 3.50033 11.3337C3.96056 11.3337 4.33366 10.9606 4.33366 10.5003Z" fill="var(--fill-0, black)"/>
<path id="Vector_3" d="M11.1667 5.16634C11.1667 4.7061 10.7936 4.33301 10.3333 4.33301C9.8731 4.33301 9.5 4.7061 9.5 5.16634C9.5 5.62658 9.8731 5.99967 10.3333 5.99967C10.7936 5.99967 11.1667 5.62658 11.1667 5.16634Z" fill="var(--fill-0, black)"/>
<path id="Vector_4" d="M4 5.33301H3M10.3333 8.99967V10.9997M9.33333 9.99967H11.3333" stroke="var(--stroke-0, black)" stroke-width="2" stroke-linecap="round" stroke-linejoin="round"/>
</g>
</g>
</mask>
<g mask="url(#mask0_0_244)">
<path id="Vector_5" d="M-1 -0.333008H15V15.667H-1V-0.333008Z" fill="var(--fill-0, white)"/>
</g>
</g>
</svg>
