<svg preserveAspectRatio="none" width="100%" height="100%" overflow="visible" style="display: block;" viewBox="0 0 31.488 19.68" fill="none" xmlns="http://www.w3.org/2000/svg">
<g id="Paypal">
<path id="Rectangle 1" fill-rule="evenodd" clip-rule="evenodd" d="M29.1264 1.99057e-07C27.552 3.47637e-07 10.8832 -3.15507e-07 1.5744 1.99057e-07C0.7872 2.42571e-07 0 0.7872 0 1.5744V17.3184C-9.11184e-08 18.8928 0.7872 19.68 2.3616 19.68C11.1434 19.68 27.552 19.68 29.1264 19.68C30.7008 19.68 31.488 18.8928 31.488 17.3184V2.3616C31.488 0.7872 30.7008 1.99057e-07 29.1264 1.99057e-07Z" fill="var(--fill-0, #F6F6F6)"/>
<path id="pal" fill-rule="evenodd" clip-rule="evenodd" d="M29.8667 6.58398H29.0401C29.0396 6.58398 29.0392 6.58414 29.0389 6.58414L29.0384 6.58398C28.8492 6.58398 28.6572 6.72511 28.6036 6.90465C28.6014 6.91191 28.5977 6.91887 28.596 6.92643C28.596 6.92643 28.5762 7.01401 28.542 7.16541L27.4066 12.1765C27.3803 12.2898 27.3628 12.3636 27.3575 12.3829L27.3596 12.3856C27.3203 12.5607 27.4285 12.7056 27.606 12.7218L27.6084 12.7251H28.4664C28.6544 12.7251 28.8451 12.5854 28.9004 12.4081C28.9031 12.3995 28.9073 12.3915 28.9093 12.3829L30.1479 6.92613L30.1461 6.92552C30.1882 6.73887 30.0647 6.58398 29.8667 6.58398ZM25.6267 11.509C25.5121 11.5793 25.3909 11.6395 25.264 11.6908C25.0934 11.7578 24.9317 11.7929 24.7821 11.7929C24.5525 11.7929 24.376 11.7613 24.2567 11.6937C24.1372 11.6296 24.0746 11.5181 24.0766 11.3585C24.0766 11.1743 24.1203 11.0313 24.2107 10.9193C24.3017 10.8114 24.437 10.7246 24.6048 10.6598C24.7717 10.6048 24.9769 10.5594 25.2138 10.5269C25.4245 10.501 25.841 10.4543 25.8942 10.454C25.9475 10.4535 25.9829 10.4249 25.9592 10.5632C25.9486 10.6232 25.8284 11.1039 25.7732 11.3225C25.7572 11.388 25.6677 11.4834 25.6267 11.509C25.6677 11.4834 25.6267 11.509 25.6267 11.509ZM27.2613 8.13054C26.9106 7.93995 26.3619 7.8436 25.611 7.8436C25.2397 7.8436 24.8666 7.87264 24.4922 7.92921C24.2174 7.97021 24.1891 7.97701 24.0184 8.01316C23.6671 8.08758 23.6129 8.43002 23.6129 8.43002L23.5001 8.88168C23.4361 9.17058 23.6051 9.15863 23.6805 9.13624C23.8338 9.09117 23.9169 9.0464 24.2298 8.97742C24.5288 8.91132 24.8448 8.86186 25.097 8.86383C25.4667 8.86383 25.7479 8.90331 25.9348 8.97924C26.1218 9.05865 26.2144 9.19387 26.2144 9.38733C26.215 9.43331 26.2163 9.47672 26.1992 9.51469C26.1838 9.55008 26.1543 9.58426 26.0659 9.59591C25.5382 9.62646 25.1594 9.67335 24.7033 9.73809C24.2532 9.7998 23.8594 9.90553 23.5302 10.0519C23.1793 10.2035 22.9167 10.4063 22.7358 10.6633C22.5596 10.9215 22.471 11.2342 22.4706 11.6025C22.4706 11.9505 22.599 12.2344 22.8476 12.4548C23.0991 12.6723 23.4263 12.78 23.8221 12.78C24.0695 12.7783 24.263 12.761 24.4018 12.7272C24.5391 12.6935 24.6889 12.6455 24.847 12.5788C24.9652 12.5307 25.0928 12.4612 25.2275 12.3739C25.3623 12.2863 25.4557 12.2241 25.5755 12.1478L25.5798 12.155L25.5461 12.2998C25.5459 12.3011 25.5439 12.3019 25.5439 12.3033L25.545 12.306C25.5065 12.4804 25.6141 12.6254 25.7916 12.6425L25.7937 12.6455H25.8094L25.81 12.6463C25.9278 12.6463 26.332 12.6461 26.5209 12.6455H26.6528C26.6615 12.6455 26.6625 12.643 26.6659 12.641C26.847 12.6194 27.0207 12.4757 27.0616 12.3033L27.7363 9.46795C27.7518 9.40124 27.7641 9.32425 27.7714 9.23562C27.7798 9.14607 27.7897 9.07241 27.7868 9.01917C27.7883 8.61789 27.6112 8.32127 27.2613 8.13054ZM23.1985 7.48472C23.0834 7.26661 22.9096 7.091 22.6897 6.95426C22.4643 6.81783 22.1965 6.72269 21.8864 6.66718C21.5797 6.61484 21.2151 6.58489 20.7997 6.58398L18.8668 6.58489C18.6678 6.58822 18.4725 6.74038 18.4265 6.92779L17.127 12.4338C17.0796 12.6209 17.2089 12.7769 17.4043 12.7758L18.3318 12.7742C18.5284 12.7758 18.7289 12.6209 18.7753 12.4338L19.0888 11.0976C19.1328 10.9104 19.3327 10.7535 19.5326 10.7562H19.7963C20.9276 10.7562 21.8047 10.53 22.4328 10.0795C23.0593 9.62681 23.3747 9.03298 23.3747 8.29439C23.3727 7.97191 23.3163 7.70026 23.1985 7.48472ZM21.2044 9.28558C20.9276 9.48161 20.539 9.57992 20.0391 9.57992H19.8092C19.6103 9.58219 19.4818 9.42564 19.5291 9.23793L19.8062 8.06932C19.8475 7.88449 20.0494 7.72718 20.2454 7.72869L20.5491 7.72718C20.9036 7.72869 21.1688 7.78647 21.352 7.90128C21.532 8.01744 21.6194 8.19759 21.6207 8.43763C21.6215 8.80352 21.4825 9.08501 21.2044 9.28558Z" fill="var(--fill-0, #306FC5)"/>
<path id="pay" fill-rule="evenodd" clip-rule="evenodd" d="M16.6942 7.84363C16.5182 7.84363 16.2873 7.98314 16.1781 8.15175C16.1781 8.15175 15.0008 10.1288 14.8851 10.3263C14.8223 10.4325 14.7586 10.365 14.748 10.3255C14.7394 10.2775 14.3831 8.16474 14.3831 8.16474C14.343 7.99464 14.1617 7.84864 13.9348 7.84931L13.2007 7.85039C13.0237 7.85039 12.9133 7.98923 12.9527 8.15703C12.9527 8.15703 13.5139 11.2726 13.6233 12.0054C13.6779 12.4106 13.6176 12.4825 13.6176 12.4825L12.8901 13.725C12.7836 13.8935 12.8419 14.0315 13.0181 14.0315L13.8688 14.0308C14.0449 14.0308 14.2782 13.8935 14.3831 13.7247L17.6558 8.3029C17.6558 8.3029 17.9689 7.8397 17.6802 7.84363C17.4833 7.84633 16.6942 7.84363 16.6942 7.84363ZM10.5498 11.509C10.4351 11.5793 10.3141 11.6392 10.1872 11.6907C10.0166 11.7574 9.85412 11.7928 9.70498 11.7928C9.47599 11.7928 9.29905 11.761 9.17958 11.6937C9.06027 11.6294 8.99735 11.5179 8.99937 11.3582C8.99937 11.1744 9.04349 11.031 9.13375 10.9191C9.22494 10.8111 9.35963 10.7241 9.52742 10.6595C9.69473 10.6042 9.90057 10.5594 10.1367 10.5269C10.3474 10.501 10.7643 10.4544 10.8175 10.4537C10.8703 10.4535 10.9059 10.4246 10.8821 10.5629C10.8718 10.6229 10.7514 11.1039 10.6963 11.3224C10.6797 11.3881 10.5902 11.4836 10.5498 11.509C10.5902 11.4836 10.5498 11.509 10.5498 11.509ZM12.1844 8.13039C11.8336 7.9398 11.2851 7.8436 10.5343 7.8436C10.1628 7.8436 9.78981 7.87234 9.41525 7.92906C9.13997 7.96975 9.11231 7.97671 8.94142 8.01286C8.59002 8.08758 8.53595 8.42972 8.53595 8.42972L8.42317 8.88168C8.35932 9.17042 8.5285 9.15848 8.60353 9.13609C8.75655 9.09102 8.84013 9.04639 9.15302 8.97712C9.4516 8.91132 9.76806 8.86201 10.0199 8.86368C10.3899 8.86368 10.6708 8.903 10.8577 8.97893C11.0449 9.05834 11.137 9.19387 11.137 9.38718C11.1383 9.43316 11.1392 9.47672 11.1226 9.51438C11.1069 9.55008 11.0771 9.58411 10.9887 9.59561C10.4616 9.62661 10.083 9.67335 9.62607 9.73809C9.17601 9.7998 8.78234 9.90553 8.45299 10.0518C8.10205 10.2034 7.83982 10.4065 7.65914 10.6633C7.48235 10.9214 7.39395 11.234 7.39364 11.6025C7.39364 11.9504 7.52228 12.2344 7.77053 12.4547C8.0222 12.6722 8.34906 12.78 8.7449 12.78C8.99238 12.7783 9.18579 12.7606 9.32499 12.7272C9.46217 12.6932 9.61208 12.6455 9.76961 12.5788C9.8883 12.5307 10.0155 12.4609 10.1504 12.3737C10.2849 12.2863 10.3788 12.2241 10.499 12.1478L10.5027 12.1549L10.469 12.2995C10.4687 12.3008 10.4668 12.3017 10.4668 12.3034L10.4682 12.3057C10.4297 12.4805 10.5371 12.6254 10.7146 12.6422L10.7168 12.6455H10.7323L10.7328 12.6466C10.8509 12.6466 11.2553 12.646 11.4437 12.6455H11.5757C11.5846 12.6455 11.5858 12.6427 11.5886 12.6409C11.7702 12.6186 11.9433 12.4752 11.9846 12.3034L12.6593 9.4678C12.6746 9.40124 12.687 9.32425 12.6938 9.23577C12.7028 9.14577 12.7126 9.07241 12.71 9.01932C12.7115 8.61773 12.5341 8.32112 12.1844 8.13039ZM7.96413 7.48472C7.84902 7.26661 7.67518 7.091 7.45535 6.95426C7.22994 6.81783 6.96211 6.72269 6.65202 6.66718C6.34536 6.61484 5.98074 6.58489 5.56533 6.58398L3.63243 6.58489C3.43342 6.58822 3.23814 6.74038 3.19216 6.92779L1.89263 12.4338C1.84525 12.6209 1.9745 12.7769 2.16994 12.7758L3.09739 12.7742C3.29407 12.7758 3.49447 12.6209 3.54093 12.4338L3.85443 11.0976C3.89839 10.9104 4.09833 10.7535 4.29827 10.7562H4.5619C5.69318 10.7562 6.57031 10.53 7.1984 10.0795C7.82494 9.62681 8.1403 9.03298 8.1403 8.29439C8.13829 7.97191 8.08189 7.70026 7.96413 7.48472ZM5.97002 9.28558C5.69319 9.4816 5.30465 9.57992 4.80472 9.57992H4.5748C4.37595 9.58219 4.24747 9.42564 4.2947 9.23793L4.57185 8.06932C4.61317 7.88449 4.81497 7.72718 5.01103 7.72869L5.31475 7.72718C5.66926 7.72869 5.93445 7.78647 6.11761 7.90128C6.29766 8.01744 6.38497 8.19759 6.38637 8.43763C6.38715 8.80352 6.24811 9.08501 5.97002 9.28558Z" fill="var(--fill-0, #265697)"/>
</g>
</svg>
