<svg preserveAspectRatio="none" width="100%" height="100%" overflow="visible" style="display: block;" viewBox="0 0 31.488 19.68" fill="none" xmlns="http://www.w3.org/2000/svg">
<g id="&#208;&#161;&#208;&#187;&#208;&#190;&#208;&#185; 1">
<path id="Rectangle 1" fill-rule="evenodd" clip-rule="evenodd" d="M29.1264 0H1.5744C0.7872 0 0 0.7872 0 1.5744V17.3184C0 18.8928 0.7872 19.68 2.3616 19.68H29.1264C30.7008 19.68 31.488 18.8928 31.488 17.3184V2.3616C31.488 0.7872 30.7008 0 29.1264 0Z" fill="var(--fill-0, #6D1ED4)"/>
<g id="Group">
<path id="Vector" d="M7.0296 6.46096L5.04979 6.44128V7.7559H8.33045L4.92188 12.1229V13.2348H7.0296V14.514H8.29503V13.2348H10.4441C10.4569 13.179 10.4553 13.1208 10.4395 13.0657C10.4236 13.0106 10.3941 12.9605 10.3536 12.9199C10.1618 12.7073 10.0009 12.4688 9.87533 12.2115C9.81235 12.0875 9.76315 11.9399 9.74544 11.9281C9.32232 11.9084 6.88594 11.9143 6.88791 11.8985L10.2984 7.50203V6.46096H8.29503V5.16602H7.0296V6.46096ZM16.1611 5.84891C16.1316 5.86072 16.1218 6.5259 16.1218 9.04691C16.1218 12.4515 16.1218 12.3925 16.2694 12.6877C16.4598 12.9876 16.7612 13.1998 17.1077 13.2781C17.4515 13.3343 17.8018 13.3383 18.1468 13.2899C18.444 13.2269 18.5011 13.1364 18.383 12.8963C18.2908 12.6936 18.2246 12.48 18.1862 12.2607C18.1547 12.054 18.1114 12.0206 17.8595 12.0265C17.7738 12.033 17.6876 12.0271 17.6037 12.0087C17.4797 11.93 17.4797 11.9084 17.4797 8.85995C17.4797 6.89195 17.4797 5.90795 17.4502 5.8745C17.4206 5.84104 17.3793 5.81742 16.8086 5.82136C16.4721 5.8312 16.1788 5.83907 16.1611 5.84891ZM18.9163 5.85875C18.877 5.88237 18.8711 6.2681 18.8711 9.02526C18.8711 11.9969 18.8711 12.1741 18.9281 12.3866C18.9734 12.5821 19.0687 12.7625 19.2046 12.9102C19.3405 13.0578 19.5124 13.1676 19.7035 13.2289C19.8909 13.3035 20.0928 13.3345 20.2939 13.3194C20.7485 13.3312 20.9807 13.2978 21.213 13.1797C21.4452 13.0616 21.4472 12.9829 21.2523 12.7054C21.1736 12.5913 21.0555 12.3945 20.9867 12.2705L20.8627 12.0461H20.6423C20.3687 12.0461 20.3411 12.0284 20.29 11.8985C20.2526 11.8119 20.2447 11.3632 20.2447 8.87373C20.2447 6.90573 20.2447 5.92173 20.2152 5.88827C20.1857 5.85482 20.1463 5.8312 19.5736 5.8312C19.3553 5.82422 19.1369 5.83475 18.9203 5.86269L18.9163 5.85875Z" fill="var(--fill-0, #F6F6F6)"/>
<path id="Vector_2" d="M12.3735 7.74016C12.3578 7.74016 12.2397 7.77361 12.1177 7.7992C11.7257 7.89525 11.3625 8.08387 11.0584 8.34924C10.7543 8.61462 10.5183 8.94901 10.3701 9.3244C10.2161 9.71094 10.1418 10.1246 10.1517 10.5406C10.1237 11.1179 10.2779 11.6893 10.5925 12.1741C10.9504 12.7071 11.4942 13.0875 12.1177 13.2407C12.393 13.3086 12.6774 13.3319 12.96 13.3096C13.2385 13.3311 13.5187 13.3092 13.7905 13.2447C14.2935 13.1142 14.7562 12.8606 15.1366 12.5067C15.3688 12.2902 15.3649 12.2292 15.1366 12.0481C14.9969 11.9363 14.8653 11.8146 14.743 11.684C14.5994 11.5305 14.5108 11.4577 14.4655 11.4577C14.3763 11.4861 14.2967 11.5385 14.2353 11.6092C13.8863 11.9103 13.4338 12.0635 12.9738 12.0363C12.4857 12.0363 12.1295 11.9064 11.9032 11.6427C11.7673 11.4681 11.6694 11.267 11.6159 11.0523L11.5962 10.9401H13.4737C14.5049 10.9401 15.3688 10.9283 15.3905 10.9126C15.4909 10.8496 15.5145 10.4147 15.4417 9.93841C15.2704 8.79894 14.5895 8.03536 13.5209 7.77361C13.297 7.72335 13.0672 7.70415 12.838 7.71654C12.5959 7.71654 12.3893 7.71654 12.3716 7.72835L12.3735 7.74016ZM13.1863 8.90128C13.4174 8.95871 13.628 9.07932 13.7944 9.24961C13.9213 9.40287 14.0127 9.58231 14.0621 9.77507L14.0837 9.86953H11.6296L11.6493 9.77507C11.7029 9.56619 11.8127 9.37597 11.9667 9.22506C12.1208 9.07414 12.3132 8.96829 12.5231 8.91899C12.7406 8.86744 12.9664 8.86141 13.1863 8.90128V8.90128ZM23.3274 7.76771C22.2588 8.00387 21.5366 8.75171 21.3102 9.86953C21.175 10.5303 21.2436 11.2166 21.507 11.8375C21.6755 12.2087 21.9324 12.5329 22.2552 12.7816C22.5781 13.0304 22.9571 13.1961 23.3589 13.2643C23.6259 13.3212 23.8997 13.3384 24.1717 13.3155C24.4172 13.3178 24.6622 13.2921 24.9018 13.2387C25.3925 13.1148 25.844 12.8691 26.2145 12.5244C26.4782 12.2685 26.4782 12.2567 26.1928 12.0186C26.0519 11.9025 25.9203 11.7755 25.7992 11.6388C25.5847 11.4144 25.5395 11.4144 25.3191 11.6112C25.1472 11.7625 24.947 11.8781 24.7301 11.9514C24.5133 12.0247 24.284 12.0542 24.0556 12.0383C23.29 12.0383 22.8453 11.7076 22.6996 11.0543L22.68 10.9775H26.4939C26.6238 10.8831 26.5746 9.89512 26.4192 9.43854C26.3683 9.30382 26.3091 9.17237 26.242 9.04494C26.0763 8.71746 25.8365 8.43312 25.5417 8.21448C25.2469 7.99585 24.9052 7.84894 24.5437 7.78542C24.1366 7.73327 23.7246 7.73327 23.3176 7.78542L23.3274 7.76771ZM24.2662 8.90128C24.4761 8.94841 24.6709 9.04717 24.833 9.1886C24.9898 9.35997 25.1032 9.5665 25.1636 9.79081V9.86166H22.7095L22.7311 9.779C22.8182 9.46114 23.0274 9.19056 23.313 9.02617C23.5987 8.86178 23.9377 8.81689 24.2563 8.90128H24.2662Z" fill="var(--fill-0, #F6F6F6)"/>
</g>
</g>
</svg>
