<svg preserveAspectRatio="none" width="100%" height="100%" overflow="visible" style="display: block;" viewBox="0 0 31.488 19.6801" fill="none" xmlns="http://www.w3.org/2000/svg">
<g id="Visa">
<path id="Rectangle 20" d="M31.488 1.77148H0V17.5155H31.488V1.77148Z" fill="var(--fill-0, #F6F6F6)"/>
<path id="Rectangle 1" fill-rule="evenodd" clip-rule="evenodd" d="M29.1264 1.99057e-07C27.552 3.47637e-07 10.8832 -3.15506e-07 1.5744 1.99057e-07C0.7872 2.42571e-07 0 0.7872 0 1.5744V3.936H31.488C31.488 3.936 31.488 7.59096 31.488 2.3616C31.488 0.7872 30.7008 1.99057e-07 29.1264 1.99057e-07Z" fill="var(--fill-0, #265697)"/>
<path id="Rectangle 1_2" fill-rule="evenodd" clip-rule="evenodd" d="M0 15.7441C0 15.7441 1.90182e-07 15.7441 0 17.3185C-9.10869e-08 18.8929 0.7872 19.6801 2.3616 19.6801C11.1434 19.6801 27.552 19.6801 29.1264 19.6801C30.7008 19.6801 31.488 18.8929 31.488 17.3185V15.7441H0Z" fill="var(--fill-0, #D97B16)"/>
<path id="Shape" fill-rule="evenodd" clip-rule="evenodd" d="M21.9652 5.86146C21.5238 5.69229 20.8324 5.51074 19.9688 5.51074C17.7678 5.51074 16.2174 6.64335 16.2042 8.2665C16.1918 9.46638 17.311 10.1357 18.1559 10.5352C19.023 10.9445 19.3144 11.2055 19.3103 11.571C19.3048 12.1307 18.6179 12.3864 17.9777 12.3864C17.0861 12.3864 16.6125 12.2599 15.8809 11.9481L15.5939 11.8154L15.2813 13.6847C15.8015 13.9178 16.7636 14.1198 17.7625 14.1302C20.104 14.1302 21.624 13.0106 21.6413 11.2773C21.6497 10.3273 21.0562 9.60445 19.7711 9.0085C18.9925 8.62221 18.5157 8.36444 18.5208 7.97328C18.5208 7.62619 18.9244 7.25504 19.7964 7.25504C20.5248 7.24348 21.0524 7.40578 21.4636 7.57496L21.6632 7.67132L21.9652 5.86146Z" fill="var(--fill-0, #265697)"/>
<path id="Shape_2" fill-rule="evenodd" clip-rule="evenodd" d="M27.6762 5.66406H25.955C25.4218 5.66406 25.0228 5.81276 24.7886 6.35654L21.4805 14.0092H23.8195C23.8195 14.0092 24.2019 12.9802 24.2884 12.7543C24.544 12.7543 26.8163 12.7579 27.1411 12.7579C27.2078 13.0502 27.4122 14.0092 27.4122 14.0092H29.4791L27.6762 5.66406ZM24.9295 11.0463C25.1137 10.5652 25.8169 8.71202 25.8169 8.71202C25.8038 8.73424 25.9998 8.22855 26.1123 7.91503L26.2628 8.63498C26.2628 8.63498 26.6893 10.6283 26.7785 11.0462L24.9295 11.0463Z" fill="var(--fill-0, #265697)"/>
<path id="Shape_3" fill-rule="evenodd" clip-rule="evenodd" d="M11.6602 14.0057L13.0528 5.65527H15.2803L13.8867 14.0057H11.6602Z" fill="var(--fill-0, #265697)"/>
<path id="Shape_4" fill-rule="evenodd" clip-rule="evenodd" d="M9.79105 5.66113L7.61027 11.3555L7.37792 10.1983C6.97194 8.86431 5.70705 7.41899 4.29297 6.69542L6.28702 13.9983L8.64376 13.9955L12.1505 5.66113H9.79105Z" fill="var(--fill-0, #265697)"/>
<path id="Shape_5" fill-rule="evenodd" clip-rule="evenodd" d="M5.589 5.65625H1.99718L1.96875 5.82999C4.76315 6.52119 6.61218 8.19156 7.37971 10.1986L6.5987 6.36123C6.46386 5.83246 6.07279 5.67468 5.589 5.65625Z" fill="var(--fill-0, #D97B16)"/>
</g>
</svg>
