<svg preserveAspectRatio="none" width="100%" height="100%" overflow="visible" style="display: block;" viewBox="0 0 31.488 19.68" fill="none" xmlns="http://www.w3.org/2000/svg">
<g id="&#208;&#161;&#208;&#187;&#208;&#190;&#208;&#185; 1">
<path id="Rectangle 1" fill-rule="evenodd" clip-rule="evenodd" d="M29.1264 0H1.5744C0.7872 0 0 0.7872 0 1.5744V17.3184C0 18.8928 0.7872 19.68 2.3616 19.68H29.1264C30.7008 19.68 31.488 18.8928 31.488 17.3184V2.3616C31.488 0.7872 30.7008 0 29.1264 0Z" fill="var(--fill-0, #3D95CE)"/>
<path id="Vector" d="M7.15874 7.40723C7.332 7.69333 7.4188 8.02345 7.40868 8.35777C7.40868 9.53857 6.39909 11.0795 5.57844 12.1599H3.70293L2.95312 7.67487L4.59247 7.5194L4.98607 10.7154C5.35802 10.1113 5.81656 9.16071 5.81656 8.51324C5.82564 8.2424 5.77245 7.97309 5.66109 7.72604L7.15874 7.40723ZM9.28418 9.37523C9.58725 9.37523 10.3469 9.23747 10.3469 8.80647C10.349 8.76424 10.3421 8.72204 10.3265 8.6827C10.311 8.64336 10.2873 8.60779 10.2569 8.57835C10.2266 8.54892 10.1903 8.52631 10.1505 8.51202C10.1107 8.49774 10.0683 8.49212 10.0261 8.49553C9.72501 8.49553 9.32748 8.85764 9.28418 9.37523V9.37523ZM9.25072 10.2333C9.25072 10.7607 9.54396 10.9673 9.93165 10.9673C10.4075 10.9578 10.8735 10.83 11.2876 10.5954L11.0908 11.9435C10.6137 12.1489 10.0987 12.2515 9.57938 12.2446C8.15848 12.2446 7.6468 11.3806 7.6468 10.3022C7.6468 8.90291 8.47533 7.4151 10.1855 7.4151C11.1223 7.4151 11.6517 7.94252 11.6517 8.67855C11.6517 9.85935 10.1324 10.2234 9.25269 10.2333H9.25072ZM16.3847 8.46207C16.3818 8.65977 16.3654 8.85703 16.3355 9.05247L15.8396 12.1599H14.2435L14.6922 9.30831L14.7257 8.98753C14.7257 8.78089 14.5978 8.72972 14.4403 8.72972C14.2468 8.74227 14.0585 8.79809 13.8893 8.89307L13.3835 12.1619H11.7737L12.5078 7.50563H13.8991L13.9169 7.87167C14.3187 7.58347 14.7999 7.42673 15.2945 7.42297C16.1053 7.42297 16.3926 7.83625 16.3926 8.46011L16.3847 8.46207ZM21.1276 7.93465C21.5497 7.6006 22.0732 7.42077 22.6115 7.42494C23.4321 7.42494 23.7214 7.84019 23.7214 8.46207C23.7172 8.65986 23.6995 8.85712 23.6683 9.05247L23.1763 12.1639H21.5724L22.027 9.24927L22.0545 9.01705C22.0545 8.78286 21.9246 8.73169 21.7692 8.73169C21.5772 8.74306 21.3906 8.79899 21.224 8.89503L20.7124 12.1639H19.1143L19.5689 9.24927L19.5985 9.01508C19.5985 8.78286 19.4686 8.72972 19.3131 8.72972C19.1186 8.74232 18.9296 8.79884 18.7601 8.89503L18.2504 12.1659H16.6445L17.3786 7.50759H18.7562L18.7995 7.90119C19.1794 7.60481 19.646 7.44099 20.1279 7.43478C20.3228 7.42189 20.5175 7.46257 20.6909 7.55241C20.8644 7.64226 21.0099 7.77785 21.1119 7.94449L21.1276 7.93465ZM26.8958 9.2906C26.8958 8.91078 26.8013 8.651 26.516 8.651C25.8862 8.651 25.7563 9.76489 25.7563 10.3356C25.7563 10.7686 25.8784 11.0362 26.1617 11.0362C26.7521 11.0362 26.8958 9.85542 26.8958 9.2906V9.2906ZM24.1406 10.2746C24.1406 8.80647 24.918 7.43281 26.699 7.43281C28.0471 7.43281 28.5391 8.22001 28.5391 9.32603C28.5391 10.7764 27.7696 12.278 25.9394 12.278C24.5834 12.278 24.1347 11.3885 24.1347 10.2726L24.1406 10.2746Z" fill="var(--fill-0, #F6F6F6)"/>
</g>
</svg>
