<svg preserveAspectRatio="none" width="100%" height="100%" overflow="visible" style="display: block;" viewBox="0 0 31.488 19.68" fill="none" xmlns="http://www.w3.org/2000/svg">
<g id="Master">
<path id="Rectangle 1" fill-rule="evenodd" clip-rule="evenodd" d="M29.1264 1.99057e-07C27.552 3.47637e-07 10.8832 -3.15507e-07 1.5744 1.99057e-07C0.7872 2.42571e-07 0 0.7872 0 1.5744V17.3184C-9.11184e-08 18.8928 0.7872 19.68 2.3616 19.68C11.1434 19.68 27.552 19.68 29.1264 19.68C30.7008 19.68 31.488 18.8928 31.488 17.3184V2.3616C31.488 0.7872 30.7008 1.99057e-07 29.1264 1.99057e-07Z" fill="var(--fill-0, #265697)"/>
<path id="path2268" fill-rule="evenodd" clip-rule="evenodd" d="M29.431 9.93876C29.4323 14.5119 25.7655 18.22 21.241 18.2212C16.7165 18.2223 13.0481 14.5162 13.0469 9.94296V9.93876C13.0457 5.36566 16.7125 1.65747 21.2368 1.65625C25.7613 1.65504 29.4298 5.36136 29.431 9.93455V9.93876C29.431 9.93726 29.431 9.93876 29.431 9.93876Z" fill="var(--fill-0, #DFAC16)"/>
<path id="path1350" fill-rule="evenodd" clip-rule="evenodd" d="M10.1979 1.65824C5.70027 1.68712 2.05859 5.38569 2.05859 9.9386C2.05859 14.5093 5.72865 18.2189 10.2507 18.2189C12.373 18.2189 14.3076 17.4013 15.7633 16.0614C15.7632 16.0614 15.763 16.0612 15.7627 16.0611H15.7644C16.0625 15.7865 16.3405 15.4902 16.5961 15.1744H14.9177C14.6936 14.9007 14.4899 14.6156 14.3069 14.3214H17.2016C17.3776 14.0367 17.537 13.741 17.6785 13.4348H13.829C13.6978 13.1505 13.5839 12.8597 13.4867 12.5648H18.0212C18.2945 11.7394 18.4428 10.8564 18.4428 9.93851C18.4428 9.32995 18.3775 8.73662 18.254 8.16534H13.2462C13.3082 7.87134 13.3865 7.58089 13.4799 7.29549H18.0161C17.9147 6.99177 17.7969 6.6958 17.6629 6.4089H13.8286C13.9669 6.11023 14.1236 5.81968 14.2986 5.53914H17.1911C16.9986 5.22916 16.7856 4.93301 16.5553 4.65246H14.9426C15.1919 4.35584 15.4664 4.07651 15.7644 3.81606C14.3086 2.47595 12.3735 1.65824 10.2507 1.65824C10.233 1.65824 10.2156 1.65815 10.1979 1.65824C10.2156 1.65815 10.1979 1.65824 10.1979 1.65824Z" fill="var(--fill-0, #BF3126)"/>
<path id="path4157" fill-rule="evenodd" clip-rule="evenodd" d="M13.1965 12.0469L13.3057 11.2975C13.2461 11.2975 13.1583 11.3233 13.0809 11.3233C12.7773 11.3233 12.7438 11.1601 12.7632 11.0395L13.0084 9.51042H13.4699L13.5813 8.6815H13.1462L13.2348 8.16602H12.3625C12.3433 8.18545 11.8477 11.0652 11.8477 11.4158C11.8477 11.935 12.136 12.1662 12.5426 12.1624C12.8611 12.1597 13.109 12.0706 13.1965 12.0469C13.109 12.0706 13.1965 12.0469 13.1965 12.0469Z" fill="var(--fill-0, white)"/>
<path id="path4155" fill-rule="evenodd" clip-rule="evenodd" d="M13.4727 10.6178C13.4727 11.8638 14.2863 12.1598 14.9794 12.1598C15.6192 12.1598 15.9007 12.0152 15.9007 12.0152L16.0544 11.1649C16.0544 11.1649 15.5677 11.3816 15.1282 11.3816C14.1916 11.3816 14.3556 10.6758 14.3556 10.6758H16.1282C16.1282 10.6758 16.2427 10.1045 16.2427 9.87172C16.2427 9.29082 15.9566 8.58301 14.9989 8.58301C14.1219 8.58319 13.4727 9.53837 13.4727 10.6178C13.4727 9.53837 13.4727 10.6178 13.4727 10.6178ZM15.0023 9.37259C15.4945 9.37259 15.4037 9.93171 15.4037 9.97695H14.4353C14.4353 9.91919 14.5268 9.37259 15.0023 9.37259C14.5268 9.37259 15.0023 9.37259 15.0023 9.37259Z" fill="var(--fill-0, white)"/>
<path id="path4151" fill-rule="evenodd" clip-rule="evenodd" d="M20.5243 12.046L20.6803 11.0848C20.6803 11.0848 20.2524 11.3017 19.9586 11.3017C19.3399 11.3017 19.0917 10.8242 19.0917 10.3112C19.0917 9.27037 19.6241 8.69779 20.2168 8.69779C20.6612 8.69779 21.0179 8.95002 21.0179 8.95002L21.1603 8.01615C21.1603 8.01615 20.6313 7.7998 20.1779 7.7998C19.171 7.7998 18.1914 8.68274 18.1914 10.341C18.1914 11.4405 18.7204 12.1667 19.7612 12.1667C20.0555 12.1668 20.5243 12.046 20.5243 12.046Z" fill="var(--fill-0, white)"/>
<path id="path4149" fill-rule="evenodd" clip-rule="evenodd" d="M8.39838 8.59668C7.80028 8.59668 7.34179 8.79097 7.34179 8.79097L7.21522 9.55046C7.21522 9.55046 7.59364 9.39504 8.16567 9.39504C8.49047 9.39504 8.72808 9.43196 8.72808 9.69876C8.72808 9.86081 8.69896 9.92062 8.69896 9.92062C8.69896 9.92062 8.44276 9.89894 8.32414 9.89894C7.56979 9.89894 6.77734 10.2243 6.77734 11.2054C6.77734 11.9784 7.29723 12.1558 7.61944 12.1558C8.23483 12.1558 8.50008 11.7522 8.51423 11.751L8.48548 12.0879H9.25351L9.59615 9.65989C9.59615 8.62986 8.70719 8.59668 8.39838 8.59668ZM8.58524 10.5736C8.60188 10.7219 8.49324 11.4171 7.96809 11.4171C7.69719 11.4171 7.62674 11.2079 7.62674 11.0842C7.62674 10.8429 7.75646 10.5532 8.39561 10.5532C8.54428 10.5534 8.56018 10.5695 8.58524 10.5736C8.56018 10.5695 8.58524 10.5736 8.58524 10.5736Z" fill="var(--fill-0, white)"/>
<path id="path4145" fill-rule="evenodd" clip-rule="evenodd" d="M10.4123 12.1385C10.6088 12.1385 11.732 12.189 11.732 11.0175C11.732 9.92237 10.6923 10.1387 10.6923 9.69874C10.6923 9.47968 10.8618 9.41072 11.1715 9.41072C11.2945 9.41072 11.7676 9.45025 11.7676 9.45025L11.8776 8.67179C11.8776 8.67188 11.5714 8.60254 11.0728 8.60254C10.4276 8.60254 9.77263 8.8629 9.77263 9.75369C9.77263 10.7631 10.8647 10.6618 10.8647 11.087C10.8647 11.3708 10.5596 11.3939 10.3245 11.3939C9.9176 11.3939 9.5512 11.2528 9.5499 11.2595L9.43359 12.0301C9.45467 12.0366 9.68064 12.1385 10.4123 12.1385C9.68064 12.1385 10.4123 12.1385 10.4123 12.1385Z" fill="var(--fill-0, white)"/>
<path id="path4139" fill-rule="evenodd" clip-rule="evenodd" d="M27.7497 7.89789L27.5615 9.07791C27.5615 9.07791 27.2332 8.61953 26.7192 8.61953C25.9201 8.61953 25.2539 9.59349 25.2539 10.7126C25.2539 11.435 25.6092 12.1428 26.3356 12.1428C26.858 12.1428 27.1477 11.7746 27.1477 11.7746L27.1093 12.089H27.9577L28.624 7.89648L27.7497 7.89789ZM27.3446 10.1987C27.3446 10.6644 27.1165 11.2864 26.6436 11.2864C26.3297 11.2864 26.1826 11.02 26.1826 10.602C26.1826 9.91852 26.4863 9.46752 26.8696 9.46752C27.1836 9.46742 27.3446 9.68545 27.3446 10.1987C27.3446 9.68545 27.3446 10.1987 27.3446 10.1987Z" fill="var(--fill-0, white)"/>
<path id="path4133" fill-rule="evenodd" clip-rule="evenodd" d="M3.67301 12.0927L4.20399 8.92746L4.28193 12.0927H4.8829L6.00393 8.92746L5.50735 12.0927H6.40029L7.08798 7.89453H5.70715L4.84721 10.4704L4.80246 7.89453H3.52961L2.83203 12.0927H3.67301Z" fill="var(--fill-0, white)"/>
<path id="path4131" fill-rule="evenodd" clip-rule="evenodd" d="M17.1145 12.099C17.3684 10.6396 17.4154 9.45466 18.0213 9.67156C18.1273 9.10673 18.2297 8.88824 18.3454 8.64919C18.3454 8.64919 18.2912 8.6377 18.1773 8.6377C17.7866 8.6377 17.4972 9.1771 17.4972 9.1771L17.575 8.68171H16.7629L16.2188 12.099H17.1145Z" fill="var(--fill-0, white)"/>
<path id="path4149 1" fill-rule="evenodd" clip-rule="evenodd" d="M22.5389 8.59668C21.9408 8.59668 21.4823 8.79097 21.4823 8.79097L21.3558 9.55046C21.3558 9.55046 21.7343 9.39504 22.3063 9.39504C22.6311 9.39504 22.8685 9.43196 22.8685 9.69876C22.8685 9.86081 22.8396 9.92062 22.8396 9.92062C22.8396 9.92062 22.5834 9.89894 22.4647 9.89894C21.7104 9.89894 20.918 10.2243 20.918 11.2054C20.918 11.9784 21.4378 12.1558 21.76 12.1558C22.3754 12.1558 22.6406 11.7522 22.6547 11.751L22.6261 12.0879H23.3941L23.7367 9.65989C23.7368 8.62986 22.8477 8.59668 22.5389 8.59668ZM22.726 10.5736C22.7427 10.7219 22.634 11.4171 22.1086 11.4171C21.8377 11.4171 21.7675 11.2079 21.7675 11.0842C21.7675 10.8429 21.8972 10.5532 22.5362 10.5532C22.6849 10.5534 22.7007 10.5695 22.726 10.5736C22.7007 10.5695 22.726 10.5736 22.726 10.5736Z" fill="var(--fill-0, white)"/>
<path id="path4131 1" fill-rule="evenodd" clip-rule="evenodd" d="M24.4386 12.099C24.6926 10.6396 24.7396 9.45466 25.3453 9.67156C25.4515 9.10673 25.554 8.88824 25.6697 8.64919C25.6697 8.64919 25.6154 8.6377 25.5015 8.6377C25.1108 8.6377 24.8215 9.1771 24.8215 9.1771L24.8992 8.68171H24.0871L23.543 12.099H24.4386Z" fill="var(--fill-0, white)"/>
</g>
</svg>
