<svg preserveAspectRatio="none" width="100%" height="100%" overflow="visible" style="display: block;" viewBox="0 0 31.488 19.68" fill="none" xmlns="http://www.w3.org/2000/svg">
<g id="&#208;&#161;&#208;&#187;&#208;&#190;&#208;&#185; 1">
<path id="Rectangle 1" fill-rule="evenodd" clip-rule="evenodd" d="M29.1264 0H1.5744C0.7872 0 0 0.7872 0 1.5744V17.3184C0 18.8928 0.7872 19.68 2.3616 19.68H29.1264C30.7008 19.68 31.488 18.8928 31.488 17.3184V2.3616C31.488 0.7872 30.7008 0 29.1264 0Z" fill="var(--fill-0, #F6F6F6)"/>
<g id="Group">
<path id="Vector" d="M15.1565 9.74138V12.2781H14.3516V6.01005H16.4868C16.7409 6.00569 16.9933 6.05141 17.2297 6.14461C17.466 6.2378 17.6817 6.37665 17.8644 6.55322C18.0463 6.72299 18.1913 6.92834 18.2905 7.15653C18.3896 7.38472 18.4408 7.63085 18.4408 7.87965C18.4408 8.12845 18.3896 8.37459 18.2905 8.60277C18.1913 8.83096 18.0463 9.03631 17.8644 9.20608C17.6814 9.38159 17.4655 9.51909 17.229 9.61063C16.9926 9.70217 16.7403 9.74594 16.4868 9.73941H15.1565V9.74138ZM15.1565 6.78938V8.96992H16.5065C16.7205 8.97342 16.9307 8.91389 17.1111 8.79875C17.2914 8.68361 17.4339 8.51795 17.5207 8.3224C17.6076 8.12685 17.635 7.91007 17.5995 7.69906C17.5641 7.48805 17.4673 7.29215 17.3213 7.13575L17.2996 7.1141C17.1991 7.00652 17.0771 6.9213 16.9414 6.864C16.8058 6.8067 16.6596 6.77859 16.5124 6.78151L15.1565 6.78938Z" fill="var(--fill-0, #5F6368)"/>
<path id="Vector_2" d="M20.3039 7.84972C20.8173 7.82137 21.322 7.99193 21.713 8.32598C21.8889 8.49526 22.0262 8.70053 22.1155 8.92775C22.2049 9.15497 22.2441 9.3988 22.2305 9.64257V12.2777H21.4552V11.6873H21.4197C21.2808 11.9148 21.0852 12.1023 20.8519 12.2314C20.6187 12.3604 20.3559 12.4266 20.0894 12.4234C19.6569 12.4357 19.2356 12.2855 18.9086 12.0022C18.7559 11.8735 18.6338 11.7124 18.5511 11.5306C18.4683 11.3489 18.4271 11.151 18.4303 10.9513C18.4238 10.7474 18.4661 10.545 18.5538 10.3608C18.6414 10.1766 18.7718 10.016 18.9341 9.89251C19.325 9.61349 19.7987 9.47479 20.2783 9.49891C20.6881 9.48333 21.0949 9.57418 21.4591 9.76262V9.57763C21.4615 9.43997 21.4329 9.30354 21.3753 9.17849C21.3178 9.05344 21.2327 8.94299 21.1265 8.85537C20.9114 8.66024 20.6296 8.55526 20.3393 8.56214C20.1301 8.56114 19.924 8.61336 19.7405 8.71388C19.5571 8.81441 19.4021 8.95994 19.2904 9.1368L18.5819 8.69006C18.965 8.12984 19.539 7.84972 20.3039 7.84972ZM19.2628 10.9651C19.2621 11.0675 19.2858 11.1686 19.332 11.26C19.3782 11.3514 19.4456 11.4304 19.5285 11.4905C19.7066 11.6307 19.9277 11.7051 20.1543 11.7011C20.4946 11.7011 20.8209 11.5659 21.0616 11.3252C21.1858 11.2141 21.2851 11.0779 21.353 10.9255C21.4208 10.7732 21.4556 10.6083 21.4552 10.4416C21.1494 10.2244 20.7786 10.1181 20.4042 10.1405C20.1137 10.1296 19.8274 10.2124 19.5875 10.3766C19.4874 10.4395 19.4047 10.5265 19.3469 10.6297C19.2892 10.7328 19.2582 10.8488 19.2569 10.967L19.2628 10.9651Z" fill="var(--fill-0, #5F6368)"/>
<path id="Vector_3" d="M26.6516 7.98927L23.9633 14.1688H23.1328L24.1306 12.004L22.3594 7.9873H23.2351L24.5124 11.0692H24.5301L25.7857 7.98927H26.6516Z" fill="var(--fill-0, #5F6368)"/>
<path id="Vector_4" d="M11.903 9.19395C11.9028 8.94857 11.8818 8.70366 11.8401 8.46185H8.44526V9.83945H10.3896C10.35 10.0611 10.2658 10.2725 10.1419 10.4606C10.0181 10.6487 9.85732 10.8096 9.66935 10.9337V11.835H10.8265C11.1803 11.4942 11.4588 11.0832 11.6442 10.6284C11.8296 10.1735 11.9178 9.6849 11.903 9.19395V9.19395Z" fill="var(--fill-0, #4285F4)"/>
<path id="Vector_5" d="M8.44424 12.7124C9.31977 12.736 10.1713 12.4249 10.8255 11.8426L9.6644 10.9432C9.38475 11.1216 9.06817 11.234 8.73864 11.2719C8.40911 11.3099 8.07527 11.2723 7.76239 11.1622C7.44952 11.052 7.16581 10.8721 6.93275 10.6361C6.69969 10.4 6.52339 10.1141 6.4172 9.7998H5.22656V10.7287C5.5262 11.3252 5.98582 11.8266 6.55404 12.1769C7.12227 12.5273 7.77671 12.7127 8.44424 12.7124Z" fill="var(--fill-0, #34A853)"/>
<path id="Vector_6" d="M6.42209 9.80063C6.27209 9.35369 6.27209 8.86998 6.42209 8.42304V7.49414H5.22752C4.97517 7.99606 4.84375 8.55005 4.84375 9.11184C4.84375 9.67362 4.97517 10.2276 5.22752 10.7295L6.42209 9.80063Z" fill="var(--fill-0, #FBBC04)"/>
<path id="Vector_7" d="M8.44424 6.93478C8.9566 6.92779 9.45125 7.12212 9.82184 7.47598V7.47598L10.8511 6.44869C10.1999 5.83709 9.33757 5.50075 8.44424 5.50995C7.77671 5.50972 7.12226 5.69513 6.55404 6.04545C5.98582 6.39576 5.5262 6.89719 5.22656 7.49369L6.42114 8.42259C6.56184 7.99505 6.83231 7.62201 7.19491 7.35535C7.5575 7.08869 7.9942 6.94168 8.44424 6.93478Z" fill="var(--fill-0, #EA4335)"/>
</g>
</g>
</svg>
