<svg preserveAspectRatio="none" width="100%" height="100%" overflow="visible" style="display: block;" viewBox="0 0 31.488 19.68" fill="none" xmlns="http://www.w3.org/2000/svg">
<g id="&#208;&#161;&#208;&#187;&#208;&#190;&#208;&#185; 1">
<path id="Rectangle 1" fill-rule="evenodd" clip-rule="evenodd" d="M29.1264 0H1.5744C0.7872 0 0 0.7872 0 1.5744V17.3184C0 18.8928 0.7872 19.68 2.3616 19.68H29.1264C30.7008 19.68 31.488 18.8928 31.488 17.3184V2.3616C31.488 0.7872 30.7008 0 29.1264 0Z" fill="var(--fill-0, #F6F6F6)"/>
<g id="comp 24 apple pay">
<path id="Vector" d="M9.05454 6.62463C8.93052 6.78066 8.77234 6.90615 8.5922 6.99145C8.41205 7.07675 8.21474 7.11957 8.01544 7.11663C8.00238 6.92191 8.02839 6.72654 8.09193 6.54201C8.15547 6.35748 8.25525 6.18751 8.38542 6.0421C8.64756 5.73729 9.0182 5.54668 9.41862 5.51074C9.44512 5.91505 9.31471 6.31402 9.05454 6.62463V6.62463ZM9.41272 7.19141C8.83806 7.15796 8.34606 7.5181 8.07054 7.5181C7.79502 7.5181 7.37781 7.20913 6.9232 7.21897C6.62855 7.22661 6.34101 7.31107 6.08903 7.46398C5.83705 7.61689 5.62938 7.83296 5.48656 8.09079C4.86664 9.15548 5.32518 10.7279 5.92542 11.5958C6.21865 12.0248 6.56699 12.4952 7.02947 12.4794C7.49195 12.4637 7.64349 12.2019 8.17091 12.2019C8.69833 12.2019 8.85774 12.4853 9.31825 12.4775C9.77877 12.4696 10.1055 12.0504 10.3908 11.6214C10.5971 11.3183 10.7582 10.9869 10.869 10.6374C10.5936 10.5172 10.3589 10.3198 10.1934 10.069C10.0278 9.81822 9.93851 9.52484 9.93621 9.22436C9.93879 8.95717 10.0093 8.69503 10.1412 8.46264C10.2731 8.23024 10.4619 8.03523 10.69 7.89596C10.5453 7.68867 10.3544 7.51784 10.1324 7.39694C9.91042 7.27604 9.66337 7.20837 9.41075 7.19929L9.41272 7.19141ZM12.7209 6.00668V12.4224H13.7187V10.2339H15.0963C16.3598 10.2339 17.2434 9.36606 17.2434 8.11441C17.2434 6.86276 16.3755 5.99881 15.1337 5.99881L12.7209 6.00668ZM13.7187 6.84701H14.87C15.7359 6.84701 16.2318 7.30753 16.2318 8.12031C16.2318 8.93309 15.7457 9.38967 14.866 9.38967H13.7187V6.83127V6.84701ZM19.0658 12.4716C19.362 12.4801 19.6551 12.4083 19.9139 12.2638C20.1727 12.1193 20.3876 11.9076 20.5359 11.6509H20.5555V12.4224H21.4785V9.22633C21.4785 8.2994 20.7366 7.69916 19.5971 7.69916C18.5383 7.69916 17.7531 8.3053 17.7236 9.1358H18.6249C18.6997 8.7422 19.0658 8.48046 19.5676 8.48046C20.1777 8.48046 20.5201 8.76385 20.5201 9.28733V9.64354L19.2744 9.7203C18.1172 9.78918 17.4914 10.2635 17.4914 11.0979C17.4914 11.9323 18.1388 12.4716 19.0658 12.4716ZM19.3354 11.7119C18.806 11.7119 18.4655 11.4541 18.4655 11.0644C18.4655 10.6748 18.7922 10.4248 19.4161 10.3894L20.5221 10.3205V10.6826C20.5221 11.2829 20.0124 11.7119 19.3354 11.7119V11.7119ZM22.7144 14.1699C23.6866 14.1699 24.1452 13.798 24.5447 12.6743L26.2942 7.75426H25.2787L24.0979 11.5486H24.0783L22.8975 7.75426H21.8544L23.543 12.4322L23.4505 12.7156C23.2989 13.1958 23.0569 13.3847 22.6101 13.3847C22.5314 13.3847 22.3799 13.3847 22.3169 13.367V14.1385C22.4436 14.1537 22.5711 14.1616 22.6987 14.1621L22.7144 14.1699Z" fill="var(--fill-0, #333333)"/>
</g>
</g>
</svg>
