<svg preserveAspectRatio="none" width="100%" height="100%" overflow="visible" style="display: block;" viewBox="0 0 16 16" fill="none" xmlns="http://www.w3.org/2000/svg">
<g id="ri:playstation-fill">
<path id="Vector" d="M15.0562 11.341C14.7695 11.703 14.0675 11.961 14.0675 11.961L8.84618 13.839V12.4537L12.6888 11.0823C13.1248 10.9263 13.1915 10.705 12.8375 10.589C12.4835 10.473 11.8428 10.5057 11.4062 10.663L8.84618 11.5657V10.129L8.99352 10.0783C8.99352 10.0783 9.73352 9.81632 10.7735 9.70099C11.8142 9.58632 13.0882 9.71699 14.0882 10.0963C15.2148 10.453 15.3415 10.979 15.0562 11.341ZM9.34285 8.98232V5.44166C9.34285 5.02566 9.26618 4.64299 8.87618 4.53499C8.57818 4.43899 8.39285 4.71633 8.39285 5.13166V14.0003L6.00418 13.241V2.66699C7.01952 2.85566 8.49952 3.30233 9.29485 3.57033C11.3182 4.26566 12.0042 5.13166 12.0042 7.08166C12.0042 8.98233 10.8322 9.70299 9.34285 8.98299M1.62085 12.3097C0.463516 11.983 0.270849 11.303 0.798182 10.9117C1.28552 10.5503 2.11485 10.2783 2.11485 10.2783L5.54018 9.05833V10.449L3.07485 11.3323C2.63952 11.4883 2.57285 11.7097 2.92618 11.8257C3.28085 11.9423 3.92152 11.909 4.35752 11.7523L5.54018 11.323V12.5663L5.30418 12.6063C4.12152 12.7997 2.86218 12.719 1.62085 12.3097Z" fill="var(--fill-0, white)"/>
</g>
</svg>
