<svg preserveAspectRatio="none" width="100%" height="100%" overflow="visible" style="display: block;" viewBox="0 0 16.6667 16.5133" fill="none" xmlns="http://www.w3.org/2000/svg">
<g id="Group">
<g id="Vector">
</g>
<path id="Vector_2" fill-rule="evenodd" clip-rule="evenodd" d="M16.6667 5H0V10.8333C0 11.4964 0.263392 12.1323 0.732233 12.6011C1.20107 13.0699 1.83696 13.3333 2.5 13.3333H14.1667C14.8297 13.3333 15.4656 13.0699 15.9344 12.6011C16.4033 12.1323 16.6667 11.4964 16.6667 10.8333V5ZM7.155 8.33333L7.255 8.2325C7.40691 8.07544 7.49106 7.865 7.48932 7.6465C7.48758 7.428 7.40008 7.21892 7.24568 7.0643C7.09128 6.90969 6.88233 6.8219 6.66384 6.81985C6.44534 6.81779 6.23478 6.90164 6.0775 7.05333L4.55333 8.5775C4.39711 8.73377 4.30934 8.9457 4.30934 9.16667C4.30934 9.38764 4.39711 9.59956 4.55333 9.75583L6.0775 11.2792C6.15437 11.3588 6.24633 11.4222 6.348 11.4659C6.44967 11.5096 6.55902 11.5326 6.66967 11.5335C6.78032 11.5345 6.89005 11.5134 6.99246 11.4715C7.09488 11.4296 7.18792 11.3677 7.26616 11.2895C7.34441 11.2113 7.40628 11.1182 7.44818 11.0158C7.49009 10.9134 7.51117 10.8036 7.51021 10.693C7.50925 10.5824 7.48626 10.473 7.44258 10.3713C7.39891 10.2697 7.33542 10.1777 7.25583 10.1008L7.155 10H10.8333C11.0543 10 11.2663 9.9122 11.4226 9.75592C11.5789 9.59964 11.6667 9.38768 11.6667 9.16667C11.6667 8.94565 11.5789 8.73369 11.4226 8.57741C11.2663 8.42113 11.0543 8.33333 10.8333 8.33333H7.155ZM2.5 0C1.83696 0 1.20107 0.263392 0.732233 0.732233C0.263392 1.20107 0 1.83696 0 2.5V3.33333H16.6667V2.5C16.6667 1.83696 16.4033 1.20107 15.9344 0.732233C15.4656 0.263392 14.8297 0 14.1667 0H2.5Z" fill="var(--fill-0, #FF975D)"/>
</g>
</svg>
