<svg preserveAspectRatio="none" width="100%" height="100%" overflow="visible" style="display: block;" viewBox="0 0 20 20" fill="none" xmlns="http://www.w3.org/2000/svg">
<g id="ion:rocket-outline">
<path id="Vector" d="M18.0389 2.10182C18.0323 2.06977 18.0166 2.04027 17.9938 2.01681C17.971 1.99335 17.9419 1.97691 17.91 1.9694C15.7858 1.44987 10.8788 3.30104 8.21746 5.96042C7.74317 6.43084 7.31068 6.94162 6.92488 7.48698C6.10457 7.41276 5.28426 7.47526 4.58582 7.77995C2.61356 8.64714 2.03973 10.912 1.87957 11.8842C1.8709 11.9375 1.8746 11.9921 1.8904 12.0437C1.90621 12.0953 1.93368 12.1426 1.9707 12.1819C2.00772 12.2211 2.05328 12.2514 2.10387 12.2702C2.15445 12.2891 2.20869 12.296 2.26239 12.2905L5.42918 11.9428C5.43135 12.1817 5.4457 12.4203 5.47215 12.6577C5.48868 12.8218 5.56189 12.975 5.67918 13.0909L6.90535 14.3171C7.02138 14.4344 7.17472 14.5077 7.33895 14.5241C7.57492 14.5504 7.81207 14.5647 8.04949 14.5671L7.70223 17.7311C7.69681 17.7847 7.70379 17.8389 7.72263 17.8894C7.74148 17.9399 7.77168 17.9854 7.81091 18.0224C7.85014 18.0593 7.89735 18.0868 7.94887 18.1026C8.0004 18.1184 8.05488 18.1221 8.10809 18.1135C9.08074 17.9573 11.3503 17.3835 12.2124 15.4116C12.5171 14.7124 12.5796 13.8964 12.5093 13.0799C13.0562 12.6945 13.5685 12.262 14.0401 11.7874C16.7112 9.13112 18.5507 4.3319 18.0389 2.10182ZM11.6659 8.34635C11.4326 8.1131 11.2737 7.8159 11.2093 7.49233C11.1449 7.16877 11.1779 6.83338 11.3042 6.52857C11.4304 6.22377 11.6442 5.96324 11.9185 5.77995C12.1928 5.59665 12.5153 5.49882 12.8452 5.49882C13.1751 5.49882 13.4976 5.59665 13.7719 5.77995C14.0462 5.96324 14.26 6.22377 14.3862 6.52857C14.5125 6.83338 14.5455 7.16877 14.4811 7.49233C14.4167 7.8159 14.2578 8.1131 14.0245 8.34635C13.8697 8.50143 13.6859 8.62447 13.4836 8.70841C13.2812 8.79236 13.0643 8.83557 12.8452 8.83557C12.6261 8.83557 12.4092 8.79236 12.2068 8.70841C12.0045 8.62447 11.8207 8.50143 11.6659 8.34635Z" stroke="var(--stroke-0, white)" stroke-linecap="round" stroke-linejoin="round"/>
<path id="Vector_2" d="M4.28281 13.75C3.8934 13.7978 3.53113 13.9743 3.25352 14.2516C2.56523 14.9422 2.5 17.5 2.5 17.5C2.5 17.5 5.05937 17.4348 5.74805 16.7457C6.0264 16.4685 6.20323 16.1056 6.25 15.7156" stroke="var(--stroke-0, white)" stroke-linecap="round" stroke-linejoin="round"/>
</g>
</svg>
