<svg preserveAspectRatio="none" width="100%" height="100%" overflow="visible" style="display: block;" viewBox="0 0 15 18.1219" fill="none" xmlns="http://www.w3.org/2000/svg">
<g id="Group">
<g id="Vector">
</g>
<path id="Vector_2" fill-rule="evenodd" clip-rule="evenodd" d="M6.915 0.106041C7.29219 -0.035347 7.70781 -0.035347 8.085 0.106041L13.9183 2.29354C14.2361 2.41265 14.5099 2.62592 14.7032 2.90484C14.8965 3.18375 15 3.51503 15 3.85437V8.32354C15 9.7164 14.6122 11.0817 13.8799 12.2666C13.1477 13.4514 12.1 14.409 10.8542 15.0319L8.05917 16.4285C7.88556 16.5154 7.69411 16.5606 7.5 16.5606C7.30589 16.5606 7.11444 16.5154 6.94083 16.4285L4.14583 15.031C2.90003 14.4081 1.85231 13.4506 1.12006 12.2658C0.387809 11.0809 -2.97142e-05 9.71556 3.25135e-07 8.32271V3.85521C-0.000211675 3.51572 0.103255 3.18426 0.296557 2.90518C0.489859 2.6261 0.763778 2.4127 1.08167 2.29354L6.915 0.106041ZM8.33333 8.05354C8.65105 7.87009 8.89935 7.58693 9.03974 7.24797C9.18013 6.90902 9.20476 6.53321 9.1098 6.17884C9.01485 5.82446 8.80561 5.51132 8.51456 5.28797C8.2235 5.06463 7.86688 4.94356 7.5 4.94354C7.13312 4.94356 6.7765 5.06463 6.48544 5.28797C6.19439 5.51132 5.98515 5.82446 5.8902 6.17884C5.79524 6.53321 5.81987 6.90902 5.96026 7.24797C6.10065 7.58693 6.34895 7.87009 6.66667 8.05354V10.7769C6.66667 10.9979 6.75446 11.2098 6.91074 11.3661C7.06702 11.5224 7.27899 11.6102 7.5 11.6102C7.72101 11.6102 7.93297 11.5224 8.08926 11.3661C8.24554 11.2098 8.33333 10.9979 8.33333 10.7769V8.05354Z" fill="var(--fill-0, #FF975D)"/>
</g>
</svg>
