<svg preserveAspectRatio="none" width="100%" height="100%" overflow="visible" style="display: block;" viewBox="0 0 20 20" fill="none" xmlns="http://www.w3.org/2000/svg">
<g id="ant-design:safety-outlined">
<path id="Vector" d="M10 1.25L2.5 3.75V11.25C2.5 15.3926 5.85742 18.75 10 18.75C14.1426 18.75 17.5 15.3926 17.5 11.25V3.75L10 1.25ZM16.0938 11.25C16.0938 14.6152 13.3652 17.3438 10 17.3438C6.63477 17.3438 3.90625 14.6152 3.90625 11.25V4.80469L10 2.65625L16.0938 4.80469V11.25Z" fill="var(--fill-0, white)"/>
<path id="Vector_2" d="M7.3882 9.27881C7.32303 9.21334 7.24557 9.16139 7.16027 9.12595C7.07496 9.0905 6.9835 9.07225 6.89113 9.07225C6.79875 9.07225 6.70729 9.0905 6.62199 9.12595C6.53669 9.16139 6.45923 9.21334 6.39406 9.27881C6.32859 9.34398 6.27664 9.42144 6.24119 9.50674C6.20575 9.59204 6.1875 9.68351 6.1875 9.77588C6.1875 9.86825 6.20575 9.95972 6.24119 10.045C6.27664 10.1303 6.32859 10.2078 6.39406 10.2729L8.9214 12.8003L8.96242 12.8413C9.02406 12.9031 9.09728 12.9521 9.17788 12.9855C9.25848 13.0189 9.34488 13.0361 9.43214 13.0361C9.5194 13.0361 9.60581 13.0189 9.68641 12.9855C9.76701 12.9521 9.84023 12.9031 9.90187 12.8413L14.2671 8.47607C14.3289 8.41443 14.3779 8.34121 14.4113 8.26061C14.4447 8.18001 14.4619 8.09361 14.4619 8.00635C14.4619 7.91909 14.4447 7.83269 14.4113 7.75208C14.3779 7.67148 14.3289 7.59827 14.2671 7.53662L14.2124 7.48193C14.1508 7.42017 14.0776 7.37118 13.997 7.33775C13.9164 7.30432 13.8299 7.28711 13.7427 7.28711C13.6554 7.28711 13.569 7.30432 13.4884 7.33775C13.4078 7.37118 13.3346 7.42017 13.273 7.48193L9.43117 11.3218L7.3882 9.27881Z" fill="var(--fill-0, white)"/>
</g>
</svg>
