<svg preserveAspectRatio="none" width="100%" height="100%" overflow="visible" style="display: block;" viewBox="0 0 20 20" fill="none" xmlns="http://www.w3.org/2000/svg">
<g id="tdesign:support-filled" clip-path="url(#clip0_0_201)">
<path id="Vector" d="M4.13597 2.95583L8.01514 6.83416C8.61107 6.46022 9.30035 6.26187 10.0039 6.26187C10.7074 6.26187 11.3967 6.46022 11.9926 6.83416L15.8693 2.9575C14.2223 1.58599 12.1468 0.834961 10.0035 0.834961C7.86018 0.834961 5.78465 1.58599 4.13764 2.9575M17.0476 4.13416L13.1693 8.01333C13.5431 8.60917 13.7413 9.29829 13.7413 10.0017C13.7413 10.705 13.5431 11.3942 13.1693 11.99L17.0468 15.8675C18.4183 14.2205 19.1693 12.145 19.1693 10.0017C19.1693 7.85837 18.4183 5.78284 17.0468 4.13583M15.8693 17.0458L11.9918 13.1675C11.3959 13.5414 10.7066 13.7398 10.0031 13.7398C9.29952 13.7398 8.61024 13.5414 8.01431 13.1675L4.13597 17.0467C5.78305 18.4184 7.85875 19.1695 10.0022 19.1695C12.1457 19.1695 14.2214 18.4184 15.8685 17.0467M2.95847 15.8675L6.83597 11.9883C6.4622 11.3925 6.26394 10.7034 6.26394 10C6.26394 9.29663 6.4622 8.6075 6.83597 8.01166L2.95847 4.13416C1.58696 5.78118 0.835937 7.85671 0.835938 10C0.835937 12.1433 1.58696 14.2188 2.95847 15.8658" fill="var(--fill-0, #FF975D)"/>
</g>
<defs>
<clipPath id="clip0_0_201">
<rect width="20" height="20" fill="white"/>
</clipPath>
</defs>
</svg>
