<svg preserveAspectRatio="none" width="100%" height="100%" overflow="visible" style="display: block;" viewBox="0 0 20 20" fill="none" xmlns="http://www.w3.org/2000/svg">
<g id="streamline-ultimate:vpn-on-circle-bold" clip-path="url(#clip0_0_225)">
<path id="Vector" fill-rule="evenodd" clip-rule="evenodd" d="M0 10C0 4.4775 4.4775 0 10 0C15.5225 0 20 4.4775 20 10C20 15.5225 15.5225 20 10 20C4.4775 20 0 15.5225 0 10ZM14.5167 6.90833C14.4535 6.7828 14.3499 6.68222 14.2226 6.62281C14.0952 6.5634 13.9516 6.54863 13.8148 6.5809C13.6781 6.61316 13.5562 6.69057 13.4688 6.80063C13.3814 6.91069 13.3337 7.04698 13.3333 7.1875V12.8125C13.3333 12.9783 13.3992 13.1372 13.5164 13.2544C13.6336 13.3717 13.7926 13.4375 13.9583 13.4375C14.1241 13.4375 14.2831 13.3717 14.4003 13.2544C14.5175 13.1372 14.5833 12.9783 14.5833 12.8125V9.835L16.2117 13.0917C16.2746 13.2177 16.3782 13.3187 16.5057 13.3784C16.6332 13.4382 16.7772 13.4531 16.9142 13.4208C17.0513 13.3885 17.1734 13.3108 17.2608 13.2004C17.3483 13.09 17.3958 12.9533 17.3958 12.8125V7.1875C17.3958 7.02174 17.33 6.86277 17.2128 6.74556C17.0956 6.62835 16.9366 6.5625 16.7708 6.5625C16.6051 6.5625 16.4461 6.62835 16.3289 6.74556C16.2117 6.86277 16.1458 7.02174 16.1458 7.1875V10.165L14.5167 6.90833ZM8.62083 6.74583C8.73793 6.62859 8.8968 6.56265 9.0625 6.5625H10.2342C10.8351 6.5625 11.4114 6.80122 11.8364 7.22615C12.2613 7.65107 12.5 8.2274 12.5 8.82833C12.5 9.42927 12.2613 10.0056 11.8364 10.4305C11.4114 10.8554 10.8351 11.0942 10.2342 11.0942H9.6875V12.8125C9.6875 12.9783 9.62165 13.1372 9.50444 13.2544C9.38723 13.3717 9.22826 13.4375 9.0625 13.4375C8.89674 13.4375 8.73777 13.3717 8.62056 13.2544C8.50335 13.1372 8.4375 12.9783 8.4375 12.8125V7.1875C8.43765 7.0218 8.50359 6.86293 8.62083 6.74583ZM9.6875 9.84417H10.2342C10.5036 9.84417 10.762 9.73714 10.9525 9.54664C11.143 9.35613 11.25 9.09775 11.25 8.82833C11.25 8.55892 11.143 8.30054 10.9525 8.11003C10.762 7.91952 10.5036 7.8125 10.2342 7.8125H9.6875V9.84417ZM3.83583 7.03583L5.10417 12.1108L6.3725 7.03583C6.41272 6.87494 6.51522 6.73661 6.65743 6.65128C6.79965 6.56595 6.96994 6.54061 7.13083 6.58083C7.29173 6.62106 7.43006 6.72355 7.51539 6.86577C7.60072 7.00798 7.62606 7.17827 7.58583 7.33917L6.29333 12.5083C6.22761 12.774 6.07479 13.0101 5.85926 13.1788C5.64372 13.3475 5.37789 13.4392 5.10417 13.4392C4.83045 13.4392 4.56461 13.3475 4.34908 13.1788C4.13354 13.0101 3.98072 12.774 3.915 12.5083L2.62333 7.33833C2.60206 7.25827 2.59691 7.17477 2.60819 7.0927C2.61948 7.01063 2.64696 6.93162 2.68905 6.86027C2.73115 6.78891 2.787 6.72664 2.85338 6.67707C2.91975 6.62749 2.99532 6.59161 3.07569 6.57151C3.15605 6.5514 3.23962 6.54747 3.32151 6.55995C3.40341 6.57243 3.48201 6.60107 3.55275 6.64419C3.62348 6.68732 3.68493 6.74408 3.73353 6.81117C3.78213 6.87826 3.8169 6.95518 3.83583 7.03583Z" fill="var(--fill-0, #FF975D)"/>
</g>
<defs>
<clipPath id="clip0_0_225">
<rect width="20" height="20" fill="white"/>
</clipPath>
</defs>
</svg>
