<svg preserveAspectRatio="none" width="100%" height="100%" overflow="visible" style="display: block;" viewBox="0 0 16 16" fill="none" xmlns="http://www.w3.org/2000/svg">
<g id="ion:logo-xbox">
<path id="Vector" d="M3.9625 7.75937C5.20313 5.92812 6.39687 4.85938 6.39687 4.85938C6.39687 4.85938 5.08125 3.33125 3.49688 2.75312L3.39375 2.72813C2.06119 3.89329 1.21923 5.51979 1.03719 7.28051C0.855141 9.04124 1.34652 10.8056 2.4125 12.2188C2.4125 12.0813 2.43125 10.0219 3.9625 7.75937ZM15 8C15.0007 7.00127 14.7875 6.01397 14.3746 5.10459C13.9617 4.19521 13.3587 3.38487 12.6063 2.72813L12.5063 2.75625C10.9219 3.33437 9.60312 4.8625 9.60312 4.8625C9.60312 4.8625 10.7969 5.93125 12.0375 7.7625C13.5688 10.025 13.5875 12.0844 13.5844 12.2219C14.5057 11.0075 15.003 9.52431 15 8ZM6.2875 2.52813C7.20312 2.9375 7.99375 3.60938 7.99375 3.60938C7.99375 3.60938 8.79063 2.94063 9.70625 2.52813C10.8563 2.0125 11.7344 2.175 11.9656 2.23125C10.7987 1.4293 9.41596 0.999996 8 0.999996C6.58404 0.999996 5.20135 1.4293 4.03438 2.23125C4.25938 2.175 5.13437 2.00938 6.2875 2.52813ZM11.2094 9.15313C9.7625 7.375 7.99375 6.21875 7.99375 6.21875C7.99375 6.21875 6.23438 7.375 4.78438 9.15313C3.54063 10.6813 3.07812 11.8031 2.82812 12.5219L2.7875 12.6719C3.44403 13.4043 4.24755 13.9902 5.14568 14.3913C6.04381 14.7923 7.01638 14.9996 8 14.9996C8.98362 14.9996 9.95619 14.7923 10.8543 14.3913C11.7525 13.9902 12.556 13.4043 13.2125 12.6719L13.1688 12.5219C12.9188 11.8031 12.4531 10.6813 11.2094 9.15313Z" fill="var(--fill-0, white)"/>
</g>
</svg>
