<svg width="22" height="22" viewBox="0 0 21.5001 21.5001" fill="none" xmlns="http://www.w3.org/2000/svg">
<g id="Group">
<path id="Vector" d="M15.0576 3.1336C14.4676 3.1336 14.1716 3.1336 13.9026 3.0336L13.7916 2.9876C13.5306 2.8676 13.3216 2.6596 12.9036 2.2416C11.9416 1.2796 11.4606 0.798603 10.8696 0.753603C10.7897 0.748799 10.7095 0.748799 10.6296 0.753603C10.0386 0.798603 9.5576 1.2796 8.5956 2.2416C8.1776 2.6596 7.9686 2.8686 7.7076 2.9876L7.5976 3.0336C7.3276 3.1336 7.0326 3.1336 6.4416 3.1336H6.3316C4.8246 3.1336 4.0706 3.1336 3.6016 3.6016C3.1326 4.0696 3.1336 4.8246 3.1336 6.3316V6.4416C3.1336 7.0316 3.1336 7.3276 3.0336 7.5966C3.01894 7.6346 3.0036 7.6716 2.9876 7.7076C2.8676 7.9686 2.6596 8.1776 2.2416 8.5956C1.2796 9.5576 0.798603 10.0386 0.753603 10.6296C0.748799 10.7095 0.748799 10.7897 0.753603 10.8696C0.798603 11.4606 1.2796 11.9416 2.2416 12.9036C2.6596 13.3216 2.8686 13.5306 2.9876 13.7916C3.00427 13.8276 3.0196 13.8643 3.0336 13.9016C3.1336 14.1716 3.1336 14.4666 3.1336 15.0576V15.1676C3.1336 16.6746 3.1336 17.4286 3.6016 17.8976C4.0696 18.3666 4.8246 18.3656 6.3316 18.3656H6.4416C7.0316 18.3656 7.3276 18.3656 7.5966 18.4656C7.6346 18.4796 7.6716 18.4949 7.7076 18.5116C7.9686 18.6316 8.1776 18.8396 8.5956 19.2576C9.5576 20.2196 10.0386 20.7006 10.6296 20.7456C10.7096 20.7516 10.7896 20.7516 10.8696 20.7456C11.4606 20.7006 11.9416 20.2196 12.9036 19.2576C13.3216 18.8396 13.5306 18.6316 13.7916 18.5116C13.8276 18.4949 13.8643 18.4796 13.9016 18.4656C14.1716 18.3656 14.4666 18.3656 15.0576 18.3656H15.1676C16.6746 18.3656 17.4286 18.3656 17.8976 17.8976C18.3666 17.4296 18.3656 16.6746 18.3656 15.1676V15.0576C18.3656 14.4676 18.3656 14.1716 18.4656 13.9026C18.4796 13.8646 18.4949 13.8276 18.5116 13.7916C18.6316 13.5306 18.8396 13.3216 19.2576 12.9036C20.2196 11.9416 20.7006 11.4606 20.7456 10.8696C20.7516 10.7896 20.7516 10.7096 20.7456 10.6296C20.7006 10.0386 20.2196 9.5576 19.2576 8.5956C18.8396 8.1776 18.6316 7.9686 18.5116 7.7076L18.4656 7.5976C18.3656 7.3276 18.3656 7.0326 18.3656 6.4416V6.3316C18.3656 4.8246 18.3656 4.0706 17.8976 3.6016C17.4296 3.1326 16.6746 3.1336 15.1676 3.1336H15.0576Z" stroke="var(--stroke-0, #FF975D)" stroke-width="1.5"/>
<path id="Vector_2" d="M7.2496 15.2496C7.60429 14.6353 8.11449 14.1251 8.72889 13.7705C9.34329 13.416 10.0402 13.2294 10.7496 13.2296C12.2456 13.2296 13.5506 14.0416 14.2496 15.2496M12.7496 8.7496C12.7496 9.28004 12.5389 9.78874 12.1638 10.1638C11.7887 10.5389 11.28 10.7496 10.7496 10.7496C10.2192 10.7496 9.71046 10.5389 9.33539 10.1638C8.96032 9.78874 8.7496 9.28004 8.7496 8.7496C8.7496 8.21917 8.96032 7.71046 9.33539 7.33539C9.71046 6.96032 10.2192 6.7496 10.7496 6.7496C11.28 6.7496 11.7887 6.96032 12.1638 7.33539C12.5389 7.71046 12.7496 8.21917 12.7496 8.7496Z" stroke="var(--stroke-0, #FF975D)" stroke-width="1.5" stroke-linecap="round"/>
</g>
</svg>
