<svg preserveAspectRatio="none" width="100%" height="100%" overflow="visible" style="display: block;" viewBox="0 0 14 14" fill="none" xmlns="http://www.w3.org/2000/svg">
<g id="streamline-flex:bell-notification" clip-path="url(#clip0_0_41)">
<path id="Vector" d="M5.677 12.458C5.80503 12.6976 5.99573 12.898 6.22874 13.0377C6.46175 13.1773 6.72833 13.2511 7 13.2511C7.27168 13.2511 7.53825 13.1773 7.77126 13.0377C8.00427 12.898 8.19497 12.6976 8.323 12.458M4.262 1.884C4.80351 1.34246 5.49345 0.973659 6.24457 0.824243C6.99568 0.674828 7.77424 0.751507 8.48177 1.04458C9.18931 1.33766 9.79404 1.83397 10.2195 2.47075C10.645 3.10752 10.872 3.85617 10.872 4.622C10.872 5.226 10.972 5.793 11.122 6.374C11.164 6.506 11.2097 6.63033 11.259 6.747C11.491 7.292 12.13 7.479 12.607 7.831C13.318 8.358 13.181 9.485 12.589 9.923C12.589 9.923 11.634 10.75 7 10.75C2.366 10.75 1.411 9.923 1.411 9.923C0.819 9.485 0.681 8.358 1.393 7.831C1.87 7.479 2.509 7.292 2.741 6.747C2.972 6.203 3.128 5.507 3.128 4.622C3.128 3.595 3.536 2.61 4.262 1.884Z" stroke="var(--stroke-0, white)" stroke-linecap="round" stroke-linejoin="round"/>
</g>
<defs>
<clipPath id="clip0_0_41">
<rect width="14" height="14" fill="white"/>
</clipPath>
</defs>
</svg>
