<svg width="32" height="32" viewBox="0 0 32 32" fill="none" xmlns="http://www.w3.org/2000/svg">
<path d="M14.284 19.6173C14.5391 19.3613 14.6667 19.0444 14.6667 18.6667V13.3333C14.6667 12.9556 14.5387 12.6391 14.2827 12.384C14.0267 12.1289 13.7102 12.0009 13.3333 12C12.9564 11.9991 12.64 12.1271 12.384 12.384C12.128 12.6409 12 12.9573 12 13.3333V18.6667C12 19.0444 12.128 19.3613 12.384 19.6173C12.64 19.8733 12.9564 20.0009 13.3333 20C13.7102 19.9991 14.0271 19.8711 14.284 19.616M19.6173 19.616C19.8724 19.3618 20 19.0453 20 18.6667V13.3333C20 12.9556 19.872 12.6391 19.616 12.384C19.36 12.1289 19.0436 12.0009 18.6667 12C18.2898 11.9991 17.9733 12.1271 17.7173 12.384C17.4613 12.6409 17.3333 12.9573 17.3333 13.3333V18.6667C17.3333 19.0444 17.4613 19.3613 17.7173 19.6173C17.9733 19.8733 18.2898 20.0009 18.6667 20C19.0436 19.9991 19.3604 19.8711 19.6173 19.616ZM16 29.3333C14.1556 29.3333 12.4222 28.9831 10.8 28.2827C9.17778 27.5822 7.76667 26.6324 6.56667 25.4333C5.36667 24.2342 4.41689 22.8231 3.71733 21.2C3.01778 19.5769 2.66756 17.8436 2.66667 16C2.66667 15.2889 2.72222 14.5778 2.83333 13.8667C2.94444 13.1556 3.11111 12.4556 3.33333 11.7667C3.44444 11.4111 3.67244 11.1724 4.01733 11.0507C4.36222 10.9289 4.68978 10.9564 5 11.1333C5.33333 11.3111 5.57244 11.5724 5.71733 11.9173C5.86222 12.2622 5.87867 12.6231 5.76667 13C5.63333 13.4889 5.52756 13.9836 5.44933 14.484C5.37111 14.9844 5.33244 15.4898 5.33333 16C5.33333 18.9778 6.36667 21.5 8.43333 23.5667C10.5 25.6333 13.0222 26.6667 16 26.6667C18.9778 26.6667 21.5 25.6333 23.5667 23.5667C25.6333 21.5 26.6667 18.9778 26.6667 16C26.6667 13.0222 25.6333 10.5 23.5667 8.43333C21.5 6.36667 18.9778 5.33333 16 5.33333C15.4667 5.33333 14.9391 5.372 14.4173 5.44933C13.8956 5.52667 13.3787 5.64356 12.8667 5.8C12.4889 5.91111 12.1333 5.9 11.8 5.76667C11.4667 5.63333 11.2222 5.4 11.0667 5.06667C10.9111 4.73333 10.9053 4.39467 11.0493 4.05067C11.1933 3.70667 11.4436 3.47867 11.8 3.36667C12.4667 3.12222 13.1556 2.94444 13.8667 2.83333C14.5778 2.72222 15.2889 2.66667 16 2.66667C17.8444 2.66667 19.5778 3.01689 21.2 3.71733C22.8222 4.41778 24.2333 5.36756 25.4333 6.56667C26.6333 7.76578 27.5836 9.17689 28.284 10.8C28.9844 12.4231 29.3342 14.1564 29.3333 16C29.3324 17.8436 28.9822 19.5769 28.2827 21.2C27.5831 22.8231 26.6333 24.2342 25.4333 25.4333C24.2333 26.6324 22.8222 27.5827 21.2 28.284C19.5778 28.9853 17.8444 29.3351 16 29.3333ZM5.91733 8.75067C5.528 8.36133 5.33333 7.88889 5.33333 7.33333C5.33333 6.77778 5.528 6.30578 5.91733 5.91733C6.30667 5.52889 6.77867 5.33422 7.33333 5.33333C7.888 5.33244 8.36044 5.52711 8.75067 5.91733C9.14089 6.30756 9.33511 6.77956 9.33333 7.33333C9.33156 7.88711 9.13733 8.35956 8.75067 8.75067C8.364 9.14178 7.89156 9.336 7.33333 9.33333C6.77511 9.33067 6.30311 9.13644 5.91733 8.75067Z" fill="#232330"/>
</svg>
