<svg preserveAspectRatio="none" width="100%" height="100%" overflow="visible" style="display: block;" viewBox="0 0 16 16" fill="none" xmlns="http://www.w3.org/2000/svg">
<g id="fluent:emoji-20-regular">
<path id="Vector" d="M14.4 8C14.4 6.30261 13.7257 4.67475 12.5255 3.47452C11.3252 2.27428 9.69738 1.6 8 1.6C6.30261 1.6 4.67475 2.27428 3.47452 3.47452C2.27428 4.67475 1.6 6.30261 1.6 8C1.6 9.69738 2.27428 11.3252 3.47452 12.5255C4.67475 13.7257 6.30261 14.4 8 14.4C9.69738 14.4 11.3252 13.7257 12.5255 12.5255C13.7257 11.3252 14.4 9.69738 14.4 8ZM2.4 8C2.4 7.2646 2.54485 6.53639 2.82627 5.85697C3.1077 5.17755 3.52019 4.56021 4.0402 4.0402C4.56021 3.52019 5.17755 3.1077 5.85697 2.82627C6.53639 2.54485 7.2646 2.4 8 2.4C8.7354 2.4 9.4636 2.54485 10.143 2.82627C10.8224 3.1077 11.4398 3.52019 11.9598 4.0402C12.4798 4.56021 12.8923 5.17755 13.1737 5.85697C13.4551 6.53639 13.6 7.2646 13.6 8C13.6 9.48521 13.01 10.9096 11.9598 11.9598C10.9096 13.01 9.48521 13.6 8 13.6C6.51479 13.6 5.0904 13.01 4.0402 11.9598C2.99 10.9096 2.4 9.48521 2.4 8ZM10.8 6.8C10.8 6.58783 10.7157 6.38434 10.5657 6.23431C10.4157 6.08428 10.2122 6 10 6C9.78782 6 9.58434 6.08428 9.43431 6.23431C9.28428 6.38434 9.2 6.58783 9.2 6.8C9.2 7.01217 9.28428 7.21565 9.43431 7.36568C9.58434 7.51571 9.78782 7.6 10 7.6C10.2122 7.6 10.4157 7.51571 10.5657 7.36568C10.7157 7.21565 10.8 7.01217 10.8 6.8ZM6.8 6.8C6.8 6.58783 6.71571 6.38434 6.56568 6.23431C6.41565 6.08428 6.21217 6 6 6C5.78783 6 5.58434 6.08428 5.43431 6.23431C5.28428 6.38434 5.2 6.58783 5.2 6.8C5.2 7.01217 5.28428 7.21565 5.43431 7.36568C5.58434 7.51571 5.78783 7.6 6 7.6C6.21217 7.6 6.41565 7.51571 6.56568 7.36568C6.71571 7.21565 6.8 7.01217 6.8 6.8ZM5.5112 10.012C5.47816 9.97113 5.43739 9.93717 5.39123 9.91206C5.34506 9.88695 5.2944 9.87117 5.24214 9.86564C5.18988 9.8601 5.13704 9.86492 5.08664 9.8798C5.03624 9.89469 4.98927 9.91936 4.9484 9.9524C4.90753 9.98544 4.87357 10.0262 4.84846 10.0724C4.82335 10.1185 4.80757 10.1692 4.80204 10.2215C4.79651 10.2737 4.80132 10.3266 4.8162 10.377C4.83109 10.4274 4.85576 10.4743 4.8888 10.5152C5.26387 10.979 5.73791 11.3531 6.27623 11.61C6.81455 11.8669 7.40352 12.0001 8 12C9.256 12 10.3784 11.42 11.1112 10.5152C11.1443 10.4743 11.169 10.4273 11.1839 10.3769C11.1989 10.3265 11.2037 10.2736 11.1982 10.2213C11.1927 10.169 11.177 10.1183 11.1519 10.0721C11.1268 10.0259 11.0929 9.98509 11.052 9.952C11.0111 9.9189 10.9641 9.89419 10.9137 9.87925C10.8633 9.86432 10.8104 9.85946 10.7581 9.86496C10.7058 9.87045 10.6551 9.8862 10.6089 9.91129C10.5627 9.93638 10.5219 9.97033 10.4888 10.0112C10.1889 10.3824 9.80968 10.6818 9.37905 10.8875C8.94842 11.0932 8.47723 11.2 8 11.2C7.52283 11.2001 7.05168 11.0934 6.62105 10.8879C6.19043 10.6823 5.81122 10.3831 5.5112 10.012Z" fill="var(--fill-0, #6D6D96)"/>
</g>
</svg>
