<svg preserveAspectRatio="none" width="100%" height="100%" overflow="visible" style="display: block;" viewBox="0 0 20 20" fill="none" xmlns="http://www.w3.org/2000/svg">
<g id="duo-icons:info" clip-path="url(#clip0_0_95)">
<path id="Vector" opacity="0.3" d="M9.99905 0C15.2463 0 19.5 4.47733 19.5 10.0005C19.5 15.5227 15.2463 20 9.99905 20C4.75177 20 0.5 15.5227 0.5 10.0005C0.49905 4.47733 4.75177 0 9.99905 0Z" fill="var(--fill-0, #FA4609)"/>
<path id="Vector_2" d="M10.0017 5.41446C9.86222 5.41063 9.72343 5.4348 9.59349 5.48554C9.46355 5.53628 9.34511 5.61257 9.24517 5.70988C9.14523 5.8072 9.06581 5.92356 9.01163 6.0521C8.95744 6.18064 8.92958 6.31874 8.92969 6.45823C8.9298 6.59772 8.95788 6.73578 9.01228 6.86423C9.06667 6.99268 9.14627 7.10892 9.24636 7.20607C9.34646 7.30323 9.46503 7.37932 9.59504 7.42986C9.72506 7.48039 9.86389 7.50434 10.0033 7.50029C10.2748 7.4923 10.5325 7.37874 10.7216 7.18377C10.9107 6.98879 11.0163 6.72777 11.016 6.45616C11.0156 6.18455 10.9094 5.92377 10.7198 5.72925C10.5303 5.53473 10.2723 5.4218 10.0008 5.41446H10.0017ZM9.99749 8.53862C9.79327 8.5389 9.59626 8.61416 9.44387 8.75012C9.29147 8.88607 9.19431 9.07325 9.17083 9.27612L9.16499 9.37279L9.16833 13.9578L9.17333 14.0553C9.19682 14.2585 9.29425 14.446 9.44707 14.582C9.59988 14.7181 9.7974 14.7931 10.002 14.7929C10.2066 14.7927 10.4039 14.7173 10.5565 14.5809C10.709 14.4446 10.8061 14.2569 10.8292 14.0536L10.8342 13.9561L10.8308 9.37196L10.825 9.27446C10.8009 9.07175 10.7033 8.88494 10.5506 8.74946C10.3979 8.61398 10.2008 8.53925 9.99666 8.53946L9.99749 8.53862Z" fill="var(--fill-0, #FF5C00)"/>
</g>
<defs>
<clipPath id="clip0_0_95">
<rect width="20" height="20" fill="white"/>
</clipPath>
</defs>
</svg>
