<svg preserveAspectRatio="none" width="100%" height="100%" overflow="visible" style="display: block;" viewBox="0 0 20 20" fill="none" xmlns="http://www.w3.org/2000/svg">
<g id="eva:arrow-up-fill" clip-path="url(#clip0_0_55)">
<g id="Vector" filter="url(#filter0_d_0_55)">
<path d="M12.8061 13H7.19388C6.97231 13.0003 6.75519 12.9373 6.56763 12.8182C6.38008 12.6991 6.22976 12.5289 6.13409 12.3272C6.02209 12.0878 5.97895 11.8215 6.00959 11.5586C6.04023 11.2957 6.14341 11.0467 6.30739 10.8402L9.11351 7.40863C9.22363 7.28036 9.35978 7.17749 9.51273 7.10699C9.66568 7.03649 9.83186 7 10 7C10.1681 7 10.3343 7.03649 10.4873 7.10699C10.6402 7.17749 10.7764 7.28036 10.8865 7.40863L13.6926 10.8402C13.8566 11.0467 13.9598 11.2957 13.9904 11.5586C14.0211 11.8215 13.9779 12.0878 13.8659 12.3272C13.7702 12.5289 13.6199 12.6991 13.4324 12.8182C13.2448 12.9373 13.0277 13.0003 12.8061 13Z" fill="var(--fill-0, #FF5C00)"/>
</g>
</g>
<defs>
<filter id="filter0_d_0_55" x="-8" y="-7" width="36" height="34" filterUnits="userSpaceOnUse" color-interpolation-filters="sRGB">
<feFlood flood-opacity="0" result="BackgroundImageFix"/>
<feColorMatrix in="SourceAlpha" type="matrix" values="0 0 0 0 0 0 0 0 0 0 0 0 0 0 0 0 0 0 127 0" result="hardAlpha"/>
<feOffset/>
<feGaussianBlur stdDeviation="7"/>
<feComposite in2="hardAlpha" operator="out"/>
<feColorMatrix type="matrix" values="0 0 0 0 1 0 0 0 0 0.360784 0 0 0 0 0 0 0 0 1 0"/>
<feBlend mode="normal" in2="BackgroundImageFix" result="effect1_dropShadow_0_55"/>
<feBlend mode="normal" in="SourceGraphic" in2="effect1_dropShadow_0_55" result="shape"/>
</filter>
<clipPath id="clip0_0_55">
<rect width="20" height="20" fill="white"/>
</clipPath>
</defs>
</svg>
