<svg preserveAspectRatio="none" width="100%" height="100%" overflow="visible" style="display: block;" viewBox="0 0 30 30" fill="none" xmlns="http://www.w3.org/2000/svg">
<g id="Vector" filter="url(#filter0_d_0_31)">
<path d="M19.9998 15.0007C20.0015 15.6578 19.8722 16.3087 19.6195 16.9154C19.3709 17.5232 19.0015 18.0742 18.5334 18.5352C18.0694 18.9996 17.5184 19.3682 16.9118 19.62C16.3045 19.8725 15.6528 20.0017 14.995 19.9999C14.3274 20.0031 13.6663 19.8686 13.0531 19.605L11.2263 19.875C11.0699 19.9007 10.9095 19.8877 10.7592 19.8373C10.6089 19.7868 10.4733 19.7003 10.3642 19.5854C10.2551 19.4705 10.1758 19.3307 10.1333 19.1781C10.0907 19.0255 10.0863 18.8648 10.1203 18.7101L10.3705 16.8854C10.1212 16.2885 9.99519 15.6474 10.0001 15.0007C9.99774 14.3451 10.1271 13.6957 10.3805 13.091C10.6305 12.4837 10.9979 11.9316 11.4616 11.4662C11.9264 11.0014 12.4783 10.6327 13.0859 10.3811C13.6935 10.1295 14.3448 10 15.0025 10C15.6602 10 16.3115 10.1295 16.919 10.3811C17.5266 10.6327 18.0786 11.0014 18.5434 11.4662C19.012 11.9286 19.3815 12.4814 19.6295 13.091C19.8795 13.6964 20.0054 14.3458 19.9998 15.0007Z" fill="var(--fill-0, #FF975D)"/>
</g>
<defs>
<filter id="filter0_d_0_31" x="0" y="0" width="30" height="30" filterUnits="userSpaceOnUse" color-interpolation-filters="sRGB">
<feFlood flood-opacity="0" result="BackgroundImageFix"/>
<feColorMatrix in="SourceAlpha" type="matrix" values="0 0 0 0 0 0 0 0 0 0 0 0 0 0 0 0 0 0 127 0" result="hardAlpha"/>
<feOffset/>
<feGaussianBlur stdDeviation="5"/>
<feComposite in2="hardAlpha" operator="out"/>
<feColorMatrix type="matrix" values="0 0 0 0 1 0 0 0 0 0.360784 0 0 0 0 0 0 0 0 0.4 0"/>
<feBlend mode="normal" in2="BackgroundImageFix" result="effect1_dropShadow_0_31"/>
<feBlend mode="normal" in="SourceGraphic" in2="effect1_dropShadow_0_31" result="shape"/>
</filter>
</defs>
</svg>
