<svg width="80" height="16" viewBox="0 0 80.3054 16" fill="none" xmlns="http://www.w3.org/2000/svg">
<g id="Frame 1491">
<g id="**********">
<path d="M1.472 10.232L0.528 9.544L1.4 8.352L0 7.904L0.352 6.784L1.76 7.232V5.768H2.936V7.232L4.336 6.784L4.696 7.904L3.288 8.352L4.16 9.544L3.208 10.232L2.344 9.04L1.472 10.232Z" fill="var(--fill-0, white)"/>
<path d="M7.20638 10.232L6.26237 9.544L7.13438 8.352L5.73438 7.904L6.08638 6.784L7.49438 7.232V5.768H8.67037V7.232L10.0704 6.784L10.4304 7.904L9.02238 8.352L9.89438 9.544L8.94238 10.232L8.07837 9.04L7.20638 10.232Z" fill="var(--fill-0, white)"/>
<path d="M12.9408 10.232L11.9967 9.544L12.8687 8.352L11.4688 7.904L11.8208 6.784L13.2288 7.232V5.768H14.4047V7.232L15.8048 6.784L16.1648 7.904L14.7568 8.352L15.6288 9.544L14.6768 10.232L13.8127 9.04L12.9408 10.232Z" fill="var(--fill-0, white)"/>
<path d="M18.6751 10.232L17.7311 9.544L18.6031 8.352L17.2031 7.904L17.5551 6.784L18.9631 7.232V5.768H20.1391V7.232L21.5391 6.784L21.8991 7.904L20.4911 8.352L21.3631 9.544L20.4111 10.232L19.5471 9.04L18.6751 10.232Z" fill="var(--fill-0, white)"/>
<path d="M24.4095 10.232L23.4655 9.544L24.3375 8.352L22.9375 7.904L23.2895 6.784L24.6975 7.232V5.768H25.8735V7.232L27.2735 6.784L27.6335 7.904L26.2255 8.352L27.0975 9.544L26.1455 10.232L25.2815 9.04L24.4095 10.232Z" fill="var(--fill-0, white)"/>
<path d="M30.1439 10.232L29.1999 9.544L30.0719 8.352L28.6719 7.904L29.0239 6.784L30.4319 7.232V5.768H31.6079V7.232L33.0079 6.784L33.3679 7.904L31.9599 8.352L32.8319 9.544L31.8799 10.232L31.0159 9.04L30.1439 10.232Z" fill="var(--fill-0, white)"/>
<path d="M35.8783 10.232L34.9342 9.544L35.8063 8.352L34.4062 7.904L34.7583 6.784L36.1662 7.232V5.768H37.3423V7.232L38.7422 6.784L39.1022 7.904L37.6943 8.352L38.5662 9.544L37.6143 10.232L36.7503 9.04L35.8783 10.232Z" fill="var(--fill-0, white)"/>
<path d="M41.6126 10.232L40.6686 9.544L41.5406 8.352L40.1406 7.904L40.4926 6.784L41.9006 7.232V5.768H43.0766V7.232L44.4766 6.784L44.8366 7.904L43.4286 8.352L44.3006 9.544L43.3486 10.232L42.4846 9.04L41.6126 10.232Z" fill="var(--fill-0, white)"/>
<path d="M47.347 10.232L46.403 9.544L47.275 8.352L45.875 7.904L46.227 6.784L47.635 7.232V5.768H48.811V7.232L50.211 6.784L50.571 7.904L49.163 8.352L50.035 9.544L49.083 10.232L48.219 9.04L47.347 10.232Z" fill="var(--fill-0, white)"/>
<path d="M53.0814 10.232L52.1374 9.544L53.0094 8.352L51.6094 7.904L51.9614 6.784L53.3694 7.232V5.768H54.5454V7.232L55.9454 6.784L56.3054 7.904L54.8974 8.352L55.7694 9.544L54.8174 10.232L53.9534 9.04L53.0814 10.232Z" fill="var(--fill-0, white)"/>
</g>
<g id="basil:edit-outline">
<path id="Vector" fill-rule="evenodd" clip-rule="evenodd" d="M78.6087 3.61067C78.672 3.7068 78.7003 3.82186 78.6886 3.93639C78.6769 4.05093 78.6261 4.15793 78.5447 4.23933L72.416 10.3673C72.3533 10.43 72.2751 10.4749 72.1894 10.4973L69.6367 11.164C69.5523 11.186 69.4637 11.1856 69.3795 11.1627C69.2953 11.1399 69.2186 11.0954 69.157 11.0337C69.0953 10.9721 69.0508 10.8954 69.028 10.8112C69.0051 10.727 69.0047 10.6384 69.0267 10.554L69.6934 8.002C69.7133 7.92557 69.75 7.85453 69.8007 7.794L75.952 1.64667C76.0458 1.55303 76.1729 1.50044 76.3054 1.50044C76.4379 1.50044 76.565 1.55303 76.6587 1.64667L78.5447 3.532C78.568 3.55656 78.5894 3.58286 78.6087 3.61067ZM77.484 3.88533L76.3054 2.70733L70.6267 8.386L70.21 9.98133L71.8054 9.56467L77.484 3.88533Z" fill="var(--fill-0, white)"/>
<path id="Vector_2" d="M77.3994 11.44C77.5816 9.88263 77.6398 8.31325 77.5734 6.74667C77.5718 6.70975 77.5779 6.6729 77.5914 6.63847C77.6048 6.60404 77.6252 6.57278 77.6514 6.54667L78.3074 5.89067C78.3253 5.87264 78.348 5.86017 78.3729 5.85476C78.3977 5.84935 78.4236 5.85123 78.4474 5.86018C78.4712 5.86912 78.4919 5.88474 78.507 5.90517C78.5222 5.9256 78.5311 5.94996 78.5327 5.97533C78.6558 7.83617 78.609 9.70435 78.3927 11.5567C78.2354 12.9047 77.1527 13.9613 75.8107 14.1113C73.4809 14.3692 71.1298 14.3692 68.8 14.1113C67.4587 13.9613 66.3754 12.9047 66.218 11.5567C65.9421 9.19358 65.9421 6.80642 66.218 4.44333C66.3754 3.09533 67.458 2.03867 68.8 1.88867C70.5683 1.69337 72.3498 1.64587 74.126 1.74667C74.1515 1.74849 74.1758 1.75756 74.1962 1.77281C74.2167 1.78805 74.2323 1.80883 74.2413 1.83268C74.2503 1.85653 74.2522 1.88246 74.2469 1.90738C74.2416 1.93231 74.2293 1.9552 74.2114 1.97333L73.5494 2.63467C73.5235 2.66056 73.4926 2.68085 73.4585 2.69427C73.4244 2.70769 73.388 2.71395 73.3514 2.71267C71.8692 2.6619 70.3853 2.71872 68.9114 2.88267C68.4807 2.93034 68.0786 3.12182 67.7701 3.42617C67.4617 3.73052 67.2648 4.12997 67.2114 4.56C66.9439 6.84554 66.9439 9.15446 67.2114 11.44C67.2648 11.87 67.4617 12.2695 67.7701 12.5738C68.0786 12.8782 68.4807 13.0697 68.9114 13.1173C71.148 13.3673 73.4627 13.3673 75.7 13.1173C76.1307 13.0697 76.5328 12.8782 76.8413 12.5738C77.1497 12.2695 77.3459 11.87 77.3994 11.44Z" fill="var(--fill-0, white)"/>
</g>
</g>
</svg>
