<svg width="57" height="5" viewBox="0 0 57 5" fill="none" xmlns="http://www.w3.org/2000/svg">
<path d="M1.472 4.464L0.528 3.776L1.4 2.584L0 2.136L0.352 1.016L1.76 1.464V0H2.936V1.464L4.336 1.016L4.696 2.136L3.288 2.584L4.16 3.776L3.208 4.464L2.344 3.272L1.472 4.464Z" fill="white"/>
<path d="M7.20638 4.464L6.26237 3.776L7.13438 2.584L5.73438 2.136L6.08638 1.016L7.49438 1.464V0H8.67037V1.464L10.0704 1.016L10.4304 2.136L9.02238 2.584L9.89438 3.776L8.94238 4.464L8.07837 3.272L7.20638 4.464Z" fill="white"/>
<path d="M12.9408 4.464L11.9967 3.776L12.8687 2.584L11.4688 2.136L11.8208 1.016L13.2288 1.464V0H14.4047V1.464L15.8048 1.016L16.1648 2.136L14.7568 2.584L15.6288 3.776L14.6768 4.464L13.8127 3.272L12.9408 4.464Z" fill="white"/>
<path d="M18.6751 4.464L17.7311 3.776L18.6031 2.584L17.2031 2.136L17.5551 1.016L18.9631 1.464V0H20.1391V1.464L21.5391 1.016L21.8991 2.136L20.4911 2.584L21.3631 3.776L20.4111 4.464L19.5471 3.272L18.6751 4.464Z" fill="white"/>
<path d="M24.4095 4.464L23.4655 3.776L24.3375 2.584L22.9375 2.136L23.2895 1.016L24.6975 1.464V0H25.8735V1.464L27.2735 1.016L27.6335 2.136L26.2255 2.584L27.0975 3.776L26.1455 4.464L25.2815 3.272L24.4095 4.464Z" fill="white"/>
<path d="M30.1439 4.464L29.1999 3.776L30.0719 2.584L28.6719 2.136L29.0239 1.016L30.4319 1.464V0H31.6079V1.464L33.0079 1.016L33.3679 2.136L31.9599 2.584L32.8319 3.776L31.8799 4.464L31.0159 3.272L30.1439 4.464Z" fill="white"/>
<path d="M35.8783 4.464L34.9342 3.776L35.8063 2.584L34.4062 2.136L34.7583 1.016L36.1662 1.464V0H37.3423V1.464L38.7422 1.016L39.1022 2.136L37.6943 2.584L38.5662 3.776L37.6143 4.464L36.7503 3.272L35.8783 4.464Z" fill="white"/>
<path d="M41.6126 4.464L40.6686 3.776L41.5406 2.584L40.1406 2.136L40.4926 1.016L41.9006 1.464V0H43.0766V1.464L44.4766 1.016L44.8366 2.136L43.4286 2.584L44.3006 3.776L43.3486 4.464L42.4846 3.272L41.6126 4.464Z" fill="white"/>
<path d="M47.347 4.464L46.403 3.776L47.275 2.584L45.875 2.136L46.227 1.016L47.635 1.464V0H48.811V1.464L50.211 1.016L50.571 2.136L49.163 2.584L50.035 3.776L49.083 4.464L48.219 3.272L47.347 4.464Z" fill="white"/>
<path d="M53.0814 4.464L52.1374 3.776L53.0094 2.584L51.6094 2.136L51.9614 1.016L53.3694 1.464V0H54.5454V1.464L55.9454 1.016L56.3054 2.136L54.8974 2.584L55.7694 3.776L54.8174 4.464L53.9534 3.272L53.0814 4.464Z" fill="white"/>
</svg>
