<svg preserveAspectRatio="none" width="100%" height="100%" overflow="visible" style="display: block;" viewBox="0 0 16 16" fill="none" xmlns="http://www.w3.org/2000/svg">
<g id="basil:edit-outline">
<path id="Vector" fill-rule="evenodd" clip-rule="evenodd" d="M14.3033 3.61067C14.3667 3.7068 14.3949 3.82186 14.3832 3.93639C14.3716 4.05093 14.3207 4.15793 14.2393 4.23933L8.11067 10.3673C8.04797 10.43 7.96974 10.4749 7.884 10.4973L5.33133 11.164C5.24695 11.186 5.15828 11.1856 5.07413 11.1627C4.98997 11.1399 4.91326 11.0954 4.8516 11.0337C4.78993 10.9721 4.74547 10.8954 4.72262 10.8112C4.69977 10.727 4.69933 10.6384 4.72133 10.554L5.388 8.002C5.40793 7.92557 5.4446 7.85453 5.49533 7.794L11.6467 1.64667C11.7404 1.55303 11.8675 1.50044 12 1.50044C12.1325 1.50044 12.2596 1.55303 12.3533 1.64667L14.2393 3.532C14.2626 3.55656 14.284 3.58286 14.3033 3.61067ZM13.1787 3.88533L12 2.70733L6.32133 8.386L5.90467 9.98133L7.5 9.56467L13.1787 3.88533Z" fill="var(--fill-0, white)"/>
<path id="Vector_2" d="M13.094 11.44C13.2762 9.88263 13.3344 8.31325 13.268 6.74667C13.2664 6.70975 13.2726 6.6729 13.286 6.63847C13.2994 6.60404 13.3198 6.57278 13.346 6.54667L14.002 5.89067C14.0199 5.87264 14.0427 5.86017 14.0675 5.85476C14.0924 5.84935 14.1182 5.85123 14.142 5.86018C14.1658 5.86912 14.1865 5.88474 14.2017 5.90517C14.2168 5.9256 14.2257 5.94996 14.2273 5.97533C14.3505 7.83617 14.3036 9.70435 14.0873 11.5567C13.93 12.9047 12.8473 13.9613 11.5053 14.1113C9.17556 14.3692 6.82444 14.3692 4.49467 14.1113C3.15333 13.9613 2.07 12.9047 1.91267 11.5567C1.63674 9.19358 1.63674 6.80642 1.91267 4.44333C2.07 3.09533 3.15267 2.03867 4.49467 1.88867C6.26297 1.69337 8.04447 1.64587 9.82067 1.74667C9.84609 1.74849 9.87045 1.75756 9.89087 1.77281C9.9113 1.78805 9.92692 1.80883 9.9359 1.83268C9.94488 1.85653 9.94684 1.88246 9.94154 1.90738C9.93624 1.93231 9.92391 1.9552 9.906 1.97333L9.244 2.63467C9.21812 2.66056 9.18718 2.68085 9.15312 2.69427C9.11905 2.70769 9.08259 2.71395 9.046 2.71267C7.56384 2.6619 6.07994 2.71872 4.606 2.88267C4.17529 2.93034 3.77323 3.12182 3.46477 3.42617C3.1563 3.73052 2.95945 4.12997 2.906 4.56C2.63857 6.84554 2.63857 9.15446 2.906 11.44C2.95945 11.87 3.1563 12.2695 3.46477 12.5738C3.77323 12.8782 4.17529 13.0697 4.606 13.1173C6.84267 13.3673 9.15733 13.3673 11.3947 13.1173C11.8254 13.0697 12.2274 12.8782 12.5359 12.5738C12.8444 12.2695 13.0406 11.87 13.094 11.44Z" fill="var(--fill-0, white)"/>
</g>
</svg>
