<svg preserveAspectRatio="none" width="100%" height="100%" overflow="visible" style="display: block;" viewBox="0 0 13.0833 13.1374" fill="none" xmlns="http://www.w3.org/2000/svg">
<g id="Group">
<path id="Vector" d="M12.7917 6.54036C12.7936 7.78119 12.4246 8.99428 11.7319 10.0238C11.1607 10.8759 10.3883 11.5741 9.48302 12.0567C8.57775 12.5392 7.56751 12.7913 6.54166 12.7905C5.51581 12.7913 4.50558 12.5392 3.60031 12.0567C2.69504 11.5741 1.92263 10.8759 1.35139 10.0238C0.807451 9.21294 0.461043 8.28593 0.339935 7.31708C0.218826 6.34822 0.326386 5.36447 0.653991 4.44468C0.981597 3.52489 1.52014 2.69464 2.22643 2.0205C2.93273 1.34637 3.78715 0.847083 4.72118 0.562682C5.65522 0.27828 6.64289 0.216671 7.60503 0.382793C8.56716 0.548915 9.477 0.938147 10.2616 1.51929C11.0462 2.10043 11.6837 2.85731 12.1231 3.72926C12.5625 4.60121 12.7914 5.56397 12.7917 6.54036Z" stroke="var(--stroke-0, white)" stroke-width="0.583333"/>
<path id="Vector_2" d="M7.58265 4.45667C7.58265 4.73295 7.4729 4.9979 7.27755 5.19326C7.0822 5.38861 6.81725 5.49836 6.54098 5.49836V6.19282C6.76897 6.19282 6.99473 6.14792 7.20536 6.06067C7.41599 5.97342 7.60738 5.84553 7.76859 5.68432C7.92981 5.5231 8.05769 5.33171 8.14494 5.12107C8.23218 4.91043 8.27709 4.68467 8.27709 4.45667H7.58265ZM6.54098 5.49836C6.26471 5.49836 5.99976 5.38861 5.80441 5.19326C5.60906 4.9979 5.49931 4.73295 5.49931 4.45667H4.80487C4.80487 4.68467 4.84978 4.91043 4.93702 5.12107C5.02427 5.33171 5.15215 5.5231 5.31336 5.68432C5.63895 6.00991 6.08053 6.19282 6.54098 6.19282V5.49836ZM5.49931 4.45667C5.49931 4.1804 5.60906 3.91544 5.80441 3.72009C5.99976 3.52473 6.26471 3.41498 6.54098 3.41498V2.72052C6.08053 2.72052 5.63895 2.90344 5.31336 3.22903C4.98778 3.55462 4.80487 3.99622 4.80487 4.45667H5.49931ZM6.54098 3.41498C6.81725 3.41498 7.0822 3.52473 7.27755 3.72009C7.4729 3.91544 7.58265 4.1804 7.58265 4.45667H8.27709C8.27709 3.99622 8.09418 3.55462 7.76859 3.22903C7.44301 2.90344 7.00142 2.72052 6.54098 2.72052V3.41498ZM1.79515 10.6068L1.46182 10.5082L1.40834 10.6895L1.53126 10.8332L1.79515 10.6068ZM11.2868 10.6068L11.5507 10.8332L11.6736 10.6895L11.6194 10.5082L11.2868 10.6068ZM4.45765 8.97067H8.62431V8.27621H4.45765V8.97067ZM4.45765 8.27621C3.78463 8.27611 3.12957 8.49329 2.58991 8.89544C2.05025 9.2976 1.65415 9.86324 1.46182 10.5082L2.12779 10.7061C2.27749 10.2045 2.58512 9.76468 3.00491 9.45199C3.42469 9.1393 3.93421 8.97049 4.45765 8.97067V8.27621ZM6.54098 12.443C5.68908 12.4439 4.84713 12.2599 4.07322 11.9038C3.29931 11.5478 2.61188 11.028 2.05834 10.3804L1.53126 10.8332C2.15005 11.5567 2.91837 12.1373 3.78325 12.5351C4.64813 12.9329 5.589 13.1384 6.54098 13.1374V12.443ZM8.62431 8.97067C9.14784 8.97053 9.65742 9.13944 10.0772 9.45227C10.497 9.76509 10.8046 10.2051 10.9542 10.7068L11.6194 10.5082C11.4271 9.86324 11.0317 9.2976 10.492 8.89544C9.95239 8.49329 9.29733 8.27611 8.62431 8.27621V8.97067ZM11.0236 10.3804C10.4701 11.028 9.78264 11.5478 9.00874 11.9038C8.23483 12.2599 7.39288 12.4439 6.54098 12.443V13.1374C7.49296 13.1384 8.43382 12.9329 9.29871 12.5351C10.1636 12.1373 10.9319 11.5567 11.5507 10.8332L11.0236 10.3804Z" fill="var(--fill-0, white)"/>
</g>
</svg>
