<svg preserveAspectRatio="none" width="100%" height="100%" overflow="visible" style="display: block;" viewBox="0 0 30 30" fill="none" xmlns="http://www.w3.org/2000/svg">
<g id="Vector" filter="url(#filter0_d_0_29)">
<path d="M15 18.3747L17.4249 19.9093C17.869 20.1906 18.4124 19.7748 18.2956 19.249L17.6528 16.3632L19.7973 14.4189C20.1888 14.0643 19.9784 13.3918 19.4642 13.349L16.6419 13.0983L15.5376 10.3714C15.3389 9.87619 14.6611 9.87619 14.4624 10.3714L13.3581 13.0922L10.5358 13.3428C10.0216 13.3856 9.81124 14.0582 10.2027 14.4128L12.3472 16.3571L11.7044 19.2429C11.5876 19.7687 12.131 20.1845 12.5751 19.9032L15 18.3747Z" fill="var(--fill-0, #FF975D)"/>
</g>
<defs>
<filter id="filter0_d_0_29" x="2.68759e-09" y="9.11062e-09" width="30" height="30" filterUnits="userSpaceOnUse" color-interpolation-filters="sRGB">
<feFlood flood-opacity="0" result="BackgroundImageFix"/>
<feColorMatrix in="SourceAlpha" type="matrix" values="0 0 0 0 0 0 0 0 0 0 0 0 0 0 0 0 0 0 127 0" result="hardAlpha"/>
<feOffset/>
<feGaussianBlur stdDeviation="5"/>
<feComposite in2="hardAlpha" operator="out"/>
<feColorMatrix type="matrix" values="0 0 0 0 1 0 0 0 0 0.360784 0 0 0 0 0 0 0 0 0.4 0"/>
<feBlend mode="normal" in2="BackgroundImageFix" result="effect1_dropShadow_0_29"/>
<feBlend mode="normal" in="SourceGraphic" in2="effect1_dropShadow_0_29" result="shape"/>
</filter>
</defs>
</svg>
