<svg preserveAspectRatio="none" width="100%" height="100%" overflow="visible" style="display: block;" viewBox="0 0 24 24" fill="none" xmlns="http://www.w3.org/2000/svg">
<g id="carbon:star-review">
<path id="Vector" d="M13.5 19.5H19.5V21H13.5V19.5ZM13.5 16.5H22.5V18H13.5V16.5ZM13.5 13.5H22.5V15H13.5V13.5Z" fill="var(--fill-0, white)"/>
<path id="Vector_2" d="M15.4117 8.41275L12 1.5L8.58825 8.41275L0.96 9.52125L6.48 14.9025L5.1765 22.5L10.5 19.7017V18.0068L7.16925 19.758L7.95825 15.156L8.09175 14.3782L7.527 13.8285L4.1835 10.5682L8.80425 9.897L9.58425 9.78375L9.93375 9.0765L12 4.88925L14.0662 9.0765L14.4157 9.78375L15.1957 9.897L20.7862 10.7108L21 9.225L15.4117 8.41275Z" fill="var(--fill-0, white)"/>
</g>
</svg>
