<svg preserveAspectRatio="none" width="100%" height="100%" overflow="visible" style="display: block;" viewBox="0 0 24 24" fill="none" xmlns="http://www.w3.org/2000/svg">
<g id="mynaui:send">
<path id="Vector" d="M14 10L11 13M20.288 3.031C20.3829 2.99825 20.4851 2.99287 20.5829 3.01545C20.6807 3.03803 20.7702 3.08768 20.8411 3.15871C20.912 3.22974 20.9615 3.3193 20.984 3.41714C21.0064 3.51498 21.0009 3.61716 20.968 3.712L15.044 20.642C15.0086 20.7432 14.9435 20.8314 14.8573 20.8952C14.7711 20.959 14.6677 20.9954 14.5606 20.9997C14.4534 21.004 14.3475 20.976 14.2564 20.9194C14.1654 20.8627 14.0935 20.78 14.05 20.682L10.831 13.44C10.7768 13.3196 10.6804 13.2232 10.56 13.169L3.318 9.949C3.22029 9.90538 3.13792 9.83346 3.0815 9.74253C3.02509 9.65161 2.99724 9.54586 3.00155 9.43895C3.00585 9.33203 3.04212 9.22887 3.10566 9.14277C3.16921 9.05668 3.2571 8.99162 3.358 8.956L20.288 3.031Z" stroke="var(--stroke-0, white)" stroke-width="1.5" stroke-linecap="round" stroke-linejoin="round"/>
</g>
</svg>
