<svg  viewBox="0 0 12.3941 12.3941" fill="none" xmlns="http://www.w3.org/2000/svg">
<g id="Group">
<path id="Vector" d="M6.83519 12.3941L12.3941 6.83512L11.7313 6.17231L11.1758 6.72781L10.5063 6.05828C9.7385 5.29053 8.61413 5.00275 7.57191 5.30716L6.88684 5.50728L7.08697 4.82222C7.39144 3.78 7.10359 2.65559 6.33584 1.88784L5.66631 1.21831L6.22181 0.662812L5.559 0L0 5.55891L0.662813 6.22172L1.21831 5.66622L1.88784 6.33575C2.45322 6.90112 3.21197 7.20625 3.98891 7.20625C4.26703 7.20625 4.5475 7.16716 4.82225 7.08691L5.50731 6.88678L5.30719 7.57184C5.00272 8.61406 5.29056 9.73847 6.05831 10.5062L6.72784 11.1757L6.17234 11.7312L6.83519 12.3941ZM7.58259 9.27428L7.96222 7.97469L9.26178 7.59506C9.61931 7.49059 9.99297 7.48038 10.3441 7.55956L7.55575 10.3479C7.47275 9.99666 7.47988 9.62584 7.58259 9.27428V9.27428ZM4.55938 6.18713C3.84591 6.39553 3.07622 6.19853 2.55066 5.67294L1.88113 5.00341L5.00347 1.88106L5.67303 2.55063C6.19859 3.07619 6.39563 3.84587 6.18722 4.55934L5.81922 5.81913L4.55938 6.18713ZM6.20694 7.83469L6.57494 6.57491L7.83472 6.20691C8.47825 6.01891 9.16753 6.16091 9.68216 6.57625C9.45281 6.59034 9.2235 6.62972 8.99897 6.69531L7.20644 7.21897L6.68281 9.01147C6.61963 9.22781 6.58163 9.44922 6.56778 9.67134C6.15909 9.15788 6.02025 8.47381 6.20694 7.83469Z" fill="var(--fill-0, white)"/>
</g>
</svg>
