<svg  viewBox="0 0 12.823 14.3333" fill="none" xmlns="http://www.w3.org/2000/svg">
<g id="Group">
<path id="Vector" d="M6.32296 7.16667C8.16391 7.16667 9.65629 5.67428 9.65629 3.83333C9.65629 1.99238 8.16391 0.5 6.32296 0.5C4.48201 0.5 2.98962 1.99238 2.98962 3.83333C2.98962 5.67428 4.48201 7.16667 6.32296 7.16667Z" stroke="var(--stroke-0, white)"/>
<path id="Vector_2" d="M9.65629 13.8333H1.83362C1.64455 13.8334 1.45762 13.7932 1.28525 13.7155C1.11289 13.6378 0.959025 13.5243 0.833874 13.3825C0.708724 13.2408 0.615149 13.0741 0.55936 12.8934C0.503571 12.7127 0.486845 12.5223 0.51029 12.3347L0.770291 10.252C0.830755 9.76815 1.0659 9.32305 1.43151 9.00041C1.79712 8.67777 2.26801 8.49981 2.75562 8.5H2.98962M9.65629 10.1667L10.6563 11.1667L12.323 9.16667" stroke="var(--stroke-0, white)" stroke-linecap="round" stroke-linejoin="round"/>
</g>
</svg>
