<svg  viewBox="0 0 16 15.9973" fill="none" xmlns="http://www.w3.org/2000/svg">
<g id="Group">
<path id="Vector" d="M1.04308 6.78492C1.29246 5.34779 1.97152 4.04092 3.00686 3.0056C4.2153 1.79717 5.81871 1.06835 7.52171 0.953479C9.05146 0.850448 10.5675 1.24545 11.8404 2.07126C11.7904 2.21745 11.764 2.37238 11.764 2.53145C11.764 2.91017 11.9115 3.26623 12.1793 3.53404C12.4557 3.81045 12.8188 3.94867 13.1819 3.94867C13.545 3.94867 13.9081 3.81045 14.1845 3.53404C14.4523 3.26623 14.5998 2.9102 14.5998 2.53145C14.5998 2.1527 14.4523 1.79664 14.1845 1.52885C13.9167 1.26104 13.5607 1.11354 13.1819 1.11354C12.9091 1.11354 12.6483 1.19045 12.4235 1.33332C10.9663 0.364885 9.22059 -0.100583 7.45862 0.018198C5.52927 0.148385 3.7129 0.973948 2.34405 2.34282C1.17136 3.51551 0.402112 4.99613 0.119518 6.62467C-0.1567 8.21651 0.0479871 9.83279 0.711456 11.2988L1.56543 10.9124C0.979707 9.61813 0.799113 8.19092 1.04308 6.78492V6.78492ZM13.1724 2.01179C13.4593 2.01179 13.6919 2.24439 13.6919 2.53132C13.6919 2.81826 13.4593 3.05085 13.1724 3.05085C12.8854 3.05085 12.6528 2.81826 12.6528 2.53132C12.6528 2.24439 12.8854 2.01179 13.1724 2.01179Z" fill="var(--fill-0, white)"/>
<path id="Vector_2" d="M15.3387 4.81149L14.4788 5.18464C15.0366 6.46989 15.1987 7.88096 14.9476 9.2653C14.6908 10.6814 14.015 11.97 12.9933 12.9917C11.7861 14.1989 10.1845 14.9276 8.48342 15.0435C8.32217 15.0545 8.16133 15.06 8.00064 15.06C6.61592 15.0599 5.26192 14.6543 4.1112 13.8941C4.28642 13.3954 4.17505 12.8176 3.77699 12.4195C3.50917 12.1517 3.15314 12.0042 2.77439 12.0042C2.39564 12.0042 2.03958 12.1517 1.7718 12.4195C1.21895 12.9723 1.21895 13.8718 1.7718 14.4246C2.03961 14.6925 2.39564 14.8399 2.77439 14.8399C3.04264 14.8399 3.29936 14.7656 3.52155 14.6273C4.84117 15.5203 6.40295 15.9973 8.0007 15.9973C8.18249 15.9973 8.36477 15.9911 8.54717 15.9787C10.4743 15.8474 12.2887 15.022 13.656 13.6545C14.8134 12.4972 15.5789 11.0373 15.8699 9.43258C16.1542 7.86524 15.9705 6.2673 15.3387 4.81149ZM2.77436 13.9416C2.48742 13.9416 2.25483 13.709 2.25483 13.422C2.25483 13.1351 2.48742 12.9025 2.77436 12.9025C3.0613 12.9025 3.29389 13.1351 3.29389 13.422C3.29389 13.709 3.0613 13.9416 2.77436 13.9416Z" fill="var(--fill-0, white)"/>
</g>
</svg>
