<svg  viewBox="0 0 16 16" fill="none" xmlns="http://www.w3.org/2000/svg">
<g id="material-symbols:motion-photos-paused-outline-rounded">
<path id="Vector" d="M7.142 9.80867C7.26956 9.68067 7.33333 9.52222 7.33333 9.33333V6.66667C7.33333 6.47778 7.26933 6.31956 7.14133 6.192C7.01333 6.06444 6.85511 6.00044 6.66667 6C6.47822 5.99956 6.32 6.06356 6.192 6.192C6.064 6.32044 6 6.47867 6 6.66667V9.33333C6 9.52222 6.064 9.68067 6.192 9.80867C6.32 9.93667 6.47822 10.0004 6.66667 10C6.85511 9.99956 7.01356 9.93556 7.142 9.808M9.80867 9.808C9.93622 9.68089 10 9.52267 10 9.33333V6.66667C10 6.47778 9.936 6.31956 9.808 6.192C9.68 6.06444 9.52178 6.00044 9.33333 6C9.14489 5.99956 8.98667 6.06356 8.85867 6.192C8.73067 6.32044 8.66667 6.47867 8.66667 6.66667V9.33333C8.66667 9.52222 8.73067 9.68067 8.85867 9.80867C8.98667 9.93667 9.14489 10.0004 9.33333 10C9.52178 9.99956 9.68022 9.93556 9.80867 9.808ZM8 14.6667C7.07778 14.6667 6.21111 14.4916 5.4 14.1413C4.58889 13.7911 3.88333 13.3162 3.28333 12.7167C2.68333 12.1171 2.20844 11.4116 1.85867 10.6C1.50889 9.78844 1.33378 8.92178 1.33333 8C1.33333 7.64444 1.36111 7.28889 1.41667 6.93333C1.47222 6.57778 1.55556 6.22778 1.66667 5.88333C1.72222 5.70556 1.83622 5.58622 2.00867 5.52533C2.18111 5.46444 2.34489 5.47822 2.5 5.56667C2.66667 5.65556 2.78622 5.78622 2.85867 5.95867C2.93111 6.13111 2.93933 6.31156 2.88333 6.5C2.81667 6.74444 2.76378 6.99178 2.72467 7.242C2.68556 7.49222 2.66622 7.74489 2.66667 8C2.66667 9.48889 3.18333 10.75 4.21667 11.7833C5.25 12.8167 6.51111 13.3333 8 13.3333C9.48889 13.3333 10.75 12.8167 11.7833 11.7833C12.8167 10.75 13.3333 9.48889 13.3333 8C13.3333 6.51111 12.8167 5.25 11.7833 4.21667C10.75 3.18333 9.48889 2.66667 8 2.66667C7.73333 2.66667 7.46956 2.686 7.20867 2.72467C6.94778 2.76333 6.68933 2.82178 6.43333 2.9C6.24444 2.95556 6.06667 2.95 5.9 2.88333C5.73333 2.81667 5.61111 2.7 5.53333 2.53333C5.45556 2.36667 5.45267 2.19733 5.52467 2.02533C5.59667 1.85333 5.72178 1.73933 5.9 1.68333C6.23333 1.56111 6.57778 1.47222 6.93333 1.41667C7.28889 1.36111 7.64444 1.33333 8 1.33333C8.92222 1.33333 9.78889 1.50844 10.6 1.85867C11.4111 2.20889 12.1167 2.68378 12.7167 3.28333C13.3167 3.88289 13.7918 4.58844 14.142 5.4C14.4922 6.21156 14.6671 7.07822 14.6667 8C14.6662 8.92178 14.4911 9.78844 14.1413 10.6C13.7916 11.4116 13.3167 12.1171 12.7167 12.7167C12.1167 13.3162 11.4111 13.7913 10.6 14.142C9.78889 14.4927 8.92222 14.6676 8 14.6667ZM2.95867 4.37533C2.764 4.18067 2.66667 3.94444 2.66667 3.66667C2.66667 3.38889 2.764 3.15289 2.95867 2.95867C3.15333 2.76444 3.38933 2.66711 3.66667 2.66667C3.944 2.66622 4.18022 2.76356 4.37533 2.95867C4.57044 3.15378 4.66756 3.38978 4.66667 3.66667C4.66578 3.94356 4.56867 4.17978 4.37533 4.37533C4.182 4.57089 3.94578 4.668 3.66667 4.66667C3.38756 4.66533 3.15156 4.56822 2.95867 4.37533Z" fill="var(--fill-0, #232330)"/>
</g>
</svg>
