<svg  viewBox="0 0 14.6667 14.6667" fill="none" xmlns="http://www.w3.org/2000/svg">
<g id="Group">
<path id="Vector" fill-rule="evenodd" clip-rule="evenodd" d="M7.33333 1.33333C6.5454 1.33333 5.76519 1.48853 5.03723 1.79006C4.30928 2.09158 3.64784 2.53354 3.09069 3.09069C2.53354 3.64784 2.09158 4.30928 1.79006 5.03723C1.48853 5.76519 1.33333 6.5454 1.33333 7.33333C1.33333 8.12126 1.48853 8.90148 1.79006 9.62943C2.09158 10.3574 2.53354 11.0188 3.09069 11.576C3.64784 12.1331 4.30928 12.5751 5.03723 12.8766C5.76519 13.1781 6.5454 13.3333 7.33333 13.3333C8.92463 13.3333 10.4508 12.7012 11.576 11.576C12.7012 10.4508 13.3333 8.92463 13.3333 7.33333C13.3333 5.74203 12.7012 4.21591 11.576 3.09069C10.4508 1.96547 8.92463 1.33333 7.33333 1.33333ZM0 7.33333C0 3.28333 3.28333 0 7.33333 0C11.3833 0 14.6667 3.28333 14.6667 7.33333C14.6667 11.3833 11.3833 14.6667 7.33333 14.6667C3.28333 14.6667 0 11.3833 0 7.33333Z" fill="var(--fill-0, white)"/>
<path id="Vector_2" fill-rule="evenodd" clip-rule="evenodd" d="M11.072 5.33333L5.92133 10.484L3.33333 7.39533L4.34067 6.522L5.99133 8.52867L10.1293 4.39067L11.072 5.33333Z" fill="var(--fill-0, white)"/>
</g>
</svg>
