<svg  viewBox="0 0 13.6688 13.6688" fill="none" xmlns="http://www.w3.org/2000/svg">
<g id="Group">
<path id="Vector" d="M3.16667 6.69876C6.68934 0.133431 11.0753 0.0574307 12.8287 0.840097C13.6113 2.59343 13.5353 6.97943 6.97 10.5021C6.902 10.1108 6.52334 9.08543 5.55334 8.11543C4.58334 7.14543 3.558 6.76676 3.16667 6.69876Z" stroke="var(--stroke-0, white)" stroke-linecap="round" stroke-linejoin="round"/>
<path id="Vector_2" d="M7.83334 10.3688C9.19534 10.9908 9.34 12.1068 9.52934 13.1688C9.52934 13.1688 12.3813 11.2008 10.5573 8.5021M3.3 5.83543C2.678 4.47343 1.562 4.3281 0.500002 4.13943C0.500002 4.13943 2.468 1.28743 5.16667 3.11143M2.63934 8.5021C2.218 8.92343 1.502 10.1448 2.00734 11.6614C3.524 12.1668 4.74534 11.4508 5.16667 11.0294" stroke="var(--stroke-0, white)" stroke-linecap="round" stroke-linejoin="round"/>
<path id="Vector_3" d="M10.5633 4.33743C10.5633 4.17573 10.5315 4.01561 10.4696 3.86622C10.4077 3.71683 10.317 3.58109 10.2027 3.46675C10.0883 3.35241 9.95261 3.26171 9.80321 3.19983C9.65382 3.13795 9.4937 3.1061 9.332 3.1061C9.1703 3.1061 9.01018 3.13795 8.86079 3.19983C8.7114 3.26171 8.57566 3.35241 8.46132 3.46675C8.34698 3.58109 8.25628 3.71683 8.1944 3.86622C8.13252 4.01561 8.10067 4.17573 8.10067 4.33743C8.10067 4.664 8.2304 4.97719 8.46132 5.20811C8.69224 5.43903 9.00543 5.56876 9.332 5.56876C9.65857 5.56876 9.97177 5.43903 10.2027 5.20811C10.4336 4.97719 10.5633 4.664 10.5633 4.33743Z" stroke="var(--stroke-0, white)"/>
</g>
</svg>
