<svg viewBox="0 0 16 16" fill="none" xmlns="http://www.w3.org/2000/svg">
<path d="M8.33333 4.6C9.28 4.6 9.75333 4.96 9.92667 5.53333C10.0133 5.82 10.3 6 10.6 6H10.64C11.1067 6 11.4533 5.52667 11.2867 5.09333C10.9933 4.32667 10.3467 3.70667 9.33333 3.46V3C9.33333 2.44667 8.88667 2 8.33333 2C7.78 2 7.33333 2.44667 7.33333 3V3.44C7.07333 3.49333 6.83333 3.58 6.6 3.68L7.60667 4.68667C7.82 4.63333 8.06667 4.6 8.33333 4.6ZM3.18 3.08C3.1182 3.14168 3.06917 3.21493 3.03571 3.29558C3.00226 3.37623 2.98504 3.46269 2.98504 3.55C2.98504 3.63731 3.00226 3.72377 3.03571 3.80442C3.06917 3.88507 3.1182 3.95832 3.18 4.02L5 5.84667C5 7.23333 6.04 7.99333 7.60667 8.45333L9.94667 10.7933C9.72 11.12 9.24667 11.4 8.33333 11.4C7.23333 11.4 6.66667 11.0067 6.44667 10.4467C6.34667 10.1867 6.12 10 5.84667 10H5.73333C5.25333 10 4.90667 10.4933 5.1 10.9267C5.49333 11.8133 6.36 12.34 7.34 12.5533V13C7.34 13.5533 7.78667 14 8.34 14C8.89333 14 9.34 13.5533 9.34 13V12.5667C9.98 12.4467 10.56 12.2 10.98 11.82L11.9867 12.8267C12.0484 12.8884 12.1217 12.9373 12.2023 12.9708C12.2829 13.0042 12.3694 13.0213 12.4567 13.0213C12.544 13.0213 12.6304 13.0042 12.711 12.9708C12.7917 12.9373 12.8649 12.8884 12.9267 12.8267C12.9884 12.7649 13.0373 12.6917 13.0708 12.611C13.1042 12.5304 13.1213 12.444 13.1213 12.3567C13.1213 12.2694 13.1042 12.1829 13.0708 12.1023C13.0373 12.0217 12.9884 11.9484 12.9267 11.8867L4.12 3.08C4.05832 3.0182 3.98506 2.96917 3.90442 2.93571C3.82377 2.90226 3.73731 2.88504 3.65 2.88504C3.56269 2.88504 3.47623 2.90226 3.39558 2.93571C3.31493 2.96917 3.24168 3.0182 3.18 3.08Z" fill="white"/>
</svg>
