<svg width="24" height="24" viewBox="0 0 24 24" fill="none" xmlns="http://www.w3.org/2000/svg">
<path d="M3.63281 5.75683C6.61731 4.20683 10.4148 2.77683 13.9578 1.90533C14.9943 1.65033 16.0653 2.03383 16.6043 2.95483C16.9893 3.61283 17.4593 4.51483 17.9563 5.69383M14.5303 15.5608C14.5778 16.6258 15.3988 17.4193 16.4633 17.4618C17.0058 17.4838 17.6803 17.4993 18.4983 17.4993C19.3163 17.4993 19.9908 17.4838 20.5333 17.4618C21.5983 17.4193 22.4188 16.6258 22.4663 15.5608C22.4853 15.1273 22.4983 14.6088 22.4983 13.9993C22.4983 13.3898 22.4853 12.8713 22.4663 12.4378C22.4188 11.3728 21.5978 10.5793 20.5333 10.5368C19.8553 10.5108 19.1768 10.4983 18.4983 10.4993C17.6803 10.4993 17.0058 10.5148 16.4633 10.5368C15.3983 10.5793 14.5778 11.3728 14.5303 12.4378C14.5082 12.958 14.4975 13.4787 14.4983 13.9993C14.4983 14.6093 14.5113 15.1273 14.5303 15.5608Z" stroke="white" stroke-width="1.5" stroke-linecap="round" stroke-linejoin="round"/>
<path d="M20.437 10.5335C20.4058 9.69723 20.357 8.86171 20.2905 8.0275C20.1865 6.752 19.196 5.7925 17.9195 5.704C16.4495 5.602 14.1815 5.5 11 5.5C7.8185 5.5 5.55 5.602 4.08 5.704C2.804 5.792 1.8135 6.752 1.7095 8.0275C1.602 9.3445 1.5 11.3065 1.5 14C1.5 16.6935 1.602 18.655 1.7095 19.9725C1.8135 21.248 2.804 22.2075 4.0805 22.296C5.55 22.398 7.8185 22.5 11 22.5C14.1815 22.5 16.45 22.398 17.9195 22.296C19.196 22.208 20.1865 21.248 20.2905 19.9725C20.345 19.306 20.398 18.4745 20.437 17.4665M18 13.5V14.5" stroke="white" stroke-width="1.5" stroke-linecap="round" stroke-linejoin="round"/>
</svg>
