<svg width="20" height="20" viewBox="0 0 20 20" fill="none" xmlns="http://www.w3.org/2000/svg">
<g id="mdi:achievement">
<path id="Vector" d="M15.0013 1.66797C14.2513 1.66797 13.3346 2.5013 13.3346 3.33464H6.66797C6.66797 2.5013 5.7513 1.66797 5.0013 1.66797H1.66797V9.16797C1.66797 10.0013 2.5013 10.8346 3.33464 10.8346H5.16797C5.5013 12.5013 6.58464 13.918 9.16797 14.168V15.9013C6.66797 16.2846 6.66797 18.3346 6.66797 18.3346H13.3346C13.3346 18.3346 13.3346 16.2846 10.8346 15.9013V14.168C13.418 13.918 14.5013 12.5013 14.8346 10.8346H16.668C17.5013 10.8346 18.3346 10.0013 18.3346 9.16797V1.66797H15.0013ZM5.0013 9.16797H3.33464V3.33464H5.0013V9.16797ZM16.668 9.16797H15.0013V3.33464H16.668V9.16797Z" fill="#FF975D"/>
</g>
</svg>
