<svg width="32" height="32" viewBox="0 0 32 32" fill="none" xmlns="http://www.w3.org/2000/svg">
<g id="mdi:anonymous">
<path id="Vector" d="M22.7467 17.3333C20.2667 17.3333 18.1867 19.1067 17.6533 21.4667C16.3867 20.92 15.2267 21.0667 14.3467 21.4533C13.8 19.08 11.72 17.3333 9.25333 17.3333C6.36 17.3333 4 19.72 4 22.6667C4 25.6133 6.36 28 9.25333 28C12 28 14.24 25.84 14.4533 23.0933C14.9067 22.7733 16.0933 22.1733 17.5467 23.12C17.7867 25.8533 20 28 22.7467 28C25.64 28 28 25.6133 28 22.6667C28 19.72 25.64 17.3333 22.7467 17.3333ZM9.25333 26.48C7.17333 26.48 5.50667 24.7733 5.50667 22.6667C5.50667 20.56 7.18667 18.8533 9.25333 18.8533C11.3333 18.8533 13 20.56 13 22.6667C13 24.7733 11.3333 26.48 9.25333 26.48ZM22.7467 26.48C20.6667 26.48 19 24.7733 19 22.6667C19 20.56 20.6667 18.8533 22.7467 18.8533C24.8267 18.8533 26.5067 20.56 26.5067 22.6667C26.5067 24.7733 24.8133 26.48 22.7467 26.48ZM29.3333 14H2.66667V16H29.3333V14ZM20.7067 3.50667C20.4133 2.85333 19.6667 2.50667 18.96 2.73333L16 3.72L13.0267 2.73333L12.96 2.72C12.2533 2.52 11.5067 2.89333 11.24 3.57333L8 12H24L20.7467 3.57333L20.7067 3.50667Z" fill="#FF5C00"/>
</g>
</svg>
