<svg width="20" height="20" viewBox="0 0 20 20" fill="none" xmlns="http://www.w3.org/2000/svg">
<g id="clarity:book-solid" clip-path="url(#clip0_0_64)">
<path id="Vector" d="M5.55469 2.89062H15.5547V3.75174H5.55469V2.89062Z" fill="#FF975D"/>
<path id="Vector_2" d="M16.1101 4.44271H5.47674C5.33497 4.4407 5.19506 4.41 5.06548 4.35245C4.93589 4.2949 4.8193 4.21171 4.72274 4.10788C4.62618 4.00405 4.55164 3.88174 4.50364 3.74832C4.45563 3.6149 4.43514 3.47315 4.44341 3.3316C4.44272 3.04991 4.54905 2.77847 4.74088 2.57219C4.93272 2.36592 5.19574 2.2402 5.47674 2.22049H16.1101C16.2574 2.22049 16.3987 2.16195 16.5029 2.05777C16.6071 1.95358 16.6656 1.81227 16.6656 1.66493C16.6656 1.51759 16.6071 1.37628 16.5029 1.27209C16.3987 1.16791 16.2574 1.10938 16.1101 1.10938H5.47674C4.90096 1.12954 4.35551 1.37254 3.95544 1.78712C3.55536 2.2017 3.33194 2.75546 3.3323 3.3316C3.32673 3.42225 3.32673 3.51316 3.3323 3.60382C3.32694 3.6481 3.32694 3.69287 3.3323 3.73715V16.6649C3.33194 17.2411 3.55536 17.7948 3.95544 18.2094C4.35551 18.624 4.90096 18.867 5.47674 18.8872H16.1101C16.2574 18.8872 16.3987 18.8286 16.5029 18.7244C16.6071 18.6202 16.6656 18.4789 16.6656 18.3316V5.03715C16.666 4.88601 16.6087 4.74042 16.5055 4.62999C16.4023 4.51956 16.2609 4.4526 16.1101 4.44271Z" fill="#FF975D"/>
<g id="Vector_3">
</g>
</g>
<defs>
<clipPath id="clip0_0_64">
<rect width="20" height="20" fill="white"/>
</clipPath>
</defs>
</svg>
