<svg width="27.7914" height="31.9968" viewBox="0 0 27.7914 31.9968" fill="none" xmlns="http://www.w3.org/2000/svg">
<g id="Group">
<path id="Vector" fill-rule="evenodd" clip-rule="evenodd" d="M10.0001 6.64687V18.5889L7.00009 17.8389L5.94009 17.5749L4.59609 17.2389L4.18609 17.1369C3.97397 17.0851 3.75051 17.1074 3.55287 17.2003C3.35523 17.2931 3.19532 17.4507 3.09974 17.6471C3.00415 17.8434 2.97864 18.0665 3.02747 18.2793C3.07629 18.4922 3.19649 18.6818 3.36809 18.8169L3.70209 19.0769L4.79609 19.9269L5.65609 20.5949L9.94009 23.9269L15.3961 23.5649L22.0001 22.9969L23.3341 15.8829L23.5501 14.7249L24.4601 9.87287L24.7561 8.29887L24.7741 8.20487C24.8362 7.94151 24.7911 7.66429 24.6487 7.43418C24.5064 7.20407 24.2784 7.03993 24.0151 6.97787C23.7517 6.91581 23.4745 6.96091 23.2444 7.10325C23.0143 7.24559 22.8502 7.47351 22.7881 7.73687L22.7621 7.82887L22.3221 9.36887L22.0001 10.4969L21.0001 13.9969H19.0001V4.04287C18.9963 3.77638 18.8909 3.52139 18.7055 3.32996C18.52 3.13854 18.2685 3.02512 18.0023 3.01286C17.736 3.00061 17.4752 3.09045 17.2729 3.26403C17.0707 3.43762 16.9423 3.68186 16.9141 3.94687L16.9041 4.04287L16.7641 5.59287L16.3321 10.3549L16.0381 13.5889L16.0001 13.9969H14.0001L13.9621 13.8109L13.3041 10.5169L13.0001 8.99687L12.4801 6.40087L12.2201 5.09687L12.1761 4.88087C12.1199 4.61594 11.968 4.38105 11.7494 4.22118C11.5308 4.06131 11.2609 3.98771 10.9914 4.01446C10.7219 4.04121 10.4717 4.16644 10.2888 4.36616C10.1059 4.56589 10.0031 4.82607 10.0001 5.09687V6.64687ZM4.91409 14.2269L7.00009 14.7469V5.09687C7.00039 4.2565 7.25893 3.43651 7.7407 2.74794C8.22246 2.05937 8.90418 1.53547 9.69356 1.24717C10.4829 0.958876 11.3418 0.920111 12.154 1.13612C12.9661 1.35214 13.6923 1.8125 14.2341 2.45487C14.6005 1.59814 15.2515 0.894154 16.0769 0.461832C16.9024 0.0295096 17.8517 -0.104645 18.7646 0.0820292C19.6776 0.268704 20.4981 0.764765 21.0876 1.48641C21.677 2.20806 21.9994 3.11106 22.0001 4.04287V4.40687C22.6699 4.0781 23.418 3.94224 24.1606 4.01448C24.9032 4.08672 25.6111 4.36421 26.205 4.8159C26.7989 5.26759 27.2553 5.87566 27.5233 6.57203C27.7912 7.2684 27.86 8.0256 27.7221 8.75887L24.9481 23.5489C24.8276 24.1937 24.4991 24.7812 24.0129 25.2215C23.5267 25.6618 22.9096 25.9307 22.2561 25.9869L15.6521 26.5529L15.5961 26.5569L10.1401 26.9209C9.40635 26.9693 8.68039 26.7465 8.10009 26.2949L1.52609 21.1849C0.810308 20.6277 0.307729 19.8415 0.102546 18.958C-0.102637 18.0744 0.00204134 17.1472 0.399043 16.3316C0.796045 15.5161 1.46126 14.8617 2.28324 14.4782C3.10522 14.0946 4.03403 14.0072 4.91409 14.2269ZM23.6061 30.9909C23.9976 30.9559 24.3598 30.7687 24.6147 30.4695C24.8696 30.1702 24.9968 29.7829 24.9691 29.3908C24.9413 28.9987 24.7607 28.6332 24.4661 28.3728C24.1716 28.1125 23.7866 27.9782 23.3941 27.9989L9.39409 28.9989C9.19508 29.0093 9.00015 29.0593 8.82068 29.146C8.64122 29.2326 8.48081 29.3541 8.34884 29.5035C8.21687 29.6528 8.11598 29.8269 8.05206 30.0157C7.98814 30.2044 7.96247 30.404 7.97656 30.6028C7.99064 30.8016 8.0442 30.9956 8.1341 31.1735C8.22399 31.3513 8.34843 31.5095 8.50014 31.6387C8.65184 31.7679 8.82778 31.8656 9.01767 31.9261C9.20756 31.9866 9.40759 32.0086 9.60609 31.9909L23.6061 30.9909Z" fill="#FF5C00"/>
</g>
</svg>
