<svg width="20" height="20" viewBox="0 0 20 20" fill="none" xmlns="http://www.w3.org/2000/svg">
<g id="ri:focus-3-fill" clip-path="url(#clip0_0_60)">
<path id="Vector" d="M10.8359 0.832031L10.8368 3.3837C12.3053 3.56936 13.6703 4.23822 14.7169 5.28496C15.7635 6.33169 16.4322 7.69683 16.6176 9.16536H19.1693V10.832L16.6176 10.8329C16.432 12.3013 15.7632 13.6662 14.7167 14.7128C13.6701 15.7593 12.3052 16.4281 10.8368 16.6137L10.8359 19.1654H9.16927V16.6137C7.70073 16.4282 6.3356 15.7596 5.28887 14.713C4.24213 13.6664 3.57326 12.3014 3.3876 10.8329L0.835938 10.832V9.16536H3.3876C3.57309 7.6967 4.24188 6.33148 5.28863 5.28473C6.33538 4.23798 7.70061 3.56919 9.16927 3.3837V0.832031H10.8359ZM10.0026 8.33203C9.56058 8.33203 9.13665 8.50763 8.82409 8.82019C8.51153 9.13275 8.33594 9.55667 8.33594 9.9987C8.33594 10.4407 8.51153 10.8646 8.82409 11.1772C9.13665 11.4898 9.56058 11.6654 10.0026 11.6654C10.4446 11.6654 10.8686 11.4898 11.1811 11.1772C11.4937 10.8646 11.6693 10.4407 11.6693 9.9987C11.6693 9.55667 11.4937 9.13275 11.1811 8.82019C10.8686 8.50763 10.4446 8.33203 10.0026 8.33203Z" fill="#FF975D"/>
</g>
<defs>
<clipPath id="clip0_0_60">
<rect width="20" height="20" fill="white"/>
</clipPath>
</defs>
</svg>
