<svg width="32" height="32" viewBox="0 0 32 32" fill="none" xmlns="http://www.w3.org/2000/svg">
<g id="streamline-ultimate:performance-increase-bold" clip-path="url(#clip0_0_8)">
<path id="Vector" d="M2.66667 23.8267C2.31304 23.8267 1.97391 23.9671 1.72386 24.2172C1.47381 24.4672 1.33333 24.8064 1.33333 25.16V27.16C1.33333 27.2484 1.36845 27.3332 1.43096 27.3957C1.49348 27.4582 1.57826 27.4933 1.66667 27.4933H6.33333C6.42174 27.4933 6.50652 27.4582 6.56904 27.3957C6.63155 27.3332 6.66667 27.2484 6.66667 27.16V25.16C6.66667 24.8064 6.52619 24.4672 6.27614 24.2172C6.02609 23.9671 5.68696 23.8267 5.33333 23.8267H2.66667ZM10.6667 19.8267C10.313 19.8267 9.97391 19.9671 9.72386 20.2172C9.47381 20.4672 9.33333 20.8064 9.33333 21.16V27.16C9.33333 27.2484 9.36845 27.3332 9.43096 27.3957C9.49348 27.4582 9.57826 27.4933 9.66667 27.4933H14.3333C14.4217 27.4933 14.5065 27.4582 14.569 27.3957C14.6315 27.3332 14.6667 27.2484 14.6667 27.16V21.16C14.6667 20.8064 14.5262 20.4672 14.2761 20.2172C14.0261 19.9671 13.687 19.8267 13.3333 19.8267H10.6667ZM18.6667 15.16C18.313 15.16 17.9739 15.3005 17.7239 15.5505C17.4738 15.8006 17.3333 16.1397 17.3333 16.4933V27.16C17.3333 27.2484 17.3685 27.3332 17.431 27.3957C17.4935 27.4582 17.5783 27.4933 17.6667 27.4933H22.3333C22.4217 27.4933 22.5065 27.4582 22.569 27.3957C22.6315 27.3332 22.6667 27.2484 22.6667 27.16V16.4933C22.6667 16.1397 22.5262 15.8006 22.2761 15.5505C22.0261 15.3005 21.687 15.16 21.3333 15.16H18.6667ZM25.6667 27.4933H30.3333C30.4217 27.4933 30.5065 27.4582 30.569 27.3957C30.6315 27.3332 30.6667 27.2484 30.6667 27.16V11.16C30.6667 10.8064 30.5262 10.4672 30.2761 10.2172C30.0261 9.96714 29.687 9.82667 29.3333 9.82667H26.6667C26.313 9.82667 25.9739 9.96714 25.7239 10.2172C25.4738 10.4672 25.3333 10.8064 25.3333 11.16V27.16C25.3333 27.2484 25.3685 27.3332 25.431 27.3957C25.4935 27.4582 25.5783 27.4933 25.6667 27.4933ZM24.0933 5.61333L24.5067 6.22667C24.5972 6.36274 24.7202 6.47419 24.8645 6.55099C25.0088 6.62779 25.1699 6.66754 25.3333 6.66667C25.5031 6.66051 25.6684 6.61064 25.8132 6.52188C25.958 6.43312 26.0775 6.30847 26.16 6.16L28.8267 1.49333C28.9247 1.33515 28.9766 1.15275 28.9766 0.966666C28.9766 0.78058 28.9247 0.598186 28.8267 0.44C28.7281 0.283148 28.5863 0.158148 28.4184 0.0800767C28.2504 0.00200488 28.0634 -0.0258054 27.88 -4.77179e-07L22.5467 0.666666C22.3777 0.688037 22.217 0.752211 22.0798 0.853106C21.9425 0.954001 21.8334 1.08827 21.7626 1.24319C21.6918 1.39811 21.6618 1.56853 21.6753 1.73832C21.6889 1.9081 21.7455 2.0716 21.84 2.21333L22.24 2.82667C22.2646 2.86224 22.2818 2.90244 22.2904 2.94483C22.2991 2.98722 22.299 3.03092 22.2903 3.07329C22.2816 3.11567 22.2643 3.15583 22.2397 3.19136C22.215 3.22689 22.1833 3.25704 22.1467 3.28L3.26667 15.8933C3.1201 15.9902 2.99412 16.1151 2.89597 16.2608C2.79782 16.4065 2.72943 16.5702 2.69474 16.7424C2.66004 16.9146 2.65973 17.092 2.69381 17.2644C2.72789 17.4367 2.7957 17.6006 2.89333 17.7467C3.01564 17.9276 3.18052 18.0757 3.37349 18.178C3.56645 18.2803 3.7816 18.3337 4 18.3333C4.26213 18.3363 4.51861 18.2571 4.73333 18.1067L23.6267 5.52C23.6633 5.49507 23.7045 5.47769 23.748 5.46888C23.7914 5.46007 23.8361 5.46001 23.8796 5.4687C23.923 5.47739 23.9643 5.49466 24.001 5.51949C24.0377 5.54433 24.0691 5.57623 24.0933 5.61333ZM1.33333 32H30.6667C30.9835 31.9993 31.2897 31.8858 31.5305 31.6798C31.7712 31.4739 31.9307 31.1889 31.9805 30.876C32.0302 30.5631 31.9669 30.2427 31.8019 29.9723C31.6369 29.7018 31.381 29.4989 31.08 29.4C30.9466 29.3561 30.8071 29.3336 30.6667 29.3333H1.33333C1.1929 29.3336 1.05341 29.3561 0.92 29.4C0.619015 29.4989 0.363093 29.7018 0.198089 29.9723C0.0330847 30.2427 -0.0302174 30.5631 0.019525 30.876C0.0692673 31.1889 0.228803 31.4739 0.469547 31.6798C0.710291 31.8858 1.01651 31.9993 1.33333 32Z" fill="#FF5C00"/>
</g>
<defs>
<clipPath id="clip0_0_8">
<rect width="32" height="32" fill="white"/>
</clipPath>
</defs>
</svg>
