<svg width="32" height="32" viewBox="0 0 32 32" fill="none" xmlns="http://www.w3.org/2000/svg">
<g id="fluent:person-add-20-regular">
<path id="Vector" d="M14.4 3.2C12.7026 3.2 11.0747 3.87428 9.87452 5.07452C8.67428 6.27475 8 7.90261 8 9.6C8 11.2974 8.67428 12.9253 9.87452 14.1255C11.0747 15.3257 12.7026 16 14.4 16C16.0974 16 17.7253 15.3257 18.9255 14.1255C20.1257 12.9253 20.8 11.2974 20.8 9.6C20.8 7.90261 20.1257 6.27475 18.9255 5.07452C17.7253 3.87428 16.0974 3.2 14.4 3.2ZM9.6 9.6C9.6 8.32696 10.1057 7.10606 11.0059 6.20589C11.9061 5.30571 13.127 4.8 14.4 4.8C15.673 4.8 16.8939 5.30571 17.7941 6.20589C18.6943 7.10606 19.2 8.32696 19.2 9.6C19.2 10.873 18.6943 12.0939 17.7941 12.9941C16.8939 13.8943 15.673 14.4 14.4 14.4C13.127 14.4 11.9061 13.8943 11.0059 12.9941C10.1057 12.0939 9.6 10.873 9.6 9.6ZM6.4144 17.6C5.99296 17.5981 5.5753 17.6795 5.18539 17.8394C4.79548 17.9994 4.44102 18.2348 4.14234 18.5322C3.84367 18.8295 3.60667 19.1829 3.44496 19.5721C3.28324 19.9613 3.2 20.3786 3.2 20.8C3.2 23.5056 4.5328 25.5456 6.616 26.8752C8.6672 28.1824 11.432 28.8 14.4 28.8C15.0581 28.8 15.7035 28.7696 16.336 28.7088C15.9542 28.2335 15.6228 27.7198 15.3472 27.176C15.0368 27.192 14.7211 27.2 14.4 27.2C11.624 27.2 9.1888 26.6176 7.4768 25.5248C5.7968 24.4528 4.8 22.896 4.8 20.8C4.8 19.9152 5.5168 19.2 6.4144 19.2H15.3584C15.6539 18.6261 16.0048 18.0928 16.4112 17.6H6.4144ZM23.2 30.4C25.1096 30.4 26.9409 29.6414 28.2912 28.2912C29.6414 26.9409 30.4 25.1096 30.4 23.2C30.4 21.2904 29.6414 19.4591 28.2912 18.1088C26.9409 16.7586 25.1096 16 23.2 16C21.2904 16 19.4591 16.7586 18.1088 18.1088C16.7586 19.4591 16 21.2904 16 23.2C16 25.1096 16.7586 26.9409 18.1088 28.2912C19.4591 29.6414 21.2904 30.4 23.2 30.4ZM23.2 19.2C23.4122 19.2 23.6157 19.2843 23.7657 19.4343C23.9157 19.5843 24 19.7878 24 20V22.4H26.4C26.6122 22.4 26.8157 22.4843 26.9657 22.6343C27.1157 22.7843 27.2 22.9878 27.2 23.2C27.2 23.4122 27.1157 23.6157 26.9657 23.7657C26.8157 23.9157 26.6122 24 26.4 24H24V26.4C24 26.6122 23.9157 26.8157 23.7657 26.9657C23.6157 27.1157 23.4122 27.2 23.2 27.2C22.9878 27.2 22.7843 27.1157 22.6343 26.9657C22.4843 26.8157 22.4 26.6122 22.4 26.4V24H20C19.7878 24 19.5843 23.9157 19.4343 23.7657C19.2843 23.6157 19.2 23.4122 19.2 23.2C19.2 22.9878 19.2843 22.7843 19.4343 22.6343C19.5843 22.4843 19.7878 22.4 20 22.4H22.4V20C22.4 19.7878 22.4843 19.5843 22.6343 19.4343C22.7843 19.2843 22.9878 19.2 23.2 19.2Z" fill="#FF5C00"/>
</g>
</svg>
