<svg width="32" height="32" viewBox="0 0 32 32" fill="none" xmlns="http://www.w3.org/2000/svg">
<g id="fluent:person-key-32-regular">
<path id="Vector" d="M23 9C23 10.8565 22.2625 12.637 20.9497 13.9497C19.637 15.2625 17.8565 16 16 16C14.1435 16 12.363 15.2625 11.0503 13.9497C9.7375 12.637 9 10.8565 9 9C9 7.14348 9.7375 5.36301 11.0503 4.05025C12.363 2.7375 14.1435 2 16 2C17.8565 2 19.637 2.7375 20.9497 4.05025C22.2625 5.36301 23 7.14348 23 9ZM21 9C21 7.67392 20.4732 6.40215 19.5355 5.46447C18.5979 4.52678 17.3261 4 16 4C14.6739 4 13.4021 4.52678 12.4645 5.46447C11.5268 6.40215 11 7.67392 11 9C11 10.3261 11.5268 11.5979 12.4645 12.5355C13.4021 13.4732 14.6739 14 16 14C17.3261 14 18.5979 13.4732 19.5355 12.5355C20.4732 11.5979 21 10.3261 21 9ZM7.5 18C6.57174 18 5.6815 18.3687 5.02513 19.0251C4.36875 19.6815 4 20.5717 4 21.5V22C4 24.393 5.523 26.417 7.685 27.793C9.515 28.958 11.888 29.725 14.5 29.939V28.207C14.5 28.115 14.5063 28.0237 14.519 27.933C12.249 27.727 10.249 27.055 8.759 26.106C6.939 24.95 6 23.472 6 22V21.5C6 21.1022 6.15804 20.7206 6.43934 20.4393C6.72064 20.158 7.10218 20 7.5 20H19.577C19.6852 19.3022 19.9065 18.6267 20.232 18H7.5ZM29.536 24.535C28.9517 25.1198 28.2315 25.5505 27.4399 25.7887C26.6483 26.027 25.81 26.0652 25 25.9V26.501C25 26.6336 24.9473 26.7608 24.8536 26.8546C24.7598 26.9483 24.6326 27.001 24.5 27.001H23.5C23.3674 27.001 23.2402 27.0537 23.1464 27.1474C23.0527 27.2412 23 27.3684 23 27.501V28.501C23 28.6336 22.9473 28.7608 22.8536 28.8546C22.7598 28.9483 22.6326 29.001 22.5 29.001H21.5C21.3674 29.001 21.2402 29.0537 21.1464 29.1474C21.0527 29.2412 21 29.3684 21 29.501V30.501C21 30.6336 20.9473 30.7608 20.8536 30.8546C20.7598 30.9483 20.6326 31.001 20.5 31.001H16.5C16.3674 31.001 16.2402 30.9483 16.1464 30.8546C16.0527 30.7608 16 30.6336 16 30.501V28.208C16 28.0756 16.0525 27.9487 16.146 27.855L21.297 22.704C20.992 21.8618 20.9189 20.953 21.0853 20.0729C21.2517 19.1927 21.6515 18.3734 22.2429 17.7006C22.8343 17.0278 23.5956 16.5262 24.4471 16.2483C25.2987 15.9705 26.2093 15.9264 27.0837 16.1209C27.9581 16.3153 28.7642 16.7411 29.4177 17.3537C30.0713 17.9663 30.5482 18.7433 30.7988 19.6033C31.0493 20.4633 31.0642 21.3748 30.8418 22.2426C30.6195 23.1103 30.1682 23.9024 29.535 24.536M26.706 20.294C26.7982 20.3895 26.9086 20.4657 27.0306 20.5181C27.1526 20.5705 27.2838 20.5981 27.4166 20.5993C27.5494 20.6004 27.6811 20.5751 27.804 20.5248C27.9268 20.4745 28.0385 20.4003 28.1324 20.3064C28.2263 20.2125 28.3005 20.1009 28.3508 19.978C28.4011 19.8551 28.4264 19.7234 28.4253 19.5906C28.4241 19.4578 28.3965 19.3266 28.3441 19.2046C28.2917 19.0826 28.2155 18.9722 28.12 18.88C27.9314 18.6978 27.6788 18.597 27.4166 18.5993C27.1544 18.6016 26.9036 18.7068 26.7182 18.8922C26.5328 19.0776 26.4276 19.3284 26.4253 19.5906C26.423 19.8528 26.5238 20.1054 26.706 20.294Z" fill="#FF5C00"/>
</g>
</svg>
