<svg width="32" height="32" viewBox="0 0 32 32" fill="none" xmlns="http://www.w3.org/2000/svg">
<g id="material-symbols:person-pin">
<path id="Vector" d="M16 30.6667L12 26.6667H6.66667C5.93333 26.6667 5.30578 26.4058 4.784 25.884C4.26222 25.3622 4.00089 24.7342 4 24V5.33333C4 4.6 4.26133 3.97244 4.784 3.45067C5.30667 2.92889 5.93422 2.66756 6.66667 2.66667H25.3333C26.0667 2.66667 26.6947 2.928 27.2173 3.45067C27.74 3.97333 28.0009 4.60089 28 5.33333V24C28 24.7333 27.7391 25.3613 27.2173 25.884C26.6956 26.4067 26.0676 26.6676 25.3333 26.6667H20L16 30.6667ZM19.3 14.6333C20.2111 13.7222 20.6667 12.6222 20.6667 11.3333C20.6667 10.0444 20.2111 8.94444 19.3 8.03333C18.3889 7.12222 17.2889 6.66667 16 6.66667C14.7111 6.66667 13.6111 7.12222 12.7 8.03333C11.7889 8.94444 11.3333 10.0444 11.3333 11.3333C11.3333 12.6222 11.7889 13.7222 12.7 14.6333C13.6111 15.5444 14.7111 16 16 16C17.2889 16 18.3889 15.5444 19.3 14.6333ZM6.66667 24H25.3333V22.4667C24.1333 21.2889 22.7391 20.3613 21.1507 19.684C19.5622 19.0067 17.8453 18.6676 16 18.6667C14.1547 18.6658 12.4378 19.0049 10.8493 19.684C9.26089 20.3631 7.86667 21.2907 6.66667 22.4667V24Z" fill="#FF5C00"/>
</g>
</svg>
