<svg width="32" height="32" viewBox="0 0 32 32" fill="none" xmlns="http://www.w3.org/2000/svg">
<g id="mage:preview-circle-fill">
<path id="Vector" d="M29.0307 19.6907C28.992 20.2427 28.7827 20.7707 28.4307 21.1973C28.0875 21.6115 27.6215 21.9057 27.1 22.0373L22.8907 22.732L22.7707 22.852C22.7164 22.909 22.6754 22.9773 22.6507 23.052L21.984 26.9213C21.8548 27.461 21.5538 27.9441 21.1262 28.2979C20.6986 28.6516 20.1677 28.8569 19.6133 28.8827H19.4933C18.9947 28.8827 18.5067 28.7347 18.0933 28.456C17.643 28.1621 17.2979 27.7324 17.108 27.2293L13.392 16.688C13.2263 16.2325 13.1947 15.739 13.3011 15.2661C13.4074 14.7932 13.6472 14.3607 13.992 14.02C14.3293 13.6693 14.7653 13.4333 15.244 13.34C15.718 13.2314 16.2135 13.2639 16.6693 13.4333L27.3253 17.1413C27.864 17.3213 28.3307 17.6667 28.6587 18.128C28.9453 18.596 29.0747 19.1427 29.0307 19.6907Z" fill="#FF5C00"/>
<path id="Vector_2" d="M12.4067 29.6573C12.3094 29.6708 12.2106 29.6708 12.1133 29.6573C9.82202 28.9367 7.75541 27.637 6.11333 25.884C4.46907 24.1296 3.30487 21.9808 2.73312 19.6453C2.16138 17.3097 2.2014 14.8662 2.84933 12.5507C3.49617 10.2356 4.72816 8.12615 6.42667 6.42533C8.12445 4.72721 10.2316 3.49574 12.5443 2.84993C14.8571 2.20411 17.2974 2.16579 19.6293 2.73867C21.9612 3.31327 24.1054 4.47975 25.8547 6.12533C27.6043 7.77353 28.9001 9.84445 29.6173 12.1387C29.6794 12.327 29.6834 12.5297 29.629 12.7204C29.5746 12.9111 29.4641 13.081 29.312 13.2083C29.1599 13.3355 28.9732 13.4142 28.7758 13.4341C28.5785 13.454 28.3798 13.4143 28.2053 13.32C27.9715 13.1978 27.7945 12.9893 27.712 12.7387C27.1065 10.7599 25.9995 8.97132 24.4987 7.54667C22.999 6.12376 21.1569 5.11288 19.1512 4.61222C17.1455 4.11155 15.0444 4.13812 13.052 4.68933C11.0595 5.24296 9.24395 6.30209 7.78133 7.764C6.31729 9.2273 5.25619 11.0441 4.7009 13.0381C4.14562 15.0322 4.11499 17.1359 4.612 19.1453C5.1059 21.1546 6.11148 23.0018 7.5309 24.5072C8.95032 26.0126 10.7352 27.1249 12.712 27.736C12.8443 27.7779 12.9667 27.8462 13.0719 27.9368C13.177 28.0274 13.2627 28.1383 13.3238 28.263C13.3849 28.3876 13.42 28.5233 13.4272 28.6619C13.4343 28.8005 13.4133 28.9391 13.3653 29.0693C13.2826 29.2521 13.1469 29.4059 12.9757 29.5105C12.8045 29.6151 12.6057 29.6658 12.4053 29.656" fill="#FF5C00"/>
</g>
</svg>
