<svg width="29.3333" height="29.3333" viewBox="0 0 29.3333 29.3333" fill="none" xmlns="http://www.w3.org/2000/svg">
<g id="Group">
<path id="Vector" d="M10.6667 25.3333H6.66667C5.25218 25.3333 3.89562 24.7714 2.89543 23.7712C1.89524 22.771 1.33333 21.4145 1.33333 20V8C1.33333 6.58551 1.89524 5.22896 2.89543 4.22876C3.89562 3.22857 5.25218 2.66667 6.66667 2.66667H21.3333C22.7478 2.66667 24.1044 3.22857 25.1046 4.22876C26.1048 5.22896 26.6667 6.58551 26.6667 8V12M9.33333 1.33333V4M18.6667 1.33333V4M1.33333 9.33333H26.6667M23.3333 19.524L21.3333 21.524" stroke="#FF5C00" stroke-width="2.66667" stroke-linecap="round" stroke-linejoin="round"/>
<path id="Vector_2" d="M21.3333 28C25.0152 28 28 25.0152 28 21.3333C28 17.6514 25.0152 14.6667 21.3333 14.6667C17.6514 14.6667 14.6667 17.6514 14.6667 21.3333C14.6667 25.0152 17.6514 28 21.3333 28Z" stroke="#FF5C00" stroke-width="2.66667" stroke-linecap="round" stroke-linejoin="round"/>
</g>
</svg>
