<svg width="20" height="20" viewBox="0 0 20 20" fill="none" xmlns="http://www.w3.org/2000/svg">
<g id="fluent:top-speed-24-filled">
<path id="Vector" d="M10.0013 1.66797C14.6038 1.66797 18.3346 5.3988 18.3346 10.0013C18.3358 11.2442 18.0584 12.4715 17.5228 13.593C16.9872 14.7146 16.207 15.7018 15.2396 16.4821C15.0673 16.6146 14.85 16.6745 14.6341 16.6491C14.4182 16.6236 14.2208 16.5148 14.084 16.3458C13.9472 16.1768 13.8819 15.9611 13.9019 15.7446C13.922 15.5282 14.0258 15.3281 14.1913 15.1871C15.5312 14.104 16.3996 12.5441 16.6146 10.8346H15.3463C14.9096 10.8346 14.5846 10.4371 14.5846 10.0005C14.5846 9.5638 14.9096 9.16797 15.3455 9.16797H16.6146C16.4296 7.69949 15.7612 6.33434 14.7147 5.28768C13.6681 4.24102 12.3031 3.57238 10.8346 3.38714V4.6563C10.8346 5.09214 10.4371 5.41797 10.0013 5.41797C9.56547 5.41797 9.16797 5.09297 9.16797 4.6563V3.38714C7.98177 3.53549 6.8577 4.00164 5.91464 4.7363L6.8113 5.63297C7.11964 5.9413 7.06964 6.45214 6.7613 6.76047C6.45297 7.0688 5.9413 7.1188 5.63297 6.81047L4.7363 5.91547C4.00178 6.85829 3.53564 7.98206 3.38714 9.16797H4.65714C5.09297 9.16797 5.41797 9.56463 5.41797 10.0005C5.41797 10.4371 5.09297 10.8346 4.6563 10.8346H3.38797C3.5861 12.4196 4.3481 13.8803 5.53464 14.9496L5.8113 15.1863L5.87464 15.243C6.02164 15.3883 6.10939 15.5831 6.12083 15.7895C6.13227 15.9959 6.06659 16.1992 5.93655 16.3598C5.8065 16.5205 5.62138 16.6271 5.41713 16.659C5.21288 16.6908 5.00409 16.6456 4.8313 16.5321L4.76297 16.4821L4.41714 16.1863C3.55091 15.4057 2.85852 14.4517 2.3849 13.3861C1.91128 12.3206 1.66702 11.1674 1.66797 10.0013C1.66797 5.3988 5.39881 1.66797 10.0013 1.66797ZM13.2938 5.54297C13.4855 5.3813 13.7688 5.3763 13.9671 5.52964C14.1655 5.68297 14.2255 5.95297 14.1088 6.17297L13.9996 6.3813C13.6025 7.13173 13.2025 7.88063 12.7996 8.62797C12.4613 9.25547 12.1105 9.89963 11.8213 10.4155C11.6763 10.673 11.5455 10.9013 11.438 11.0805C11.3562 11.2237 11.2661 11.362 11.168 11.4946C10.9023 11.8187 10.521 12.0265 10.1047 12.0741C9.68837 12.1217 9.2699 12.0054 8.93797 11.7496C8.77507 11.6252 8.63877 11.4693 8.53715 11.2913C8.43552 11.1132 8.37063 10.9166 8.34632 10.7131C8.322 10.5095 8.33875 10.3031 8.39557 10.1062C8.45239 9.90921 8.54814 9.72563 8.67714 9.5663C8.75047 9.4763 8.8838 9.34714 9.02714 9.21464C9.1813 9.0713 9.37714 8.8938 9.6013 8.69714C10.0471 8.30214 10.6071 7.82047 11.1538 7.3538C11.8046 6.79807 12.4577 6.24501 13.113 5.69464L13.2938 5.54297Z" fill="#FF975D"/>
</g>
</svg>
