<svg width="27.3334" height="27.3334" viewBox="0 0 27.3334 27.3334" fill="none" xmlns="http://www.w3.org/2000/svg">
<g id="Group">
<path id="Vector" d="M17.6667 26.3334C19.5267 26.3334 20.456 26.3334 21.2227 26.1494C22.4184 25.8624 23.5114 25.2503 24.3808 24.3808C25.2503 23.5114 25.8624 22.4184 26.1494 21.2227C26.3334 20.456 26.3334 19.5267 26.3334 17.6667M9.66669 26.3334C7.80669 26.3334 6.87736 26.3334 6.11069 26.1494C4.91502 25.8624 3.82202 25.2503 2.95254 24.3808C2.08307 23.5114 1.471 22.4184 1.18403 21.2227C1.00003 20.456 1.00003 19.5267 1.00003 17.6667M9.66669 1.00003C7.80669 1.00003 6.87736 1.00003 6.11069 1.18403C4.91502 1.471 3.82202 2.08307 2.95254 2.95254C2.08307 3.82202 1.471 4.91502 1.18403 6.11069C1.00003 6.87736 1.00003 7.80803 1.00003 9.66669M17.6667 1.00003C19.5267 1.00003 20.456 1.00003 21.2227 1.18403C22.4184 1.471 23.5114 2.08307 24.3808 2.95254C25.2503 3.82202 25.8624 4.91502 26.1494 6.11069C26.3334 6.87736 26.3334 7.80803 26.3334 9.66669M17.6667 10.3334C17.6667 9.27249 17.2453 8.25508 16.4951 7.50493C15.745 6.75479 14.7276 6.33336 13.6667 6.33336C12.6058 6.33336 11.5884 6.75479 10.8383 7.50493C10.0881 8.25508 9.66669 9.27249 9.66669 10.3334C9.66669 11.3942 10.0881 12.4116 10.8383 13.1618C11.5884 13.9119 12.6058 14.3334 13.6667 14.3334C14.7276 14.3334 15.745 13.9119 16.4951 13.1618C17.2453 12.4116 17.6667 11.3942 17.6667 10.3334Z" stroke="#FF5C00" stroke-width="2" stroke-linecap="round" stroke-linejoin="round"/>
<path id="Vector_2" d="M20.3334 21C20.3334 19.2319 19.631 17.5362 18.3807 16.286C17.1305 15.0357 15.4348 14.3334 13.6667 14.3334C11.8986 14.3334 10.2029 15.0357 8.95265 16.286C7.7024 17.5362 7.00003 19.2319 7.00003 21" stroke="#FF5C00" stroke-width="2" stroke-linecap="round" stroke-linejoin="round"/>
</g>
</svg>
