<svg width="16" height="16" viewBox="0 0 16 16" fill="none" xmlns="http://www.w3.org/2000/svg">
<path fill-rule="evenodd" clip-rule="evenodd" d="M4.52722 4.52774C4.65224 4.40276 4.82178 4.33255 4.99856 4.33255C5.17533 4.33255 5.34487 4.40276 5.46989 4.52774L7.99856 7.05641L10.5272 4.52774C10.5887 4.46407 10.6623 4.41328 10.7436 4.37834C10.825 4.3434 10.9124 4.32501 11.001 4.32424C11.0895 4.32347 11.1773 4.34034 11.2592 4.37386C11.3411 4.40738 11.4156 4.45689 11.4782 4.51948C11.5407 4.58208 11.5903 4.65651 11.6238 4.73844C11.6573 4.82037 11.6742 4.90816 11.6734 4.99668C11.6726 5.0852 11.6542 5.17268 11.6193 5.25401C11.5844 5.33535 11.5336 5.40891 11.4699 5.47041L8.94122 7.99908L11.4699 10.5277C11.5913 10.6535 11.6585 10.8219 11.657 10.9967C11.6555 11.1715 11.5854 11.3387 11.4618 11.4623C11.3382 11.5859 11.171 11.656 10.9962 11.6575C10.8214 11.659 10.653 11.5918 10.5272 11.4704L7.99856 8.94174L5.46989 11.4704C5.34415 11.5918 5.17575 11.659 5.00095 11.6575C4.82616 11.656 4.65895 11.5859 4.53534 11.4623C4.41174 11.3387 4.34162 11.1715 4.34011 10.9967C4.33859 10.8219 4.40578 10.6535 4.52722 10.5277L7.05589 7.99908L4.52722 5.47041C4.40224 5.34539 4.33203 5.17585 4.33203 4.99908C4.33203 4.8223 4.40224 4.65276 4.52722 4.52774Z" fill="white"/>
</svg>
