<svg width="16" height="16" viewBox="0 0 16 16" fill="none" xmlns="http://www.w3.org/2000/svg">
<path d="M14.4016 8.00156C14.4016 6.30418 13.7273 4.67631 12.527 3.47608C11.3268 2.27585 9.69895 1.60156 8.00156 1.60156C6.30418 1.60156 4.67631 2.27585 3.47608 3.47608C2.27585 4.67631 1.60156 6.30418 1.60156 8.00156C1.60156 9.69895 2.27585 11.3268 3.47608 12.527C4.67631 13.7273 6.30418 14.4016 8.00156 14.4016C9.69895 14.4016 11.3268 13.7273 12.527 12.527C13.7273 11.3268 14.4016 9.69895 14.4016 8.00156ZM2.40156 8.00156C2.40156 7.26616 2.54641 6.53796 2.82784 5.85853C3.10926 5.17911 3.52176 4.56177 4.04176 4.04176C4.56177 3.52176 5.17911 3.10926 5.85853 2.82784C6.53796 2.54641 7.26616 2.40156 8.00156 2.40156C8.73696 2.40156 9.46517 2.54641 10.1446 2.82784C10.824 3.10926 11.4414 3.52176 11.9614 4.04176C12.4814 4.56177 12.8939 5.17911 13.1753 5.85853C13.4567 6.53796 13.6016 7.26616 13.6016 8.00156C13.6016 9.48677 13.0116 10.9112 11.9614 11.9614C10.9112 13.0116 9.48677 13.6016 8.00156 13.6016C6.51635 13.6016 5.09197 13.0116 4.04176 11.9614C2.99156 10.9112 2.40156 9.48677 2.40156 8.00156ZM10.8016 6.80156C10.8016 6.58939 10.7173 6.38591 10.5672 6.23588C10.4172 6.08585 10.2137 6.00156 10.0016 6.00156C9.78939 6.00156 9.5859 6.08585 9.43588 6.23588C9.28585 6.38591 9.20156 6.58939 9.20156 6.80156C9.20156 7.01373 9.28585 7.21722 9.43588 7.36725C9.5859 7.51728 9.78939 7.60156 10.0016 7.60156C10.2137 7.60156 10.4172 7.51728 10.5672 7.36725C10.7173 7.21722 10.8016 7.01373 10.8016 6.80156ZM6.80156 6.80156C6.80156 6.58939 6.71728 6.38591 6.56725 6.23588C6.41722 6.08585 6.21373 6.00156 6.00156 6.00156C5.78939 6.00156 5.58591 6.08585 5.43588 6.23588C5.28585 6.38591 5.20156 6.58939 5.20156 6.80156C5.20156 7.01373 5.28585 7.21722 5.43588 7.36725C5.58591 7.51728 5.78939 7.60156 6.00156 7.60156C6.21373 7.60156 6.41722 7.51728 6.56725 7.36725C6.71728 7.21722 6.80156 7.01373 6.80156 6.80156ZM5.51276 10.0136C5.47972 9.97269 5.43895 9.93873 5.39279 9.91362C5.34663 9.88851 5.29597 9.87274 5.24371 9.8672C5.19144 9.86167 5.13861 9.86648 5.0882 9.88137C5.0378 9.89625 4.99083 9.92092 4.94996 9.95396C4.90909 9.987 4.87514 10.0278 4.85002 10.0739C4.82491 10.1201 4.80914 10.1708 4.8036 10.223C4.79807 10.2753 4.80288 10.3281 4.81777 10.3785C4.83265 10.4289 4.85732 10.4759 4.89036 10.5168C5.26543 10.9806 5.73948 11.3546 6.2778 11.6115C6.81612 11.8684 7.40508 12.0017 8.00156 12.0016C9.25756 12.0016 10.38 11.4216 11.1128 10.5168C11.1459 10.4759 11.1706 10.4289 11.1855 10.3785C11.2004 10.3281 11.2053 10.2752 11.1998 10.2229C11.1943 10.1706 11.1786 10.1199 11.1535 10.0737C11.1284 10.0275 11.0944 9.98665 11.0536 9.95356C11.0127 9.92047 10.9657 9.89575 10.9153 9.88081C10.8649 9.86588 10.812 9.86102 10.7597 9.86652C10.7074 9.87202 10.6567 9.88776 10.6105 9.91285C10.5643 9.93794 10.5235 9.97189 10.4904 10.0128C10.1904 10.384 9.81125 10.6834 9.38062 10.8891C8.94998 11.0948 8.4788 11.2015 8.00156 11.2016C7.52439 11.2016 7.05324 11.095 6.62262 10.8894C6.19199 10.6839 5.81278 10.3846 5.51276 10.0136Z" fill="#6D6D96"/>
</svg>
