<svg width="14" height="13" viewBox="0 0 13.348 12.3333" fill="none" xmlns="http://www.w3.org/2000/svg">
<path d="M9.5 0.5H3.83333C2.94928 0.5 2.10143 0.851189 1.47631 1.47631C0.851189 2.10143 0.5 2.94928 0.5 3.83333V8.5C0.5 8.93774 0.586219 9.37119 0.753735 9.77561C0.921251 10.18 1.16678 10.5475 1.47631 10.857C2.10143 11.4821 2.94928 11.8333 3.83333 11.8333H9.5C9.93774 11.8333 10.3712 11.7471 10.7756 11.5796C11.18 11.4121 11.5475 11.1666 11.857 10.857C12.1666 10.5475 12.4121 10.18 12.5796 9.77561C12.7471 9.37119 12.8333 8.93774 12.8333 8.5V3.83333C12.8333 3.39559 12.7471 2.96214 12.5796 2.55772C12.4121 2.1533 12.1666 1.78584 11.857 1.47631C11.5475 1.16678 11.18 0.921251 10.7756 0.753735C10.3712 0.586219 9.93774 0.5 9.5 0.5Z" stroke="#6D6D96" stroke-linecap="round" stroke-linejoin="round"/>
<path d="M0.667969 9.50104L2.5013 7.36771C2.7412 7.12945 3.05604 6.98139 3.39256 6.94859C3.72907 6.91579 4.06658 7.00026 4.34797 7.18771C4.62936 7.37516 4.96687 7.45963 5.30338 7.42683C5.63989 7.39403 5.95474 7.24597 6.19464 7.00771L7.74797 5.45438C8.1943 5.00653 8.78523 4.73185 9.41533 4.67934C10.0454 4.62683 10.6737 4.79992 11.188 5.16771L12.848 6.45438M4.0013 4.94771C4.14663 4.94771 4.29054 4.91908 4.42481 4.86347C4.55907 4.80785 4.68107 4.72634 4.78383 4.62357C4.8866 4.52081 4.96811 4.39881 5.02373 4.26454C5.07934 4.13028 5.10797 3.98637 5.10797 3.84104C5.10797 3.69571 5.07934 3.55181 5.02373 3.41754C4.96811 3.28327 4.8866 3.16127 4.78383 3.05851C4.68107 2.95575 4.55907 2.87423 4.42481 2.81861C4.29054 2.763 4.14663 2.73437 4.0013 2.73438C3.7078 2.73438 3.42631 2.85097 3.21877 3.05851C3.01123 3.26605 2.89464 3.54754 2.89464 3.84104C2.89464 4.13455 3.01123 4.41603 3.21877 4.62357C3.42631 4.83111 3.7078 4.94771 4.0013 4.94771Z" stroke="#6D6D96" stroke-linecap="round" stroke-linejoin="round"/>
</svg>
