<svg width="24" height="24" viewBox="0 0 24 24" fill="none" xmlns="http://www.w3.org/2000/svg">
<path d="M13.9989 9.99827L10.9989 12.9983M20.2869 3.02927C20.3818 2.99652 20.484 2.99113 20.5818 3.01372C20.6796 3.0363 20.7691 3.08594 20.84 3.15698C20.9109 3.22801 20.9604 3.31756 20.9829 3.4154C21.0053 3.51324 20.9998 3.61542 20.9669 3.71027L15.0429 20.6403C15.0074 20.7415 14.9424 20.8297 14.8562 20.8935C14.77 20.9573 14.6666 20.9937 14.5595 20.998C14.4523 21.0023 14.3464 20.9743 14.2553 20.9177C14.1643 20.861 14.0924 20.7783 14.0489 20.6803L10.8299 13.4383C10.7757 13.3178 10.6793 13.2214 10.5589 13.1673L3.31689 9.94727C3.21918 9.90364 3.1368 9.83172 3.08039 9.7408C3.02398 9.64988 2.99613 9.54413 3.00043 9.43721C3.00474 9.3303 3.04101 9.22713 3.10455 9.14104C3.16809 9.05495 3.25599 8.98989 3.35689 8.95427L20.2869 3.02927Z" stroke="white" stroke-width="1.5" stroke-linecap="round" stroke-linejoin="round"/>
</svg>
