<svg width="24" height="24" viewBox="0 0 24 24" fill="none" xmlns="http://www.w3.org/2000/svg">
<g clip-path="url(#clip0_0_48)">
<path d="M17.5071 14.3062L17.4981 14.3812C15.2991 13.2852 15.0691 13.1392 14.7851 13.5652C14.5881 13.8602 14.0141 14.5292 13.8411 14.7272C13.6661 14.9222 13.4921 14.9372 13.1951 14.8022C12.8951 14.6522 11.9321 14.3372 10.7921 13.3172C9.90414 12.5222 9.30814 11.5472 9.13214 11.2472C8.83914 10.7412 9.45214 10.6692 10.0101 9.61319C10.1101 9.40319 10.0591 9.23819 9.98514 9.08919C9.91014 8.93919 9.31314 7.46919 9.06314 6.88319C8.82314 6.29919 8.57614 6.37319 8.39114 6.37319C7.81514 6.32319 7.39414 6.33119 7.02314 6.71719C5.40914 8.49119 5.81614 10.3212 7.19714 12.2672C9.91114 15.8192 11.3571 16.4732 14.0011 17.3812C14.7151 17.6082 15.3661 17.5762 15.8811 17.5022C16.4551 17.4112 17.6481 16.7812 17.8971 16.0762C18.1521 15.3712 18.1521 14.7862 18.0771 14.6512C18.0031 14.5162 17.8071 14.4412 17.5071 14.3062V14.3062Z" fill="white"/>
<path d="M20.52 3.44943C12.831 -3.98356 0.106 1.40743 0.101 11.8934C0.101 13.9894 0.65 16.0334 1.696 17.8384L0 24.0004L6.335 22.3484C14.24 26.6184 23.996 20.9484 24 11.8994C24 8.72343 22.76 5.73443 20.505 3.48843L20.52 3.44943ZM22.002 11.8664C21.996 19.4994 13.617 24.2664 6.99 20.3704L6.63 20.1564L2.88 21.1314L3.885 17.4864L3.646 17.1114C-0.478 10.5464 4.26 1.96643 12.072 1.96643C14.726 1.96643 17.217 3.00143 19.093 4.87643C20.968 6.73543 22.002 9.22643 22.002 11.8664V11.8664Z" fill="white"/>
</g>
<defs>
<clipPath id="clip0_0_48">
<rect width="24" height="24" fill="white"/>
</clipPath>
</defs>
</svg>
