<svg preserveAspectRatio="none" width="100%" height="100%" overflow="visible" style="display: block;" viewBox="0 0 24 24" fill="none" xmlns="http://www.w3.org/2000/svg">
<g id="stash:arrow-up-duotone">
<path id="Vector" d="M11.47 5.47C11.611 5.33028 11.8015 5.25189 12 5.25189C12.1985 5.25189 12.389 5.33028 12.53 5.47L17.53 10.47C17.6037 10.5387 17.6628 10.6215 17.7038 10.7135C17.7448 10.8055 17.7668 10.9048 17.7686 11.0055C17.7704 11.1062 17.7518 11.2062 17.7141 11.2996C17.6764 11.393 17.6203 11.4778 17.549 11.549C17.4778 11.6203 17.393 11.6764 17.2996 11.7141C17.2062 11.7518 17.1062 11.7704 17.0055 11.7686C16.9048 11.7668 16.8055 11.7448 16.7135 11.7038C16.6215 11.6628 16.5387 11.6037 16.47 11.53L12.75 7.81V18C12.75 18.1989 12.671 18.3897 12.5303 18.5303C12.3897 18.671 12.1989 18.75 12 18.75C11.8011 18.75 11.6103 18.671 11.4697 18.5303C11.329 18.3897 11.25 18.1989 11.25 18V7.81L7.53 11.53C7.38783 11.6625 7.19978 11.7346 7.00548 11.7312C6.81118 11.7277 6.62579 11.649 6.48838 11.5116C6.35097 11.3742 6.27225 11.1888 6.26883 10.9945C6.2654 10.8002 6.33752 10.6122 6.47 10.47L11.47 5.47Z" fill="var(--fill-0, white)"/>
</g>
</svg>
