<svg preserveAspectRatio="none" width="100%" height="100%" overflow="visible" style="display: block;" viewBox="0 0 14 14" fill="none" xmlns="http://www.w3.org/2000/svg">
<g id="hugeicons:chat-01">
<path id="Vector" d="M4.375 4.95833H9.625M4.375 7.29167H7.58333M1.16667 6.125C1.16667 5.67583 1.17425 5.23658 1.19 4.8125C1.23842 3.42825 1.26292 2.73583 1.82583 2.16825C2.38875 1.60125 3.101 1.57092 4.52433 1.50967C5.3491 1.47504 6.17451 1.45793 7 1.45833C7.86333 1.45833 8.69458 1.47583 9.47567 1.50967C10.899 1.57092 11.6107 1.60125 12.1742 2.16883C12.7371 2.73583 12.7616 3.42825 12.81 4.8125C12.8408 5.68723 12.8408 6.56277 12.81 7.4375C12.7616 8.82175 12.7371 9.51417 12.1742 10.0818C11.6113 10.6488 10.899 10.6791 9.47567 10.7403C9.04711 10.7586 8.60475 10.7722 8.14858 10.7812C7.71692 10.7893 7.5005 10.7928 7.31033 10.8657C7.12017 10.9387 6.96033 11.0746 6.64067 11.3487L5.36958 12.4396C5.30772 12.4926 5.23195 12.5267 5.15126 12.538C5.07057 12.5492 4.98835 12.5371 4.91436 12.503C4.84036 12.4689 4.77769 12.4143 4.73379 12.3457C4.68989 12.2771 4.66659 12.1973 4.66667 12.1158V10.7462L4.52433 10.7403C3.101 10.6791 2.38933 10.6487 1.82583 10.0812C1.26292 9.51417 1.23842 8.82175 1.19 7.4375C1.17453 7.00017 1.16675 6.5626 1.16667 6.125Z" stroke="var(--stroke-0, white)" stroke-width="0.875" stroke-linecap="round" stroke-linejoin="round"/>
</g>
</svg>
