<svg preserveAspectRatio="none" width="100%" height="100%" overflow="visible" style="display: block;" viewBox="0 0 13.5 13.5" fill="none" xmlns="http://www.w3.org/2000/svg">
<g id="Group">
<path id="Vector" d="M3.41667 5.19467C3.41667 4.72311 3.60399 4.27087 3.93743 3.93743C4.27087 3.60399 4.72311 3.41667 5.19467 3.41667H10.972C11.2055 3.41667 11.4367 3.46266 11.6524 3.55201C11.8681 3.64136 12.0641 3.77233 12.2292 3.93743C12.3943 4.10253 12.5253 4.29854 12.6147 4.51426C12.704 4.72997 12.75 4.96118 12.75 5.19467V10.972C12.75 11.2055 12.704 11.4367 12.6147 11.6524C12.5253 11.8681 12.3943 12.0641 12.2292 12.2292C12.0641 12.3943 11.8681 12.5253 11.6524 12.6147C11.4367 12.704 11.2055 12.75 10.972 12.75H5.19467C4.96118 12.75 4.72997 12.704 4.51426 12.6147C4.29854 12.5253 4.10253 12.3943 3.93743 12.2292C3.77233 12.0641 3.64136 11.8681 3.55201 11.6524C3.46266 11.4367 3.41667 11.2055 3.41667 10.972V5.19467Z" stroke="var(--stroke-0, white)" stroke-width="1.5" stroke-linecap="round" stroke-linejoin="round"/>
<path id="Vector_2" d="M1.42467 9.908C1.22 9.79172 1.04977 9.62332 0.931267 9.41993C0.812768 9.21653 0.750227 8.98539 0.75 8.75V2.08333C0.75 1.35 1.35 0.75 2.08333 0.75H8.75C9.25 0.75 9.522 1.00667 9.75 1.41667" stroke="var(--stroke-0, white)" stroke-width="1.5" stroke-linecap="round" stroke-linejoin="round"/>
</g>
</svg>
