<svg width="24" height="24" viewBox="0 0 21 21" fill="none" xmlns="http://www.w3.org/2000/svg">
<g>
<path d="M18.75 15.25C18.75 16.1783 18.3813 17.0685 17.7249 17.7249C17.0685 18.3813 16.1783 18.75 15.25 18.75C14.3217 18.75 13.4315 18.3813 12.7751 17.7249C12.1187 17.0685 11.75 16.1783 11.75 15.25C11.75 14.3217 12.1187 13.4315 12.7751 12.7751C13.4315 12.1187 14.3217 11.75 15.25 11.75C16.1783 11.75 17.0685 12.1187 17.7249 12.7751C18.3813 13.4315 18.75 14.3217 18.75 15.25Z" stroke="white" stroke-width="1.5"/>
<path d="M15.25 11.75H4.25C3.32174 11.75 2.4315 12.1187 1.77513 12.7751C1.11875 13.4315 0.75 14.3217 0.75 15.25C0.75 16.1783 1.11875 17.0685 1.77513 17.7249C2.4315 18.3813 3.32174 18.75 4.25 18.75H15.25C16.1783 18.75 17.0685 18.3813 17.7249 17.7249C18.3813 17.0685 18.75 16.1783 18.75 15.25C18.75 14.3217 18.3813 13.4315 17.7249 12.7751C17.0685 12.1187 16.1783 11.75 15.25 11.75ZM0.75 4.25C0.75 4.70963 0.84053 5.16475 1.01642 5.58939C1.19231 6.01403 1.45012 6.39987 1.77513 6.72487C2.10013 7.04988 2.48597 7.30769 2.91061 7.48358C3.33525 7.65947 3.79037 7.75 4.25 7.75C4.70963 7.75 5.16475 7.65947 5.58939 7.48358C6.01403 7.30769 6.39987 7.04988 6.72487 6.72487C7.04988 6.39987 7.30769 6.01403 7.48358 5.58939C7.65947 5.16475 7.75 4.70963 7.75 4.25C7.75 3.32174 7.38125 2.4315 6.72487 1.77513C6.0685 1.11875 5.17826 0.75 4.25 0.75C3.32174 0.75 2.4315 1.11875 1.77513 1.77513C1.11875 2.4315 0.75 3.32174 0.75 4.25Z" stroke="white" stroke-width="1.5"/>
<path d="M4.25 0.75H15.25C15.7096 0.75 16.1648 0.84053 16.5894 1.01642C17.014 1.19231 17.3999 1.45012 17.7249 1.77513C18.0499 2.10013 18.3077 2.48597 18.4836 2.91061C18.6595 3.33525 18.75 3.79037 18.75 4.25C18.75 4.70963 18.6595 5.16475 18.4836 5.58939C18.3077 6.01403 18.0499 6.39987 17.7249 6.72487C17.3999 7.04988 17.014 7.30769 16.5894 7.48358C16.1648 7.65947 15.7096 7.75 15.25 7.75H4.25C3.79037 7.75 3.33525 7.65947 2.91061 7.48358C2.48597 7.30769 2.10013 7.04988 1.77513 6.72487C1.45012 6.39987 1.19231 6.01403 1.01642 5.58939C0.84053 5.16475 0.75 4.70963 0.75 4.25C0.75 3.79037 0.84053 3.33525 1.01642 2.91061C1.19231 2.48597 1.45012 2.10013 1.77513 1.77513C2.10013 1.45012 2.48597 1.19231 2.91061 1.01642C3.33525 0.84053 3.79037 0.75 4.25 0.75Z" stroke="white" stroke-width="1.5"/>
</g>
</svg>
