<svg viewBox="0 0 16 16" fill="none" xmlns="http://www.w3.org/2000/svg">
<path d="M14.2361 1.76045C13.9928 1.5169 13.7039 1.32368 13.3858 1.19186C13.0678 1.06004 12.7269 0.992188 12.3826 0.992188C12.0384 0.992188 11.6975 1.06004 11.3794 1.19186C11.0614 1.32368 10.7725 1.5169 10.5291 1.76045L2.65714 9.63245C2.28347 10.0067 2.01689 10.4743 1.88514 10.9864L1.01514 14.3724C0.993567 14.4567 0.99434 14.5451 1.01738 14.629C1.04043 14.7128 1.08494 14.7892 1.14654 14.8506C1.20813 14.912 1.28468 14.9563 1.36861 14.979C1.45255 15.0018 1.54097 15.0023 1.62514 14.9804L5.01014 14.1114C5.52252 13.9802 5.99018 13.7135 6.36414 13.3394L14.2361 5.46745C14.4797 5.22413 14.6729 4.93519 14.8047 4.61715C14.9366 4.29912 15.0044 3.95822 15.0044 3.61395C15.0044 3.26968 14.9366 2.92878 14.8047 2.61074C14.6729 2.29271 14.4797 2.00377 14.2361 1.76045ZM11.2361 2.46745C11.5402 2.16338 11.9526 1.99255 12.3826 1.99255C12.8127 1.99255 13.2251 2.16338 13.5291 2.46745C13.8332 2.77152 14.004 3.18393 14.004 3.61395C14.004 4.04397 13.8332 4.45638 13.5291 4.76045L12.7501 5.53945L10.4571 3.24645L11.2361 2.46745ZM9.75014 3.95345L12.0431 6.24645L5.65714 12.6324C5.40964 12.8798 5.10015 13.0559 4.76114 13.1424L2.19414 13.8024L2.85414 11.2354C2.94022 10.8963 3.11644 10.5867 3.36414 10.3394L9.75014 3.95345Z" fill="white"/>
</svg>
