<svg viewBox="0 0 12 12" fill="none" xmlns="http://www.w3.org/2000/svg">
<g id="Growth Indicator">
<circle id="Circle" cx="6" cy="6" r="6" fill="#04CE00"/>
<path id="Arrow" d="M7.3434 5.36102L7.1824 5.52202C6.32089 6.38353 5.4593 7.24513 4.59762 8.10681C4.42331 8.28112 4.21735 8.3193 4.01164 8.2241C3.81347 8.13092 3.70471 7.96038 3.73359 7.75417C3.75955 7.60518 3.82984 7.46748 3.93528 7.35908C4.76841 6.51088 5.61234 5.67348 6.453 4.83282L6.61225 4.67357C6.56086 4.66479 6.50905 4.65875 6.45702 4.65549C6.11995 4.65398 5.78263 4.65725 5.44582 4.65298C5.17907 4.64996 4.99497 4.46636 4.99145 4.21117C4.98793 3.93288 5.15496 3.74626 5.43401 3.7445C6.20929 3.73948 6.98414 3.73889 7.75858 3.74274C8.07179 3.7445 8.24811 3.91379 8.25389 4.22348C8.26812 4.99222 8.27658 5.76105 8.27926 6.52997C8.28026 6.81178 8.09691 6.97755 7.81685 6.97529C7.55262 6.97278 7.37881 6.80299 7.37078 6.52921C7.36224 6.2042 7.36148 5.87894 7.35671 5.55367C7.35571 5.50243 7.34918 5.4522 7.3434 5.36102Z" fill="white"/>
</g>
</svg>
