<svg viewBox="0 0 24 24" fill="none" xmlns="http://www.w3.org/2000/svg">
<path opacity="0.3" d="M12 1.999C17.524 1.999 22.002 6.477 22.002 12.001C22.002 17.524 17.524 22.002 12 22.002C6.476 22.002 2 17.524 2 12.001C1.999 6.477 6.476 1.999 12 1.999Z" fill="#FF5C00"/>
<path d="M12.001 6.5C11.8337 6.49541 11.6671 6.52441 11.5112 6.5853C11.3553 6.6462 11.2131 6.73774 11.0932 6.85451C10.9733 6.97129 10.878 7.11093 10.813 7.26517C10.7479 7.41942 10.7145 7.58514 10.7146 7.75253C10.7148 7.91992 10.7485 8.08559 10.8137 8.23973C10.879 8.39387 10.9745 8.53336 11.0946 8.64994C11.2148 8.76652 11.357 8.85784 11.5131 8.91848C11.6691 8.97912 11.8357 9.00786 12.003 9.003C12.3288 8.99341 12.638 8.85715 12.8649 8.62318C13.0918 8.38921 13.2185 8.07597 13.2182 7.75004C13.2178 7.42411 13.0903 7.11118 12.8628 6.87776C12.6353 6.64433 12.3258 6.50881 12 6.5H12.001ZM11.996 10.249C11.7509 10.2493 11.5145 10.3396 11.3316 10.5028C11.1488 10.6659 11.0322 10.8906 11.004 11.134L10.997 11.25L11.001 16.752L11.007 16.869C11.0352 17.1129 11.1521 17.3379 11.3355 17.5011C11.5189 17.6643 11.7559 17.7544 12.0014 17.7542C12.2469 17.7539 12.4837 17.6634 12.6668 17.4998C12.8498 17.3362 12.9663 17.1109 12.994 16.867L13 16.75L12.996 11.249L12.989 11.132C12.9601 10.8888 12.8429 10.6646 12.6597 10.502C12.4765 10.3394 12.24 10.2498 11.995 10.25L11.996 10.249Z" fill="#FF5C00"/>
</svg>
