<svg preserveAspectRatio="none" width="100%" height="100%" overflow="visible" style="display: block;" viewBox="0 0 16 16" fill="none" xmlns="http://www.w3.org/2000/svg">
<g id="solar:medal-star-square-bold">
<path id="Vector" fill-rule="evenodd" clip-rule="evenodd" d="M6.66667 4H9.33333C11.2187 4 12.162 4 12.7473 4.586C13.3333 5.17133 13.3333 6.11467 13.3333 8V8.704C13.3333 10.3073 13.3333 11.1093 12.9353 11.754C12.5367 12.398 11.8193 12.7567 10.3853 13.474C9.21467 14.0593 8.62933 14.352 8 14.352C7.37067 14.352 6.78533 14.0593 5.61467 13.474C4.18067 12.7567 3.46333 12.398 3.06467 11.754C2.66667 11.1093 2.66667 10.3067 2.66667 8.704V8C2.66667 6.11467 2.66667 5.17133 3.25267 4.586C3.838 4 4.78133 4 6.66667 4ZM8 6.66667C7.81067 6.66667 7.684 6.89333 7.43067 7.34867L7.36533 7.466C7.29333 7.59533 7.25733 7.65933 7.20133 7.702C7.14467 7.74467 7.07467 7.76067 6.93467 7.792L6.808 7.82133C6.316 7.93267 6.07 7.988 6.01133 8.176C5.95267 8.364 6.12067 8.56067 6.456 8.95267L6.54267 9.054C6.638 9.16533 6.686 9.22067 6.70733 9.29C6.72867 9.35933 6.72133 9.43333 6.70733 9.582L6.694 9.71733C6.64333 10.2407 6.618 10.5027 6.77067 10.6187C6.924 10.7347 7.15467 10.6287 7.61533 10.4167L7.734 10.362C7.86533 10.302 7.93067 10.272 8 10.272C8.06933 10.272 8.13467 10.302 8.266 10.362L8.38467 10.4167C8.84533 10.6293 9.076 10.7347 9.22933 10.6187C9.38267 10.5027 9.35667 10.2407 9.306 9.71733L9.29267 9.582C9.27867 9.43333 9.27133 9.35933 9.29267 9.29C9.314 9.22067 9.362 9.16533 9.45733 9.054L9.544 8.95267C9.87933 8.56067 10.0473 8.36467 9.98867 8.176C9.93 7.988 9.684 7.93267 9.192 7.82133L9.06533 7.792C8.92533 7.76067 8.85533 7.74533 8.79867 7.702C8.74267 7.65933 8.70667 7.59533 8.63467 7.466L8.56933 7.34867C8.316 6.89333 8.18933 6.66667 8 6.66667Z" fill="var(--fill-0, #FF5C00)"/>
<path id="Vector_2" d="M7.33333 1.33333H8.66667C9.924 1.33333 10.552 1.33333 10.9427 1.724C11.2187 2 11.2993 2.39467 11.3233 3.046C10.7767 2.99933 10.1293 2.99933 9.39933 3H6.6C5.87 3 5.22333 3 4.676 3.046C4.69933 2.39467 4.78067 1.99933 5.056 1.724C5.448 1.33333 6.07733 1.33333 7.33333 1.33333Z" fill="var(--fill-0, #FF5C00)"/>
</g>
</svg>
