<svg preserveAspectRatio="none" width="100%" height="100%" overflow="visible" style="display: block;" viewBox="0 0 27.3352 25.7507" fill="none" xmlns="http://www.w3.org/2000/svg">
<g id="Group">
<path id="Vector" d="M8.33401 21.0007C8.86445 21.0007 9.37315 21.2114 9.74823 21.5865C10.1233 21.9615 10.334 22.4702 10.334 23.0007C10.334 23.5311 10.1233 24.0398 9.74823 24.4149C9.37315 24.79 8.86445 25.0007 8.33401 25.0007C7.80358 25.0007 7.29487 24.79 6.9198 24.4149C6.54473 24.0398 6.33401 23.5311 6.33401 23.0007C6.33401 22.4702 6.54473 21.9615 6.9198 21.5865C7.29487 21.2114 7.80358 21.0007 8.33401 21.0007ZM20.334 21.0007C20.8644 21.0007 21.3732 21.2114 21.7482 21.5865C22.1233 21.9615 22.334 22.4702 22.334 23.0007C22.334 23.5311 22.1233 24.0398 21.7482 24.4149C21.3732 24.79 20.8644 25.0007 20.334 25.0007C19.8036 25.0007 19.2949 24.79 18.9198 24.4149C18.5447 24.0398 18.334 23.5311 18.334 23.0007C18.334 22.4702 18.5447 21.9615 18.9198 21.5865C19.2949 21.2114 19.8036 21.0007 20.334 21.0007Z" stroke="var(--stroke-0, #6D6D96)" stroke-width="1.5"/>
<path id="Vector_2" d="M1.33268 0.0566804C1.08232 -0.0313715 0.807227 -0.0163603 0.567931 0.0984119C0.328635 0.213184 0.144732 0.418316 0.0566803 0.66868C-0.0313715 0.919044 -0.0163603 1.19413 0.098412 1.43343C0.213184 1.67273 0.418316 1.85663 0.66868 1.94468L1.33268 0.0566804ZM25.878 10.178L26.8567 10.3793L26.858 10.374L25.878 10.178ZM5.94468 10.014V6.38468H3.94468V10.014H5.94468ZM1.68068 0.179347L1.33268 0.0566804L0.66868 1.94468L1.01668 2.06601L1.68068 0.179347ZM12.918 18.6673H19.9873V16.6673H12.918V18.6673ZM5.94468 6.38468C5.94468 5.44201 5.94601 4.65535 5.87801 4.01668C5.80468 3.35401 5.65135 2.75001 5.27535 2.20068L3.62335 3.32868C3.74335 3.50468 3.83668 3.74735 3.88868 4.23135C3.94335 4.73801 3.94468 5.39801 3.94468 6.38468H5.94468ZM1.01668 2.06601C1.90735 2.37935 2.49268 2.58735 2.92335 2.80068C3.32735 2.99801 3.50601 3.15801 3.62335 3.33001L5.27535 2.20068C4.89668 1.64601 4.39135 1.29135 3.80335 1.00201C3.24335 0.727347 2.52601 0.47668 1.68068 0.179347L1.01668 2.06601ZM3.94468 10.014C3.94468 11.9513 3.96335 13.3473 4.14468 14.414C4.34068 15.5527 4.73135 16.3687 5.45801 17.1367L6.91001 15.7607C6.48335 15.31 6.25268 14.87 6.11668 14.0767C5.97001 13.21 5.94468 11.9993 5.94468 10.014H3.94468ZM12.918 16.6673C11.0287 16.6673 9.71801 16.6647 8.73001 16.5247C7.77668 16.39 7.27401 16.1447 6.91001 15.7607L5.45801 17.1367C6.25001 17.9727 7.25401 18.3367 8.44868 18.5047C9.60868 18.67 11.09 18.6673 12.918 18.6673V16.6673ZM4.94468 6.16068H21.118V4.16068H4.94601L4.94468 6.16068ZM24.898 9.97535L24.2313 13.2087L26.1913 13.6113L26.8567 10.3793L24.898 9.97535ZM21.1207 6.16068C22.262 6.16068 23.2673 6.16201 24.0607 6.25001C24.4527 6.29624 24.7513 6.35579 24.9567 6.42868C25.1713 6.50468 25.206 6.56201 25.1887 6.53935L26.774 5.32068C26.4607 4.91268 26.0207 4.68201 25.6193 4.54201C25.1854 4.39916 24.7368 4.30525 24.282 4.26201C23.3553 4.15935 22.2247 4.16068 21.1207 4.16068V6.16068ZM26.858 10.374C27.0847 9.24335 27.2767 8.29401 27.3233 7.53401C27.3727 6.75268 27.2833 5.98201 26.774 5.32068L25.1887 6.53935C25.2713 6.64735 25.362 6.84068 25.3273 7.41135C25.2913 8.00335 25.1353 8.79401 24.898 9.98201L26.858 10.374ZM19.9873 18.6673C21.0033 18.6673 21.8567 18.6687 22.5447 18.5847C23.258 18.498 23.91 18.306 24.478 17.8433L23.214 16.2927C23.0473 16.4287 22.8113 16.538 22.3007 16.5993C21.7633 16.666 21.054 16.6673 19.9873 16.6673V18.6673ZM24.234 13.2087C24.018 14.2527 23.874 14.946 23.7007 15.4593C23.5367 15.9473 23.3807 16.1567 23.214 16.2927L24.478 17.8433C25.0473 17.3793 25.366 16.7807 25.5953 16.098C25.8167 15.442 25.9873 14.6073 26.1927 13.6127L24.234 13.2087Z" fill="var(--fill-0, #6D6D96)"/>
<path id="Vector_3" d="M13.0007 11.4007L14.5247 13.0007L18.334 9.00068" stroke="var(--stroke-0, #6D6D96)" stroke-width="1.5" stroke-linecap="round" stroke-linejoin="round"/>
</g>
</svg>
