<svg width="32" height="32" viewBox="0 0 32 32" fill="none" xmlns="http://www.w3.org/2000/svg">
<path d="M2.03657 14.633C2.17829 16.569 3.23657 18.1278 4.55086 18.3427C5.53143 18.5027 6.53486 18.6398 7.55657 18.6398C8.58057 18.6398 9.584 18.5027 10.5623 18.3427C11.8789 18.1278 12.9394 16.569 13.0766 14.633C13.1955 13.1715 13.2603 11.7061 13.2709 10.2398C13.2709 8.74499 13.1817 7.27527 13.0789 5.8467C12.9371 3.9107 11.8789 2.35413 10.56 2.13699C9.568 1.95522 8.56267 1.85583 7.55429 1.83984C6.53257 1.83984 5.52914 1.97699 4.55086 2.13699C3.23429 2.35413 2.17371 3.9107 2.03657 5.8467C1.91763 7.30818 1.85283 8.77357 1.84229 10.2398C1.84229 11.737 1.93371 13.2044 2.03657 14.633ZM30.0114 17.4581C29.872 15.5244 28.8114 13.9678 27.4903 13.753C26.4968 13.571 25.4899 13.4716 24.48 13.4558C23.4537 13.4558 22.448 13.593 21.4674 13.753C20.1486 13.9678 19.088 15.5244 18.9463 17.4581C18.8282 18.9189 18.7641 20.3835 18.7543 21.849C18.7543 23.3438 18.8434 24.8113 18.9463 26.2398C19.088 28.1758 20.1486 29.7324 21.4674 29.9473C22.4503 30.1073 23.456 30.2444 24.48 30.2444C25.504 30.2444 26.512 30.1073 27.4903 29.9473C28.8114 29.7324 29.872 28.1758 30.0137 26.2398C30.1166 24.8113 30.2057 23.3438 30.2057 21.8513C30.2057 20.3541 30.1143 18.8867 30.0114 17.4581ZM2.03657 28.7976C2.17829 29.497 3.23657 30.0593 4.55086 30.137C5.55147 30.2028 6.55382 30.2386 7.55657 30.2444C8.55932 30.2386 9.56168 30.2028 10.5623 30.137C11.8789 30.0593 12.9394 29.497 13.0766 28.7976C13.1817 28.281 13.2709 27.7484 13.2709 27.209C13.2586 26.6745 13.1943 26.1424 13.0789 25.6204C12.9371 24.921 11.8789 24.3587 10.5623 24.281C9.56168 24.2152 8.55932 24.1794 7.55657 24.1736C6.55458 24.1794 5.55299 24.2153 4.55314 24.281C3.23657 24.3587 2.176 24.921 2.03886 25.6204C1.92116 26.1421 1.85607 26.6743 1.84457 27.209C1.84457 27.7507 1.93371 28.281 2.03657 28.7976ZM30.0114 3.2867C29.872 2.58727 28.8114 2.02499 27.4903 1.94727C26.4882 1.88141 25.4843 1.84558 24.48 1.83984C23.4537 1.83984 22.448 1.89013 21.4674 1.94727C20.1486 2.02499 19.088 2.58727 18.9463 3.2867C18.8294 3.80848 18.765 4.34066 18.7543 4.87527C18.7543 5.4147 18.8434 5.94727 18.9463 6.46384C19.088 7.16327 20.1486 7.72556 21.4674 7.80327C22.4503 7.86042 23.456 7.9107 24.48 7.9107C25.504 7.9107 26.512 7.86042 27.4903 7.80327C28.8114 7.72556 29.872 7.16327 30.0137 6.46156C30.129 5.94028 30.1933 5.40901 30.2057 4.87527C30.1935 4.34077 30.1269 3.80873 30.0114 3.2867Z" stroke="#6D6D96" stroke-width="2" stroke-linecap="round" stroke-linejoin="round"/>
</svg>
