<svg width="24" height="25" viewBox="0 0 24 25" fill="none" xmlns="http://www.w3.org/2000/svg">
<path d="M17.828 21.1027L21.6147 17.3747L20.78 16.5387L17.828 19.4493L16.5547 18.1493L15.7187 18.992L17.828 21.1027ZM3.69333 6.308H17.6427V4.97467H3.692L3.69333 6.308ZM18.6667 24.1547C17.1813 24.1547 15.9213 23.6369 14.8867 22.6013C13.8511 21.5667 13.3333 20.3067 13.3333 18.8213C13.3333 17.336 13.8511 16.0756 14.8867 15.04C15.9222 14.0044 17.1822 13.4871 18.6667 13.488C20.1511 13.4889 21.4116 14.0062 22.448 15.04C23.4844 16.0738 24.0018 17.3342 24 18.8213C24 20.3058 23.4827 21.5658 22.448 22.6013C21.4116 23.6369 20.1511 24.1547 18.6667 24.1547ZM0 22.3587V2.15467C0 1.55733 0.209778 1.04889 0.629333 0.629333C1.04889 0.209778 1.55733 0 2.15467 0H19.18C19.7756 0 20.2836 0.209778 20.704 0.629333C21.1236 1.04889 21.3333 1.55733 21.3333 2.15467V10.08C21.1164 10 20.9013 9.93155 20.688 9.87467C20.4738 9.81778 20.2444 9.77333 20 9.74133V2.15467C20 1.94933 19.9147 1.76089 19.744 1.58933C19.5733 1.41778 19.3849 1.33244 19.1787 1.33333H2.15467C1.94933 1.33333 1.76089 1.41867 1.58933 1.58933C1.41778 1.76 1.33244 1.94844 1.33333 2.15467V20.0667H9.792C9.85244 20.4311 9.93067 20.7876 10.0267 21.136C10.1236 21.4844 10.2582 21.8169 10.4307 22.1333L10.3853 22.1787L8.872 21.0773L7.07733 22.3587L5.28267 21.0773L3.488 22.3587L1.692 21.0773L0 22.3587ZM3.69333 16.3587H9.972C10.0218 16.1142 10.0831 15.8853 10.156 15.672C10.2289 15.4587 10.3142 15.2431 10.412 15.0253H3.69333V16.3587ZM3.69333 11.3333H13.44C13.8756 10.9893 14.3422 10.7027 14.84 10.4733C15.3378 10.2431 15.8698 10.0853 16.436 10H3.692L3.69333 11.3333Z" fill="#6D6D96"/>
</svg>
