<svg preserveAspectRatio="none" width="100%" height="100%" overflow="visible" style="display: block;" viewBox="0 0 25.5001 28.1673" fill="none" xmlns="http://www.w3.org/2000/svg">
<g id="Group">
<path id="Vector" d="M19.09 0.750055H6.41004C4.86471 0.750055 4.09271 0.750055 3.46871 0.967388C2.88062 1.17635 2.34851 1.51787 1.9136 1.9655C1.47869 2.41313 1.15264 2.95485 0.96071 3.54872C0.750044 4.19139 0.750044 4.98605 0.750044 6.57672V25.2487C0.750044 26.3927 2.06338 27.0007 2.89404 26.2407C3.12709 26.0254 3.43274 25.9058 3.75004 25.9058C4.06735 25.9058 4.373 26.0254 4.60604 26.2407L5.25004 26.8301C5.65832 27.2076 6.19396 27.4173 6.75004 27.4173C7.30613 27.4173 7.84177 27.2076 8.25004 26.8301C8.65832 26.4525 9.19396 26.2428 9.75004 26.2428C10.3061 26.2428 10.8418 26.4525 11.25 26.8301C11.6583 27.2076 12.194 27.4173 12.75 27.4173C13.3061 27.4173 13.8418 27.2076 14.25 26.8301C14.6583 26.4525 15.194 26.2428 15.75 26.2428C16.3061 26.2428 16.8418 26.4525 17.25 26.8301C17.6583 27.2076 18.194 27.4173 18.75 27.4173C19.3061 27.4173 19.8418 27.2076 20.25 26.8301L20.894 26.2407C21.1271 26.0254 21.4327 25.9058 21.75 25.9058C22.0673 25.9058 22.373 26.0254 22.606 26.2407C23.4367 27.0007 24.75 26.3927 24.75 25.2487V6.57672C24.75 4.98605 24.75 4.19005 24.5394 3.55005C24.3476 2.95594 24.0217 2.41395 23.5867 1.96608C23.1518 1.51821 22.6196 1.17649 22.0314 0.967388C21.4074 0.750055 20.6354 0.750055 19.09 0.750055Z" stroke="var(--stroke-0, #6D6D96)" stroke-width="1.5"/>
<path id="Vector_2" d="M10.75 12.7501H19.4167M6.08338 12.7501H6.75004M6.08338 8.08339H6.75004M6.08338 17.4167H6.75004M10.75 8.08339H19.4167M10.75 17.4167H19.4167" stroke="var(--stroke-0, #6D6D96)" stroke-width="1.5" stroke-linecap="round"/>
</g>
</svg>
