<svg width="32" height="32" viewBox="0 0 32 32" fill="none" xmlns="http://www.w3.org/2000/svg">
<path d="M28 16.0011C28.0038 18.3835 27.2952 20.7125 25.9653 22.6891C24.8686 24.3251 23.3855 25.6657 21.6474 26.5922C19.9093 27.5187 17.9696 28.0026 16 28.0011C14.0304 28.0026 12.0907 27.5187 10.3526 26.5922C8.61447 25.6657 7.13144 24.3251 6.03467 22.6891C4.99031 21.1323 4.3252 19.3525 4.09267 17.4924C3.86015 15.6322 4.06666 13.7435 4.69566 11.9775C5.32467 10.2115 6.35866 8.61751 7.71476 7.3232C9.07085 6.02888 10.7113 5.07028 12.5047 4.52424C14.298 3.9782 16.1944 3.85992 18.0417 4.17886C19.889 4.49781 21.6358 5.24512 23.1423 6.36088C24.6487 7.47665 25.8728 8.92982 26.7164 10.6039C27.5599 12.278 27.9996 14.1265 28 16.0011Z" stroke="#6D6D96" stroke-width="2"/>
<path d="M17.6668 12.0026C17.6668 12.9226 16.9201 13.6693 16.0001 13.6693V15.6693C16.9726 15.6693 17.9052 15.283 18.5928 14.5953C19.2805 13.9077 19.6668 12.9751 19.6668 12.0026H17.6668ZM16.0001 13.6693C15.0801 13.6693 14.3334 12.9226 14.3334 12.0026H12.3334C12.3334 12.9751 12.7197 13.9077 13.4074 14.5953C14.095 15.283 15.0276 15.6693 16.0001 15.6693V13.6693ZM14.3334 12.0026C14.3334 11.0826 15.0801 10.3359 16.0001 10.3359V8.33594C15.0276 8.33594 14.095 8.72225 13.4074 9.40988C12.7197 10.0975 12.3334 11.0301 12.3334 12.0026H14.3334ZM16.0001 10.3359C16.9201 10.3359 17.6668 11.0826 17.6668 12.0026H19.6668C19.6668 11.0301 19.2805 10.0975 18.5928 9.40988C17.9052 8.72225 16.9726 8.33594 16.0001 8.33594V10.3359ZM6.8881 23.8106L5.92944 23.5253L5.77344 24.0479L6.12944 24.4613L6.8881 23.8106ZM25.1121 23.8106L25.8721 24.4626L26.2268 24.0493L26.0708 23.5253L25.1121 23.8106ZM12.0001 21.0026H20.0001V19.0026H12.0001V21.0026ZM12.0001 19.0026C10.6361 19.0022 9.30848 19.4422 8.21469 20.2571C7.12089 21.072 6.31939 22.2182 5.92944 23.5253L7.84677 24.0959C8.11377 23.2019 8.6622 22.4179 9.41052 21.8606C10.1588 21.3033 11.067 21.0023 12.0001 21.0026V19.0026ZM16.0001 27.0026C14.4127 27.0044 12.8437 26.6618 11.4016 25.9984C9.95938 25.335 8.67832 24.3665 7.64677 23.1599L6.12944 24.4613C7.34872 25.8866 8.86256 27.0319 10.5666 27.8157C12.2707 28.5994 14.1244 29.0044 16.0001 29.0026V27.0026ZM20.0001 21.0026C21.9601 21.0026 23.6201 22.3066 24.1534 24.0959L26.0708 23.5253C25.6808 22.2182 24.8793 21.072 23.7855 20.2571C22.6917 19.4422 21.3641 19.0022 20.0001 19.0026V21.0026ZM24.3534 23.1599C23.3219 24.3665 22.0408 25.335 20.5987 25.9984C19.1565 26.6618 17.5875 27.0044 16.0001 27.0026V29.0026C17.8758 29.0044 19.7295 28.5994 21.4336 27.8157C23.1376 27.0319 24.6528 25.8879 25.8721 24.4626L24.3534 23.1599Z" fill="#6D6D96"/>
</svg>
