<svg preserveAspectRatio="none" width="100%" height="100%" overflow="visible" style="display: block;" viewBox="0 0 28.666 28.666" fill="none" xmlns="http://www.w3.org/2000/svg">
<g id="Group">
<g id="Vector">
</g>
<g id="Vector_2">
</g>
<path id="Vector_3" d="M4.905 23.761C10.1117 28.9677 18.5543 28.9677 23.761 23.761L18.1037 18.1037C17.6084 18.5989 17.0205 18.9918 16.3734 19.2599C15.7263 19.5279 15.0327 19.6659 14.3323 19.6659C13.6319 19.6659 12.9384 19.5279 12.2913 19.2599C11.6442 18.9918 11.0562 18.5989 10.561 18.1037L4.905 23.761ZM23.7597 4.905C18.5543 -0.301667 10.1117 -0.301667 4.905 4.905L10.5597 10.5623C11.0549 10.0671 11.6429 9.67418 12.29 9.40614C12.937 9.1381 13.6306 9.00014 14.331 9.00014C15.0314 9.00014 15.725 9.1381 16.372 9.40614C17.0191 9.67418 17.6071 10.0671 18.1023 10.5623L23.7597 4.905Z" stroke="var(--stroke-0, #6D6D96)" stroke-width="2"/>
<path id="Vector_4" d="M4.905 4.90633C-0.301667 10.113 -0.301667 18.5557 4.905 23.7623L10.5623 18.105C10.0671 17.6098 9.67418 17.0218 9.40614 16.3747C9.1381 15.7276 9.00014 15.0341 9.00014 14.3337C9.00014 13.6333 9.1381 12.9397 9.40614 12.2926C9.67418 11.6455 10.0671 11.0576 10.5623 10.5623L4.905 4.90633ZM23.761 23.7623C28.9677 18.5557 28.9677 10.113 23.761 4.90633L18.1037 10.5623C18.5989 11.0576 18.9918 11.6455 19.2599 12.2926C19.5279 12.9397 19.6659 13.6333 19.6659 14.3337C19.6659 15.0341 19.5279 15.7276 19.2599 16.3747C18.9918 17.0218 18.5989 17.6098 18.1037 18.105L23.761 23.7623Z" stroke="var(--stroke-0, #6D6D96)" stroke-width="2"/>
</g>
</svg>
