<svg preserveAspectRatio="none" width="100%" height="100%" overflow="visible" style="display: block;" viewBox="0 0 32 32" fill="none" xmlns="http://www.w3.org/2000/svg">
<g id="hugeicons:logout-02">
<path id="Vector" d="M14.6667 5.33333H17.356C19.892 5.33333 21.16 5.33333 21.9467 6.11467C22.3867 6.54933 22.5813 7.13333 22.6667 8M14.6667 26.6667H17.356C19.892 26.6667 21.16 26.6667 21.9467 25.8853C22.3867 25.4507 22.5813 24.8667 22.6667 24M28 16H18.6667M26 12.6667C26 12.6667 29.3333 15.12 29.3333 16C29.3333 16.88 26 19.3333 26 19.3333M5.85733 5.33333C5.33333 6.156 5.33333 7.21733 5.33333 9.33867V22.664C5.33333 24.7853 5.33333 25.8467 5.85733 26.6667C5.95067 26.8133 6.05511 26.952 6.17067 27.0827C6.81467 27.8107 7.836 28.1027 9.87733 28.6853C11.9213 29.2693 12.944 29.5613 13.6853 29.124C13.8137 29.0478 13.9331 28.9574 14.0413 28.8547C14.6667 28.2613 14.6667 27.2 14.6667 25.0707V6.92933C14.6667 4.80133 14.6667 3.73867 14.0413 3.14667C13.9331 3.04389 13.8137 2.95354 13.6853 2.87733C12.9453 2.44 11.9213 2.73067 9.876 3.316C7.836 3.89867 6.81467 4.19067 6.16933 4.91867C6.05466 5.049 5.95034 5.18675 5.85733 5.33333Z" stroke="var(--stroke-0, #6D6D96)" stroke-width="1.5" stroke-linecap="round" stroke-linejoin="round"/>
</g>
</svg>
