<svg preserveAspectRatio="none" width="100%" height="100%" overflow="visible" style="display: block;" viewBox="0 0 32 32" fill="none" xmlns="http://www.w3.org/2000/svg">
<g id="streamline-flex:dashboard-3" clip-path="url(#clip0_0_73)">
<path id="Vector" d="M2.03657 14.6331C2.17829 16.5691 3.23657 18.128 4.55086 18.3429C5.53143 18.5029 6.53486 18.64 7.55657 18.64C8.58057 18.64 9.584 18.5029 10.5623 18.3429C11.8789 18.128 12.9394 16.5691 13.0766 14.6331C13.1955 13.1717 13.2603 11.7063 13.2709 10.24C13.2709 8.74514 13.1817 7.27543 13.0789 5.84686C12.9371 3.91086 11.8789 2.35429 10.56 2.13714C9.568 1.95538 8.56267 1.85599 7.55429 1.84C6.53257 1.84 5.52914 1.97714 4.55086 2.13714C3.23429 2.35429 2.17371 3.91086 2.03657 5.84686C1.91763 7.30834 1.85283 8.77372 1.84229 10.24C1.84229 11.7371 1.93371 13.2046 2.03657 14.6331ZM30.0114 17.4583C29.872 15.5246 28.8114 13.968 27.4903 13.7531C26.4968 13.5711 25.4899 13.4717 24.48 13.456C23.4537 13.456 22.448 13.5931 21.4674 13.7531C20.1486 13.968 19.088 15.5246 18.9463 17.4583C18.8282 18.919 18.7641 20.3837 18.7543 21.8491C18.7543 23.344 18.8434 24.8114 18.9463 26.24C19.088 28.176 20.1486 29.7326 21.4674 29.9474C22.4503 30.1074 23.456 30.2446 24.48 30.2446C25.504 30.2446 26.512 30.1074 27.4903 29.9474C28.8114 29.7326 29.872 28.176 30.0137 26.24C30.1166 24.8114 30.2057 23.344 30.2057 21.8514C30.2057 20.3543 30.1143 18.8869 30.0114 17.4583ZM2.03657 28.7977C2.17829 29.4971 3.23657 30.0594 4.55086 30.1371C5.55147 30.2029 6.55382 30.2387 7.55657 30.2446C8.55932 30.2387 9.56168 30.2029 10.5623 30.1371C11.8789 30.0594 12.9394 29.4971 13.0766 28.7977C13.1817 28.2811 13.2709 27.7486 13.2709 27.2091C13.2586 26.6746 13.1943 26.1426 13.0789 25.6206C12.9371 24.9211 11.8789 24.3589 10.5623 24.2811C9.56168 24.2154 8.55932 24.1795 7.55657 24.1737C6.55458 24.1796 5.55299 24.2154 4.55314 24.2811C3.23657 24.3589 2.176 24.9211 2.03886 25.6206C1.92116 26.1423 1.85607 26.6745 1.84457 27.2091C1.84457 27.7509 1.93371 28.2811 2.03657 28.7977ZM30.0114 3.28686C29.872 2.58743 28.8114 2.02514 27.4903 1.94743C26.4882 1.88157 25.4843 1.84574 24.48 1.84C23.4537 1.84 22.448 1.89029 21.4674 1.94743C20.1486 2.02514 19.088 2.58743 18.9463 3.28686C18.8294 3.80863 18.765 4.34082 18.7543 4.87543C18.7543 5.41486 18.8434 5.94743 18.9463 6.464C19.088 7.16343 20.1486 7.72571 21.4674 7.80343C22.4503 7.86057 23.456 7.91086 24.48 7.91086C25.504 7.91086 26.512 7.86057 27.4903 7.80343C28.8114 7.72571 29.872 7.16343 30.0137 6.46171C30.129 5.94043 30.1933 5.40917 30.2057 4.87543C30.1935 4.34092 30.1269 3.80889 30.0114 3.28686Z" stroke="var(--stroke-0, #FF975D)" stroke-width="2" stroke-linecap="round" stroke-linejoin="round"/>
</g>
<defs>
<clipPath id="clip0_0_73">
<rect width="32" height="32" fill="white"/>
</clipPath>
</defs>
</svg>
