<svg width="54" height="54" viewBox="0 0 54 54" fill="none" xmlns="http://www.w3.org/2000/svg">
<path d="M32.8065 29.9545C31.8975 30.8635 31.443 31.318 30.9413 31.7095C30.3499 32.1705 29.7101 32.5658 29.0333 32.8885C28.4595 33.1608 27.8498 33.3633 26.6303 33.7705L22.7265 35.0733L20.1998 35.9148C19.9052 36.0134 19.589 36.028 19.2867 35.9567C18.9844 35.8855 18.7079 35.7314 18.4884 35.5116C18.2688 35.2919 18.115 35.0152 18.0441 34.7128C17.9732 34.4104 17.988 34.0942 18.087 33.7998L18.9285 31.2753L20.2313 27.3715C20.6385 26.152 20.841 25.5423 21.1133 24.9685C21.4373 24.289 21.8303 23.653 22.2923 23.0605C22.6838 22.5588 23.1383 22.1043 24.0473 21.1953L37.4685 7.77627C37.4685 7.77627 37.6508 10.879 40.389 13.615C43.125 16.3533 46.2255 16.5355 46.2255 16.5355L47.688 15.0753C48.8499 13.9137 49.5027 12.3382 49.5029 10.6953C49.5031 9.05243 48.8507 7.47674 47.6891 6.3149C46.5276 5.15305 44.9521 4.50021 43.3092 4.5C41.6663 4.49979 40.0906 5.15222 38.9288 6.31377L37.4685 7.77402M18.9285 31.2753L22.7265 35.0733M46.2278 16.5333L39.516 23.2428" stroke="#FF975D" stroke-width="4" stroke-linecap="round"/>
<path d="M51.1875 27C51.1875 26.5524 51.0097 26.1232 50.6933 25.8068C50.3768 25.4903 49.9476 25.3125 49.5 25.3125C49.0525 25.3125 48.6232 25.4903 48.3068 25.8068C47.9903 26.1232 47.8125 26.5524 47.8125 27H51.1875ZM27 6.1875C27.4476 6.1875 27.8768 6.00971 28.1933 5.69324C28.5097 5.37678 28.6875 4.94755 28.6875 4.5C28.6875 4.05245 28.5097 3.62322 28.1933 3.30676C27.8768 2.99029 27.4476 2.8125 27 2.8125V6.1875ZM16.596 45.0293C16.4043 44.9182 16.1925 44.8459 15.9728 44.8167C15.7531 44.7874 15.5298 44.8017 15.3157 44.8587C15.1015 44.9158 14.9007 45.0144 14.7247 45.1491C14.5487 45.2837 14.4009 45.4517 14.2898 45.6435C14.1787 45.8353 14.1064 46.047 14.0772 46.2667C14.0479 46.4864 14.0622 46.7097 14.1193 46.9238C14.1763 47.138 14.275 47.3388 14.4096 47.5148C14.5443 47.6909 14.7123 47.8387 14.904 47.9498L16.596 45.0293ZM6.05027 39.0938C6.15675 39.2937 6.30238 39.4701 6.47851 39.6126C6.65463 39.7551 6.85763 39.8606 7.0754 39.9229C7.29318 39.9853 7.52128 40.0031 7.7461 39.9754C7.97093 39.9477 8.18787 39.875 8.38401 39.7617C8.58014 39.6484 8.75145 39.4967 8.88773 39.3158C9.024 39.1348 9.12245 38.9283 9.17721 38.7085C9.23196 38.4887 9.2419 38.2601 9.20644 38.0364C9.17097 37.8126 9.09083 37.5983 8.97078 37.4062L6.05027 39.0938ZM47.8125 27C47.8125 32.5198 45.6198 37.8136 41.7167 41.7167C37.8136 45.6198 32.5198 47.8125 27 47.8125V51.1875C40.3583 51.1875 51.1875 40.3582 51.1875 27H47.8125ZM27 2.8125C13.6418 2.8125 2.81253 13.6418 2.81253 27H6.18753C6.18753 21.4802 8.38027 16.1864 12.2834 12.2833C16.1865 8.38024 21.4802 6.1875 27 6.1875V2.8125ZM14.904 47.9498C18.5799 50.077 22.753 51.1941 27 51.1875V47.8125C23.3472 47.819 19.7577 46.8587 16.596 45.0293L14.904 47.9498ZM2.81253 27C2.80637 31.2462 3.92339 35.4186 6.05027 39.0938L8.97078 37.4062C7.14092 34.2439 6.18065 30.6536 6.18753 27H2.81253Z" fill="#FF975D"/>
</svg>
