<svg viewBox="0 0 20 20" fill="none" xmlns="http://www.w3.org/2000/svg">
<g id="proicons:chat">
<path id="Vector" d="M6.64167 8.23833H13.3583M6.64167 11.7617H11.4317M10 17.7083C11.6745 17.708 13.3033 17.1624 14.6402 16.154C15.977 15.1457 16.9491 13.7294 17.4096 12.1195C17.87 10.5095 17.7936 8.79344 17.1921 7.23075C16.5905 5.66805 15.4964 4.34373 14.0753 3.45809C12.6542 2.57244 10.9834 2.17363 9.31546 2.32197C7.64756 2.47032 6.07332 3.15774 4.83082 4.28029C3.58832 5.40283 2.74514 6.89945 2.42881 8.54378C2.11247 10.1881 2.34018 11.8907 3.0775 13.3942C3.1675 13.5775 3.1975 13.7842 3.15167 13.9825L2.47167 16.9292C2.4525 17.0119 2.4547 17.0981 2.47806 17.1797C2.50142 17.2613 2.54517 17.3356 2.6052 17.3956C2.66522 17.4557 2.73954 17.4994 2.82115 17.5228C2.90276 17.5461 2.98897 17.5483 3.07167 17.5292L6.0175 16.8483C6.21639 16.8048 6.42423 16.8313 6.60583 16.9233C7.66199 17.442 8.82336 17.7106 10 17.7083Z" stroke="var(--stroke-0, white)" stroke-width="1.25" stroke-linecap="round" stroke-linejoin="round"/>
</g>
</svg>
