<svg viewBox="0 0 27.3375 27.3375" fill="none" xmlns="http://www.w3.org/2000/svg">
<g id="Group">
<path id="Vector" d="M6.33334 13.3975C13.3787 0.266862 22.1507 0.114861 25.6573 1.68019C27.2227 5.18686 27.0707 13.9589 13.94 21.0042C13.804 20.2215 13.0467 18.1709 11.1067 16.2309C9.16667 14.2909 7.11601 13.5335 6.33334 13.3975Z" stroke="var(--stroke-0, #4285F4)" stroke-width="2" stroke-linecap="round" stroke-linejoin="round"/>
<path id="Vector_2" d="M15.6667 20.7375C18.3907 21.9815 18.68 24.2135 19.0587 26.3375C19.0587 26.3375 24.7627 22.4015 21.1147 17.0042M6.6 11.6709C5.356 8.94686 3.12401 8.65619 1 8.27886C1 8.27886 4.93601 2.57486 10.3333 6.22286M5.27867 17.0042C4.43601 17.8469 3.00401 20.2895 4.01467 23.3229C7.04801 24.3335 9.49067 22.9015 10.3333 22.0589" stroke="var(--stroke-0, #4285F4)" stroke-width="2" stroke-linecap="round" stroke-linejoin="round"/>
<path id="Vector_3" d="M21.1267 8.67486C21.1267 8.35146 21.063 8.03122 20.9392 7.73244C20.8155 7.43366 20.6341 7.16217 20.4054 6.93349C20.1767 6.70481 19.9052 6.52342 19.6064 6.39965C19.3076 6.27589 18.9874 6.2122 18.664 6.2122C18.3406 6.2122 18.0204 6.27589 17.7216 6.39965C17.4228 6.52342 17.1513 6.70481 16.9226 6.93349C16.694 7.16217 16.5126 7.43366 16.3888 7.73244C16.265 8.03122 16.2013 8.35146 16.2013 8.67486C16.2013 9.328 16.4608 9.95439 16.9226 10.4162C17.3845 10.8781 18.0109 11.1375 18.664 11.1375C19.3171 11.1375 19.9435 10.8781 20.4054 10.4162C20.8672 9.95439 21.1267 9.328 21.1267 8.67486Z" stroke="var(--stroke-0, #4285F4)" stroke-width="2"/>
</g>
</svg>
