<svg viewBox="0 0 32 32" fill="none" xmlns="http://www.w3.org/2000/svg">
<g id="fluent:pause-32-regular">
<path id="Vector" d="M7.25 3C6.38805 3 5.5614 3.34241 4.9519 3.9519C4.34241 4.5614 4 5.38805 4 6.25V24.75C4 25.1768 4.08406 25.5994 4.24739 25.9937C4.41072 26.388 4.65011 26.7463 4.9519 27.0481C5.25369 27.3499 5.61197 27.5893 6.00628 27.7526C6.40059 27.9159 6.8232 28 7.25 28H10.75C11.1768 28 11.5994 27.9159 11.9937 27.7526C12.388 27.5893 12.7463 27.3499 13.0481 27.0481C13.3499 26.7463 13.5893 26.388 13.7526 25.9937C13.9159 25.5994 14 25.1768 14 24.75V6.25C14 5.8232 13.9159 5.40059 13.7526 5.00628C13.5893 4.61197 13.3499 4.25369 13.0481 3.9519C12.7463 3.65011 12.388 3.41072 11.9937 3.24739C11.5994 3.08406 11.1768 3 10.75 3H7.25ZM6 6.25C6 5.56 6.56 5 7.25 5H10.75C11.44 5 12 5.56 12 6.25V24.75C12 25.44 11.44 26 10.75 26H7.25C6.56 26 6 25.44 6 24.75V6.25ZM21.25 3C20.8232 3 20.4006 3.08406 20.0063 3.24739C19.612 3.41072 19.2537 3.65011 18.9519 3.9519C18.6501 4.25369 18.4107 4.61197 18.2474 5.00628C18.0841 5.40059 18 5.8232 18 6.25V24.75C18 25.1768 18.0841 25.5994 18.2474 25.9937C18.4107 26.388 18.6501 26.7463 18.9519 27.0481C19.2537 27.3499 19.612 27.5893 20.0063 27.7526C20.4006 27.9159 20.8232 28 21.25 28H24.75C25.1768 28 25.5994 27.9159 25.9937 27.7526C26.388 27.5893 26.7463 27.3499 27.0481 27.0481C27.3499 26.7463 27.5893 26.388 27.7526 25.9937C27.9159 25.5994 28 25.1768 28 24.75V6.25C28 5.8232 27.9159 5.40059 27.7526 5.00628C27.5893 4.61197 27.3499 4.25369 27.0481 3.9519C26.7463 3.65011 26.388 3.41072 25.9937 3.24739C25.5994 3.08406 25.1768 3 24.75 3H21.25ZM20 6.25C20 5.56 20.56 5 21.25 5H24.75C25.44 5 26 5.56 26 6.25V24.75C26 25.44 25.44 26 24.75 26H21.25C20.56 26 20 25.44 20 24.75V6.25Z" fill="#8535EF"/>
</g>
</svg>
