<svg viewBox="0 0 24 24" fill="none" xmlns="http://www.w3.org/2000/svg">
<g id="material-symbols:motion-photos-paused-outline-rounded">
<path id="Vector" d="M10.713 14.713C10.9043 14.521 11 14.2833 11 14V10C11 9.71667 10.904 9.47933 10.712 9.288C10.52 9.09667 10.2827 9.00067 10 9C9.71733 8.99933 9.48 9.09533 9.288 9.288C9.096 9.48067 9 9.718 9 10V14C9 14.2833 9.096 14.521 9.288 14.713C9.48 14.905 9.71733 15.0007 10 15C10.2827 14.9993 10.5203 14.9033 10.713 14.712M14.713 14.712C14.9043 14.5213 15 14.284 15 14V10C15 9.71667 14.904 9.47933 14.712 9.288C14.52 9.09667 14.2827 9.00067 14 9C13.7173 8.99933 13.48 9.09533 13.288 9.288C13.096 9.48067 13 9.718 13 10V14C13 14.2833 13.096 14.521 13.288 14.713C13.48 14.905 13.7173 15.0007 14 15C14.2827 14.9993 14.5203 14.9033 14.713 14.712ZM12 22C10.6167 22 9.31667 21.7373 8.1 21.212C6.88333 20.6867 5.825 19.9743 4.925 19.075C4.025 18.1757 3.31267 17.1173 2.788 15.9C2.26333 14.6827 2.00067 13.3827 2 12C2 11.4667 2.04167 10.9333 2.125 10.4C2.20833 9.86667 2.33333 9.34167 2.5 8.825C2.58333 8.55833 2.75433 8.37933 3.013 8.288C3.27167 8.19667 3.51733 8.21733 3.75 8.35C4 8.48333 4.17933 8.67933 4.288 8.938C4.39667 9.19667 4.409 9.46733 4.325 9.75C4.225 10.1167 4.14567 10.4877 4.087 10.863C4.02833 11.2383 3.99933 11.6173 4 12C4 14.2333 4.775 16.125 6.325 17.675C7.875 19.225 9.76667 20 12 20C14.2333 20 16.125 19.225 17.675 17.675C19.225 16.125 20 14.2333 20 12C20 9.76667 19.225 7.875 17.675 6.325C16.125 4.775 14.2333 4 12 4C11.6 4 11.2043 4.029 10.813 4.087C10.4217 4.145 10.034 4.23267 9.65 4.35C9.36667 4.43333 9.1 4.425 8.85 4.325C8.6 4.225 8.41667 4.05 8.3 3.8C8.18333 3.55 8.179 3.296 8.287 3.038C8.395 2.78 8.58267 2.609 8.85 2.525C9.35 2.34167 9.86667 2.20833 10.4 2.125C10.9333 2.04167 11.4667 2 12 2C13.3833 2 14.6833 2.26267 15.9 2.788C17.1167 3.31333 18.175 4.02567 19.075 4.925C19.975 5.82433 20.6877 6.88267 21.213 8.1C21.7383 9.31733 22.0007 10.6173 22 12C21.9993 13.3827 21.7367 14.6827 21.212 15.9C20.6873 17.1173 19.975 18.1757 19.075 19.075C18.175 19.9743 17.1167 20.687 15.9 21.213C14.6833 21.739 13.3833 22.0013 12 22ZM4.438 6.563C4.146 6.271 4 5.91667 4 5.5C4 5.08333 4.146 4.72933 4.438 4.438C4.73 4.14667 5.084 4.00067 5.5 4C5.916 3.99933 6.27033 4.14533 6.563 4.438C6.85567 4.73067 7.00133 5.08467 7 5.5C6.99867 5.91533 6.853 6.26967 6.563 6.563C6.273 6.85633 5.91867 7.002 5.5 7C5.08133 6.998 4.72733 6.85233 4.438 6.563Z" fill="#FFB000"/>
</g>
</svg>
