<svg viewBox="0 0 18.7344 21" fill="none" xmlns="http://www.w3.org/2000/svg">
<g id="Group">
<path id="Vector" d="M9.23444 10.5C11.9959 10.5 14.2344 8.26143 14.2344 5.5C14.2344 2.73858 11.9959 0.5 9.23444 0.5C6.47301 0.5 4.23444 2.73858 4.23444 5.5C4.23444 8.26143 6.47301 10.5 9.23444 10.5Z" stroke="var(--stroke-0, #FF5C00)"/>
<path id="Vector_2" d="M14.2344 20.5H2.50044C2.21682 20.5001 1.93643 20.4398 1.67788 20.3232C1.41933 20.2066 1.18854 20.0364 1.00081 19.8238C0.813085 19.6112 0.672723 19.3611 0.58904 19.0901C0.505357 18.8191 0.480267 18.5334 0.515436 18.252L0.905436 15.128C0.996132 14.4022 1.34885 13.7346 1.89727 13.2506C2.44568 12.7667 3.15201 12.4997 3.88344 12.5H4.23444M14.2344 15L15.7344 16.5L18.2344 13.5" stroke="var(--stroke-0, #FF5C00)" stroke-linecap="round" stroke-linejoin="round"/>
</g>
</svg>
