<svg preserveAspectRatio="none" width="100%" height="100%" overflow="visible" style="display: block;" viewBox="0 0 32 32" fill="none" xmlns="http://www.w3.org/2000/svg">
<g id="famicons:notifications">
<path id="Vector" d="M27.505 21.3319C27.4012 21.2069 27.2994 21.0819 27.1994 20.9613C25.8244 19.2981 24.9925 18.2944 24.9925 13.5863C24.9925 11.1488 24.4094 9.14875 23.26 7.64875C22.4125 6.54062 21.2669 5.7 19.7569 5.07875C19.7374 5.06794 19.7201 5.05376 19.7056 5.03687C19.1625 3.21812 17.6762 2 16 2C14.3237 2 12.8381 3.21812 12.295 5.035C12.2805 5.05129 12.2634 5.06503 12.2444 5.07562C8.72062 6.52625 7.00812 9.30938 7.00812 13.5844C7.00812 18.2944 6.1775 19.2981 4.80125 20.9594C4.70125 21.08 4.59937 21.2025 4.49562 21.33C4.22763 21.6532 4.05783 22.0464 4.00632 22.4631C3.95482 22.8798 4.02376 23.3025 4.205 23.6812C4.59062 24.4937 5.4125 24.9981 6.35062 24.9981H25.6562C26.59 24.9981 27.4062 24.4944 27.7931 23.6856C27.9751 23.3068 28.0447 22.8837 27.9937 22.4666C27.9426 22.0494 27.773 21.6556 27.505 21.3319ZM16 30C16.9031 29.9993 17.7893 29.7541 18.5643 29.2905C19.3394 28.827 19.9746 28.1622 20.4025 27.3669C20.4227 27.3288 20.4326 27.2861 20.4314 27.243C20.4302 27.1999 20.4178 27.1578 20.3956 27.1209C20.3733 27.084 20.3419 27.0534 20.3043 27.0322C20.2668 27.0111 20.2244 27 20.1812 27H11.82C11.7768 26.9998 11.7344 27.0109 11.6967 27.032C11.6591 27.0532 11.6275 27.0837 11.6052 27.1206C11.5829 27.1576 11.5705 27.1997 11.5692 27.2428C11.568 27.286 11.5779 27.3287 11.5981 27.3669C12.026 28.1621 12.661 28.8268 13.436 29.2904C14.211 29.7539 15.097 29.9992 16 30Z" fill="var(--fill-0, white)"/>
</g>
</svg>
