<svg viewBox="0 0 29.3333 29.3333" fill="none" xmlns="http://www.w3.org/2000/svg">
<g id="Group">
<path id="Vector" fill-rule="evenodd" clip-rule="evenodd" d="M14.6667 2.66667C13.0908 2.66667 11.5304 2.97706 10.0745 3.58011C8.61856 4.18317 7.29569 5.06708 6.18139 6.18139C5.06708 7.29569 4.18317 8.61856 3.58011 10.0745C2.97706 11.5304 2.66667 13.0908 2.66667 14.6667C2.66667 16.2425 2.97706 17.803 3.58011 19.2589C4.18317 20.7148 5.06708 22.0376 6.18139 23.1519C7.29569 24.2663 8.61856 25.1502 10.0745 25.7532C11.5304 26.3563 13.0908 26.6667 14.6667 26.6667C17.8493 26.6667 20.9015 25.4024 23.1519 23.1519C25.4024 20.9015 26.6667 17.8493 26.6667 14.6667C26.6667 11.4841 25.4024 8.43182 23.1519 6.18139C20.9015 3.93095 17.8493 2.66667 14.6667 2.66667ZM0 14.6667C0 6.56667 6.56667 0 14.6667 0C22.7667 0 29.3333 6.56667 29.3333 14.6667C29.3333 22.7667 22.7667 29.3333 14.6667 29.3333C6.56667 29.3333 0 22.7667 0 14.6667Z" fill="#34A853"/>
<path id="Vector_2" fill-rule="evenodd" clip-rule="evenodd" d="M22.144 10.6667L11.8427 20.968L6.66667 14.7907L8.68133 13.044L11.9827 17.0573L20.2587 8.78133L22.144 10.6667Z" fill="#34A853"/>
</g>
</svg>
