<svg preserveAspectRatio="none" width="100%" height="100%" overflow="visible" style="display: block;" viewBox="0 0 14 14" fill="none" xmlns="http://www.w3.org/2000/svg">
<g id="fluent:open-20-regular">
<path id="Vector" d="M4.2 2.8C3.8287 2.8 3.4726 2.9475 3.21005 3.21005C2.9475 3.4726 2.8 3.8287 2.8 4.2V9.8C2.8 10.1713 2.9475 10.5274 3.21005 10.7899C3.4726 11.0525 3.8287 11.2 4.2 11.2H9.8C10.1713 11.2 10.5274 11.0525 10.7899 10.7899C11.0525 10.5274 11.2 10.1713 11.2 9.8V8.05C11.2 7.95717 11.2369 7.86815 11.3025 7.80251C11.3682 7.73687 11.4572 7.7 11.55 7.7C11.6428 7.7 11.7318 7.73687 11.7975 7.80251C11.8631 7.86815 11.9 7.95717 11.9 8.05V9.8C11.9 10.357 11.6788 10.8911 11.2849 11.2849C10.8911 11.6788 10.357 11.9 9.8 11.9H4.2C3.64305 11.9 3.1089 11.6788 2.71508 11.2849C2.32125 10.8911 2.1 10.357 2.1 9.8V4.2C2.1 3.64305 2.32125 3.1089 2.71508 2.71508C3.1089 2.32125 3.64305 2.1 4.2 2.1H5.95C6.04283 2.1 6.13185 2.13688 6.19749 2.20251C6.26313 2.26815 6.3 2.35717 6.3 2.45C6.3 2.54283 6.26313 2.63185 6.19749 2.69749C6.13185 2.76313 6.04283 2.8 5.95 2.8H4.2ZM7.7 2.45C7.7 2.35717 7.73687 2.26815 7.80251 2.20251C7.86815 2.13688 7.95717 2.1 8.05 2.1H11.55C11.6428 2.1 11.7318 2.13688 11.7975 2.20251C11.8631 2.26815 11.9 2.35717 11.9 2.45V5.95C11.9 6.04283 11.8631 6.13185 11.7975 6.19749C11.7318 6.26313 11.6428 6.3 11.55 6.3C11.4572 6.3 11.3682 6.26313 11.3025 6.19749C11.2369 6.13185 11.2 6.04283 11.2 5.95V3.2949L8.2978 6.1978C8.23208 6.26352 8.14294 6.30044 8.05 6.30044C7.95706 6.30044 7.86792 6.26352 7.8022 6.1978C7.73648 6.13208 7.69956 6.04294 7.69956 5.95C7.69956 5.85706 7.73648 5.76792 7.8022 5.7022L10.7051 2.8H8.05C7.95717 2.8 7.86815 2.76313 7.80251 2.69749C7.73687 2.63185 7.7 2.54283 7.7 2.45Z" fill="var(--fill-0, white)"/>
</g>
</svg>
