<svg preserveAspectRatio="none" width="100%" height="100%" overflow="visible" style="display: block;" viewBox="0 0 48.6889 48.6878" fill="none" xmlns="http://www.w3.org/2000/svg">
<g id="Group">
<path id="Vector" d="M29.9925 27.4545C29.0835 28.3635 28.629 28.818 28.1273 29.2095C27.5359 29.6705 26.8961 30.0658 26.2193 30.3885C25.6455 30.6608 25.0358 30.8633 23.8163 31.2705L19.9125 32.5733L17.3858 33.4148C17.0912 33.5134 16.775 33.528 16.4727 33.4567C16.1704 33.3855 15.8939 33.2314 15.6744 33.0116C15.4548 32.7919 15.301 32.5152 15.2301 32.2128C15.1592 31.9104 15.1741 31.5942 15.273 31.2998L16.1145 28.7753L17.4173 24.8715C17.8245 23.652 18.027 23.0423 18.2993 22.4685C18.6233 21.789 19.0163 21.153 19.4783 20.5605C19.8698 20.0588 20.3243 19.6043 21.2333 18.6953L34.6545 5.27627C34.6545 5.27627 34.8368 8.37902 37.575 11.115C40.311 13.8533 43.4115 14.0355 43.4115 14.0355L44.874 12.5753C46.0359 11.4137 46.6887 9.83821 46.6889 8.19532C46.6891 6.55243 46.0367 4.97674 44.8752 3.8149C43.7136 2.65305 42.1381 2.00021 40.4952 2C38.8523 1.99979 37.2766 2.65222 36.1148 3.81377L34.6545 5.27402M16.1145 28.7753L19.9125 32.5733M43.4138 14.0333L36.702 20.7428" stroke="var(--stroke-0, #FF975D)" stroke-width="4" stroke-linecap="round"/>
<path id="Vector_2" d="M48.375 24.5003C48.375 24.0527 48.1972 23.6235 47.8808 23.307C47.5643 22.9906 47.1351 22.8128 46.6875 22.8128C46.24 22.8128 45.8107 22.9906 45.4943 23.307C45.1778 23.6235 45 24.0527 45 24.5003H48.375ZM24.1875 3.68777C24.6351 3.68777 25.0643 3.50998 25.3808 3.19351C25.6972 2.87705 25.875 2.44782 25.875 2.00027C25.875 1.55272 25.6972 1.1235 25.3808 0.807028C25.0643 0.49056 24.6351 0.312771 24.1875 0.312771V3.68777ZM13.7835 42.5295C13.5918 42.4184 13.38 42.3462 13.1603 42.3169C12.9406 42.2877 12.7173 42.302 12.5032 42.359C12.289 42.416 12.0882 42.5147 11.9122 42.6494C11.7362 42.784 11.5884 42.952 11.4773 43.1438C11.3662 43.3355 11.2939 43.5473 11.2647 43.767C11.2354 43.9867 11.2497 44.21 11.3068 44.4241C11.3638 44.6383 11.4625 44.8391 11.5971 45.0151C11.7318 45.1911 11.8998 45.3389 12.0915 45.45L13.7835 42.5295ZM3.23777 36.594C3.34425 36.794 3.48988 36.9704 3.66601 37.1129C3.84213 37.2553 4.04513 37.3609 4.2629 37.4232C4.48068 37.4855 4.70878 37.5034 4.9336 37.4757C5.15843 37.448 5.37537 37.3753 5.57151 37.262C5.76764 37.1486 5.93895 36.997 6.07523 36.816C6.2115 36.6351 6.30995 36.4286 6.36471 36.2088C6.41946 35.989 6.4294 35.7604 6.39394 35.5366C6.35847 35.3129 6.27833 35.0986 6.15828 34.9065L3.23777 36.594ZM45 24.5003C45 30.0201 42.8073 35.3138 38.9042 39.2169C35.0011 43.12 29.7073 45.3128 24.1875 45.3128V48.6878C37.5458 48.6878 48.375 37.8585 48.375 24.5003H45ZM24.1875 0.312771C10.8293 0.312771 2.53138e-05 11.142 2.53138e-05 24.5003H3.37503C3.37503 18.9805 5.56777 13.6867 9.47087 9.78361C13.374 5.88051 18.6677 3.68777 24.1875 3.68777V0.312771ZM12.0915 45.45C15.7674 47.5773 19.9405 48.6943 24.1875 48.6878V45.3128C20.5347 45.3192 16.9452 44.359 13.7835 42.5295L12.0915 45.45ZM2.53138e-05 24.5003C-0.00613145 28.7465 1.11089 32.9188 3.23777 36.594L6.15828 34.9065C4.32842 31.7442 3.36815 28.1539 3.37503 24.5003H2.53138e-05Z" fill="var(--fill-0, #FF975D)"/>
</g>
</svg>
