<svg width="80" height="80" viewBox="0 0 80 80" fill="none" xmlns="http://www.w3.org/2000/svg">
<path d="M40 0L74.641 20V60L40 80L5.35898 60V20L40 0Z" fill="url(#paint0_linear_3280_19812)"/>
<path d="M27.3407 35.8284L33.4647 27.5424C37.4227 22.1864 39.4027 19.5084 41.2487 20.0744C43.0947 20.6404 43.0947 23.9244 43.0947 30.4944V31.1144C43.0947 33.4844 43.0947 34.6684 43.8527 35.4104L43.8927 35.4504C44.6667 36.1764 45.8987 36.1764 48.3647 36.1764C52.8047 36.1764 55.0227 36.1764 55.7727 37.5224L55.8087 37.5904C56.5167 38.9564 55.2307 40.6964 52.6607 44.1704L46.5367 52.4584C42.5767 57.8144 40.5987 60.4924 38.7527 59.9264C36.9067 59.3604 36.9067 56.0764 36.9067 49.5064V48.8864C36.9067 46.5164 36.9067 45.3324 36.1487 44.5904L36.1087 44.5504C35.3347 43.8244 34.1027 43.8244 31.6367 43.8244C27.1967 43.8244 24.9787 43.8244 24.2307 42.4784L24.1927 42.4104C23.4847 41.0444 24.7707 39.3064 27.3407 35.8304V35.8284Z" stroke="white" stroke-width="3"/>
<defs>
<linearGradient id="paint0_linear_3280_19812" x1="40" y1="0" x2="40" y2="80" gradientUnits="userSpaceOnUse">
<stop stop-color="#A9C6FF"/>
<stop offset="0.5" stop-color="#658DDA"/>
<stop offset="1" stop-color="#344A76"/>
</linearGradient>
</defs>
</svg>
