<svg preserveAspectRatio="none" width="100%" height="100%" overflow="visible" style="display: block;" viewBox="0 0 21.24 17.1" fill="none" xmlns="http://www.w3.org/2000/svg">
<g id="Group">
<g id="Group_2" opacity="0.2">
<path id="Vector" d="M9.9 4.5C9.9 5.45478 9.52072 6.37045 8.84558 7.04559C8.17045 7.72072 7.25478 8.1 6.3 8.1C5.34522 8.1 4.42955 7.72072 3.75442 7.04559C3.07928 6.37045 2.7 5.45478 2.7 4.5C2.7 3.54522 3.07928 2.62955 3.75442 1.95442C4.42955 1.27928 5.34522 0.9 6.3 0.9C7.25478 0.9 8.17045 1.27928 8.84558 1.95442C9.52072 2.62955 9.9 3.54522 9.9 4.5Z" fill="var(--fill-0, #FF975D)"/>
<path id="Vector_2" fill-rule="evenodd" clip-rule="evenodd" d="M6.3 5.7C6.61826 5.7 6.92348 5.57357 7.14853 5.34853C7.37357 5.12348 7.5 4.81826 7.5 4.5C7.5 4.18174 7.37357 3.87652 7.14853 3.65147C6.92348 3.42643 6.61826 3.3 6.3 3.3C5.98174 3.3 5.67652 3.42643 5.45147 3.65147C5.22643 3.87652 5.1 4.18174 5.1 4.5C5.1 4.81826 5.22643 5.12348 5.45147 5.34853C5.67652 5.57357 5.98174 5.7 6.3 5.7ZM6.3 8.1C6.77276 8.1 7.24089 8.00688 7.67766 7.82597C8.11443 7.64505 8.51129 7.37988 8.84558 7.04559C9.17988 6.71129 9.44505 6.31443 9.62597 5.87766C9.80688 5.44089 9.9 4.97276 9.9 4.5C9.9 4.02724 9.80688 3.55911 9.62597 3.12234C9.44505 2.68557 9.17988 2.28871 8.84558 1.95442C8.51129 1.62012 8.11443 1.35495 7.67766 1.17403C7.24089 0.993117 6.77276 0.9 6.3 0.9C5.34522 0.9 4.42955 1.27928 3.75442 1.95442C3.07928 2.62955 2.7 3.54522 2.7 4.5C2.7 5.45478 3.07928 6.37045 3.75442 7.04559C4.42955 7.72072 5.34522 8.1 6.3 8.1Z" fill="var(--fill-0, #FF975D)"/>
<path id="Vector_3" fill-rule="evenodd" clip-rule="evenodd" d="M6.36 9C5.88261 9 5.42477 9.18964 5.08721 9.52721C4.74964 9.86477 4.56 10.3226 4.56 10.8V12.6C4.56 12.9183 4.43357 13.2235 4.20853 13.4485C3.98348 13.6736 3.67826 13.8 3.36 13.8C3.04174 13.8 2.73652 13.6736 2.51147 13.4485C2.28643 13.2235 2.16 12.9183 2.16 12.6V10.8C2.16 9.68609 2.6025 8.6178 3.39015 7.83015C4.1778 7.0425 5.24609 6.6 6.36 6.6C7.47391 6.6 8.5422 7.0425 9.32985 7.83015C10.1175 8.6178 10.56 9.68609 10.56 10.8V11.4C10.56 11.7183 10.4336 12.0235 10.2085 12.2485C9.98348 12.4736 9.67826 12.6 9.36 12.6C9.04174 12.6 8.73652 12.4736 8.51147 12.2485C8.28643 12.0235 8.16 11.7183 8.16 11.4V10.8C8.16 10.3226 7.97036 9.86477 7.63279 9.52721C7.29523 9.18964 6.83739 9 6.36 9Z" fill="var(--fill-0, #FF975D)"/>
<path id="Vector_4" d="M13.5 4.5C13.5 5.45478 13.8793 6.37045 14.5544 7.04559C15.2295 7.72072 16.1452 8.1 17.1 8.1C18.0548 8.1 18.9705 7.72072 19.6456 7.04559C20.3207 6.37045 20.7 5.45478 20.7 4.5C20.7 3.54522 20.3207 2.62955 19.6456 1.95442C18.9705 1.27928 18.0548 0.9 17.1 0.9C16.1452 0.9 15.2295 1.27928 14.5544 1.95442C13.8793 2.62955 13.5 3.54522 13.5 4.5Z" fill="var(--fill-0, #FF975D)"/>
<path id="Vector_5" fill-rule="evenodd" clip-rule="evenodd" d="M17.1 5.7C16.7817 5.7 16.4765 5.57357 16.2515 5.34853C16.0264 5.12348 15.9 4.81826 15.9 4.5C15.9 4.18174 16.0264 3.87652 16.2515 3.65147C16.4765 3.42643 16.7817 3.3 17.1 3.3C17.4183 3.3 17.7235 3.42643 17.9485 3.65147C18.1736 3.87652 18.3 4.18174 18.3 4.5C18.3 4.81826 18.1736 5.12348 17.9485 5.34853C17.7235 5.57357 17.4183 5.7 17.1 5.7ZM17.1 8.1C16.6272 8.1 16.1591 8.00688 15.7223 7.82597C15.2856 7.64505 14.8887 7.37988 14.5544 7.04559C14.2201 6.71129 13.955 6.31443 13.774 5.87766C13.5931 5.44089 13.5 4.97276 13.5 4.5C13.5 4.02724 13.5931 3.55911 13.774 3.12234C13.955 2.68557 14.2201 2.28871 14.5544 1.95442C14.8887 1.62012 15.2856 1.35495 15.7223 1.17403C16.1591 0.993117 16.6272 0.9 17.1 0.9C18.0548 0.9 18.9705 1.27928 19.6456 1.95442C20.3207 2.62955 20.7 3.54522 20.7 4.5C20.7 5.45478 20.3207 6.37045 19.6456 7.04559C18.9705 7.72072 18.0548 8.1 17.1 8.1Z" fill="var(--fill-0, #FF975D)"/>
<path id="Vector_6" fill-rule="evenodd" clip-rule="evenodd" d="M17.04 9C17.5174 9 17.9752 9.18964 18.3128 9.52721C18.6504 9.86477 18.84 10.3226 18.84 10.8V12.6C18.84 12.9183 18.9664 13.2235 19.1915 13.4485C19.4165 13.6736 19.7217 13.8 20.04 13.8C20.3583 13.8 20.6635 13.6736 20.8885 13.4485C21.1136 13.2235 21.24 12.9183 21.24 12.6V10.8C21.24 9.68609 20.7975 8.6178 20.0098 7.83015C19.2222 7.0425 18.1539 6.6 17.04 6.6C15.9261 6.6 14.8578 7.0425 14.0702 7.83015C13.2825 8.6178 12.84 9.68609 12.84 10.8V11.4C12.84 11.7183 12.9664 12.0235 13.1915 12.2485C13.4165 12.4736 13.7217 12.6 14.04 12.6C14.3583 12.6 14.6635 12.4736 14.8885 12.2485C15.1136 12.0235 15.24 11.7183 15.24 11.4V10.8C15.24 10.3226 15.4296 9.86477 15.7672 9.52721C16.1048 9.18964 16.5626 9 17.04 9Z" fill="var(--fill-0, #FF975D)"/>
<path id="Vector_7" fill-rule="evenodd" clip-rule="evenodd" d="M11.76 12.3C11.2826 12.3 10.8248 12.4896 10.4872 12.8272C10.1496 13.1648 9.96 13.6226 9.96 14.1V15.9C9.96 16.2183 9.83357 16.5235 9.60853 16.7485C9.38348 16.9736 9.07826 17.1 8.76 17.1C8.44174 17.1 8.13652 16.9736 7.91147 16.7485C7.68643 16.5235 7.56 16.2183 7.56 15.9V14.1C7.56 12.9861 8.0025 11.9178 8.79015 11.1302C9.5778 10.3425 10.6461 9.9 11.76 9.9C12.8739 9.9 13.9422 10.3425 14.7298 11.1302C15.5175 11.9178 15.96 12.9861 15.96 14.1V15.9C15.96 16.2183 15.8336 16.5235 15.6085 16.7485C15.3835 16.9736 15.0783 17.1 14.76 17.1C14.4417 17.1 14.1365 16.9736 13.9115 16.7485C13.6864 16.5235 13.56 16.2183 13.56 15.9V14.1C13.56 13.6226 13.3704 13.1648 13.0328 12.8272C12.6952 12.4896 12.2374 12.3 11.76 12.3Z" fill="var(--fill-0, #FF975D)"/>
<path id="Vector_8" d="M15.3 7.8C15.3 8.75478 14.9207 9.67045 14.2456 10.3456C13.5705 11.0207 12.6548 11.4 11.7 11.4C10.7452 11.4 9.82955 11.0207 9.15442 10.3456C8.47928 9.67045 8.1 8.75478 8.1 7.8C8.1 6.84522 8.47928 5.92955 9.15442 5.25442C9.82955 4.57928 10.7452 4.2 11.7 4.2C12.6548 4.2 13.5705 4.57928 14.2456 5.25442C14.9207 5.92955 15.3 6.84522 15.3 7.8Z" fill="var(--fill-0, #FF975D)"/>
<path id="Vector_9" fill-rule="evenodd" clip-rule="evenodd" d="M11.7 9C12.0183 9 12.3235 8.87357 12.5485 8.64853C12.7736 8.42348 12.9 8.11826 12.9 7.8C12.9 7.48174 12.7736 7.17652 12.5485 6.95147C12.3235 6.72643 12.0183 6.6 11.7 6.6C11.3817 6.6 11.0765 6.72643 10.8515 6.95147C10.6264 7.17652 10.5 7.48174 10.5 7.8C10.5 8.11826 10.6264 8.42348 10.8515 8.64853C11.0765 8.87357 11.3817 9 11.7 9ZM11.7 11.4C12.6548 11.4 13.5705 11.0207 14.2456 10.3456C14.9207 9.67045 15.3 8.75478 15.3 7.8C15.3 6.84522 14.9207 5.92955 14.2456 5.25442C13.5705 4.57928 12.6548 4.2 11.7 4.2C10.7452 4.2 9.82955 4.57928 9.15442 5.25442C8.47928 5.92955 8.1 6.84522 8.1 7.8C8.1 8.75478 8.47928 9.67045 9.15442 10.3456C9.82955 11.0207 10.7452 11.4 11.7 11.4Z" fill="var(--fill-0, #FF975D)"/>
<path id="Vector_10" d="M3.3 9H9.3V13.8H3.3V9ZM14.1 9H20.1V13.8H14.1V9Z" fill="var(--fill-0, #FF975D)"/>
<path id="Vector_11" d="M9.3 11.4H14.1L14.7 17.1H8.7L9.3 11.4Z" fill="var(--fill-0, #FF975D)"/>
</g>
<path id="Vector_12" fill-rule="evenodd" clip-rule="evenodd" d="M4.2 6C4.83652 6 5.44697 5.74714 5.89706 5.29706C6.34714 4.84697 6.6 4.23652 6.6 3.6C6.6 2.96348 6.34714 2.35303 5.89706 1.90294C5.44697 1.45286 4.83652 1.2 4.2 1.2C3.56348 1.2 2.95303 1.45286 2.50294 1.90294C2.05286 2.35303 1.8 2.96348 1.8 3.6C1.8 4.23652 2.05286 4.84697 2.50294 5.29706C2.95303 5.74714 3.56348 6 4.2 6ZM4.2 7.2C4.67276 7.2 5.14089 7.10688 5.57766 6.92597C6.01443 6.74505 6.41129 6.47988 6.74558 6.14559C7.07988 5.81129 7.34505 5.41443 7.52597 4.97766C7.70688 4.54089 7.8 4.07276 7.8 3.6C7.8 3.12724 7.70688 2.65911 7.52597 2.22234C7.34505 1.78557 7.07988 1.38871 6.74558 1.05442C6.41129 0.720125 6.01443 0.454951 5.57766 0.274034C5.14089 0.093117 4.67276 -7.04465e-09 4.2 0C3.24522 1.42273e-08 2.32955 0.379285 1.65442 1.05442C0.979285 1.72955 0.6 2.64522 0.6 3.6C0.6 4.55478 0.979285 5.47045 1.65442 6.14559C2.32955 6.82072 3.24522 7.2 4.2 7.2Z" fill="var(--fill-0, #FF975D)"/>
<path id="Vector_13" fill-rule="evenodd" clip-rule="evenodd" d="M2.8248 5.8752C2.88068 5.93094 2.92501 5.99715 2.95526 6.07004C2.9855 6.14293 3.00107 6.22108 3.00107 6.3C3.00107 6.37892 2.9855 6.45707 2.95526 6.52996C2.92501 6.60285 2.88068 6.66907 2.8248 6.7248L2.4192 7.1292C1.63864 7.90997 1.2001 8.96877 1.2 10.0728V12.3C1.2 12.4591 1.13679 12.6117 1.02426 12.7243C0.911742 12.8368 0.75913 12.9 0.6 12.9C0.44087 12.9 0.288258 12.8368 0.175736 12.7243C0.0632141 12.6117 0 12.4591 0 12.3V10.0728C0.000170111 8.65054 0.565183 7.28657 1.5708 6.2808L1.9752 5.8752C2.03093 5.81932 2.09715 5.77499 2.17004 5.74475C2.24293 5.7145 2.32108 5.69893 2.4 5.69893C2.47892 5.69893 2.55707 5.7145 2.62996 5.74475C2.70285 5.77499 2.76907 5.81932 2.8248 5.8752ZM16.9752 5.5152C16.9193 5.57093 16.875 5.63715 16.8447 5.71004C16.8145 5.78293 16.7989 5.86108 16.7989 5.94C16.7989 6.01892 16.8145 6.09707 16.8447 6.16996C16.875 6.24286 16.9193 6.30907 16.9752 6.3648L17.3808 6.7692C18.1614 7.54997 18.5999 8.60877 18.6 9.7128V12.3C18.6 12.4591 18.6632 12.6117 18.7757 12.7243C18.8883 12.8368 19.0409 12.9 19.2 12.9C19.3591 12.9 19.5117 12.8368 19.6243 12.7243C19.7368 12.6117 19.8 12.4591 19.8 12.3V9.7128C19.7998 8.29054 19.2348 6.92657 18.2292 5.9208L17.8248 5.5152C17.7691 5.45932 17.7029 5.41499 17.63 5.38475C17.5571 5.3545 17.4789 5.33893 17.4 5.33893C17.3211 5.33893 17.2429 5.3545 17.17 5.38475C17.0971 5.41499 17.0309 5.45932 16.9752 5.5152Z" fill="var(--fill-0, #FF975D)"/>
<path id="Vector_14" fill-rule="evenodd" clip-rule="evenodd" d="M15 6C14.3635 6 13.753 5.74714 13.3029 5.29706C12.8529 4.84697 12.6 4.23652 12.6 3.6C12.6 2.96348 12.8529 2.35303 13.3029 1.90294C13.753 1.45286 14.3635 1.2 15 1.2C15.6365 1.2 16.247 1.45286 16.6971 1.90294C17.1471 2.35303 17.4 2.96348 17.4 3.6C17.4 4.23652 17.1471 4.84697 16.6971 5.29706C16.247 5.74714 15.6365 6 15 6ZM15 7.2C14.5272 7.2 14.0591 7.10688 13.6223 6.92597C13.1856 6.74505 12.7887 6.47988 12.4544 6.14559C12.1201 5.81129 11.855 5.41443 11.674 4.97766C11.4931 4.54089 11.4 4.07276 11.4 3.6C11.4 3.12724 11.4931 2.65911 11.674 2.22234C11.855 1.78557 12.1201 1.38871 12.4544 1.05442C12.7887 0.720125 13.1856 0.454951 13.6223 0.274034C14.0591 0.093117 14.5272 -7.04465e-09 15 0C15.9548 1.42273e-08 16.8705 0.379285 17.5456 1.05442C18.2207 1.72955 18.6 2.64522 18.6 3.6C18.6 4.55478 18.2207 5.47045 17.5456 6.14559C16.8705 6.82072 15.9548 7.2 15 7.2ZM9.6 11.1C8.80435 11.1 8.04129 11.4161 7.47868 11.9787C6.91607 12.5413 6.6 13.3044 6.6 14.1V15.66C6.6 15.8191 6.53679 15.9717 6.42426 16.0843C6.31174 16.1968 6.15913 16.26 6 16.26C5.84087 16.26 5.68826 16.1968 5.57574 16.0843C5.46321 15.9717 5.4 15.8191 5.4 15.66V14.1C5.4 12.9861 5.8425 11.9178 6.63015 11.1302C7.4178 10.3425 8.48609 9.9 9.6 9.9C10.7139 9.9 11.7822 10.3425 12.5698 11.1302C13.3575 11.9178 13.8 12.9861 13.8 14.1V15.66C13.8 15.8191 13.7368 15.9717 13.6243 16.0843C13.5117 16.1968 13.3591 16.26 13.2 16.26C13.0409 16.26 12.8883 16.1968 12.7757 16.0843C12.6632 15.9717 12.6 15.8191 12.6 15.66V14.1C12.6 13.706 12.5224 13.3159 12.3716 12.9519C12.2209 12.588 11.9999 12.2573 11.7213 11.9787C11.4427 11.7001 11.112 11.4791 10.7481 11.3284C10.3841 11.1776 9.99397 11.1 9.6 11.1Z" fill="var(--fill-0, #FF975D)"/>
<path id="Vector_15" fill-rule="evenodd" clip-rule="evenodd" d="M9.6 9.3C10.2365 9.3 10.847 9.04714 11.2971 8.59706C11.7471 8.14697 12 7.53652 12 6.9C12 6.26348 11.7471 5.65303 11.2971 5.20294C10.847 4.75286 10.2365 4.5 9.6 4.5C8.96348 4.5 8.35303 4.75286 7.90294 5.20294C7.45286 5.65303 7.2 6.26348 7.2 6.9C7.2 7.53652 7.45286 8.14697 7.90294 8.59706C8.35303 9.04714 8.96348 9.3 9.6 9.3ZM9.6 10.5C10.5548 10.5 11.4705 10.1207 12.1456 9.44558C12.8207 8.77045 13.2 7.85478 13.2 6.9C13.2 5.94522 12.8207 5.02955 12.1456 4.35442C11.4705 3.67928 10.5548 3.3 9.6 3.3C8.64522 3.3 7.72955 3.67928 7.05442 4.35442C6.37928 5.02955 6 5.94522 6 6.9C6 7.85478 6.37928 8.77045 7.05442 9.44558C7.72955 10.1207 8.64522 10.5 9.6 10.5Z" fill="var(--fill-0, #FF975D)"/>
</g>
</svg>
