<svg preserveAspectRatio="none" width="100%" height="100%" overflow="visible" style="display: block;" viewBox="0 0 16 16" fill="none" xmlns="http://www.w3.org/2000/svg">
<g id="mage:stars-a-fill">
<path id="Vector" d="M14.6467 6.31333C14.646 6.46234 14.5988 6.6074 14.5115 6.72816C14.4242 6.84892 14.3013 6.93932 14.16 6.98667L12.9067 7.4C12.5132 7.53158 12.1558 7.75316 11.863 8.04713C11.5702 8.34109 11.35 8.69932 11.22 9.09333L10.7867 10.34C10.7369 10.4791 10.6463 10.5999 10.5267 10.6867C10.436 10.752 10.3312 10.7948 10.2208 10.8118C10.1103 10.8287 9.99748 10.8192 9.89144 10.7841C9.78539 10.7489 9.68919 10.6892 9.61072 10.6096C9.53224 10.5301 9.47374 10.4332 9.44 10.3267L9.02 9.07333C8.88456 8.67814 8.65588 8.32141 8.35333 8.03333C8.06078 7.73305 7.70248 7.50483 7.30667 7.36667L6.05333 6.94667C5.91141 6.90199 5.78741 6.81325 5.69933 6.69333C5.61293 6.57157 5.56652 6.42597 5.56652 6.27667C5.56652 6.12737 5.61293 5.98176 5.69933 5.86C5.78793 5.73656 5.91429 5.6453 6.05933 5.6L7.306 5.18C7.70724 5.04506 8.07059 4.81654 8.366 4.51333C8.666 4.218 8.89467 3.85733 9.03267 3.46L9.446 2.22667C9.48508 2.08575 9.56941 1.9616 9.686 1.87333C9.80329 1.77923 9.94896 1.72754 10.0993 1.72667C10.2483 1.72307 10.3948 1.76493 10.5193 1.84667C10.646 1.92614 10.7423 2.04589 10.7927 2.18667L11.2127 3.46C11.3507 3.85733 11.5793 4.218 11.8793 4.51333C12.1728 4.81565 12.5338 5.04412 12.9327 5.18L14.1793 5.62C14.3197 5.6639 14.4415 5.75297 14.526 5.87333C14.6127 6.00267 14.656 6.15667 14.6467 6.31333ZM8.06667 10.9333C8.06634 11.0693 8.02447 11.2019 7.94667 11.3133C7.8661 11.4217 7.75451 11.5031 7.62667 11.5467L6.72667 11.8467C6.47451 11.9356 6.24634 12.0816 6.06 12.2733C5.87008 12.4611 5.72433 12.6889 5.63333 12.94L5.32 13.8333C5.27643 13.9612 5.19506 14.0728 5.08667 14.1533C4.97441 14.2322 4.84054 14.2746 4.70333 14.2746C4.56612 14.2746 4.43226 14.2322 4.32 14.1533C4.2116 14.0728 4.13023 13.9612 4.08667 13.8333L3.79333 12.94C3.70214 12.6888 3.55617 12.4611 3.366 12.2733C3.17819 12.0834 2.95046 11.9377 2.69933 11.8467L1.79933 11.5533C1.67062 11.508 1.55892 11.4242 1.47933 11.3133C1.39916 11.2026 1.35494 11.07 1.35267 10.9333C1.35507 10.7959 1.39992 10.6625 1.48108 10.5515C1.56223 10.4405 1.67572 10.3573 1.806 10.3133L2.69933 10.02C2.94954 9.92722 3.17677 9.78149 3.36546 9.5928C3.55416 9.4041 3.69988 9.17688 3.79267 8.92667L4.09267 8.04667C4.13262 7.92053 4.2092 7.80914 4.31267 7.72667C4.42083 7.64427 4.5516 7.59692 4.68745 7.59096C4.82329 7.585 4.9577 7.62072 5.07267 7.69333C5.18667 7.772 5.27467 7.88333 5.326 8.01333L5.626 8.92667C5.71878 9.17688 5.8645 9.4041 6.0532 9.5928C6.2419 9.78149 6.46912 9.92722 6.71933 10.02L7.61267 10.3333C7.74022 10.374 7.85051 10.4561 7.926 10.5667C8.01072 10.6707 8.0598 10.7993 8.066 10.9333" fill="var(--fill-0, #4285F4)"/>
</g>
</svg>
