<svg preserveAspectRatio="none" width="100%" height="100%" overflow="visible" style="display: block;" viewBox="0 0 52.4192 54.0027" fill="none" xmlns="http://www.w3.org/2000/svg">
<g id="Group">
<path id="Vector" fill-rule="evenodd" clip-rule="evenodd" d="M29.1117 10.4736C28.9542 9.97863 28.7292 9.52863 28.5717 9.03363C28.3857 8.42455 28.2577 7.79928 28.1892 7.16613C28.1985 7.07978 28.1899 6.99242 28.1639 6.90955C28.1379 6.82667 28.095 6.75008 28.0379 6.68458C27.9809 6.61908 27.9109 6.56608 27.8324 6.52892C27.7539 6.49176 27.6685 6.47123 27.5817 6.46863C27.4123 6.46239 27.2472 6.52231 27.1212 6.63569C26.9952 6.74908 26.9183 6.90704 26.9067 7.07613C26.5613 8.55625 26.5613 10.096 26.9067 11.5761C27.1122 12.4086 27.4047 13.2104 27.7842 13.9814C28.0542 14.5664 28.2792 14.5664 28.5942 14.9489C28.9092 15.3314 30.1467 15.3764 30.2142 14.6114C29.9217 13.3739 29.9892 13.2389 29.6067 12.0014C29.4717 11.4164 29.2917 10.9461 29.1117 10.4736ZM37.6797 6.78588C37.5346 6.6969 37.3613 6.666 37.1944 6.69938C37.0275 6.73276 36.8794 6.82795 36.7797 6.96588C35.8274 8.04288 35.0664 9.27491 34.5297 10.6086C34.2447 11.3406 34.0122 12.0906 33.8322 12.8586C33.5803 13.512 33.4433 14.2039 33.4272 14.9039C33.4272 15.8489 34.3047 15.8939 35.1597 15.3089C35.6097 14.6654 35.9652 13.9589 36.2172 13.2164C36.4962 12.4814 36.7287 11.7314 36.9147 10.9664C37.1308 9.83624 37.4548 8.72943 37.8822 7.66113C37.9624 7.51559 37.986 7.34559 37.9487 7.18368C37.9113 7.02177 37.8155 6.87933 37.6797 6.78363" fill="var(--fill-0, white)"/>
<path id="Vector_2" fill-rule="evenodd" clip-rule="evenodd" d="M24.8817 13.6439C23.3003 12.7406 21.8479 11.628 20.5639 10.3364C19.9737 9.69749 19.518 8.94628 19.2243 8.12755C18.9305 7.30882 18.8045 6.43932 18.8539 5.57088C18.8539 4.90938 18.9289 4.25688 19.0789 3.61338C19.1914 3.16338 19.3039 2.69088 19.6639 2.48838C19.8513 2.38985 20.0598 2.33836 20.2714 2.33836C20.4831 2.33836 20.6916 2.38985 20.8789 2.48838C21.7489 2.90388 22.5589 3.41388 23.3089 4.01838C24.0154 4.58763 24.8479 4.98138 25.7389 5.16588C26.3372 5.25014 26.9465 5.1313 27.4692 4.82838C28.1697 4.38545 28.8058 3.84787 29.3592 3.23088C29.6742 2.91588 29.9667 2.53338 30.3717 2.48838C30.9634 2.42538 31.5619 2.49513 32.1244 2.69088C33.7962 3.61113 35.5894 4.28613 37.4547 4.69338C37.9697 4.71739 38.4854 4.6643 38.9847 4.53588C40.4247 4.15338 41.6374 2.98338 43.1877 2.82588C43.5018 2.79272 43.8186 2.79272 44.1327 2.82588C44.4132 2.84088 44.6832 2.90088 44.9427 3.00588C45.8427 3.34338 46.3602 3.63588 46.4952 4.08588C46.5169 4.2708 46.5001 4.4582 46.4459 4.63632C46.3917 4.81443 46.3012 4.97941 46.1802 5.12088C45.0102 6.94338 42.0852 8.87838 41.1177 10.2486C40.2477 11.5986 39.4534 12.9929 38.7349 14.4314C38.1724 15.4439 39.7249 15.4214 40.2424 14.4314C41.2324 13.1714 41.5249 12.4064 42.4924 11.1239C43.6577 9.95834 44.897 8.86932 46.2027 7.86363C47.2377 7.02438 48.0184 5.91063 48.4527 4.64838C48.7452 3.34338 48.2277 1.94838 45.7527 0.868384C45.3008 0.674165 44.8235 0.545369 44.3352 0.485884C43.8784 0.450949 43.4195 0.450949 42.9627 0.485884C41.5239 0.815456 40.1386 1.34564 38.8474 2.06088C38.4544 2.21705 38.0322 2.28614 37.6099 2.26338C35.7222 2.12838 34.5072 0.913384 32.9569 0.373384C32.0342 0.0470561 31.0499 -0.0675223 30.0769 0.0381338C29.488 0.120387 28.9301 0.352843 28.4569 0.713134C27.8944 1.14063 27.3544 1.74813 26.7942 2.26563C26.2317 2.78313 26.2767 2.85063 25.9167 2.80563C25.4246 2.66576 24.9655 2.42858 24.5667 2.10813C23.682 1.43295 22.7243 0.859344 21.7114 0.398134C21.2048 0.184886 20.6544 0.0960767 20.1064 0.139136C19.5583 0.182196 19.0286 0.355872 18.5614 0.645634C17.9776 1.03964 17.5427 1.61793 17.3262 2.28813C16.9878 3.36367 16.8356 4.4891 16.8762 5.61588C16.8741 6.70292 17.0878 7.77957 17.5049 8.78339C17.922 9.78722 18.5343 10.6982 19.3062 11.4636C20.8806 12.8442 22.6736 13.9536 24.6117 14.7464C25.3992 15.0614 25.8267 14.2964 24.8817 13.6439Z" fill="var(--fill-0, white)"/>
<path id="Vector_3" fill-rule="evenodd" clip-rule="evenodd" d="M26.0292 17.2866C27.2112 17.6766 28.4112 17.9991 29.6292 18.2541C30.3732 18.3831 31.1224 18.4656 31.8769 18.5016C32.6269 18.5571 33.3769 18.5571 34.1269 18.5016C35.1394 18.5016 40.9849 17.3991 40.5574 16.2516C40.5519 16.151 40.5238 16.0529 40.4751 15.9647C40.4264 15.8764 40.3585 15.8003 40.2763 15.7419C40.1942 15.6835 40.0999 15.6444 40.0005 15.6275C39.9012 15.6106 39.7993 15.6162 39.7024 15.6441C35.8144 16.3866 31.8229 16.4316 27.9192 15.7791C26.8167 15.5691 25.7067 15.4191 24.5892 15.3291C22.3139 14.6622 19.8888 14.7094 17.6412 15.4641C16.1445 16.0073 14.7348 16.7653 13.4562 17.7141C11.6134 19.0416 9.97319 20.6841 8.24069 22.2141H8.21819C7.61069 22.2741 7.01069 22.3791 6.41819 22.5291C5.74619 22.7316 5.09369 22.9859 4.46069 23.2919C3.17819 23.9219 2.05094 24.8286 1.15769 25.9469C0.494136 26.786 0.0947486 27.8032 0.0101937 28.8696C-0.0176482 29.1476 0.01169 29.4283 0.0964029 29.6946C0.181116 29.9608 0.319411 30.2068 0.502778 30.4176C0.686145 30.6284 0.910704 30.7994 1.16263 30.9201C1.41457 31.0408 1.68854 31.1087 1.96769 31.1196C3.47947 31.1894 4.98101 30.8389 6.30569 30.1071C6.71069 29.8446 7.08569 29.5446 7.43069 29.2071C7.80119 28.9026 8.13869 28.5651 8.44319 28.1946C9.00569 27.5571 9.47819 26.8596 9.86069 26.1021C10.2037 25.3891 10.446 24.6318 10.5807 23.8521C10.6035 23.7606 10.6075 23.6653 10.5925 23.5722C10.5775 23.479 10.5437 23.3899 10.4932 23.3102C10.4427 23.2305 10.3766 23.1618 10.2988 23.1084C10.221 23.055 10.1332 23.0179 10.0407 22.9994C9.93716 22.9745 9.82922 22.9745 9.72569 22.9994C11.3907 21.8969 13.0534 20.7494 14.7409 19.7144C15.9396 18.9653 17.1952 18.3116 18.4962 17.7591C19.8854 17.1581 21.3701 16.8076 22.8814 16.7241C23.9569 16.6971 25.0257 16.8884 26.0292 17.2866ZM9.16544 23.5169C8.98994 24.1694 8.71544 24.7904 8.35544 25.3619C8.00212 25.9363 7.56189 26.4524 7.05044 26.8919C6.75951 27.1586 6.45134 27.4059 6.12794 27.6321C5.81294 27.8751 5.47544 28.0851 5.11544 28.2621C4.59559 28.4747 4.05265 28.6257 3.49769 28.7121C3.16346 28.7838 2.82541 28.8364 2.48519 28.8696C2.55071 28.1241 2.85897 27.4206 3.36269 26.8671C3.91199 26.1242 4.58114 25.4778 5.34269 24.9546C5.84982 24.6117 6.38409 24.3107 6.94019 24.0546C7.46519 23.8116 8.01194 23.6316 8.58044 23.5146C8.78562 23.5486 8.99592 23.5001 9.16544 23.3796L9.32294 23.2694C9.32294 23.2694 9.18794 23.4044 9.16544 23.5169Z" fill="var(--fill-0, #FF5C00)"/>
<path id="Vector_4" fill-rule="evenodd" clip-rule="evenodd" d="M51.4204 35.8626C49.8904 32.7126 46.9204 29.9924 44.9427 27.0921C44.0855 25.7996 43.3832 24.4108 42.8502 22.9544C42.0627 20.9519 41.5024 19.6694 40.8499 17.6466C40.6249 17.1291 39.3199 17.8491 39.7249 18.4566C40.3324 20.4591 40.6024 21.5391 41.3224 23.5394C41.9187 25.1099 42.6724 26.6174 43.5724 28.0371C45.1249 30.5121 47.4852 32.8499 49.0354 35.4351C50.077 36.9576 50.5544 38.7958 50.3854 40.6326C49.6429 46.4781 44.9427 49.6259 39.1399 50.9309C34.0977 51.9591 28.8754 51.6959 23.9614 50.1659C20.7206 49.2814 17.7472 47.6131 15.3034 45.3081C13.6001 43.5538 12.6063 41.2311 12.5134 38.7876C12.5188 34.863 13.4926 31.0003 15.3484 27.5421C16.2822 25.7286 17.4477 24.0434 18.8112 22.5269C20.0946 21.0109 21.5094 19.6113 23.0389 18.3441C23.8939 17.1291 23.0389 16.9266 21.8239 17.5341C20.3374 18.7731 18.9507 20.1156 17.6637 21.5616C16.1818 23.1714 14.8977 24.9525 13.8387 26.8671C11.7353 30.5286 10.5769 34.6564 10.4682 38.8776C10.5038 41.8647 11.6593 44.7296 13.7059 46.9056C16.367 49.5556 19.6549 51.4898 23.2639 52.5284C28.5649 54.1776 34.1989 54.4476 39.6349 53.3159C46.3827 51.7859 51.6454 47.7359 52.3879 40.8779C52.5284 39.1492 52.1939 37.415 51.4204 35.8626Z" fill="var(--fill-0, white)"/>
<path id="Vector_5" fill-rule="evenodd" clip-rule="evenodd" d="M21.4414 23.7846C21.2441 24.6329 21.146 25.5012 21.1489 26.3721C21.0792 28.2346 21.3773 30.0925 22.0264 31.8396C21.4164 32.6855 21.0435 33.679 20.9464 34.7174C20.8452 35.8649 21.0387 37.0169 21.5089 38.0676C22.0039 39.1251 22.6722 40.0904 23.4889 40.9251C23.9884 41.4021 24.6252 41.7149 25.3114 41.8229C25.8901 41.8719 26.468 41.7195 26.9473 41.3915C27.4266 41.0635 27.7778 40.5801 27.9417 40.0229L28.2792 38.6279C28.3017 38.3084 28.3017 37.9859 28.2792 37.6604C28.2471 37.2314 28.1946 36.8041 28.1217 36.3801C28.0464 35.9089 27.9412 35.443 27.8067 34.9851C27.6458 34.5175 27.4425 34.0656 27.1992 33.6351C26.8738 33.1202 26.4802 32.6517 26.0292 32.2424C25.4442 31.7024 24.7917 31.2299 24.1392 30.7124C24.0267 30.635 23.8933 30.5935 23.7567 30.5935C23.6201 30.5935 23.4867 30.635 23.3742 30.7124C23.2217 29.0914 23.2898 27.4573 23.5767 25.8546C23.7792 24.6396 24.0267 23.4471 24.3417 22.2569C24.6267 20.8109 25.0392 19.4016 25.5792 18.0291C25.5792 17.1741 24.6792 17.3541 24.1167 18.0291C23.3308 19.0184 22.6668 20.0987 22.1389 21.2466C21.8242 22.0686 21.5906 22.9194 21.4414 23.7869M23.0614 32.7846C23.1775 32.7425 23.2804 32.6703 23.3594 32.5755C23.4385 32.4806 23.491 32.3664 23.5114 32.2446C23.9314 32.6196 24.3289 33.0171 24.7039 33.4371C24.9889 33.7731 25.2289 34.1406 25.4239 34.5396C25.5544 34.8576 25.6519 35.1876 25.7164 35.5296C25.7584 35.8896 25.7584 36.2496 25.7164 36.6096V38.2724L25.5364 38.9249C25.2664 39.4424 25.5364 39.4199 24.8839 38.9249C24.2359 38.3576 23.6749 37.6981 23.2189 36.9674C22.7824 36.2924 22.5214 35.5206 22.4539 34.7174C22.4922 34.0334 22.7014 33.3696 23.0614 32.7846Z" fill="var(--fill-0, #FF5C00)"/>
</g>
</svg>
