<svg preserveAspectRatio="none" width="100%" height="100%" overflow="visible" style="display: block;" viewBox="0 0 53.6239 54.0243" fill="none" xmlns="http://www.w3.org/2000/svg">
<g id="Group">
<path id="Vector" fill-rule="evenodd" clip-rule="evenodd" d="M25.1762 18.7903C20.0304 17.5438 16.6329 20.0211 18.5567 25.5516C19.7874 29.0391 27.7007 51.4356 32.0319 53.6091C33.007 54.0303 34.0898 54.1343 35.1272 53.9061C36.1645 53.678 37.1039 53.1293 37.8122 52.3378C39.1295 49.7341 40.1037 46.9706 40.7102 44.1163C41.7137 39.7851 40.2467 41.2881 45.8132 39.2788C49.0982 38.0931 52.8647 36.8623 53.5374 33.4356C53.7161 32.6328 53.6163 31.7932 53.2544 31.0547C52.8925 30.3162 52.2901 29.7228 51.5462 29.3721C43.2021 24.8219 34.3511 21.2701 25.1762 18.7903ZM50.6192 30.9853C52.8309 32.3173 51.1659 34.9453 48.4592 35.9173C37.0697 39.9876 39.8484 37.0041 38.1812 43.4931C37.5814 45.9275 36.7395 48.2958 35.6679 50.5626C35.3408 50.8939 34.9163 51.1119 34.4564 51.1848C33.9966 51.2577 33.5255 51.1816 33.1119 50.9676C30.4209 49.1136 22.6742 28.6296 21.2319 24.5998C20.2689 21.9336 20.7324 20.5791 24.5462 21.4453C33.5792 23.6067 42.3287 26.8159 50.6169 31.0078L50.6192 30.9853Z" fill="var(--fill-0, white)"/>
<path id="Vector_2" fill-rule="evenodd" clip-rule="evenodd" d="M0.628693 14.7628C3.85603 16.7997 7.45602 18.1749 11.2194 18.8083C11.4558 18.8871 11.7137 18.8688 11.9365 18.7574C12.1593 18.646 12.3287 18.4506 12.4074 18.2143C12.4862 17.978 12.4679 17.7201 12.3565 17.4973C12.2451 17.2745 12.0498 17.1051 11.8134 17.0263C9.86044 15.9013 7.81294 14.9496 5.69344 14.1801C-1.15331 11.6601 -0.316307 14.4411 0.628693 14.7628ZM15.4494 0.997337C14.6102 16.0633 18.4644 14.1598 18.4667 12.6073C18.6353 8.63992 18.2129 4.66949 17.2134 0.826337C17.2054 0.708051 17.1737 0.592581 17.1202 0.486759C17.0668 0.380937 16.9926 0.286914 16.9022 0.210253C16.8118 0.133592 16.7069 0.0758518 16.5937 0.040448C16.4806 0.00504433 16.3615 -0.00730317 16.2435 0.00413621C16.1254 0.0155756 16.0109 0.0505694 15.9067 0.107047C15.8024 0.163524 15.7106 0.240338 15.6366 0.332943C15.5625 0.425547 15.5078 0.532061 15.4757 0.646181C15.4435 0.760301 15.4346 0.879708 15.4494 0.997337ZM30.1847 0.855587C28.0819 4.42883 26.7106 8.38453 26.1504 12.4926C26.1114 12.6096 26.0959 12.7331 26.1046 12.8562C26.1134 12.9792 26.1462 13.0993 26.2014 13.2096C26.2566 13.3199 26.3329 13.4183 26.4261 13.4991C26.5193 13.5799 26.6274 13.6416 26.7444 13.6806C26.8615 13.7196 26.985 13.7352 27.108 13.7264C27.231 13.7177 27.3511 13.6848 27.4615 13.6296C27.5718 13.5745 27.6702 13.4981 27.751 13.405C27.8318 13.3118 27.8934 13.2036 27.9324 13.0866C29.8869 9.46663 31.2144 5.54193 31.8587 1.47884C31.9078 1.36741 31.9336 1.24712 31.9345 1.12537C31.9354 1.00361 31.9114 0.88296 31.8639 0.770818C31.8165 0.658676 31.7467 0.557414 31.6587 0.473251C31.5707 0.389088 31.4664 0.323803 31.3523 0.281404C31.2381 0.239006 31.1165 0.22039 30.995 0.226699C30.8734 0.233009 30.7543 0.264111 30.6452 0.318095C30.5361 0.372079 30.4391 0.447806 30.3603 0.540623C30.2815 0.63344 30.2225 0.741389 30.1869 0.857837M32.8509 18.3921C36.7618 17.1357 40.4045 15.1618 43.5924 12.5713C43.703 12.5182 43.8019 12.4437 43.8836 12.3523C43.9654 12.2609 44.0283 12.1542 44.0689 12.0385C44.1094 11.9227 44.1267 11.8001 44.1199 11.6777C44.113 11.5552 44.0821 11.4353 44.0289 11.3248C43.9758 11.2143 43.9013 11.1154 43.8099 11.0336C43.7185 10.9519 43.6118 10.889 43.4961 10.8484C43.3803 10.8079 43.2578 10.7906 43.1353 10.7974C43.0129 10.8043 42.893 10.8352 42.7824 10.8883C38.9436 12.2709 35.3507 14.2588 32.1399 16.7766C31.9474 16.8842 31.8018 17.0597 31.7317 17.2688C31.6616 17.478 31.672 17.7057 31.7609 17.9076C31.8497 18.1095 32.0107 18.2711 32.2122 18.3606C32.4138 18.4502 32.6415 18.4614 32.8509 18.3921ZM1.37119 32.8056C5.40197 31.1308 9.2205 28.9852 12.7472 26.4133C14.0139 25.8193 14.2637 20.8288 0.484693 31.2666C0.290568 31.3891 0.151349 31.5819 0.0961893 31.8047C0.0410293 32.0275 0.0742056 32.263 0.188771 32.4619C0.303337 32.6608 0.490407 32.8076 0.710811 32.8717C0.931214 32.9358 1.16786 32.9121 1.37119 32.8056ZM13.3052 45.8286C15.3507 42.0233 16.8432 37.9457 17.7377 33.7191C18.5274 31.8133 14.8082 29.7208 11.6357 45.2323C11.5609 45.4527 11.5757 45.6936 11.677 45.9031C11.7783 46.1126 11.9579 46.2739 12.177 46.3521C12.3961 46.4304 12.6372 46.4194 12.8483 46.3214C13.0594 46.2235 13.2235 46.0465 13.3052 45.8286Z" fill="var(--fill-0, #FF5C00)"/>
</g>
</svg>
