<svg width="48" height="54" viewBox="0 0 47.5724 54.0028" fill="none" xmlns="http://www.w3.org/2000/svg">
<g>
<path fill-rule="evenodd" clip-rule="evenodd" d="M41.2749 18.5847C43.5204 14.204 47.7009 5.86772 42.8252 5.21747C38.9363 4.63679 35.0074 4.36594 31.0757 4.40747C31.1837 3.73847 31.2362 3.06497 31.2332 2.38697C31.0982 -0.533529 27.1449 0.0469707 25.9974 0.0469707C24.8703 -0.0049378 23.7419 0.116476 22.6517 0.406971C15.0782 2.04947 15.5957 1.68947 13.1477 2.29697C11.1305 2.7811 9.18835 3.53648 7.37418 4.54247C6.96617 4.84865 6.65412 5.265 6.47474 5.74253C6.29537 6.22006 6.25614 6.7389 6.36168 7.23797C6.36168 7.77797 8.02668 15.0792 8.36418 16.382C8.94693 18.7625 9.19443 19.145 10.4072 24.0657C10.5647 24.7182 10.5872 25.8635 11.5547 25.9535C11.6432 25.9625 11.7327 25.9539 11.8179 25.9282C11.9031 25.9025 11.9824 25.8602 12.0512 25.8037C12.12 25.7473 12.1769 25.6777 12.2188 25.5992C12.2606 25.5206 12.2865 25.4346 12.2949 25.346C12.2949 24.6035 11.1474 21.773 9.77718 12.5637C12.5199 13.2162 17.6634 8.09297 17.0132 3.98222C23.7519 2.69972 23.2344 2.06972 25.9974 1.97972C26.8749 1.97972 29.0304 1.48697 29.5704 2.20472C29.7954 2.49722 29.5704 4.07222 29.6829 4.45472C28.5129 4.45472 22.4042 4.81247 21.5942 5.68772C20.8214 6.96639 20.4317 8.43995 20.4714 9.93347C20.3364 10.9685 19.0337 22.133 19.2137 23.1207C19.2151 23.2259 19.2395 23.3295 19.2853 23.4242C19.331 23.5189 19.397 23.6024 19.4785 23.6689C19.56 23.7354 19.6551 23.7832 19.757 23.809C19.859 23.8348 19.9654 23.838 20.0687 23.8182C20.4287 23.8182 21.9767 13.529 21.9992 13.349C22.8684 13.5852 23.7819 13.6083 24.662 13.4164C25.5421 13.2245 26.3629 12.8231 27.0549 12.2465C27.9205 11.6473 28.6377 10.8582 29.1516 9.93942C29.6656 9.02068 29.9628 7.99662 30.0204 6.94547H35.5914C35.378 7.81291 35.3595 8.71688 35.5373 9.59232C35.7151 10.4678 36.0847 11.2929 36.6197 12.0084C37.1546 12.7238 37.8415 13.3118 38.6309 13.7299C39.4203 14.1481 40.2925 14.3861 41.1849 14.4267C40.7349 15.5517 40.2399 16.6745 39.7247 17.8197L39.0497 19.685C38.7572 20.585 40.1522 21.3252 40.5347 20.45C40.6472 20.135 40.4447 20.6547 41.2749 18.5847ZM9.55443 11.036C9.32943 9.46097 8.90193 7.37297 8.90193 7.32797C8.69943 5.71022 9.23943 6.33797 10.7447 5.71022C12.1923 5.1103 13.697 4.65874 15.2357 4.36247C14.9207 6.11747 11.3027 10.766 9.55218 11.036M25.7724 10.046C22.9419 12.2937 23.5247 11.621 22.2669 11.801C22.4514 10.406 22.7139 9.02747 23.0544 7.66547C23.2569 7.66547 25.2999 7.23797 28.4229 7.03547C28.0629 8.29547 26.4452 9.48572 25.7724 10.046ZM39.0474 10.8785C36.8019 8.63072 37.1844 7.30547 37.1394 7.10297C38.9597 7.10297 40.7777 7.35047 42.5529 7.53047C43.4979 7.53047 42.1704 11.7762 41.8554 12.6987C40.7599 12.3835 39.7831 11.749 39.0497 10.8762" fill="#FF5C00"/>
<path fill-rule="evenodd" clip-rule="evenodd" d="M47.4309 33.2997C46.8459 30.7595 45.2957 28.8065 42.6902 29.0967C42.3752 28.5567 43.6352 23.7057 39.8597 22.0205C39.3859 21.7873 38.8763 21.6352 38.3522 21.5705C37.2722 21.413 36.1697 21.638 35.2314 22.2005C34.0389 22.763 29.0079 24.2682 29.0079 24.3132C27.9527 24.5832 17.7759 26.4012 14.9229 26.5587C11.6424 26.6712 6.20643 26.2212 8.31693 23.6607C8.43552 23.5319 8.50135 23.3633 8.50135 23.1882C8.50135 23.0132 8.43552 22.8445 8.31693 22.7157C7.44168 21.9755 6.38643 23.9307 6.45393 25.1007C6.61143 27.9965 12.0924 28.829 14.9904 28.9415C24.4269 29.279 35.9739 24.2682 36.5117 23.1882C39.8822 23.7507 40.6224 26.3787 41.1624 29.9292C39.9699 31.6145 38.6019 30.7617 34.8489 31.5695C32.0409 32.177 30.3557 33.545 30.5132 36.4205C30.5365 37.4651 30.8663 38.4799 31.4615 39.3388C32.0568 40.1976 32.8912 40.8626 33.8612 41.2512C34.5227 41.4657 35.1969 41.6307 35.8839 41.7462C37.7607 42.1587 39.7085 42.1201 41.5674 41.6337C41.3424 47.8775 40.6449 47.8572 37.0742 49.07C31.3007 50.9555 12.9002 52.9557 7.86918 49.835C4.76868 48.125 4.27368 44.9795 3.53343 41.7687C2.50655 37.574 1.93326 33.2811 1.82343 28.964C1.71318 22.0655 2.18343 21.998 6.31893 19.01C6.45306 18.8833 6.5369 18.7124 6.55498 18.5288C6.57306 18.3452 6.52417 18.1612 6.41731 18.0108C6.31046 17.8604 6.15285 17.7536 5.97351 17.7103C5.79418 17.6669 5.60521 17.6898 5.44143 17.7747C0.948175 20.8977 0.140426 21.3927 0.0054258 29.0067C-0.0540782 33.4586 0.376005 37.9036 1.28793 42.2615C2.11818 46.2845 2.67843 49.7427 6.31893 52.013C13.4852 56.5062 38.8044 52.5755 41.7924 48.26C42.8049 46.0475 43.2006 43.6026 42.9377 41.1837C44.517 40.6396 45.8441 39.539 46.671 38.0877C47.4979 36.6363 47.7681 34.9357 47.4309 33.2997ZM36.3992 39.2937C35.5186 39.2127 34.667 38.9368 33.9062 38.486C32.7137 37.5185 32.2659 35.093 33.5912 34.2402C36.7367 32.24 40.8249 33.9252 42.5777 30.5997C42.7802 30.5997 45.1832 29.9022 45.7457 33.6327C46.3307 38.2385 40.8024 40.3287 36.3992 39.2937Z" fill="white"/>
<path fill-rule="evenodd" clip-rule="evenodd" d="M32.4459 20.7177C33.2519 20.3944 34.116 20.2412 34.9839 20.2677C35.1864 21.4152 37.2317 20.9652 37.0742 20.0652C36.8717 18.4497 35.9042 17.9997 34.2437 17.8197C33.4206 17.7481 32.593 17.8906 31.8412 18.2332C31.0894 18.5757 30.4389 19.1069 29.9529 19.775C29.5115 20.5453 29.3007 21.4262 29.3454 22.313C29.1429 23.1905 31.1657 22.988 31.1882 22.178C31.6157 21.1655 31.8407 20.9855 32.4459 20.7177Z" fill="#FF5C00"/>
</g>
</svg>
