<svg preserveAspectRatio="none" width="100%" height="100%" overflow="visible" style="display: block;" viewBox="0 0 54.0002 47" fill="none" xmlns="http://www.w3.org/2000/svg">
<g id="Group">
<path id="Vector" fill-rule="evenodd" clip-rule="evenodd" d="M37.8061 28.2656C37.2211 26.3756 36.6811 24.4856 36.0961 22.5956C35.6951 21.3248 35.2599 20.0651 34.7911 18.8178C34.3186 17.5803 33.6661 15.6903 33.0361 14.1828C32.6049 13.134 32.1244 12.1061 31.5961 11.1026C31.3082 10.5253 30.9928 9.9622 30.6511 9.41508C30.379 8.96642 30.0372 8.5639 29.6386 8.22258C29.2387 7.90498 28.7693 7.68643 28.2688 7.58476C27.7683 7.4831 27.2508 7.50119 26.7586 7.63758C25.2109 8.17265 23.7715 8.98039 22.5084 10.0226C19.9316 11.8461 17.4255 13.7675 14.9956 15.7826C12.5665 17.7972 10.21 19.8978 7.93063 22.0803L4.01787 25.8828C2.78037 27.0753 2.26287 27.7728 1.97037 27.9528C1.67787 28.1328 1.65537 27.7728 1.38537 26.8503C1.35858 26.7411 1.30659 26.6397 1.23356 26.5542C1.16053 26.4687 1.0685 26.4015 0.964824 26.358C0.861152 26.3145 0.748728 26.2958 0.636557 26.3036C0.524387 26.3113 0.415587 26.3452 0.318875 26.4026C0.200672 26.476 0.108045 26.5841 0.0536715 26.7122C-0.000702206 26.8403 -0.0141653 26.982 0.0151249 27.1181C0.195125 29.1311 0.495125 31.1261 0.915125 33.1031C1.14012 34.2281 1.47762 35.3531 1.81512 36.5456C2.42262 38.5706 3.09762 40.4133 3.39012 41.6283C3.40058 41.7352 3.4328 41.8389 3.48481 41.9329C3.53681 42.0269 3.6075 42.1093 3.69253 42.175C3.77756 42.2406 3.87513 42.2882 3.97923 42.3148C4.08334 42.3413 4.19177 42.3463 4.29787 42.3294C4.40396 42.3125 4.50548 42.274 4.59616 42.2164C4.68685 42.1588 4.76478 42.0833 4.82518 41.9944C4.88557 41.9056 4.92715 41.8053 4.94735 41.6998C4.96755 41.5942 4.96594 41.4857 4.94263 41.3808C4.94263 40.1208 4.62762 38.1858 4.26762 36.1158C3.98914 34.5974 3.62861 33.0952 3.18762 31.6158C2.96262 30.8531 2.58012 29.8631 2.31012 29.1431C2.76012 29.1431 3.05262 28.6031 3.43512 28.2656L5.07762 26.7581L9.01287 23.2256C11.2629 21.1803 13.7379 19.1778 16.1881 17.2901C18.6406 15.4001 21.1831 13.6001 23.7684 11.9126C24.5795 11.3324 25.4375 10.8206 26.3334 10.3826C26.9409 10.1126 27.5484 9.79758 27.9759 10.1801C28.1829 10.3616 28.3554 10.5716 28.4934 10.8101C28.7724 11.2841 29.0274 11.7716 29.2584 12.2726C29.7414 13.2086 30.1764 14.1686 30.5634 15.1526C31.1709 16.6601 31.7109 18.1901 32.2959 19.6526L35.2861 28.9631C35.6281 29.9231 35.9131 30.8981 36.1411 31.8881C36.2379 32.4078 36.2379 32.9411 36.1411 33.4631L35.3311 33.9131L30.3811 35.3306C28.9771 35.7371 27.5521 36.0521 26.1061 36.2756C23.8584 36.6356 21.6084 36.8606 19.3606 37.1306C17.6731 37.3331 15.9631 37.6931 14.2531 37.8956C13.5525 37.9955 12.8459 38.0482 12.1381 38.0531C10.9681 38.0531 9.52812 37.8731 8.22312 37.8056C7.59525 37.7468 6.96325 37.7468 6.33538 37.8056C6.12968 37.8388 5.94551 37.9521 5.82321 38.1208C5.70091 38.2895 5.65045 38.4998 5.68288 38.7056C5.72184 38.9082 5.83668 39.0883 6.00393 39.2092C6.17119 39.33 6.37826 39.3825 6.58288 39.3558C7.09888 39.2883 7.61637 39.2883 8.13537 39.3558C8.13537 39.3558 8.47287 39.1308 9.32787 41.0658L10.0479 42.6858C10.5471 43.75 11.3245 44.6595 12.2979 45.3183C13.3578 46.0045 14.5298 46.4995 15.7606 46.7808C17.7226 47.2421 19.7881 46.9698 21.5656 46.0158C22.1922 45.6348 22.7215 45.1132 23.1116 44.4923C23.5018 43.8714 23.742 43.1682 23.8134 42.4383C23.8694 41.9825 23.8694 41.5216 23.8134 41.0658C23.8134 40.4808 23.5659 39.9408 23.4309 39.3333C23.3899 39.1705 23.3041 39.0225 23.1834 38.9058L26.6484 38.5458C28.1655 38.3492 29.6685 38.0561 31.1484 37.6683L36.2536 36.3408C36.8175 36.1819 37.3448 35.9144 37.8061 35.5533C38.2336 35.2158 38.5486 34.7523 38.7061 34.2258C38.8732 33.3563 38.8732 32.4629 38.7061 31.5933C38.4661 30.4683 38.1661 29.3591 37.8061 28.2656ZM22.0584 41.1558C22.0885 41.4551 22.0885 41.7566 22.0584 42.0558C21.9535 42.4536 21.7619 42.8233 21.4974 43.1384C21.2329 43.4534 20.902 43.7061 20.5284 43.8783C19.2693 44.4656 17.8442 44.593 16.5009 44.2383C15.4442 44.0706 14.4248 43.7204 13.4881 43.2033C12.9026 42.8843 12.3894 42.4477 11.9806 41.9208L11.0806 40.5258C10.3381 39.2883 10.6981 39.8508 12.5431 39.8508C13.3081 39.8508 14.0731 39.8508 14.7931 39.7158C16.5031 39.5583 18.2131 39.2658 19.9006 39.1083C21.9256 38.9058 21.8806 38.3883 21.9706 41.1558H22.0584Z" fill="var(--fill-0, white)"/>
<path id="Vector_2" fill-rule="evenodd" clip-rule="evenodd" d="M36.7036 12.3851C36.7928 12.3715 36.8784 12.3401 36.9552 12.2929C37.0321 12.2457 37.0987 12.1835 37.1512 12.1101C37.2036 12.0367 37.2408 11.9535 37.2606 11.8655C37.2803 11.7775 37.2822 11.6864 37.2661 11.5976C37.2661 11.2151 37.6486 10.0676 37.6486 9.34758H37.8736L41.2464 10.0001C41.8314 10.0676 42.4164 10.0676 43.0014 10.0001C43.2578 9.9596 43.4976 9.84721 43.6927 9.67596C43.8879 9.50471 44.0304 9.28161 44.1039 9.03257C44.2883 8.39453 44.4014 7.73803 44.4414 7.07507C44.4928 5.41711 44.4478 3.75755 44.3064 2.10482C44.891 2.31733 45.5069 2.43138 46.1289 2.44233C46.2556 2.42115 46.3752 2.36929 46.4773 2.29127C46.5793 2.21326 46.6608 2.11146 46.7145 1.99474C46.7682 1.87803 46.7925 1.74995 46.7853 1.62168C46.7782 1.4934 46.7397 1.36883 46.6734 1.25883C46.5917 1.12794 46.4724 1.02482 46.331 0.962979C46.1897 0.901142 46.0329 0.883484 45.8814 0.912325C45.302 0.732301 44.7495 0.474983 44.2389 0.147325C44.0671 0.0507374 43.8734 0 43.6764 0C43.4793 0 43.2856 0.0507374 43.1139 0.147325C42.8936 0.311667 42.7288 0.539305 42.6414 0.799825C42.5004 1.46704 42.4101 2.14397 42.3714 2.82483L41.7189 7.32482L38.2539 7.14482C38.0514 7.14482 37.4664 6.96482 37.0839 6.94232C36.7845 6.90592 36.4809 6.95263 36.2064 7.07733C35.977 7.23921 35.7871 7.45073 35.6507 7.69614C35.5144 7.94156 35.4351 8.21455 35.4189 8.49482C35.4819 9.62207 35.6776 10.7403 36.0039 11.8248C36.0356 11.9856 36.1228 12.13 36.2504 12.2329C36.3779 12.3357 36.5376 12.3904 36.7014 12.3873M43.8114 23.9253C44.6439 22.8003 45.2964 21.2703 45.8814 20.3478C45.8814 20.3478 46.0164 19.9203 46.1514 19.6053L46.9164 20.1903L48.1764 21.3603C48.6264 21.8328 49.0989 22.6203 49.6389 23.1828C49.9629 23.5451 50.3611 23.8353 50.8066 24.0378C51.0519 24.1429 51.3222 24.1755 51.5854 24.1316C51.8486 24.0877 52.0937 23.9693 52.2916 23.7903C52.9351 22.8296 53.4414 21.7856 53.7991 20.6853C53.7991 20.4828 53.5741 17.9853 51.1891 21.7653L51.0766 21.6078C50.6716 21.0003 50.3116 20.2803 49.9741 19.8078L48.6241 18.2778C48.3316 18.0078 47.9716 17.6478 47.6116 17.3553C47.2742 17.0953 46.8933 16.8972 46.4866 16.7703C46.2609 16.6908 46.0187 16.6698 45.7827 16.7091C45.5466 16.7484 45.3244 16.8469 45.1366 16.9953C44.5134 17.6163 43.9891 18.3296 43.5841 19.1103C43.1341 20.0553 42.6841 21.5853 42.0316 22.7553C41.8906 23.0328 41.7264 23.2953 41.5389 23.5428C41.2914 23.1378 40.3239 22.7328 39.8289 22.1928C39.7039 22.0864 39.5453 22.0275 39.3812 22.0265C39.217 22.0255 39.0578 22.0824 38.9314 22.1872C38.8051 22.2921 38.7198 22.4381 38.6905 22.5996C38.6612 22.7612 38.6899 22.9278 38.7714 23.0703C39.2934 23.9028 39.9301 24.6611 40.6614 25.3203C40.8833 25.4833 41.1468 25.5804 41.4214 25.6003C41.6961 25.6202 41.9708 25.5621 42.2139 25.4328C42.8506 25.0503 43.3951 24.5373 43.8114 23.9253ZM53.8644 36.8358C53.478 35.8797 53.0192 34.9545 52.4919 34.0683C52.1569 33.6851 51.6937 33.4371 51.1891 33.3708C50.1404 33.3213 49.0924 33.4819 48.1066 33.8433C45.8566 34.5858 45.1591 36.8808 44.0791 32.2008C44.0661 32.0677 44.0138 31.9414 43.9289 31.8381C43.8439 31.7347 43.7302 31.6589 43.6021 31.6203C43.5159 31.594 43.4253 31.5852 43.3357 31.5945C43.246 31.6038 43.1591 31.6309 43.0801 31.6743C42.959 31.7395 42.8607 31.8402 42.7983 31.9629C42.736 32.0855 42.7126 32.2243 42.7314 32.3606C42.8034 33.6048 43.0239 34.8356 43.3839 36.0281C43.5279 36.5186 43.7889 36.9663 44.1489 37.3331C44.6689 37.5826 45.265 37.6229 45.8139 37.4456C46.7976 37.1706 47.7601 36.8247 48.6939 36.4106C49.4094 36.0506 50.1594 35.7806 50.9439 35.6006C50.8089 36.1631 51.9316 36.8606 52.5616 37.6931C52.6164 37.7804 52.6882 37.8557 52.7727 37.9145C52.8573 37.9734 52.9528 38.0146 53.0537 38.0356C53.1546 38.0566 53.2586 38.057 53.3597 38.0368C53.4607 38.0166 53.5566 37.9762 53.6416 37.9181C53.7289 37.8633 53.8042 37.7915 53.8631 37.707C53.9219 37.6224 53.9631 37.5268 53.9841 37.426C54.0051 37.3251 54.0056 37.2211 53.9854 37.12C53.9652 37.019 53.9248 36.9231 53.8666 36.8381" fill="var(--fill-0, #FF5C00)"/>
</g>
</svg>
