<svg preserveAspectRatio="none" width="100%" height="100%" overflow="visible" style="display: block;" viewBox="0 0 50 50" fill="none" xmlns="http://www.w3.org/2000/svg">
<g id="streamline-flex:wallet-solid">
<path id="Vector" fill-rule="evenodd" clip-rule="evenodd" d="M35.1964 2.56071C31.8857 1.87143 24.5 1.63214 20.225 1.63214C16.6286 1.63214 13.1536 2.21786 9.64643 2.95C5.47857 3.81786 2.67857 8.15 2.075 12.8214C1.43659 17.6091 1.17269 22.4392 1.28571 27.2679C1.26628 27.901 1.25675 28.5344 1.25714 29.1679C1.25714 33.7393 1.72143 36.1929 2.22143 38.8464L2.25714 39.0464C3.06786 43.3322 6.7 46.6714 11.1679 47.3036L11.75 47.3893C15.2679 47.8893 18.65 48.3679 23.6821 48.3679C28.7143 48.3679 32.0964 47.8857 35.6143 47.3893L36.2 47.3036C37.9953 47.0507 39.6966 46.345 41.1438 45.2528C42.5909 44.1606 43.736 42.7179 44.4714 41.0607C44.9286 40.0071 44.0321 38.9536 42.8821 38.9536L41.5643 38.9393C41.0024 38.9298 40.4393 38.925 39.875 38.925C37.3474 38.925 34.9233 37.9209 33.136 36.1336C31.3487 34.3463 30.3446 31.9223 30.3446 29.3946C30.3446 26.867 31.3487 24.443 33.136 22.6557C34.9233 20.8684 37.3474 19.8643 39.875 19.8643L41.5536 19.8571L42.7107 19.8464C43.8821 19.8429 44.7643 18.7429 44.2393 17.6964C43.3429 15.9293 41.9632 14.453 40.2607 13.4393C37.5179 11.9893 33.9714 11.6893 28.9607 11.6893C24.9357 11.6893 21.0607 11.9964 18.0679 12.2357C17.2536 12.3024 16.5119 12.3595 15.8429 12.4071C15.2523 12.4488 14.6693 12.2542 14.2223 11.8661C14.0009 11.6739 13.8195 11.44 13.6886 11.1777C13.5576 10.9154 13.4796 10.6299 13.4589 10.3375C13.4383 10.0451 13.4755 9.75145 13.5683 9.47339C13.6611 9.19532 13.8078 8.93827 14 8.7169C14.3882 8.26983 14.938 7.99525 15.5286 7.95357L17.6179 7.79286C20.6143 7.55357 24.7357 7.22143 28.9607 7.22143C31.9071 7.22143 34.725 7.30714 37.3393 7.80357C38.6036 8.04643 39.8143 7.03214 39.25 5.87857C38.4536 4.25 37.05 2.95 35.2 2.56071M39.8786 34.4607H44.7929C45.7401 34.4607 46.6485 34.0844 47.3182 33.4147C47.988 32.7449 48.3643 31.8365 48.3643 30.8893V27.9C48.3643 26.9528 47.988 26.0444 47.3182 25.3746C46.6485 24.7049 45.7401 24.3286 44.7929 24.3286H39.875C38.5314 24.3286 37.2428 24.8623 36.2927 25.8124C35.3427 26.7625 34.8089 28.051 34.8089 29.3946C34.8089 30.7383 35.3427 32.0268 36.2927 32.9769C37.2428 33.927 38.5314 34.4607 39.875 34.4607" fill="var(--fill-0, #FF5C00)"/>
</g>
</svg>
