<svg viewBox="0 0 32.0001 25.2242" fill="none" xmlns="http://www.w3.org/2000/svg">
<g id="Group">
<path id="Vector" fill-rule="evenodd" clip-rule="evenodd" d="M27.89 12.7814C27.9806 12.7747 28.0667 12.7393 28.1358 12.6803C28.2048 12.6213 28.2533 12.5418 28.274 12.4534C28.2884 12.3948 28.2893 12.3337 28.2767 12.2747C28.2009 11.3704 28.0356 10.4758 27.7834 9.60405C27.67 9.24816 27.5319 8.90065 27.37 8.56405C27.1911 8.21146 26.9949 7.86793 26.782 7.53472C24.1114 3.62405 25.046 5.80005 21.7487 6.65472C20.378 6.96405 18.9754 7.10805 17.57 7.08139C16.1735 7.12886 14.7861 7.32553 13.4314 7.66805C12.0926 8.00303 10.8107 8.53411 9.62735 9.24405C9.23156 9.47447 8.87545 9.7671 8.57269 10.1107C8.47831 10.2128 8.40593 10.3331 8.36006 10.4643C8.31418 10.5955 8.29579 10.7348 8.30602 10.8734C8.35458 11.0673 8.45082 11.2461 8.58602 11.3934C8.81269 11.6201 9.13269 11.8734 9.25269 11.9934C9.33674 12.0639 9.44296 12.1026 9.55269 12.1026C9.66242 12.1026 9.76864 12.0639 9.85269 11.9934C9.8899 11.9596 9.91963 11.9185 9.93998 11.8726C9.96033 11.8266 9.97084 11.777 9.97084 11.7267C9.97084 11.6765 9.96033 11.6268 9.93998 11.5809C9.91963 11.535 9.8899 11.4938 9.85269 11.4601L9.34602 10.7934V10.7267C9.45269 10.6138 9.57269 10.5205 9.70602 10.4467C9.88374 10.3355 10.0666 10.2327 10.254 10.1387C11.4103 9.62564 12.6193 9.24068 13.8594 8.99072C15.1048 8.70179 16.3732 8.52332 17.65 8.45739C16.8525 8.6679 16.1708 9.18564 15.754 9.89739C15.5631 10.1987 15.4539 10.5445 15.4371 10.9008C15.4202 11.2571 15.4964 11.6117 15.6581 11.9296C15.8197 12.2476 16.0614 12.518 16.3592 12.7143C16.657 12.9107 17.0007 13.0261 17.3567 13.0494C17.7567 13.0494 21.522 13.2627 20.654 10.0854C20.5091 9.5173 20.1508 9.0269 19.6537 8.71603C19.1566 8.40516 18.5589 8.29773 17.9847 8.41605C19.398 8.32272 20.7967 8.06272 22.15 7.64272C23.0179 7.33017 23.8293 6.87898 24.5527 6.30672C24.9527 7.06805 25.286 7.81605 25.6327 8.53605C25.9807 9.25739 26.2474 9.72405 26.5287 10.3521C26.8087 10.9787 27.102 11.6867 27.3554 12.3947C27.375 12.5166 27.4422 12.6257 27.5421 12.6982C27.6421 12.7707 27.7681 12.8006 27.89 12.7814ZM19.3314 10.1121C19.3314 10.2587 20.198 12.3947 17.782 11.9681C17.6132 11.9461 17.4526 11.8819 17.3151 11.7815C17.1776 11.681 17.0676 11.5476 16.9954 11.3934C16.9277 11.2039 16.9094 11.0004 16.9421 10.8019C16.9747 10.6035 17.0573 10.4165 17.182 10.2587C17.3794 9.87072 17.718 9.57339 18.1287 9.43205C18.2532 9.39555 18.3838 9.38466 18.5126 9.40005C18.6415 9.41543 18.7659 9.45678 18.8783 9.52158C18.9907 9.58638 19.0888 9.6733 19.1666 9.77708C19.2445 9.88086 19.3006 9.99935 19.3314 10.1254V10.1121ZM11.2954 16.3321C11.1957 16.3883 11.1218 16.4811 11.0894 16.5909C11.0571 16.7007 11.0688 16.8187 11.122 16.9201L11.3087 17.3067C11.498 17.7716 11.7251 18.2169 11.99 18.6427C12.0465 18.7187 12.1185 18.7818 12.2013 18.8278C12.2841 18.8737 12.3757 18.9016 12.47 18.9094C12.77 18.9241 13.0674 18.8494 13.3247 18.6961C13.7282 18.4525 14.1109 18.1814 14.4727 17.8827C14.9696 17.4961 15.486 17.1396 16.022 16.8134C16.5518 16.4801 17.0989 16.1778 17.6634 15.9067C18.5311 15.5025 19.4708 15.2754 20.4274 15.2387C22.0167 15.0921 23.6447 15.1454 25.194 14.8654C25.895 14.7545 26.5774 14.5477 27.222 14.2507C27.2911 14.233 27.3554 14.2005 27.4107 14.1555C27.466 14.1104 27.5108 14.054 27.5422 13.99C27.5735 13.926 27.5906 13.8559 27.5923 13.7847C27.594 13.7134 27.5803 13.6426 27.552 13.5772C27.5237 13.5118 27.4816 13.4533 27.4285 13.4057C27.3755 13.3581 27.3127 13.3226 27.2446 13.3015C27.1765 13.2805 27.1047 13.2745 27.034 13.2839C26.9634 13.2933 26.8956 13.3179 26.8354 13.3561C25.3847 13.7794 23.862 13.8975 22.3634 13.7027C21.2645 13.624 20.1608 13.6463 19.066 13.7694C18.3315 13.8837 17.6197 14.1132 16.9567 14.4494C16.4696 14.7045 15.9976 14.9854 15.5407 15.2921C14.8701 15.7632 14.2367 16.2852 13.646 16.8534C13.4994 17.0001 13.2594 17.2534 12.9914 17.4801C12.9131 17.5391 12.8415 17.6066 12.778 17.6814C12.5881 17.3853 12.3644 17.1124 12.1114 16.8681L11.87 16.4801C11.812 16.3862 11.7198 16.3185 11.6129 16.2912C11.506 16.2638 11.3927 16.279 11.2967 16.3334" fill="white"/>
<path id="Vector_2" fill-rule="evenodd" clip-rule="evenodd" d="M3.72602 18.3361C4.13935 18.0356 4.52646 17.7063 4.88735 17.3481C5.39402 16.8547 5.86202 16.3067 6.33002 15.7587C6.98583 14.8651 7.84633 14.1418 8.83935 13.6494C8.8934 13.6356 8.94409 13.611 8.98837 13.577C9.03266 13.5431 9.06961 13.5006 9.09702 13.452C9.12443 13.4034 9.14172 13.3498 9.14785 13.2943C9.15398 13.2389 9.14882 13.1828 9.13269 13.1294C9.1016 13.0222 9.02975 12.9315 8.93254 12.8766C8.83533 12.8218 8.72051 12.8072 8.61269 12.8361C7.8699 12.9834 7.16266 13.2732 6.53002 13.6894C6.05535 14.0041 5.61046 14.3556 5.19535 14.7441C4.79535 15.1174 4.42069 15.5307 4.04602 15.9321L3.35269 16.5721C2.65011 17.5396 1.62003 18.2191 0.45402 18.4841C0.374428 18.4904 0.297569 18.516 0.230045 18.5586C0.16252 18.6012 0.106348 18.6596 0.0663528 18.7287C0.0263572 18.7978 0.00373326 18.8756 0.000423949 18.9554C-0.00288536 19.0351 0.0132188 19.1145 0.0473535 19.1867C0.0884345 19.2725 0.154097 19.3442 0.236 19.3927C0.317904 19.4411 0.412354 19.4641 0.507354 19.4587C1.67355 19.4468 2.80369 19.0529 3.72469 18.3374M4.86069 21.0587C5.36469 20.5734 5.84113 20.0618 6.29002 19.5241C6.70602 18.9961 7.15046 18.4929 7.62335 18.0147C8.01906 17.6161 8.46878 17.275 8.95935 17.0014C9.06171 16.9548 9.14154 16.8697 9.18149 16.7646C9.22144 16.6595 9.21828 16.5429 9.17269 16.4401C9.15086 16.3884 9.11904 16.3415 9.07906 16.3021C9.03908 16.2627 8.99173 16.2316 8.93971 16.2105C8.88769 16.1895 8.83203 16.1789 8.77592 16.1794C8.7198 16.1799 8.66433 16.1914 8.61269 16.2134C7.80001 16.4743 7.04373 16.8859 6.38335 17.4267C5.91046 17.8072 5.46513 18.2169 5.04735 18.6561C4.66069 19.0694 4.30069 19.5361 3.90069 19.9907C3.54069 20.4361 3.12202 20.8307 2.65802 21.1654C2.22025 21.4809 1.70198 21.6659 1.16335 21.6987C1.03666 21.6949 0.913366 21.74 0.819032 21.8247C0.724697 21.9093 0.666564 22.027 0.656687 22.1534C0.653086 22.2164 0.661965 22.2796 0.682815 22.3392C0.703665 22.3988 0.736076 22.4537 0.77819 22.5008C0.820305 22.5479 0.871294 22.5862 0.928236 22.6135C0.985178 22.6408 1.04695 22.6566 1.11002 22.6601C1.64202 22.6934 2.17402 22.6107 2.67135 22.4201C3.48116 22.1104 4.22428 21.6488 4.86069 21.0601M11.1487 18.9627C11.1269 18.911 11.095 18.8641 11.0551 18.8248C11.0151 18.7854 10.9677 18.7543 10.9157 18.7332C10.8637 18.7121 10.808 18.7016 10.7519 18.7021C10.6958 18.7025 10.6403 18.7141 10.5887 18.7361C9.78014 19.0081 9.02526 19.4192 8.35802 19.9507C7.88602 20.3303 7.44158 20.7396 7.02469 21.1787C6.62335 21.6054 6.27535 22.0601 5.86202 22.5147C5.51321 22.9646 5.09934 23.3601 4.63402 23.6881C4.19935 24.0107 3.67935 24.1947 3.13935 24.2227C3.07619 24.2189 3.0129 24.2277 2.95313 24.2484C2.89335 24.2692 2.83828 24.3016 2.79107 24.3437C2.74385 24.3859 2.70544 24.4369 2.67803 24.4939C2.65062 24.551 2.63476 24.6129 2.63135 24.6761C2.62362 24.805 2.66676 24.9318 2.75153 25.0293C2.83629 25.1268 2.95591 25.1871 3.08469 25.1974C3.67669 25.2694 4.27669 25.1961 4.83402 24.9841C5.63402 24.6814 6.36735 24.2281 6.99669 23.6494C7.49002 23.1427 7.98469 22.6347 8.42469 22.1001C8.8379 21.5698 9.28412 21.0662 9.76069 20.5921C10.15 20.1867 10.6007 19.8454 11.0954 19.5774C11.1633 19.523 11.213 19.4492 11.2378 19.3658C11.2626 19.2824 11.2613 19.1934 11.234 19.1107C11.2164 19.0563 11.1873 19.0049 11.1487 18.9627Z" fill="#FF5C00"/>
<path id="Vector_3" fill-rule="evenodd" clip-rule="evenodd" d="M5.94202 12.4081C5.96385 12.4598 5.99567 12.5066 6.03564 12.546C6.07562 12.5854 6.12298 12.6165 6.175 12.6376C6.22701 12.6586 6.28267 12.6692 6.33879 12.6687C6.39491 12.6682 6.45038 12.6567 6.50202 12.6347C6.59721 12.5814 6.66837 12.4937 6.70086 12.3895C6.73334 12.2853 6.72469 12.1727 6.67669 12.0747C6.67669 11.9014 6.27669 11.3001 6.06335 10.7387C5.95669 10.4721 5.83669 10.2454 5.87669 10.1121C5.92543 9.9849 6.00303 9.8708 6.10335 9.77872C6.31669 9.55028 6.54335 9.3365 6.78335 9.13739C7.34513 8.63961 7.94602 8.19472 8.58602 7.80272C9.24844 7.39425 9.95073 7.05427 10.682 6.78805C12.2505 6.19397 13.8953 5.82541 15.5674 5.69339C16.7554 5.54672 17.9314 5.38672 19.0927 5.13339C19.842 4.96389 20.5781 4.74064 21.2954 4.46539C22.2114 4.09233 23.0733 3.59815 23.858 2.99605C24.5326 2.45974 25.1461 1.85073 25.6874 1.18005C25.9807 1.67339 26.2874 2.16805 26.5407 2.67605C26.7954 3.18272 27.0887 3.89072 27.3554 4.51872C27.622 5.14672 27.9034 5.74539 28.17 6.36005C29.0307 8.23006 29.9211 10.0863 30.8407 11.9281C30.8884 12.0465 30.9813 12.1412 31.0988 12.1912C31.157 12.2159 31.2195 12.229 31.2827 12.2296C31.346 12.2302 31.4087 12.2184 31.4674 12.1947C31.526 12.1711 31.5794 12.1361 31.6246 12.0918C31.6697 12.0476 31.7057 11.9948 31.7305 11.9366C31.7552 11.8784 31.7683 11.8159 31.7689 11.7527C31.7695 11.6894 31.7577 11.6267 31.734 11.5681C31.1207 10.1121 30.7074 8.56272 30.174 7.22805C29.8256 6.24316 29.4202 5.28183 28.958 4.34405C25.394 -2.49061 25.7007 0.340053 23.1247 2.14139C22.3892 2.59828 21.5995 2.96153 20.774 3.22272C19.594 3.56672 18.382 3.78939 17.1567 3.89072C15.822 4.03739 14.5807 4.13072 13.3247 4.35739C12.181 4.55839 11.0651 4.89453 10.0007 5.35872C9.2469 5.73348 8.53151 6.18093 7.86469 6.69472C7.19091 7.17472 6.57224 7.71739 6.00869 8.32272C5.71314 8.61317 5.44531 8.93054 5.20869 9.27072C5.05534 9.45392 4.95403 9.67496 4.91535 9.91072C4.89269 10.2547 4.96735 10.5961 5.12869 10.9001C5.34202 11.5001 5.84869 12.2201 5.94202 12.4081ZM31.694 12.9827C31.5703 12.9495 31.4385 12.9657 31.3265 13.0279C31.2146 13.0901 31.1312 13.1935 31.094 13.3161C31.0185 13.5703 30.9207 13.8147 30.8007 14.0494C30.6922 14.2787 30.5589 14.4925 30.4007 14.6907C29.6543 15.6054 28.6009 16.2177 27.4367 16.4134C25.9767 16.5867 24.5034 16.5867 23.0434 16.4134C21.4113 16.2644 19.7661 16.4551 18.2114 16.9734C17.3388 17.335 16.5282 17.8308 15.8087 18.4427C14.8024 19.3345 13.9058 20.3429 13.138 21.4467L11.8167 23.2481V23.3814L11.75 23.3147L10.8687 21.9134C10.807 21.8276 10.7166 21.7669 10.6139 21.7423C10.5112 21.7177 10.4031 21.7308 10.3093 21.7794C10.2154 21.8279 10.1422 21.9085 10.1029 22.0066C10.0637 22.1046 10.061 22.2135 10.0954 22.3134L10.842 23.8627C10.9798 24.1205 11.1309 24.3694 11.2954 24.6094C11.3715 24.7238 11.4855 24.8079 11.6173 24.8469C11.7492 24.8859 11.8905 24.8773 12.0167 24.8227C12.1232 24.7596 12.218 24.6784 12.2967 24.5827C12.4567 24.3961 12.6034 24.1027 12.7234 23.9561L14.0594 22.2601C14.7287 21.4707 15.4585 20.7409 16.2487 20.0707C16.9941 19.4165 17.8418 18.8891 18.758 18.5094C20.1051 18.0726 21.5249 17.9049 22.9367 18.0161C24.5195 18.1146 26.1084 18.0066 27.6634 17.6947C29.0914 17.3736 30.3509 16.5371 31.2007 15.3454C31.3909 15.0787 31.5465 14.7938 31.6674 14.4907C31.7909 14.2001 31.8931 13.9023 31.974 13.5974C32.0143 13.4785 32.0077 13.3488 31.9557 13.2346C31.9037 13.1204 31.8101 13.0304 31.694 12.9827Z" fill="white"/>
</g>
</svg>
