<svg width="24" height="24" viewBox="0 0 24 24" fill="none" xmlns="http://www.w3.org/2000/svg">
<path d="M11.9983 21.1412C17.0478 21.1412 21.1412 17.0478 21.1412 11.9983C21.1412 6.94887 17.0478 2.85547 11.9983 2.85547C6.94887 2.85547 2.85547 6.94887 2.85547 11.9983C2.85547 17.0478 6.94887 21.1412 11.9983 21.1412Z" stroke="white" stroke-linecap="round" stroke-linejoin="round"/>
<path d="M11.9972 16.5686C14.5219 16.5686 16.5686 14.5219 16.5686 11.9972C16.5686 9.47248 14.5219 7.42578 11.9972 7.42578C9.47248 7.42578 7.42578 9.47248 7.42578 11.9972C7.42578 14.5219 9.47248 16.5686 11.9972 16.5686Z" stroke="white" stroke-linecap="round" stroke-linejoin="round"/>
<path d="M15.4252 8.56808L18.2824 5.71094M15.4252 15.4252L18.2824 18.2824M8.56808 15.4252L5.71094 18.2824M8.56808 8.56808L5.71094 5.71094" stroke="white" stroke-linecap="round" stroke-linejoin="round"/>
</svg>
