<svg width="54" height="54" viewBox="0 0 54 54" fill="none" xmlns="http://www.w3.org/2000/svg">
<path d="M47.25 27C47.25 29.6593 46.7262 32.2925 45.7086 34.7493C44.6909 37.2062 43.1993 39.4385 41.3189 41.3189C39.4385 43.1993 37.2062 44.6909 34.7493 45.7086C32.2925 46.7262 29.6593 47.25 27 47.25C24.3407 47.25 21.7075 46.7262 19.2507 45.7086C16.7938 44.6909 14.5615 43.1993 12.6811 41.3189C10.8007 39.4385 9.3091 37.2062 8.29144 34.7493C7.27378 32.2925 6.75 29.6593 6.75 27C6.75 21.6294 8.88348 16.4787 12.6811 12.6811C16.4787 8.88348 21.6294 6.75 27 6.75C32.3706 6.75 37.5213 8.88348 41.3189 12.6811C45.1165 16.4787 47.25 21.6294 47.25 27Z" stroke="#FF975D" stroke-width="3.375" stroke-linecap="round" stroke-linejoin="round"/>
<path d="M40.5 13.5L32.5688 21.4312M32.5688 21.4312C35.6018 24.4665 35.6018 29.5358 32.5688 32.5688M32.5688 21.4312C29.5358 18.3982 24.4665 18.3982 21.4312 21.4312M13.5 40.5L21.4312 32.5688M21.4312 32.5688C18.3982 29.5358 18.3982 24.4665 21.4312 21.4312M21.4312 32.5688C24.4642 35.6018 29.5335 35.6018 32.5688 32.5688M13.5 13.5L21.4312 21.4312M40.5 40.5L32.5688 32.5688" stroke="#FF975D" stroke-width="3.375" stroke-linecap="round" stroke-linejoin="round"/>
</svg>
