<svg preserveAspectRatio="none" width="100%" height="100%" overflow="visible" style="display: block;" viewBox="0 0 43.875 43.875" fill="none" xmlns="http://www.w3.org/2000/svg">
<g id="Group">
<path id="Vector" d="M42.1875 21.9375C42.1875 24.5968 41.6637 27.23 40.6461 29.6868C39.6284 32.1437 38.1368 34.376 36.2564 36.2564C34.376 38.1368 32.1437 39.6284 29.6868 40.6461C27.23 41.6637 24.5968 42.1875 21.9375 42.1875C19.2782 42.1875 16.645 41.6637 14.1882 40.6461C11.7313 39.6284 9.49897 38.1368 7.61859 36.2564C5.7382 34.376 4.2466 32.1437 3.22894 29.6868C2.21128 27.23 1.6875 24.5968 1.6875 21.9375C1.6875 16.5669 3.82098 11.4162 7.61859 7.61859C11.4162 3.82098 16.5669 1.6875 21.9375 1.6875C27.3081 1.6875 32.4588 3.82098 36.2564 7.61859C40.054 11.4162 42.1875 16.5669 42.1875 21.9375Z" stroke="var(--stroke-0, #FF975D)" stroke-width="3.375" stroke-linecap="round" stroke-linejoin="round"/>
<path id="Vector_2" d="M35.4375 8.4375L27.5063 16.3687M27.5063 16.3687C30.5393 19.404 30.5393 24.4733 27.5063 27.5063M27.5063 16.3687C24.4733 13.3357 19.404 13.3357 16.3687 16.3687M8.4375 35.4375L16.3687 27.5063M16.3687 27.5063C13.3357 24.4733 13.3357 19.404 16.3687 16.3687M16.3687 27.5063C19.4017 30.5393 24.471 30.5393 27.5063 27.5063M8.4375 8.4375L16.3687 16.3687M35.4375 35.4375L27.5063 27.5063" stroke="var(--stroke-0, #FF975D)" stroke-width="3.375" stroke-linecap="round" stroke-linejoin="round"/>
</g>
</svg>
