<svg preserveAspectRatio="none" width="100%" height="100%" overflow="visible" style="display: block;" viewBox="0 0 16 16" fill="none" xmlns="http://www.w3.org/2000/svg">
<g id="streamline-plump:wallet-solid">
<path id="Vector" fill-rule="evenodd" clip-rule="evenodd" d="M8.92316 2.55234C9.62398 2.37966 10.3824 2.63602 10.7685 3.29566C10.8675 3.46515 10.9762 3.66281 11.0912 3.89021C10.2841 3.83681 9.08681 3.78634 7.44608 3.78634C6.52051 3.78634 5.73627 3.80228 5.08328 3.82619C6.31117 3.31346 7.64718 2.86635 8.92316 2.55234ZM3.74195 14.1708C4.53282 14.2255 5.74717 14.28 7.44608 14.28C9.14499 14.28 10.3593 14.2255 11.1502 14.1708C12.021 14.1105 12.7081 13.449 12.7795 12.571C12.7933 12.4033 12.8066 12.2163 12.8194 12.0102C12.5726 12.0174 12.2878 12.0219 11.9623 12.0219C11.5176 12.0219 11.1483 12.0134 10.8492 12.0014C9.88247 11.9626 9.10195 11.2222 9.05785 10.2302C9.04722 9.98769 9.04005 9.70051 9.04005 9.36525C9.04005 9.02998 9.04722 8.7428 9.05785 8.50025C9.10195 7.50827 9.88247 6.76813 10.8492 6.72908C11.2201 6.71486 11.5912 6.70804 11.9623 6.70862C12.2878 6.70862 12.5726 6.71314 12.8194 6.72031C12.8066 6.51398 12.7933 6.32713 12.7795 6.15977C12.7081 5.28149 12.021 4.61999 11.1502 4.55968C10.3593 4.50495 9.14499 4.45049 7.44608 4.45049C5.74717 4.45049 4.53282 4.50495 3.74195 4.55968C2.87111 4.61999 2.1841 5.28149 2.11264 6.1595C2.05473 6.87094 2 7.92403 2 9.36525C2 10.8065 2.05473 11.8598 2.11264 12.571C2.1841 13.449 2.87111 14.1105 3.74195 14.1708ZM9.85404 10.1949C9.87928 10.7608 10.3155 11.1824 10.8811 11.205C11.1693 11.2166 11.5277 11.2249 11.9623 11.2249C12.397 11.2249 12.7553 11.2166 13.0436 11.205C13.6094 11.1824 14.0454 10.7608 14.0706 10.1949C14.0807 9.96458 14.0876 9.68909 14.0876 9.36525C14.0876 9.0414 14.0807 8.76591 14.0706 8.53558C14.0454 7.96972 13.6092 7.54812 13.0436 7.52554C12.6833 7.5117 12.3228 7.50506 11.9623 7.50561C11.5277 7.50561 11.1693 7.51385 10.8811 7.52554C10.3152 7.54812 9.87928 7.96972 9.85404 8.53558C9.84395 8.76591 9.83704 9.04114 9.83704 9.36525C9.83704 9.68935 9.84395 9.96458 9.85404 10.1949ZM11.6967 8.70109C11.8024 8.70109 11.9037 8.74308 11.9785 8.81781C12.0532 8.89254 12.0952 8.9939 12.0952 9.09958V9.63091C12.0952 9.7366 12.0532 9.83795 11.9785 9.91269C11.9037 9.98742 11.8024 10.0294 11.6967 10.0294C11.591 10.0294 11.4896 9.98742 11.4149 9.91269C11.3402 9.83795 11.2982 9.7366 11.2982 9.63091V9.09958C11.2982 8.9939 11.3402 8.89254 11.4149 8.81781C11.4896 8.74308 11.591 8.70109 11.6967 8.70109Z" fill="var(--fill-0, #34A853)"/>
</g>
</svg>
