<svg preserveAspectRatio="none" width="100%" height="100%" overflow="visible" style="display: block;" viewBox="0 0 20 20" fill="none" xmlns="http://www.w3.org/2000/svg">
<g id="fluent:payment-16-filled">
<path id="Vector" d="M4.375 3.75C3.5462 3.75 2.75134 4.07924 2.16529 4.66529C1.57924 5.25134 1.25 6.0462 1.25 6.875V7.5H18.75V6.875C18.75 6.0462 18.4208 5.25134 17.8347 4.66529C17.2487 4.07924 16.4538 3.75 15.625 3.75H4.375ZM18.75 8.75H1.25V13.125C1.25 13.9538 1.57924 14.7487 2.16529 15.3347C2.75134 15.9208 3.5462 16.25 4.375 16.25H15.625C16.4538 16.25 17.2487 15.9208 17.8347 15.3347C18.4208 14.7487 18.75 13.9538 18.75 13.125V8.75ZM13.125 12.5H15.625C15.7908 12.5 15.9497 12.5658 16.0669 12.6831C16.1842 12.8003 16.25 12.9592 16.25 13.125C16.25 13.2908 16.1842 13.4497 16.0669 13.5669C15.9497 13.6842 15.7908 13.75 15.625 13.75H13.125C12.9592 13.75 12.8003 13.6842 12.6831 13.5669C12.5658 13.4497 12.5 13.2908 12.5 13.125C12.5 12.9592 12.5658 12.8003 12.6831 12.6831C12.8003 12.5658 12.9592 12.5 13.125 12.5Z" fill="var(--fill-0, #FF975D)"/>
</g>
</svg>
