<svg preserveAspectRatio="none" width="100%" height="100%" overflow="visible" style="display: block;" viewBox="0 0 32 32" fill="none" xmlns="http://www.w3.org/2000/svg">
<g id="fluent:share-16-filled" clip-path="url(#clip0_0_8)">
<path id="Vector" d="M15 4C15.2652 4 15.5196 4.10536 15.7071 4.29289C15.8946 4.48043 16 4.73478 16 5C16 5.26522 15.8946 5.51957 15.7071 5.70711C15.5196 5.89464 15.2652 6 15 6H9C8.20435 6 7.44129 6.31607 6.87868 6.87868C6.31607 7.44129 6 8.20435 6 9V23C6 23.7956 6.31607 24.5587 6.87868 25.1213C7.44129 25.6839 8.20435 26 9 26H23C23.7956 26 24.5587 25.6839 25.1213 25.1213C25.6839 24.5587 26 23.7956 26 23V19C26 18.7348 26.1054 18.4804 26.2929 18.2929C26.4804 18.1054 26.7348 18 27 18C27.2652 18 27.5196 18.1054 27.7071 18.2929C27.8946 18.4804 28 18.7348 28 19V23C28 24.3261 27.4732 25.5979 26.5355 26.5355C25.5979 27.4732 24.3261 28 23 28H9C7.67392 28 6.40215 27.4732 5.46447 26.5355C4.52678 25.5979 4 24.3261 4 23V9C4 7.67392 4.52678 6.40215 5.46447 5.46447C6.40215 4.52678 7.67392 4 9 4H15ZM21.56 2.1C21.7283 2.01775 21.9164 1.98446 22.1028 2.0039C22.2891 2.02335 22.4663 2.09476 22.614 2.21L31.614 9.21C31.7344 9.30347 31.8319 9.42325 31.899 9.56017C31.966 9.6971 32.0009 9.84754 32.0009 10C32.0009 10.1525 31.966 10.3029 31.899 10.4398C31.8319 10.5767 31.7344 10.6965 31.614 10.79L22.614 17.79C22.4662 17.905 22.2891 17.9761 22.1028 17.9954C21.9165 18.0146 21.7286 17.9812 21.5604 17.8989C21.3922 17.8165 21.2505 17.6886 21.1514 17.5297C21.0523 17.3708 20.9999 17.1873 21 17V14.05C16.536 14.51 13.752 17.996 12.208 20.848L11.894 21.448C11.7931 21.6493 11.6272 21.8107 11.4232 21.906C11.2192 22.0013 10.989 22.0249 10.7698 21.9731C10.5507 21.9212 10.3555 21.797 10.2157 21.6204C10.076 21.4438 10 21.2252 10 21C10 16.848 11.036 13.118 13.074 10.4C14.95 7.9 17.646 6.306 21 6.042V3C20.9996 2.81258 21.0519 2.62883 21.1509 2.4697C21.25 2.31057 21.3917 2.18246 21.56 2.1Z" fill="var(--fill-0, #FF5C00)"/>
</g>
<defs>
<clipPath id="clip0_0_8">
<rect width="32" height="32" fill="white"/>
</clipPath>
</defs>
</svg>
