<svg preserveAspectRatio="none" width="100%" height="100%" overflow="visible" style="display: block;" viewBox="0 0 32 32" fill="none" xmlns="http://www.w3.org/2000/svg">
<g id="fluent:money-settings-16-filled">
<path id="Vector" d="M2 6.5C2 5.12 3.12 4 4.5 4H23.5C24.88 4 26 5.12 26 6.5V12.414C25.0239 12.1383 24.0143 11.999 23 12C21.11 12 19.332 12.476 17.78 13.316C17.9227 12.9013 17.996 12.4627 18 12C17.9998 11.1857 17.751 10.3908 17.2869 9.72166C16.8229 9.0525 16.1656 8.54092 15.403 8.25529C14.6404 7.96966 13.8088 7.92359 13.0193 8.12324C12.2299 8.32288 11.5201 8.75873 10.985 9.37253C10.4498 9.98634 10.1148 10.7489 10.0246 11.5582C9.93442 12.3675 10.0934 13.1851 10.4803 13.9016C10.8672 14.6182 11.4636 15.1995 12.1897 15.5681C12.9159 15.9366 13.7372 16.0747 14.544 15.964C13.5597 17.1456 12.8341 18.5206 12.414 20H4.5C3.12 20 2 18.88 2 17.5V6.5ZM7 22H12.044C11.9844 22.6653 11.9844 23.3347 12.044 24H9C8.36644 24.0002 7.74906 23.7999 7.23637 23.4277C6.72367 23.0555 6.34198 22.5305 6.146 21.928C6.42333 21.976 6.708 22 7 22ZM28 13.2C28.7173 13.568 29.384 14.006 30 14.514V11C30.0003 10.3793 29.8081 9.77387 29.4499 9.26702C29.0917 8.76016 28.5852 8.37688 28 8.17V13.2ZM8 6H6V7C6 7.26522 5.89464 7.51957 5.70711 7.70711C5.51957 7.89464 5.26522 8 5 8H4V10H5C5.79565 10 6.55871 9.68393 7.12132 9.12132C7.68393 8.55871 8 7.79565 8 7V6ZM22 6H20V7C20 7.79565 20.3161 8.55871 20.8787 9.12132C21.4413 9.68393 22.2044 10 23 10H24V8H23C22.7348 8 22.4804 7.89464 22.2929 7.70711C22.1054 7.51957 22 7.26522 22 7V6ZM8 17C8 16.2044 7.68393 15.4413 7.12132 14.8787C6.55871 14.3161 5.79565 14 5 14H4V16H5C5.26522 16 5.51957 16.1054 5.70711 16.2929C5.89464 16.4804 6 16.7348 6 17V18H8V17ZM18.13 16.884C18.274 17.3973 18.314 17.9341 18.2476 18.4631C18.1812 18.992 18.0097 19.5023 17.7433 19.9641C17.4768 20.4258 17.1208 20.8296 16.696 21.1517C16.2713 21.4739 15.7865 21.7079 15.27 21.84L14.346 22.076C14.2792 22.7521 14.2859 23.4334 14.366 24.108L15.066 24.274C15.5963 24.3994 16.0953 24.6318 16.5325 24.957C16.9698 25.2821 17.3359 25.6932 17.6086 26.1649C17.8813 26.6367 18.0547 27.1592 18.1182 27.7003C18.1817 28.2415 18.134 28.7899 17.978 29.312L17.724 30.158C18.2413 30.5647 18.798 30.91 19.394 31.194L20.044 30.504C20.4182 30.1078 20.8694 29.7922 21.37 29.5766C21.8705 29.3611 22.4099 29.2501 22.9549 29.2504C23.4999 29.2508 24.039 29.3625 24.5393 29.5788C25.0396 29.7951 25.4903 30.1113 25.864 30.508L26.538 31.224C27.1247 30.9533 27.6727 30.6213 28.182 30.228L27.87 29.116C27.726 28.6027 27.686 28.0659 27.7524 27.5369C27.8188 27.008 27.9903 26.4977 28.2567 26.0359C28.5232 25.5742 28.8792 25.1704 29.304 24.8483C29.7287 24.5261 30.2135 24.2921 30.73 24.16L31.65 23.924C31.7169 23.2473 31.7102 22.5653 31.63 21.89L30.934 21.726C30.4035 21.6006 29.9043 21.3682 29.4669 21.0429C29.0295 20.7176 28.6632 20.3063 28.3905 19.8343C28.1178 19.3624 27.9444 18.8396 27.8811 18.2982C27.8177 17.7568 27.8657 17.2082 28.022 16.686L28.274 15.844C27.7587 15.436 27.1984 15.0884 26.604 14.808L25.954 15.494C25.5799 15.8904 25.1288 16.2061 24.6283 16.4218C24.1279 16.6376 23.5886 16.7488 23.0436 16.7486C22.4986 16.7484 21.9594 16.6368 21.459 16.4207C20.9587 16.2047 20.5078 15.8886 20.134 15.492L19.46 14.776C18.8773 15.045 18.3265 15.3784 17.818 15.77L18.13 16.884ZM22.998 25C22.4676 25 21.9589 24.7893 21.5838 24.4142C21.2087 24.0391 20.998 23.5304 20.998 23C20.998 22.4696 21.2087 21.9609 21.5838 21.5858C21.9589 21.2107 22.4676 21 22.998 21C23.5284 21 24.0371 21.2107 24.4122 21.5858C24.7873 21.9609 24.998 22.4696 24.998 23C24.998 23.5304 24.7873 24.0391 24.4122 24.4142C24.0371 24.7893 23.5284 25 22.998 25Z" fill="var(--fill-0, #FF5C00)"/>
</g>
</svg>
