<svg preserveAspectRatio="none" width="100%" height="100%" overflow="visible" style="display: block;" viewBox="0 0 32 32" fill="none" xmlns="http://www.w3.org/2000/svg">
<g id="material-symbols:money-bag-rounded">
<path id="Vector" d="M16 21.3333C15.2667 21.3333 14.6391 21.0724 14.1173 20.5507C13.5956 20.0289 13.3342 19.4009 13.3333 18.6667C13.3324 17.9324 13.5938 17.3049 14.1173 16.784C14.6409 16.2631 15.2684 16.0018 16 16C16.7316 15.9982 17.3596 16.2596 17.884 16.784C18.4084 17.3084 18.6693 17.936 18.6667 18.6667C18.664 19.3973 18.4031 20.0253 17.884 20.5507C17.3649 21.076 16.7369 21.3369 16 21.3333ZM9.83333 9.33333H22.1667L23.8667 5.93333C24.0889 5.48889 24.072 5.05555 23.816 4.63333C23.56 4.21111 23.1769 4 22.6667 4H9.33333C8.82222 4 8.43911 4.21111 8.184 4.63333C7.92889 5.05555 7.912 5.48889 8.13333 5.93333L9.83333 9.33333ZM11.2 28H20.8C22.8 28 24.5 27.3058 25.9 25.9173C27.3 24.5289 28 22.8231 28 20.8C28 19.9556 27.8556 19.1333 27.5667 18.3333C27.2778 17.5333 26.8667 16.8111 26.3333 16.1667L22.8667 12H9.13333L5.66667 16.1667C5.13333 16.8111 4.72222 17.5333 4.43333 18.3333C4.14444 19.1333 4 19.9556 4 20.8C4 22.8222 4.69467 24.528 6.084 25.9173C7.47333 27.3067 9.17867 28.0009 11.2 28Z" fill="var(--fill-0, #FF5C00)"/>
</g>
</svg>
