<svg preserveAspectRatio="none" width="100%" height="100%" overflow="visible" style="display: block;" viewBox="0 0 32 32" fill="none" xmlns="http://www.w3.org/2000/svg">
<g id="tdesign:user-talk-filled">
<path id="Vector" d="M15.3333 2.66667C13.3884 2.66667 11.5232 3.43928 10.1479 4.81455C8.77262 6.18982 8 8.05508 8 10C8 11.9449 8.77262 13.8102 10.1479 15.1855C11.5232 16.5607 13.3884 17.3333 15.3333 17.3333C17.2783 17.3333 19.1435 16.5607 20.5188 15.1855C21.8941 13.8102 22.6667 11.9449 22.6667 10C22.6667 8.05508 21.8941 6.18982 20.5188 4.81455C19.1435 3.43928 17.2783 2.66667 15.3333 2.66667ZM25.312 17.3093L26.1147 18.3733C27.3387 19.9942 28.0006 21.9702 27.9999 24.0013C27.9992 26.0325 27.3359 28.008 26.1107 29.628L25.3067 30.6907L23.18 29.0827L23.984 28.02C24.8594 26.8627 25.3332 25.4515 25.3337 24.0004C25.3342 22.5494 24.8613 21.1378 23.9867 19.98L23.184 18.916L25.312 17.3093Z" fill="var(--fill-0, #FF5C00)"/>
<path id="Vector_2" d="M21.5867 20.1213L22.392 21.1853C23.0038 21.9958 23.3345 22.9837 23.334 23.9991C23.3336 25.0146 23.0019 26.0021 22.3893 26.812L21.5853 27.876L19.4587 26.268L20.2627 25.204C20.5252 24.8567 20.6672 24.4333 20.6672 23.998C20.6672 23.5627 20.5252 23.1393 20.2627 22.792L19.46 21.728L21.5867 20.1213ZM17.168 18.6667C15.9762 20.1887 15.33 22.0669 15.3333 24C15.3333 26.012 16.0187 27.8627 17.168 29.3333H2.66667V26.6667C2.66667 24.5449 3.50952 22.5101 5.00981 21.0098C6.5101 19.5095 8.54493 18.6667 10.6667 18.6667H17.168Z" fill="var(--fill-0, #FF5C00)"/>
</g>
</svg>
