<svg preserveAspectRatio="none" width="100%" height="100%" overflow="visible" style="display: block;" viewBox="0 0 20.5 20.5" fill="none" xmlns="http://www.w3.org/2000/svg">
<g id="Group">
<path id="Vector" d="M0.75 10.25C0.75 5.772 0.75 3.532 2.141 2.141C3.532 0.75 5.771 0.75 10.25 0.75C14.728 0.75 16.968 0.75 18.359 2.141C19.75 3.532 19.75 5.771 19.75 10.25C19.75 14.728 19.75 16.968 18.359 18.359C16.968 19.75 14.729 19.75 10.25 19.75C5.772 19.75 3.532 19.75 2.141 18.359C0.75 16.968 0.75 14.729 0.75 10.25Z" stroke="var(--stroke-0, #FF5C00)" stroke-width="1.5" stroke-linejoin="round"/>
<path id="Vector_2" d="M11.114 5.972L11.994 7.746C12.114 7.993 12.434 8.23 12.704 8.276L14.299 8.543C15.319 8.714 15.559 9.46 14.823 10.196L13.583 11.446C13.373 11.658 13.259 12.066 13.323 12.359L13.678 13.906C13.958 15.131 13.314 15.605 12.238 14.965L10.744 14.073C10.474 13.911 10.029 13.911 9.754 14.073L8.259 14.965C7.189 15.605 6.539 15.126 6.819 13.906L7.174 12.359C7.239 12.066 7.124 11.659 6.914 11.446L5.674 10.196C4.944 9.46 5.179 8.714 6.199 8.543L7.794 8.276C7.94172 8.24108 8.08062 8.17597 8.20195 8.08475C8.32328 7.99354 8.42442 7.8782 8.499 7.746L9.379 5.972C9.859 5.009 10.639 5.009 11.114 5.972Z" stroke="var(--stroke-0, #FF5C00)" stroke-width="1.5" stroke-linecap="round" stroke-linejoin="round"/>
</g>
</svg>
