<svg preserveAspectRatio="none" width="100%" height="100%" overflow="visible" style="display: block;" viewBox="0 0 32 32" fill="none" xmlns="http://www.w3.org/2000/svg">
<g id="qlementine-icons:preview-16" clip-path="url(#clip0_0_10)">
<path id="Vector" fill-rule="evenodd" clip-rule="evenodd" d="M24 9.14C24.0218 8.98175 24.0053 8.82058 23.952 8.67L23.926 8.544C23.8523 8.23755 23.7308 7.94463 23.566 7.676C23.382 7.376 23.122 7.116 22.602 6.596L17.422 1.414C16.904 0.894 16.644 0.634 16.342 0.448C16.037 0.26123 15.701 0.130506 15.35 0.062C15.1994 0.00869029 15.0383 -0.00776903 14.88 0.014C14.658 0.008 14.388 0.008 14.03 0.008H9.61C6.25 0.008 4.57 0.00799999 3.29 0.662C2.16375 1.23928 1.24728 2.15575 0.67 3.282C0.0160001 4.566 0.016 6.24 0.016 9.6V22.4C0.016 25.76 0.0160001 27.44 0.67 28.72C1.24728 29.8463 2.16375 30.7627 3.29 31.34C4.574 31.994 6.25 31.994 9.61 31.994H14.456C15.258 31.994 15.66 30.948 15.15 30.33C15.0669 30.2266 14.9619 30.1429 14.8426 30.0848C14.7233 30.0267 14.5927 29.9957 14.46 29.994H9.6C7.886 29.994 6.72 29.992 5.82 29.918C4.944 29.846 4.494 29.718 4.182 29.558C3.42939 29.1745 2.81749 28.5626 2.434 27.81C2.274 27.498 2.144 27.05 2.074 26.172C2.002 25.272 2 24.112 2 22.392V9.592C2 7.878 2 6.712 2.074 5.812C2.146 4.936 2.276 4.486 2.434 4.174C2.818 3.422 3.43 2.81 4.182 2.426C4.494 2.266 4.944 2.136 5.822 2.066C6.72 1.994 7.88 1.994 9.6 1.994H14V8.994C14 9.25922 14.1054 9.51357 14.2929 9.70111C14.4804 9.88864 14.7348 9.994 15 9.994H22V11.088C22 11.588 22.414 11.988 22.912 12.034C23.482 12.084 23.998 11.658 23.998 11.086V9.98C23.998 9.624 23.998 9.354 23.988 9.13L24 9.14ZM16 2.82L21.18 8H16V2.82Z" fill="var(--fill-0, #FF5C00)"/>
<path id="Vector_2" fill-rule="evenodd" clip-rule="evenodd" d="M22 30C23.668 30 25.22 29.49 26.5 28.618L29.44 31.558C29.7211 31.8391 30.1024 31.9971 30.5 31.9971C30.8976 31.9971 31.2789 31.8391 31.56 31.558C31.8411 31.2769 31.9991 30.8956 31.9991 30.498C31.9991 30.1004 31.8411 29.7191 31.56 29.438L28.62 26.498C29.492 25.216 30.002 23.678 30.002 21.998C30.002 17.578 26.422 13.998 22.002 13.998C17.582 13.998 14.002 17.578 14.002 21.998C14.002 26.418 17.582 29.998 22.002 29.998L22 30ZM22 28C25.32 28 28 25.32 28 22C28 18.68 25.32 16 22 16C18.68 16 16 18.68 16 22C16 25.32 18.68 28 22 28Z" fill="var(--fill-0, #FF5C00)"/>
</g>
<defs>
<clipPath id="clip0_0_10">
<rect width="32" height="32" fill="white"/>
</clipPath>
</defs>
</svg>
