<svg preserveAspectRatio="none" width="100%" height="100%" overflow="visible" style="display: block;" viewBox="0 0 32 32" fill="none" xmlns="http://www.w3.org/2000/svg">
<g id="mage:preview-fill">
<path id="Vector" d="M13.3333 29.3333H11.6667C9.2808 29.3298 6.99366 28.3805 5.3066 26.6934C3.61954 25.0063 2.67019 22.7192 2.66667 20.3333V11.6667C2.67019 9.2808 3.61954 6.99366 5.3066 5.3066C6.99366 3.61954 9.2808 2.67019 11.6667 2.66667H20.3333C22.7192 2.67019 25.0063 3.61954 26.6934 5.3066C28.3805 6.99366 29.3298 9.2808 29.3333 11.6667V13.3333C29.3333 13.5985 29.228 13.8529 29.0404 14.0404C28.8529 14.228 28.5986 14.3333 28.3333 14.3333C28.0681 14.3333 27.8138 14.228 27.6262 14.0404C27.4387 13.8529 27.3333 13.5985 27.3333 13.3333V11.6667C27.3298 9.81123 26.5912 8.0328 25.2792 6.72081C23.9672 5.40882 22.1888 4.67019 20.3333 4.66667H11.6667C9.81123 4.67019 8.0328 5.40882 6.72081 6.72081C5.40882 8.0328 4.67019 9.81123 4.66667 11.6667V20.3333C4.67019 22.1888 5.40882 23.9672 6.72081 25.2792C8.0328 26.5912 9.81123 27.3298 11.6667 27.3333H13.3333C13.5985 27.3333 13.8529 27.4387 14.0404 27.6262C14.228 27.8138 14.3333 28.0681 14.3333 28.3333C14.3333 28.5986 14.228 28.8529 14.0404 29.0404C13.8529 29.228 13.5985 29.3333 13.3333 29.3333Z" fill="var(--fill-0, #FF5C00)"/>
<path id="Vector_2" d="M28.6933 19.3733C28.6683 19.9271 28.4614 20.4571 28.1046 20.8813C27.7479 21.3055 27.2612 21.6003 26.72 21.72L22.5067 22.4133L22.3867 22.5333C22.334 22.5865 22.2931 22.6501 22.2667 22.72L21.6 26.6C21.4634 27.1588 21.1443 27.6562 20.6933 28.0133C20.2744 28.3458 19.761 28.5372 19.2267 28.56H19.1067C18.5891 28.5548 18.085 28.3945 17.6595 28.0998C17.234 27.805 16.9067 27.3894 16.72 26.9067L13 16.3733C12.8346 15.918 12.8032 15.4248 12.9095 14.9521C13.0158 14.4795 13.2555 14.0473 13.6 13.7067C13.9392 13.3583 14.3763 13.1211 14.8533 13.0267C15.3278 12.9178 15.8238 12.9503 16.28 13.12L26.9467 16.8267C27.4692 17.0097 27.9187 17.3563 28.2286 17.8151C28.5384 18.2738 28.6921 18.8203 28.6667 19.3733H28.6933Z" fill="var(--fill-0, #FF5C00)"/>
</g>
</svg>
