<svg preserveAspectRatio="none" width="100%" height="100%" overflow="visible" style="display: block;" viewBox="0 0 31.36 31.36" fill="none" xmlns="http://www.w3.org/2000/svg">
<g id="ri:instagram-fill">
<path id="Vector" d="M17.0233 2.61333C18.4933 2.61725 19.2394 2.62509 19.8835 2.64339L20.137 2.65253C20.4297 2.66299 20.7185 2.67605 21.0674 2.69173C22.4577 2.75707 23.4063 2.97659 24.2387 3.29933C25.1011 3.63123 25.8276 4.08072 26.5541 4.80592C27.2188 5.4589 27.7329 6.2491 28.0607 7.12133C28.3834 7.95368 28.6029 8.90232 28.6683 10.2939C28.6839 10.6415 28.697 10.9303 28.7075 11.2243L28.7153 11.4778C28.7349 12.1206 28.7427 12.8667 28.7454 14.3367L28.7467 15.3115V17.0232C28.7498 17.9763 28.7398 18.9294 28.7166 19.8822L28.7088 20.1357C28.6983 20.4297 28.6852 20.7185 28.6696 21.0661C28.6042 22.4577 28.3821 23.405 28.0607 24.2387C27.7329 25.1109 27.2188 25.9011 26.5541 26.5541C25.9011 27.2188 25.1109 27.7329 24.2387 28.0607C23.4063 28.3834 22.4577 28.6029 21.0674 28.6683L20.137 28.7075L19.8835 28.7153C19.2394 28.7336 18.4933 28.7427 17.0233 28.7454L16.0485 28.7467H14.3381C13.3845 28.75 12.431 28.74 11.4778 28.7166L11.2243 28.7088C10.9141 28.697 10.604 28.6835 10.2939 28.6683C8.90363 28.6029 7.95499 28.3834 7.12133 28.0607C6.24956 27.7328 5.45983 27.2186 4.80723 26.5541C4.14206 25.9012 3.62745 25.111 3.29933 24.2387C2.97659 23.4063 2.75707 22.4577 2.69173 21.0661L2.65253 20.1357L2.646 19.8822C2.62191 18.9294 2.61102 17.9763 2.61333 17.0232V14.3367C2.60972 13.3837 2.6193 12.4306 2.64208 11.4778L2.65123 11.2243C2.66168 10.9303 2.67475 10.6415 2.69043 10.2939C2.75576 8.90232 2.97528 7.95498 3.29803 7.12133C3.62691 6.24874 4.14242 5.45852 4.80853 4.80592C5.46076 4.14154 6.25003 3.6274 7.12133 3.29933C7.95499 2.97659 8.90232 2.75707 10.2939 2.69173C10.6415 2.67605 10.9316 2.66299 11.2243 2.65253L11.4778 2.64469C12.4306 2.62148 13.3837 2.61146 14.3367 2.61464L17.0233 2.61333ZM15.68 9.14666C13.9472 9.14666 12.2855 9.835 11.0602 11.0602C9.835 12.2855 9.14667 13.9472 9.14667 15.68C9.14667 17.4127 9.835 19.0745 11.0602 20.2998C12.2855 21.525 13.9472 22.2133 15.68 22.2133C17.4127 22.2133 19.0745 21.525 20.2998 20.2998C21.525 19.0745 22.2133 17.4127 22.2133 15.68C22.2133 13.9472 21.525 12.2855 20.2998 11.0602C19.0745 9.835 17.4127 9.14666 15.68 9.14666ZM15.68 11.76C16.1948 11.7599 16.7045 11.8612 17.1802 12.0581C17.6558 12.2551 18.088 12.5437 18.452 12.9077C18.8161 13.2716 19.1049 13.7037 19.302 14.1793C19.4991 14.6548 19.6006 15.1646 19.6006 15.6793C19.6007 16.1941 19.4994 16.7039 19.3025 17.1795C19.1056 17.6551 18.8169 18.0873 18.453 18.4514C18.089 18.8155 17.6569 19.1043 17.1814 19.3014C16.7058 19.4984 16.1961 19.5999 15.6813 19.6C14.6417 19.6 13.6446 19.187 12.9094 18.4519C12.1743 17.7167 11.7613 16.7196 11.7613 15.68C11.7613 14.6403 12.1743 13.6433 12.9094 12.9081C13.6446 12.173 14.6417 11.76 15.6813 11.76M22.5413 7.18667C22.1081 7.18667 21.6927 7.35875 21.3864 7.66506C21.0801 7.97137 20.908 8.38681 20.908 8.82C20.908 9.25318 21.0801 9.66863 21.3864 9.97494C21.6927 10.2812 22.1081 10.4533 22.5413 10.4533C22.9745 10.4533 23.3899 10.2812 23.6962 9.97494C24.0026 9.66863 24.1746 9.25318 24.1746 8.82C24.1746 8.38681 24.0026 7.97137 23.6962 7.66506C23.3899 7.35875 22.9745 7.18667 22.5413 7.18667Z" fill="var(--fill-0, white)"/>
</g>
</svg>
