<svg preserveAspectRatio="none" width="100%" height="100%" overflow="visible" style="display: block;" viewBox="0 0 24 24" fill="none" xmlns="http://www.w3.org/2000/svg">
<g id="garden:face-very-happy-stroke-16">
<path id="Vector" d="M7.26074 13.055C7.2075 12.8995 7.0951 12.7712 6.94792 12.6979C6.80074 12.6246 6.63061 12.6123 6.47441 12.6636C6.31821 12.7149 6.18852 12.8257 6.11343 12.972C6.03834 13.1182 6.0239 13.2882 6.07324 13.445C7.89824 19.0038 15.5145 19.035 17.2632 13.4363C17.2908 13.3571 17.3023 13.2732 17.2968 13.1896C17.2913 13.106 17.2691 13.0243 17.2314 12.9495C17.1937 12.8746 17.1414 12.8081 17.0775 12.7539C17.0136 12.6996 16.9395 12.6588 16.8595 12.6338C16.7795 12.6088 16.6953 12.6002 16.6119 12.6084C16.5285 12.6166 16.4476 12.6415 16.374 12.6816C16.3004 12.7217 16.2356 12.7762 16.1835 12.8419C16.1314 12.9075 16.0931 12.983 16.0707 13.0637C14.6957 17.4637 8.71824 17.4962 7.26074 13.055ZM16.667 10.125C16.492 10.125 16.3045 10.05 16.192 9.9C16.192 9.9 15.8295 9.5 15.1045 9.5C14.3795 9.5 14.0295 9.8875 14.017 9.9125C13.792 10.1625 13.392 10.2 13.142 9.975C13.0177 9.87052 12.9401 9.721 12.926 9.55927C12.9119 9.39755 12.9626 9.23685 13.067 9.1125C13.142 9.025 13.817 8.2625 15.1045 8.2625C16.392 8.2625 17.0795 9.025 17.142 9.1125C17.367 9.375 17.3295 9.775 17.067 9.9875C16.9548 10.0804 16.8126 10.1292 16.667 10.125ZM9.31699 9.9C9.42949 10.05 9.61699 10.125 9.79199 10.125C9.92949 10.125 10.0795 10.0875 10.192 9.9875C10.4545 9.775 10.492 9.375 10.267 9.1125C10.2045 9.025 9.51699 8.2625 8.22949 8.2625C6.94199 8.2625 6.26699 9.025 6.19199 9.1125C5.97949 9.3625 6.00449 9.75 6.26699 9.975C6.51699 10.2 6.91699 10.1625 7.14199 9.9125C7.15449 9.8875 7.50449 9.5 8.22949 9.5C8.95449 9.5 9.31699 9.9 9.31699 9.9ZM21.667 12C21.667 14.6522 20.6134 17.1957 18.7381 19.0711C16.8627 20.9464 14.3192 22 11.667 22C9.01483 22 6.47129 20.9464 4.59592 19.0711C2.72056 17.1957 1.66699 14.6522 1.66699 12C1.66699 9.34784 2.72056 6.8043 4.59592 4.92893C6.47129 3.05357 9.01483 2 11.667 2C14.3192 2 16.8627 3.05357 18.7381 4.92893C20.6134 6.8043 21.667 9.34784 21.667 12ZM20.417 12C20.417 9.67936 19.4951 7.45376 17.8542 5.81282C16.2132 4.17187 13.9876 3.25 11.667 3.25C9.34635 3.25 7.12075 4.17187 5.47981 5.81282C3.83886 7.45376 2.91699 9.67936 2.91699 12C2.91699 14.3206 3.83886 16.5462 5.47981 18.1872C7.12075 19.8281 9.34635 20.75 11.667 20.75C13.9876 20.75 16.2132 19.8281 17.8542 18.1872C19.4951 16.5462 20.417 14.3206 20.417 12Z" fill="var(--fill-0, #FF5C00)"/>
</g>
</svg>
