<svg preserveAspectRatio="none" width="100%" height="100%" overflow="visible" style="display: block;" viewBox="0 0 26.1333 25.8903" fill="none" xmlns="http://www.w3.org/2000/svg">
<g id="Group">
<g id="Vector">
</g>
<path id="Vector_2" fill-rule="evenodd" clip-rule="evenodd" d="M13.0667 0C14.1839 0 15.3298 0.0287468 16.4405 0.0757868L17.7524 0.138507L19.0081 0.212987L20.1841 0.292693L21.2582 0.37632C22.4239 0.465031 23.521 0.962274 24.3562 1.78047C25.1914 2.59866 25.711 3.68532 25.8236 4.84904L25.8759 5.40437L25.9739 6.59344C26.0654 7.82562 26.1333 9.16888 26.1333 10.4533C26.1333 11.7378 26.0654 13.081 25.9739 14.3132L25.8759 15.5023L25.8236 16.0576C25.711 17.2216 25.1911 18.3084 24.3557 19.1266C23.5203 19.9448 22.4229 20.4419 21.2568 20.5303L20.1854 20.6127L19.0094 20.6937L17.7524 20.7682L16.4405 20.8309C15.3165 20.8796 14.1917 20.9048 13.0667 20.9067C11.9417 20.9048 10.8168 20.8796 9.69285 20.8309L8.38096 20.7682L7.12525 20.6937L5.94925 20.6127L4.87517 20.5303C3.70938 20.4416 2.61229 19.9444 1.77712 19.1262C0.941961 18.308 0.422302 17.2213 0.30968 16.0576L0.257413 15.5023L0.159413 14.3132C0.0598881 13.0289 0.00671579 11.7415 0 10.4533C0 9.16888 0.0679466 7.82562 0.159413 6.59344L0.257413 5.40437L0.30968 4.84904C0.422259 3.68552 0.941729 2.59903 1.77663 1.78086C2.61152 0.962698 3.70831 0.465325 4.87386 0.37632L5.94664 0.292693L7.12264 0.212987L8.37965 0.138507L9.69154 0.0757868C10.8159 0.0270835 11.9412 0.00181572 13.0667 0ZM10.4533 7.28466V13.622C10.4533 14.2257 11.1067 14.602 11.6293 14.3015L17.1173 11.1328C17.2367 11.0641 17.3359 10.9651 17.4049 10.8458C17.4739 10.7265 17.5102 10.5911 17.5102 10.4533C17.5102 10.3155 17.4739 10.1802 17.4049 10.0609C17.3359 9.94161 17.2367 9.84261 17.1173 9.77386L11.6293 6.6065C11.5101 6.53767 11.3749 6.50145 11.2372 6.50147C11.0995 6.50149 10.9643 6.53776 10.8451 6.60663C10.7259 6.6755 10.627 6.77454 10.5582 6.8938C10.4894 7.01305 10.4532 7.14831 10.4533 7.28597V7.28466Z" fill="var(--fill-0, white)"/>
</g>
</svg>
