<svg preserveAspectRatio="none" width="100%" height="100%" overflow="visible" style="display: block;" viewBox="0 0 32 32" fill="none" xmlns="http://www.w3.org/2000/svg">
<g id="solar:wallet-money-bold">
<path id="Vector" fill-rule="evenodd" clip-rule="evenodd" d="M27.2133 13.1467C27.1356 13.1431 27.0578 13.1417 26.98 13.1427H23.7333C21.0773 13.1427 18.8027 15.2507 18.8027 18C18.8027 20.7493 21.0773 22.8573 23.7347 22.8573H26.9787C27.0604 22.8582 27.1382 22.8564 27.212 22.852C27.76 22.8164 28.2765 22.5831 28.6655 22.1954C29.0544 21.8077 29.2894 21.2919 29.3267 20.744C29.332 20.6653 29.332 20.5813 29.332 20.504V15.496C29.332 15.4187 29.332 15.3347 29.3267 15.256C29.2894 14.7083 29.0546 14.1927 28.666 13.805C28.2773 13.4173 27.7611 13.1839 27.2133 13.148M23.4493 19.296C24.1333 19.296 24.6893 18.7173 24.6893 18.0013C24.6893 17.2853 24.1333 16.7067 23.4493 16.7067C22.7653 16.7067 22.2107 17.2853 22.2107 18.0013C22.2107 18.7173 22.764 19.296 23.4493 19.296Z" fill="var(--fill-0, #FF5C00)"/>
<path id="Vector_2" fill-rule="evenodd" clip-rule="evenodd" d="M26.9787 24.8C27.0233 24.7984 27.0677 24.8074 27.1083 24.8261C27.1489 24.8449 27.1845 24.8729 27.2123 24.9079C27.24 24.943 27.2592 24.984 27.2682 25.0278C27.2772 25.0716 27.2757 25.1169 27.264 25.16C27.0053 26.0827 26.596 26.8693 25.9387 27.5307C24.9773 28.5 23.7573 28.9307 22.2507 29.1347C20.7867 29.3333 18.9173 29.3333 16.5547 29.3333H13.8387C11.4773 29.3333 9.60667 29.3333 8.14267 29.1347C6.636 28.9307 5.416 28.5 4.45467 27.5307C3.49333 26.564 3.06667 25.3333 2.864 23.816C2.66667 22.3387 2.66667 20.4533 2.66667 18.0733V17.9267C2.66667 15.5467 2.66667 13.66 2.864 12.1853C3.06667 10.6667 3.49333 9.44 4.45333 8.468C5.41467 7.5 6.63467 7.068 8.14133 6.86533C9.60667 6.66667 11.4773 6.66667 13.8387 6.66667H16.5547C18.916 6.66667 20.7867 6.66667 22.2507 6.86533C23.7573 7.06933 24.9773 7.5 25.9387 8.468C26.596 9.13067 27.0053 9.91733 27.264 10.8413C27.2755 10.8844 27.2767 10.9295 27.2676 10.9731C27.2585 11.0167 27.2393 11.0576 27.2116 11.0925C27.1839 11.1273 27.1483 11.1552 27.1079 11.1739C27.0674 11.1926 27.0232 11.2015 26.9787 11.2H23.7347C20.0893 11.2 16.8773 14.1027 16.8773 18C16.8773 21.8973 20.0907 24.8 23.736 24.8H26.9787ZM7.48533 11.848C7.35839 11.8485 7.23279 11.874 7.11571 11.9231C6.99863 11.9722 6.89236 12.0438 6.80297 12.134C6.71357 12.2241 6.64281 12.331 6.59472 12.4484C6.54662 12.5659 6.52214 12.6917 6.52267 12.8187C6.52267 13.356 6.95333 13.7907 7.48533 13.7907H12.6267C13.16 13.7907 13.5907 13.356 13.5907 12.8187C13.5914 12.5622 13.4903 12.3159 13.3095 12.1339C13.1288 11.9519 12.8832 11.8491 12.6267 11.848H7.48533Z" fill="var(--fill-0, #FF5C00)"/>
<path id="Vector_3" d="M10.3693 5.36533L12.98 3.44133C13.6613 2.93789 14.4862 2.66621 15.3333 2.66621C16.1805 2.66621 17.0053 2.93789 17.6867 3.44133L20.312 5.376C19.2133 5.33333 17.9867 5.33333 16.644 5.33333H13.7507C12.5213 5.33333 11.392 5.33333 10.3693 5.36533Z" fill="var(--fill-0, #FF5C00)"/>
</g>
</svg>
