<svg preserveAspectRatio="none" width="100%" height="100%" overflow="visible" style="display: block;" viewBox="0 0 32 32" fill="none" xmlns="http://www.w3.org/2000/svg">
<g id="zondicons:link" clip-path="url(#clip0_0_8)">
<path id="Vector" d="M14.816 20.8C14.5346 20.3102 14.3878 19.7547 14.3906 19.1898C14.3935 18.625 14.5457 18.0709 14.832 17.584C16.0709 17.4832 17.2224 16.9057 18.0442 15.9731C18.8659 15.0405 19.2938 13.8254 19.2379 12.5837C19.1819 11.3419 18.6464 10.1703 17.7441 9.31539C16.8417 8.46047 15.643 7.98893 14.4 8H8C6.72696 8 5.50606 8.50571 4.60589 9.40589C3.70571 10.3061 3.2 11.527 3.2 12.8C3.2 14.073 3.70571 15.2939 4.60589 16.1941C5.50606 17.0943 6.72696 17.6 8 17.6H8.128C7.94897 18.6592 7.94897 19.7408 8.128 20.8H8C5.87827 20.8 3.84344 19.9571 2.34315 18.4569C0.842854 16.9566 -2.38419e-07 14.9217 -2.38419e-07 12.8C-2.38419e-07 10.6783 0.842854 8.64344 2.34315 7.14315C3.84344 5.64285 5.87827 4.8 8 4.8H14.4C16.5217 4.74483 18.5785 5.53478 20.1178 6.99607C21.6571 8.45735 22.5528 10.4703 22.608 12.592C22.6632 14.7137 21.8732 16.7705 20.4119 18.3098C18.9506 19.8491 16.9377 20.7448 14.816 20.8ZM17.184 11.2C17.4654 11.6898 17.6122 12.2453 17.6094 12.8102C17.6065 13.375 17.4543 13.9291 17.168 14.416C15.9291 14.5168 14.7776 15.0943 13.9558 16.0269C13.1341 16.9595 12.7062 18.1746 12.7621 19.4163C12.8181 20.6581 13.3536 21.8297 14.2559 22.6846C15.1583 23.5395 16.357 24.0111 17.6 24H24C25.273 24 26.4939 23.4943 27.3941 22.5941C28.2943 21.6939 28.8 20.473 28.8 19.2C28.8 17.927 28.2943 16.7061 27.3941 15.8059C26.4939 14.9057 25.273 14.4 24 14.4H23.872C24.051 13.3408 24.051 12.2592 23.872 11.2H24C26.1217 11.2 28.1566 12.0429 29.6569 13.5431C31.1571 15.0434 32 17.0783 32 19.2C32 21.3217 31.1571 23.3566 29.6569 24.8569C28.1566 26.3571 26.1217 27.2 24 27.2H17.6C16.5494 27.2273 15.5038 27.0474 14.5227 26.6706C13.5416 26.2938 12.6444 25.7275 11.8822 25.0039C10.3429 23.5426 9.44716 21.5297 9.392 19.408C9.33683 17.2863 10.1268 15.2295 11.5881 13.6902C13.0494 12.1509 15.0623 11.2552 17.184 11.2Z" fill="var(--fill-0, #FF5C00)"/>
</g>
<defs>
<clipPath id="clip0_0_8">
<rect width="32" height="32" fill="white"/>
</clipPath>
</defs>
</svg>
