<svg preserveAspectRatio="none" width="100%" height="100%" overflow="visible" style="display: block;" viewBox="0 0 32 32" fill="none" xmlns="http://www.w3.org/2000/svg">
<g id="streamline-flex:dashboard-3-remix" clip-path="url(#clip0_0_4)">
<path id="Vector" fill-rule="evenodd" clip-rule="evenodd" d="M4.52571 3.77143C5.61143 3.584 6.624 3.42857 7.63429 3.42857C8.64457 3.42857 9.65486 3.584 10.7429 3.77143C11.1771 3.84686 11.5109 4.21714 11.5429 4.64457L11.5657 4.95543C11.7029 6.752 11.84 8.55543 11.84 10.3954C11.84 12.24 11.7029 14.0411 11.5657 15.84L11.5429 16.1486C11.5245 16.3622 11.4362 16.5638 11.2915 16.7221C11.1468 16.8804 10.954 16.9865 10.7429 17.024C9.65486 17.2091 8.64457 17.3669 7.63429 17.3669C6.624 17.3669 5.61143 17.2091 4.52571 17.024C4.31416 16.987 4.12078 16.8811 3.97568 16.7227C3.83058 16.5644 3.74189 16.3625 3.72343 16.1486L3.70057 15.84C3.56343 14.0411 3.42857 12.24 3.42857 10.3977C3.42857 8.55543 3.56571 6.752 3.70057 4.95543L3.72343 4.64457C3.74225 4.43133 3.83082 4.23024 3.97544 4.07241C4.12005 3.91457 4.31265 3.80879 4.52343 3.77143M7.63429 0.571428C6.35429 0.571428 5.12686 0.767999 4.04114 0.955428C3.20208 1.10013 2.43514 1.52023 1.86144 2.14939C1.28775 2.77854 0.940009 3.5809 0.873142 4.42971L0.850285 4.76571C0.710856 6.54171 0.571428 8.44343 0.571428 10.3977C0.571428 12.352 0.715428 14.2537 0.847999 16.0297L0.873142 16.3634C0.940009 17.2122 1.28775 18.0146 1.86144 18.6438C2.43514 19.2729 3.20208 19.693 4.04114 19.8377C5.12686 20.0251 6.35429 20.224 7.63429 20.224C8.91429 20.224 10.1394 20.0251 11.2229 19.84C12.0627 19.6957 12.8304 19.2754 13.4046 18.6458C13.9788 18.0161 14.3266 17.213 14.3931 16.3634L14.416 16.0297C14.5531 14.2537 14.6949 12.3497 14.6949 10.3977C14.6949 8.44343 14.5509 6.54171 14.4183 4.76571L14.3931 4.432C14.3266 3.58245 13.9788 2.77932 13.4046 2.14966C12.8304 1.52001 12.0627 1.09977 11.2229 0.955428C10.1394 0.767999 8.912 0.571428 7.63429 0.571428ZM21.2571 14.976C22.3451 14.7909 23.3554 14.6331 24.3657 14.6331C25.376 14.6331 26.3886 14.7909 27.4743 14.976C27.6852 15.0145 27.8777 15.1208 28.0226 15.2789C28.1674 15.4369 28.2566 15.638 28.2766 15.8514L28.2994 16.16C28.4366 17.9589 28.5714 19.76 28.5714 21.6023C28.5714 23.4446 28.4343 25.248 28.2994 27.0446L28.2766 27.3554C28.2577 27.5687 28.1692 27.7698 28.0246 27.9276C27.8799 28.0854 27.6874 28.1912 27.4766 28.2286C26.3886 28.416 25.376 28.5714 24.368 28.5714C23.3554 28.5714 22.3451 28.416 21.2594 28.2286C21.0482 28.1917 20.8551 28.0861 20.7101 27.9282C20.565 27.7703 20.4761 27.569 20.4571 27.3554L20.4343 27.0446C20.2971 25.248 20.16 23.4446 20.16 21.6046C20.16 19.76 20.2971 17.9589 20.4343 16.16L20.4571 15.8514C20.4755 15.6378 20.5638 15.4362 20.7085 15.2779C20.8532 15.1196 21.046 15.0135 21.2571 14.976ZM24.3657 11.776C23.0857 11.776 21.8606 11.9749 20.7771 12.16C19.9373 12.3043 19.1696 12.7246 18.5954 13.3542C18.0212 13.9839 17.6734 14.787 17.6069 15.6366L17.584 15.9703C17.4469 17.7463 17.3051 19.6503 17.3051 21.6023C17.3051 23.5566 17.4469 25.4583 17.5817 27.2343L17.6069 27.568C17.6732 28.4172 18.0208 29.2201 18.5945 29.8497C19.1682 30.4793 19.9354 30.8998 20.7749 31.0446C21.8606 31.2297 23.088 31.4286 24.3657 31.4286C25.6457 31.4286 26.8731 31.2297 27.9589 31.0446C28.7979 30.8999 29.5649 30.4798 30.1386 29.8506C30.7122 29.2215 31.06 28.4191 31.1269 27.5703L31.1497 27.2343C31.2869 25.4583 31.4286 23.5566 31.4286 21.6023C31.4286 19.648 31.2846 17.7463 31.152 15.9703L31.1269 15.6366C31.06 14.7878 30.7122 13.9854 30.1386 13.3562C29.5649 12.7271 28.7979 12.307 27.9589 12.1623C26.8731 11.9749 25.6457 11.776 24.3657 11.776ZM20.9074 0.703999C22 0.639999 23.1657 0.571428 24.3657 0.571428C25.5657 0.571428 26.7337 0.637714 27.8263 0.703999C29.488 0.804571 31.0606 2.02057 31.3349 3.82171C31.3897 4.17829 31.4286 4.56686 31.4286 4.976C31.4286 5.38286 31.3897 5.77143 31.3349 6.128C31.0606 7.92914 29.488 9.14514 27.8263 9.24571C26.7337 9.31429 25.568 9.37829 24.3657 9.37829C23.2119 9.36902 22.0586 9.32481 20.9074 9.24571C19.2457 9.14514 17.6709 7.92914 17.3989 6.128C17.3391 5.74686 17.3077 5.36179 17.3051 4.976C17.3051 4.56457 17.344 4.176 17.3966 3.82171C17.6709 2.02057 19.2457 0.804571 20.9074 0.703999ZM7.63429 22.6217C6.432 22.6217 5.26629 22.688 4.17371 22.7543C2.512 22.8549 0.939428 24.0686 0.665142 25.872C0.605353 26.2531 0.574028 26.6382 0.571428 27.024C0.571428 27.4354 0.610285 27.8217 0.665142 28.1783C0.939428 29.9794 2.512 31.1954 4.17371 31.296C5.26629 31.3623 6.432 31.4286 7.63429 31.4286C8.83429 31.4286 10 31.36 11.0926 31.296C12.7543 31.1931 14.3291 29.9794 14.6011 28.1783C14.661 27.7964 14.6924 27.4106 14.6949 27.024C14.693 26.6383 14.6625 26.2532 14.6034 25.872C14.3291 24.0686 12.7543 22.8549 11.0926 22.7543C9.94149 22.6737 8.78815 22.6295 7.63429 22.6217Z" fill="var(--fill-0, #FF5C00)"/>
</g>
<defs>
<clipPath id="clip0_0_4">
<rect width="32" height="32" fill="white"/>
</clipPath>
</defs>
</svg>
