<svg preserveAspectRatio="none" width="100%" height="100%" overflow="visible" style="display: block;" viewBox="0 0 32 32" fill="none" xmlns="http://www.w3.org/2000/svg">
<g id="fluent:form-sparkle-20-regular" clip-path="url(#clip0_0_12)">
<path id="Vector" d="M23.8048 0.4512L24.3616 2.1648C24.5344 2.68618 24.8269 3.15988 25.2156 3.54801C25.6043 3.93613 26.0784 4.22791 26.6 4.4L28.3136 4.9568L28.3472 4.9664C28.4794 5.01293 28.5938 5.09932 28.6748 5.21367C28.7558 5.32802 28.7993 5.46468 28.7993 5.6048C28.7993 5.74492 28.7558 5.88158 28.6748 5.99593C28.5938 6.11028 28.4794 6.19667 28.3472 6.2432L26.6336 6.8C26.112 6.97209 25.6379 7.26387 25.2492 7.65199C24.8605 8.04012 24.568 8.51382 24.3952 9.0352L23.8384 10.7472C23.7919 10.8794 23.7055 10.9938 23.5911 11.0748C23.4768 11.1558 23.3401 11.1993 23.2 11.1993C23.0599 11.1993 22.9232 11.1558 22.8089 11.0748C22.6945 10.9938 22.6081 10.8794 22.5616 10.7472L22.0032 9.0352C21.8317 8.51265 21.5402 8.03756 21.152 7.648C20.7636 7.25769 20.289 6.96395 19.7664 6.7904L18.0528 6.2336C17.9206 6.18707 17.8062 6.10068 17.7252 5.98633C17.6442 5.87198 17.6007 5.73532 17.6007 5.5952C17.6007 5.45508 17.6442 5.31842 17.7252 5.20407C17.8062 5.08972 17.9206 5.00333 18.0528 4.9568L19.7664 4.4C20.2815 4.22325 20.7486 3.9294 21.1309 3.54154C21.5132 3.15369 21.8003 2.68241 21.9696 2.1648L22.5264 0.4528C22.5726 0.320078 22.6589 0.205024 22.7735 0.123606C22.888 0.0421886 23.0251 -0.00155564 23.1656 -0.00155564C23.3061 -0.00155564 23.4432 0.0421886 23.5577 0.123606C23.6723 0.205024 23.7586 0.318478 23.8048 0.4512ZM31.6528 13.1424L30.4272 12.7456C30.0553 12.6213 29.7174 12.4121 29.4403 12.1347C29.1632 11.8573 28.9544 11.5192 28.8304 11.1472L28.4304 9.9248C28.3973 9.83029 28.3356 9.74841 28.2539 9.69048C28.1722 9.63255 28.0745 9.60143 27.9744 9.60143C27.8743 9.60143 27.7766 9.63255 27.6949 9.69048C27.6132 9.74841 27.5515 9.83029 27.5184 9.9248L27.1216 11.1472C26.9999 11.5168 26.7945 11.8534 26.5214 12.1306C26.2484 12.4079 25.9149 12.6183 25.5472 12.7456L24.3232 13.1424C24.2294 13.1763 24.1483 13.2382 24.091 13.3198C24.0338 13.4014 24.003 13.4987 24.003 13.5984C24.003 13.6981 24.0338 13.7954 24.091 13.877C24.1483 13.9586 24.2294 14.0205 24.3232 14.0544L25.5472 14.4528C25.9202 14.5772 26.259 14.7869 26.5368 15.0652C26.8145 15.3435 27.0236 15.6828 27.1472 16.056L27.544 17.2784C27.5771 17.3729 27.6388 17.4548 27.7205 17.5127C27.8022 17.5707 27.8999 17.6018 28 17.6018C28.1001 17.6018 28.1978 17.5707 28.2795 17.5127C28.3612 17.4548 28.4229 17.3729 28.456 17.2784L28.8544 16.056C28.9785 15.6838 29.1876 15.3456 29.465 15.0682C29.7424 14.7908 30.0806 14.5817 30.4528 14.4576L31.6768 14.0608C31.7706 14.0269 31.8517 13.965 31.909 13.8834C31.9662 13.8018 31.997 13.7045 31.997 13.6048C31.997 13.5051 31.9662 13.4078 31.909 13.3262C31.8517 13.2446 31.7706 13.1827 31.6768 13.1488L31.6528 13.1424ZM9.6 4.8H16.168C16.0667 5.0551 16.0098 5.32569 16 5.6C16.0032 5.8752 16.056 6.1472 16.1552 6.4H9.6C8.75131 6.4 7.93737 6.73714 7.33726 7.33726C6.73714 7.93737 6.4 8.75131 6.4 9.6V22.4C6.4 23.2487 6.73714 24.0626 7.33726 24.6627C7.93737 25.2629 8.75131 25.6 9.6 25.6H22.4C23.2487 25.6 24.0626 25.2629 24.6627 24.6627C25.2629 24.0626 25.6 23.2487 25.6 22.4V16.4752L25.632 16.56L26.016 17.776C26.1155 18.057 26.272 18.3143 26.4758 18.5319C26.6795 18.7494 26.9261 18.9224 27.2 19.04V22.4C27.2 23.673 26.6943 24.8939 25.7941 25.7941C24.8939 26.6943 23.673 27.2 22.4 27.2H9.6C8.32696 27.2 7.10606 26.6943 6.20589 25.7941C5.30571 24.8939 4.8 23.673 4.8 22.4V9.6C4.8 8.32696 5.30571 7.10606 6.20589 6.20589C7.10606 5.30571 8.32696 4.8 9.6 4.8ZM8.8 8H18.3824L19.36 8.32C19.5991 8.3911 19.8183 8.51712 20 8.688L20.096 8.784C20.2752 8.9552 20.416 9.1632 20.512 9.392V9.536L20.5328 9.6H8.8C8.58783 9.6 8.38434 9.51571 8.23431 9.36569C8.08429 9.21566 8 9.01217 8 8.8C8 8.58783 8.08429 8.38434 8.23431 8.23431C8.38434 8.08429 8.58783 8 8.8 8ZM15.2 14.4H22.5584C22.6171 14.5419 22.6923 14.6752 22.784 14.8C23.032 15.1536 23.3856 15.4224 23.792 15.568L23.8928 15.6C23.8226 15.7216 23.7216 15.8226 23.6 15.8928C23.4784 15.963 23.3404 16 23.2 16H15.2C14.9878 16 14.7843 15.9157 14.6343 15.7657C14.4843 15.6157 14.4 15.4122 14.4 15.2C14.4 14.9878 14.4843 14.7843 14.6343 14.6343C14.7843 14.4843 14.9878 14.4 15.2 14.4ZM10.4 17.6C11.0365 17.6 11.647 17.3471 12.0971 16.8971C12.5471 16.447 12.8 15.8365 12.8 15.2C12.8 14.5635 12.5471 13.953 12.0971 13.5029C11.647 13.0529 11.0365 12.8 10.4 12.8C9.76348 12.8 9.15303 13.0529 8.70294 13.5029C8.25286 13.953 8 14.5635 8 15.2C8 15.8365 8.25286 16.447 8.70294 16.8971C9.15303 17.3471 9.76348 17.6 10.4 17.6ZM10.4 16C10.1878 16 9.98434 15.9157 9.83431 15.7657C9.68429 15.6157 9.6 15.4122 9.6 15.2C9.6 14.9878 9.68429 14.7843 9.83431 14.6343C9.98434 14.4843 10.1878 14.4 10.4 14.4C10.6122 14.4 10.8157 14.4843 10.9657 14.6343C11.1157 14.7843 11.2 14.9878 11.2 15.2C11.2 15.4122 11.1157 15.6157 10.9657 15.7657C10.8157 15.9157 10.6122 16 10.4 16ZM12.8 21.6C12.8 22.2365 12.5471 22.847 12.0971 23.2971C11.647 23.7471 11.0365 24 10.4 24C9.76348 24 9.15303 23.7471 8.70294 23.2971C8.25286 22.847 8 22.2365 8 21.6C8 20.9635 8.25286 20.353 8.70294 19.9029C9.15303 19.4529 9.76348 19.2 10.4 19.2C11.0365 19.2 11.647 19.4529 12.0971 19.9029C12.5471 20.353 12.8 20.9635 12.8 21.6ZM11.2 21.6C11.2 21.3878 11.1157 21.1843 10.9657 21.0343C10.8157 20.8843 10.6122 20.8 10.4 20.8C10.1878 20.8 9.98434 20.8843 9.83431 21.0343C9.68429 21.1843 9.6 21.3878 9.6 21.6C9.6 21.8122 9.68429 22.0157 9.83431 22.1657C9.98434 22.3157 10.1878 22.4 10.4 22.4C10.6122 22.4 10.8157 22.3157 10.9657 22.1657C11.1157 22.0157 11.2 21.8122 11.2 21.6ZM15.2 20.8C14.9878 20.8 14.7843 20.8843 14.6343 21.0343C14.4843 21.1843 14.4 21.3878 14.4 21.6C14.4 21.8122 14.4843 22.0157 14.6343 22.1657C14.7843 22.3157 14.9878 22.4 15.2 22.4H23.2C23.4122 22.4 23.6157 22.3157 23.7657 22.1657C23.9157 22.0157 24 21.8122 24 21.6C24 21.3878 23.9157 21.1843 23.7657 21.0343C23.6157 20.8843 23.4122 20.8 23.2 20.8H15.2Z" fill="var(--fill-0, #FF5C00)"/>
</g>
<defs>
<clipPath id="clip0_0_12">
<rect width="32" height="32" fill="white"/>
</clipPath>
</defs>
</svg>
