<svg preserveAspectRatio="none" width="100%" height="100%" overflow="visible" style="display: block;" viewBox="0 0 19.5 19.5" fill="none" xmlns="http://www.w3.org/2000/svg">
<g id="Group">
<path id="Vector" d="M18.75 9.75C18.75 10.9319 18.5172 12.1022 18.0649 13.1942C17.6126 14.2861 16.9497 15.2782 16.114 16.114C15.2782 16.9497 14.2861 17.6126 13.1942 18.0649C12.1022 18.5172 10.9319 18.75 9.75 18.75C8.5681 18.75 7.39778 18.5172 6.30585 18.0649C5.21392 17.6126 4.22177 16.9497 3.38604 16.114C2.55031 15.2782 1.88738 14.2861 1.43508 13.1942C0.982792 12.1022 0.75 10.9319 0.75 9.75C0.75 7.36305 1.69821 5.07387 3.38604 3.38604C5.07387 1.69821 7.36305 0.75 9.75 0.75C12.1369 0.75 14.4261 1.69821 16.114 3.38604C17.8018 5.07387 18.75 7.36305 18.75 9.75Z" stroke="var(--stroke-0, #FF5C00)" stroke-width="1.5" stroke-linecap="round" stroke-linejoin="round"/>
<path id="Vector_2" d="M15.75 3.75L12.225 7.275M12.225 7.275C13.573 8.624 13.573 10.877 12.225 12.225M12.225 7.275C10.877 5.927 8.624 5.927 7.275 7.275M3.75 15.75L7.275 12.225M7.275 12.225C5.927 10.877 5.927 8.624 7.275 7.275M7.275 12.225C8.623 13.573 10.876 13.573 12.225 12.225M3.75 3.75L7.275 7.275M15.75 15.75L12.225 12.225" stroke="var(--stroke-0, #FF5C00)" stroke-width="1.5" stroke-linecap="round" stroke-linejoin="round"/>
</g>
</svg>
