<svg preserveAspectRatio="none" width="100%" height="100%" overflow="visible" style="display: block;" viewBox="0 0 32 32" fill="none" xmlns="http://www.w3.org/2000/svg">
<g id="streamline-flex:left-click-remix" clip-path="url(#clip0_0_4)">
<path id="Vector" fill-rule="evenodd" clip-rule="evenodd" d="M14.2514 3.42857C10.0846 3.42857 6.28571 7.33714 6.28571 11.552C6.28571 12.0067 6.1051 12.4427 5.78361 12.7642C5.46212 13.0857 5.02608 13.2663 4.57143 13.2663C4.11677 13.2663 3.68074 13.0857 3.35924 12.7642C3.03775 12.4427 2.85714 12.0067 2.85714 11.552C2.85486 5.51771 8.11657 -7.15256e-07 14.2514 -7.15256e-07C14.7061 -7.15256e-07 15.1421 0.180611 15.4636 0.502102C15.7851 0.823593 15.9657 1.25963 15.9657 1.71429C15.9657 2.16894 15.7851 2.60498 15.4636 2.92647C15.1421 3.24796 14.7061 3.42857 14.2514 3.42857ZM13.1771 19.7303V20.0869C13.1771 21.5954 13.2594 23.0926 13.3714 24.5806C13.5429 26.8434 15.3829 28.8091 17.7234 29.0377C18.3954 29.1048 19.0659 29.1398 19.7349 29.1429C20.736 29.1474 21.0674 29.1017 21.744 29.0354C24.0823 28.8069 25.9223 26.8411 26.0937 24.5783C26.2057 23.0926 26.288 21.5954 26.288 20.0869C26.288 18.5783 26.2057 17.0789 26.0937 15.5909C25.9223 13.3303 24.0823 11.3646 21.744 11.1337C21.3327 11.0936 20.9203 11.0646 20.5074 11.0469C20.6994 12.6537 20.7497 14.24 20.6537 15.84C20.5257 18.0069 18.8251 19.776 16.6263 19.872C15.4754 19.9214 14.3201 19.8739 13.1771 19.7303ZM19.7349 8.17143C18.9706 8.17353 18.207 8.21397 17.4469 8.29257C13.6891 8.65829 10.7954 11.7669 10.5257 15.3783C10.398 16.9446 10.3301 18.5153 10.3223 20.0869C10.3223 21.6983 10.4114 23.2731 10.5257 24.7954C10.7977 28.4023 13.6891 31.5109 17.4469 31.8811C18.1897 31.952 18.9554 32 19.7349 32C20.5166 31.997 21.2792 31.9566 22.0229 31.8789C25.7806 31.5131 28.6743 28.4046 28.944 24.7931C29.0583 23.2731 29.1474 21.6983 29.1474 20.0846C29.1474 18.4754 29.0583 16.8983 28.944 15.376C28.6743 11.7691 25.7806 8.66057 22.0229 8.29029C21.28 8.21943 20.5143 8.17143 19.7371 8.17143" fill="var(--fill-0, #FF5C00)"/>
</g>
<defs>
<clipPath id="clip0_0_4">
<rect width="32" height="32" fill="white"/>
</clipPath>
</defs>
</svg>
