<svg preserveAspectRatio="none" width="100%" height="100%" overflow="visible" style="display: block;" viewBox="0 0 31.36 31.36" fill="none" xmlns="http://www.w3.org/2000/svg">
<g id="ic:outline-tiktok">
<path id="Vector" d="M21.6907 7.6048C20.7977 6.58498 20.3055 5.27553 20.3056 3.92H16.268V20.1227C16.2375 20.9997 15.8675 21.8306 15.2361 22.44C14.6047 23.0495 13.7613 23.3899 12.8837 23.3893C11.0283 23.3893 9.4864 21.8736 9.4864 19.992C9.4864 17.7445 11.6555 16.0589 13.8899 16.7515V12.6224C9.38186 12.0213 5.43573 15.5232 5.43573 19.992C5.43573 24.3432 9.04213 27.44 12.8707 27.44C16.9736 27.44 20.3056 24.108 20.3056 19.992V11.7731C21.9428 12.9489 23.9085 13.5797 25.9243 13.5763V9.53867C25.9243 9.53867 23.4677 9.65627 21.6907 7.6048Z" fill="var(--fill-0, white)"/>
</g>
</svg>
