<svg preserveAspectRatio="none" width="100%" height="100%" overflow="visible" style="display: block;" viewBox="0 0 32 32" fill="none" xmlns="http://www.w3.org/2000/svg">
<g id="iconamoon:discount-fill">
<path id="Vector" fill-rule="evenodd" clip-rule="evenodd" d="M13.02 3.99733C13.3952 3.57832 13.8545 3.24314 14.368 3.01367C14.8815 2.7842 15.4376 2.66559 16 2.66559C16.5624 2.66559 17.1185 2.7842 17.632 3.01367C18.1455 3.24314 18.6048 3.57832 18.98 3.99733L19.9133 5.04C20.0467 5.18921 20.212 5.30648 20.3969 5.38311C20.5817 5.45974 20.7815 5.49377 20.9813 5.48267L22.3813 5.40533C22.9427 5.3745 23.5043 5.46237 24.0295 5.6632C24.5546 5.86403 25.0315 6.17332 25.4291 6.57089C25.8267 6.96845 26.136 7.44537 26.3368 7.97052C26.5376 8.49568 26.6255 9.05727 26.5947 9.61867L26.5173 11.0187C26.5064 11.2183 26.5406 11.4178 26.6172 11.6024C26.6938 11.787 26.811 11.9521 26.96 12.0853L28.004 13.0187C28.4232 13.3938 28.7586 13.8532 28.9882 14.3669C29.2178 14.8805 29.3365 15.4367 29.3365 15.9993C29.3365 16.5619 29.2178 17.1182 28.9882 17.6318C28.7586 18.1454 28.4232 18.6048 28.004 18.98L26.96 19.9133C26.8108 20.0467 26.6935 20.212 26.6169 20.3969C26.5403 20.5817 26.5062 20.7815 26.5173 20.9813L26.5947 22.3813C26.6255 22.9427 26.5376 23.5043 26.3368 24.0295C26.136 24.5546 25.8267 25.0315 25.4291 25.4291C25.0315 25.8267 24.5546 26.136 24.0295 26.3368C23.5043 26.5376 22.9427 26.6255 22.3813 26.5947L20.9813 26.5173C20.7817 26.5064 20.5822 26.5406 20.3976 26.6172C20.2129 26.6938 20.0479 26.811 19.9147 26.96L18.9813 28.004C18.6062 28.4232 18.1468 28.7586 17.6331 28.9882C17.1195 29.2178 16.5633 29.3365 16.0007 29.3365C15.4381 29.3365 14.8818 29.2178 14.3682 28.9882C13.8546 28.7586 13.3952 28.4232 13.02 28.004L12.0867 26.96C11.9533 26.8108 11.788 26.6935 11.6031 26.6169C11.4183 26.5403 11.2185 26.5062 11.0187 26.5173L9.61867 26.5947C9.05727 26.6255 8.49568 26.5376 7.97052 26.3368C7.44537 26.136 6.96845 25.8267 6.57089 25.4291C6.17332 25.0315 5.86403 24.5546 5.6632 24.0295C5.46237 23.5043 5.3745 22.9427 5.40533 22.3813L5.48267 20.9813C5.49356 20.7817 5.45944 20.5822 5.38281 20.3976C5.30619 20.213 5.18903 20.0479 5.04 19.9147L3.99733 18.9813C3.5781 18.6062 3.24274 18.1468 3.01313 17.6331C2.78352 17.1195 2.66485 16.5633 2.66485 16.0007C2.66485 15.4381 2.78352 14.8818 3.01313 14.3682C3.24274 13.8546 3.5781 13.3952 3.99733 13.02L5.04 12.0867C5.18921 11.9533 5.30648 11.788 5.38311 11.6031C5.45974 11.4183 5.49377 11.2185 5.48267 11.0187L5.40533 9.61867C5.3745 9.05727 5.46237 8.49568 5.6632 7.97052C5.86403 7.44537 6.17332 6.96845 6.57089 6.57089C6.96845 6.17332 7.44537 5.86403 7.97052 5.6632C8.49568 5.46237 9.05727 5.3745 9.61867 5.40533L11.0187 5.48267C11.2183 5.49356 11.4178 5.45944 11.6024 5.38281C11.787 5.30619 11.9521 5.18903 12.0853 5.04L13.02 3.99733ZM20.9427 11.0573C21.1926 11.3074 21.333 11.6464 21.333 12C21.333 12.3536 21.1926 12.6926 20.9427 12.9427L12.9427 20.9427C12.6912 21.1855 12.3544 21.3199 12.0048 21.3169C11.6552 21.3139 11.3208 21.1736 11.0736 20.9264C10.8264 20.6792 10.6861 20.3448 10.6831 19.9952C10.6801 19.6456 10.8145 19.3088 11.0573 19.0573L19.0573 11.0573C19.3074 10.8074 19.6464 10.667 20 10.667C20.3536 10.667 20.6926 10.8074 20.9427 11.0573ZM12.6667 10.6667C12.1362 10.6667 11.6275 10.8774 11.2525 11.2525C10.8774 11.6275 10.6667 12.1362 10.6667 12.6667V12.68C10.6667 13.2104 10.8774 13.7191 11.2525 14.0942C11.6275 14.4693 12.1362 14.68 12.6667 14.68H12.68C13.2104 14.68 13.7191 14.4693 14.0942 14.0942C14.4693 13.7191 14.68 13.2104 14.68 12.68V12.6667C14.68 12.1362 14.4693 11.6275 14.0942 11.2525C13.7191 10.8774 13.2104 10.6667 12.68 10.6667H12.6667ZM19.3333 17.3333C18.8029 17.3333 18.2942 17.544 17.9191 17.9191C17.544 18.2942 17.3333 18.8029 17.3333 19.3333V19.3467C17.3333 19.8771 17.544 20.3858 17.9191 20.7609C18.2942 21.136 18.8029 21.3467 19.3333 21.3467H19.3467C19.8771 21.3467 20.3858 21.136 20.7609 20.7609C21.136 20.3858 21.3467 19.8771 21.3467 19.3467V19.3333C21.3467 18.8029 21.136 18.2942 20.7609 17.9191C20.3858 17.544 19.8771 17.3333 19.3467 17.3333H19.3333Z" fill="var(--fill-0, #FF5C00)"/>
</g>
</svg>
