<svg preserveAspectRatio="none" width="100%" height="100%" overflow="visible" style="display: block;" viewBox="0 0 35 34" fill="none" xmlns="http://www.w3.org/2000/svg">
<g id="Vector" filter="url(#filter0_d_0_152)">
<path d="M17.5 21.7246L21.1374 23.873C21.8035 24.2668 22.6186 23.6847 22.4433 22.9486L21.4792 18.9085L24.6959 16.1865C25.2831 15.69 24.9676 14.7485 24.1963 14.6885L19.9629 14.3376L18.3064 10.52C18.0084 9.82667 16.9916 9.82667 16.6936 10.52L15.0371 14.329L10.8037 14.68C10.0324 14.7399 9.71686 15.6815 10.3041 16.1779L13.5208 18.8999L12.5567 22.94C12.3814 23.6762 13.1965 24.2582 13.8626 23.8645L17.5 21.7246Z" fill="var(--fill-0, #FF975D)"/>
</g>
<defs>
<filter id="filter0_d_0_152" x="4.03139e-09" y="1.27549e-08" width="35" height="34" filterUnits="userSpaceOnUse" color-interpolation-filters="sRGB">
<feFlood flood-opacity="0" result="BackgroundImageFix"/>
<feColorMatrix in="SourceAlpha" type="matrix" values="0 0 0 0 0 0 0 0 0 0 0 0 0 0 0 0 0 0 127 0" result="hardAlpha"/>
<feOffset/>
<feGaussianBlur stdDeviation="5"/>
<feComposite in2="hardAlpha" operator="out"/>
<feColorMatrix type="matrix" values="0 0 0 0 1 0 0 0 0 0.360784 0 0 0 0 0 0 0 0 0.4 0"/>
<feBlend mode="normal" in2="BackgroundImageFix" result="effect1_dropShadow_0_152"/>
<feBlend mode="normal" in="SourceGraphic" in2="effect1_dropShadow_0_152" result="shape"/>
</filter>
</defs>
</svg>
