<svg width="40" height="25" viewBox="0 0 40 25" fill="none" xmlns="http://www.w3.org/2000/svg">
<path d="M11.4992 8.415C11.3417 8.61321 11.1408 8.77263 10.9119 8.88098C10.6831 8.98934 10.4324 9.04374 10.1792 9.04C10.1627 8.79264 10.1957 8.54445 10.2764 8.31004C10.3571 8.07563 10.4839 7.85972 10.6492 7.675C10.9822 7.28779 11.4531 7.04565 11.9617 7C11.9954 7.51361 11.8297 8.02042 11.4992 8.415ZM11.9542 9.135C11.2242 9.0925 10.5992 9.55 10.2492 9.55C9.89924 9.55 9.36924 9.1575 8.79174 9.17C8.41744 9.17971 8.05217 9.287 7.73207 9.48125C7.41198 9.67549 7.14816 9.94997 6.96674 10.2775C6.17924 11.63 6.76174 13.6275 7.52424 14.73C7.89674 15.275 8.33924 15.8725 8.92674 15.8525C9.51424 15.8325 9.70674 15.5 10.3767 15.5C11.0467 15.5 11.2492 15.86 11.8342 15.85C12.4192 15.84 12.8342 15.3075 13.1967 14.7625C13.4588 14.3775 13.6635 13.9564 13.8042 13.5125C13.4544 13.3598 13.1563 13.109 12.946 12.7905C12.7356 12.4719 12.6222 12.0992 12.6192 11.7175C12.6225 11.3781 12.7121 11.0451 12.8797 10.7499C13.0472 10.4546 13.2871 10.2069 13.5767 10.03C13.393 9.76668 13.1505 9.54967 12.8685 9.39608C12.5865 9.2425 12.2726 9.15654 11.9517 9.145L11.9542 9.135ZM16.1567 7.63V15.78H17.4242V13H19.1742C20.7792 13 21.9017 11.8975 21.9017 10.3075C21.9017 8.7175 20.7992 7.62 19.2217 7.62L16.1567 7.63ZM17.4242 8.6975H18.8867C19.9867 8.6975 20.6167 9.2825 20.6167 10.315C20.6167 11.3475 19.9992 11.9275 18.8817 11.9275H17.4242V8.6775V8.6975ZM24.2167 15.8425C24.5931 15.8533 24.9654 15.7621 25.2941 15.5786C25.6229 15.3951 25.8959 15.126 26.0842 14.8H26.1092V15.78H27.2817V11.72C27.2817 10.5425 26.3392 9.78 24.8917 9.78C23.5467 9.78 22.5492 10.55 22.5117 11.605H23.6567C23.7517 11.105 24.2167 10.7725 24.8542 10.7725C25.6292 10.7725 26.0642 11.1325 26.0642 11.7975V12.25L24.4817 12.3475C23.0117 12.435 22.2167 13.0375 22.2167 14.0975C22.2167 15.1575 23.0392 15.8425 24.2167 15.8425ZM24.5592 14.8775C23.8867 14.8775 23.4542 14.55 23.4542 14.055C23.4542 13.56 23.8692 13.2425 24.6617 13.1975L26.0667 13.11V13.57C26.0667 14.3325 25.4192 14.8775 24.5592 14.8775ZM28.8517 18C30.0867 18 30.6692 17.5275 31.1767 16.1L33.3992 9.85H32.1092L30.6092 14.67H30.5842L29.0842 9.85H27.7592L29.9042 15.7925L29.7867 16.1525C29.5942 16.7625 29.2867 17.0025 28.7192 17.0025C28.6192 17.0025 28.4267 17.0025 28.3467 16.98V17.96C28.5077 17.9793 28.6696 17.9894 28.8317 17.99L28.8517 18Z" fill="white"/>
</svg>
