<svg preserveAspectRatio="none" width="100%" height="100%" overflow="visible" style="display: block;" viewBox="0 0 40 25" fill="none" xmlns="http://www.w3.org/2000/svg">
<g id="&#208;&#161;&#208;&#187;&#208;&#190;&#208;&#185; 1">
<path id="Rectangle 1" fill-rule="evenodd" clip-rule="evenodd" d="M37 0H2C1 0 0 1 0 2V22C0 24 1 25 3 25H37C39 25 40 24 40 22V3C40 1 39 0 37 0Z" fill="var(--fill-0, #F6F6F6)"/>
<g id="comp 24 apple pay">
<path id="Vector" d="M11.5012 8.415C11.3436 8.61321 11.1427 8.77263 10.9139 8.88098C10.685 8.98934 10.4344 9.04374 10.1812 9.04C10.1646 8.79264 10.1976 8.54445 10.2784 8.31004C10.3591 8.07563 10.4858 7.85972 10.6512 7.675C10.9842 7.28779 11.455 7.04565 11.9637 7C11.9973 7.51361 11.8317 8.02042 11.5012 8.415V8.415ZM11.9562 9.135C11.2262 9.0925 10.6012 9.55 10.2512 9.55C9.90119 9.55 9.37119 9.1575 8.79369 9.17C8.41939 9.17971 8.05412 9.287 7.73402 9.48125C7.41393 9.67549 7.15011 9.94997 6.96869 10.2775C6.18119 11.63 6.76369 13.6275 7.52619 14.73C7.89869 15.275 8.34119 15.8725 8.92869 15.8525C9.51619 15.8325 9.70869 15.5 10.3787 15.5C11.0487 15.5 11.2512 15.86 11.8362 15.85C12.4212 15.84 12.8362 15.3075 13.1987 14.7625C13.4608 14.3775 13.6654 13.9564 13.8062 13.5125C13.4563 13.3598 13.1582 13.109 12.9479 12.7905C12.7376 12.4719 12.6241 12.0992 12.6212 11.7175C12.6245 11.3781 12.7141 11.0451 12.8816 10.7499C13.0491 10.4546 13.289 10.2069 13.5787 10.03C13.3949 9.76668 13.1524 9.54967 12.8704 9.39608C12.5884 9.2425 12.2746 9.15654 11.9537 9.145L11.9562 9.135ZM16.1587 7.63V15.78H17.4262V13H19.1762C20.7812 13 21.9037 11.8975 21.9037 10.3075C21.9037 8.7175 20.8012 7.62 19.2237 7.62L16.1587 7.63ZM17.4262 8.6975H18.8887C19.9887 8.6975 20.6187 9.2825 20.6187 10.315C20.6187 11.3475 20.0012 11.9275 18.8837 11.9275H17.4262V8.6775V8.6975ZM24.2187 15.8425C24.5951 15.8533 24.9673 15.7621 25.2961 15.5786C25.6249 15.3951 25.8979 15.126 26.0862 14.8H26.1112V15.78H27.2837V11.72C27.2837 10.5425 26.3412 9.78 24.8937 9.78C23.5487 9.78 22.5512 10.55 22.5137 11.605H23.6587C23.7537 11.105 24.2187 10.7725 24.8562 10.7725C25.6312 10.7725 26.0662 11.1325 26.0662 11.7975V12.25L24.4837 12.3475C23.0137 12.435 22.2187 13.0375 22.2187 14.0975C22.2187 15.1575 23.0412 15.8425 24.2187 15.8425ZM24.5612 14.8775C23.8887 14.8775 23.4562 14.55 23.4562 14.055C23.4562 13.56 23.8712 13.2425 24.6637 13.1975L26.0687 13.11V13.57C26.0687 14.3325 25.4212 14.8775 24.5612 14.8775V14.8775ZM28.8537 18C30.0887 18 30.6712 17.5275 31.1787 16.1L33.4012 9.85H32.1112L30.6112 14.67H30.5862L29.0862 9.85H27.7612L29.9062 15.7925L29.7887 16.1525C29.5962 16.7625 29.2887 17.0025 28.7212 17.0025C28.6212 17.0025 28.4287 17.0025 28.3487 16.98V17.96C28.5096 17.9793 28.6716 17.9894 28.8337 17.99L28.8537 18Z" fill="var(--fill-0, #333333)"/>
</g>
</g>
</svg>
