<svg width="24" height="24" viewBox="0 0 24 24" fill="none" xmlns="http://www.w3.org/2000/svg">
<path d="M4.844 11.0525C3.972 11.0525 3.291 11.7145 3.291 12.6005C3.291 13.4865 3.955 14.1425 4.844 14.1425C5.733 14.1425 6.408 13.4755 6.408 12.5955C6.408 11.7205 5.744 11.0525 4.844 11.0525ZM4.85 13.5045C4.353 13.5045 3.99 13.1185 3.99 12.6005C3.99 12.0775 4.347 11.6915 4.844 11.6915C5.346 11.6915 5.71 12.0835 5.71 12.6015C5.71 13.1185 5.346 13.5045 4.85 13.5045ZM6.599 11.7265H7.032V14.0865H7.725V11.1095H6.599V11.7265ZM1.547 11.6915C1.911 11.6915 2.2 11.9155 2.309 12.2495H3.043C2.91 11.5365 2.321 11.0525 1.553 11.0525C0.681 11.0525 0 11.7145 0 12.6005C0 13.4875 0.664 14.1435 1.553 14.1435C2.303 14.1435 2.904 13.6595 3.037 12.9405H2.309C2.26184 13.1041 2.16242 13.2478 2.02591 13.3497C1.8894 13.4515 1.72331 13.5059 1.553 13.5045C1.051 13.5045 0.698 13.1185 0.698 12.6005C0.698 12.0775 1.044 11.6915 1.547 11.6915ZM19.762 12.3135L19.254 12.2385C19.012 12.2035 18.839 12.1235 18.839 11.9335C18.839 11.7265 19.064 11.6235 19.369 11.6235C19.705 11.6235 19.919 11.7665 19.964 12.0025H20.634C20.559 11.4035 20.097 11.0525 19.387 11.0525C18.654 11.0525 18.169 11.4275 18.169 11.9565C18.169 12.4625 18.486 12.7565 19.127 12.8485L19.635 12.9235C19.884 12.9575 20.022 13.0555 20.022 13.2395C20.022 13.4755 19.78 13.5735 19.445 13.5735C19.035 13.5735 18.804 13.4065 18.769 13.1535H18.088C18.152 13.7345 18.608 14.1435 19.438 14.1435C20.195 14.1435 20.698 13.7975 20.698 13.2055C20.698 12.6755 20.334 12.3995 19.762 12.3135ZM7.378 9.88447C7.31977 9.88256 7.26176 9.89251 7.20749 9.91371C7.15323 9.93491 7.10383 9.96691 7.06231 10.0078C7.02079 10.0486 6.988 10.0975 6.96595 10.1514C6.94389 10.2054 6.93302 10.2632 6.934 10.3215C6.934 10.5755 7.124 10.7595 7.378 10.7595C7.4364 10.7615 7.4946 10.7516 7.54905 10.7304C7.60351 10.7093 7.65307 10.6772 7.69472 10.6362C7.73636 10.5952 7.76921 10.5462 7.79127 10.492C7.81333 10.4379 7.82412 10.3799 7.823 10.3215C7.82399 10.2631 7.81309 10.2052 7.79097 10.1512C7.76885 10.0972 7.73598 10.0483 7.69435 10.0074C7.65272 9.96652 7.6032 9.93454 7.54882 9.9134C7.49443 9.89227 7.43631 9.88243 7.378 9.88447ZM17.545 12.1295C17.545 11.4845 17.153 11.0535 16.321 11.0535C15.536 11.0535 15.097 11.4505 15.011 12.0605H15.698C15.733 11.8245 15.918 11.6285 16.31 11.6285C16.662 11.6285 16.835 11.7835 16.835 11.9735C16.835 12.2215 16.518 12.2845 16.125 12.3245C15.594 12.3825 14.935 12.5665 14.935 13.2575C14.935 13.7925 15.335 14.1375 15.969 14.1375C16.466 14.1375 16.778 13.9305 16.934 13.6025C16.957 13.8955 17.176 14.0855 17.482 14.0855H17.886V13.4695H17.546L17.545 12.1295ZM16.865 12.8775C16.865 13.2745 16.518 13.5675 16.096 13.5675C15.836 13.5675 15.616 13.4575 15.616 13.2275C15.616 12.9345 15.969 12.8545 16.292 12.8195C16.604 12.7915 16.777 12.7225 16.864 12.5895L16.865 12.8775ZM13.186 11.0525C12.8 11.0525 12.476 11.2145 12.246 11.4845V9.85547H11.553V14.0855H12.233V13.6945C12.465 13.9765 12.793 14.1435 13.186 14.1435C14.018 14.1435 14.647 13.4875 14.647 12.6005C14.647 11.7135 14.007 11.0525 13.187 11.0525H13.186ZM13.083 13.5045C12.586 13.5045 12.223 13.1185 12.223 12.6005C12.223 12.0835 12.592 11.6915 13.088 11.6915C13.591 11.6915 13.943 12.0775 13.943 12.6015C13.943 13.1185 13.579 13.5045 13.083 13.5045ZM9.896 11.0525C9.446 11.0525 9.151 11.2365 8.977 11.4955V11.1105H8.29V14.0855H8.983V12.4685C8.983 12.0135 9.272 11.6915 9.699 11.6915C10.097 11.6915 10.346 11.9735 10.346 12.3815V14.0855H11.038V12.3305C11.038 11.5825 10.652 11.0525 9.896 11.0525ZM24 12.5025C24 11.6515 23.376 11.0525 22.54 11.0525C21.65 11.0525 20.998 11.7205 20.998 12.6005C20.998 13.5275 21.696 14.1435 22.551 14.1435C23.273 14.1435 23.838 13.7175 23.983 13.1135H23.261C23.157 13.3775 22.903 13.5275 22.562 13.5275C22.117 13.5275 21.782 13.2515 21.708 12.7675H24V12.5025ZM21.748 12.2725C21.858 11.8585 22.17 11.6575 22.528 11.6575C22.92 11.6575 23.221 11.8815 23.29 12.2725H21.748Z" fill="white"/>
</svg>
