<svg xmlns="http://www.w3.org/2000/svg" viewBox="0 0 40 25" preserveAspectRatio="xMidYMid meet" style="display:block">
  <defs>
    <linearGradient id="cryptoBgFooter" x1="0" y1="0" x2="1" y2="1">
      <stop offset="0%" stop-color="#F7931A"/>
      <stop offset="100%" stop-color="#E2761B"/>
    </linearGradient>
  </defs>
  <path fill-rule="evenodd" clip-rule="evenodd" d="M37 0H2C1 0 0 1 0 2V22C0 24 1 25 3 25H37C39 25 40 24 40 22V3C40 1 39 0 37 0Z" fill="url(#cryptoBgFooter)"/>
  <g transform="translate(15,4) scale(0.071)">
    <circle cx="120" cy="120" r="115" fill="#FFFFFF" opacity="0.18"/>
    <path fill="#FFFFFF" d="M163.4 99.6c2.2-15-9.2-23-24.7-28.4l5-20.2-12.3-3.1-4.9 19.6c-3.2-.8-6.6-1.6-9.9-2.3l4.9-19.7-12.3-3.1-5 20.2c-2.7-.6-5.3-1.2-7.9-1.9v-.1L78.1 57l-3.3 13.2s9.1 2.1 8.9 2.2c5 1.3 5.9 4.6 5.7 7.2l-5.7 22.9c.3.1.8.2 1.3.4-.4-.1-.9-.2-1.3-.3l-8 32c-.6 1.5-2.2 3.7-5.7 2.9.1.2-8.9-2.2-8.9-2.2l-6.1 14.1 16.1 4c3 .8 5.9 1.6 8.8 2.3l-5 20.4 12.3 3.1 5-20.2c3.4.9 6.7 1.7 9.9 2.5l-4.9 20.1 12.3 3.1 5-20.4c21 4 36.7 2.4 43.3-16.6 5.3-15.3-.3-24.1-11.3-29.9 8-1.8 14-7.1 15.6-18zm-27.9 39.5c-3.8 15.3-29.6 7-37.9 4.9l6.6-26.5c8.4 2.1 35.2 6.3 31.3 21.6zm3.8-39.7c-3.5 13.9-25 6.9-31.9 5.1L113.5 80c6.9 1.7 29.4 5 25.8 19.4z"/>
  </g>
</svg>
