<svg width="40" height="25" viewBox="0 0 40 25" fill="none" xmlns="http://www.w3.org/2000/svg">
<path d="M23.7507 18.1253C23.5327 18.1254 23.3148 18.1129 23.0982 18.0878C23.049 18.082 23.0014 18.0666 22.9581 18.0425C22.9148 18.0183 22.8767 17.9859 22.8459 17.947C22.8151 17.9081 22.7923 17.8636 22.7788 17.8159C22.7653 17.7682 22.7613 17.7183 22.767 17.669C22.7727 17.6198 22.7881 17.5721 22.8123 17.5288C22.8364 17.4856 22.8689 17.4474 22.9078 17.4167C22.9467 17.3859 22.9912 17.3631 23.0389 17.3496C23.0866 17.336 23.1365 17.332 23.1857 17.3378C23.3732 17.3616 23.5618 17.3741 23.7507 17.3753C24.4158 17.376 25.0739 17.2407 25.6847 16.9777C26.2955 16.7146 26.846 16.3294 27.3024 15.8456C27.7587 15.3619 28.1113 14.7899 28.3383 14.1648C28.5654 13.5398 28.6622 12.8749 28.6227 12.211C28.5833 11.5471 28.4084 10.8984 28.1089 10.3046C27.8094 9.71086 27.3915 9.18467 26.8811 8.7584C26.3706 8.33214 25.7783 8.01482 25.1407 7.82597C24.503 7.63712 23.8335 7.58073 23.1732 7.66028C23.124 7.66602 23.0741 7.66201 23.0264 7.64847C22.9787 7.63494 22.9342 7.61214 22.8953 7.58138C22.8564 7.55062 22.8239 7.5125 22.7998 7.4692C22.7756 7.4259 22.7602 7.37827 22.7545 7.32903C22.7488 7.27978 22.7528 7.22988 22.7663 7.18219C22.7798 7.13449 22.8026 7.08993 22.8334 7.05105C22.8642 7.01216 22.9023 6.97972 22.9456 6.95556C22.9889 6.93141 23.0365 6.91602 23.0857 6.91028C23.3065 6.8847 23.5286 6.87301 23.7507 6.87528C25.2426 6.87528 26.6733 7.46791 27.7282 8.5228C28.7831 9.57769 29.3757 11.0084 29.3757 12.5003C29.3757 13.9921 28.7831 15.4229 27.7282 16.4778C26.6733 17.5326 25.2426 18.1253 23.7507 18.1253Z" fill="white"/>
<path d="M23.7494 20C22.9591 20 22.1737 19.876 21.4219 19.6325C21.375 19.6174 21.3315 19.5932 21.2939 19.5613C21.2563 19.5293 21.2253 19.4903 21.2028 19.4465C21.1573 19.3578 21.1489 19.2548 21.1794 19.16C21.2099 19.0652 21.2768 18.9863 21.3654 18.9409C21.454 18.8954 21.5571 18.887 21.6519 18.9175C22.5796 19.22 23.5619 19.3177 24.5311 19.204C25.5002 19.0902 26.4332 18.7677 27.2657 18.2587C28.0982 17.7496 28.8104 17.0661 29.3533 16.2552C29.8962 15.4444 30.2568 14.5255 30.4103 13.5618C30.5638 12.5982 30.5065 11.6127 30.2425 10.6733C29.9784 9.73391 29.5138 8.86294 28.8807 8.12042C28.2475 7.37789 27.4609 6.78146 26.5751 6.37224C25.6893 5.96301 24.7252 5.75072 23.7494 5.74998C23.0275 5.74937 22.3101 5.86415 21.6244 6.08998C21.5778 6.10639 21.5284 6.11347 21.479 6.11079C21.4297 6.10812 21.3813 6.09575 21.3368 6.07439C21.2922 6.05303 21.2523 6.02311 21.2193 5.98632C21.1863 5.94953 21.1608 5.9066 21.1444 5.85998C21.128 5.81336 21.1209 5.76396 21.1236 5.71461C21.1263 5.66526 21.1386 5.61692 21.16 5.57234C21.1814 5.52777 21.2113 5.48784 21.2481 5.45484C21.2849 5.42183 21.3278 5.39639 21.3744 5.37998C22.4046 5.03897 23.4964 4.92555 24.5747 5.04756C25.6529 5.16957 26.6919 5.52411 27.6198 6.08669C28.5477 6.64928 29.3424 7.40651 29.9492 8.30613C30.556 9.20574 30.9603 10.2263 31.1343 11.2974C31.3083 12.3685 31.2478 13.4646 30.957 14.51C30.6662 15.5554 30.152 16.5253 29.4499 17.3527C28.7478 18.1801 27.8745 18.8452 26.8903 19.3023C25.9062 19.7593 24.8345 19.9974 23.7494 20Z" fill="white"/>
<path d="M16.25 20C14.7666 20 13.3166 19.5601 12.0832 18.736C10.8499 17.9119 9.88856 16.7406 9.32091 15.3701C8.75325 13.9997 8.60472 12.4917 8.89411 11.0368C9.1835 9.58197 9.89781 8.2456 10.9467 7.1967C11.9956 6.14781 13.332 5.4335 14.7868 5.14411C16.2417 4.85472 17.7497 5.00325 19.1201 5.57091C20.4906 6.13856 21.6619 7.09986 22.486 8.33323C23.3101 9.5666 23.75 11.0166 23.75 12.5C23.75 14.4891 22.9598 16.3968 21.5533 17.8033C20.1468 19.2098 18.2391 20 16.25 20ZM16.25 5.75C14.915 5.75 13.6099 6.14588 12.4999 6.88758C11.3899 7.62928 10.5247 8.68349 10.0138 9.91689C9.50292 11.1503 9.36925 12.5075 9.6297 13.8169C9.89015 15.1262 10.533 16.329 11.477 17.273C12.421 18.217 13.6238 18.8599 14.9331 19.1203C16.2425 19.3808 17.5997 19.2471 18.8331 18.7362C20.0665 18.2253 21.1207 17.3601 21.8624 16.2501C22.6041 15.1401 23 13.835 23 12.5C23 10.7098 22.2888 8.9929 21.023 7.72703C19.7571 6.46116 18.0402 5.75 16.25 5.75Z" fill="white"/>
<path d="M20.6881 15.9494C20.6218 16.024 20.5286 16.0692 20.4289 16.0751C20.3293 16.0809 20.2314 16.047 20.1568 15.9807C20.0822 15.9144 20.037 15.8212 20.0312 15.7215C20.0253 15.6219 20.0593 15.524 20.1256 15.4494C20.8384 14.5099 21.1875 13.3444 21.1085 12.1677C21.0294 10.9911 20.5276 9.88267 19.6956 9.04693C19.1021 8.44799 18.3625 8.01455 17.5499 7.78959C16.7373 7.56463 15.88 7.55595 15.0631 7.76443C15.0146 7.77844 14.9638 7.78252 14.9137 7.77642C14.8636 7.77032 14.8152 7.75418 14.7715 7.72895C14.7278 7.70372 14.6896 7.66993 14.6593 7.6296C14.629 7.58927 14.6071 7.54322 14.595 7.49423C14.5828 7.44524 14.5807 7.39431 14.5888 7.34448C14.5968 7.29466 14.6148 7.24697 14.6417 7.20427C14.6686 7.16157 14.7039 7.12474 14.7453 7.09598C14.7868 7.06723 14.8337 7.04714 14.8831 7.03693C16.0152 6.75232 17.2079 6.82699 18.2957 7.25061C19.3835 7.67422 20.3125 8.42578 20.954 9.40108C21.5955 10.3764 21.9177 11.5271 21.8759 12.6937C21.834 13.8604 21.4303 14.9851 20.7206 15.9119L20.6881 15.9494Z" fill="white"/>
<path d="M17.787 17.8619C17.7395 17.9095 17.6798 17.9432 17.6145 17.9594C16.4883 18.2397 15.303 18.1648 14.221 17.745C13.1391 17.3252 12.2135 16.5809 11.5711 15.6144C10.9287 14.6478 10.601 13.5062 10.633 12.3461C10.6649 11.186 11.0549 10.0641 11.7495 9.13437C11.7791 9.09498 11.8161 9.06179 11.8585 9.0367C11.9009 9.01161 11.9478 8.99511 11.9965 8.98814C12.0453 8.98118 12.0949 8.98389 12.1426 8.99611C12.1903 9.00833 12.2351 9.02983 12.2745 9.05937C12.3139 9.08892 12.3471 9.12594 12.3722 9.16831C12.3973 9.21069 12.4138 9.25759 12.4208 9.30634C12.4277 9.35509 12.425 9.40474 12.4128 9.45244C12.4006 9.50015 12.3791 9.54498 12.3495 9.58438C11.6515 10.524 11.3132 11.6826 11.3957 12.8502C11.4783 14.0178 11.9763 15.1173 12.7995 15.9494C13.3934 16.5477 14.1331 16.9807 14.9455 17.2056C15.758 17.4305 16.615 17.4396 17.432 17.2319C17.5117 17.212 17.5957 17.2188 17.6711 17.2513C17.7466 17.2837 17.8093 17.3401 17.8496 17.4116C17.8899 17.4832 17.9056 17.566 17.8943 17.6473C17.883 17.7286 17.8453 17.804 17.787 17.8619Z" fill="white"/>
<path d="M16.625 15.5H14.375C14.2755 15.5 14.1802 15.4605 14.1098 15.3902C14.0395 15.3198 14 15.2245 14 15.125C14 15.0255 14.0395 14.9302 14.1098 14.8598C14.1802 14.7895 14.2755 14.75 14.375 14.75H16.625C16.9234 14.75 17.2095 14.6315 17.4205 14.4205C17.6315 14.2095 17.75 13.9234 17.75 13.625C17.75 13.3266 17.6315 13.0405 17.4205 12.8295C17.2095 12.6185 16.9234 12.5 16.625 12.5H15.125V11.75H16.625C17.1223 11.75 17.5992 11.9475 17.9508 12.2992C18.3025 12.6508 18.5 13.1277 18.5 13.625C18.5 14.1223 18.3025 14.5992 17.9508 14.9508C17.5992 15.3025 17.1223 15.5 16.625 15.5Z" fill="white"/>
<path d="M16.25 12.5H15.125V11.75H16.25C16.4489 11.75 16.6397 11.671 16.7803 11.5303C16.921 11.3897 17 11.1989 17 11C17 10.8011 16.921 10.6103 16.7803 10.4697C16.6397 10.329 16.4489 10.25 16.25 10.25H14.375C14.2755 10.25 14.1802 10.2105 14.1098 10.1402C14.0395 10.0698 14 9.97446 14 9.875C14 9.77554 14.0395 9.68016 14.1098 9.60983C14.1802 9.53951 14.2755 9.5 14.375 9.5H16.25C16.6478 9.5 17.0294 9.65804 17.3107 9.93934C17.592 10.2206 17.75 10.6022 17.75 11C17.75 11.3978 17.592 11.7794 17.3107 12.0607C17.0294 12.342 16.6478 12.5 16.25 12.5Z" fill="white"/>
<path d="M15.875 16.25C15.7755 16.25 15.6802 16.2105 15.6098 16.1402C15.5395 16.0698 15.5 15.9745 15.5 15.875V15.125H16.25V15.875C16.25 15.9745 16.2105 16.0698 16.1402 16.1402C16.0698 16.2105 15.9745 16.25 15.875 16.25Z" fill="white"/>
<path d="M15.5 9.875V9.125C15.5 9.02554 15.5395 8.93016 15.6098 8.85983C15.6802 8.78951 15.7755 8.75 15.875 8.75C15.9745 8.75 16.0698 8.78951 16.1402 8.85983C16.2105 8.93016 16.25 9.02554 16.25 9.125V9.875H15.5Z" fill="white"/>
<path d="M15.5 10.25H14.75V14.75H15.5V10.25Z" fill="white"/>
</svg>
