<svg preserveAspectRatio="none" width="100%" height="100%" overflow="visible" style="display: block;" viewBox="0 0 40 25" fill="none" xmlns="http://www.w3.org/2000/svg">
<g id="&#208;&#161;&#208;&#187;&#208;&#190;&#208;&#185; 1">
<path id="Rectangle 1" fill-rule="evenodd" clip-rule="evenodd" d="M37 0H2C1 0 0 1 0 2V22C0 24 1 25 3 25H37C39 25 40 24 40 22V3C40 1 39 0 37 0Z" fill="var(--fill-0, #F6F6F6)"/>
<g id="Group">
<path id="Vector" d="M19.2491 12.3751V15.5976H18.2266V7.63513H20.9391C21.2618 7.62958 21.5824 7.68767 21.8827 7.80606C22.183 7.92445 22.457 8.10083 22.6891 8.32513C22.9201 8.54079 23.1043 8.80166 23.2303 9.09153C23.3562 9.3814 23.4212 9.69408 23.4212 10.0101C23.4212 10.3262 23.3562 10.6389 23.2303 10.9287C23.1043 11.2186 22.9201 11.4795 22.6891 11.6951C22.4566 11.9181 22.1823 12.0927 21.8819 12.209C21.5815 12.3253 21.2611 12.3809 20.9391 12.3726H19.2491V12.3751ZM19.2491 8.62513V11.3951H20.9641C21.2358 11.3996 21.5029 11.324 21.732 11.1777C21.9611 11.0314 22.1421 10.821 22.2525 10.5726C22.3628 10.3242 22.3976 10.0488 22.3526 9.78072C22.3075 9.51267 22.1846 9.2638 21.9991 9.06513L21.9716 9.03763C21.8439 8.90097 21.6888 8.79272 21.5165 8.71992C21.3443 8.64713 21.1586 8.61142 20.9716 8.61513L19.2491 8.62513Z" fill="var(--fill-0, #5F6368)"/>
<path id="Vector_2" d="M25.7871 9.97262C26.4393 9.9366 27.0804 10.1533 27.5771 10.5776C27.8006 10.7927 27.975 11.0534 28.0885 11.3421C28.202 11.6307 28.2518 11.9404 28.2346 12.2501V15.5976H27.2496V14.8476H27.2046C27.0281 15.1366 26.7796 15.3748 26.4833 15.5387C26.187 15.7026 25.8532 15.7867 25.5146 15.7826C24.9652 15.7984 24.43 15.6074 24.0146 15.2476C23.8206 15.0841 23.6655 14.8795 23.5604 14.6486C23.4554 14.4177 23.403 14.1663 23.4071 13.9126C23.3988 13.6536 23.4526 13.3964 23.5639 13.1625C23.6752 12.9285 23.8409 12.7245 24.0471 12.5676C24.5436 12.2132 25.1453 12.037 25.7546 12.0676C26.2751 12.0478 26.7919 12.1632 27.2546 12.4026V12.1676C27.2577 11.9928 27.2213 11.8194 27.1482 11.6606C27.075 11.5017 26.967 11.3614 26.8321 11.2501C26.5589 11.0022 26.2009 10.8689 25.8321 10.8776C25.5663 10.8763 25.3046 10.9427 25.0715 11.0704C24.8384 11.1981 24.6416 11.383 24.4996 11.6076L23.5996 11.0401C24.0862 10.3285 24.8154 9.97262 25.7871 9.97262ZM24.4646 13.9301C24.4637 14.0602 24.4938 14.1886 24.5525 14.3047C24.6112 14.4208 24.6968 14.5212 24.8021 14.5976C25.0284 14.7757 25.3092 14.8702 25.5971 14.8651C26.0294 14.8651 26.4439 14.6933 26.7496 14.3876C26.9074 14.2464 27.0336 14.0734 27.1198 13.8799C27.206 13.6864 27.2502 13.4769 27.2496 13.2651C26.8612 12.9892 26.3902 12.8542 25.9146 12.8826C25.5455 12.8688 25.1818 12.974 24.8771 13.1826C24.7499 13.2625 24.6448 13.373 24.5715 13.5041C24.4981 13.6351 24.4587 13.7824 24.4571 13.9326L24.4646 13.9301Z" fill="var(--fill-0, #5F6368)"/>
<path id="Vector_3" d="M33.8509 10.1509L30.4359 18.0009H29.3809L30.6484 15.2509L28.3984 10.1484H29.5109L31.1334 14.0634H31.1559L32.7509 10.1509H33.8509Z" fill="var(--fill-0, #5F6368)"/>
<path id="Vector_4" d="M15.1152 11.68C15.1149 11.3683 15.0881 11.0572 15.0352 10.75H10.7227V12.5H13.1927C13.1423 12.7816 13.0353 13.0501 12.878 13.289C12.7207 13.528 12.5164 13.7324 12.2777 13.89V15.035H13.7477C14.197 14.6021 14.5508 14.08 14.7863 13.5022C15.0218 12.9244 15.1339 12.3037 15.1152 11.68V11.68Z" fill="var(--fill-0, #4285F4)"/>
<path id="Vector_5" d="M10.7242 16.1512C11.8364 16.1811 12.9182 15.786 13.7492 15.0462L12.2742 13.9037C11.919 14.1303 11.5168 14.2731 11.0982 14.3213C10.6796 14.3695 10.2555 14.3218 9.85805 14.1818C9.46059 14.0419 9.10019 13.8133 8.80413 13.5135C8.50807 13.2136 8.28412 12.8504 8.14922 12.4512H6.63672V13.6312C7.01736 14.3889 7.60122 15.0259 8.32305 15.4709C9.04488 15.9159 9.87624 16.1515 10.7242 16.1512Z" fill="var(--fill-0, #34A853)"/>
<path id="Vector_6" d="M8.15345 12.4495C7.96289 11.8818 7.96289 11.2673 8.15345 10.6995V9.51953H6.63594C6.31539 10.1571 6.14844 10.8609 6.14844 11.5745C6.14844 12.2882 6.31539 12.9919 6.63594 13.6295L8.15345 12.4495Z" fill="var(--fill-0, #FBBC04)"/>
<path id="Vector_7" d="M10.7242 8.81023C11.3751 8.80136 12.0034 9.04821 12.4742 9.49773V9.49773L13.7817 8.19273C12.9545 7.4158 11.859 6.98855 10.7242 7.00023C9.87624 6.99995 9.04488 7.23547 8.32305 7.68049C7.60122 8.12551 7.01736 8.76248 6.63672 9.52023L8.15422 10.7002C8.33296 10.1571 8.67654 9.68323 9.13716 9.34449C9.59777 9.00575 10.1525 8.819 10.7242 8.81023Z" fill="var(--fill-0, #FA4609)"/>
</g>
</g>
</svg>
