<svg width="24" height="24" viewBox="0 0 24 24" fill="none" xmlns="http://www.w3.org/2000/svg">
<g clip-path="url(#clip0_2300_24784)">
<path d="M3.96286 7.23467C3.22813 7.23437 2.5078 7.43849 1.88245 7.82419C1.25709 8.2099 0.751376 8.76197 0.42186 9.41867C0.144152 9.97075 -0.000488281 10.5802 -0.000488281 11.1982C-0.000488281 11.8162 0.144152 12.4256 0.42186 12.9777C0.751376 13.6344 1.25709 14.1864 1.88245 14.5721C2.5078 14.9578 3.22813 15.162 3.96286 15.1617C5.03286 15.1617 5.93286 14.8097 6.58986 14.2047C7.33786 13.5147 7.76986 12.4947 7.76986 11.2887C7.76834 11.0186 7.74493 10.749 7.69986 10.4827H3.96386V12.0087H6.10386C6.06002 12.2523 5.96746 12.4847 5.83172 12.6917C5.69597 12.8988 5.51984 13.0763 5.31386 13.2137C4.95786 13.4547 4.49986 13.5927 3.96386 13.5927C2.92986 13.5927 2.05286 12.8957 1.73886 11.9567C1.57339 11.4645 1.57339 10.9318 1.73886 10.4397C2.05286 9.49967 2.92986 8.80367 3.96386 8.80367C4.5289 8.79421 5.07495 9.0076 5.48386 9.39767L6.61586 8.26767C5.89905 7.59279 4.9473 7.22246 3.96286 7.23467ZM10.4639 7.78467V14.6847H11.3499V11.8897H12.8149C13.4175 11.8897 13.9249 11.6937 14.3369 11.3017C14.542 11.1179 14.705 10.8919 14.8146 10.6392C14.9242 10.3865 14.9778 10.113 14.9719 9.83767C14.976 9.56372 14.9215 9.29205 14.812 9.04092C14.7025 8.78979 14.5405 8.565 14.3369 8.38167C14.1351 8.18664 13.8967 8.03341 13.6355 7.93079C13.3743 7.82816 13.0954 7.77817 12.8149 7.78367L10.4639 7.78467ZM12.8909 8.63467C13.0454 8.63759 13.1979 8.67139 13.3392 8.73407C13.4805 8.79675 13.6079 8.88705 13.7139 8.99967C13.8265 9.10926 13.9161 9.24032 13.9772 9.38512C14.0384 9.52991 14.0699 9.68549 14.0699 9.84267C14.0699 9.99985 14.0384 10.1554 13.9772 10.3002C13.9161 10.445 13.8265 10.5761 13.7139 10.6857C13.6006 10.803 13.4641 10.8954 13.3131 10.9569C13.1621 11.0183 12.9998 11.0476 12.8369 11.0427H11.3499V8.63467H12.8909ZM17.0149 9.80967C16.1735 9.80967 15.5379 10.118 15.1079 10.7347L15.8889 11.2257C16.1769 10.8083 16.5685 10.5997 17.0639 10.5997C17.3798 10.5953 17.6856 10.7107 17.9199 10.9227C18.0358 11.0177 18.1289 11.1376 18.1923 11.2735C18.2556 11.4094 18.2876 11.5578 18.2859 11.7077V11.9097C17.9459 11.7163 17.5125 11.62 16.9859 11.6207C16.3685 11.6207 15.8755 11.7653 15.5069 12.0547C15.1369 12.3427 14.9522 12.731 14.9529 13.2197C14.9491 13.4392 14.9943 13.6569 15.0851 13.8568C15.1759 14.0568 15.3101 14.234 15.4779 14.3757C15.8279 14.6843 16.2629 14.8387 16.7829 14.8387C17.3929 14.8387 17.8812 14.5687 18.2479 14.0287H18.2859V14.6837H19.1339V11.7747C19.1339 11.1647 18.9445 10.6847 18.5659 10.3347C18.1859 9.98467 17.6689 9.80967 17.0149 9.80967ZM19.2779 9.96367L21.2239 14.3857L20.1259 16.7657H21.0409L23.9999 9.96267H23.0349L21.6669 13.3537H21.6469L20.2409 9.96367H19.2779ZM17.1319 12.3317C17.6259 12.3317 18.0112 12.4417 18.2879 12.6617C18.2879 13.0337 18.1412 13.358 17.8479 13.6347C17.7173 13.7662 17.562 13.8706 17.3909 13.9416C17.2197 14.0127 17.0362 14.0491 16.8509 14.0487C16.6009 14.0535 16.3571 13.9715 16.1609 13.8167C16.0697 13.7505 15.9955 13.6636 15.9446 13.563C15.8936 13.4625 15.8673 13.3513 15.8679 13.2387C15.8679 12.9833 15.9889 12.7677 16.2309 12.5917C16.4709 12.4183 16.7719 12.3317 17.1319 12.3317Z" fill="white"/>
</g>
<defs>
<clipPath id="clip0_2300_24784">
<rect width="24" height="24" fill="white"/>
</clipPath>
</defs>
</svg>
