<svg preserveAspectRatio="none" width="100%" height="100%" overflow="visible" style="display: block;" viewBox="0 0 40 25" fill="none" xmlns="http://www.w3.org/2000/svg">
<g id="&#208;&#161;&#208;&#187;&#208;&#190;&#208;&#185; 1">
<path id="Rectangle 1" fill-rule="evenodd" clip-rule="evenodd" d="M37 0H2C1 0 0 1 0 2V22C0 24 1 25 3 25H37C39 25 40 24 40 22V3C40 1 39 0 37 0Z" fill="var(--fill-0, #FFB3C7)"/>
<path id="Vector" d="M35.325 14.2498C35.0788 14.2512 34.8431 14.3501 34.6697 14.5249C34.4963 14.6997 34.3993 14.9361 34.4 15.1823V15.1823C34.3993 15.3041 34.4227 15.4249 34.4687 15.5377C34.5147 15.6504 34.5825 15.7531 34.6681 15.8397C34.7538 15.9262 34.8557 15.9951 34.9679 16.0423C35.0802 16.0895 35.2007 16.1142 35.3225 16.1148V16.1148C35.5618 16.1025 35.7872 15.9987 35.9522 15.8249C36.1172 15.6512 36.2092 15.4207 36.2092 15.1811C36.2092 14.9415 36.1172 14.711 35.9522 14.5373C35.7872 14.3635 35.5618 14.2597 35.3225 14.2473L35.325 14.2498ZM32.28 13.5298C32.292 13.263 32.2238 12.9986 32.0842 12.7709C31.9446 12.5431 31.74 12.3624 31.4967 12.252C31.2535 12.1415 30.9827 12.1065 30.7194 12.1513C30.456 12.1961 30.2121 12.3188 30.0191 12.5035C29.8261 12.6882 29.6929 12.9265 29.6365 13.1876C29.5801 13.4487 29.6032 13.7207 29.7028 13.9686C29.8024 14.2165 29.974 14.4288 30.1954 14.5783C30.4168 14.7278 30.6779 14.8076 30.945 14.8073C31.2914 14.8147 31.6265 14.6843 31.8768 14.4448C32.1271 14.2053 32.2721 13.8762 32.28 13.5298ZM32.28 11.0448H33.75V16.0223H32.275V15.7048C31.8459 16.0013 31.3366 16.16 30.815 16.1598C30.1188 16.1598 29.4511 15.8833 28.9588 15.391C28.4666 14.8987 28.19 14.231 28.19 13.5348C28.19 12.8386 28.4666 12.171 28.9588 11.6787C29.4511 11.1864 30.1188 10.9098 30.815 10.9098C31.3367 10.9087 31.8463 11.0675 32.275 11.3648L32.28 11.0448ZM20.5 11.7023V11.0548H19V16.0223H20.5V13.7023C20.5 12.9198 21.3325 12.4998 21.915 12.4998H21.9325V11.0548C21.6606 11.0496 21.391 11.1049 21.1432 11.2169C20.8954 11.3289 20.6757 11.4948 20.5 11.7023V11.7023ZM16.75 13.5398C16.762 13.273 16.6938 13.0086 16.5542 12.7809C16.4146 12.5531 16.21 12.3724 15.9667 12.262C15.7235 12.1515 15.4527 12.1165 15.1894 12.1613C14.926 12.2061 14.6821 12.3288 14.4891 12.5135C14.2961 12.6982 14.1628 12.9365 14.1065 13.1976C14.0501 13.4587 14.0732 13.7307 14.1728 13.9786C14.2724 14.2265 14.444 14.4388 14.6654 14.5883C14.8868 14.7378 15.1479 14.8176 15.415 14.8173C15.7614 14.8247 16.0965 14.6943 16.3468 14.4548C16.5971 14.2153 16.7421 13.8862 16.75 13.5398V13.5398ZM16.75 11.0548H18.225V16.0223H16.75V15.7048C16.3201 16.0018 15.8099 16.1605 15.2875 16.1598C14.5913 16.1598 13.9236 15.8833 13.4313 15.391C12.9391 14.8987 12.6625 14.231 12.6625 13.5348C12.6625 12.8386 12.9391 12.171 13.4313 11.6787C13.9236 11.1864 14.5913 10.9098 15.2875 10.9098C15.8099 10.9092 16.3201 11.0679 16.75 11.3648V11.0548ZM25.6225 10.9223C25.3319 10.9051 25.0414 10.9591 24.7765 11.0798C24.5116 11.2005 24.2802 11.3842 24.1025 11.6148V11.0548H22.62V16.0223H24.12V13.4123C24.1079 13.2632 24.128 13.1133 24.1789 12.9726C24.2299 12.832 24.3105 12.704 24.4153 12.5972C24.5202 12.4905 24.6467 12.4076 24.7864 12.3541C24.9261 12.3007 25.0757 12.2779 25.225 12.2873C25.8725 12.2873 26.245 12.6773 26.245 13.4023V16.0223H27.7175V12.8648C27.7175 11.7073 26.8075 10.9223 25.62 10.9223H25.6225ZM10.5275 16.0223H12.0725V8.84234H10.5275V16.0223ZM3.75 16.0248H5.385V8.83984H3.75V16.0248ZM9.465 8.83984C9.46839 9.59592 9.32263 10.3452 9.03607 11.0449C8.74951 11.7446 8.32777 12.3809 7.795 12.9173L10.045 16.0248H8.035L5.5825 12.6498L6.215 12.1698C6.73036 11.7816 7.14792 11.2784 7.43438 10.7003C7.72085 10.1221 7.86831 9.48506 7.865 8.83984H9.465Z" fill="var(--fill-0, #0A0B09)"/>
</g>
</svg>
