<svg preserveAspectRatio="none" width="100%" height="100%" overflow="visible" style="display: block;" viewBox="0 0 40 25" fill="none" xmlns="http://www.w3.org/2000/svg">
<g id="Master">
<path id="Rectangle 1" fill-rule="evenodd" clip-rule="evenodd" d="M37 2.52867e-07C35 4.41611e-07 13.8252 -4.00796e-07 2 2.52867e-07C1 3.08144e-07 0 1 0 2V22C-1.1575e-07 24 1 25 3 25C14.1558 25 35 25 37 25C39 25 40 24 40 22V3C40 1 39 2.52867e-07 37 2.52867e-07Z" fill="var(--fill-0, #265697)"/>
<path id="path2268" fill-rule="evenodd" clip-rule="evenodd" d="M37.3835 12.625C37.3851 18.4344 32.727 23.1448 26.9795 23.1464C21.2319 23.1478 16.5718 18.4398 16.5703 12.6303V12.625C16.5688 6.81567 21.2268 2.10506 26.9741 2.10352C32.7218 2.10197 37.3819 6.81021 37.3835 12.6197V12.625C37.3835 12.6231 37.3835 12.625 37.3835 12.625Z" fill="var(--fill-0, #DFAC16)"/>
<path id="path1350" fill-rule="evenodd" clip-rule="evenodd" d="M12.9528 2.10552C7.23939 2.1422 2.61328 6.84059 2.61328 12.6243C2.61328 18.4305 7.27545 23.1429 13.0199 23.1429C15.716 23.1429 18.1735 22.1044 20.0227 20.4022C20.0226 20.4022 20.0224 20.402 20.0219 20.4018H20.0241C20.4028 20.053 20.756 19.6767 21.0806 19.2754H18.9485C18.6638 18.9278 18.4051 18.5656 18.1727 18.1919H21.8498C22.0734 17.8302 22.2759 17.4545 22.4556 17.0655H17.5656C17.3989 16.7044 17.2542 16.3351 17.1307 15.9604H22.891C23.2382 14.9119 23.4265 13.7902 23.4265 12.6242C23.4265 11.8511 23.3436 11.0974 23.1867 10.3717H16.8252C16.904 9.99817 17.0035 9.62921 17.1221 9.26665H22.8845C22.7557 8.88083 22.606 8.50486 22.4359 8.1404H17.565C17.7407 7.76099 17.9398 7.3919 18.1621 7.03552H21.8365C21.592 6.64174 21.3214 6.26553 21.0288 5.90915H18.9801C19.2969 5.53235 19.6456 5.17751 20.0241 4.84665C18.1748 3.14428 15.7166 2.10552 13.0199 2.10552C12.9975 2.10552 12.9753 2.1054 12.9528 2.10552C12.9753 2.1054 12.9528 2.10552 12.9528 2.10552Z" fill="var(--fill-0, #BF3126)"/>
<path id="path4157" fill-rule="evenodd" clip-rule="evenodd" d="M16.7643 15.303L16.903 14.3511C16.8272 14.3511 16.7157 14.3838 16.6174 14.3838C16.2317 14.3838 16.1892 14.1766 16.2138 14.0233L16.5254 12.0809H17.1116L17.2531 11.0279H16.7004L16.8129 10.373H15.7049C15.6804 10.3977 15.0508 14.0559 15.0508 14.5014C15.0508 15.1608 15.4171 15.4545 15.9336 15.4498C16.3381 15.4463 16.6531 15.3332 16.7643 15.303C16.6531 15.3332 16.7643 15.303 16.7643 15.303Z" fill="var(--fill-0, white)"/>
<path id="path4155" fill-rule="evenodd" clip-rule="evenodd" d="M17.1133 13.4872C17.1133 15.07 18.1468 15.446 19.0274 15.446C19.8401 15.446 20.1977 15.2624 20.1977 15.2624L20.3929 14.1822C20.3929 14.1822 19.7747 14.4575 19.2163 14.4575C18.0266 14.4575 18.2349 13.5608 18.2349 13.5608H20.4867C20.4867 13.5608 20.6321 12.8351 20.6321 12.5394C20.6321 11.8015 20.2687 10.9023 19.0521 10.9023C17.938 10.9026 17.1133 12.116 17.1133 13.4872C17.1133 12.116 17.1133 13.4872 17.1133 13.4872ZM19.0564 11.9054C19.6817 11.9054 19.5663 12.6156 19.5663 12.6731H18.3362C18.3362 12.5997 18.4524 11.9054 19.0564 11.9054C18.4524 11.9054 19.0564 11.9054 19.0564 11.9054Z" fill="var(--fill-0, white)"/>
<path id="path4151" fill-rule="evenodd" clip-rule="evenodd" d="M26.0729 15.3023L26.2711 14.0813C26.2711 14.0813 25.7274 14.3568 25.3543 14.3568C24.5683 14.3568 24.2531 13.7502 24.2531 13.0984C24.2531 11.7763 24.9294 11.0489 25.6822 11.0489C26.2468 11.0489 26.6999 11.3693 26.6999 11.3693L26.8808 10.183C26.8808 10.183 26.2089 9.9082 25.6329 9.9082C24.3538 9.9082 23.1094 11.0298 23.1094 13.1363C23.1094 14.5331 23.7813 15.4556 25.1036 15.4556C25.4774 15.4558 26.0729 15.3023 26.0729 15.3023Z" fill="var(--fill-0, white)"/>
<path id="path4149" fill-rule="evenodd" clip-rule="evenodd" d="M10.6686 10.9199C9.90884 10.9199 9.32641 11.1667 9.32641 11.1667L9.16562 12.1315C9.16562 12.1315 9.64634 11.9341 10.373 11.9341C10.7856 11.9341 11.0874 11.981 11.0874 12.3199C11.0874 12.5258 11.0504 12.6018 11.0504 12.6018C11.0504 12.6018 10.725 12.5742 10.5743 12.5742C9.61604 12.5742 8.60938 12.9876 8.60938 14.2339C8.60938 15.2159 9.26979 15.4412 9.67911 15.4412C10.4609 15.4412 10.7978 14.9285 10.8158 14.9269L10.7793 15.3549H11.7549L12.1902 12.2705C12.1902 10.9621 11.0609 10.9199 10.6686 10.9199ZM10.906 13.4312C10.9271 13.6196 10.7891 14.5027 10.122 14.5027C9.77788 14.5027 9.68839 14.2371 9.68839 14.0799C9.68839 13.7734 9.85317 13.4053 10.6651 13.4053C10.854 13.4056 10.8742 13.426 10.906 13.4312C10.8742 13.426 10.906 13.4312 10.906 13.4312Z" fill="var(--fill-0, white)"/>
<path id="path4145" fill-rule="evenodd" clip-rule="evenodd" d="M13.2277 15.4196C13.4773 15.4196 14.9041 15.4837 14.9041 13.9956C14.9041 12.6043 13.5833 12.8792 13.5833 12.3203C13.5833 12.042 13.7986 11.9544 14.1921 11.9544C14.3483 11.9544 14.9493 12.0046 14.9493 12.0046L15.089 11.0157C15.089 11.0158 14.7 10.9277 14.0668 10.9277C13.2471 10.9277 12.4151 11.2585 12.4151 12.3901C12.4151 13.6723 13.8024 13.5436 13.8024 14.0838C13.8024 14.4443 13.4148 14.4736 13.1161 14.4736C12.5992 14.4736 12.1338 14.2944 12.1321 14.3029L11.9844 15.2818C12.0112 15.2902 12.2982 15.4196 13.2277 15.4196C12.2982 15.4196 13.2277 15.4196 13.2277 15.4196Z" fill="var(--fill-0, white)"/>
<path id="path4139" fill-rule="evenodd" clip-rule="evenodd" d="M35.2486 10.033L35.0095 11.532C35.0095 11.532 34.5925 10.9497 33.9396 10.9497C32.9243 10.9497 32.0781 12.187 32.0781 13.6086C32.0781 14.5263 32.5295 15.4254 33.4522 15.4254C34.1159 15.4254 34.4838 14.9577 34.4838 14.9577L34.4351 15.3572H35.5128L36.3593 10.0312L35.2486 10.033ZM34.734 12.9558C34.734 13.5474 34.4443 14.3375 33.8435 14.3375C33.4448 14.3375 33.2579 13.9992 33.2579 13.4682C33.2579 12.5999 33.6437 12.027 34.1306 12.027C34.5294 12.0269 34.734 12.3038 34.734 12.9558C34.734 12.3038 34.734 12.9558 34.734 12.9558Z" fill="var(--fill-0, white)"/>
<path id="path4133" fill-rule="evenodd" clip-rule="evenodd" d="M4.66988 15.3623L5.3444 11.3415L5.44341 15.3623H6.20683L7.63091 11.3415L7.00009 15.3623H8.13441L9.00801 10.0293H7.25389L6.1615 13.3014L6.10465 10.0293H4.48772L3.60156 15.3623H4.66988Z" fill="var(--fill-0, white)"/>
<path id="path4131" fill-rule="evenodd" clip-rule="evenodd" d="M21.7394 15.3696C22.0619 13.5158 22.1217 12.0105 22.8914 12.286C23.0261 11.5685 23.1561 11.2909 23.3031 10.9873C23.3031 10.9873 23.2342 10.9727 23.0895 10.9727C22.5933 10.9727 22.2257 11.6579 22.2257 11.6579L22.3244 11.0286H21.2928L20.6016 15.3696H21.7394Z" fill="var(--fill-0, white)"/>
<path id="path4149 1" fill-rule="evenodd" clip-rule="evenodd" d="M28.6294 10.9199C27.8697 10.9199 27.2872 11.1667 27.2872 11.1667L27.1266 12.1315C27.1266 12.1315 27.6073 11.9341 28.3339 11.9341C28.7465 11.9341 29.0481 11.981 29.0481 12.3199C29.0481 12.5258 29.0114 12.6018 29.0114 12.6018C29.0114 12.6018 28.6859 12.5742 28.5351 12.5742C27.577 12.5742 26.5703 12.9876 26.5703 14.2339C26.5703 15.2159 27.2306 15.4412 27.6399 15.4412C28.4217 15.4412 28.7586 14.9285 28.7765 14.9269L28.7402 15.3549H29.7159L30.151 12.2705C30.1511 10.9621 29.0217 10.9199 28.6294 10.9199ZM28.8672 13.4312C28.8883 13.6196 28.7502 14.5027 28.0828 14.5027C27.7387 14.5027 27.6494 14.2371 27.6494 14.0799C27.6494 13.7734 27.8142 13.4053 28.626 13.4053C28.8149 13.4056 28.835 13.426 28.8672 13.4312C28.835 13.426 28.8672 13.4312 28.8672 13.4312Z" fill="var(--fill-0, white)"/>
<path id="path4131 1" fill-rule="evenodd" clip-rule="evenodd" d="M31.044 15.3696C31.3666 13.5158 31.4264 12.0105 32.1958 12.286C32.3308 11.5685 32.4609 11.2909 32.6078 10.9873C32.6078 10.9873 32.5389 10.9727 32.3942 10.9727C31.898 10.9727 31.5303 11.6579 31.5303 11.6579L31.6291 11.0286H30.5974L29.9062 15.3696H31.044Z" fill="var(--fill-0, white)"/>
</g>
</svg>
