<svg width="24" height="24" viewBox="0 0 24 24" fill="none" xmlns="http://www.w3.org/2000/svg">
<path d="M12.0011 6.65306C12.8105 7.28881 13.4649 8.10026 13.9146 9.02606C14.3643 9.95187 14.5977 10.9678 14.5971 11.9971C14.5973 13.0261 14.3636 14.0417 13.9137 14.9671C13.4638 15.8925 12.8094 16.7036 12.0001 17.3391C11.1908 16.7034 10.5365 15.8921 10.0868 14.9665C9.63706 14.0409 9.40361 13.0252 9.40408 11.9961C9.40346 10.9668 9.63684 9.95087 10.0866 9.02506C10.5363 8.09926 11.1906 7.28781 12.0001 6.65206M11.1301 6.07006C10.2731 6.8018 9.58533 7.71097 9.11431 8.73468C8.64329 9.75838 8.40028 10.8722 8.40208 11.9991C8.40071 13.1254 8.64394 14.2387 9.11494 15.2618C9.58595 16.285 10.2735 17.1937 11.1301 17.9251C10.0955 18.5059 8.92686 18.8058 7.74042 18.7949C6.55398 18.7841 5.39103 18.463 4.36718 17.8634C3.34333 17.2638 2.49423 16.4067 1.90428 15.3773C1.31434 14.3479 1.00409 13.182 1.00439 11.9955C1.0047 10.809 1.31553 9.64326 1.90599 8.61414C2.49646 7.58501 3.34599 6.72834 4.37015 6.1293C5.39431 5.53025 6.55741 5.20969 7.74386 5.19947C8.9303 5.18925 10.0988 5.48974 11.1331 6.07106M12.8751 17.9251C13.7315 17.1936 14.4188 16.2848 14.8897 15.2617C15.3605 14.2385 15.6036 13.1253 15.6021 11.9991C15.6035 10.8722 15.3601 9.75849 14.8887 8.73496C14.4174 7.71143 13.7293 6.8025 12.8721 6.07106C13.9064 5.48974 15.0749 5.18925 16.2613 5.19947C17.4477 5.20969 18.6109 5.53025 19.635 6.1293C20.6592 6.72834 21.5087 7.58501 22.0992 8.61414C22.6896 9.64326 23.0005 10.809 23.0008 11.9955C23.0011 13.182 22.6908 14.3479 22.1009 15.3773C21.5109 16.4067 20.6618 17.2638 19.638 17.8634C18.6141 18.463 17.4512 18.7841 16.2647 18.7949C15.0783 18.8058 13.9097 18.5059 12.8751 17.9251Z" fill="white"/>
</svg>
