<svg width="42" height="16" viewBox="0 0 42 16" fill="none" xmlns="http://www.w3.org/2000/svg">
<path d="M6.61994 8.66C6.68661 8.66 8.23327 8.72667 9.15327 8.5H9.15994C10.2199 8.24 11.6933 7.49333 12.0733 5.05333C12.0733 5.05333 12.9199 2 8.71994 2H5.11327C4.78661 2 4.50661 2.24 4.45327 2.56L2.91994 12.2667C2.88661 12.4667 3.04661 12.6533 3.24661 12.6533H5.53327L6.09327 9.10667C6.13327 8.85333 6.35327 8.66 6.61994 8.66Z" fill="white"/>
<path d="M12.6602 5.52734C12.1202 8.01401 10.4202 9.32734 7.71353 9.32734H6.73353L6.04686 13.674C6.0202 13.8473 6.15353 14.0007 6.32686 14.0007H7.59353C7.8202 14.0007 8.0202 13.834 8.05353 13.6073C8.10686 13.3407 8.4002 11.394 8.4602 11.0607C8.49353 10.834 8.69353 10.6673 8.9202 10.6673H9.21353C11.0935 10.6673 12.5669 9.90068 13.0002 7.69401C13.1735 6.80068 13.0802 6.06734 12.6602 5.52734Z" fill="white"/>
<path fill-rule="evenodd" clip-rule="evenodd" d="M40.6612 5.35547H39.9787C39.9783 5.35547 39.9779 5.35559 39.9776 5.35559L39.9773 5.35547C39.821 5.35547 39.6625 5.4702 39.6182 5.61617C39.6164 5.62207 39.6133 5.62773 39.6119 5.63388C39.6119 5.63388 39.5956 5.70508 39.5674 5.82818L38.6298 9.90226C38.6082 9.99437 38.5937 10.0544 38.5893 10.07L38.5911 10.0722C38.5587 10.2146 38.6479 10.3324 38.7946 10.3456L38.7965 10.3483H39.5049C39.6602 10.3483 39.8177 10.2347 39.8634 10.0905C39.8655 10.0835 39.869 10.077 39.8707 10.07L40.8934 5.63363L40.8919 5.63314C40.9266 5.48139 40.8247 5.35547 40.6612 5.35547ZM37.1602 9.35955C37.0655 9.41673 36.9655 9.46567 36.8607 9.50736C36.7198 9.56184 36.5863 9.59037 36.4628 9.59037C36.2732 9.59037 36.1275 9.56467 36.0289 9.5097C35.9303 9.45756 35.8786 9.36693 35.8803 9.23719C35.8803 9.08741 35.9163 8.9712 35.991 8.88008C36.0661 8.7924 36.1779 8.72181 36.3164 8.66918C36.4542 8.62442 36.6236 8.58753 36.8192 8.56109C36.9932 8.54006 37.3371 8.50206 37.3811 8.50181C37.4251 8.50144 37.4543 8.4782 37.4347 8.5906C37.426 8.63942 37.3267 9.03023 37.2812 9.20792C37.268 9.26117 37.1941 9.33877 37.1602 9.35955C37.1941 9.33877 37.1602 9.35955 37.1602 9.35955ZM38.5099 6.61283C38.2203 6.45788 37.7672 6.37955 37.1473 6.37955C36.8407 6.37955 36.5326 6.40316 36.2234 6.44915C35.9965 6.48248 35.9731 6.48801 35.8322 6.5174C35.5421 6.5779 35.4974 6.85631 35.4974 6.85631L35.4042 7.22351C35.3514 7.45839 35.4909 7.44867 35.5532 7.43047C35.6798 7.39383 35.7484 7.35743 36.0067 7.30135C36.2537 7.24761 36.5146 7.2074 36.7228 7.209C37.0281 7.209 37.2603 7.2411 37.4146 7.30283C37.569 7.36739 37.6455 7.47733 37.6455 7.63461C37.646 7.67199 37.647 7.70729 37.6329 7.73815C37.6202 7.76693 37.5958 7.79472 37.5228 7.80419C37.0871 7.82903 36.7744 7.86715 36.3977 7.91978C36.0261 7.96996 35.7009 8.05591 35.4291 8.17495C35.1393 8.29817 34.9225 8.46308 34.7731 8.67201C34.6276 8.88192 34.5545 9.13611 34.5541 9.43555C34.5541 9.71851 34.6602 9.94933 34.8655 10.1285C35.0731 10.3053 35.3433 10.3929 35.6701 10.3929C35.8744 10.3915 36.0342 10.3774 36.1487 10.35C36.2621 10.3225 36.3858 10.2836 36.5164 10.2293C36.614 10.1902 36.7193 10.1337 36.8305 10.0627C36.9419 9.99151 37.019 9.94096 37.1179 9.87886L37.1215 9.88477L37.0936 10.0025C37.0935 10.0036 37.0918 10.0042 37.0918 10.0053L37.0927 10.0075C37.0609 10.1493 37.1498 10.2672 37.2963 10.2811L37.2981 10.2836H37.3111L37.3116 10.2842C37.4088 10.2842 37.7426 10.2841 37.8986 10.2836H38.0075C38.0147 10.2836 38.0154 10.2815 38.0183 10.2799C38.1678 10.2623 38.3112 10.1455 38.345 10.0053L38.9021 7.70015C38.9149 7.64592 38.925 7.58333 38.9311 7.51127C38.938 7.43847 38.9462 7.37858 38.9438 7.33529C38.9451 7.00905 38.7988 6.7679 38.5099 6.61283ZM35.1552 6.08777C35.0602 5.91045 34.9166 5.76767 34.7351 5.65651C34.549 5.54558 34.3278 5.46823 34.0718 5.4231C33.8186 5.38056 33.5175 5.35621 33.1745 5.35547L31.5785 5.35621C31.4141 5.35891 31.2529 5.48262 31.2149 5.63499L30.1419 10.1114C30.1028 10.2636 30.2095 10.3903 30.3709 10.3895L31.1367 10.3881C31.2991 10.3895 31.4646 10.2636 31.5029 10.1114L31.7618 9.0251C31.7981 8.87286 31.9632 8.74534 32.1283 8.74755H32.3459C33.2801 8.74755 34.0043 8.56358 34.5229 8.19737C35.0403 7.82931 35.3007 7.34652 35.3007 6.74604C35.299 6.48387 35.2524 6.26301 35.1552 6.08777ZM33.5086 7.55189C33.2801 7.71126 32.9592 7.79119 32.5464 7.79119H32.3566C32.1924 7.79304 32.0863 7.66576 32.1253 7.51315L32.3542 6.56306C32.3883 6.41279 32.5549 6.2849 32.7168 6.28613L32.9676 6.2849C33.2603 6.28613 33.4793 6.3331 33.6305 6.42644C33.7792 6.52088 33.8513 6.66734 33.8524 6.8625C33.8531 7.15997 33.7383 7.38882 33.5086 7.55189Z" fill="white"/>
<path fill-rule="evenodd" clip-rule="evenodd" d="M29.7866 6.37957C29.6412 6.37957 29.4506 6.493 29.3604 6.63007C29.3604 6.63007 28.3883 8.2374 28.2928 8.39802C28.2409 8.48438 28.1883 8.42948 28.1795 8.39736C28.1725 8.3583 27.8783 6.64064 27.8783 6.64064C27.8452 6.50235 27.6954 6.38364 27.5081 6.38419L26.9019 6.38507C26.7558 6.38507 26.6647 6.49795 26.6972 6.63436C26.6972 6.63436 27.1605 9.16735 27.2509 9.76309C27.2959 10.0926 27.2462 10.151 27.2462 10.151L26.6455 11.1612C26.5576 11.2981 26.6057 11.4103 26.7511 11.4103L27.4536 11.4098C27.599 11.4098 27.7917 11.2981 27.8783 11.1609L30.5806 6.75296C30.5806 6.75296 30.8391 6.37638 30.6007 6.37957C30.4381 6.38177 29.7866 6.37957 29.7866 6.37957ZM24.7131 9.35955C24.6184 9.41673 24.5185 9.46543 24.4137 9.50724C24.2728 9.56147 24.1386 9.59024 24.0155 9.59024C23.8264 9.59024 23.6803 9.56442 23.5817 9.5097C23.4831 9.45743 23.4312 9.3668 23.4329 9.23694C23.4329 9.08753 23.4693 8.97095 23.5438 8.87995C23.6191 8.79215 23.7303 8.72144 23.8689 8.66893C24.007 8.62392 24.177 8.58752 24.372 8.56109C24.5459 8.54006 24.8902 8.50218 24.9341 8.50157C24.9777 8.50144 25.0071 8.47796 24.9874 8.59035C24.979 8.63917 24.8796 9.03023 24.834 9.2078C24.8203 9.26129 24.7464 9.33889 24.7131 9.35955C24.7464 9.33889 24.7131 9.35955 24.7131 9.35955ZM26.0628 6.61271C25.7731 6.45776 25.3202 6.37955 24.7002 6.37955C24.3935 6.37955 24.0855 6.40291 23.7763 6.44903C23.549 6.48211 23.5261 6.48777 23.385 6.51716C23.0949 6.5779 23.0502 6.85607 23.0502 6.85607L22.9571 7.22351C22.9044 7.45827 23.0441 7.44855 23.106 7.43035C23.2324 7.39371 23.3014 7.35743 23.5597 7.30111C23.8063 7.24761 24.0676 7.20752 24.2755 7.20888C24.5811 7.20888 24.813 7.24085 24.9673 7.30258C25.1219 7.36714 25.198 7.47733 25.198 7.63449C25.199 7.67187 25.1997 7.70729 25.186 7.73791C25.1731 7.76693 25.1484 7.7946 25.0754 7.80394C24.6402 7.82915 24.3276 7.86715 23.9503 7.91978C23.5787 7.96996 23.2537 8.05591 22.9817 8.17483C22.6919 8.29805 22.4754 8.4632 22.3262 8.67201C22.1802 8.8818 22.1073 9.13598 22.107 9.43554C22.107 9.71838 22.2132 9.94932 22.4182 10.1284C22.626 10.3052 22.8959 10.3929 23.2227 10.3929C23.4271 10.3915 23.5868 10.3771 23.7017 10.35C23.815 10.3223 23.9388 10.2836 24.0689 10.2293C24.1669 10.1902 24.2719 10.1334 24.3833 10.0626C24.4944 9.9915 24.5718 9.94096 24.6711 9.87886L24.6742 9.88464L24.6464 10.0022C24.6461 10.0033 24.6446 10.004 24.6446 10.0054L24.6457 10.0072C24.6139 10.1494 24.7025 10.2672 24.8492 10.2809L24.851 10.2836H24.8638L24.8642 10.2844C24.9617 10.2844 25.2956 10.2839 25.4512 10.2836H25.5602C25.5675 10.2836 25.5685 10.2812 25.5709 10.2798C25.7208 10.2617 25.8637 10.1451 25.8978 10.0054L26.4549 7.70003C26.4675 7.64592 26.4778 7.58333 26.4834 7.51139C26.4909 7.43822 26.4989 7.37858 26.4968 7.33542C26.498 7.00892 26.3515 6.76777 26.0628 6.61271ZM22.5781 6.08777C22.483 5.91044 22.3395 5.76767 22.158 5.65651C21.9718 5.54558 21.7507 5.46823 21.4946 5.4231C21.2414 5.38056 20.9403 5.35621 20.5973 5.35547L19.0013 5.35621C18.837 5.35891 18.6758 5.48262 18.6378 5.63499L17.5647 10.1114C17.5256 10.2636 17.6323 10.3903 17.7937 10.3895L18.5595 10.3881C18.7219 10.3895 18.8874 10.2636 18.9258 10.1114L19.1846 9.0251C19.2209 8.87286 19.386 8.74533 19.5511 8.74755H19.7688C20.7029 8.74755 21.4272 8.56358 21.9458 8.19737C22.4631 7.82931 22.7235 7.34652 22.7235 6.74604C22.7219 6.48387 22.6753 6.26301 22.5781 6.08777ZM20.9315 7.55188C20.7029 7.71126 20.3821 7.79119 19.9693 7.79119H19.7794C19.6153 7.79303 19.5092 7.66576 19.5482 7.51315L19.777 6.56306C19.8111 6.41279 19.9778 6.2849 20.1396 6.28613L20.3904 6.2849C20.6832 6.28613 20.9021 6.3331 21.0534 6.42644C21.202 6.52088 21.2741 6.66734 21.2753 6.8625C21.2759 7.15997 21.1611 7.38882 20.9315 7.55188Z" fill="white"/>
</svg>
