<svg preserveAspectRatio="none" width="100%" height="100%" overflow="visible" style="display: block;" viewBox="0 0 40 25" fill="none" xmlns="http://www.w3.org/2000/svg">
<g id="Paypal">
<path id="Rectangle 1" fill-rule="evenodd" clip-rule="evenodd" d="M37 2.52867e-07C35 4.41611e-07 13.8252 -4.00796e-07 2 2.52867e-07C1 3.08144e-07 0 1 0 2V22C-1.1575e-07 24 1 25 3 25C14.1558 25 35 25 37 25C39 25 40 24 40 22V3C40 1 39 2.52867e-07 37 2.52867e-07Z" fill="var(--fill-0, #F6F6F6)"/>
<path id="pal" fill-rule="evenodd" clip-rule="evenodd" d="M37.9383 8.36523H36.8882C36.8876 8.36523 36.887 8.36543 36.8866 8.36543L36.886 8.36523C36.6456 8.36523 36.4017 8.54451 36.3336 8.77258C36.3309 8.7818 36.3261 8.79064 36.3239 8.80025C36.3239 8.80025 36.2989 8.9115 36.2555 9.10384L34.813 15.4696C34.7797 15.6135 34.7574 15.7073 34.7507 15.7317L34.7534 15.7351C34.7035 15.9577 34.8409 16.1417 35.0664 16.1623L35.0694 16.1665H36.1594C36.3981 16.1665 36.6405 15.989 36.7107 15.7638C36.7141 15.7528 36.7194 15.7426 36.722 15.7317L38.2955 8.79987L38.2931 8.7991C38.3466 8.56199 38.1897 8.36523 37.9383 8.36523ZM32.5521 14.6216C32.4064 14.711 32.2525 14.7874 32.0913 14.8526C31.8746 14.9377 31.6691 14.9823 31.4791 14.9823C31.1874 14.9823 30.9632 14.9421 30.8116 14.8562C30.6599 14.7747 30.5804 14.6331 30.5829 14.4304C30.5829 14.1964 30.6384 14.0148 30.7532 13.8724C30.8689 13.7354 31.0408 13.6251 31.2539 13.5429C31.4659 13.473 31.7266 13.4153 32.0275 13.374C32.2951 13.3412 32.8242 13.2818 32.8919 13.2814C32.9596 13.2808 33.0046 13.2445 32.9744 13.4201C32.961 13.4964 32.8082 14.107 32.7382 14.3847C32.7178 14.4679 32.6042 14.5891 32.5521 14.6216C32.6042 14.5891 32.5521 14.6216 32.5521 14.6216ZM34.6286 10.3299C34.183 10.0878 33.4859 9.96536 32.5321 9.96536C32.0605 9.96536 31.5864 10.0023 31.1108 10.0741C30.7617 10.1262 30.7258 10.1348 30.5089 10.1808C30.0627 10.2753 29.9938 10.7103 29.9938 10.7103L29.8506 11.2841C29.7692 11.651 29.984 11.6359 30.0797 11.6074C30.2745 11.5502 30.38 11.4933 30.7775 11.4057C31.1574 11.3217 31.5588 11.2589 31.8791 11.2614C32.3488 11.2614 32.706 11.3115 32.9434 11.408C33.181 11.5089 33.2986 11.6806 33.2986 11.9264C33.2994 11.9848 33.301 12.0399 33.2793 12.0882C33.2598 12.1331 33.2223 12.1766 33.11 12.1914C32.4396 12.2302 31.9584 12.2897 31.379 12.372C30.8073 12.4504 30.307 12.5847 29.8888 12.7707C29.443 12.9632 29.1095 13.2209 28.8796 13.5473C28.6558 13.8753 28.5433 14.2725 28.5427 14.7404C28.5427 15.1825 28.7059 15.5431 29.0217 15.8231C29.3412 16.0994 29.7568 16.2362 30.2597 16.2362C30.5738 16.2341 30.8197 16.212 30.996 16.1691C31.1704 16.1263 31.3607 16.0654 31.5616 15.9807C31.7118 15.9195 31.8738 15.8312 32.0449 15.7203C32.2162 15.609 32.3348 15.5301 32.4869 15.433L32.4925 15.4423L32.4496 15.6261C32.4494 15.6279 32.4469 15.6288 32.4469 15.6306L32.4483 15.634C32.3993 15.8556 32.5361 16.0398 32.7615 16.0615L32.7642 16.0654H32.7841L32.7849 16.0663C32.9345 16.0663 33.448 16.0662 33.688 16.0654H33.8556C33.8666 16.0654 33.8678 16.0621 33.8721 16.0596C34.1022 16.0321 34.3229 15.8496 34.3748 15.6306L35.2319 12.0288C35.2516 11.9441 35.2672 11.8463 35.2765 11.7337C35.2871 11.6199 35.2998 11.5263 35.296 11.4587C35.298 10.949 35.073 10.5722 34.6286 10.3299ZM29.4674 9.50946C29.3212 9.23238 29.1004 9.0093 28.8211 8.8356C28.5348 8.66229 28.1945 8.54143 27.8006 8.47091C27.4111 8.40443 26.9479 8.36639 26.4202 8.36523L23.9648 8.36639C23.712 8.37061 23.4639 8.56391 23.4055 8.80198L21.7547 15.7964C21.6945 16.0341 21.8587 16.2322 22.1069 16.2309L23.2851 16.2288C23.5349 16.2309 23.7895 16.0341 23.8485 15.7964L24.2468 14.099C24.3026 13.8612 24.5566 13.6619 24.8106 13.6654H25.1455C26.5826 13.6654 27.6968 13.3779 28.4947 12.8057C29.2906 12.2306 29.6912 11.4763 29.6912 10.538C29.6887 10.1284 29.617 9.78326 29.4674 9.50946ZM26.9343 11.7971C26.5826 12.0462 26.089 12.171 25.454 12.171H25.1619C24.9093 12.1739 24.7461 11.9751 24.8061 11.7366L25.1581 10.2521C25.2106 10.0173 25.467 9.81747 25.716 9.81939L26.1019 9.81747C26.5522 9.81939 26.8891 9.89279 27.1218 10.0386C27.3505 10.1862 27.4614 10.415 27.4632 10.72C27.4642 11.1848 27.2875 11.5424 26.9343 11.7971Z" fill="var(--fill-0, #306FC5)"/>
<path id="pay" fill-rule="evenodd" clip-rule="evenodd" d="M21.2098 9.96539C20.9862 9.96539 20.693 10.1426 20.5542 10.3568C20.5542 10.3568 19.0586 12.8682 18.9117 13.1192C18.8319 13.2542 18.751 13.1684 18.7374 13.1182C18.7266 13.0572 18.274 10.3733 18.274 10.3733C18.2231 10.1572 17.9926 9.97175 17.7045 9.97261L16.7719 9.97399C16.5471 9.97399 16.4069 10.1504 16.4569 10.3635C16.4569 10.3635 17.1698 14.3213 17.3088 15.2521C17.3781 15.767 17.3016 15.8583 17.3016 15.8583L16.3774 17.4366C16.2421 17.6506 16.3162 17.826 16.5399 17.826L17.6206 17.8251C17.8444 17.8251 18.1408 17.6506 18.274 17.4363L22.4314 10.5488C22.4314 10.5488 22.8291 9.96041 22.4623 9.96539C22.2122 9.96883 21.2098 9.96539 21.2098 9.96539ZM13.4044 14.6216C13.2588 14.711 13.105 14.787 12.9438 14.8524C12.7271 14.9371 12.5207 14.9821 12.3312 14.9821C12.0403 14.9821 11.8156 14.9417 11.6638 14.8562C11.5122 14.7746 11.4323 14.6329 11.4349 14.43C11.4349 14.1966 11.4909 14.0144 11.6056 13.8722C11.7214 13.7351 11.8925 13.6246 12.1057 13.5425C12.3182 13.4722 12.5797 13.4153 12.8797 13.374C13.1473 13.3412 13.677 13.282 13.7444 13.281C13.8115 13.2808 13.8567 13.2441 13.8265 13.4197C13.8135 13.496 13.6606 14.107 13.5905 14.3845C13.5694 14.4681 13.4557 14.5893 13.4044 14.6216C13.4557 14.5893 13.4044 14.6216 13.4044 14.6216ZM15.4809 10.3297C15.0353 10.0876 14.3385 9.96536 13.3847 9.96536C12.9128 9.96536 12.439 10.0019 11.9632 10.0739C11.6135 10.1256 11.5783 10.1344 11.3613 10.1804C10.9149 10.2753 10.8462 10.7099 10.8462 10.7099L10.7029 11.2841C10.6218 11.6509 10.8367 11.6357 10.932 11.6072C11.1264 11.55 11.2326 11.4933 11.6301 11.4053C12.0094 11.3217 12.4114 11.2591 12.7313 11.2612C13.2013 11.2612 13.5581 11.3111 13.7956 11.4076C14.0334 11.5085 14.1504 11.6806 14.1504 11.9262C14.152 11.9846 14.1532 12.0399 14.132 12.0878C14.1121 12.1331 14.0742 12.1764 13.9619 12.191C13.2923 12.2304 12.8114 12.2897 12.231 12.372C11.6593 12.4504 11.1592 12.5847 10.7408 12.7705C10.295 12.963 9.96186 13.2211 9.73235 13.5473C9.50776 13.8751 9.39547 14.2723 9.39508 14.7404C9.39508 15.1823 9.55848 15.5431 9.87385 15.8229C10.1936 16.0992 10.6088 16.2362 11.1116 16.2362C11.426 16.2341 11.6717 16.2116 11.8485 16.1691C12.0228 16.1259 12.2132 16.0654 12.4133 15.9806C12.5641 15.9195 12.7257 15.8308 12.897 15.7201C13.0679 15.609 13.1871 15.5301 13.3399 15.433L13.3446 15.4421L13.3018 15.6258C13.3014 15.6275 13.299 15.6286 13.299 15.6308L13.3008 15.6336C13.2519 15.8558 13.3882 16.0398 13.6138 16.0612L13.6166 16.0654H13.6363L13.6369 16.0667C13.7869 16.0667 14.3006 16.066 14.54 16.0654H14.7077C14.719 16.0654 14.7205 16.0617 14.7241 16.0594C14.9548 16.0312 15.1746 15.849 15.2271 15.6308L16.0842 12.0286C16.1036 11.9441 16.1193 11.8463 16.128 11.7339C16.1395 11.6195 16.1519 11.5263 16.1485 11.4589C16.1505 10.9488 15.9252 10.572 15.4809 10.3297ZM10.1198 9.50946C9.97355 9.23238 9.75272 9.0093 9.47347 8.8356C9.18712 8.66229 8.84689 8.54143 8.45298 8.47091C8.06341 8.40443 7.60024 8.36639 7.07252 8.36523L4.61711 8.36639C4.36431 8.37061 4.11624 8.56391 4.05783 8.80198L2.407 15.7964C2.34681 16.0341 2.51101 16.2322 2.75927 16.2309L3.93744 16.2288C4.18729 16.2309 4.44187 16.0341 4.50087 15.7964L4.89912 14.099C4.95497 13.8612 5.20896 13.6619 5.46295 13.6654H5.79785C7.23494 13.6654 8.34917 13.3779 9.14705 12.8057C9.94296 12.2306 10.3436 11.4763 10.3436 10.538C10.341 10.1284 10.2694 9.78326 10.1198 9.50946ZM7.58662 11.7971C7.23494 12.0462 6.74137 12.171 6.10631 12.171H5.81423C5.56162 12.1739 5.39842 11.9751 5.45841 11.7366L5.81048 10.2521C5.86297 10.0173 6.11933 9.81747 6.36838 9.81939L6.7542 9.81747C7.20455 9.81939 7.54143 9.89279 7.7741 10.0386C8.00283 10.1862 8.11374 10.415 8.11551 10.72C8.1165 11.1848 7.93987 11.5424 7.58662 11.7971Z" fill="var(--fill-0, #265697)"/>
</g>
</svg>
