<svg preserveAspectRatio="none" width="100%" height="100%" overflow="visible" style="display: block;" viewBox="0 0 40 25" fill="none" xmlns="http://www.w3.org/2000/svg">
<g id="skrill">
<path id="Rectangle 1" fill-rule="evenodd" clip-rule="evenodd" d="M37 2.52867e-07C35 4.41611e-07 13.8252 -4.00796e-07 2 2.52867e-07C1 3.08144e-07 0 1 0 2V22C-1.1575e-07 24 1 25 3 25C14.1558 25 35 25 37 25C39 25 40 24 40 22V3C40 1 39 2.52867e-07 37 2.52867e-07Z" fill="var(--fill-0, #6A3494)"/>
<path id="Vector" fill-rule="evenodd" clip-rule="evenodd" d="M27.4151 9.64277C28.1594 9.64277 28.7627 9.05128 28.7627 8.32174C28.7627 7.59206 28.1594 7 27.4151 7C26.6717 7 26.0687 7.59206 26.0687 8.32174C26.0687 9.05128 26.6717 9.64277 27.4151 9.64277C26.6717 9.64277 27.4151 9.64277 27.4151 9.64277ZM17.0941 10.356C17.0335 10.5059 16.5958 11.7186 15.5373 12.9755V7.60129L12.7171 8.1482V17.8891H15.5373V14.8781C16.3542 16.0798 16.7575 17.8891 16.7575 17.8891H20.1356C19.8015 16.5266 18.3398 14.0139 18.3398 14.0139C19.6517 12.3824 20.2279 10.6441 20.3195 10.356H17.0941ZM24.5087 10.2544C21.9826 10.334 20.7003 11.4457 20.7003 13.6556V17.8891H23.4561V14.4368C23.4561 13.1134 23.6328 12.5462 25.2336 12.4922V10.2932C24.9641 10.2371 24.5087 10.2544 24.5087 10.2544ZM7.98716 11.4286C7.64172 11.4063 6.84197 11.3558 6.84197 10.6495C6.84197 9.79729 7.99339 9.79729 8.42526 9.79729C9.18463 9.79729 10.1681 10.0173 10.8704 10.2233C10.8704 10.2233 11.2622 10.3588 11.5955 10.4977L11.6266 10.5059V8.17191L11.584 8.15956C10.7552 7.8751 9.79139 7.60129 8.00454 7.60129C4.92366 7.60129 3.83203 9.36187 3.83203 10.8702C3.83203 11.7396 4.21178 13.7858 7.74032 14.0218C8.03943 14.0399 8.8331 14.0846 8.8331 14.8146C8.8331 15.4172 8.18334 15.7725 7.09026 15.7725C5.89237 15.7725 4.73038 15.4728 4.02459 15.1886V17.5926C5.08118 17.8642 6.27227 18 7.66822 18C10.6806 18 12.0298 16.3341 12.0298 14.6832C12.0298 12.8113 10.5201 11.5952 7.98716 11.4286C10.5201 11.5952 7.98716 11.4286 7.98716 11.4286ZM26.049 17.8891H28.7825V10.3645H26.049V17.8891ZM33.9297 8.08102V17.8891H36.6637V7.60129L33.9297 8.08102ZM29.9405 8.08102L32.6718 7.60129V17.8891H29.9405V8.08102Z" fill="var(--fill-0, white)"/>
</g>
</svg>
