<svg preserveAspectRatio="none" width="100%" height="100%" overflow="visible" style="display: block;" viewBox="0 0 40 25" fill="none" xmlns="http://www.w3.org/2000/svg">
<g id="&#208;&#161;&#208;&#187;&#208;&#190;&#208;&#185; 1">
<path id="Rectangle 1" fill-rule="evenodd" clip-rule="evenodd" d="M37 0H2C1 0 0 1 0 2V22C0 24 1 25 3 25H37C39 25 40 24 40 22V3C40 1 39 0 37 0Z" fill="var(--fill-0, #3D95CE)"/>
<path id="Vector" d="M9.0925 9.41016C9.31259 9.77361 9.42285 10.193 9.41 10.6177C9.41 12.1177 8.1275 14.0752 7.085 15.4477H4.7025L3.75 9.75016L5.8325 9.55266L6.3325 13.6127C6.805 12.8452 7.3875 11.6377 7.3875 10.8152C7.39903 10.4711 7.33147 10.129 7.19 9.81516L9.0925 9.41016ZM11.7925 11.9102C12.1775 11.9102 13.1425 11.7352 13.1425 11.1877C13.1452 11.134 13.1363 11.0804 13.1166 11.0304C13.0969 10.9804 13.0668 10.9353 13.0282 10.8979C12.9896 10.8605 12.9435 10.8318 12.893 10.8136C12.8424 10.7955 12.7885 10.7883 12.735 10.7927C12.3525 10.7927 11.8475 11.2527 11.7925 11.9102V11.9102ZM11.75 13.0002C11.75 13.6702 12.1225 13.9327 12.615 13.9327C13.2195 13.9206 13.8114 13.7582 14.3375 13.4602L14.0875 15.1727C13.4815 15.4336 12.8273 15.5639 12.1675 15.5552C10.3625 15.5552 9.7125 14.4577 9.7125 13.0877C9.7125 11.3102 10.765 9.42016 12.9375 9.42016C14.1275 9.42016 14.8 10.0902 14.8 11.0252C14.8 12.5252 12.87 12.9877 11.7525 13.0002H11.75ZM20.8125 10.7502C20.8088 11.0013 20.7879 11.2519 20.75 11.5002L20.12 15.4477H18.0925L18.6625 11.8252L18.705 11.4177C18.705 11.1552 18.5425 11.0902 18.3425 11.0902C18.0966 11.1061 17.8574 11.177 17.6425 11.2977L17 15.4502H14.955L15.8875 9.53516H17.655L17.6775 10.0002C18.188 9.63404 18.7993 9.43493 19.4275 9.43016C20.4575 9.43016 20.8225 9.95516 20.8225 10.7477L20.8125 10.7502ZM26.8375 10.0802C27.3737 9.65581 28.0387 9.42736 28.7225 9.43266C29.765 9.43266 30.1325 9.96016 30.1325 10.7502C30.1272 11.0014 30.1046 11.252 30.065 11.5002L29.44 15.4527H27.4025L27.98 11.7502L28.015 11.4552C28.015 11.1577 27.85 11.0927 27.6525 11.0927C27.4087 11.1071 27.1716 11.1781 26.96 11.3002L26.31 15.4527H24.28L24.8575 11.7502L24.895 11.4527C24.895 11.1577 24.73 11.0902 24.5325 11.0902C24.2855 11.1062 24.0453 11.178 23.83 11.3002L23.1825 15.4552H21.1425L22.075 9.53766H23.825L23.88 10.0377C24.3627 9.66115 24.9554 9.45305 25.5675 9.44516C25.8151 9.42878 26.0625 9.48046 26.2828 9.59459C26.5031 9.70872 26.688 9.88096 26.8175 10.0927L26.8375 10.0802ZM34.165 11.8027C34.165 11.3202 34.045 10.9902 33.6825 10.9902C32.8825 10.9902 32.7175 12.4052 32.7175 13.1302C32.7175 13.6802 32.8725 14.0202 33.2325 14.0202C33.9825 14.0202 34.165 12.5202 34.165 11.8027V11.8027ZM30.665 13.0527C30.665 11.1877 31.6525 9.44266 33.915 9.44266C35.6275 9.44266 36.2525 10.4427 36.2525 11.8477C36.2525 13.6902 35.275 15.5977 32.95 15.5977C31.2275 15.5977 30.6575 14.4677 30.6575 13.0502L30.665 13.0527Z" fill="var(--fill-0, #F6F6F6)"/>
</g>
</svg>
