<svg width="24" height="24" viewBox="0 0 24 24" fill="none" xmlns="http://www.w3.org/2000/svg">
<path d="M22.222 15.7691L21.997 14.6441H19.483L19.083 15.7611L17.068 15.7651C18.3633 12.6524 19.3247 10.3468 19.952 8.84809C20.116 8.45609 20.407 8.25609 20.836 8.25909C21.164 8.26176 21.6993 8.26209 22.442 8.26009L24 15.7661L22.222 15.7691ZM20.048 13.1031H21.669L21.064 10.2831L20.048 13.1031ZM7.062 8.25809L9.088 8.26009L5.956 15.7701L3.905 15.7681C3.38925 13.7844 2.87991 11.7991 2.377 9.81209C2.277 9.41609 2.079 9.13909 1.698 9.00809C1.35733 8.89143 0.791333 8.71109 0 8.46709V8.26009H3.237C3.797 8.26009 4.124 8.53109 4.229 9.08709C4.335 9.64443 4.60167 11.0624 5.029 13.3411L7.062 8.25809ZM11.872 8.26009L10.271 15.7691L8.342 15.7661L9.94 8.25809L11.872 8.26009ZM15.782 8.12109C16.359 8.12109 17.086 8.30109 17.504 8.46709L17.166 10.0231C16.788 9.87109 16.166 9.66609 15.643 9.67309C14.883 9.68609 14.413 10.0051 14.413 10.3111C14.413 10.8091 15.229 11.0601 16.069 11.6041C17.027 12.2241 17.154 12.7811 17.142 13.3871C17.129 14.6421 16.069 15.8811 13.833 15.8811C12.813 15.8661 12.445 15.7811 11.613 15.4851L11.965 13.8611C12.812 14.2151 13.171 14.3281 13.895 14.3281C14.558 14.3281 15.127 14.0601 15.132 13.5931C15.136 13.2611 14.932 13.0961 14.188 12.6861C13.444 12.2761 12.4 11.7071 12.414 10.5641C12.431 9.10209 13.816 8.12109 15.782 8.12109Z" fill="white"/>
</svg>
