<svg preserveAspectRatio="none" width="100%" height="100%" overflow="visible" style="display: block;" viewBox="0 0 40 25" fill="none" xmlns="http://www.w3.org/2000/svg">
<g id="Visa">
<path id="Rectangle 20" d="M40 2.24993H0V22.2499H40V2.24993Z" fill="var(--fill-0, #F6F6F6)"/>
<path id="Rectangle 1" fill-rule="evenodd" clip-rule="evenodd" d="M37 2.52867e-07C35 4.41611e-07 13.8252 -4.00796e-07 2 2.52867e-07C1 3.08144e-07 0 1 0 2V5H40C40 5 40 9.64298 40 3C40 1 39 2.52867e-07 37 2.52867e-07Z" fill="var(--fill-0, #265697)"/>
<path id="Rectangle 1_2" fill-rule="evenodd" clip-rule="evenodd" d="M0 20C0 20 2.41593e-07 20 0 22C-1.1571e-07 24 1 25 3 25C14.1558 25 35 25 37 25C39 25 40 24 40 22V20H0Z" fill="var(--fill-0, #D97B16)"/>
<path id="Shape" fill-rule="evenodd" clip-rule="evenodd" d="M27.9048 7.44553C27.3442 7.23062 26.4658 7 25.3687 7C22.5728 7 20.6033 8.43878 20.5865 10.5007C20.5707 12.0249 21.9925 12.8752 23.0658 13.3827C24.1673 13.9026 24.5375 14.2342 24.5322 14.6985C24.5253 15.4095 23.6527 15.7344 22.8394 15.7344C21.7068 15.7344 21.1051 15.5736 20.1758 15.1775L19.8112 15.009L19.4141 17.3836C20.0749 17.6797 21.2971 17.9363 22.5661 17.9495C25.5405 17.9495 27.4714 16.5273 27.4934 14.3254C27.504 13.1187 26.7501 12.2003 25.1177 11.4433C24.1286 10.9526 23.5229 10.6251 23.5293 10.1282C23.5293 9.6873 24.042 9.21582 25.1498 9.21582C26.0751 9.20114 26.7453 9.40732 27.2676 9.62223L27.5212 9.74463L27.9048 7.44553Z" fill="var(--fill-0, #265697)"/>
<path id="Shape_2" fill-rule="evenodd" clip-rule="evenodd" d="M35.1597 7.19531H32.9732C32.2959 7.19531 31.7889 7.38421 31.4915 8.07499L27.2891 17.7963H30.2604C30.2604 17.7963 30.7462 16.4892 30.8561 16.2023C31.1808 16.2023 34.0673 16.2068 34.48 16.2068C34.5647 16.5782 34.8242 17.7963 34.8242 17.7963H37.4499L35.1597 7.19531ZM31.6704 14.0325C31.9044 13.4214 32.7978 11.0672 32.7978 11.0672C32.7811 11.0954 33.0301 10.453 33.173 10.0548L33.3642 10.9693C33.3642 10.9693 33.906 13.5015 34.0193 14.0324L31.6704 14.0325Z" fill="var(--fill-0, #265697)"/>
<path id="Shape_3" fill-rule="evenodd" clip-rule="evenodd" d="M14.8125 17.7914L16.5816 7.18359H19.4113L17.6409 17.7914H14.8125Z" fill="var(--fill-0, #265697)"/>
<path id="Shape_4" fill-rule="evenodd" clip-rule="evenodd" d="M12.4375 7.19141L9.66718 14.4251L9.37201 12.9551C8.85629 11.2605 7.24947 9.42446 5.45313 8.50528L7.98622 17.7823L10.98 17.7788L15.4348 7.19141H12.4375Z" fill="var(--fill-0, #265697)"/>
<path id="Shape_5" fill-rule="evenodd" clip-rule="evenodd" d="M7.0989 7.18545H2.53611L2.5 7.40615C6.0498 8.2842 8.39867 10.4061 9.37368 12.9557L8.38154 8.081C8.21025 7.4093 7.71346 7.20886 7.0989 7.18545Z" fill="var(--fill-0, #D97B16)"/>
</g>
</svg>
