<svg preserveAspectRatio="none" width="100%" height="100%" overflow="visible" style="display: block;" viewBox="0 0 40 25" fill="none" xmlns="http://www.w3.org/2000/svg">
<g id="&#208;&#161;&#208;&#187;&#208;&#190;&#208;&#185; 1">
<path id="Rectangle 1" fill-rule="evenodd" clip-rule="evenodd" d="M37 0H2C1 0 0 1 0 2V22C0 24 1 25 3 25H37C39 25 40 24 40 22V3C40 1 39 0 37 0Z" fill="var(--fill-0, #F6F6F6)"/>
<g id="Group">
<path id="Vector" d="M7.6175 13.7509C7.56819 13.777 7.51328 13.7907 7.4575 13.7909C7.39436 13.7903 7.33248 13.7732 7.27807 13.7411C7.22366 13.7091 7.17863 13.6633 7.1475 13.6084L7.125 13.5584L6.1575 11.4334C6.1464 11.4099 6.14043 11.3843 6.14 11.3584C6.14 11.3352 6.14461 11.3122 6.15356 11.2908C6.16251 11.2694 6.17562 11.25 6.19214 11.2337C6.20865 11.2175 6.22824 11.2046 6.24976 11.196C6.27128 11.1873 6.29431 11.183 6.3175 11.1834C6.35549 11.1826 6.39257 11.195 6.4225 11.2184L7.565 12.0309C7.65122 12.0874 7.75192 12.1178 7.855 12.1184C7.91749 12.1182 7.97939 12.1063 8.0375 12.0834L13.41 9.69338C12.4475 8.55838 10.86 7.81838 9.0675 7.81838C6.13 7.81088 3.75 9.79338 3.75 12.2509C3.75 13.5859 4.465 14.7884 5.5875 15.5984C5.63342 15.6315 5.67077 15.675 5.69643 15.7255C5.72209 15.7759 5.73531 15.8318 5.735 15.8884C5.73427 15.9265 5.72838 15.9643 5.7175 16.0009C5.6275 16.3359 5.485 16.8709 5.4675 16.8959C5.45333 16.9371 5.4441 16.9799 5.44 17.0234C5.43966 17.0468 5.44402 17.07 5.45283 17.0917C5.46163 17.1134 5.47469 17.1331 5.49124 17.1496C5.50779 17.1662 5.52749 17.1793 5.54918 17.1881C5.57086 17.1969 5.5941 17.2012 5.6175 17.2009C5.6533 17.2001 5.68808 17.1888 5.7175 17.1684L6.8825 16.4959C6.96788 16.4446 7.06539 16.4169 7.165 16.4159C7.21751 16.4154 7.26978 16.423 7.32 16.4384C7.88884 16.6028 8.47787 16.687 9.07 16.6884C12 16.6709 14.3825 14.6884 14.3825 12.2509C14.3797 11.5232 14.1698 10.8113 13.7775 10.1984L7.655 13.7209L7.6175 13.7509Z" fill="var(--fill-0, #1AAD19)"/>
<path id="Vector_2" d="M18.822 15.4163L18.782 15.5613C18.747 15.6813 18.717 15.7888 18.692 15.8938C18.6595 15.7388 18.612 15.5663 18.572 15.4113L18.297 14.3813V14.3613H18.1195L17.812 15.4188C17.757 15.5988 17.7095 15.7588 17.6745 15.9013C17.6495 15.7888 17.617 15.6513 17.5845 15.5338L17.287 14.3813V14.3613H17.082L17.582 16.2438V16.2638H17.7495L18.0695 15.1838C18.1245 15.0013 18.167 14.8563 18.197 14.7313C18.2245 14.8638 18.262 15.0088 18.3095 15.1838L18.587 16.2513V16.2713H18.7645L19.3245 14.4013V14.3688H19.117L18.822 15.4163Z" fill="var(--fill-0, #514F4F)"/>
<path id="Vector_3" d="M20.0001 14.8576C19.6276 14.8576 19.3776 15.1551 19.3776 15.6076C19.3695 15.6964 19.3802 15.7859 19.4092 15.8703C19.4381 15.9547 19.4845 16.032 19.5454 16.0972C19.6064 16.1623 19.6804 16.2139 19.7626 16.2484C19.8448 16.2829 19.9335 16.2997 20.0226 16.2976C20.1704 16.3038 20.3174 16.2728 20.4501 16.2076L20.4776 16.1926L20.3901 16.0401H20.3701C20.2661 16.0881 20.1521 16.1104 20.0376 16.1051C19.7551 16.1051 19.5876 15.9176 19.5776 15.6051H20.5301V15.5776C20.5328 15.5485 20.5328 15.5192 20.5301 15.4901C20.5296 15.3565 20.4961 15.2251 20.4326 15.1076C20.3878 15.0298 20.3227 14.9655 20.2444 14.9215C20.1661 14.8775 20.0774 14.8554 19.9876 14.8576H20.0001ZM19.5751 15.4226C19.5813 15.3208 19.6252 15.2249 19.6982 15.1537C19.7713 15.0825 19.8682 15.0411 19.9701 15.0376C20.0158 15.0343 20.0616 15.0406 20.1047 15.0561C20.1477 15.0716 20.1871 15.0959 20.2201 15.1276C20.2911 15.2094 20.3302 15.3142 20.3301 15.4226H19.5751Z" fill="var(--fill-0, #514F4F)"/>
<path id="Vector_4" d="M22.0708 16.0311C21.9491 16.0829 21.818 16.1093 21.6858 16.1086C21.5834 16.1148 21.4809 16.0985 21.3855 16.0607C21.2901 16.0229 21.2042 15.9646 21.1338 15.89C21.0635 15.8153 21.0104 15.7261 20.9783 15.6287C20.9462 15.5312 20.936 15.4279 20.9483 15.3261C20.9483 14.8261 21.2308 14.5161 21.6983 14.5161C21.8194 14.5143 21.9395 14.5382 22.0508 14.5861H22.0708L22.1633 14.4261L22.1358 14.4111C21.9846 14.348 21.8203 14.3231 21.6572 14.3384C21.4941 14.3537 21.3373 14.4088 21.2005 14.4989C21.0638 14.589 20.9512 14.7114 20.8728 14.8552C20.7944 14.999 20.7525 15.1598 20.7508 15.3236C20.7378 15.4483 20.7518 15.5743 20.7917 15.6932C20.8315 15.812 20.8964 15.921 20.9819 16.0126C21.0674 16.1043 21.1716 16.1766 21.2874 16.2246C21.4032 16.2727 21.528 16.2953 21.6533 16.2911C21.825 16.2944 21.9954 16.2611 22.1533 16.1936L22.1833 16.1786L22.0933 16.0211L22.0708 16.0311Z" fill="var(--fill-0, #514F4F)"/>
<path id="Vector_5" d="M23.0006 14.8576C22.9014 14.8559 22.804 14.8837 22.7206 14.9376C22.6713 14.9665 22.6274 15.0037 22.5906 15.0476V14.3301H22.3906V16.2626H22.5906V15.4301C22.5886 15.3903 22.5937 15.3505 22.6056 15.3126C22.6316 15.2367 22.6799 15.1703 22.7441 15.1222C22.8083 15.074 22.8855 15.0463 22.9656 15.0426C23.2456 15.0426 23.2881 15.2926 23.2881 15.4551V16.2626H23.5006V15.4426C23.5006 14.8851 23.0931 14.8576 23.0006 14.8576" fill="var(--fill-0, #514F4F)"/>
<path id="Vector_6" d="M25.2975 14.5957H25.095V14.9007H24.875V15.0657H25.095V15.8532C25.0847 15.9712 25.1166 16.089 25.185 16.1857C25.2154 16.2219 25.2538 16.2505 25.2972 16.2692C25.3406 16.2878 25.3878 16.2961 25.435 16.2932C25.5025 16.2945 25.5696 16.2826 25.6325 16.2582L25.665 16.2432L25.58 16.0957H25.5625C25.5259 16.0988 25.4891 16.0988 25.4525 16.0957C25.345 16.0957 25.2975 16.0257 25.2975 15.8607V15.0657H25.67V14.9007H25.2975V14.5957Z" fill="var(--fill-0, #514F4F)"/>
<path id="Vector_7" d="M26.9978 14.3493C26.8637 14.3497 26.7299 14.3615 26.5978 14.3843H26.5703V16.2593H26.7703V15.5018C26.8327 15.5073 26.8954 15.5073 26.9578 15.5018C27.0618 15.5071 27.1657 15.4907 27.2629 15.4537C27.3602 15.4167 27.4487 15.3598 27.5228 15.2868C27.6158 15.1777 27.664 15.0375 27.6578 14.8943C27.6613 14.8235 27.6498 14.7528 27.6239 14.6869C27.5981 14.621 27.5585 14.5613 27.5078 14.5118C27.3678 14.3958 27.1893 14.3369 27.0078 14.3468L26.9978 14.3493ZM26.7803 14.5418C26.8541 14.5318 26.9284 14.5267 27.0028 14.5268C27.2978 14.5268 27.4678 14.6668 27.4678 14.9093C27.4678 15.1518 27.2878 15.3218 26.9678 15.3218C26.9015 15.3233 26.8353 15.3174 26.7703 15.3043V14.5543L26.7803 14.5418Z" fill="var(--fill-0, #514F4F)"/>
<path id="Vector_8" d="M29.8716 14.8878L29.5466 15.7503C29.5191 15.8178 29.4966 15.8853 29.4766 15.9428C29.4566 15.8803 29.4341 15.8153 29.4116 15.7578L29.0691 14.9053V14.8828H28.8516L29.3516 16.1328C29.3535 16.1469 29.3535 16.1612 29.3516 16.1753C29.3529 16.1903 29.3529 16.2053 29.3516 16.2203C29.3023 16.3377 29.231 16.4446 29.1416 16.5353C29.0797 16.5949 29.0066 16.6416 28.9266 16.6728L28.8891 16.6853L28.9841 16.8503H29.0041C29.0869 16.8173 29.1638 16.7708 29.2316 16.7128C29.442 16.4815 29.5953 16.2041 29.6791 15.9028L30.0766 14.9178L30.0916 14.8828L29.8716 14.8878Z" fill="var(--fill-0, #514F4F)"/>
<path id="Vector_9" d="M24.7214 15.9191V15.4191C24.7214 15.0591 24.5539 14.8691 24.2364 14.8691C24.0938 14.8692 23.9542 14.91 23.8339 14.9866L23.8114 14.9991L23.8989 15.1491H23.9214C24.0103 15.0905 24.1149 15.06 24.2214 15.0616V15.0616C24.2591 15.0592 24.2969 15.0644 24.3325 15.0769C24.3681 15.0893 24.4009 15.1088 24.4289 15.1341C24.4606 15.172 24.4844 15.2159 24.499 15.2631C24.5136 15.3103 24.5187 15.36 24.5139 15.4091C24.2743 15.3869 24.0353 15.4576 23.8464 15.6066C23.8046 15.6475 23.7717 15.6966 23.7498 15.7508C23.7279 15.805 23.7173 15.8632 23.7189 15.9216C23.718 15.9759 23.7285 16.0297 23.7497 16.0797C23.7708 16.1297 23.8021 16.1747 23.8417 16.2119C23.8812 16.2491 23.9281 16.2776 23.9792 16.2956C24.0304 16.3137 24.0848 16.3208 24.1389 16.3166C24.2127 16.3173 24.2859 16.3028 24.3538 16.274C24.4218 16.2452 24.4831 16.2027 24.5339 16.1491L24.5489 16.2866H24.7514V16.2441C24.7361 16.1441 24.7294 16.0429 24.7314 15.9416L24.7214 15.9191ZM24.0014 15.6941C24.1462 15.5904 24.3244 15.5441 24.5014 15.5641H24.5264V15.8141C24.5307 15.8364 24.5307 15.8593 24.5264 15.8816C24.503 15.9561 24.4559 16.0208 24.3922 16.0659C24.3286 16.1111 24.2519 16.1341 24.1739 16.1316C24.1418 16.1331 24.1097 16.1274 24.08 16.115C24.0503 16.1026 24.0238 16.0838 24.0023 16.0599C23.9807 16.036 23.9648 16.0076 23.9556 15.9767C23.9463 15.9459 23.9441 15.9134 23.9489 15.8816C23.948 15.8479 23.954 15.8143 23.9665 15.783C23.9789 15.7516 23.9976 15.7231 24.0214 15.6991" fill="var(--fill-0, #514F4F)"/>
<path id="Vector_10" d="M28.6929 15.9191V15.4191C28.6929 15.0591 28.5254 14.8691 28.2079 14.8691C28.0716 14.8701 27.9379 14.9072 27.8204 14.9766H27.8004L27.8879 15.1266H27.9104C27.9963 15.0746 28.0951 15.0477 28.1954 15.0491C28.2331 15.0467 28.2709 15.0519 28.3065 15.0644C28.3422 15.0768 28.375 15.0963 28.4029 15.1216C28.435 15.1594 28.4592 15.2032 28.4742 15.2504C28.4892 15.2976 28.4947 15.3473 28.4904 15.3966C28.25 15.374 28.0101 15.4447 27.8204 15.5941C27.7795 15.6355 27.7473 15.6848 27.7258 15.7389C27.7043 15.793 27.694 15.8509 27.6954 15.9091C27.6942 15.9633 27.7044 16.0171 27.7252 16.067C27.7461 16.117 27.7772 16.1621 27.8165 16.1993C27.8559 16.2365 27.9026 16.2651 27.9536 16.2831C28.0047 16.3012 28.059 16.3083 28.1129 16.3041C28.1868 16.3051 28.2601 16.2908 28.3281 16.2619C28.3961 16.2331 28.4573 16.1904 28.5079 16.1366L28.5229 16.2741H28.7179V16.2316C28.7027 16.1316 28.696 16.0304 28.6979 15.9291L28.6929 15.9191ZM28.4979 15.8191C28.5021 15.8414 28.5021 15.8643 28.4979 15.8866C28.4745 15.9611 28.4274 16.0258 28.3637 16.0709C28.3001 16.1161 28.2234 16.1391 28.1454 16.1366C28.1134 16.1382 28.0814 16.1325 28.0518 16.1201C28.0222 16.1077 27.9958 16.0888 27.9744 16.0648C27.9531 16.0409 27.9374 16.0124 27.9285 15.9816C27.9196 15.9507 27.9177 15.9183 27.9229 15.8866C27.9221 15.8529 27.9281 15.8193 27.9405 15.788C27.953 15.7566 27.9717 15.7281 27.9954 15.7041C28.1399 15.5996 28.3184 15.5531 28.4954 15.5741H28.5204L28.4979 15.8191Z" fill="var(--fill-0, #514F4F)"/>
<path id="Vector_11" d="M26.2684 10.2891H23.5859V10.5291H26.2684V10.2891Z" fill="var(--fill-0, #514F4F)"/>
<path id="Vector_12" d="M26.2684 11.0391H23.5859V11.2991H26.2684V11.0391Z" fill="var(--fill-0, #514F4F)"/>
<path id="Vector_13" d="M23.6562 13.2511H26.2012V11.8086H23.6562V13.2511ZM23.9062 12.0411H25.9312V13.0111H23.9062V12.0411Z" fill="var(--fill-0, #514F4F)"/>
<path id="Vector_14" d="M22.85 13.4115V10.074C23.0067 9.73678 23.1404 9.38931 23.25 9.03398L23 8.89648C22.788 9.68771 22.4504 10.4398 22 11.124L22.145 11.374C22.295 11.1515 22.455 10.889 22.605 10.624V13.4115H22.85Z" fill="var(--fill-0, #514F4F)"/>
<path id="Vector_15" d="M32.7023 13.4115V10.074C32.8574 9.73666 32.9894 9.3892 33.0973 9.03398L32.8598 8.89648C32.6416 9.68893 32.2972 10.4411 31.8398 11.124L31.9823 11.374C32.1323 11.1515 32.2923 10.889 32.4423 10.624V13.4115H32.7023Z" fill="var(--fill-0, #514F4F)"/>
<path id="Vector_16" d="M26.5478 9.5182H24.9728L25.1403 9.4232L25.0178 9.1732C24.9678 9.0707 24.9178 8.9632 24.8928 8.9082L24.6553 9.0457C24.7428 9.2082 24.8153 9.3557 24.8803 9.4982C24.8878 9.51252 24.8936 9.52761 24.8978 9.5432H23.3203V9.7932H26.5478V9.5182Z" fill="var(--fill-0, #514F4F)"/>
<path id="Vector_17" d="M19.5992 9.3218H19.3592V10.1668H18.9042V8.9668H18.6642V10.1668H18.1892V9.3218H17.9492V10.4093H19.5992V9.3218Z" fill="var(--fill-0, #514F4F)"/>
<path id="Vector_18" d="M19.4834 10.8809H18.0234V11.1209H19.4834V10.8809Z" fill="var(--fill-0, #514F4F)"/>
<path id="Vector_19" d="M18.3409 12.0513V11.8338H19.0759V12.3713C19.0892 12.4885 19.0619 12.6068 18.9984 12.7063V12.7063L19.1459 12.9563C19.2734 12.8538 19.4959 12.6638 19.8009 12.3938L19.6859 12.1913L19.3159 12.5013V11.5938H18.0809V11.9588C18.1159 12.4588 17.9909 12.8163 17.7109 13.0213L17.8459 13.2513C18.0214 13.106 18.1586 12.92 18.2458 12.7096C18.3329 12.4991 18.3673 12.2705 18.3459 12.0438" fill="var(--fill-0, #514F4F)"/>
<path id="Vector_20" d="M16.7617 10.1016L16.9067 10.3516C17.2855 9.96954 17.5988 9.52781 17.8342 9.04406L17.6117 8.91406C17.4018 9.3569 17.1139 9.75832 16.7617 10.0991" fill="var(--fill-0, #514F4F)"/>
<path id="Vector_21" d="M16.6953 11.6118L16.8278 11.8443C16.9703 11.6793 17.1078 11.5043 17.2403 11.3243V13.4118H17.4903V10.9293C17.5978 10.7343 17.7028 10.5193 17.8028 10.2868L17.5703 10.1543C17.3623 10.6849 17.0665 11.1768 16.6953 11.6093V11.6118Z" fill="var(--fill-0, #514F4F)"/>
<path id="Vector_22" d="M20.4734 11.9009C20.2863 11.3683 20.1687 10.8137 20.1234 10.2509C20.1469 10.1751 20.1771 10.1015 20.2134 10.0309H20.8584C20.8391 10.6718 20.7089 11.3045 20.4734 11.9009ZM21.3609 10.0309V9.78094H20.2934C20.3981 9.49444 20.4768 9.19907 20.5284 8.89844H20.2784C20.1501 9.55578 19.9127 10.187 19.5759 10.7659L19.7284 11.0159L19.8409 10.7934C19.8809 10.7209 19.9159 10.6584 19.9409 10.6084C19.9869 11.1435 20.1186 11.6677 20.3309 12.1609C20.1154 12.5239 19.8427 12.8498 19.5234 13.1259L19.6634 13.3759C19.9703 13.1088 20.2343 12.7959 20.4459 12.4484C20.655 12.7931 20.9071 13.1098 21.1959 13.3909V13.3909L21.3384 13.1409C21.0409 12.8706 20.7877 12.5551 20.5884 12.2059C20.9045 11.5253 21.0748 10.7862 21.0884 10.0359L21.3609 10.0309Z" fill="var(--fill-0, #514F4F)"/>
<path id="Vector_23" d="M34.8241 13.0785H34.6741V13.3285H34.9016C34.9917 13.3389 35.083 13.3297 35.1692 13.3017C35.2555 13.2736 35.3347 13.2274 35.4016 13.166C35.459 13.1011 35.502 13.0248 35.5279 12.942C35.5537 12.8593 35.5618 12.7721 35.5516 12.686V10.286H36.2491V10.036H35.5516V8.91602H35.3016V10.026H33.1641V10.276H35.3016V12.6835C35.3016 12.9335 35.1391 13.0685 34.8341 13.0685" fill="var(--fill-0, #514F4F)"/>
<path id="Vector_24" d="M34.25 12.2207L34.5 12.0707C34.3625 11.7907 34.1775 11.4182 33.95 10.9607L33.715 11.0982C33.8725 11.4057 34.05 11.7832 34.2425 12.2207" fill="var(--fill-0, #514F4F)"/>
<path id="Vector_25" d="M30.0009 11.6625C29.8001 11.8949 29.5727 12.103 29.3234 12.2825C28.8221 11.9174 28.4234 11.4292 28.1659 10.865H30.5009C30.3833 11.1586 30.214 11.4287 30.0009 11.6625V11.6625ZM31.5359 9.775V9.525H29.5009V8.875H29.2509V9.525H27.2109V9.775H29.2509V10.63H27.9259V10.8325C27.9294 10.8436 27.9336 10.8544 27.9384 10.865C28.2035 11.4733 28.6118 12.0086 29.1284 12.425C28.5611 12.7582 27.9441 12.9988 27.3009 13.1375L27.4534 13.4C28.1251 13.2455 28.7624 12.9684 29.3334 12.5825C29.9001 12.9768 30.539 13.2554 31.2134 13.4025L31.3409 13.1675C30.7035 13.0215 30.0956 12.7679 29.5434 12.4175C30.0897 12.0151 30.5207 11.4763 30.7934 10.855C30.8159 10.7925 30.8284 10.7525 30.8309 10.7425L30.6184 10.62H29.5009V9.775H31.5359Z" fill="var(--fill-0, #514F4F)"/>
</g>
</g>
</svg>
