<svg preserveAspectRatio="none" width="100%" height="100%" overflow="visible" style="display: block;" viewBox="0 0 40 25" fill="none" xmlns="http://www.w3.org/2000/svg">
<g id="&#208;&#161;&#208;&#187;&#208;&#190;&#208;&#185; 1">
<path id="Rectangle 1" fill-rule="evenodd" clip-rule="evenodd" d="M37 0H2C1 0 0 1 0 2V22C0 24 1 25 3 25H37C39 25 40 24 40 22V3C40 1 39 0 37 0Z" fill="var(--fill-0, #6D1ED4)"/>
<g id="Group">
<path id="Vector" d="M8.9275 8.20749L6.4125 8.18249V9.85249H10.58L6.25 15.4V16.8125H8.9275V18.4375H10.535V16.8125H13.265C13.2813 16.7415 13.2792 16.6676 13.2591 16.5977C13.239 16.5277 13.2015 16.464 13.15 16.4125C12.9064 16.1423 12.702 15.8394 12.5425 15.5125C12.4625 15.355 12.4 15.1675 12.3775 15.1525C11.84 15.1275 8.745 15.135 8.7475 15.115L13.08 9.52999V8.20749H10.535V6.56249H8.9275V8.20749ZM20.5275 7.42999C20.49 7.44499 20.4775 8.28999 20.4775 11.4925C20.4775 15.8175 20.4775 15.7425 20.665 16.1175C20.9069 16.4984 21.2898 16.768 21.73 16.8675C22.1667 16.9389 22.6117 16.944 23.05 16.8825C23.4275 16.8025 23.5 16.6875 23.35 16.3825C23.2328 16.125 23.1488 15.8536 23.1 15.575C23.06 15.3125 23.005 15.27 22.685 15.2775C22.5761 15.2858 22.4667 15.2783 22.36 15.255C22.2025 15.155 22.2025 15.1275 22.2025 11.255C22.2025 8.75499 22.2025 7.50499 22.165 7.46249C22.1275 7.41999 22.075 7.38999 21.35 7.39499C20.9225 7.40749 20.55 7.41749 20.5275 7.42999ZM24.0275 7.44249C23.9775 7.47249 23.97 7.96249 23.97 11.465C23.97 15.24 23.97 15.465 24.0425 15.735C24.1 15.9834 24.221 16.2125 24.3937 16.4001C24.5663 16.5876 24.7847 16.7272 25.0275 16.805C25.2655 16.8998 25.522 16.9391 25.7775 16.92C26.355 16.935 26.65 16.8925 26.945 16.7425C27.24 16.5925 27.2425 16.4925 26.995 16.14C26.895 15.995 26.745 15.745 26.6575 15.5875L26.5 15.3025H26.22C25.8725 15.3025 25.8375 15.28 25.7725 15.115C25.725 15.005 25.715 14.435 25.715 11.2725C25.715 8.77249 25.715 7.52249 25.6775 7.47999C25.64 7.43749 25.59 7.40749 24.8625 7.40749C24.5852 7.39863 24.3076 7.41201 24.0325 7.44749L24.0275 7.44249Z" fill="var(--fill-0, #F6F6F6)"/>
<path id="Vector_2" d="M15.7172 9.83346C15.6972 9.83346 15.5472 9.87596 15.3922 9.90846C14.8943 10.0305 14.4328 10.2701 14.0466 10.6072C13.6603 10.9443 13.3605 11.3691 13.1722 11.846C12.9766 12.337 12.8822 12.8625 12.8947 13.391C12.8592 14.1242 13.0551 14.8501 13.4547 15.466C13.9093 16.1431 14.6002 16.6263 15.3922 16.821C15.7419 16.9072 16.1032 16.9368 16.4622 16.9085C16.8161 16.9357 17.172 16.9079 17.5172 16.826C18.1562 16.6603 18.7439 16.3381 19.2272 15.8885C19.5222 15.6135 19.5172 15.536 19.2272 15.306C19.0497 15.164 18.8826 15.0094 18.7272 14.8435C18.5447 14.6485 18.4322 14.556 18.3747 14.556C18.2614 14.592 18.1602 14.6586 18.0822 14.7485C17.639 15.1309 17.0641 15.3255 16.4797 15.291C15.8597 15.291 15.4072 15.126 15.1197 14.791C14.9471 14.5692 14.8228 14.3137 14.7547 14.041L14.7297 13.8985H17.1147C18.4247 13.8985 19.5222 13.8835 19.5497 13.8635C19.6772 13.7835 19.7072 13.231 19.6147 12.626C19.3972 11.1785 18.5322 10.2085 17.1747 9.87596C16.8903 9.81211 16.5984 9.78771 16.3072 9.80346C15.9997 9.80346 15.7372 9.80346 15.7147 9.81846L15.7172 9.83346ZM16.7497 11.3085C17.0433 11.3814 17.3108 11.5346 17.5222 11.751C17.6834 11.9456 17.7996 12.1736 17.8622 12.4185L17.8897 12.5385H14.7722L14.7972 12.4185C14.8653 12.1531 15.0048 11.9115 15.2004 11.7198C15.3961 11.5281 15.6406 11.3936 15.9072 11.331C16.1835 11.2655 16.4704 11.2578 16.7497 11.3085V11.3085ZM29.6322 9.86846C28.2747 10.1685 27.3572 11.1185 27.0697 12.5385C26.898 13.3779 26.9851 14.2497 27.3197 15.0385C27.5337 15.51 27.8601 15.9218 28.2702 16.2378C28.6804 16.5538 29.1618 16.7643 29.6722 16.851C30.0114 16.9231 30.3592 16.945 30.7047 16.916C31.0166 16.9189 31.3278 16.8862 31.6322 16.8185C32.2555 16.661 32.8291 16.3489 33.2997 15.911C33.6347 15.586 33.6347 15.571 33.2722 15.2685C33.0932 15.1209 32.926 14.9596 32.7722 14.786C32.4997 14.501 32.4422 14.501 32.1622 14.751C31.9439 14.9431 31.6896 15.09 31.4141 15.1831C31.1386 15.2762 30.8474 15.3137 30.5572 15.2935C29.5847 15.2935 29.0197 14.8735 28.8347 14.0435L28.8097 13.946H33.6547C33.8197 13.826 33.7572 12.571 33.5597 11.991C33.4951 11.8198 33.42 11.6528 33.3347 11.491C33.1242 11.075 32.8196 10.7137 32.4451 10.436C32.0706 10.1583 31.6365 9.97165 31.1772 9.89096C30.6602 9.82471 30.1368 9.82471 29.6197 9.89096L29.6322 9.86846ZM30.8247 11.3085C31.0914 11.3683 31.3388 11.4938 31.5447 11.6735C31.744 11.8911 31.888 12.1535 31.9647 12.4385V12.5285H28.8472L28.8747 12.4235C28.9854 12.0197 29.2511 11.6759 29.614 11.4671C29.9768 11.2583 30.4075 11.2013 30.8122 11.3085H30.8247Z" fill="var(--fill-0, #F6F6F6)"/>
</g>
</g>
</svg>
