<svg preserveAspectRatio="none" width="100%" height="100%" overflow="visible" style="display: block;" viewBox="0 0 24 24" fill="none" xmlns="http://www.w3.org/2000/svg">
<g id="material-symbols:shopping-cart">
<path id="Vector" d="M5.588 21.413C5.196 21.021 5 20.55 5 20C5 19.45 5.196 18.9793 5.588 18.588C5.98 18.1967 6.45067 18.0007 7 18C7.54933 17.9993 8.02033 18.1953 8.413 18.588C8.80567 18.9807 9.00133 19.4513 9 20C8.99867 20.5487 8.803 21.0197 8.413 21.413C8.023 21.8063 7.552 22.002 7 22C6.448 21.998 5.97733 21.8023 5.588 21.413ZM15.588 21.413C15.196 21.021 15 20.55 15 20C15 19.45 15.196 18.9793 15.588 18.588C15.98 18.1967 16.4507 18.0007 17 18C17.5493 17.9993 18.0203 18.1953 18.413 18.588C18.8057 18.9807 19.0013 19.4513 19 20C18.9987 20.5487 18.803 21.0197 18.413 21.413C18.023 21.8063 17.552 22.002 17 22C16.448 21.998 15.9773 21.8023 15.588 21.413ZM5.2 4H19.95C20.3333 4 20.625 4.171 20.825 4.513C21.025 4.855 21.0333 5.20067 20.85 5.55L17.3 11.95C17.1167 12.2833 16.871 12.5417 16.563 12.725C16.255 12.9083 15.9173 13 15.55 13H8.1L7 15H19V17H7C6.25 17 5.68333 16.671 5.3 16.013C4.91667 15.355 4.9 14.7007 5.25 14.05L6.6 11.6L3 4H1V2H4.25L5.2 4Z" fill="var(--fill-0, white)"/>
</g>
</svg>
