<svg preserveAspectRatio="none" width="100%" height="100%" overflow="visible" style="display: block;" viewBox="0 0 11 20" fill="none" xmlns="http://www.w3.org/2000/svg">
<g id="fa:dollar" clip-path="url(#clip0_0_74)">
<path id="Vector" d="M10.8396 13.2254C10.8396 14.3638 10.4595 15.3441 9.69948 16.1663C8.93941 16.9885 7.95208 17.4963 6.7375 17.6897V19.6429C6.7375 19.747 6.70312 19.8326 6.63437 19.8996C6.56562 19.9665 6.47778 20 6.37083 20H4.82396C4.72465 20 4.63872 19.9647 4.56615 19.894C4.49358 19.8233 4.45729 19.7396 4.45729 19.6429V17.6897C3.95312 17.6228 3.46615 17.5074 2.99635 17.3438C2.52656 17.1801 2.13889 17.0145 1.83333 16.8471C1.52778 16.6797 1.24514 16.5011 0.985417 16.3114C0.725694 16.1217 0.54809 15.9821 0.452604 15.8929C0.357118 15.8036 0.290278 15.7366 0.252083 15.692C0.122222 15.5357 0.114583 15.3832 0.229167 15.2344L1.40937 13.7277C1.46285 13.6533 1.55069 13.6086 1.67292 13.5938C1.7875 13.5789 1.87917 13.6124 1.94792 13.6942L1.97083 13.7165C2.83403 14.4531 3.76215 14.9182 4.75521 15.1116C5.03785 15.1711 5.32049 15.2009 5.60312 15.2009C6.22187 15.2009 6.76615 15.0409 7.23594 14.721C7.70573 14.401 7.94062 13.9472 7.94062 13.3594C7.94062 13.151 7.88333 12.9539 7.76875 12.7679C7.65417 12.5818 7.52621 12.4256 7.3849 12.2991C7.24358 12.1726 7.02014 12.0331 6.71458 11.8806C6.40903 11.7281 6.15694 11.609 5.95833 11.5234C5.75972 11.4379 5.45417 11.317 5.04167 11.1607C4.74375 11.0417 4.50885 10.9487 4.33698 10.8817C4.1651 10.8147 3.93021 10.7161 3.63229 10.5859C3.33437 10.4557 3.09566 10.3404 2.91615 10.24C2.73663 10.1395 2.52083 10.0074 2.26875 9.84375C2.01667 9.68006 1.81233 9.52195 1.65573 9.36942C1.49913 9.21689 1.33299 9.0346 1.15729 8.82254C0.981597 8.61049 0.846007 8.39472 0.750521 8.17522C0.655035 7.95573 0.574826 7.70833 0.509896 7.43304C0.444965 7.15774 0.4125 6.86756 0.4125 6.5625C0.4125 5.53571 0.786806 4.63542 1.53542 3.86161C2.28403 3.0878 3.25799 2.58929 4.45729 2.36607V0.357143C4.45729 0.260417 4.49358 0.176711 4.56615 0.106027C4.63872 0.0353423 4.72465 0 4.82396 0H6.37083C6.47778 0 6.56562 0.0334821 6.63437 0.100446C6.70312 0.167411 6.7375 0.252976 6.7375 0.357143V2.32143C7.17292 2.36607 7.59496 2.45164 8.00365 2.57813C8.41233 2.70461 8.74462 2.82924 9.00052 2.95201C9.25642 3.07478 9.49896 3.21429 9.72812 3.37054C9.95729 3.52679 10.1062 3.63467 10.175 3.6942C10.2437 3.75372 10.301 3.8058 10.3469 3.85045C10.4767 3.98438 10.4958 4.12574 10.4042 4.27455L9.47604 5.90402C9.41493 6.01563 9.32708 6.07515 9.2125 6.08259C9.10556 6.10491 9.00243 6.07887 8.90312 6.00446C8.88021 5.98214 8.82483 5.9375 8.73698 5.87054C8.64913 5.80357 8.50017 5.70499 8.2901 5.57478C8.08003 5.44457 7.8566 5.32552 7.61979 5.21763C7.38299 5.10975 7.09844 5.01302 6.76615 4.92746C6.43385 4.84189 6.10729 4.79911 5.78646 4.79911C5.06076 4.79911 4.46875 4.95908 4.01042 5.27902C3.55208 5.59896 3.32292 6.0119 3.32292 6.51786C3.32292 6.71131 3.35538 6.88988 3.42031 7.05357C3.48524 7.21726 3.59792 7.37165 3.75833 7.51674C3.91875 7.66183 4.06962 7.7846 4.21094 7.88504C4.35226 7.98549 4.56615 8.10082 4.8526 8.23103C5.13906 8.36124 5.37014 8.46168 5.54583 8.53237C5.72153 8.60305 5.98889 8.70536 6.34792 8.83929C6.75278 8.9881 7.06215 9.10528 7.27604 9.19085C7.48993 9.27641 7.78021 9.40662 8.14687 9.58147C8.51354 9.75632 8.80191 9.91443 9.01198 10.0558C9.22205 10.1972 9.45885 10.3832 9.7224 10.6138C9.98594 10.8445 10.1884 11.0807 10.3297 11.3225C10.471 11.5644 10.5913 11.849 10.6906 12.1763C10.7899 12.5037 10.8396 12.8534 10.8396 13.2254Z" fill="var(--fill-0, white)"/>
</g>
<defs>
<clipPath id="clip0_0_74">
<rect width="11" height="20" fill="white"/>
</clipPath>
</defs>
</svg>
