<svg width="16" height="16" viewBox="0 0 16 16" fill="none" xmlns="http://www.w3.org/2000/svg">
<path d="M13.8336 8.00044L14.5696 6.72844C14.658 6.57541 14.6821 6.3935 14.6364 6.22273C14.5908 6.05196 14.4792 5.9063 14.3262 5.81778L13.0529 5.08178V3.61511C13.0529 3.4383 12.9827 3.26873 12.8576 3.14371C12.7326 3.01868 12.563 2.94845 12.3862 2.94845H10.9202L10.1849 1.67578C10.0965 1.52267 9.95098 1.41092 9.78023 1.36511C9.69565 1.34245 9.60742 1.33667 9.5206 1.34811C9.43378 1.35955 9.35006 1.38798 9.27423 1.43178L8.0009 2.16778L6.72757 1.43111C6.57445 1.34271 6.39248 1.31875 6.2217 1.36451C6.05092 1.41027 5.90531 1.522 5.8169 1.67511L5.0809 2.94845H3.6149C3.43809 2.94845 3.26852 3.01868 3.14349 3.14371C3.01847 3.26873 2.94823 3.4383 2.94823 3.61511V5.08111L1.6749 5.81711C1.59905 5.86094 1.53259 5.91929 1.4793 5.98883C1.42602 6.05836 1.38696 6.13771 1.36436 6.22235C1.34176 6.30698 1.33607 6.39525 1.3476 6.48208C1.35913 6.56892 1.38766 6.65264 1.43157 6.72844L2.16757 8.00044L1.43157 9.27244C1.34356 9.42563 1.31968 9.60739 1.36514 9.77811C1.4106 9.94882 1.5217 10.0946 1.67423 10.1838L2.94757 10.9198V12.3858C2.94757 12.5626 3.0178 12.7322 3.14283 12.8572C3.26785 12.9822 3.43742 13.0524 3.61423 13.0524H5.0809L5.8169 14.3258C5.87592 14.4267 5.96019 14.5105 6.06142 14.5689C6.16265 14.6274 6.27735 14.6584 6.39423 14.6591C6.51023 14.6591 6.62557 14.6284 6.72823 14.5691L8.00023 13.8331L9.27357 14.5691C9.4266 14.6576 9.60851 14.6816 9.77928 14.636C9.95005 14.5904 10.0957 14.4788 10.1842 14.3258L10.9196 13.0524H12.3856C12.5624 13.0524 12.7319 12.9822 12.857 12.8572C12.982 12.7322 13.0522 12.5626 13.0522 12.3858V10.9198L14.3256 10.1838C14.4014 10.1399 14.4679 10.0816 14.5212 10.0121C14.5744 9.94253 14.6135 9.86318 14.6361 9.77854C14.6587 9.6939 14.6644 9.60564 14.6529 9.5188C14.6413 9.43197 14.6128 9.34825 14.5689 9.27244L13.8336 8.00044ZM6.33357 4.66044C6.59887 4.66053 6.85327 4.76601 7.04081 4.95367C7.22835 5.14133 7.33365 5.39581 7.33357 5.66111C7.33348 5.92642 7.228 6.18082 7.04034 6.36836C6.85268 6.55589 6.5982 6.6612 6.3329 6.66111C6.06759 6.66102 5.81319 6.55555 5.62565 6.36789C5.43812 6.18022 5.33281 5.92575 5.3329 5.66044C5.33299 5.39514 5.43846 5.14074 5.62613 4.9532C5.81379 4.76566 6.06826 4.66036 6.33357 4.66044ZM6.53357 11.0604L5.4669 10.2611L9.4669 4.92778L10.5336 5.72711L6.53357 11.0604ZM9.6669 11.3271C9.53553 11.3271 9.40546 11.3011 9.28411 11.2508C9.16276 11.2005 9.05251 11.1268 8.95965 11.0339C8.8668 10.941 8.79315 10.8307 8.74292 10.7093C8.69269 10.5879 8.66686 10.4578 8.6669 10.3264C8.66694 10.1951 8.69286 10.065 8.74317 9.94366C8.79348 9.82231 8.86721 9.71206 8.96013 9.6192C9.05305 9.52634 9.16335 9.45269 9.28473 9.40246C9.40611 9.35223 9.5362 9.3264 9.66757 9.32644C9.93287 9.32653 10.1873 9.43201 10.3748 9.61967C10.5623 9.80733 10.6677 10.0618 10.6676 10.3271C10.6675 10.5924 10.562 10.8468 10.3743 11.0344C10.1867 11.2219 9.9322 11.3272 9.6669 11.3271Z" fill="#FF5C00"/>
</svg>
