<svg preserveAspectRatio="none" width="100%" height="100%" overflow="visible" style="display: block;" viewBox="0 0 150 150" fill="none" xmlns="http://www.w3.org/2000/svg">
<g id="Group">
<path id="Vector" d="M150 75C150 33.6439 116.356 0 75 0C33.6439 0 0 33.6439 0 75C0 116.356 33.6439 150 75 150C116.356 150 150 116.356 150 75ZM2.17391 75C2.17391 34.8344 34.8344 2.22567 75 2.22567C115.166 2.22567 147.826 34.8861 147.826 75C147.826 115.114 115.166 147.826 75 147.826C34.8344 147.826 2.17391 115.114 2.17391 75V75Z" fill="var(--fill-0, white)"/>
<path id="Vector_2" d="M13.1993 75.1035H11.0254C11.0254 75.8281 11.0254 76.6045 11.0772 77.3292L13.2511 77.2774C13.1993 76.5528 13.1993 75.8281 13.1993 75.1035Z" fill="var(--fill-0, white)"/>
<path id="Vector_3" d="M11.1289 70.6523C11.0772 71.377 11.0254 72.1534 11.0254 72.878L13.1993 72.9298C13.1993 72.2051 13.2511 71.4805 13.3028 70.7559L11.1289 70.6523Z" fill="var(--fill-0, white)"/>
<path id="Vector_4" d="M13.3536 79.3994L11.1797 79.5547C11.2314 80.2793 11.2832 81.0557 11.3867 81.7804L13.5606 81.5733C13.4571 80.8487 13.4054 80.1241 13.3536 79.3994Z" fill="var(--fill-0, white)"/>
<path id="Vector_5" d="M11.5947 66.2012C11.4912 66.9258 11.3877 67.6504 11.3359 68.4268L13.5099 68.6339C13.5616 67.9092 13.6651 67.1846 13.7686 66.5117L11.5947 66.2012Z" fill="var(--fill-0, white)"/>
<path id="Vector_6" d="M13.8204 83.6953L11.6465 84.0059C11.75 84.7305 11.8535 85.4552 12.0088 86.2316L14.1827 85.8692C14.0274 85.1446 13.9239 84.42 13.8204 83.6953Z" fill="var(--fill-0, white)"/>
<path id="Vector_7" d="M12.3711 61.8018C12.2158 62.5264 12.0606 63.251 11.957 63.9757L14.1309 64.338C14.2345 63.6134 14.3897 62.9405 14.545 62.2158L12.3711 61.8018Z" fill="var(--fill-0, white)"/>
<path id="Vector_8" d="M14.544 87.9404L12.4219 88.4063C12.5772 89.1309 12.7324 89.8555 12.9395 90.5802L15.0616 90.0626C14.8546 89.3379 14.6993 88.6651 14.544 87.9404Z" fill="var(--fill-0, white)"/>
<path id="Vector_9" d="M13.4053 57.5049C13.1983 58.2295 12.9912 58.9542 12.8359 59.6788L14.9581 60.1964C15.1134 59.4718 15.3204 58.7989 15.5274 58.126L13.4053 57.5049Z" fill="var(--fill-0, white)"/>
<path id="Vector_10" d="M15.5792 92.1328L13.457 92.7539C13.6641 93.4786 13.8711 94.2032 14.1299 94.8761L16.2003 94.2032C15.9933 93.5303 15.7862 92.8057 15.5792 92.1328Z" fill="var(--fill-0, white)"/>
<path id="Vector_11" d="M14.8028 53.209C14.544 53.9336 14.2852 54.6065 14.0781 55.3311L16.1485 56.004C16.3556 55.3311 16.6144 54.6583 16.8732 53.9336L14.8028 53.209Z" fill="var(--fill-0, white)"/>
<path id="Vector_12" d="M16.9259 96.2217L14.8555 96.9981C15.1143 97.7227 15.3731 98.3956 15.6836 99.0685L17.7023 98.2403L16.9259 96.2217Z" fill="var(--fill-0, white)"/>
<path id="Vector_13" d="M18.5811 100.207L16.5625 101.087L17.4942 103.106L19.461 102.122C19.1505 101.501 18.8399 100.88 18.5811 100.207Z" fill="var(--fill-0, white)"/>
<path id="Vector_14" d="M20.4444 104.089L18.5293 105.124C18.8916 105.797 19.2539 106.418 19.6163 107.091L21.5314 106.004C21.1173 105.331 20.8067 104.71 20.4444 104.089Z" fill="var(--fill-0, white)"/>
<path id="Vector_15" d="M22.6192 107.815L20.7559 109.006C21.1699 109.627 21.5323 110.248 21.9981 110.869L23.8097 109.627C23.3956 109.006 22.9815 108.437 22.6192 107.815Z" fill="var(--fill-0, white)"/>
<path id="Vector_16" d="M25.0508 111.388L23.291 112.682C23.7051 113.303 24.1709 113.872 24.6368 114.442L26.3448 113.096C25.879 112.526 25.4649 111.957 25.0508 111.388Z" fill="var(--fill-0, white)"/>
<path id="Vector_17" d="M27.6915 114.752L26.0352 116.149C26.501 116.719 27.0186 117.288 27.4844 117.858L29.089 116.408C28.6231 115.839 28.1573 115.321 27.6915 114.752Z" fill="var(--fill-0, white)"/>
<path id="Vector_18" d="M30.5909 117.961L28.9863 119.462C29.5039 119.98 30.0215 120.549 30.5909 121.067L32.0919 119.462C31.566 118.988 31.065 118.487 30.5909 117.961V117.961Z" fill="var(--fill-0, white)"/>
<path id="Vector_19" d="M110.507 81.5738L66.873 106.781L67.5977 108.903L111.645 83.4889C112.949 82.735 114.06 81.6893 114.892 80.4338C115.723 79.1783 116.252 77.7472 116.438 76.2528C116.623 74.7584 116.46 73.2414 115.961 71.8207C115.462 70.4 114.64 69.1143 113.56 68.0645L112.163 69.7725C112.976 70.5911 113.59 71.5869 113.954 72.6819C114.319 73.7769 114.425 74.9414 114.265 76.0844C114.104 77.2273 113.681 78.3176 113.03 79.2699C112.378 80.2222 111.514 81.0108 110.507 81.5738V81.5738Z" fill="var(--fill-0, #FA4609)"/>
<path id="Vector_20" d="M59.1099 112.268H59.4205L58.6958 110.042C56.7647 109.935 54.948 109.092 53.6194 107.686C52.2908 106.28 51.5513 104.419 51.553 102.485V47.4642C51.5465 46.4469 51.7501 45.4391 52.1509 44.504C52.5516 43.5689 53.141 42.7265 53.8821 42.0295C55.31 40.6795 57.1967 39.9211 59.1617 39.9073C60.4903 39.9135 61.7938 40.2706 62.9401 40.9425L104.659 65.0108L106.108 63.3028L64.0271 39.0274C62.5548 38.1517 60.8746 37.687 59.1617 37.6816C56.5688 37.6871 54.0838 38.7195 52.2503 40.5529C50.4169 42.3864 49.3845 44.8714 49.379 47.4642V102.485C49.3722 103.767 49.6189 105.038 50.1049 106.225C50.5908 107.411 51.3065 108.49 52.2108 109.399C53.1151 110.308 54.1901 111.03 55.3741 111.522C56.558 112.014 57.8277 112.268 59.1099 112.268V112.268Z" fill="var(--fill-0, #BF3126)"/>
<path id="Vector_21" d="M138.975 75C138.98 60.1672 133.834 45.793 124.416 34.3341C114.997 22.8752 101.891 15.0431 87.3384 12.1765C72.7852 9.30992 57.6883 11.5867 44.6278 18.6178C31.5674 25.6489 21.3544 36.9978 15.7344 50.7246L17.8048 51.3975C21.39 42.707 26.9103 34.9488 33.9456 28.7131C40.9809 22.4775 49.3459 17.9288 58.404 15.4131C67.4621 12.8974 76.9748 12.4809 86.2181 14.1955C95.4614 15.91 104.192 19.7104 111.745 25.3074C119.298 30.9044 125.476 38.1505 129.807 46.4945C134.137 54.8384 136.508 64.0603 136.738 73.4585C136.968 82.8567 135.051 92.1835 131.133 100.729C127.216 109.275 121.4 116.815 114.13 122.774L115.527 124.482C122.86 118.489 128.767 110.939 132.822 102.381C136.878 93.8231 138.979 84.4703 138.975 75Z" fill="var(--fill-0, white)"/>
</g>
</svg>
