<svg preserveAspectRatio="none" width="100%" height="100%" overflow="visible" style="display: block;" viewBox="0 0 50 41.6667" fill="none" xmlns="http://www.w3.org/2000/svg">
<g id="Group">
<path id="Vector" d="M15.1965 11.5344C15.1965 10.0394 13.9804 8.82324 12.4854 8.82324H8.59399C7.09899 8.82324 5.88281 10.0394 5.88281 11.5344V14.9356C5.88281 16.4306 7.09899 17.6468 8.59399 17.6468H12.4854C13.9804 17.6468 15.1965 16.4306 15.1965 14.9356V11.5344ZM12.2554 14.7056H8.82399V11.7644H12.2554V14.7056Z" fill="var(--fill-0, #FF975D)"/>
<path id="Vector_2" d="M5.88281 20.5879H11.7652V23.5291H5.88281V20.5879Z" fill="var(--fill-0, #FF975D)"/>
<path id="Vector_3" d="M14.7051 20.5879H20.5874V23.5291H14.7051V20.5879Z" fill="var(--fill-0, #FF975D)"/>
<path id="Vector_4" d="M47.0588 20.5882V18.9775C47.0588 15.3296 44.5555 12.2555 41.1765 11.3825V3.9302C41.1765 1.76314 39.4134 0 37.2463 0H3.9302C1.76304 0 0 1.76304 0 3.9302V25.4816C0 27.6487 1.76304 29.4118 3.9302 29.4118H28.4314V30.8824C28.4314 36.8288 33.2692 41.6667 39.2157 41.6667C45.1621 41.6667 50 36.8288 50 30.8824V20.5882H47.0588ZM44.1176 18.9775V20.5882H34.3137V18.9775C34.3137 16.2746 36.5127 14.0756 39.2157 14.0756C41.9186 14.0756 44.1176 16.2746 44.1176 18.9775ZM3.9302 26.4706C3.3848 26.4706 2.94118 26.027 2.94118 25.4816V3.9302C2.94118 3.3848 3.3848 2.94118 3.9302 2.94118H37.2463C37.7916 2.94118 38.2353 3.3848 38.2353 3.9302V11.1979C34.3719 11.6822 31.3725 14.9851 31.3725 18.9776V20.5882H23.5294V23.5294H28.4314V26.4706H3.9302ZM47.0588 30.8824C47.0588 35.2071 43.5404 38.7255 39.2157 38.7255C34.891 38.7255 31.3725 35.2071 31.3725 30.8824V23.5294H47.0588V30.8824Z" fill="var(--fill-0, #FF975D)"/>
<path id="Vector_5" d="M38.1816 34.3788L44.1207 29.0337L42.153 26.8477L38.2881 30.3261L36.3335 28.3715L34.2539 30.4511L38.1816 34.3788Z" fill="var(--fill-0, #FF975D)"/>
</g>
</svg>
