<svg preserveAspectRatio="none" width="100%" height="100%" overflow="visible" style="display: block;" viewBox="0 0 50 33.824" fill="none" xmlns="http://www.w3.org/2000/svg">
<g id="Group">
<path id="Vector" d="M44.6076 17.6475C41.9693 17.6475 39.769 19.5527 39.3065 22.0592H30.3011C29.8385 19.5527 27.6382 17.6475 24.9999 17.6475C22.3616 17.6475 20.1613 19.5527 19.6987 22.0592H10.6933C10.2308 19.5527 8.03049 17.6475 5.39216 17.6475C2.41892 17.6475 0 20.0664 0 23.0396C0 26.0128 2.41892 28.4318 5.39216 28.4318C7.67372 28.4318 9.62745 27.0067 10.4136 25.0004H19.9785C20.7647 27.0067 22.7184 28.4318 25 28.4318C27.2816 28.4318 29.2353 27.0067 30.0215 25.0004H39.5864C40.3725 27.0067 42.3263 28.4318 44.6078 28.4318C47.5811 28.4318 50 26.0128 50 23.0396C50 20.0664 47.5809 17.6475 44.6076 17.6475V17.6475ZM5.39196 25.4906C4.04049 25.4906 2.94098 24.3911 2.94098 23.0396C2.94098 21.6881 4.04049 20.5886 5.39196 20.5886C6.74343 20.5886 7.84294 21.6881 7.84294 23.0396C7.84294 24.3911 6.74343 25.4906 5.39196 25.4906ZM24.9998 25.4906C23.6483 25.4906 22.5488 24.3911 22.5488 23.0396C22.5488 21.6881 23.6483 20.5886 24.9998 20.5886C26.3513 20.5886 27.4508 21.6881 27.4508 23.0396C27.4508 24.3911 26.3513 25.4906 24.9998 25.4906ZM44.6076 25.4906C43.2562 25.4906 42.1567 24.3911 42.1567 23.0396C42.1567 21.6881 43.2562 20.5886 44.6076 20.5886C45.9591 20.5886 47.0586 21.6881 47.0586 23.0396C47.0586 24.3911 45.9591 25.4906 44.6076 25.4906Z" fill="var(--fill-0, #FF975D)"/>
<path id="Vector_2" d="M10.2942 11.7647H7.35306V0H1.4707V2.94118H4.41188V11.7647H1.4707V14.7059H10.2942V11.7647Z" fill="var(--fill-0, #FF975D)"/>
<path id="Vector_3" d="M29.4116 11.7647H23.5292V10.1583L29.4116 6.72696V0H20.588V2.94118H26.4704V5.03774L20.588 8.46912V14.7059H29.4116V11.7647Z" fill="var(--fill-0, #FF975D)"/>
<path id="Vector_4" d="M20.5879 30.8828H29.4114V33.824H20.5879V30.8828Z" fill="var(--fill-0, #FF975D)"/>
<path id="Vector_5" d="M48.5286 0H39.7051V2.94118H45.5874V5.88235H41.1757V8.82353H45.5874V11.7647H39.7051V14.7059H48.5286V0Z" fill="var(--fill-0, #FF975D)"/>
</g>
</svg>
