<svg preserveAspectRatio="none" width="100%" height="100%" overflow="visible" style="display: block;" viewBox="0 0 19 19" fill="none" xmlns="http://www.w3.org/2000/svg">
<g id="Group">
<path id="Vector" d="M4.5 7.167C4.5 6.45967 4.78099 5.78131 5.28115 5.28115C5.78131 4.78099 6.45967 4.5 7.167 4.5H15.833C16.1832 4.5 16.53 4.56898 16.8536 4.70301C17.1772 4.83704 17.4712 5.03349 17.7189 5.28115C17.9665 5.5288 18.163 5.82281 18.297 6.14638C18.431 6.46996 18.5 6.81676 18.5 7.167V15.833C18.5 16.1832 18.431 16.53 18.297 16.8536C18.163 17.1772 17.9665 17.4712 17.7189 17.7189C17.4712 17.9665 17.1772 18.163 16.8536 18.297C16.53 18.431 16.1832 18.5 15.833 18.5H7.167C6.81676 18.5 6.46996 18.431 6.14638 18.297C5.82281 18.163 5.5288 17.9665 5.28115 17.7189C5.03349 17.4712 4.83704 17.1772 4.70301 16.8536C4.56898 16.53 4.5 16.1832 4.5 15.833V7.167Z" stroke="var(--stroke-0, white)" stroke-linecap="round" stroke-linejoin="round"/>
<path id="Vector_2" d="M1.512 14.237C1.205 14.0626 0.949649 13.81 0.7719 13.5049C0.594151 13.1998 0.50034 12.8531 0.5 12.5V2.5C0.5 1.4 1.4 0.5 2.5 0.5H12.5C13.25 0.5 13.658 0.885 14 1.5" stroke="var(--stroke-0, white)" stroke-linecap="round" stroke-linejoin="round"/>
</g>
</svg>
