<svg preserveAspectRatio="none" width="100%" height="100%" overflow="visible" style="display: block;" viewBox="0 0 24 24" fill="none" xmlns="http://www.w3.org/2000/svg">
<g id="whatsapp" clip-path="url(#clip0_0_107)">
<path id="Vector" d="M17.507 14.307L17.498 14.382C15.299 13.286 15.069 13.14 14.785 13.566C14.588 13.861 14.014 14.53 13.841 14.728C13.666 14.923 13.492 14.938 13.195 14.803C12.895 14.653 11.932 14.338 10.792 13.318C9.90399 12.523 9.30799 11.548 9.13199 11.248C8.83899 10.742 9.45199 10.67 10.01 9.614C10.11 9.404 10.059 9.239 9.98499 9.09C9.90999 8.94 9.31299 7.47 9.06299 6.884C8.82299 6.3 8.57599 6.374 8.39099 6.374C7.81499 6.324 7.39399 6.332 7.02299 6.718C5.40899 8.492 5.81599 10.322 7.19699 12.268C9.91099 15.82 11.357 16.474 14.001 17.382C14.715 17.609 15.366 17.577 15.881 17.503C16.455 17.412 17.648 16.782 17.897 16.077C18.152 15.372 18.152 14.787 18.077 14.652C18.003 14.517 17.807 14.442 17.507 14.307V14.307Z" fill="var(--fill-0, white)"/>
<path id="Vector_2" d="M20.52 3.44907C12.831 -3.98393 0.105992 1.40707 0.100992 11.8931C0.100992 13.9891 0.649992 16.0331 1.69599 17.8381L-7.62939e-06 24.0001L6.33499 22.3481C14.24 26.6181 23.996 20.9481 24 11.8991C24 8.72306 22.76 5.73407 20.505 3.48807L20.52 3.44907ZM22.002 11.8661C21.996 19.4991 13.617 24.2661 6.98999 20.3701L6.62999 20.1561L2.87999 21.1311L3.88499 17.4861L3.64599 17.1111C-0.478008 10.5461 4.25999 1.96607 12.072 1.96607C14.726 1.96607 17.217 3.00107 19.093 4.87607C20.968 6.73506 22.002 9.22606 22.002 11.8661V11.8661Z" fill="var(--fill-0, white)"/>
</g>
<defs>
<clipPath id="clip0_0_107">
<rect width="24" height="24" fill="white"/>
</clipPath>
</defs>
</svg>
