<svg width="20" height="20" viewBox="0 0 17.67 17.67" fill="none" xmlns="http://www.w3.org/2000/svg">
<path d="M8.83334 17.1667C9.92789 17.168 11.0119 16.9531 12.0231 16.5342C13.0344 16.1153 13.9529 15.5008 14.7258 14.7258C15.5008 13.9529 16.1153 13.0344 16.5342 12.0231C16.9531 11.0119 17.168 9.92789 17.1667 8.83334C17.168 7.73879 16.9531 6.65477 16.5342 5.64354C16.1153 4.63232 15.5008 3.71383 14.7258 2.94084C13.9529 2.16591 13.0344 1.55135 12.0231 1.13247C11.0119 0.713594 9.92789 0.498657 8.83334 0.500006C7.73879 0.498657 6.65477 0.713594 5.64354 1.13247C4.63232 1.55135 3.71383 2.16591 2.94084 2.94084C2.16591 3.71383 1.55135 4.63232 1.13247 5.64354C0.713594 6.65477 0.498657 7.73879 0.500006 8.83334C0.498657 9.92789 0.713594 11.0119 1.13247 12.0231C1.55135 13.0344 2.16591 13.9529 2.94084 14.7258C3.71383 15.5008 4.63232 16.1153 5.64354 16.5342C6.65477 16.9531 7.73879 17.168 8.83334 17.1667Z" stroke="#FF975D" stroke-linejoin="round"/>
<path d="M5.5 8.83203L8 11.332L13 6.33203" stroke="#FF975D" stroke-linecap="round" stroke-linejoin="round"/>
</svg>
