<svg width="12" height="12" viewBox="0 0 12 12" fill="none" xmlns="http://www.w3.org/2000/svg">
<g clip-path="url(#clip0)">
<path d="M6 0.5C6.71333 0.5 7.44107 0.647115 8.10059 0.921875H8.10156C8.78053 1.20325 9.37949 1.60605 9.88672 2.11328C10.394 2.62051 10.7968 3.21947 11.0781 3.89844V3.89941C11.3532 4.55972 11.5 5.26752 11.5 6C11.5 6.73506 11.3591 7.44201 11.0791 8.10547L11.0771 8.11035C10.7958 8.79512 10.3936 9.3917 9.88867 9.89062L9.88672 9.89355C9.43803 10.3422 8.9235 10.7024 8.34961 10.9746L8.10059 11.085C7.43598 11.359 6.70838 11.5 6 11.5C4.52607 11.5 3.1468 10.9263 2.11426 9.8877L2.1123 9.88574L1.92285 9.6875C1.00434 8.67934 0.5 7.37568 0.5 6C0.5 4.53328 1.07324 3.15333 2.11328 2.11328C3.15333 1.07324 4.53328 0.5 6 0.5ZM8.99219 3.62695C8.49453 3.20039 7.75946 3.28014 7.34668 3.76172L7.34277 3.7666L5.25391 6.27051L4.63477 5.64746L4.63379 5.64648L4.5459 5.56738C4.33258 5.39413 4.06785 5.30664 3.80664 5.30664H3.7998C3.53641 5.30668 3.27307 5.39587 3.06348 5.57422L2.98633 5.64648C2.75665 5.8762 2.63965 6.17832 2.63965 6.48047C2.63977 6.77678 2.75369 7.07231 2.97949 7.29199V7.29297L4.50586 8.82617L4.50684 8.82715C4.74998 9.0701 5.05918 9.16699 5.36035 9.16699H5.36816L5.37695 9.16602C5.71822 9.15425 6.01537 8.99737 6.22266 8.74609L6.22363 8.74707L9.13672 5.26074L9.1416 5.25488C9.33361 5.01769 9.42817 4.72511 9.40527 4.41602L9.40332 4.39844L9.38672 4.28809C9.33686 4.04069 9.20975 3.80243 8.99121 3.62695H8.99219Z" fill="#34A853" stroke="#34A853"/>
<path d="M8.9068 4.45582C8.92014 4.63582 8.8668 4.80248 8.75347 4.94248L5.84014 8.42915C5.72014 8.57582 5.55347 8.66248 5.36014 8.66915C5.1668 8.66915 4.99347 8.60915 4.86014 8.47582L3.33347 6.94248C3.2068 6.82248 3.14014 6.65582 3.14014 6.48248C3.14014 6.30915 3.2068 6.13582 3.34014 6.00248C3.46014 5.87582 3.6268 5.80915 3.80014 5.80915H3.8068C3.98014 5.80915 4.15347 5.87582 4.28014 6.00248L5.2868 7.01582L7.7268 4.08915C7.9668 3.80915 8.3868 3.76915 8.6668 4.00915C8.8068 4.11582 8.8868 4.27582 8.9068 4.45582Z" fill="white"/>
</g>
<defs>
<clipPath id="clip0">
<rect width="12" height="12" fill="white"/>
</clipPath>
</defs>
</svg>
