<svg width="61.0027" height="50.0404" viewBox="0 0 61.0027 50.0404" fill="none" xmlns="http://www.w3.org/2000/svg">
<g id="Group">
<path id="Vector" d="M47.3827 44.0409C47.4173 44.9182 47.468 45.6649 47.5293 46.2982C47.6347 47.4302 48.2147 48.3235 49.0893 48.7849C49.956 49.2449 51.0267 49.2302 52.0307 48.7382C53.519 48.0014 54.968 47.1879 56.372 46.3009C57.4938 45.6088 58.5768 44.8557 59.616 44.0449C60.5093 43.3342 61.0027 42.3782 61.0027 41.3729C61.0027 40.3675 60.5093 39.4102 59.616 38.6995C58.5768 37.8887 57.4938 37.1356 56.372 36.4435C54.968 35.5565 53.519 34.743 52.0307 34.0062C51.0253 33.5129 49.956 33.4995 49.088 33.9595C48.2133 34.4209 47.6347 35.3155 47.528 36.4462C47.4591 37.1985 47.4102 37.9526 47.3813 38.7075H2.66667C1.95942 38.7075 1.28115 38.9885 0.781049 39.4886C0.280952 39.9887 0 40.6669 0 41.3742C0 42.0814 0.280952 42.7597 0.781049 43.2598C1.28115 43.7599 1.95942 44.0409 2.66667 44.0409H47.3827Z" fill="var(--fill-0, #FF975D)"/>
<path id="Vector_2" fill-rule="evenodd" clip-rule="evenodd" d="M23.3333 20.0417V4.53498C23.3333 1.65765 25.972 -0.623683 28.9213 0.15365C31.332 0.788317 35.0373 1.89898 39.8813 3.74832C41.6162 4.40377 43.33 5.1139 45.02 5.87765C47.068 6.81232 48.6107 8.52165 48.612 10.707C48.612 12.8936 47.068 14.6017 45.02 15.5377C43.656 16.1603 41.9693 16.871 39.8813 17.667C35.3707 19.387 31.8493 20.4683 29.4387 21.1217C28.7399 21.312 28.038 21.4907 27.3333 21.6576V33.375C27.3333 33.9054 27.1226 34.4141 26.7475 34.7892C26.3725 35.1643 25.8638 35.375 25.3333 35.375C24.8029 35.375 24.2942 35.1643 23.9191 34.7892C23.544 34.4141 23.3333 33.9054 23.3333 33.375V20.0417Z" fill="var(--fill-0, #FF975D)"/>
<path id="Vector_3" d="M25.3332 32.707C23.0346 32.707 20.8302 33.6201 19.2049 35.2454C17.5796 36.8708 16.6665 39.0752 16.6665 41.3737C16.6665 43.6722 17.5796 45.8766 19.2049 47.502C20.8302 49.1273 23.0346 50.0404 25.3332 50.0404C27.6317 50.0404 29.8361 49.1273 31.4614 47.502C33.0867 45.8766 33.9998 43.6722 33.9998 41.3737C33.9998 39.0752 33.0867 36.8708 31.4614 35.2454C29.8361 33.6201 27.6317 32.707 25.3332 32.707Z" fill="var(--fill-0, #FF5C00)"/>
</g>
</svg>
