<svg width="63.7075" height="61.7265" viewBox="0 0 63.7075 61.7265" fill="none" xmlns="http://www.w3.org/2000/svg">
<g id="Group">
<path id="Vector" fill-rule="evenodd" clip-rule="evenodd" d="M10.9943 0.465454C19.73 -0.155151 28.4987 -0.155151 37.2343 0.465454C42.8892 0.86774 47.4652 5.13288 47.7349 10.614C47.9025 13.9695 48.0275 17.3858 48.1098 20.8632H42.4869C42.5136 19.0973 42.0853 17.3544 41.243 15.8021C40.4008 14.2499 39.173 12.9406 37.6781 12.0004C36.1831 11.0603 34.4712 10.5209 32.7073 10.4342C30.9434 10.3475 29.1869 10.7164 27.6069 11.5055C21.4355 14.5912 15.6481 20.3786 12.5669 26.5455C11.8524 27.974 11.4804 29.5493 11.4804 31.1466C11.4804 32.7439 11.8524 34.3192 12.5669 35.7477C15.6481 41.9192 21.4355 47.7066 27.6069 50.7877C29.1867 51.5777 30.9433 51.9474 32.7075 51.8615C34.4716 51.7755 36.184 51.2367 37.6795 50.297C39.175 49.3572 40.4033 48.0482 41.2461 46.496C42.0889 44.9438 42.5178 43.2007 42.4915 41.4346H48.0961C48.015 44.6618 47.8946 47.888 47.7349 51.1123C47.4606 56.5935 42.8892 60.854 37.2389 61.2609C28.5017 61.8817 19.7315 61.8817 10.9943 61.2609C5.33948 60.8495 0.768056 56.5889 0.49377 51.1123C0.161145 44.367 -0.00347778 37.6144 5.56869e-05 30.8609C5.56869e-05 23.9123 0.169199 17.1466 0.49377 10.614C0.768056 5.13288 5.33948 0.86774 10.9943 0.465454Z" fill="var(--fill-0, #FF975D)"/>
<path id="Vector_2" fill-rule="evenodd" clip-rule="evenodd" d="M36.7086 21.4976C36.8556 20.6636 36.768 19.8052 36.4557 19.0181C36.1433 18.2309 35.6185 17.546 34.9396 17.0397C34.2608 16.5335 33.4546 16.2257 32.6111 16.1507C31.7676 16.0758 30.9198 16.2367 30.1624 16.6153C25.0972 19.1479 20.2058 24.0393 17.6732 29.0999C17.3554 29.735 17.1899 30.4354 17.1899 31.1456C17.1899 31.8558 17.3554 32.5562 17.6732 33.1913C20.2058 38.2519 25.0972 43.1479 30.1624 45.6759C30.9194 46.0542 31.7667 46.2149 32.6097 46.1401C33.4527 46.0653 34.2584 45.758 34.9371 45.2523C35.6157 44.7466 36.1407 44.0625 36.4535 43.2761C36.7663 42.4897 36.8546 41.6319 36.7086 40.7982L35.8126 35.7193H59.1361C60.3485 35.7193 61.5113 35.2377 62.3686 34.3804C63.2259 33.5231 63.7075 32.3603 63.7075 31.1479C63.7075 29.9355 63.2259 28.7727 62.3686 27.9154C61.5113 27.0581 60.3485 26.5765 59.1361 26.5765H35.8126L36.7086 21.4976Z" fill="var(--fill-0, #FF5C00)"/>
</g>
</svg>
