<svg width="260" height="260" viewBox="0 0 260 260" fill="none" xmlns="http://www.w3.org/2000/svg">
<g id="Group 1055">
<g id="Ellipse 54" filter="url(#filter0_f_0_52)">
<circle cx="130" cy="130" r="80" fill="var(--fill-0, #FF5C00)" fill-opacity="0.2"/>
</g>
<g id="ix:certificate-success-filled">
<path id="Vector" fill-rule="evenodd" clip-rule="evenodd" d="M136.825 80.0218L144.527 86.5713C146.205 87.9983 148.29 88.8618 150.486 89.0396L160.562 89.8539C165.696 90.2688 169.771 94.3442 170.186 99.4777L171.001 109.554C171.178 111.75 172.042 113.835 173.469 115.513L180.018 123.214C183.355 127.138 183.355 132.901 180.018 136.824L173.469 144.526C172.042 146.204 171.178 148.289 171 150.485L170.186 160.561C169.771 165.695 165.696 169.77 160.562 170.185L150.486 171C148.29 171.177 146.205 172.041 144.527 173.468L136.825 180.017C132.902 183.354 127.139 183.354 123.215 180.017L115.514 173.468C113.836 172.041 111.751 171.177 109.555 170.999L99.4787 170.185C94.3451 169.77 90.2698 165.695 89.8549 160.561L89.0403 150.485C88.8625 148.289 87.9991 146.204 86.572 144.526L80.0227 136.824C76.6864 132.901 76.6864 127.138 80.0227 123.214L86.5723 115.513C87.9993 113.835 88.8628 111.75 89.0406 109.554L89.8549 99.4777C90.2698 94.3442 94.3451 90.2688 99.4787 89.8539L109.555 89.0394C111.751 88.8616 113.836 87.9981 115.514 86.571L123.215 80.0218C127.139 76.6855 132.902 76.6855 136.825 80.0218ZM149.77 111.242L124.75 136.398L112.712 124.36L105.288 131.784L124.75 151.246L157.194 118.666L149.77 111.242Z" fill="var(--fill-0, #FF5C00)"/>
</g>
</g>
<defs>
<filter id="filter0_f_0_52" x="0" y="0" width="260" height="260" filterUnits="userSpaceOnUse" color-interpolation-filters="sRGB">
<feFlood flood-opacity="0" result="BackgroundImageFix"/>
<feBlend mode="normal" in="SourceGraphic" in2="BackgroundImageFix" result="shape"/>
<feGaussianBlur stdDeviation="25" result="effect1_foregroundBlur_0_52"/>
</filter>
</defs>
</svg>
