<svg width="62.6667" height="62.6667" viewBox="0 0 62.6667 62.6667" fill="none" xmlns="http://www.w3.org/2000/svg">
<g id="Group">
<path id="Vector" fill-rule="evenodd" clip-rule="evenodd" d="M50.9241 1.84628C49.6601 -0.464385 46.3401 -0.464385 45.0761 1.84628L42.4201 6.70228C41.8695 7.70915 41.0417 8.53698 40.0348 9.08761L35.1788 11.7436C32.8681 13.0076 32.8681 16.3276 35.1788 17.5916L40.0348 20.2476C41.0417 20.7982 41.8695 21.6261 42.4201 22.633L45.0761 27.4889C46.3401 29.7996 49.6601 29.7996 50.9241 27.4889L53.5801 22.633C54.1308 21.6261 54.9586 20.7982 55.9655 20.2476L60.8215 17.5916C63.1321 16.3276 63.1321 13.0076 60.8215 11.7436L55.9655 9.08761C54.9586 8.53698 54.1308 7.70915 53.5801 6.70228L50.9241 1.84628Z" fill="var(--fill-0, #FF5C00)"/>
<path id="Vector_2" fill-rule="evenodd" clip-rule="evenodd" d="M14.6667 0C10.6627 0 7.82667 0.221333 5.85333 0.489333C2.53333 0.942667 0.408 3.58667 0.208 6.73333C0.092 8.528 0 11.0827 0 14.6667C0 18.2507 0.092 20.8053 0.206667 22.6013C0.406667 25.748 2.53467 28.3907 5.85467 28.844C7.82667 29.112 10.6627 29.3333 14.6667 29.3333C18.6707 29.3333 21.5067 29.112 23.48 28.844C26.8 28.3907 28.9267 25.748 29.1267 22.6013C29.2413 20.8053 29.3333 18.2507 29.3333 14.6667C29.3333 11.0827 29.2413 8.528 29.1267 6.732C28.9267 3.58533 26.8 0.942667 23.4787 0.489333C21.5067 0.221333 18.6707 0 14.6667 0ZM14.6667 62.6667C10.6627 62.6667 7.82667 62.4453 5.85333 62.1773C2.53333 61.724 0.408 59.08 0.208 55.9333C0.092 54.1387 0 51.584 0 48C0 44.416 0.092 41.8613 0.206667 40.0653C0.406667 36.9187 2.53467 34.276 5.85467 33.8227C7.82667 33.5547 10.6627 33.3333 14.6667 33.3333C18.6707 33.3333 21.5067 33.5547 23.48 33.8227C26.8 34.276 28.9267 36.9187 29.1267 40.0653C29.2413 41.8613 29.3333 44.416 29.3333 48C29.3333 51.584 29.2413 54.1387 29.1267 55.9347C28.9267 59.0813 26.8 61.724 23.4787 62.1773C21.5067 62.4453 18.6707 62.6667 14.6667 62.6667ZM62.1773 56.8133C62.4453 54.84 62.6667 52.004 62.6667 48C62.6667 43.996 62.4453 41.16 62.1773 39.1867C61.724 35.8667 59.0813 33.74 55.9347 33.54C54.1387 33.4253 51.584 33.3333 48 33.3333C44.416 33.3333 41.8613 33.4253 40.0653 33.54C36.9187 33.74 34.276 35.8667 33.8227 39.188C33.5547 41.16 33.3333 43.996 33.3333 48C33.3333 52.004 33.5547 54.84 33.8227 56.8133C34.276 60.1333 36.9187 62.26 40.0653 62.46C41.8613 62.5747 44.416 62.6667 48 62.6667C51.584 62.6667 54.1387 62.5747 55.9347 62.46C59.0813 62.26 61.724 60.1347 62.1773 56.8133Z" fill="var(--fill-0, #FF975D)"/>
</g>
</svg>
