<svg width="25" height="25" viewBox="0 0 25 25" fill="none" xmlns="http://www.w3.org/2000/svg">
<g id="tap">
<path id="Vector" d="M20.8333 9.375C20.4488 9.375 20.0882 9.47978 19.7785 9.66235C19.6619 8.62275 18.778 7.8125 17.7083 7.8125C17.1997 7.8125 16.7323 7.99663 16.3691 8.30332C16.0044 7.69756 15.3407 7.29165 14.5833 7.29165C14.2044 7.29165 13.8484 7.39336 13.5417 7.57139V2.08335C13.5416 0.934326 12.6073 0 11.4583 0C10.3094 0 9.37499 0.934326 9.37499 2.08335V16.0228C9.37499 16.2852 9.20204 16.42 9.12777 16.4658C9.0535 16.5116 8.8536 16.6057 8.62118 16.4887L5.27645 14.8163C4.97176 14.6637 4.6305 14.5833 4.28973 14.5833C3.07308 14.5833 2.08329 15.5731 2.08329 16.7898V17.1875C2.08329 17.3319 2.1433 17.4698 2.24857 17.5685L8.26005 23.1791C9.51844 24.353 11.1593 25 12.8799 25H16.1458C19.8791 25 22.9166 21.9625 22.9166 18.2292V11.4583C22.9166 10.3093 21.9823 9.375 20.8333 9.375Z" fill="var(--fill-0, #303C42)"/>
<path id="Vector_2" d="M21.875 18.2304C21.875 21.3895 19.3049 23.9596 16.1458 23.9596H12.88C11.4243 23.9596 10.0357 23.4123 8.97119 22.4184L3.125 16.9625V16.7911C3.125 16.1486 3.64736 15.6263 4.28975 15.6263C4.46929 15.6263 4.64985 15.669 4.8106 15.7494L8.15532 17.4217C8.64312 17.6664 9.21172 17.6394 9.67559 17.3536C10.1395 17.0667 10.4167 16.5698 10.4167 16.024V2.08462C10.4167 1.5104 10.8841 1.04297 11.4583 1.04297C12.0325 1.04297 12.5 1.51035 12.5 2.08462V9.89712C12.5 10.185 12.733 10.418 13.0208 10.418C13.3087 10.418 13.5417 10.185 13.5417 9.89712V9.37627C13.5417 8.80205 14.0091 8.33462 14.5833 8.33462C15.1576 8.33462 15.625 8.80205 15.625 9.37627V9.89712C15.625 9.89815 15.625 9.89917 15.625 9.9002V9.90069C15.6271 10.1865 15.8595 10.418 16.1458 10.418C16.4337 10.418 16.6667 10.185 16.6667 9.89712V9.88897C16.6708 9.3188 17.1377 8.85542 17.7083 8.85542C18.2826 8.85542 18.75 9.32286 18.75 9.89707V11.4596C18.75 11.7475 18.983 11.9804 19.2708 11.9804C19.5587 11.9804 19.7917 11.7475 19.7917 11.4596C19.7917 10.8854 20.2591 10.4179 20.8333 10.4179C21.4076 10.4179 21.875 10.8854 21.875 11.4596V18.2304V18.2304Z" fill="var(--fill-0, #FAFAFA)"/>
<path id="Vector_3" opacity="0.1" d="M20.8333 10.418V17.1888C20.8333 20.3479 18.406 22.918 15.4224 22.918H12.338C10.9632 22.918 9.65176 22.3707 8.64639 21.3768C8.64639 21.3768 3.125 16.5454 3.125 16.791V16.9624L8.97114 22.4185C10.0357 23.4123 11.4243 23.9596 12.8799 23.9596H16.1458C19.3049 23.9596 21.875 21.3896 21.875 18.2305V11.4597C21.875 10.8854 21.4075 10.418 20.8333 10.418Z" fill="var(--fill-0, black)"/>
<path id="Vector_4" d="M20.8333 9.375C20.4488 9.375 20.0882 9.47978 19.7785 9.66235C19.6619 8.62275 18.778 7.8125 17.7083 7.8125C17.1997 7.8125 16.7323 7.99663 16.3691 8.30332C16.0044 7.69756 15.3407 7.29165 14.5833 7.29165C14.2044 7.29165 13.8484 7.39336 13.5417 7.57139V2.08335C13.5416 0.934326 12.6073 0 11.4583 0C10.3094 0 9.37499 0.934326 9.37499 2.08335V16.0228C9.37499 16.2852 9.20204 16.42 9.12777 16.4658C9.0535 16.5116 8.8536 16.6057 8.62118 16.4887L5.27645 14.8163C4.97176 14.6637 4.6305 14.5833 4.28973 14.5833C3.07308 14.5833 2.08329 15.5731 2.08329 16.7898V17.1875C2.08329 17.3319 2.1433 17.4698 2.24857 17.5685L8.26005 23.1791C9.51844 24.353 11.1593 25 12.8799 25H16.1458C19.8791 25 22.9166 21.9625 22.9166 18.2292V11.4583C22.9166 10.3093 21.9823 9.375 20.8333 9.375Z" fill="url(#paint0_linear_0_111)"/>
</g>
<defs>
<linearGradient id="paint0_linear_0_111" x1="5.2479" y1="9.51634" x2="23.6729" y2="18.109" gradientUnits="userSpaceOnUse">
<stop stop-color="white" stop-opacity="0.2"/>
<stop offset="1" stop-color="white" stop-opacity="0"/>
</linearGradient>
</defs>
</svg>
