<svg width="63.0041" height="64.0007" viewBox="0 0 63.0041 64.0007" fill="none" xmlns="http://www.w3.org/2000/svg">
<g id="Group">
<path id="Vector" fill-rule="evenodd" clip-rule="evenodd" d="M28.7589 15.1001C28.9691 17.4178 30.0891 19.6669 32.1189 21.2624C33.4263 22.2864 34.816 23.0178 35.6663 23.4658L36.0503 23.6715C36.896 24.1287 37.4217 24.4669 37.9794 25.0247C38.5371 25.5824 38.8754 26.1081 39.3371 26.9538L39.5429 27.3424C39.9909 28.1972 40.7223 29.5824 41.7463 30.8852C42.5865 31.9643 43.6661 32.8333 44.8998 33.4235C46.1334 34.0138 47.4874 34.3092 48.8549 34.2864C48.9646 35.993 49.0225 37.7271 49.0286 39.4887C49.0286 43.5024 48.6811 47.4064 48.2834 51.1184C47.9375 54.202 46.5561 57.0772 44.3649 59.2743C42.1737 61.4713 39.3021 62.8603 36.2194 63.2144C32.4891 63.6304 28.5577 64.0007 24.5166 64.0007C20.4754 64.0007 16.5394 63.6349 12.8091 63.2144C9.72643 62.8603 6.85489 61.4713 4.66366 59.2743C2.47243 57.0772 1.09103 54.202 0.745143 51.1184C0.347429 47.4064 0 43.5024 0 39.4887C0 35.4749 0.347429 31.5709 0.745143 27.8589C1.09006 24.7745 2.47103 21.8982 4.66235 19.7003C6.85367 17.5023 9.72573 16.1126 12.8091 15.7584C16.5394 15.3469 20.4709 14.9767 24.512 14.9767C25.9444 14.9767 27.36 15.0178 28.7589 15.1001Z" fill="var(--fill-0, #FF975D)"/>
<path id="Vector_2" fill-rule="evenodd" clip-rule="evenodd" d="M42.016 7.58923C43.3326 6.27723 43.9954 5.02923 44.6446 3.80409C45.1063 2.93551 45.5589 2.07609 46.2354 1.21666C46.529 0.837937 46.9053 0.531402 47.3355 0.32052C47.7658 0.109638 48.2386 0 48.7177 0C49.1969 0 49.6697 0.109638 50.0999 0.32052C50.5302 0.531402 50.9065 0.837937 51.2 1.21666C51.8766 2.07609 52.3291 2.93551 52.7909 3.80409C53.44 5.02923 54.1029 6.27266 55.4149 7.58923C56.7269 8.9058 57.9749 9.56409 59.2046 10.2132C60.0731 10.6704 60.928 11.1275 61.7874 11.8041C62.1661 12.0976 62.4727 12.4739 62.6836 12.9042C62.8944 13.3344 63.0041 13.8072 63.0041 14.2864C63.0041 14.7655 62.8944 15.2383 62.6836 15.6686C62.4727 16.0988 62.1661 16.4751 61.7874 16.7687C60.928 17.4452 60.0686 17.8978 59.2046 18.3595C57.9749 19.0087 56.7269 19.6715 55.4149 20.9835C54.1029 22.2955 53.44 23.5435 52.7909 24.7687C52.3337 25.6372 51.8766 26.4967 51.2 27.3561C50.9065 27.7348 50.5302 28.0413 50.0999 28.2522C49.6697 28.4631 49.1969 28.5727 48.7177 28.5727C48.2386 28.5727 47.7658 28.4631 47.3355 28.2522C46.9053 28.0413 46.529 27.7348 46.2354 27.3561C45.5589 26.4967 45.1063 25.6372 44.6446 24.7687C43.9954 23.5435 43.3326 22.3001 42.0206 20.9835C40.7086 19.6669 39.4606 19.0087 38.2354 18.3595C37.3669 17.9024 36.5074 17.4452 35.648 16.7687C35.2693 16.4751 34.9627 16.0988 34.7519 15.6686C34.541 15.2383 34.4313 14.7655 34.4313 14.2864C34.4313 13.8072 34.541 13.3344 34.7519 12.9042C34.9627 12.4739 35.2693 12.0976 35.648 11.8041C36.5074 11.1275 37.3669 10.6749 38.2354 10.2132C39.4606 9.56409 40.6994 8.90123 42.016 7.58923ZM24.352 64.0007C20.3657 63.9915 16.4891 63.6258 12.8091 63.2144C11.1718 63.0279 9.58138 62.5479 8.11429 61.7972C8.06699 61.604 8.06231 61.4028 8.10057 61.2075C8.896 57.5184 11.0217 53.8932 13.9657 51.4887C16.1924 49.6689 18.8514 48.4551 21.6851 47.9649C24.5187 47.4748 27.4309 47.7249 30.1395 48.6911C32.8481 49.6573 35.2611 51.3067 37.1449 53.4796C39.0286 55.6524 40.3192 58.275 40.8914 61.0932C40.9114 61.191 40.9206 61.2906 40.9189 61.3904V61.5092C40.9156 61.6143 40.9002 61.7186 40.8731 61.8201C39.4187 62.5576 37.8443 63.0297 36.224 63.2144C32.4937 63.6304 28.5623 64.0007 24.5211 64.0007H24.352ZM33.056 34.6429C33.056 39.9001 30.0983 42.8578 24.8411 42.8578C19.584 42.8578 16.6263 39.9001 16.6263 34.6429C16.6263 29.3858 19.584 26.4281 24.8411 26.4281C30.0983 26.4281 33.056 29.3858 33.056 34.6429Z" fill="var(--fill-0, #FF5C00)"/>
</g>
</svg>
