<svg width="24" height="24" viewBox="0 0 24 24" fill="none" xmlns="http://www.w3.org/2000/svg">
<path fill-rule="evenodd" clip-rule="evenodd" d="M21.4549 5.41534C21.5499 5.55955 21.5922 5.73212 21.5747 5.90393C21.5573 6.07573 21.481 6.23624 21.3589 6.35834L12.1659 15.5503C12.0718 15.6443 11.9545 15.7116 11.8259 15.7453L7.99689 16.7453C7.87032 16.7784 7.73732 16.7777 7.61109 16.7434C7.48485 16.7091 7.36978 16.6424 7.27729 16.5499C7.18479 16.4575 7.1181 16.3424 7.08382 16.2161C7.04955 16.0899 7.04888 15.9569 7.08189 15.8303L8.08189 12.0023C8.1118 11.8877 8.16679 11.7811 8.24289 11.6903L17.4699 2.46934C17.6105 2.32889 17.8011 2.25 17.9999 2.25C18.1986 2.25 18.3893 2.32889 18.5299 2.46934L21.3589 5.29734C21.3938 5.33418 21.4259 5.37363 21.4549 5.41534ZM19.7679 5.82734L17.9999 4.06034L9.48189 12.5783L8.85689 14.9713L11.2499 14.3463L19.7679 5.82734Z" fill="white"/>
<path d="M19.641 17.16C19.9143 14.824 20.0016 12.4699 19.902 10.12C19.8997 10.0646 19.9088 10.0094 19.929 9.95771C19.9491 9.90606 19.9798 9.85917 20.019 9.82L21.003 8.836C21.0299 8.80896 21.064 8.79026 21.1013 8.78214C21.1385 8.77403 21.1773 8.77685 21.213 8.79026C21.2487 8.80368 21.2798 8.82711 21.3025 8.85775C21.3252 8.8884 21.3386 8.92494 21.341 8.963C21.5257 11.7542 21.4554 14.5565 21.131 17.335C20.895 19.357 19.271 20.942 17.258 21.167C13.7633 21.5538 10.2367 21.5538 6.742 21.167C4.73 20.942 3.105 19.357 2.869 17.335C2.45511 13.7904 2.45511 10.2096 2.869 6.665C3.105 4.643 4.729 3.058 6.742 2.833C9.39445 2.54005 12.0667 2.4688 14.731 2.62C14.7691 2.62274 14.8057 2.63635 14.8363 2.65921C14.8669 2.68208 14.8904 2.71324 14.9039 2.74902C14.9173 2.7848 14.9203 2.82368 14.9123 2.86107C14.9044 2.89847 14.8859 2.9328 14.859 2.96L13.866 3.952C13.8272 3.99085 13.7808 4.02128 13.7297 4.04141C13.6786 4.06154 13.6239 4.07093 13.569 4.069C11.3458 3.99285 9.11991 4.07807 6.909 4.324C6.26294 4.39551 5.65985 4.68272 5.19715 5.13925C4.73446 5.59578 4.43917 6.19496 4.359 6.84C3.95786 10.2683 3.95786 13.7317 4.359 17.16C4.43917 17.805 4.73446 18.4042 5.19715 18.8607C5.65985 19.3173 6.26294 19.6045 6.909 19.676C10.264 20.051 13.736 20.051 17.092 19.676C17.7381 19.6045 18.3411 19.3173 18.8038 18.8607C19.2665 18.4042 19.5608 17.805 19.641 17.16Z" fill="white"/>
</svg>
