<svg width="53" height="21" viewBox="0 0 53 21" fill="none" xmlns="http://www.w3.org/2000/svg">
<g id="logos:google-pay" clip-path="url(#clip0_0_79)">
<path id="Vector" d="M37.5688 5.66616C39.0257 5.66616 40.1517 6.06135 41.0127 6.85174C41.8737 7.64201 42.2709 8.69582 42.2709 10.0131V16.3357H40.4166V14.8869H40.3503C39.5556 16.0725 38.4297 16.6652 37.1051 16.6652C35.9792 16.6652 34.9857 16.3358 34.191 15.6773C33.4625 15.0187 32.9988 14.0966 32.9988 13.1087C32.9988 12.0549 33.3962 11.1986 34.191 10.54C34.9857 9.8814 36.1117 9.61797 37.4363 9.61797C38.6283 9.61797 39.5556 9.81562 40.2841 10.2766V9.81562C40.2841 9.20085 40.0533 8.58619 39.5918 8.18565L39.4893 8.10319C38.9595 7.64212 38.2972 7.37869 37.5688 7.37869C36.4428 7.37869 35.5818 7.83973 34.9857 8.76181L33.2638 7.70779C34.3234 6.32468 35.7143 5.66616 37.5688 5.66616ZM28.2304 1.1875C29.4188 1.1875 30.5481 1.59875 31.4511 2.36566L31.6081 2.50463C32.5353 3.29501 32.9988 4.48059 32.9988 5.73194C32.9988 6.98329 32.5353 8.10298 31.6081 8.95915C30.6809 9.81531 29.555 10.2764 28.2304 10.2764L25.0514 10.2105V16.3357H23.0645V1.1875H28.2304ZM37.8335 11.1985C37.0388 11.1985 36.3766 11.3961 35.8468 11.7913C35.3169 12.1205 35.052 12.5815 35.052 13.1743C35.052 13.7012 35.317 14.1622 35.7143 14.4257C36.1779 14.755 36.7077 14.9526 37.2376 14.9526C37.9793 14.9526 38.7211 14.6657 39.3013 14.1455L39.4231 14.0305C40.0854 13.4378 40.4166 12.7133 40.4166 11.9229C39.8205 11.462 38.9595 11.1984 37.8336 11.1984M28.363 3.03149H25.0515V8.30074H28.363C29.0914 8.30074 29.82 8.03731 30.2836 7.51046C31.3432 6.52253 31.3432 4.87599 30.3499 3.88796L30.2836 3.82207C29.7537 3.29522 29.0914 2.96591 28.3629 3.03179M53.0001 5.99547L46.4435 20.9461H44.4566L46.907 15.7431L42.6021 6.06135H44.7215L47.8342 13.5037H47.9004L50.947 6.06135H53.0001V5.99547Z" fill="var(--fill-0, white)"/>
<path id="Vector_2" d="M17.1707 8.89539C17.1707 8.30266 17.1045 7.70992 17.0382 7.11719H8.75977V10.4762H13.462C13.2633 11.5299 12.6673 12.5178 11.7401 13.1106V15.284H14.5879C16.2436 13.7692 17.1708 11.5299 17.1708 8.8955" fill="var(--fill-0, #4285F4)"/>
<path id="Vector_3" d="M8.75837 17.391C11.1425 17.391 13.1294 16.6006 14.5865 15.2834L11.7387 13.11C10.9439 13.6368 9.95046 13.9661 8.75837 13.9661C6.5065 13.9661 4.51962 12.4514 3.85732 10.3438H0.943359V12.583C2.46659 15.5468 5.44691 17.391 8.75837 17.391Z" fill="var(--fill-0, #34A853)"/>
<path id="Vector_4" d="M3.85779 10.3443C3.4605 9.29054 3.4605 8.10506 3.85779 6.98537V4.74609H0.94383C-0.31461 7.18302 -0.31461 10.0809 0.94383 12.5836L3.85779 10.3443Z" fill="var(--fill-0, #FBBC04)"/>
<path id="Vector_5" d="M8.75887 3.42835C10.0172 3.42835 11.2093 3.88943 12.1366 4.74559L14.6533 2.24288C13.0637 0.793883 10.9444 -0.0622794 8.82502 0.0035C5.51355 0.0035 2.46709 1.84769 1.01 4.81147L3.92407 7.05075C4.52011 4.94313 6.50699 3.42835 8.75887 3.42835Z" fill="var(--fill-0, #EA4335)"/>
</g>
<defs>
<clipPath id="clip0_0_79">
<rect width="53" height="21" fill="white"/>
</clipPath>
</defs>
</svg>
