<svg width="22" height="14" viewBox="0 0 22 14" fill="none" xmlns="http://www.w3.org/2000/svg">
<g id="Master">
<path id="Rectangle 1" fill-rule="evenodd" clip-rule="evenodd" d="M20.35 1.41605e-07C19.25 2.47302e-07 7.60386 -2.24446e-07 1.1 1.41605e-07C0.55 1.72561e-07 0 0.56 0 1.12V12.32C-6.36625e-08 13.44 0.55 14 1.65 14C7.78569 14 19.25 14 20.35 14C21.45 14 22 13.44 22 12.32V1.68C22 0.56 21.45 1.41605e-07 20.35 1.41605e-07Z" fill="var(--fill-0, #265697)"/>
<path id="path2268" fill-rule="evenodd" clip-rule="evenodd" d="M20.5625 7.07172C20.5634 10.325 18.0014 12.9628 14.8403 12.9637C11.6791 12.9645 9.11607 10.328 9.11523 7.07471V7.07172C9.11439 3.8185 11.6763 1.18055 14.8373 1.17969C17.9985 1.17882 20.5616 3.81544 20.5625 7.06872V7.07172C20.5625 7.07065 20.5625 7.07172 20.5625 7.07172Z" fill="var(--fill-0, #DFAC16)"/>
<path id="path1350" fill-rule="evenodd" clip-rule="evenodd" d="M7.12426 1.17972C3.98186 1.20026 1.4375 3.83136 1.4375 7.07022C1.4375 10.3217 4.00169 12.9607 7.16115 12.9607C8.64398 12.9607 9.99561 12.3791 11.0127 11.4259C11.0126 11.4259 11.0125 11.4258 11.0122 11.4256H11.0135C11.2217 11.2303 11.416 11.0196 11.5945 10.7949H10.4219C10.2653 10.6002 10.123 10.3974 9.99516 10.1881H12.0176C12.1406 9.98552 12.2519 9.77517 12.3508 9.55732H9.66126C9.56959 9.35508 9.49001 9.14826 9.42205 8.93845H12.5902C12.7812 8.3513 12.8848 7.72312 12.8848 7.07015C12.8848 6.63723 12.8392 6.21515 12.7529 5.80875H9.25403C9.29738 5.5996 9.35209 5.39298 9.41734 5.18995H12.5867C12.5158 4.97389 12.4335 4.76335 12.3399 4.55925H9.66093C9.75757 4.34678 9.86706 4.14009 9.98935 3.94052H12.0103C11.8758 3.72 11.727 3.50932 11.566 3.30975H10.4393C10.6135 3.09874 10.8053 2.90003 11.0135 2.71475C9.99632 1.76142 8.6443 1.17972 7.16115 1.17972C7.14881 1.17972 7.1366 1.17965 7.12426 1.17972C7.1366 1.17965 7.12426 1.17972 7.12426 1.17972Z" fill="var(--fill-0, #BF3126)"/>
<path id="path4157" fill-rule="evenodd" clip-rule="evenodd" d="M9.21975 8.56939L9.29604 8.03628C9.25438 8.03628 9.19307 8.05463 9.13901 8.05463C8.92687 8.05463 8.90349 7.93856 8.91699 7.85273L9.08836 6.76498H9.41077L9.48861 6.1753H9.18461L9.2465 5.80859H8.63709C8.62365 5.82242 8.27734 7.87101 8.27734 8.12045C8.27734 8.48975 8.47882 8.65422 8.76292 8.65156C8.98539 8.64963 9.15864 8.58628 9.21975 8.56939C9.15864 8.58628 9.21975 8.56939 9.21975 8.56939Z" fill="var(--fill-0, white)"/>
<path id="path4155" fill-rule="evenodd" clip-rule="evenodd" d="M9.41211 7.55301C9.41211 8.43933 9.98057 8.64994 10.4649 8.64994C10.9119 8.64994 11.1086 8.5471 11.1086 8.5471L11.2159 7.94219C11.2159 7.94219 10.8759 8.09636 10.5688 8.09636C9.91442 8.09636 10.029 7.59423 10.029 7.59423H11.2675C11.2675 7.59423 11.3474 7.18784 11.3474 7.02223C11.3474 6.60899 11.1476 6.10547 10.4785 6.10547C9.86571 6.1056 9.41211 6.7851 9.41211 7.55301C9.41211 6.7851 9.41211 7.55301 9.41211 7.55301ZM10.4808 6.66716C10.8247 6.66716 10.7613 7.06492 10.7613 7.09709H10.0847C10.0847 7.05601 10.1486 6.66716 10.4808 6.66716C10.1486 6.66716 10.4808 6.66716 10.4808 6.66716Z" fill="var(--fill-0, white)"/>
<path id="path4151" fill-rule="evenodd" clip-rule="evenodd" d="M14.3409 8.57145L14.4499 7.8877C14.4499 7.8877 14.1509 8.042 13.9456 8.042C13.5134 8.042 13.34 7.70229 13.34 7.33731C13.34 6.59692 13.7119 6.18959 14.126 6.18959C14.4365 6.18959 14.6857 6.36902 14.6857 6.36902L14.7852 5.70468C14.7852 5.70468 14.4157 5.55078 14.0989 5.55078C13.3953 5.55078 12.7109 6.17889 12.7109 7.35852C12.7109 8.14073 13.0805 8.65735 13.8077 8.65735C14.0133 8.65741 14.3409 8.57145 14.3409 8.57145Z" fill="var(--fill-0, white)"/>
<path id="path4149" fill-rule="evenodd" clip-rule="evenodd" d="M5.86696 6.11719C5.44908 6.11719 5.12874 6.2554 5.12874 6.2554L5.04031 6.79569C5.04031 6.79569 5.3047 6.68513 5.70437 6.68513C5.9313 6.68513 6.09731 6.71139 6.09731 6.90119C6.09731 7.01647 6.07697 7.05902 6.07697 7.05902C6.07697 7.05902 5.89797 7.04359 5.81509 7.04359C5.28804 7.04359 4.73438 7.27508 4.73438 7.97299C4.73438 8.52291 5.09761 8.64909 5.32273 8.64909C5.75269 8.64909 5.93802 8.36197 5.9479 8.3611L5.92781 8.60076H6.46442L6.70382 6.87353C6.70382 6.14079 6.08271 6.11719 5.86696 6.11719ZM5.99751 7.52351C6.00914 7.62902 5.93324 8.12357 5.56632 8.12357C5.37705 8.12357 5.32783 7.97478 5.32783 7.88676C5.32783 7.71511 5.41846 7.50902 5.86502 7.50902C5.96889 7.50915 5.98 7.52059 5.99751 7.52351C5.98 7.52059 5.99751 7.52351 5.99751 7.52351Z" fill="var(--fill-0, white)"/>
<path id="path4145" fill-rule="evenodd" clip-rule="evenodd" d="M7.27562 8.63651C7.41289 8.63651 8.19762 8.67241 8.19762 7.83908C8.19762 7.06 7.47122 7.2139 7.47122 6.90091C7.47122 6.74508 7.58963 6.69602 7.80603 6.69602C7.89195 6.69602 8.22249 6.72414 8.22249 6.72414L8.29936 6.17036C8.29936 6.17042 8.08542 6.12109 7.73711 6.12109C7.28628 6.12109 6.82868 6.30631 6.82868 6.94C6.82868 7.65806 7.5917 7.58599 7.5917 7.88848C7.5917 8.09038 7.37853 8.1068 7.21426 8.1068C6.92996 8.1068 6.67396 8.00641 6.67306 8.0112L6.5918 8.5594C6.60653 8.56405 6.7644 8.63651 7.27562 8.63651C6.7644 8.63651 7.27562 8.63651 7.27562 8.63651Z" fill="var(--fill-0, white)"/>
<path id="path4139" fill-rule="evenodd" clip-rule="evenodd" d="M19.3883 5.61819L19.2568 6.45763C19.2568 6.45763 19.0274 6.13155 18.6683 6.13155C18.11 6.13155 17.6445 6.82441 17.6445 7.62051C17.6445 8.1344 17.8928 8.63793 18.4003 8.63793C18.7653 8.63793 18.9677 8.37599 18.9677 8.37599L18.9409 8.5997H19.5336L19.9992 5.61719L19.3883 5.61819ZM19.1053 7.25493C19.1053 7.58621 18.9459 8.0287 18.6155 8.0287C18.3962 8.0287 18.2934 7.83923 18.2934 7.54186C18.2934 7.05563 18.5056 6.73479 18.7734 6.73479C18.9927 6.73472 19.1053 6.88982 19.1053 7.25493C19.1053 6.88982 19.1053 7.25493 19.1053 7.25493Z" fill="var(--fill-0, white)"/>
<path id="path4133" fill-rule="evenodd" clip-rule="evenodd" d="M2.56805 8.60369L2.93903 6.352L2.99348 8.60369H3.41337L4.19661 6.352L3.84966 8.60369H4.47354L4.95401 5.61719H3.98925L3.38843 7.44959L3.35717 5.61719H2.46786L1.98047 8.60369H2.56805Z" fill="var(--fill-0, white)"/>
<path id="path4131" fill-rule="evenodd" clip-rule="evenodd" d="M11.9579 8.60683C12.1352 7.56867 12.1681 6.7257 12.5914 6.88C12.6655 6.4782 12.737 6.32277 12.8179 6.15271C12.8179 6.15271 12.78 6.14453 12.7004 6.14453C12.4275 6.14453 12.2253 6.52826 12.2253 6.52826L12.2796 6.17584H11.7122L11.332 8.60683H11.9579Z" fill="var(--fill-0, white)"/>
<path id="path4149 1" fill-rule="evenodd" clip-rule="evenodd" d="M15.7458 6.11719C15.3279 6.11719 15.0076 6.2554 15.0076 6.2554L14.9192 6.79569C14.9192 6.79569 15.1836 6.68513 15.5833 6.68513C15.8102 6.68513 15.9761 6.71139 15.9761 6.90119C15.9761 7.01647 15.9559 7.05902 15.9559 7.05902C15.9559 7.05902 15.7769 7.04359 15.6939 7.04359C15.1669 7.04359 14.6133 7.27508 14.6133 7.97299C14.6133 8.52291 14.9764 8.64909 15.2016 8.64909C15.6315 8.64909 15.8169 8.36197 15.8267 8.3611L15.8067 8.60076H16.3433L16.5827 6.87353C16.5827 6.14079 15.9616 6.11719 15.7458 6.11719ZM15.8765 7.52351C15.8882 7.62902 15.8122 8.12357 15.4452 8.12357C15.2559 8.12357 15.2068 7.97478 15.2068 7.88676C15.2068 7.71511 15.2974 7.50902 15.7439 7.50902C15.8478 7.50915 15.8588 7.52059 15.8765 7.52351C15.8588 7.52059 15.8765 7.52351 15.8765 7.52351Z" fill="var(--fill-0, white)"/>
<path id="path4131 1" fill-rule="evenodd" clip-rule="evenodd" d="M17.073 8.60683C17.2505 7.56867 17.2834 6.7257 17.7065 6.88C17.7808 6.4782 17.8523 6.32277 17.9331 6.15271C17.9331 6.15271 17.8952 6.14453 17.8156 6.14453C17.5427 6.14453 17.3405 6.52826 17.3405 6.52826L17.3948 6.17584H16.8274L16.4473 8.60683H17.073Z" fill="var(--fill-0, white)"/>
</g>
</svg>
