<svg width="16" height="16" viewBox="0 0 16 16" fill="none" xmlns="http://www.w3.org/2000/svg">
<g id="Layer_1" clip-path="url(#clip0_0_112)">
<path id="Vector" d="M8 0.5C8.97339 0.5 9.96567 0.70039 10.8652 1.0752H10.8662C11.7918 1.45879 12.6081 2.00852 13.2998 2.7002C13.9915 3.39187 14.5412 4.20816 14.9248 5.13379V5.13477C15.2999 6.03512 15.5 7.00079 15.5 8C15.5 9.0017 15.308 9.96641 14.9258 10.8721L14.9238 10.877C14.5403 11.8107 13.9913 12.6254 13.3018 13.3066L13.2998 13.3086C12.601 14.0074 11.7857 14.5492 10.8672 14.9336C9.95987 15.3082 8.9668 15.5 8 15.5C5.99051 15.5 4.10927 14.7172 2.70117 13.3008L2.69922 13.2988L2.44141 13.0293C1.18834 11.6542 0.5 9.87594 0.5 8C0.5 5.99995 1.28237 4.11802 2.7002 2.7002C4.11802 1.28237 5.99995 0.5 8 0.5ZM11.8574 4.94434C11.2671 4.45946 10.4094 4.55583 9.92285 5.12305L9.91797 5.12891L7.0166 8.60938L6.06152 7.64746L6.06055 7.64648L5.95605 7.55176C5.70267 7.34615 5.38682 7.24219 5.0752 7.24219H5.06641C4.7524 7.24225 4.44022 7.34859 4.19238 7.55957L4.09961 7.64648C3.8256 7.92055 3.68661 8.27985 3.68652 8.63965C3.68652 8.99372 3.82189 9.34567 4.08984 9.60547V9.60645L6.12598 11.6504V11.6514C6.41357 11.939 6.78079 12.0556 7.14648 12.0557H7.16406C7.56945 12.0416 7.92173 11.8554 8.16895 11.5557L8.16992 11.5566L12.0547 6.90723L12.0596 6.90137C12.2894 6.61751 12.4014 6.26949 12.374 5.90039L12.3721 5.88281L12.3516 5.75C12.2915 5.45206 12.1392 5.16947 11.8799 4.96289H11.8809C11.8786 4.96096 11.8763 4.95894 11.874 4.95703C11.8688 4.95294 11.8637 4.94836 11.8584 4.94434H11.8574Z" fill="var(--fill-0, #FA4609)" stroke="var(--stroke-0, #FA4609)"/>
<path id="Vector_2" d="M11.8764 5.93849C11.8942 6.17849 11.8231 6.40071 11.6719 6.58737L7.7875 11.2363C7.6275 11.4318 7.40528 11.5474 7.1475 11.5563C6.88972 11.5563 6.65861 11.4763 6.48083 11.2985L4.44528 9.25404C4.27639 9.09404 4.1875 8.87182 4.1875 8.64071C4.1875 8.4096 4.27639 8.17849 4.45417 8.00071C4.61417 7.83182 4.83639 7.74293 5.0675 7.74293H5.07639C5.3075 7.74293 5.53861 7.83182 5.7075 8.00071L7.04972 9.35182L10.3031 5.4496C10.6231 5.07626 11.1831 5.02293 11.5564 5.34293C11.7431 5.48515 11.8497 5.69849 11.8764 5.93849Z" fill="var(--fill-0, white)"/>
</g>
<defs>
<clipPath id="clip0_0_112">
<rect width="16" height="16" fill="white"/>
</clipPath>
</defs>
</svg>
