<svg width="9" height="16" viewBox="0 0 9 16" fill="none" xmlns="http://www.w3.org/2000/svg">
<g id="fa:usd" clip-path="url(#clip0_0_106)">
<path id="Vector" d="M8.86826 10.5804C8.86826 11.4911 8.55732 12.2753 7.93545 12.933C7.31357 13.5908 6.50576 13.997 5.51201 14.1518V15.7143C5.51201 15.7976 5.48389 15.8661 5.42764 15.9196C5.37139 15.9732 5.29951 16 5.21201 16H3.94639C3.86514 16 3.79482 15.9717 3.73545 15.9152C3.67607 15.8586 3.64639 15.7917 3.64639 15.7143V14.1518C3.23389 14.0982 2.83545 14.006 2.45107 13.875C2.0667 13.744 1.74951 13.6116 1.49951 13.4777C1.24951 13.3438 1.01826 13.2009 0.805762 13.0491C0.593262 12.8973 0.447949 12.7857 0.369824 12.7143C0.291699 12.6429 0.237012 12.5893 0.205762 12.5536C0.0995117 12.4286 0.0932617 12.3065 0.187012 12.1875L1.15264 10.9821C1.19639 10.9226 1.26826 10.8869 1.36826 10.875C1.46201 10.8631 1.53701 10.8899 1.59326 10.9554L1.61201 10.9732C2.31826 11.5625 3.07764 11.9345 3.89014 12.0893C4.12139 12.1369 4.35264 12.1607 4.58389 12.1607C5.09014 12.1607 5.53545 12.0327 5.91982 11.7768C6.3042 11.5208 6.49639 11.1577 6.49639 10.6875C6.49639 10.5208 6.44951 10.3631 6.35576 10.2143C6.26201 10.0655 6.15732 9.94048 6.0417 9.83929C5.92607 9.7381 5.74326 9.62649 5.49326 9.50446C5.24326 9.38244 5.03701 9.2872 4.87451 9.21875C4.71201 9.1503 4.46201 9.05357 4.12451 8.92857C3.88076 8.83333 3.68857 8.75893 3.54795 8.70536C3.40732 8.65179 3.21514 8.57292 2.97139 8.46875C2.72764 8.36458 2.53232 8.27232 2.38545 8.19196C2.23857 8.11161 2.06201 8.00595 1.85576 7.875C1.64951 7.74405 1.48232 7.61756 1.3542 7.49554C1.22607 7.37351 1.09014 7.22768 0.946387 7.05804C0.802637 6.88839 0.691699 6.71577 0.613574 6.54018C0.535449 6.36458 0.469824 6.16667 0.416699 5.94643C0.363574 5.72619 0.337012 5.49405 0.337012 5.25C0.337012 4.42857 0.643262 3.70833 1.25576 3.08929C1.86826 2.47024 2.66514 2.07143 3.64639 1.89286V0.285714C3.64639 0.208333 3.67607 0.141369 3.73545 0.0848214C3.79482 0.0282738 3.86514 0 3.94639 0H5.21201C5.29951 0 5.37139 0.0267857 5.42764 0.0803571C5.48389 0.133929 5.51201 0.202381 5.51201 0.285714V1.85714C5.86826 1.89286 6.21357 1.96131 6.54795 2.0625C6.88232 2.16369 7.1542 2.26339 7.36357 2.36161C7.57295 2.45982 7.77139 2.57143 7.95889 2.69643C8.14639 2.82143 8.26826 2.90774 8.32451 2.95536C8.38076 3.00298 8.42764 3.04464 8.46514 3.08036C8.57139 3.1875 8.58701 3.3006 8.51201 3.41964L7.75264 4.72321C7.70264 4.8125 7.63076 4.86012 7.53701 4.86607C7.44951 4.88393 7.36514 4.8631 7.28389 4.80357C7.26514 4.78571 7.21982 4.75 7.14795 4.69643C7.07607 4.64286 6.9542 4.56399 6.78232 4.45982C6.61045 4.35565 6.42764 4.26042 6.23389 4.17411C6.04014 4.0878 5.80732 4.01042 5.53545 3.94196C5.26357 3.87351 4.99639 3.83929 4.73389 3.83929C4.14014 3.83929 3.65576 3.96726 3.28076 4.22321C2.90576 4.47917 2.71826 4.80952 2.71826 5.21429C2.71826 5.36905 2.74482 5.51191 2.79795 5.64286C2.85107 5.77381 2.94326 5.89732 3.07451 6.01339C3.20576 6.12946 3.3292 6.22768 3.44482 6.30804C3.56045 6.38839 3.73545 6.48066 3.96982 6.58482C4.2042 6.68899 4.39326 6.76935 4.53701 6.82589C4.68076 6.88244 4.89951 6.96429 5.19326 7.07143C5.52451 7.19048 5.77764 7.28423 5.95264 7.35268C6.12764 7.42113 6.36514 7.5253 6.66514 7.66518C6.96514 7.80506 7.20107 7.93155 7.37295 8.04464C7.54482 8.15774 7.73857 8.30655 7.9542 8.49107C8.16982 8.6756 8.33545 8.86458 8.45107 9.05804C8.5667 9.25149 8.66514 9.47917 8.74639 9.74107C8.82764 10.003 8.86826 10.2827 8.86826 10.5804Z" fill="var(--fill-0, white)"/>
</g>
<defs>
<clipPath id="clip0_0_106">
<rect width="9" height="16" fill="white"/>
</clipPath>
</defs>
</svg>
