<svg width="22" height="13.9992" viewBox="0 0 22 13.9992" fill="none" xmlns="http://www.w3.org/2000/svg">
<g id="Visa">
<path id="Rectangle 20" d="M22 1.26172H0V12.4617H22V1.26172Z" fill="var(--fill-0, #F6F6F6)"/>
<path id="Rectangle 1" fill-rule="evenodd" clip-rule="evenodd" d="M20.35 1.41605e-07C19.25 2.47302e-07 7.60386 -2.24446e-07 1.1 1.41605e-07C0.55 1.72561e-07 0 0.56 0 1.12V2.8H22C22 2.8 22 5.40007 22 1.68C22 0.56 21.45 1.41605e-07 20.35 1.41605e-07Z" fill="var(--fill-0, #265697)"/>
<path id="Rectangle 1_2" fill-rule="evenodd" clip-rule="evenodd" d="M0 11.1992C0 11.1992 1.32876e-07 11.1992 0 12.3192C-6.36405e-08 13.4392 0.55 13.9992 1.65 13.9992C7.78569 13.9992 19.25 13.9992 20.35 13.9992C21.45 13.9992 22 13.4392 22 12.3192V11.1992H0Z" fill="var(--fill-0, #D97B16)"/>
<path id="Shape" fill-rule="evenodd" clip-rule="evenodd" d="M15.3476 4.17137C15.0393 4.05102 14.5562 3.92188 13.9528 3.92188C12.415 3.92188 11.3318 4.72759 11.3226 5.88227C11.3139 6.73584 12.0959 7.21198 12.6862 7.49616C13.292 7.78732 13.4956 7.97303 13.4927 8.23302C13.4889 8.63121 13.009 8.81313 12.5617 8.81313C11.9388 8.81313 11.6078 8.72309 11.0967 8.5013L10.8962 8.4069L10.6777 9.7367C11.0412 9.90251 11.7134 10.0462 12.4113 10.0536C14.0473 10.0536 15.1093 9.25716 15.1214 8.0241C15.1272 7.34832 14.7126 6.83407 13.8147 6.41012C13.2707 6.13532 12.9376 5.95194 12.9411 5.67368C12.9411 5.42677 13.2231 5.16274 13.8324 5.16274C14.3413 5.15451 14.7099 5.26997 14.9972 5.39032L15.1366 5.45887L15.3476 4.17137Z" fill="var(--fill-0, #265697)"/>
<path id="Shape_2" fill-rule="evenodd" clip-rule="evenodd" d="M19.3386 4.02734H18.136C17.7635 4.02734 17.4847 4.13313 17.3211 4.51996L15.0098 9.96392H16.644C16.644 9.96392 16.9112 9.23194 16.9716 9.07123C17.1502 9.07123 18.7378 9.07378 18.9648 9.07378C19.0113 9.28173 19.1541 9.96392 19.1541 9.96392H20.5982L19.3386 4.02734ZM17.4195 7.85619C17.5482 7.51394 18.0396 6.1956 18.0396 6.1956C18.0304 6.21141 18.1673 5.85168 18.2459 5.62864L18.3511 6.1408C18.3511 6.1408 18.6491 7.55878 18.7114 7.85613L17.4195 7.85619Z" fill="var(--fill-0, #265697)"/>
<path id="Shape_3" fill-rule="evenodd" clip-rule="evenodd" d="M8.14648 9.9638L9.11951 4.02344H10.6758L9.70212 9.9638H8.14648Z" fill="var(--fill-0, #265697)"/>
<path id="Shape_4" fill-rule="evenodd" clip-rule="evenodd" d="M6.84159 4.02751L5.31792 8.07839L5.15558 7.25517C4.87193 6.30619 3.98818 5.27802 3.00019 4.76328L4.39339 9.95841L6.04 9.95646L8.49012 4.02751H6.84159Z" fill="var(--fill-0, #265697)"/>
<path id="Shape_5" fill-rule="evenodd" clip-rule="evenodd" d="M3.90439 4.02344H1.39486L1.375 4.14703C3.32739 4.63874 4.61927 5.82701 5.15553 7.25477L4.60985 4.52495C4.51564 4.14879 4.2424 4.03655 3.90439 4.02344Z" fill="var(--fill-0, #D97B16)"/>
</g>
</svg>
