<svg width="48" height="30" viewBox="0 0 48 30" fill="none" xmlns="http://www.w3.org/2000/svg">
<g id="Paypal">
<path id="Rectangle 1" fill-rule="evenodd" clip-rule="evenodd" d="M44.4 3.0344e-07C42 5.29934e-07 16.5902 -4.80955e-07 2.4 3.0344e-07C1.2 3.69773e-07 0 1.2 0 2.4V26.4C-1.389e-07 28.8 1.2 30 3.6 30C16.987 30 42 30 44.4 30C46.8 30 48 28.8 48 26.4V3.6C48 1.2 46.8 3.0344e-07 44.4 3.0344e-07Z" fill="#F6F6F6"/>
<path id="pal" fill-rule="evenodd" clip-rule="evenodd" d="M45.5295 10.0391H44.2694C44.2687 10.0391 44.268 10.0393 44.2675 10.0393L44.2668 10.0391C43.9784 10.0391 43.6857 10.2542 43.604 10.5279C43.6006 10.5389 43.595 10.5496 43.5923 10.5611C43.5923 10.5611 43.5623 10.6946 43.5102 10.9254L41.7793 18.5643C41.7392 18.737 41.7125 18.8495 41.7044 18.8788L41.7077 18.883C41.6478 19.15 41.8127 19.3709 42.0833 19.3955L42.0869 19.4006H43.3948C43.6814 19.4006 43.9722 19.1875 44.0565 18.9173C44.0605 18.9042 44.0669 18.8919 44.07 18.8788L45.9582 10.5606L45.9553 10.5597C46.0195 10.2752 45.8312 10.0391 45.5295 10.0391ZM39.0661 17.5467C38.8913 17.6539 38.7066 17.7457 38.5131 17.8239C38.2531 17.926 38.0066 17.9795 37.7785 17.9795C37.4285 17.9795 37.1595 17.9313 36.9776 17.8282C36.7955 17.7305 36.7 17.5605 36.7031 17.3173C36.7031 17.0365 36.7697 16.8186 36.9075 16.6477C37.0463 16.4833 37.2525 16.351 37.5083 16.2523C37.7626 16.1683 38.0755 16.0992 38.4366 16.0496C38.7577 16.0102 39.3927 15.9389 39.4739 15.9385C39.5551 15.9378 39.6091 15.8942 39.5729 16.1049C39.5568 16.1965 39.3735 16.9292 39.2894 17.2624C39.265 17.3623 39.1286 17.5077 39.0661 17.5467C39.1286 17.5077 39.0661 17.5467 39.0661 17.5467ZM41.5579 12.3966C41.0232 12.1061 40.1867 11.9592 39.0422 11.9592C38.4762 11.9592 37.9073 12.0035 37.3366 12.0897C36.9177 12.1522 36.8746 12.1626 36.6143 12.2177C36.0789 12.3311 35.9962 12.8531 35.9962 12.8531L35.8243 13.5416C35.7267 13.982 35.9844 13.9638 36.0992 13.9297C36.333 13.861 36.4597 13.7927 36.9366 13.6876C37.3925 13.5868 37.8742 13.5114 38.2585 13.5144C38.8222 13.5144 39.2508 13.5746 39.5357 13.6904C39.8208 13.8114 39.962 14.0175 39.962 14.3125C39.9629 14.3825 39.9648 14.4487 39.9388 14.5066C39.9153 14.5605 39.8703 14.6127 39.7356 14.6304C38.9311 14.677 38.3537 14.7485 37.6584 14.8472C36.9724 14.9412 36.372 15.1024 35.8702 15.3256C35.3352 15.5566 34.935 15.8658 34.6591 16.2576C34.3906 16.6512 34.2556 17.1278 34.2549 17.6892C34.2549 18.2198 34.4507 18.6525 34.8296 18.9885C35.2131 19.3201 35.7118 19.4842 36.3152 19.4842C36.6922 19.4817 36.9873 19.4552 37.1988 19.4038C37.4081 19.3523 37.6364 19.2792 37.8775 19.1776C38.0577 19.1042 38.2521 18.9982 38.4575 18.8651C38.663 18.7316 38.8054 18.6369 38.9879 18.5204L38.9946 18.5315L38.9432 18.7522C38.9429 18.7542 38.9399 18.7554 38.9399 18.7575L38.9415 18.7616C38.8828 19.0275 39.0469 19.2486 39.3174 19.2746L39.3207 19.2792H39.3446L39.3455 19.2804C39.525 19.2804 40.1412 19.2802 40.4292 19.2792H40.6303C40.6435 19.2792 40.645 19.2753 40.6502 19.2723C40.9263 19.2394 41.1911 19.0203 41.2533 18.7575L42.2818 14.4353C42.3055 14.3337 42.3242 14.2163 42.3354 14.0812C42.3482 13.9447 42.3633 13.8324 42.3588 13.7512C42.3612 13.1395 42.0912 12.6874 41.5579 12.3966ZM35.3646 11.4121C35.1891 11.0796 34.9241 10.8119 34.589 10.6035C34.2453 10.3955 33.8371 10.2505 33.3644 10.1659C32.8969 10.0861 32.3411 10.0404 31.7078 10.0391L28.7613 10.0404C28.458 10.0455 28.1603 10.2775 28.0902 10.5632L26.1092 18.9565C26.037 19.2417 26.234 19.4795 26.5319 19.4778L27.9457 19.4753C28.2455 19.4778 28.551 19.2417 28.6219 18.9565L29.0997 16.9196C29.1668 16.6342 29.4716 16.3951 29.7763 16.3992H30.1782C31.9027 16.3992 33.2398 16.0543 34.1973 15.3676C35.1524 14.6775 35.6331 13.7723 35.6331 12.6464C35.63 12.1548 35.5441 11.7407 35.3646 11.4121ZM32.3247 14.1573C31.9027 14.4562 31.3105 14.606 30.5484 14.606H30.1979C29.8948 14.6095 29.6989 14.3709 29.7709 14.0847L30.1934 12.3033C30.2564 12.0215 30.564 11.7817 30.8629 11.784L31.3258 11.7817C31.8663 11.784 32.2705 11.8721 32.5497 12.0471C32.8242 12.2242 32.9573 12.4988 32.9594 12.8647C32.9606 13.4225 32.7487 13.8516 32.3247 14.1573Z" fill="#306FC5"/>
<path id="pay" fill-rule="evenodd" clip-rule="evenodd" d="M25.4509 11.9593C25.1826 11.9593 24.8307 12.1719 24.6641 12.4289C24.6641 12.4289 22.8694 15.4427 22.6932 15.7438C22.5974 15.9058 22.5003 15.8028 22.4841 15.7426C22.471 15.6694 21.9279 12.4488 21.9279 12.4488C21.8668 12.1895 21.5903 11.9669 21.2445 11.9679L20.1254 11.9696C19.8557 11.9696 19.6874 12.1812 19.7474 12.437C19.7474 12.437 20.6028 17.1863 20.7696 18.3033C20.8528 18.9212 20.761 19.0307 20.761 19.0307L19.652 20.9247C19.4896 21.1816 19.5785 21.392 19.847 21.392L21.1438 21.3909C21.4124 21.3909 21.768 21.1815 21.9279 20.9243L26.9168 12.6594C26.9168 12.6594 27.394 11.9533 26.9539 11.9593C26.6538 11.9634 25.4509 11.9593 25.4509 11.9593ZM16.0844 17.5467C15.9096 17.6539 15.7252 17.7452 15.5317 17.8236C15.2717 17.9253 15.0239 17.9793 14.7966 17.9793C14.4475 17.9793 14.1778 17.9308 13.9957 17.8282C13.8138 17.7302 13.7179 17.5603 13.721 17.3168C13.721 17.0367 13.7882 16.8181 13.9258 16.6475C14.0648 16.4828 14.2702 16.3503 14.5259 16.2518C14.781 16.1674 15.0948 16.0992 15.4547 16.0496C15.7758 16.0102 16.4115 15.9391 16.4925 15.938C16.573 15.9378 16.6272 15.8937 16.591 16.1045C16.5753 16.196 16.3918 16.9292 16.3077 17.2622C16.2824 17.3625 16.146 17.508 16.0844 17.5467C16.146 17.508 16.0844 17.5467 16.0844 17.5467ZM18.5762 12.3964C18.0415 12.1059 17.2053 11.9592 16.0607 11.9592C15.4945 11.9592 14.9259 12.003 14.3549 12.0895C13.9353 12.1515 13.8931 12.1621 13.6326 12.2172C13.097 12.3311 13.0145 12.8527 13.0145 12.8527L12.8426 13.5416C12.7453 13.9818 13.0032 13.9636 13.1176 13.9295C13.3508 13.8608 13.4782 13.7927 13.9552 13.6871C14.4103 13.5868 14.8927 13.5117 15.2766 13.5142C15.8407 13.5142 16.2689 13.5742 16.5538 13.6899C16.8392 13.811 16.9796 14.0175 16.9796 14.3122C16.9815 14.3823 16.9829 14.4487 16.9576 14.5061C16.9337 14.5605 16.8882 14.6124 16.7534 14.63C15.9499 14.6772 15.3728 14.7485 14.6763 14.8472C13.9902 14.9412 13.3901 15.1024 12.8881 15.3254C12.3531 15.5564 11.9534 15.8661 11.6779 16.2576C11.4084 16.6509 11.2737 17.1275 11.2732 17.6892C11.2732 18.2195 11.4693 18.6525 11.8477 18.9883C12.2314 19.3198 12.7296 19.4842 13.3331 19.4842C13.7103 19.4817 14.0052 19.4547 14.2173 19.4038C14.4265 19.3519 14.655 19.2792 14.8951 19.1776C15.076 19.1042 15.27 18.9977 15.4756 18.8649C15.6806 18.7316 15.8237 18.6369 16.007 18.5204L16.0127 18.5313L15.9613 18.7517C15.9608 18.7538 15.958 18.7551 15.958 18.7577L15.9601 18.7611C15.9014 19.0277 16.065 19.2486 16.3357 19.2742L16.339 19.2792H16.3627L16.3634 19.2809C16.5434 19.2809 17.1598 19.2799 17.4471 19.2792H17.6484C17.6619 19.2792 17.6638 19.2749 17.668 19.2721C17.9449 19.2382 18.2087 19.0196 18.2717 18.7577L19.3002 14.4351C19.3234 14.3337 19.3423 14.2163 19.3527 14.0814C19.3665 13.9442 19.3814 13.8324 19.3774 13.7515C19.3797 13.1393 19.1093 12.6871 18.5762 12.3964ZM12.1429 11.4121C11.9674 11.0796 11.7024 10.8119 11.3673 10.6035C11.0237 10.3955 10.6154 10.2505 10.1427 10.1659C9.67522 10.0861 9.1194 10.0404 8.48615 10.0391L5.53966 10.0404C5.23629 10.0455 4.93861 10.2775 4.86851 10.5632L2.88752 18.9565C2.81529 19.2417 3.01233 19.4794 3.31025 19.4778L4.72405 19.4753C5.02386 19.4778 5.32936 19.2417 5.40017 18.9565L5.87807 16.9196C5.94509 16.6342 6.24987 16.3951 6.55466 16.3992H6.95654C8.68105 16.3992 10.0181 16.0543 10.9756 15.3676C11.9307 14.6775 12.4114 13.7723 12.4114 12.6464C12.4083 12.1548 12.3224 11.7407 12.1429 11.4121ZM9.10306 14.1573C8.68105 14.4562 8.08877 14.606 7.32669 14.606H6.9762C6.67307 14.6095 6.47722 14.3709 6.54921 14.0847L6.9717 12.3033C7.03469 12.0215 7.34232 11.7817 7.64118 11.784L8.10416 11.7817C8.64458 11.784 9.04883 11.8721 9.32804 12.0471C9.60251 12.2242 9.73561 12.4988 9.73774 12.8647C9.73892 13.4225 9.52697 13.8516 9.10306 14.1573Z" fill="#265697"/>
</g>
</svg>
