<svg width="48" height="30" viewBox="0 0 48 30" fill="none" xmlns="http://www.w3.org/2000/svg">
<g id="skrill">
<path id="Rectangle 1" fill-rule="evenodd" clip-rule="evenodd" d="M44.4 3.0344e-07C42 5.29934e-07 16.5902 -4.80955e-07 2.4 3.0344e-07C1.2 3.69773e-07 0 1.2 0 2.4V26.4C-1.389e-07 28.8 1.2 30 3.6 30C16.987 30 42 30 44.4 30C46.8 30 48 28.8 48 26.4V3.6C48 1.2 46.8 3.0344e-07 44.4 3.0344e-07Z" fill="#6A3494"/>
<path id="Vector" fill-rule="evenodd" clip-rule="evenodd" d="M32.8988 11.5729C33.792 11.5729 34.5159 10.8631 34.5159 9.98765C34.5159 9.11204 33.792 8.40156 32.8988 8.40156C32.0067 8.40156 31.2831 9.11204 31.2831 9.98765C31.2831 10.8631 32.0067 11.5729 32.8988 11.5729C32.0067 11.5729 32.8988 11.5729 32.8988 11.5729ZM20.5137 12.4287C20.4409 12.6087 19.9157 14.0639 18.6455 15.5721V9.12311L15.2612 9.7794V21.4685H18.6455V17.8552C19.6257 19.2973 20.1097 21.4685 20.1097 21.4685H24.1635C23.7625 19.8335 22.0085 16.8182 22.0085 16.8182C23.5827 14.8605 24.2741 12.7745 24.3841 12.4287H20.5137ZM29.4111 12.3069C26.3798 12.4023 24.841 13.7364 24.841 16.3883V21.4685H28.148V17.3257C28.148 15.7376 28.36 15.0569 30.281 14.9922V12.3534C29.9577 12.2861 29.4111 12.3069 29.4111 12.3069ZM9.58528 13.7159C9.17075 13.6892 8.21105 13.6285 8.21105 12.781C8.21105 11.7583 9.59275 11.7583 10.111 11.7583C11.0222 11.7583 12.2024 12.0223 13.0452 12.2696C13.0452 12.2696 13.5153 12.4321 13.9152 12.5988L13.9526 12.6087V9.80786L13.9015 9.79303C12.9069 9.45168 11.7504 9.12311 9.60613 9.12311C5.90907 9.12311 4.59912 11.2358 4.59912 13.0458C4.59912 14.0891 5.05483 16.5445 9.28907 16.8278C9.648 16.8494 10.6004 16.9031 10.6004 17.7791C10.6004 18.5021 9.82069 18.9285 8.509 18.9285C7.07153 18.9285 5.67714 18.5689 4.83019 18.2279V21.1126C6.0981 21.4386 7.5274 21.6016 9.20255 21.6016C12.8174 21.6016 14.4365 19.6025 14.4365 17.6214C14.4365 15.3751 12.6248 13.9158 9.58528 13.7159C12.6248 13.9158 9.58528 13.7159 9.58528 13.7159ZM31.2594 21.4685H34.5397V12.439H31.2594V21.4685ZM40.7163 9.69879V21.4685H43.9971V9.12311L40.7163 9.69879ZM35.9292 9.69879L39.2069 9.12311V21.4685H35.9292V9.69879Z" fill="white"/>
</g>
</svg>
