<svg width="48" height="30" viewBox="0 0 48 30" fill="none" xmlns="http://www.w3.org/2000/svg">
<g id="Master">
<path id="Rectangle 1" fill-rule="evenodd" clip-rule="evenodd" d="M44.4 3.0344e-07C42 5.29934e-07 16.5902 -4.80955e-07 2.4 3.0344e-07C1.2 3.69773e-07 0 1.2 0 2.4V26.4C-1.389e-07 28.8 1.2 30 3.6 30C16.987 30 42 30 44.4 30C46.8 30 48 28.8 48 26.4V3.6C48 1.2 46.8 3.0344e-07 44.4 3.0344e-07Z" fill="#265697"/>
<path id="path2268" fill-rule="evenodd" clip-rule="evenodd" d="M44.8635 15.1492C44.8654 22.1205 39.2758 27.773 32.3788 27.7748C25.4816 27.7766 19.8895 22.1269 19.8877 15.1556V15.1492C19.8859 8.17803 25.4755 2.52529 32.3723 2.52344C39.2694 2.52159 44.8616 8.17147 44.8635 15.1428V15.1492C44.8635 15.1469 44.8635 15.1492 44.8635 15.1492Z" fill="#DFAC16"/>
<path id="path1350" fill-rule="evenodd" clip-rule="evenodd" d="M15.5438 2.52735C8.68766 2.57137 3.13633 8.20943 3.13633 15.1498C3.13633 22.1173 8.73092 27.7722 15.6243 27.7722C18.8595 27.7722 21.8086 26.526 24.0277 24.4834C24.0275 24.4834 24.0272 24.4831 24.0267 24.4828H24.0294C24.4837 24.0643 24.9076 23.6127 25.2971 23.1312H22.7386C22.397 22.7141 22.0865 22.2794 21.8076 21.831H26.2201C26.4885 21.3969 26.7314 20.9462 26.9471 20.4793H21.0791C20.8791 20.046 20.7054 19.6028 20.5572 19.1532H27.4696C27.8862 17.895 28.1122 16.5489 28.1122 15.1497C28.1122 14.222 28.0127 13.3176 27.8244 12.4467H20.1906C20.2852 11.9985 20.4045 11.5558 20.5469 11.1207H27.4618C27.3072 10.6577 27.1276 10.2066 26.9234 9.76921H21.0784C21.2892 9.31391 21.5281 8.87101 21.7949 8.44335H26.2042C25.9108 7.97082 25.586 7.51937 25.235 7.09171H22.7765C23.1567 6.63954 23.5751 6.21374 24.0294 5.81671C21.8101 3.77386 18.8603 2.52735 15.6243 2.52735C15.5974 2.52735 15.5707 2.52721 15.5438 2.52735C15.5707 2.52721 15.5438 2.52735 15.5438 2.52735Z" fill="#BF3126"/>
<path id="path4157" fill-rule="evenodd" clip-rule="evenodd" d="M20.1148 18.3652L20.2812 17.2228C20.1903 17.2228 20.0566 17.2622 19.9386 17.2622C19.4757 17.2622 19.4247 17.0134 19.4542 16.8295L19.8281 14.4986H20.5315L20.7013 13.235H20.0381L20.1731 12.4492H18.8435C18.8142 12.4789 18.0586 16.8687 18.0586 17.4032C18.0586 18.1945 18.4982 18.547 19.118 18.5413C19.6034 18.5372 19.9814 18.4014 20.1148 18.3652C19.9814 18.4014 20.1148 18.3652 20.1148 18.3652Z" fill="white"/>
<path id="path4155" fill-rule="evenodd" clip-rule="evenodd" d="M20.5361 16.1839C20.5361 18.0832 21.7764 18.5345 22.833 18.5345C23.8083 18.5345 24.2375 18.3141 24.2375 18.3141L24.4717 17.0179C24.4717 17.0179 23.7298 17.3482 23.0598 17.3482C21.6321 17.3482 21.8821 16.2722 21.8821 16.2722H24.5842C24.5842 16.2722 24.7587 15.4014 24.7587 15.0465C24.7587 14.161 24.3226 13.082 22.8628 13.082C21.5258 13.0823 20.5361 14.5384 20.5361 16.1839C20.5361 14.5384 20.5361 16.1839 20.5361 16.1839ZM22.8678 14.2857C23.6182 14.2857 23.4798 15.138 23.4798 15.2069H22.0036C22.0036 15.1189 22.1431 14.2857 22.8678 14.2857C22.1431 14.2857 22.8678 14.2857 22.8678 14.2857Z" fill="white"/>
<path id="path4151" fill-rule="evenodd" clip-rule="evenodd" d="M31.2875 18.3633L31.5254 16.8981C31.5254 16.8981 30.873 17.2287 30.4253 17.2287C29.4821 17.2287 29.1038 16.5008 29.1038 15.7187C29.1038 14.1321 29.9154 13.2593 30.8188 13.2593C31.4963 13.2593 32.04 13.6438 32.04 13.6438L32.2571 12.2202C32.2571 12.2202 31.4508 11.8904 30.7596 11.8904C29.2246 11.8904 27.7314 13.2363 27.7314 15.7641C27.7314 17.4403 28.5377 18.5473 30.1244 18.5473C30.573 18.5475 31.2875 18.3633 31.2875 18.3633Z" fill="white"/>
<path id="path4149" fill-rule="evenodd" clip-rule="evenodd" d="M12.8017 13.1055C11.8899 13.1055 11.191 13.4016 11.191 13.4016L10.9981 14.5594C10.9981 14.5594 11.5749 14.3225 12.4469 14.3225C12.942 14.3225 13.3043 14.3788 13.3043 14.7855C13.3043 15.0325 13.2599 15.1237 13.2599 15.1237C13.2599 15.1237 12.8693 15.0906 12.6885 15.0906C11.5386 15.0906 10.3306 15.5867 10.3306 17.0822C10.3306 18.2606 11.1231 18.531 11.6142 18.531C12.5523 18.531 12.9567 17.9157 12.9783 17.9139L12.9344 18.4274H14.1052L14.6275 14.7262C14.6275 13.156 13.2724 13.1055 12.8017 13.1055ZM13.0865 16.119C13.1119 16.3451 12.9463 17.4049 12.1457 17.4049C11.7328 17.4049 11.6254 17.086 11.6254 16.8974C11.6254 16.5296 11.8231 16.088 12.7974 16.088C13.0241 16.0883 13.0483 16.1128 13.0865 16.119C13.0483 16.1128 13.0865 16.119 13.0865 16.119Z" fill="white"/>
<path id="path4145" fill-rule="evenodd" clip-rule="evenodd" d="M15.8724 18.5035C16.1719 18.5035 17.884 18.5804 17.884 16.7947C17.884 15.1252 16.2991 15.455 16.2991 14.7843C16.2991 14.4504 16.5575 14.3453 17.0296 14.3453C17.2171 14.3453 17.9382 14.4055 17.9382 14.4055L18.106 13.2188C18.106 13.219 17.6392 13.1133 16.8792 13.1133C15.8956 13.1133 14.8972 13.5102 14.8972 14.8681C14.8972 16.4068 16.562 16.2523 16.562 16.9005C16.562 17.3332 16.0969 17.3684 15.7385 17.3684C15.1182 17.3684 14.5596 17.1533 14.5577 17.1635L14.3804 18.3382C14.4125 18.3482 14.757 18.5035 15.8724 18.5035C14.757 18.5035 15.8724 18.5035 15.8724 18.5035Z" fill="white"/>
<path id="path4139" fill-rule="evenodd" clip-rule="evenodd" d="M42.3011 12.0412L42.0143 13.84C42.0143 13.84 41.5138 13.1413 40.7303 13.1413C39.512 13.1413 38.4966 14.626 38.4966 16.3319C38.4966 17.4331 39.0382 18.5121 40.1454 18.5121C40.9419 18.5121 41.3834 17.9508 41.3834 17.9508L41.325 18.4302H42.6182L43.634 12.0391L42.3011 12.0412ZM41.6836 15.5485C41.6836 16.2584 41.3359 17.2066 40.615 17.2066C40.1366 17.2066 39.9123 16.8006 39.9123 16.1634C39.9123 15.1214 40.3753 14.4339 40.9595 14.4339C41.4381 14.4338 41.6836 14.7661 41.6836 15.5485C41.6836 14.7661 41.6836 15.5485 41.6836 15.5485Z" fill="white"/>
<path id="path4133" fill-rule="evenodd" clip-rule="evenodd" d="M5.60279 18.4348L6.4122 13.6097L6.53101 18.4348H7.44712L9.15601 13.6097L8.39903 18.4348H9.76022L10.8085 12.0352H8.7036L7.39272 15.9617L7.3245 12.0352H5.38419L4.3208 18.4348H5.60279Z" fill="white"/>
<path id="path4131" fill-rule="evenodd" clip-rule="evenodd" d="M26.0886 18.4443C26.4756 16.2197 26.5473 14.4133 27.4709 14.744C27.6326 13.883 27.7886 13.5499 27.965 13.1855C27.965 13.1855 27.8823 13.168 27.7087 13.168C27.1132 13.168 26.6721 13.9902 26.6721 13.9902L26.7906 13.2351H25.5526L24.7231 18.4443H26.0886Z" fill="white"/>
<path id="path4149 1" fill-rule="evenodd" clip-rule="evenodd" d="M34.3557 13.1055C33.444 13.1055 32.7451 13.4016 32.7451 13.4016L32.5523 14.5594C32.5523 14.5594 33.1291 14.3225 34.0011 14.3225C34.4962 14.3225 34.8582 14.3788 34.8582 14.7855C34.8582 15.0325 34.8141 15.1237 34.8141 15.1237C34.8141 15.1237 34.4235 15.0906 34.2425 15.0906C33.0928 15.0906 31.8848 15.5867 31.8848 17.0822C31.8848 18.2606 32.6771 18.531 33.1683 18.531C34.1064 18.531 34.5108 17.9157 34.5322 17.9139L34.4886 18.4274H35.6594L36.1816 14.7262C36.1817 13.156 34.8265 13.1055 34.3557 13.1055ZM34.641 16.119C34.6663 16.3451 34.5006 17.4049 33.6998 17.4049C33.2868 17.4049 33.1797 17.086 33.1797 16.8974C33.1797 16.5296 33.3775 16.088 34.3516 16.088C34.5783 16.0883 34.6024 16.1128 34.641 16.119C34.6024 16.1128 34.641 16.119 34.641 16.119Z" fill="white"/>
<path id="path4131 1" fill-rule="evenodd" clip-rule="evenodd" d="M37.2515 18.4443C37.6387 16.2197 37.7104 14.4133 38.6337 14.744C38.7957 13.883 38.9518 13.5499 39.1281 13.1855C39.1281 13.1855 39.0454 13.168 38.8718 13.168C38.2763 13.168 37.8351 13.9902 37.8351 13.9902L37.9537 13.2351H36.7157L35.8862 18.4443H37.2515Z" fill="white"/>
</g>
</svg>
