<svg width="48" height="30" viewBox="0 0 48 30" fill="none" xmlns="http://www.w3.org/2000/svg">
<g id="Visa">
<path id="Rectangle 20" d="M48 2.69922H0V26.6992H48V2.69922Z" fill="#F6F6F6"/>
<path id="Rectangle 1" fill-rule="evenodd" clip-rule="evenodd" d="M44.4 3.0344e-07C42 5.29934e-07 16.5902 -4.80955e-07 2.4 3.0344e-07C1.2 3.69773e-07 0 1.2 0 2.4V6H48C48 6 48 11.5716 48 3.6C48 1.2 46.8 3.0344e-07 44.4 3.0344e-07Z" fill="#265697"/>
<path id="Rectangle 1_2" fill-rule="evenodd" clip-rule="evenodd" d="M0 24C0 24 2.89912e-07 24 0 26.4C-1.38852e-07 28.8 1.2 30 3.6 30C16.987 30 42 30 44.4 30C46.8 30 48 28.8 48 26.4V24H0Z" fill="#D97B16"/>
<path id="Shape" fill-rule="evenodd" clip-rule="evenodd" d="M33.4843 8.93307C32.8115 8.67518 31.7575 8.39844 30.441 8.39844C27.0858 8.39844 24.7225 10.125 24.7023 12.5993C24.6834 14.4284 26.3895 15.4487 27.6775 16.0576C28.9993 16.6815 29.4436 17.0795 29.4372 17.6366C29.4289 18.4899 28.3817 18.8797 27.4058 18.8797C26.0467 18.8797 25.3247 18.6868 24.2095 18.2115L23.772 18.0092L23.2954 20.8588C24.0884 21.2141 25.5551 21.522 27.0778 21.5379C30.6471 21.5379 32.9643 19.8312 32.9906 17.1889C33.0034 15.7408 32.0987 14.6388 30.1398 13.7304C28.9529 13.1415 28.226 12.7486 28.2337 12.1523C28.2337 11.6232 28.849 11.0574 30.1783 11.0574C31.2886 11.0398 32.0929 11.2872 32.7197 11.5451L33.0239 11.692L33.4843 8.93307Z" fill="#265697"/>
<path id="Shape_2" fill-rule="evenodd" clip-rule="evenodd" d="M42.1918 8.63281H39.568C38.7552 8.63281 38.1469 8.85949 37.79 9.68842L32.7471 21.354H36.3127C36.3127 21.354 36.8957 19.7855 37.0275 19.4411C37.4172 19.4411 40.881 19.4466 41.3762 19.4466C41.4778 19.8922 41.7893 21.354 41.7893 21.354H44.9401L42.1918 8.63281ZM38.0047 16.8375C38.2855 16.1041 39.3576 13.2791 39.3576 13.2791C39.3375 13.313 39.6363 12.5421 39.8078 12.0642L40.0373 13.1617C40.0373 13.1617 40.6874 16.2002 40.8234 16.8374L38.0047 16.8375Z" fill="#265697"/>
<path id="Shape_3" fill-rule="evenodd" clip-rule="evenodd" d="M17.775 21.3506L19.8979 8.62129H23.2935L21.1691 21.3506H17.775Z" fill="#265697"/>
<path id="Shape_4" fill-rule="evenodd" clip-rule="evenodd" d="M14.9271 8.62891L11.6028 17.3094L11.2486 15.5453C10.6297 13.5118 8.70152 11.3086 6.5459 10.2056L9.58562 21.338L13.1782 21.3338L18.5239 8.62891H14.9271Z" fill="#265697"/>
<path id="Shape_5" fill-rule="evenodd" clip-rule="evenodd" d="M8.51867 8.62109H3.04334L3 8.88594C7.25975 9.9396 10.0784 12.4859 11.2484 15.5454L10.0578 9.69576C9.8523 8.88971 9.25616 8.64918 8.51867 8.62109Z" fill="#D97B16"/>
</g>
</svg>
