<svg width="16" height="16" viewBox="0 0 16 16" fill="none" xmlns="http://www.w3.org/2000/svg">
<path d="M5.00033 7.33464C4.35588 7.33464 3.80588 7.10686 3.35033 6.6513C2.89477 6.19575 2.66699 5.64575 2.66699 5.0013C2.66699 4.35686 2.89477 3.80686 3.35033 3.3513C3.80588 2.89575 4.35588 2.66797 5.00033 2.66797C5.64477 2.66797 6.19477 2.89575 6.65033 3.3513C7.10588 3.80686 7.33366 4.35686 7.33366 5.0013C7.33366 5.64575 7.10588 6.19575 6.65033 6.6513C6.19477 7.10686 5.64477 7.33464 5.00033 7.33464ZM5.00033 6.0013C5.2781 6.0013 5.51433 5.90419 5.70899 5.70997C5.90366 5.51575 6.00077 5.27952 6.00033 5.0013C5.99988 4.72308 5.90277 4.48708 5.70899 4.2933C5.51521 4.09952 5.27899 4.00219 5.00033 4.0013C4.72166 4.00041 4.48566 4.09775 4.29233 4.2933C4.09899 4.48886 4.00166 4.72486 4.00033 5.0013C3.99899 5.27775 4.09633 5.51397 4.29233 5.70997C4.48833 5.90597 4.72433 6.00308 5.00033 6.0013ZM11.0003 13.3346C10.3559 13.3346 9.80588 13.1069 9.35033 12.6513C8.89477 12.1957 8.66699 11.6457 8.66699 11.0013C8.66699 10.3569 8.89477 9.80686 9.35033 9.3513C9.80588 8.89575 10.3559 8.66797 11.0003 8.66797C11.6448 8.66797 12.1948 8.89575 12.6503 9.3513C13.1059 9.80686 13.3337 10.3569 13.3337 11.0013C13.3337 11.6457 13.1059 12.1957 12.6503 12.6513C12.1948 13.1069 11.6448 13.3346 11.0003 13.3346ZM11.709 11.71C11.9032 11.5153 12.0003 11.2791 12.0003 11.0013C12.0003 10.7235 11.9032 10.4875 11.709 10.2933C11.5148 10.0991 11.2785 10.0017 11.0003 10.0013C10.7221 10.0009 10.4861 10.0982 10.2923 10.2933C10.0985 10.4884 10.0012 10.7244 10.0003 11.0013C9.99944 11.2782 10.0968 11.5144 10.2923 11.71C10.4879 11.9055 10.7239 12.0026 11.0003 12.0013C11.2768 12 11.513 11.9029 11.709 11.71ZM3.60033 13.3346L2.66699 12.4013L12.4003 2.66797L13.3337 3.6013L3.60033 13.3346Z" fill="#FA4609"/>
</svg>
