<svg width="24" height="24" viewBox="0 0 24 24" fill="none" xmlns="http://www.w3.org/2000/svg">
<rect width="24" height="24" rx="12" fill="#FF5C00" fill-opacity="0.2"/>
<path d="M15.9972 9.37799C16.0157 9.63953 15.9417 9.8817 15.7846 10.0851L11.7444 15.1513C11.5779 15.3644 11.3468 15.4903 11.0787 15.5C10.8106 15.5 10.5702 15.4128 10.3853 15.2191L8.26811 12.9911C8.09245 12.8168 8 12.5746 8 12.3228C8 12.0709 8.09245 11.819 8.27736 11.6253C8.44378 11.4413 8.67491 11.3444 8.91529 11.3444H8.92453C9.16491 11.3444 9.40529 11.4413 9.58095 11.6253L10.977 13.0977L14.3608 8.84522C14.6936 8.43838 15.2761 8.38026 15.6644 8.72898C15.8585 8.88397 15.9695 9.11645 15.9972 9.37799Z" fill="#FF5C00"/>
</svg>
