<svg preserveAspectRatio="none" width="100%" height="100%" overflow="visible" style="display: block;" viewBox="0 0 11.0129 15.5214" fill="none" xmlns="http://www.w3.org/2000/svg">
<path id="Vector" d="M7.59714 0.888571C8.94857 1.08286 9.98571 2.23286 10.0929 3.59429C10.1986 4.94429 10.2986 6.33714 10.2986 7.76C10.2986 9.18429 10.1986 10.5771 10.0929 11.9271C9.98571 13.2886 8.95 14.4386 7.59714 14.6329C6.91429 14.7329 6.21571 14.8071 5.50714 14.8071C4.79857 14.8071 4.09857 14.7329 3.41571 14.6329C2.06429 14.4386 1.02714 13.2886 0.92 11.9271C0.814286 10.5771 0.714286 9.18429 0.714286 7.76C0.714286 6.33571 0.814286 4.94571 0.92 3.59429C1.02714 2.23286 2.06286 1.08286 3.41571 0.888571C4.09857 0.788571 4.79714 0.714286 5.50714 0.714286C6.21571 0.714286 6.91429 0.788571 7.59714 0.888571Z" stroke="var(--stroke-0, white)" stroke-width="1.42857" stroke-linecap="round" stroke-linejoin="round"/>
</svg>
