<svg width="20" height="20" viewBox="0 0 20 20" fill="none" xmlns="http://www.w3.org/2000/svg">
<path d="M7.41992 4.83813L7.48707 3.95812C7.59278 2.5967 8.62992 1.4467 9.98278 1.25241C10.6656 1.15241 11.3642 1.07812 12.0728 1.07812C12.7814 1.07812 13.4814 1.15241 14.1642 1.25241C15.5156 1.4467 16.5528 2.5967 16.6599 3.95812C16.7656 5.30812 16.8642 6.70098 16.8642 8.12384C16.8642 9.54812 16.7642 10.941 16.6599 12.291C16.5528 13.6524 15.5156 14.8024 14.1642 14.9967C13.4067 15.1152 12.6409 15.1725 11.8742 15.1681" stroke="white" stroke-width="1.42857" stroke-linecap="round" stroke-linejoin="round"/>
<path d="M9.30278 5.00241C10.6542 5.1967 11.6914 6.3467 11.7985 7.70812C11.9042 9.05812 12.0042 10.451 12.0042 11.8738C12.0042 13.2981 11.9042 14.691 11.7985 16.041C11.6914 17.4024 10.6556 18.5524 9.30278 18.7467C8.61992 18.8467 7.92135 18.921 7.21278 18.921C6.50421 18.921 5.80421 18.8467 5.12135 18.7467C3.76992 18.5524 2.73278 17.4024 2.62564 16.041C2.51992 14.691 2.41992 13.2981 2.41992 11.8738C2.41992 10.4496 2.51992 9.05955 2.62564 7.70812C2.73278 6.3467 3.76849 5.1967 5.12135 5.00241C5.80421 4.90241 6.50278 4.82812 7.21278 4.82812C7.92135 4.82812 8.61992 4.90241 9.30278 5.00241Z" stroke="white" stroke-width="1.42857" stroke-linecap="round" stroke-linejoin="round"/>
</svg>
