<svg preserveAspectRatio="none" width="100%" height="100%" overflow="visible" style="display: block;" viewBox="0 0 18.75 18.7499" fill="none" xmlns="http://www.w3.org/2000/svg">
<g id="Group">
<path id="Vector" d="M16.4263 2.24783C16.2133 1.24325 15.3183 0.575752 14.2771 0.627835C13.0188 0.690752 11.0483 0.837002 8.27292 1.17242C5.49792 1.50784 3.55001 1.83492 2.31334 2.07325C1.29001 2.27033 0.586255 3.13117 0.626672 4.15659C0.670839 5.27742 0.788755 6.972 1.08042 9.31033C1.21251 10.3678 1.34667 11.2895 1.47542 12.0833" stroke="var(--stroke-0, white)" stroke-width="1.25" stroke-linecap="round" stroke-linejoin="round"/>
<path id="Vector_2" d="M1.64251 16.0241C1.73376 17.0849 2.56167 17.877 3.62376 17.9487C4.90917 18.0353 6.92876 18.1249 9.79167 18.1249C12.6542 18.1249 14.6742 18.0353 15.9596 17.9487C17.0221 17.877 17.8496 17.0849 17.9408 16.0241C18.035 14.9266 18.125 13.2899 18.125 11.0416C18.125 8.79325 18.035 7.157 17.9408 6.05908C17.8496 4.99825 17.0217 4.20617 15.9596 4.1345C14.6742 4.04784 12.6546 3.95825 9.79167 3.95825C6.92917 3.95825 4.90917 4.04784 3.62376 4.1345C2.56126 4.20617 1.73376 4.99825 1.64251 6.05908C1.54834 7.15658 1.45834 8.79325 1.45834 11.0416C1.45834 13.2899 1.54834 14.9266 1.64251 16.0241Z" stroke="var(--stroke-0, white)" stroke-width="1.25" stroke-linejoin="round"/>
<path id="Vector_3" d="M7.29167 7.29158H3.95834M7.29167 12.2916H3.95834M15.625 14.7916H3.95834M7.29167 9.79158H3.95834" stroke="var(--stroke-0, white)" stroke-width="1.25" stroke-linecap="round" stroke-linejoin="round"/>
<path id="Vector_4" d="M9.82792 11.3845C9.86376 12.0958 10.4042 12.6362 11.1154 12.672C11.5283 12.6928 12.0558 12.7083 12.7083 12.7083C13.2395 12.7095 13.7707 12.6974 14.3013 12.672C15.0121 12.6362 15.5529 12.0958 15.5888 11.3845C15.6096 10.9716 15.625 10.4441 15.625 9.79159C15.6263 9.26053 15.6142 8.72953 15.5888 8.19908C15.5529 7.48783 15.0125 6.947 14.3013 6.91158C13.7707 6.886 13.2395 6.87378 12.7083 6.87492C12.1773 6.87365 11.6463 6.88573 11.1158 6.91117C10.4046 6.947 9.86376 7.48742 9.82834 8.19867C9.80276 8.72925 9.79053 9.26039 9.79167 9.79159C9.79167 10.4441 9.80751 10.9716 9.82792 11.3845Z" stroke="var(--stroke-0, white)" stroke-width="1.25" stroke-linejoin="round"/>
</g>
</svg>
