<svg preserveAspectRatio="none" width="100%" height="100%" overflow="visible" style="display: block;" viewBox="0 0 16.25 16.25" fill="none" xmlns="http://www.w3.org/2000/svg">
<g id="Group">
<path id="Vector" d="M15.625 8.125C15.625 9.10991 15.431 10.0852 15.0541 10.9951C14.6772 11.9051 14.1247 12.7319 13.4283 13.4283C12.7319 14.1247 11.9051 14.6772 10.9951 15.0541C10.0852 15.431 9.10991 15.625 8.125 15.625C7.14009 15.625 6.16482 15.431 5.25487 15.0541C4.34493 14.6772 3.51814 14.1247 2.8217 13.4283C2.12526 12.7319 1.57281 11.9051 1.1959 10.9951C0.818993 10.0852 0.625 9.10991 0.625 8.125C0.625 6.13588 1.41518 4.22822 2.8217 2.8217C4.22822 1.41518 6.13588 0.625 8.125 0.625C10.1141 0.625 12.0218 1.41518 13.4283 2.8217C14.8348 4.22822 15.625 6.13588 15.625 8.125Z" stroke="var(--stroke-0, white)" stroke-width="1.25" stroke-linecap="round" stroke-linejoin="round"/>
<path id="Vector_2" d="M13.125 3.125L10.1875 6.0625M10.1875 6.0625C11.3108 7.18667 11.3108 9.06417 10.1875 10.1875M10.1875 6.0625C9.06417 4.93917 7.18667 4.93917 6.0625 6.0625M3.125 13.125L6.0625 10.1875M6.0625 10.1875C4.93917 9.06417 4.93917 7.18667 6.0625 6.0625M6.0625 10.1875C7.18583 11.3108 9.06333 11.3108 10.1875 10.1875M3.125 3.125L6.0625 6.0625M13.125 13.125L10.1875 10.1875" stroke="var(--stroke-0, white)" stroke-width="1.25" stroke-linecap="round" stroke-linejoin="round"/>
</g>
</svg>
