<svg preserveAspectRatio="none" width="100%" height="100%" overflow="visible" style="display: block;" viewBox="0 0 49.9982 50.0002" fill="none" xmlns="http://www.w3.org/2000/svg">
<g id="Group">
<path id="Vector" d="M0 22.0588H23.5294V0H0V22.0588ZM2.94118 2.94118H20.5882V19.1176H2.94118V2.94118Z" fill="var(--fill-0, #FF975D)"/>
<path id="Vector_2" d="M10.2935 11.155L8.39211 9.25368L6.3125 11.3333L10.2935 15.3144L17.2156 8.39211L15.136 6.3125L10.2935 11.155Z" fill="var(--fill-0, #FF975D)"/>
<path id="Vector_3" d="M0 50.0002H23.5294V27.9414H0V50.0002ZM2.94118 30.8826H20.5882V47.059H2.94118V30.8826Z" fill="var(--fill-0, #FF975D)"/>
<path id="Vector_4" d="M10.2935 39.0964L8.39211 37.1951L6.3125 39.2747L10.2935 43.2558L17.2156 36.3335L15.136 34.2539L10.2935 39.0964Z" fill="var(--fill-0, #FF975D)"/>
<path id="Vector_5" d="M26.4688 0H49.9982V2.94118H26.4688V0Z" fill="var(--fill-0, #FF975D)"/>
<path id="Vector_6" d="M26.4688 5.88281H49.9982V8.82399H26.4688V5.88281Z" fill="var(--fill-0, #FF975D)"/>
<path id="Vector_7" d="M26.4688 11.7637H49.9982V14.7049H26.4688V11.7637Z" fill="var(--fill-0, #FF975D)"/>
<path id="Vector_8" d="M26.4688 17.6465H47.057V20.5877H26.4688V17.6465Z" fill="var(--fill-0, #FF975D)"/>
<path id="Vector_9" d="M26.4688 27.9414H49.9982V30.8826H26.4688V27.9414Z" fill="var(--fill-0, #FF975D)"/>
<path id="Vector_10" d="M26.4688 33.8242H49.9982V36.7654H26.4688V33.8242Z" fill="var(--fill-0, #FF975D)"/>
<path id="Vector_11" d="M26.4688 39.7051H49.9982V42.6463H26.4688V39.7051Z" fill="var(--fill-0, #FF975D)"/>
<path id="Vector_12" d="M26.4688 45.5879H47.057V48.5291H26.4688V45.5879Z" fill="var(--fill-0, #FF975D)"/>
</g>
</svg>
