<svg preserveAspectRatio="none" width="100%" height="100%" overflow="visible" style="display: block;" viewBox="0 0 44.1805 50" fill="none" xmlns="http://www.w3.org/2000/svg">
<g id="Group">
<path id="Vector" d="M44.1805 30.8757V12.9342L8.83609 6.55255V4.34687C8.83609 1.95003 6.88616 0 4.48932 0H0V2.94536H4.48922C5.26199 2.94536 5.89073 3.5741 5.89073 4.34687V31.5429C5.89073 34.6825 8.44495 37.2368 11.5846 37.2368H12.7632V40.5932C12.1615 40.3295 11.4976 40.1821 10.7997 40.1821C8.09288 40.1821 5.89073 42.3843 5.89073 45.0911C5.89073 47.7978 8.09288 50 10.7997 50C13.3408 50 15.4369 48.0591 15.684 45.5819H15.7086V37.2368H41.2351V40.5932C40.6334 40.3295 39.9695 40.1821 39.2715 40.1821C36.5647 40.1821 34.3626 42.3843 34.3626 45.0911C34.3626 47.7978 36.5647 50 39.2715 50C41.8127 50 43.9088 48.0591 44.1558 45.5819H44.1805V34.2914H11.5846C10.069 34.2914 8.83609 33.0585 8.83609 31.5429V30.3848L44.1805 30.8757ZM10.7997 47.0546C9.71695 47.0546 8.83609 46.1738 8.83609 45.0911C8.83609 44.0083 9.71695 43.1275 10.7997 43.1275C11.8824 43.1275 12.7632 44.0083 12.7632 45.0911C12.7632 46.1738 11.8824 47.0546 10.7997 47.0546ZM39.2715 47.0546C38.1888 47.0546 37.3079 46.1738 37.3079 45.0911C37.3079 44.0083 38.1888 43.1275 39.2715 43.1275C40.3542 43.1275 41.2351 44.0083 41.2351 45.0911C41.2351 46.1738 40.3542 47.0546 39.2715 47.0546ZM23.5629 27.6437L17.6722 27.5619V11.1409L23.5629 12.2045V27.6437ZM26.5083 12.7363L31.9081 13.7114V27.7597L26.5083 27.6846V12.7363ZM14.7268 27.521L8.83609 27.4392V9.54553L14.7268 10.6091V27.521ZM41.2351 27.8892L34.8535 27.8005V14.2431L41.2351 15.3953V27.8892Z" fill="var(--fill-0, #FF975D)"/>
</g>
</svg>
