<svg preserveAspectRatio="none" width="100%" height="100%" overflow="visible" style="display: block;" viewBox="0 0 50 33.824" fill="none" xmlns="http://www.w3.org/2000/svg">
<g id="Group">
<path id="Vector" d="M44.6076 17.6465C41.9693 17.6465 39.769 19.5517 39.3065 22.0582H30.3011C29.8385 19.5517 27.6382 17.6465 24.9999 17.6465C22.3616 17.6465 20.1613 19.5517 19.6987 22.0582H10.6933C10.2308 19.5517 8.03049 17.6465 5.39216 17.6465C2.41892 17.6465 0 20.0654 0 23.0386C0 26.0119 2.41892 28.4308 5.39216 28.4308C7.67372 28.4308 9.62745 27.0057 10.4136 24.9994H19.9785C20.7647 27.0057 22.7184 28.4308 25 28.4308C27.2816 28.4308 29.2353 27.0057 30.0215 24.9994H39.5864C40.3725 27.0057 42.3263 28.4308 44.6078 28.4308C47.5811 28.4308 50 26.0119 50 23.0386C50 20.0654 47.5809 17.6465 44.6076 17.6465V17.6465ZM5.39196 25.4896C4.04049 25.4896 2.94098 24.3901 2.94098 23.0386C2.94098 21.6872 4.04049 20.5877 5.39196 20.5877C6.74343 20.5877 7.84294 21.6872 7.84294 23.0386C7.84294 24.3901 6.74343 25.4896 5.39196 25.4896ZM24.9998 25.4896C23.6483 25.4896 22.5488 24.3901 22.5488 23.0386C22.5488 21.6872 23.6483 20.5877 24.9998 20.5877C26.3513 20.5877 27.4508 21.6872 27.4508 23.0386C27.4508 24.3901 26.3513 25.4896 24.9998 25.4896ZM44.6076 25.4896C43.2562 25.4896 42.1567 24.3901 42.1567 23.0386C42.1567 21.6872 43.2562 20.5877 44.6076 20.5877C45.9591 20.5877 47.0586 21.6872 47.0586 23.0386C47.0586 24.3901 45.9591 25.4896 44.6076 25.4896Z" fill="var(--fill-0, #FF975D)"/>
<path id="Vector_2" d="M10.2923 11.7647H7.3511V0H1.46875V2.94118H4.40993V11.7647H1.46875V14.7059H10.2923V11.7647Z" fill="var(--fill-0, #FF975D)"/>
<path id="Vector_3" d="M29.4134 11.7647H23.531V10.1583L29.4134 6.72696V0H20.5898V2.94118H26.4722V5.03774L20.5898 8.46912V14.7059H29.4134V11.7647Z" fill="var(--fill-0, #FF975D)"/>
<path id="Vector_4" d="M20.5859 30.8828H29.4095V33.824H20.5859V30.8828Z" fill="var(--fill-0, #FF975D)"/>
<path id="Vector_5" d="M48.5267 0H39.7031V2.94118H45.5855V5.88235H41.1737V8.82353H45.5855V11.7647H39.7031V14.7059H48.5267V0Z" fill="var(--fill-0, #FF975D)"/>
</g>
</svg>
