<svg preserveAspectRatio="none" width="100%" height="100%" overflow="visible" style="display: block;" viewBox="0 0 16 16" fill="none" xmlns="http://www.w3.org/2000/svg">
<g id="material-symbols:euro">
<path id="Vector" d="M10 14C8.68889 14 7.52222 13.6278 6.5 12.8833C5.47778 12.1389 4.75556 11.1778 4.33333 10H2V8.66667H4.03333C4 8.4 3.98622 8.15289 3.992 7.92533C3.99778 7.69778 4.01156 7.50044 4.03333 7.33333H2V6H4.33333C4.75556 4.82222 5.47778 3.86111 6.5 3.11667C7.52222 2.37222 8.68889 2 10 2C10.7667 2 11.4918 2.13622 12.1753 2.40867C12.8589 2.68111 13.4671 3.056 14 3.53333L13.05 4.46667C12.6389 4.11111 12.1751 3.83333 11.6587 3.63333C11.1422 3.43333 10.5893 3.33333 10 3.33333C9.05556 3.33333 8.21111 3.58067 7.46667 4.07533C6.72222 4.57 6.16111 5.21156 5.78333 6H10V7.33333H5.38333C5.33889 7.63333 5.32222 7.89733 5.33333 8.12533C5.34444 8.35333 5.36111 8.53378 5.38333 8.66667H10V10H5.78333C6.16111 10.7889 6.72222 11.4307 7.46667 11.9253C8.21111 12.42 9.05556 12.6671 10 12.6667C10.5889 12.6667 11.1418 12.5667 11.6587 12.3667C12.1756 12.1667 12.6393 11.8889 13.05 11.5333L14 12.4667C13.4667 12.9444 12.8582 13.3196 12.1747 13.592C11.4911 13.8644 10.7662 14.0004 10 14Z" fill="var(--fill-0, #FF975D)"/>
</g>
</svg>
