<svg preserveAspectRatio="none" width="100%" height="100%" overflow="visible" style="display: block;" viewBox="0 0 32 32" fill="none" xmlns="http://www.w3.org/2000/svg">
<g id="healthicons:job-status-level-outline">
<path id="Vector" fill-rule="evenodd" clip-rule="evenodd" d="M14.012 11.5567C12.0953 11.9407 10 12.802 10 14V16H22V14C22 12.802 19.9047 11.9407 17.988 11.5567C17.2573 11.41 16.5533 11.3333 16 11.3333C15.4467 11.3333 14.7427 11.4107 14.012 11.5567ZM20.6667 14.6667V14.076C20.6192 14.0191 20.5655 13.9677 20.5067 13.9227C20.2593 13.7227 19.8467 13.5027 19.2907 13.2973C18.1787 12.888 16.8333 12.6667 16 12.6667C15.1667 12.6667 13.8213 12.888 12.7093 13.2973C12.1533 13.502 11.7407 13.7227 11.4933 13.9227C11.4345 13.9677 11.3808 14.0191 11.3333 14.076V14.6667H20.6667ZM14.2333 10.1613C14.7453 10.4813 15.3513 10.6667 16 10.6667C16.6487 10.6667 17.254 10.4813 17.7667 10.1613C18.2463 9.86158 18.6417 9.44471 18.9158 8.94998C19.1899 8.45525 19.3336 7.89891 19.3333 7.33333C19.3333 5.492 17.8413 4 16 4C14.1587 4 12.6667 5.492 12.6667 7.33333C12.6667 8.52667 13.2927 9.572 14.2333 10.1613ZM16 9.33333C17.1053 9.33333 18 8.43867 18 7.33333C18 6.228 17.1053 5.33333 16 5.33333C14.8947 5.33333 14 6.228 14 7.33333C14 8.43867 14.8947 9.33333 16 9.33333ZM16.6667 21.1767V22.7507C17.2937 22.9145 17.8396 23.3009 18.2025 23.8378C18.5655 24.3747 18.7206 25.0253 18.639 25.6681C18.5573 26.311 18.2445 26.9022 17.7589 27.3313C17.2732 27.7604 16.648 27.9981 16 28C15.3505 28.0006 14.7231 27.7642 14.2355 27.3351C13.748 26.906 13.4338 26.3136 13.3519 25.6693C13.2701 25.025 13.4263 24.3729 13.7911 23.8355C14.1559 23.2982 14.7043 22.9124 15.3333 22.7507V21.1767H7.33333V22.7507C7.96033 22.9145 8.50626 23.3009 8.8692 23.8378C9.23214 24.3747 9.38727 25.0253 9.30562 25.6681C9.22398 26.311 8.91114 26.9022 8.42552 27.3313C7.9399 27.7604 7.3147 27.9981 6.66667 28C6.01716 28.0006 5.38974 27.7642 4.90218 27.3351C4.41462 26.906 4.10044 26.3136 4.01861 25.6693C3.93678 25.025 4.09293 24.3729 4.45774 23.8355C4.82255 23.2982 5.37095 22.9124 6 22.7507V21.1767C6 20.823 6.14048 20.4839 6.39052 20.2339C6.64057 19.9838 6.97971 19.8433 7.33333 19.8433H15.3333V17.3333H16.6667V19.8433H24.6667C25.0203 19.8433 25.3594 19.9838 25.6095 20.2339C25.8595 20.4839 26 20.823 26 21.1767V22.7507C26.627 22.9145 27.1729 23.3009 27.5359 23.8378C27.8988 24.3747 28.0539 25.0253 27.9723 25.6681C27.8906 26.311 27.5778 26.9022 27.0922 27.3313C26.6066 27.7604 25.9814 27.9981 25.3333 28C24.6838 28.0006 24.0564 27.7642 23.5688 27.3351C23.0813 26.906 22.7671 26.3136 22.6853 25.6693C22.6034 25.025 22.7596 24.3729 23.1244 23.8355C23.4892 23.2982 24.0376 22.9124 24.6667 22.7507V21.1767H16.6667ZM25.3333 24C24.9797 24 24.6406 24.1405 24.3905 24.3905C24.1405 24.6406 24 24.9797 24 25.3333C24 25.687 24.1405 26.0261 24.3905 26.2761C24.6406 26.5262 24.9797 26.6667 25.3333 26.6667C25.687 26.6667 26.0261 26.5262 26.2761 26.2761C26.5262 26.0261 26.6667 25.687 26.6667 25.3333C26.6667 24.9797 26.5262 24.6406 26.2761 24.3905C26.0261 24.1405 25.687 24 25.3333 24ZM6.66667 24C6.31304 24 5.97391 24.1405 5.72386 24.3905C5.47381 24.6406 5.33333 24.9797 5.33333 25.3333C5.33333 25.687 5.47381 26.0261 5.72386 26.2761C5.97391 26.5262 6.31304 26.6667 6.66667 26.6667C7.02029 26.6667 7.35943 26.5262 7.60948 26.2761C7.85952 26.0261 8 25.687 8 25.3333C8 24.9797 7.85952 24.6406 7.60948 24.3905C7.35943 24.1405 7.02029 24 6.66667 24ZM16 26.6667C16.3536 26.6667 16.6928 26.5262 16.9428 26.2761C17.1929 26.0261 17.3333 25.687 17.3333 25.3333C17.3333 24.9797 17.1929 24.6406 16.9428 24.3905C16.6928 24.1405 16.3536 24 16 24C15.6464 24 15.3072 24.1405 15.0572 24.3905C14.8071 24.6406 14.6667 24.9797 14.6667 25.3333C14.6667 25.687 14.8071 26.0261 15.0572 26.2761C15.3072 26.5262 15.6464 26.6667 16 26.6667Z" fill="var(--fill-0, #FF5C00)"/>
</g>
</svg>
