<svg preserveAspectRatio="none" width="100%" height="100%" overflow="visible" style="display: block;" viewBox="0 0 32 32" fill="none" xmlns="http://www.w3.org/2000/svg">
<g id="proicons:chat">
<path id="Vector" d="M10.6267 13.1813H21.3733M10.6267 18.8187H18.2907M16 28.3333C18.6792 28.3328 21.2853 27.4598 23.4243 25.8464C25.5632 24.2331 27.1186 21.9671 27.8553 19.3912C28.592 16.8153 28.4698 14.0695 27.5073 11.5692C26.5448 9.06888 24.7943 6.94997 22.5205 5.53294C20.2467 4.1159 17.5734 3.47781 14.9047 3.71516C12.2361 3.95251 9.7173 5.05239 7.72931 6.84846C5.74131 8.64454 4.39223 11.0391 3.88609 13.6701C3.37996 16.301 3.74429 19.0252 4.924 21.4307C5.068 21.724 5.116 22.0547 5.04267 22.372L3.95467 27.0867C3.92399 27.219 3.92751 27.3569 3.96489 27.4875C4.00227 27.6181 4.07227 27.737 4.16831 27.833C4.26435 27.9291 4.38326 27.9991 4.51384 28.0364C4.64441 28.0738 4.78236 28.0773 4.91467 28.0467L9.628 26.9573C9.94623 26.8877 10.2788 26.93 10.5693 27.0773C12.2592 27.9072 14.1174 28.3369 16 28.3333Z" stroke="var(--stroke-0, #FF5C00)" stroke-width="2" stroke-linecap="round" stroke-linejoin="round"/>
</g>
</svg>
