<svg preserveAspectRatio="none" width="100%" height="100%" overflow="visible" style="display: block;" viewBox="0 0 24 19.4059" fill="none" xmlns="http://www.w3.org/2000/svg">
<g id="Group">
<path id="Vector" d="M22.717 8.25253C21.7617 4.97044 20.6844 3.27459 20.667 3.24417C20.6056 3.16922 19.0833 1.34747 15.4143 0L14.9295 1.32C16.6749 1.96106 17.9133 2.74313 18.5943 3.24844C16.5611 2.64127 14.1423 2.26941 12 2.26941C9.85772 2.26941 7.43892 2.64127 5.40567 3.24844C6.08667 2.74317 7.32502 1.96106 9.0705 1.32L8.58567 0C4.91672 1.34747 3.39441 3.16922 3.333 3.24417C3.31561 3.27459 2.23828 4.97044 1.28306 8.25253C0.362438 11.4155 0.0127031 15.8775 0 16.0564C0.0820312 16.1846 1.96875 19.4059 7.11061 19.4059L8.41392 17.5186C6.95377 17.1309 5.56144 16.5057 4.28691 15.6573L5.06611 14.4867C7.12228 15.8553 9.51998 16.5788 12 16.5788C14.48 16.5788 16.8777 15.8553 18.9339 14.4867L19.7131 15.6573C18.4386 16.5057 17.0462 17.1309 15.5861 17.5186L16.8894 19.4059C22.0313 19.4059 23.918 16.1846 24 16.0564C23.9873 15.8775 23.6376 11.4155 22.717 8.25253V8.25253ZM8.74884 11.9314H7.34259V9.58763H8.74884V11.9314ZM16.6574 11.9314H15.2512V9.58763H16.6574V11.9314Z" fill="var(--fill-0, white)"/>
</g>
</svg>
