<svg preserveAspectRatio="none" width="100%" height="100%" overflow="visible" style="display: block;" viewBox="0 0 28.6667 28.6667" fill="none" xmlns="http://www.w3.org/2000/svg">
<g id="Group">
<path id="Vector" d="M13.0093 26.3333H11.14C6.36 26.3333 3.97067 26.3333 2.48533 24.82C1 23.3067 1 20.872 1 16C1 11.1293 1 8.69334 2.48533 7.18C3.97067 5.66667 6.36 5.66667 11.14 5.66667H16.2107C20.9907 5.66667 23.3813 5.66667 24.8667 7.18C26.0093 8.344 26.272 10.0547 26.3333 13" stroke="var(--stroke-0, #FF5C00)" stroke-width="2" stroke-linecap="round"/>
<path id="Vector_2" d="M25.0227 25.0307L27.6667 27.6667M26.404 21.7013C26.4145 21.0772 26.3007 20.4572 26.0691 19.8775C25.8375 19.2979 25.4928 18.7701 25.0552 18.325C24.6175 17.8799 24.0956 17.5264 23.5199 17.2851C22.9442 17.0438 22.3262 16.9195 21.702 16.9195C21.0778 16.9195 20.4598 17.0438 19.8841 17.2851C19.3084 17.5264 18.7865 17.8799 18.3488 18.325C17.9112 18.7701 17.5665 19.2979 17.3349 19.8775C17.1033 20.4572 16.9895 21.0772 17 21.7013C17.0208 22.9347 17.5253 24.1105 18.4048 24.9753C19.2844 25.8402 20.4685 26.3248 21.702 26.3248C22.9355 26.3248 24.1196 25.8402 24.9992 24.9753C25.8787 24.1105 26.3832 22.9347 26.404 21.7013Z" stroke="var(--stroke-0, #FF5C00)" stroke-width="2" stroke-linecap="round" stroke-linejoin="round"/>
<path id="Vector_3" d="M19.6667 5.66667L19.5333 5.25334C18.8733 3.2 18.544 2.17334 17.7587 1.58667C16.972 1 15.9293 1 13.84 1H13.4893C11.4027 1 10.3587 1 9.57333 1.58667C8.78667 2.17334 8.45733 3.2 7.79733 5.25334L7.66667 5.66667" stroke="var(--stroke-0, #FF5C00)" stroke-width="2"/>
</g>
</svg>
