<svg preserveAspectRatio="none" width="100%" height="100%" overflow="visible" style="display: block;" viewBox="0 0 25.5 25.5" fill="none" xmlns="http://www.w3.org/2000/svg">
<g id="Group">
<path id="Vector" d="M24.75 12.75C24.75 14.3259 24.4396 15.8863 23.8366 17.3422C23.2335 18.7981 22.3496 20.121 21.2353 21.2353C20.121 22.3496 18.7981 23.2335 17.3422 23.8366C15.8863 24.4396 14.3259 24.75 12.75 24.75C11.1741 24.75 9.61371 24.4396 8.1578 23.8366C6.70189 23.2335 5.37902 22.3496 4.26472 21.2353C3.15042 20.121 2.2665 18.7981 1.66345 17.3422C1.06039 15.8863 0.75 14.3259 0.75 12.75C0.75 9.5674 2.01428 6.51516 4.26472 4.26472C6.51516 2.01428 9.5674 0.75 12.75 0.75C15.9326 0.75 18.9848 2.01428 21.2353 4.26472C23.4857 6.51516 24.75 9.5674 24.75 12.75Z" stroke="var(--stroke-0, #FF5C00)" stroke-width="1.5" stroke-linecap="round" stroke-linejoin="round"/>
<path id="Vector_2" d="M20.75 4.75L16.05 9.45M16.05 9.45C17.8473 11.2487 17.8473 14.2527 16.05 16.05M16.05 9.45C14.2527 7.65267 11.2487 7.65267 9.45 9.45M4.75 20.75L9.45 16.05M9.45 16.05C7.65267 14.2527 7.65267 11.2487 9.45 9.45M9.45 16.05C11.2473 17.8473 14.2513 17.8473 16.05 16.05M4.75 4.75L9.45 9.45M20.75 20.75L16.05 16.05" stroke="var(--stroke-0, #FF5C00)" stroke-width="1.5" stroke-linecap="round" stroke-linejoin="round"/>
</g>
</svg>
